<svg xmlns="http://www.w3.org/2000/svg" width="67" height="67" viewBox="0 0 67 67">
  <g id="Grupo_1073502" data-name="Grupo 1073502" transform="translate(-452.5 -5074)">
    <circle id="Elipse_9669" data-name="Elipse 9669" cx="33.5" cy="33.5" r="33.5" transform="translate(452.5 5074)" fill="#f0c52c"/>
    <g id="etapas" transform="translate(393.284 5083.959)">
      <path id="Trazado_823927" data-name="Trazado 823927" d="M199.243,200.644H176V188h23.243Z" transform="translate(-90.703 -170.521)" fill="#dfedff"/>
      <path id="Trazado_823928" data-name="Trazado 823928" d="M190.173,192.5h-7.442a.93.93,0,1,1,0-1.859h6.512V179.859H167.859v10.785h6.5a.93.93,0,0,1,0,1.859h-7.43a.93.93,0,0,1-.93-.93V178.93a.93.93,0,0,1,.93-.93h23.243a.93.93,0,0,1,.93.93v12.644A.93.93,0,0,1,190.173,192.5Z" transform="translate(-81.632 -161.451)"/>
      <path id="Línea_209" data-name="Línea 209" transform="translate(96.938 30.123)"/>
      <rect id="Rectángulo_382816" data-name="Rectángulo 382816" width="23.168" height="12.816" transform="translate(85.366 0.938)" fill="#faf7f5"/>
      <path id="Rectángulo_382816_-_Contorno" data-name="Rectángulo 382816 - Contorno" d="M-9.07-10H14.173a.93.93,0,0,1,.93.93V3.76a.93.93,0,0,1-.93.93H-9.07A.93.93,0,0,1-10,3.76V-9.07A.93.93,0,0,1-9.07-10ZM13.243-8.141H-8.141V2.83H13.243Z" transform="translate(94.368 10)"/>
      <rect id="Rectángulo_382817" data-name="Rectángulo 382817" width="23.168" height="12.816" transform="translate(85.366 33.8)" fill="#a0c8ff"/>
      <path id="Rectángulo_382817_-_Contorno" data-name="Rectángulo 382817 - Contorno" d="M-9.07-10H14.173a.93.93,0,0,1,.93.93V3.76a.93.93,0,0,1-.93.93H-9.07A.93.93,0,0,1-10,3.76V-9.07A.93.93,0,0,1-9.07-10ZM13.243-8.141H-8.141V2.83H13.243Z" transform="translate(94.368 42.912)"/>
      <circle id="Elipse_9766" data-name="Elipse 9766" cx="2.3" cy="2.3" r="2.3" transform="translate(76.986 21.477)" fill="#ffe6b4"/>
      <path id="Elipse_9766_-_Contorno" data-name="Elipse 9766 - Contorno" d="M-6.746-10A3.258,3.258,0,0,1-3.492-6.746,3.258,3.258,0,0,1-6.746-3.492,3.258,3.258,0,0,1-10-6.746,3.258,3.258,0,0,1-6.746-10Zm0,4.649A1.4,1.4,0,0,0-5.351-6.746,1.4,1.4,0,0,0-6.746-8.141,1.4,1.4,0,0,0-8.141-6.746,1.4,1.4,0,0,0-6.746-5.351Z" transform="translate(86 30.547)"/>
      <circle id="Elipse_9767" data-name="Elipse 9767" cx="2.3" cy="2.3" r="2.3" transform="translate(76.986 5.045)" fill="#ff9c9b"/>
      <path id="Elipse_9767_-_Contorno" data-name="Elipse 9767 - Contorno" d="M-6.746-10A3.258,3.258,0,0,1-3.492-6.746,3.258,3.258,0,0,1-6.746-3.492,3.258,3.258,0,0,1-10-6.746,3.258,3.258,0,0,1-6.746-10Zm0,4.649A1.4,1.4,0,0,0-5.351-6.746,1.4,1.4,0,0,0-6.746-8.141,1.4,1.4,0,0,0-8.141-6.746,1.4,1.4,0,0,0-6.746-5.351Z" transform="translate(86 14.091)"/>
      <circle id="Elipse_9768" data-name="Elipse 9768" cx="2.3" cy="2.3" r="2.3" transform="translate(76.986 37.908)" fill="#9de3d1"/>
      <path id="Elipse_9768_-_Contorno" data-name="Elipse 9768 - Contorno" d="M-6.746-10A3.258,3.258,0,0,1-3.492-6.746,3.258,3.258,0,0,1-6.746-3.492,3.258,3.258,0,0,1-10-6.746,3.258,3.258,0,0,1-6.746-10Zm0,4.649A1.4,1.4,0,0,0-5.351-6.746,1.4,1.4,0,0,0-6.746-8.141,1.4,1.4,0,0,0-8.141-6.746,1.4,1.4,0,0,0-6.746-5.351Z" transform="translate(86 47.003)"/>
      <path id="Línea_210" data-name="Línea 210" d="M2.551-8.141h-.1a.93.93,0,0,1-.93-.93.93.93,0,0,1,.93-.93h.1a.93.93,0,0,1,.93.93A.93.93,0,0,1,2.551-8.141Zm-4.286,0H-9.07A.93.93,0,0,1-10-9.07.93.93,0,0,1-9.07-10h7.336a.93.93,0,0,1,.93.93A.93.93,0,0,1-1.735-8.141Z" transform="translate(98.086 18.275)"/>
      <path id="Línea_211" data-name="Línea 211" d="M6.735-8.141H.971a.93.93,0,0,1-.93-.93A.93.93,0,0,1,.971-10H6.735a.93.93,0,0,1,.93.93A.93.93,0,0,1,6.735-8.141Zm-9.948,0H-9.07A.93.93,0,0,1-10-9.07.93.93,0,0,1-9.07-10h5.857a.93.93,0,0,1,.93.93A.93.93,0,0,1-3.213-8.141Z" transform="translate(98.086 14.556)"/>
      <path id="Línea_212" data-name="Línea 212" d="M2.551-8.141h-.1a.93.93,0,0,1-.93-.93.93.93,0,0,1,.93-.93h.1a.93.93,0,0,1,.93.93A.93.93,0,0,1,2.551-8.141Zm-4.286,0H-9.07A.93.93,0,0,1-10-9.07.93.93,0,0,1-9.07-10h7.336a.93.93,0,0,1,.93.93A.93.93,0,0,1-1.735-8.141Z" transform="translate(98.086 34.731)"/>
      <path id="Línea_213" data-name="Línea 213" d="M6.735-8.141H.971a.93.93,0,0,1-.93-.93A.93.93,0,0,1,.971-10H6.735a.93.93,0,0,1,.93.93A.93.93,0,0,1,6.735-8.141Zm-9.948,0H-9.07A.93.93,0,0,1-10-9.07.93.93,0,0,1-9.07-10h5.857a.93.93,0,0,1,.93.93A.93.93,0,0,1-3.213-8.141Z" transform="translate(98.086 31.012)"/>
      <path id="Línea_214" data-name="Línea 214" d="M2.551-8.141h-.1a.93.93,0,0,1-.93-.93.93.93,0,0,1,.93-.93h.1a.93.93,0,0,1,.93.93A.93.93,0,0,1,2.551-8.141Zm-4.286,0H-9.07A.93.93,0,0,1-10-9.07.93.93,0,0,1-9.07-10h7.336a.93.93,0,0,1,.93.93A.93.93,0,0,1-1.735-8.141Z" transform="translate(98.086 51.187)"/>
      <path id="Línea_215" data-name="Línea 215" d="M6.735-8.141H.971a.93.93,0,0,1-.93-.93A.93.93,0,0,1,.971-10H6.735a.93.93,0,0,1,.93.93A.93.93,0,0,1,6.735-8.141Zm-9.948,0H-9.07A.93.93,0,0,1-10-9.07.93.93,0,0,1-9.07-10h5.857a.93.93,0,0,1,.93.93A.93.93,0,0,1-3.213-8.141Z" transform="translate(98.086 47.468)"/>
      <path id="Línea_216" data-name="Línea 216" d="M-5.351-8.141H-9.07A.93.93,0,0,1-10-9.07.93.93,0,0,1-9.07-10h3.719a.93.93,0,0,1,.93.93A.93.93,0,0,1-5.351-8.141Z" transform="translate(90.649 16.415)"/>
      <path id="Línea_217" data-name="Línea 217" d="M-5.351-8.141H-9.07A.93.93,0,0,1-10-9.07.93.93,0,0,1-9.07-10h3.719a.93.93,0,0,1,.93.93A.93.93,0,0,1-5.351-8.141Z" transform="translate(90.649 32.871)"/>
      <path id="Línea_218" data-name="Línea 218" d="M-5.351-8.141H-9.07A.93.93,0,0,1-10-9.07.93.93,0,0,1-9.07-10h3.719a.93.93,0,0,1,.93.93A.93.93,0,0,1-5.351-8.141Z" transform="translate(90.649 49.328)"/>
      <path id="Línea_219" data-name="Línea 219" d="M-9.07-4.05a.93.93,0,0,1-.93-.93V-9.07A.93.93,0,0,1-9.07-10a.93.93,0,0,1,.93.93v4.091A.93.93,0,0,1-9.07-4.05Z" transform="translate(88.324 51.652)"/>
      <path id="Línea_220" data-name="Línea 220" d="M-9.07-4.05a.93.93,0,0,1-.93-.93V-9.07A.93.93,0,0,1-9.07-10a.93.93,0,0,1,.93.93v4.091A.93.93,0,0,1-9.07-4.05Z" transform="translate(88.324 10)"/>
      <path id="Línea_221" data-name="Línea 221" d="M-9.07,3.667a.93.93,0,0,1-.93-.93V-9.07A.93.93,0,0,1-9.07-10a.93.93,0,0,1,.93.93V2.737A.93.93,0,0,1-9.07,3.667Z" transform="translate(88.324 18.739)"/>
      <path id="Línea_222" data-name="Línea 222" d="M-9.07,3.667a.93.93,0,0,1-.93-.93V-9.07A.93.93,0,0,1-9.07-10a.93.93,0,0,1,.93.93V2.737A.93.93,0,0,1-9.07,3.667Z" transform="translate(88.324 35.196)"/>
    </g>
  </g>
</svg>
