<svg xmlns="http://www.w3.org/2000/svg" width="67" height="67" viewBox="0 0 67 67">
  <g id="Grupo_1073501" data-name="Grupo 1073501" transform="translate(-767.5 -5074)">
    <circle id="Elipse_9671" data-name="Elipse 9671" cx="33.5" cy="33.5" r="33.5" transform="translate(767.5 5074)" fill="#f0c52c"/>
    <g id="estrategia-digital" transform="translate(776.5 5083)">
      <g id="Grupo_1073499" data-name="Grupo 1073499" transform="translate(1.762 1.762)">
        <g id="Grupo_1073490" data-name="Grupo 1073490" transform="translate(25.533 0)">
          <path id="Trazado_823911" data-name="Trazado 823911" d="M55.7,11.911v4.574l-1.937.618a11.077,11.077,0,0,1-.945,2.3l.93,1.8-3.24,3.233-1.8-.923a11.077,11.077,0,0,1-2.3.945L45.79,26.4H41.216L40.6,24.461c-.053-.015-.107-.038-.16-.053.122-.259.244-.526.351-.793a14.059,14.059,0,0,0,.686-2.074,7.708,7.708,0,0,0,2.028.282,7.624,7.624,0,0,0,0-15.248,7.547,7.547,0,0,0-4.7,1.632A15.23,15.23,0,0,0,35.49,4.958L36.5,3.952l1.8.93a11.077,11.077,0,0,1,2.3-.945L41.216,2H45.79l.618,1.937a11.077,11.077,0,0,1,2.3.945l1.8-.93,3.24,3.24-.93,1.8a11.077,11.077,0,0,1,.945,2.3Z" transform="translate(-35.49 -2)" fill="#ffc729"/>
        </g>
        <g id="Grupo_1073491" data-name="Grupo 1073491" transform="translate(28.85 4.574)">
          <path id="Trazado_823912" data-name="Trazado 823912" d="M44.536,8a7.624,7.624,0,1,1,0,15.248,7.708,7.708,0,0,1-2.028-.282,15.052,15.052,0,0,0,.473-3.042,4.574,4.574,0,1,0,1.555-8.874,4.538,4.538,0,0,0-3.08,1.2A15.638,15.638,0,0,0,39.84,9.632,7.547,7.547,0,0,1,44.536,8Z" transform="translate(-39.84 -8)" fill="#fcd770"/>
        </g>
        <g id="Grupo_1073492" data-name="Grupo 1073492" transform="translate(8.387 39.645)">
          <path id="Trazado_823913" data-name="Trazado 823913" d="M13,54H28.248a6.1,6.1,0,0,1-6.1,6.1H19.1A6.1,6.1,0,0,1,13,54Z" transform="translate(-13 -54)" fill="#aab2bd"/>
        </g>
        <g id="Grupo_1073493" data-name="Grupo 1073493" transform="translate(6.099 35.071)">
          <path id="Trazado_823914" data-name="Trazado 823914" d="M27.535,48H28.3a1.529,1.529,0,0,1,1.525,1.525V51.05A1.529,1.529,0,0,1,28.3,52.574H11.525A1.529,1.529,0,0,1,10,51.05V49.525A1.529,1.529,0,0,1,11.525,48H27.535Z" transform="translate(-10 -48)" fill="#ccd1d9"/>
        </g>
        <g id="Grupo_1073494" data-name="Grupo 1073494">
          <path id="Trazado_823915" data-name="Trazado 823915" d="M32.466,10.829A15.638,15.638,0,0,0,30.85,8.206a15.23,15.23,0,0,0-3.316-3.248A15.537,15.537,0,0,0,18.384,2h-.747A15.634,15.634,0,0,0,6.582,28.692l.572.572a11.052,11.052,0,0,1,3.233,7.807H25.635a11.052,11.052,0,0,1,3.233-7.807l.572-.572a15.842,15.842,0,0,0,3.042-4.285c.122-.259.244-.526.351-.793a14.058,14.058,0,0,0,.686-2.074,15.052,15.052,0,0,0,.473-3.042c.023-.282.03-.572.03-.862a15.635,15.635,0,0,0-1.555-6.808Z" transform="translate(-2 -2)" fill="#ffeaa7"/>
        </g>
        <g id="Grupo_1073495" data-name="Grupo 1073495" transform="translate(9.149 19.823)">
          <path id="Trazado_823916" data-name="Trazado 823916" d="M26.2,28H15.525L14,43.248H27.723Z" transform="translate(-14 -28)" fill="#d3a06c"/>
        </g>
        <g id="Grupo_1073496" data-name="Grupo 1073496" transform="translate(8.387 16.773)">
          <path id="Trazado_823917" data-name="Trazado 823917" d="M26.723,24a1.529,1.529,0,0,1,1.525,1.525,1.536,1.536,0,0,1-1.525,1.525h-12.2A1.529,1.529,0,0,1,13,25.525,1.536,1.536,0,0,1,14.525,24h12.2Z" transform="translate(-13 -24)" fill="#b27946"/>
        </g>
        <g id="Grupo_1073497" data-name="Grupo 1073497" transform="translate(8.387 12.199)">
          <path id="Trazado_823918" data-name="Trazado 823918" d="M28.248,18l-2.287,4.574H15.287L13,18Z" transform="translate(-13 -18)" fill="#d3a06c"/>
        </g>
        <g id="Grupo_1073498" data-name="Grupo 1073498" transform="translate(8.387 7.624)">
          <path id="Trazado_823919" data-name="Trazado 823919" d="M28.248,12v4.574H13V12h3.05v1.525H19.1V12h3.05v1.525H25.2V12Z" transform="translate(-13 -12)" fill="#d3a06c"/>
        </g>
      </g>
      <g id="Grupo_1073500" data-name="Grupo 1073500" transform="translate(1 1)">
        <path id="Trazado_823920" data-name="Trazado 823920" d="M22,39h1.525v1.525H22Z" transform="translate(-5.989 -10.028)"/>
        <path id="Trazado_823921" data-name="Trazado 823921" d="M22,43h1.525v1.525H22Z" transform="translate(-5.989 -10.979)"/>
        <path id="Trazado_823922" data-name="Trazado 823922" d="M22,35h1.525v1.525H22Z" transform="translate(-5.989 -9.078)"/>
        <path id="Trazado_823923" data-name="Trazado 823923" d="M22,31h1.525v1.525H22Z" transform="translate(-5.989 -8.128)"/>
        <path id="Trazado_823924" data-name="Trazado 823924" d="M48.27,16.8V11.117l-2.084-.668a11.387,11.387,0,0,0-.7-1.7l1-1.943L42.464,2.786l-1.943,1a11.387,11.387,0,0,0-1.7-.7L38.152,1H32.465L31.8,3.084a11.386,11.386,0,0,0-1.7.7l-1.943-1-.952.952A16.3,16.3,0,0,0,18.15,1H17.4A16.4,16.4,0,0,0,5.8,28.99l.573.573a10.2,10.2,0,0,1,2.974,6.511A2.287,2.287,0,0,0,7.1,38.358v1.525A2.29,2.29,0,0,0,9.387,42.17h.045a6.87,6.87,0,0,0,6.817,6.1H19.3a6.87,6.87,0,0,0,6.817-6.1h.045a2.29,2.29,0,0,0,2.287-2.287V38.358A2.288,2.288,0,0,0,26.2,36.075a10.191,10.191,0,0,1,2.975-6.511l.573-.573a16.449,16.449,0,0,0,2.4-3.073l.323,1h5.687l.668-2.084a11.386,11.386,0,0,0,1.7-.7l1.943,1,4.021-4.021-1-1.943a11.4,11.4,0,0,0,.7-1.7Zm-31.259-5.13V10.149h1.525v1.525H23.11V10.149h1.525V13.2H10.911v-3.05h1.525v1.525Zm7.153,3.05-1.525,3.05H12.907l-1.525-3.05ZM11.965,19.3H23.872a.762.762,0,0,1,0,1.525h-12.2a.762.762,0,1,1,0-1.525Zm1.161,3.05H22.42l1.372,13.723H11.754Zm6.172,24.4h-3.05a5.341,5.341,0,0,1-5.276-4.574h13.6A5.341,5.341,0,0,1,19.3,46.745Zm7.624-8.387v1.525a.763.763,0,0,1-.762.762H9.387a.763.763,0,0,1-.762-.762V38.358a.763.763,0,0,1,.762-.762H26.16A.763.763,0,0,1,26.922,38.358Zm1.744-10.446-.573.573a11.725,11.725,0,0,0-3.012,5.148L23.952,22.34a2.283,2.283,0,0,0,.369-4.522l1.839-3.677V8.624H21.585v1.525H20.06V8.624H15.486v1.525H13.961V8.624H9.387v5.517l1.839,3.678a2.283,2.283,0,0,0,.369,4.521L10.465,33.634a11.732,11.732,0,0,0-3.012-5.148l-.573-.573A14.872,14.872,0,0,1,17.4,2.525h.753A14.872,14.872,0,0,1,28.666,27.912Zm4.5-17.083a3.805,3.805,0,1,1,2.145,6.944,3.726,3.726,0,0,1-.776-.091c0-.1.014-.189.014-.285a16.281,16.281,0,0,0-1.383-6.567Zm1.275,8.391a5.228,5.228,0,0,0,.871.078,5.337,5.337,0,1,0-2.832-9.855q-.371-.666-.8-1.294A6.768,6.768,0,0,1,35.309,7.1a6.862,6.862,0,0,1,0,13.723,6.7,6.7,0,0,1-1.1-.1c.1-.493.175-.994.231-1.5Zm10.511-2.953-.111.394a9.815,9.815,0,0,1-.879,2.131l-.2.358.862,1.673-2.448,2.448L40.5,22.411l-.357.2a9.846,9.846,0,0,1-2.132.879l-.394.111-.575,1.8H33.578l-.439-1.369a16.148,16.148,0,0,0,.7-1.833,8.242,8.242,0,0,0,1.474.152,8.387,8.387,0,1,0,0-16.773,8.277,8.277,0,0,0-4.553,1.352,16.537,16.537,0,0,0-2.311-2.274l0,0,1.673.861.357-.2a9.846,9.846,0,0,1,2.132-.879L33,4.321l.575-1.8h3.462l.576,1.8.394.111a9.884,9.884,0,0,1,2.132.879l.357.2,1.673-.861L44.619,7.1l-.861,1.673.2.357a9.846,9.846,0,0,1,.879,2.132l.111.394,1.8.575v3.462Z" transform="translate(-1 -1)"/>
        <path id="Trazado_823925" data-name="Trazado 823925" d="M6.574,21.047,5.055,20.91c-.037.4-.055.811-.055,1.217A13.329,13.329,0,0,0,8.235,30.84l1.154-1a11.8,11.8,0,0,1-2.864-7.716c0-.36.016-.723.049-1.08Z" transform="translate(-1.95 -5.73)"/>
        <path id="Trazado_823926" data-name="Trazado 823926" d="M7.3,17.175l-1.437-.51a13.18,13.18,0,0,0-.46,1.618l1.49.324A11.692,11.692,0,0,1,7.3,17.175Z" transform="translate(-2.045 -4.722)"/>
      </g>
    </g>
  </g>
</svg>
