<svg xmlns="http://www.w3.org/2000/svg" width="67" height="67" viewBox="0 0 67 67">
  <g id="Grupo_1073489" data-name="Grupo 1073489" transform="translate(-925.5 -5366)">
    <circle id="Elipse_9671" data-name="Elipse 9671" cx="33.5" cy="33.5" r="33.5" transform="translate(925.5 5366)" fill="#f0c52c"/>
    <g id="desarrollo-de-software" transform="translate(936.5 5377)">
      <ellipse id="Elipse_9761" data-name="Elipse 9761" cx="1.5" cy="1" rx="1.5" ry="1" transform="translate(9 3)" fill="#46ccff"/>
      <ellipse id="Elipse_9762" data-name="Elipse 9762" cx="1.5" cy="1" rx="1.5" ry="1" transform="translate(33 3)" fill="#46ccff"/>
      <path id="Trazado_823902" data-name="Trazado 823902" d="M26,48h8.2v6.83H26Z" transform="translate(-7.608 -14.582)" fill="#323232"/>
      <path id="Trazado_823903" data-name="Trazado 823903" d="M15,57H38.222v2.732H15Z" transform="translate(-4.121 -17.435)" fill="#b90000"/>
      <path id="Trazado_823904" data-name="Trazado 823904" d="M3,11H42.615V36.954H3Z" transform="translate(-0.317 -2.853)" fill="#6090bf"/>
      <path id="Trazado_823905" data-name="Trazado 823905" d="M3,45H42.615v2.732H3Z" transform="translate(-0.317 -13.631)" fill="#b90000"/>
      <g id="Grupo_1073488" data-name="Grupo 1073488" transform="translate(5.415 14.977)">
        <ellipse id="Elipse_9763" data-name="Elipse 9763" cx="1.5" cy="1" rx="1.5" ry="1" transform="translate(-0.415 5.022)" fill="#efaf22"/>
        <ellipse id="Elipse_9764" data-name="Elipse 9764" cx="1.5" cy="1" rx="1.5" ry="1" transform="translate(31.585 5.022)" fill="#efaf22"/>
        <path id="Trazado_823906" data-name="Trazado 823906" d="M35.294,28.513V25.781H33.73a4.624,4.624,0,0,0-.376-.908l1.106-1.106-1.9-1.933L31.456,22.94a4.624,4.624,0,0,0-.943-.376V21H27.781v1.564a4.624,4.624,0,0,0-.908.376l-1.106-1.106-1.933,1.933,1.106,1.106a4.624,4.624,0,0,0-.376.908H23v2.732h1.564a4.624,4.624,0,0,0,.376.908l-1.106,1.141L25.766,32.5l1.106-1.106a4.624,4.624,0,0,0,.908.376v1.53h2.732V31.73a4.624,4.624,0,0,0,.908-.376l1.141,1.106,1.9-1.9-1.106-1.106a4.624,4.624,0,0,0,.376-.943Z" transform="translate(-12.072 -21)" fill="#efaf22"/>
      </g>
      <ellipse id="Elipse_9765" data-name="Elipse 9765" cx="2.5" cy="2" rx="2.5" ry="2" transform="translate(20 19)" fill="#ffd6ba"/>
      <path id="Trazado_823907" data-name="Trazado 823907" d="M42.3,7.464H26.588V4.732h6.27a2.049,2.049,0,1,0,0-1.366H25.905a.683.683,0,0,0-.683.683V7.464H19.758V4.049a.683.683,0,0,0-.683-.683H12.122a2.049,2.049,0,1,0,0,1.366h6.27V7.464H2.683A.683.683,0,0,0,2,8.147V34.1a.683.683,0,0,0,.683.683H17.709v4.1h-6.83a.683.683,0,0,0-.683.683V42.3a.683.683,0,0,0,.683.683H34.1a.683.683,0,0,0,.683-.683V39.565a.683.683,0,0,0-.683-.683h-6.83v-4.1H42.3a.683.683,0,0,0,.683-.683V8.147A.683.683,0,0,0,42.3,7.464Zm-7.513-4.1a.683.683,0,1,1-.683.683A.683.683,0,0,1,34.784,3.366ZM10.2,4.732a.683.683,0,1,1,.683-.683A.683.683,0,0,1,10.2,4.732Zm15.026,4.1V15.5l-.6.594-.082-.034V14.977a.683.683,0,0,0-.683-.683H21.124a.683.683,0,0,0-.683.683v1.079l-.082.034-.6-.594V8.83ZM26.1,19.178a3.961,3.961,0,0,1,.321.779.683.683,0,0,0,.683.485h.854v1.366h-.881a.683.683,0,0,0-.683.485,3.961,3.961,0,0,1-.321.779.683.683,0,0,0,.143.785l.622.622-.929.99-.683-.622a.683.683,0,0,0-.813-.116,3.962,3.962,0,0,1-.779.321.683.683,0,0,0-.485.683v.854H21.807v-.881a.683.683,0,0,0-.485-.683,3.961,3.961,0,0,1-.779-.321.683.683,0,0,0-.813.116l-.622.622-.963-.9.622-.622a.683.683,0,0,0,.116-.813,3.961,3.961,0,0,1-.321-.779.683.683,0,0,0-.683-.485h-.854v-1.4h.881a.683.683,0,0,0,.683-.485,3.961,3.961,0,0,1,.321-.779.683.683,0,0,0-.143-.785l-.622-.622.963-.963.622.622a.683.683,0,0,0,.813.116,3.961,3.961,0,0,1,.779-.321.683.683,0,0,0,.485-.683V15.66h1.366v.881a.683.683,0,0,0,.485.683,3.961,3.961,0,0,1,.779.321.683.683,0,0,0,.785-.143l.622-.622.963.963-.622.622a.683.683,0,0,0-.089.813ZM18.392,8.83v6.734l-1.7,1.694a.683.683,0,0,0,0,.97l.765.765a.417.417,0,0,1-.034.082H16.343a.683.683,0,0,0-.683.683v.683H8.707a2.049,2.049,0,1,0,0,1.366H15.66v.683a.683.683,0,0,0,.683.683h1.079a.417.417,0,0,1,.034.082l-.765.765a.683.683,0,0,0-.2.485.717.717,0,0,0,.2.485l1.933,1.933a.683.683,0,0,0,.97,0l.765-.765.082.034v1.079a.683.683,0,0,0,.683.683h2.732a.683.683,0,0,0,.683-.683V26.192l.082-.034.765.765a.683.683,0,0,0,.97,0l1.933-1.933a.717.717,0,0,0,.2-.485.683.683,0,0,0-.2-.485l-.765-.765a.416.416,0,0,1,.034-.082h1.079a.683.683,0,0,0,.683-.683v-.683h6.953a2.049,2.049,0,1,0,0-1.366H29.32v-.683a.683.683,0,0,0-.683-.683H27.558a.417.417,0,0,1-.034-.082l.765-.765a.683.683,0,0,0,0-.97l-1.7-1.694V8.83H41.615V30.686H3.366V8.83ZM7.464,21.124a.683.683,0,1,1-.683-.683A.683.683,0,0,1,7.464,21.124Zm30.052,0a.683.683,0,1,1,.683.683A.683.683,0,0,1,37.517,21.124Zm-4.1,20.49H11.562V40.248H33.418Zm-7.513-2.732h-6.83v-4.1h6.83ZM3.366,33.418V32.052H41.615v1.366Z"/>
      <path id="Trazado_823908" data-name="Trazado 823908" d="M30.732,26a2.732,2.732,0,1,0,2.732,2.732A2.732,2.732,0,0,0,30.732,26Zm0,4.1A1.366,1.366,0,1,1,32.1,28.732,1.366,1.366,0,0,1,30.732,30.1Z" transform="translate(-8.242 -7.608)"/>
      <path id="Trazado_823909" data-name="Trazado 823909" d="M6.683,15.366H10.1V20.83a.683.683,0,0,0,.683.683h4.1a.683.683,0,1,0,0-1.366H11.464V14.683A.683.683,0,0,0,10.781,14h-4.1a.683.683,0,0,0,0,1.366Z" transform="translate(-1.268 -3.804)"/>
      <path id="Trazado_823910" data-name="Trazado 823910" d="M52.879,14h-4.1a.683.683,0,0,0-.683.683v5.464H44.683a.683.683,0,0,0,0,1.366h4.1a.683.683,0,0,0,.683-.683V15.366h3.415a.683.683,0,0,0,0-1.366Z" transform="translate(-13.314 -3.804)"/>
    </g>
  </g>
</svg>
