<svg id="Grupo_1073201" data-name="Grupo 1073201" xmlns="http://www.w3.org/2000/svg" width="86" height="90" viewBox="0 0 86 90">
  <g id="Grupo_1073070" data-name="Grupo 1073070">
    <rect id="Rectángulo_382263" data-name="Rectángulo 382263" width="86" height="90" rx="8" fill="#f0c52c"/>
  </g>
  <g id="banda-ancha" transform="translate(11.323 16)">
    <g id="Grupo_1073198" data-name="Grupo 1073198" transform="translate(0.625 0.624)">
      <g id="Grupo_1073195" data-name="Grupo 1073195" transform="translate(0 12.755)">
        <g id="Grupo_1073192" data-name="Grupo 1073192">
          <path id="Trazado_820521" data-name="Trazado 820521" d="M5.17,209.943v1.363a5.769,5.769,0,0,0,5.769,5.769H60.828a5.769,5.769,0,0,0,5.769-5.769v-1.363a1.076,1.076,0,0,0-1.075-1.078H6.245A1.076,1.076,0,0,0,5.17,209.943Z" transform="translate(-5.17 -172.969)" fill="#72c2e9"/>
          <path id="Trazado_820522" data-name="Trazado 820522" d="M104.02,208.865v1.5a2,2,0,0,0,2,2h7.992a2,2,0,0,0,2-2v-1.5Z" transform="translate(-79.303 -172.969)" fill="#4ba5c8"/>
          <path id="Trazado_820523" data-name="Trazado 820523" d="M18.19,67.894V101.2H73.105V67.894a2.586,2.586,0,0,0-2.585-2.585H59.055L55.8,69.8l-2,2.751-2-2.751-3.256-4.491h-8.2V72.55H34.628V65.309H20.775a2.586,2.586,0,0,0-2.585,2.585Z" transform="translate(-14.934 -65.309)" fill="#72c2e9"/>
          <g id="Grupo_1073191" data-name="Grupo 1073191" transform="translate(17.943)">
            <path id="Trazado_820524" data-name="Trazado 820524" d="M68.986,65.309,65.73,69.8h2.163l3.256-4.491Z" transform="translate(-42.808 -65.309)" fill="#4ba5c8"/>
            <path id="Trazado_820525" data-name="Trazado 820525" d="M103.36,65.309l3.256,4.491h2.16l-3.256-4.491Z" transform="translate(-89.845 -65.309)" fill="#4ba5c8"/>
            <path id="Trazado_820526" data-name="Trazado 820526" d="M143.93,65.309h-1.75V69.8h1.75Z" transform="translate(-134.706 -65.309)" fill="#4ba5c8"/>
            <path id="Trazado_820527" data-name="Trazado 820527" d="M173.82,65.309h-1.75V69.8h1.75Z" transform="translate(-172.07 -65.309)" fill="#4ba5c8"/>
          </g>
          <path id="Trazado_820528" data-name="Trazado 820528" d="M33.69,83.269V110.8H80.854V83.269H67.424l-2,2.751-2-2.751H51.976V86.02H46.252V83.269Z" transform="translate(-26.559 -78.778)" fill="#efefef"/>
          <path id="Trazado_820529" data-name="Trazado 820529" d="M78.75,83.269l2.741,3.778a1.752,1.752,0,0,0,2.836,0l2.741-3.778H84.9l-2,2.751-2-2.751Z" transform="translate(-44.038 -78.778)" fill="#afafaf"/>
          <path id="Trazado_820530" data-name="Trazado 820530" d="M142.18,83.269V86.02a1.749,1.749,0,0,0,1.75,1.75h5.724a1.749,1.749,0,0,0,1.75-1.75V83.269h-1.75V86.02H143.93V83.269Z" transform="translate(-124.237 -78.778)" fill="#afafaf"/>
        </g>
        <g id="Grupo_1073194" data-name="Grupo 1073194" transform="translate(12.629 11.045)">
          <path id="Trazado_820531" data-name="Trazado 820531" d="M76.1,139.108a13.106,13.106,0,0,0-.128,6.311h25.535a13.09,13.09,0,0,0-22.022-12.155l0,0a13.043,13.043,0,0,0-2.618,3.746v0Z" transform="translate(-70.658 -124.441)" fill="#efefef"/>
          <path id="Trazado_820532" data-name="Trazado 820532" d="M179.129,130.649v0l0,0Z" transform="translate(-173.832 -125.356)" fill="#fc5d3d"/>
          <path id="Trazado_820533" data-name="Trazado 820533" d="M165.263,146.342h5.081a13.106,13.106,0,0,1,.128-6.311l-1.983-.723a1.117,1.117,0,0,1,.765-2.1l1.983.723v0a13.042,13.042,0,0,1,2.618-3.746l-3.528-3.526A18.053,18.053,0,0,0,165.263,146.342Z" transform="translate(-165.029 -125.363)" fill="#fc5d3d"/>
          <path id="Trazado_820534" data-name="Trazado 820534" d="M76.879,130.649l0,0v0Z" transform="translate(-46.015 -125.356)" fill="#13bf6d"/>
          <path id="Trazado_820535" data-name="Trazado 820535" d="M59.188,146.342h5.081a18.035,18.035,0,0,0-5.063-15.683l-3.528,3.528A13.082,13.082,0,0,1,59.188,146.342Z" transform="translate(-28.339 -125.363)" fill="#13bf6d"/>
          <path id="Trazado_820536" data-name="Trazado 820536" d="M76.879,114.775l3.528,3.526,0,0a13.084,13.084,0,0,1,18.511,0l3.528-3.528,0,0a18.08,18.08,0,0,0-25.565,0Z" transform="translate(-71.582 -109.479)" fill="#f0c020"/>
          <path id="Trazado_820537" data-name="Trazado 820537" d="M112.368,175.163h7a4.046,4.046,0,0,0-3.5-6.074,3.952,3.952,0,0,0-2.678,1.01,4.13,4.13,0,0,0-1.21,1.938A3.962,3.962,0,0,0,112.368,175.163Z" transform="translate(-97.787 -154.184)" fill="#7d7b79"/>
          <path id="Trazado_820538" data-name="Trazado 820538" d="M139.453,158.755l1.983.723,8.752,3.186a4.13,4.13,0,0,1,1.21-1.938l-9.2-3.346-1.983-.723a1.117,1.117,0,0,0-.765,2.1Z" transform="translate(-135.993 -144.81)" fill="#72c2e9"/>
          <g id="Grupo_1073193" data-name="Grupo 1073193" transform="translate(28.655 6.257)">
            <path id="Trazado_820539" data-name="Trazado 820539" d="M68.073,147.274q.015-.26.021-.519a.625.625,0,1,0-1.25-.033q-.006.24-.02.48a.625.625,0,0,0,1.248.072Zm-.652-2.41a.625.625,0,0,0,.538-.7,16.526,16.526,0,0,0-4.676-9.476.625.625,0,0,0-.884.884,15.268,15.268,0,0,1,4.321,8.755A.625.625,0,0,0,67.421,144.864Z" transform="translate(-62.216 -134.503)" fill="#76ffbb"/>
          </g>
        </g>
      </g>
      <g id="Grupo_1073197" data-name="Grupo 1073197" transform="translate(15.618)">
        <path id="Trazado_820540" data-name="Trazado 820540" d="M67.63,24.728l1.685,2.325,3.256,4.491,2,2.751,2-2.751,3.256-4.491,1.688-2.325H77.429V14.3H71.706V24.728Z" transform="translate(-51.314 -14.299)" fill="#13bf6d"/>
        <g id="Grupo_1073196" data-name="Grupo 1073196">
          <path id="Trazado_820541" data-name="Trazado 820541" d="M132.88,23.866h4.076V34.3h5.724V23.866h4.076L139.819,14.3Z" transform="translate(-132.88 -14.299)" fill="#fc5d3d"/>
        </g>
      </g>
    </g>
    <g id="Grupo_1073199" data-name="Grupo 1073199" transform="translate(14.879 30.68)">
      <path id="Trazado_820542" data-name="Trazado 820542" d="M171.557,147.174a15.111,15.111,0,0,1,4.429-11.6.625.625,0,1,0-.884-.884,16.356,16.356,0,0,0-4.793,12.558A.625.625,0,0,0,171.557,147.174Z" transform="translate(-170.283 -134.503)" fill="#ffcbc3"/>
    </g>
    <g id="Grupo_1073200" data-name="Grupo 1073200" transform="translate(19.514 26.037)">
      <path id="Trazado_820543" data-name="Trazado 820543" d="M81.758,121.644a15.2,15.2,0,0,1,21.511,0,.625.625,0,0,0,.884-.884,16.448,16.448,0,0,0-23.279,0,.625.625,0,1,0,.885.884Z" transform="translate(-80.69 -115.933)" fill="#f8e5b0"/>
    </g>
    <circle id="Elipse_9733" data-name="Elipse 9733" cx="0.625" cy="0.625" r="0.625" transform="translate(3.256 24.93)"/>
    <circle id="Elipse_9734" data-name="Elipse 9734" cx="0.625" cy="0.625" r="0.625" transform="translate(44.101 56.859)"/>
    <path id="Trazado_820544" data-name="Trazado 820544" d="M58.953,69.913H49.9a.625.625,0,0,1,0-1.25h9.057A5.163,5.163,0,0,0,64.1,63.519V62.157a.452.452,0,0,0-.45-.453H40.63v.873A2.628,2.628,0,0,1,38,65.2H30.013a2.628,2.628,0,0,1-2.625-2.625V61.7H4.37a.452.452,0,0,0-.45.453v1.363a5.163,5.163,0,0,0,5.143,5.143H44.9a.625.625,0,0,1,0,1.25H9.064A6.391,6.391,0,0,1,2.67,63.519V62.157a1.706,1.706,0,0,1,1.7-1.7H5.926V39.86a.625.625,0,0,1,1.25,0V60.454H60.841V27.769a1.963,1.963,0,0,0-1.96-1.96H47.735l-2.35,3.241H57.59a.625.625,0,0,1,.625.625V57.207a.625.625,0,0,1-.625.625H10.426a.625.625,0,0,1-.625-.625V29.674a.625.625,0,0,1,.625-.625H22.364V25.807H9.136a1.97,1.97,0,0,0-1.96,1.963v7.089a.625.625,0,0,1-1.25,0V27.77a3.214,3.214,0,0,1,3.211-3.211H22.364V22.621H18.913a.626.626,0,0,1-.506-.992l6.939-9.567a.626.626,0,0,1,1.012,0l6.936,9.567a.626.626,0,0,1-.506.992H29.338v1.938h6.351l-.968-1.334a.625.625,0,0,1,.508-.99H38.68v-9.8a.625.625,0,0,1,1.25,0V22.859a.628.628,0,0,1-.625.625H36.454l5.711,7.876,5.714-7.876H45.028a.626.626,0,0,1-.625-.625V19.816a.625.625,0,0,1,1.25,0v2.418H49.1a.623.623,0,0,1,.505.99l-.968,1.334H58.881a3.214,3.214,0,0,1,3.211,3.211V60.453h1.555a1.706,1.706,0,0,1,1.7,1.7v1.363a6.391,6.391,0,0,1-6.394,6.394ZM16.7,56.581h3.78a13.754,13.754,0,0,1,.149-5.291l-1.458-.531a1.742,1.742,0,0,1,1.193-3.273l1.454.529a13.6,13.6,0,0,1,2.058-2.957l-2.645-2.644A17.528,17.528,0,0,0,16.7,56.581ZM42.821,45.493A12.469,12.469,0,0,0,23,48.448l8.205,2.986a4.665,4.665,0,0,1,6.843,1.418,4.613,4.613,0,0,1,.409,3.729h7.8a12.387,12.387,0,0,0-3.438-11.088ZM21.753,56.581h7.8a4.553,4.553,0,0,1-.156-2.1l-7.582-2.76a12.5,12.5,0,0,0-.058,4.859Zm15.214-3.107a3.42,3.42,0,0,0-6.083,3.107h6.239A3.374,3.374,0,0,0,36.967,53.474Zm-7.222-.195h0a5.273,5.273,0,0,1,.5-.865L19.936,48.662a.491.491,0,0,0-.339.923h0Zm-4.984-9.1a13.7,13.7,0,0,1,18.492,0L45.9,41.531a17.445,17.445,0,0,0-23.786,0Zm22.022-1.762-2.646,2.646a13.623,13.623,0,0,1,3.4,11.52h3.781A17.452,17.452,0,0,0,46.783,42.415ZM29.338,25.809v3.241h9.608L36.6,25.809ZM41.66,32.791,39.853,30.3H29.338v2.125a.625.625,0,0,1-1.25,0V22a.625.625,0,0,1,.625-.625h2.851l-5.711-7.877L20.139,21.37h2.85a.625.625,0,0,1,.625.625V32.425a.625.625,0,0,1-1.25,0V30.3H11.052V56.582H15.44C13.3,38.977,34.693,28.541,47.233,41.081a18.711,18.711,0,0,1,5.342,15.5h4.391V30.3H44.477L42.67,32.791A.621.621,0,0,1,41.66,32.791ZM28.638,61.7v.873a1.383,1.383,0,0,0,1.375,1.375H38a1.381,1.381,0,0,0,1.375-1.375V61.7Z" transform="translate(-2.67 -11.804)"/>
    <circle id="Elipse_9735" data-name="Elipse 9735" cx="0.625" cy="0.625" r="0.625" transform="translate(41.733 4.887)"/>
    <path id="Trazado_820545" data-name="Trazado 820545" d="M81.43,12.448a.625.625,0,0,1,1.25,0v2.385a.625.625,0,0,1-1.25,0Z" transform="translate(-39.697 -11.822)"/>
  </g>
</svg>
