<svg xmlns="http://www.w3.org/2000/svg" xmlns:xlink="http://www.w3.org/1999/xlink" width="400" height="351.313" viewBox="0 0 400 351.313">
  <defs>
    <clipPath id="clip-path">
      <rect id="Rectángulo_382274" data-name="Rectángulo 382274" width="13.246" height="4.44" fill="none"/>
    </clipPath>
    <clipPath id="clip-path-2">
      <rect id="Rectángulo_382275" data-name="Rectángulo 382275" width="14.22" height="17.894" fill="none"/>
    </clipPath>
    <clipPath id="clip-path-3">
      <rect id="Rectángulo_382276" data-name="Rectángulo 382276" width="14.221" height="17.894" fill="none"/>
    </clipPath>
  </defs>
  <g id="Grupo_1073422" data-name="Grupo 1073422" transform="translate(-1020.5 -1101)">
    <g id="Grupo_1073358" data-name="Grupo 1073358" transform="translate(840.5 -674)">
      <rect id="Rectángulo_382379" data-name="Rectángulo 382379" width="400" height="351" rx="19" transform="translate(180 1775)" fill="#3a1d71"/>
    </g>
    <g id="Grupo_1073421" data-name="Grupo 1073421" transform="translate(855.668 -1382)">
      <g id="Grupo_1072950" data-name="Grupo 1072950" transform="translate(199.832 2648.937)">
        <line id="Línea_141" data-name="Línea 141" y1="25.154" transform="translate(25.668 36.199)" fill="none" stroke="#0e1165" stroke-linecap="round" stroke-miterlimit="10" stroke-width="2.061"/>
        <g id="Grupo_1072949" data-name="Grupo 1072949">
          <g id="Grupo_1072953" data-name="Grupo 1072953">
            <path id="Trazado_819793" data-name="Trazado 819793" d="M59.673,36.5H21.841a18.248,18.248,0,1,1,0-36.5H59.673a18.248,18.248,0,1,1,0,36.5" transform="translate(-0.923 0)" fill="#8ea6ff"/>
            <path id="Trazado_819794" data-name="Trazado 819794" d="M30.978,102.719h-20.9a10.08,10.08,0,1,1,0-20.16h20.9a10.08,10.08,0,1,1,0,20.16" transform="translate(0 -21.206)" fill="#2cfedf"/>
            <rect id="Rectángulo_382279" data-name="Rectángulo 382279" width="23.834" height="2.731" transform="translate(8.787 66.68)" fill="#fdffff"/>
            <rect id="Rectángulo_382280" data-name="Rectángulo 382280" width="23.834" height="2.731" transform="translate(8.787 72.389)" fill="#fdffff"/>
            <rect id="Rectángulo_382281" data-name="Rectángulo 382281" width="30.058" height="10.239" transform="translate(18.77 12.891)" fill="#3459cc"/>
            <rect id="Rectángulo_382282" data-name="Rectángulo 382282" width="3.14" height="10.239" transform="translate(50.675 12.891)" fill="#3459cc"/>
            <rect id="Rectángulo_382283" data-name="Rectángulo 382283" width="3.14" height="10.239" transform="translate(55.39 12.891)" fill="#3459cc"/>
            <rect id="Rectángulo_382284" data-name="Rectángulo 382284" width="3.14" height="10.239" transform="translate(60.105 12.891)" fill="#3459cc"/>
            <rect id="Rectángulo_382285" data-name="Rectángulo 382285" width="3.14" height="10.239" transform="translate(64.819 12.891)" fill="#3459cc"/>
            <path id="Trazado_819795" data-name="Trazado 819795" d="M27.248,7.287l-12.6,12.6,12.6,12.6Z" transform="translate(-3.764 -1.872)" fill="#3459cc"/>
            <rect id="Rectángulo_382286" data-name="Rectángulo 382286" width="51.056" height="3.574" transform="translate(257.969 129.342)" fill="#3459cc"/>
            <path id="Trazado_819796" data-name="Trazado 819796" d="M432.416,175.3a3.333,3.333,0,1,1-3.334-3.334,3.334,3.334,0,0,1,3.334,3.334" transform="translate(-109.359 -44.172)" fill="#3459cc"/>
            <rect id="Rectángulo_382287" data-name="Rectángulo 382287" width="51.056" height="3.574" transform="translate(257.969 139.813)" fill="#3459cc"/>
            <path id="Trazado_819797" data-name="Trazado 819797" d="M432.416,189.391a3.333,3.333,0,1,1-3.334-3.333,3.334,3.334,0,0,1,3.334,3.333" transform="translate(-109.359 -47.791)" fill="#3459cc"/>
            <rect id="Rectángulo_382288" data-name="Rectángulo 382288" width="51.056" height="3.574" transform="translate(257.969 150.283)" fill="#3459cc"/>
            <path id="Trazado_819798" data-name="Trazado 819798" d="M432.416,203.481a3.333,3.333,0,1,1-3.334-3.334,3.334,3.334,0,0,1,3.334,3.334" transform="translate(-109.359 -51.41)" fill="#3459cc"/>
            <rect id="Rectángulo_382289" data-name="Rectángulo 382289" width="51.056" height="3.574" transform="translate(257.969 160.754)" fill="#3459cc"/>
            <path id="Trazado_819799" data-name="Trazado 819799" d="M432.416,217.57a3.333,3.333,0,1,1-3.334-3.333,3.334,3.334,0,0,1,3.334,3.333" transform="translate(-109.359 -55.029)" fill="#3459cc"/>
            <rect id="Rectángulo_382290" data-name="Rectángulo 382290" width="117.032" height="107.67" transform="translate(212.569 11.954)" fill="#0e1165"/>
            <rect id="Rectángulo_382291" data-name="Rectángulo 382291" width="117.032" height="107.67" transform="translate(208.619 8.004)" fill="#2cfedf"/>
            <rect id="Rectángulo_382292" data-name="Rectángulo 382292" width="117.032" height="107.67" transform="translate(204.962 4.347)" fill="#bae9d9"/>
            <rect id="Rectángulo_382293" data-name="Rectángulo 382293" width="107.474" height="98.876" transform="translate(209.741 8.744)" fill="none" stroke="#fff" stroke-linecap="round" stroke-miterlimit="10" stroke-width="1.075"/>
            <path id="Trazado_819800" data-name="Trazado 819800" d="M299.349,113.179h0A6.648,6.648,0,0,0,306,106.532v-51.8a6.647,6.647,0,0,0-13.295,0v51.8a6.648,6.648,0,0,0,6.647,6.647" transform="translate(-75.184 -12.351)" fill="#fff"/>
            <path id="Trazado_819801" data-name="Trazado 819801" d="M326.4,110.14h0a6.648,6.648,0,0,0,6.647-6.647V42.9a6.647,6.647,0,0,0-13.295,0v60.593a6.648,6.648,0,0,0,6.647,6.647" transform="translate(-82.133 -9.312)" fill="#fff"/>
            <path id="Trazado_819802" data-name="Trazado 819802" d="M353.453,105.762h0a6.648,6.648,0,0,0,6.647-6.647V25.854a6.647,6.647,0,0,0-13.295,0v73.26a6.648,6.648,0,0,0,6.647,6.647" transform="translate(-89.081 -4.934)" fill="#fff"/>
            <path id="Trazado_819803" data-name="Trazado 819803" d="M380.505,114.962h0a6.648,6.648,0,0,0,6.647-6.647V61.67a6.647,6.647,0,0,0-13.295,0v46.645a6.648,6.648,0,0,0,6.647,6.647" transform="translate(-96.03 -14.133)" fill="#fff"/>
            <path id="Trazado_819804" data-name="Trazado 819804" d="M407.557,105.762h0a6.648,6.648,0,0,0,6.647-6.647V25.854a6.647,6.647,0,0,0-13.295,0v73.26a6.648,6.648,0,0,0,6.647,6.647" transform="translate(-102.979 -4.934)" fill="#2cfedf"/>
            <path id="Trazado_819805" data-name="Trazado 819805" d="M15,199.581h88.578a5.784,5.784,0,0,0,5.784-5.784v-53.09H9.219V193.8A5.784,5.784,0,0,0,15,199.581" transform="translate(-2.368 -36.142)" fill="#0e1165"/>
            <path id="Trazado_819806" data-name="Trazado 819806" d="M15,197.841h88.578a5.784,5.784,0,0,0,5.784-5.784v-53.09H9.219v53.09A5.784,5.784,0,0,0,15,197.841" transform="translate(-2.368 -35.695)" fill="#8ea6ff"/>
            <path id="Trazado_819807" data-name="Trazado 819807" d="M9.219,136.229H109.366V134.09a5.784,5.784,0,0,0-5.785-5.784H15a5.784,5.784,0,0,0-5.785,5.784Z" transform="translate(-2.368 -32.957)" fill="#3a1d71"/>
            <path id="Trazado_819808" data-name="Trazado 819808" d="M22.715,132.912a2.583,2.583,0,1,1-2.582-2.583,2.583,2.583,0,0,1,2.582,2.583" transform="translate(-4.508 -33.477)" fill="#fdffff"/>
            <path id="Trazado_819809" data-name="Trazado 819809" d="M32.149,132.912a2.583,2.583,0,1,1-2.583-2.583,2.583,2.583,0,0,1,2.583,2.583" transform="translate(-6.931 -33.477)" fill="#3459cc"/>
            <path id="Trazado_819810" data-name="Trazado 819810" d="M41.583,132.912A2.583,2.583,0,1,1,39,130.329a2.583,2.583,0,0,1,2.583,2.583" transform="translate(-9.354 -33.477)" fill="#0e1165"/>
            <rect id="Rectángulo_382294" data-name="Rectángulo 382294" width="32.153" height="16.563" transform="translate(12.607 138.68)" fill="#fdffff"/>
            <rect id="Rectángulo_382295" data-name="Rectángulo 382295" width="52.265" height="3.747" transform="translate(49.965 109.119)" fill="#fdffff"/>
            <rect id="Rectángulo_382296" data-name="Rectángulo 382296" width="52.265" height="3.747" transform="translate(49.965 116.182)" fill="#fdffff"/>
            <rect id="Rectángulo_382297" data-name="Rectángulo 382297" width="52.265" height="3.747" transform="translate(49.965 123.245)" fill="#fdffff"/>
            <rect id="Rectángulo_382298" data-name="Rectángulo 382298" width="52.265" height="3.747" transform="translate(49.965 130.308)" fill="#fdffff"/>
            <rect id="Rectángulo_382299" data-name="Rectángulo 382299" width="52.265" height="3.747" transform="translate(49.965 137.371)" fill="#fdffff"/>
            <rect id="Rectángulo_382300" data-name="Rectángulo 382300" width="52.265" height="3.747" transform="translate(49.965 144.433)" fill="#fdffff"/>
            <rect id="Rectángulo_382301" data-name="Rectángulo 382301" width="52.265" height="3.747" transform="translate(49.965 151.496)" fill="#fdffff"/>
            <path id="Trazado_819811" data-name="Trazado 819811" d="M65.161,76.016a31.175,31.175,0,1,0,5.258-43.774,31.175,31.175,0,0,0-5.258,43.774" transform="translate(-15.026 -6.571)" fill="#0e1165"/>
            <path id="Trazado_819812" data-name="Trazado 819812" d="M138.23,70.64a33.8,33.8,0,0,0,24.206-3.052c-7.428,7.585-16.568,13.4-27.116,14.589" transform="translate(-34.759 -17.361)" fill="#0e1165"/>
            <path id="Trazado_819813" data-name="Trazado 819813" d="M90.58,87.187,72.243,68.85A7.853,7.853,0,1,1,83.35,57.744l7.23,7.231,27.725-27.725a7.853,7.853,0,0,1,11.106,11.106Z" transform="translate(-21.307 -12.318)" fill="#2cfedf"/>
          </g>
        </g>
      </g>
      <g id="Grupo_1072947" data-name="Grupo 1072947" transform="translate(214.277 2503)">
        <g id="Grupo_1072951" data-name="Grupo 1072951">
          <g id="Grupo_1072945" data-name="Grupo 1072945">
            <g id="Grupo_1072952" data-name="Grupo 1072952">
              <path id="Trazado_819733" data-name="Trazado 819733" d="M40.695,85.616a33.291,33.291,0,0,1,9.814-23.7h0a33.845,33.845,0,0,1,3.92-3.362L25.5,29.629q-1.933,1.686-3.767,3.515l0,0A74.21,74.21,0,0,0,18.11,134.2l28.942-28.942a33.257,33.257,0,0,1-6.357-19.64" transform="translate(0 -7.597)" fill="#0e1165"/>
              <path id="Trazado_819734" data-name="Trazado 819734" d="M83,45.823a33.266,33.266,0,0,1,23.039,9.191l28.784-28.783A74.194,74.194,0,0,0,34.3,23.348L63.224,52.275A33.266,33.266,0,0,1,83,45.823" transform="translate(-8.794 -1.315)" fill="#0e1165"/>
              <path id="Trazado_819735" data-name="Trazado 819735" d="M156.62,57.836l-23.7-23.7c-.214-.214-.433-.422-.649-.634L103.492,62.29c.219.208.441.41.656.625l23.7,23.7-23.7,23.7a33.51,33.51,0,0,1-47.393,0A33.871,33.871,0,0,1,53.3,106.25L24.354,135.193q1.736,2,3.624,3.891a74.292,74.292,0,0,0,104.945,0l23.7-23.7L127.846,86.61Z" transform="translate(-6.244 -8.591)" fill="#0e1165"/>
              <rect id="Rectángulo_382272" data-name="Rectángulo 382272" width="0.001" height="0.001" transform="translate(179.151 78.019) rotate(-45)" fill="#0e1165"/>
              <path id="Trazado_819736" data-name="Trazado 819736" d="M310.7,55.638a33.431,33.431,0,0,1,9.7,26.168h40.73a74.013,74.013,0,0,0-21.652-54.944l0,0A74.206,74.206,0,0,0,235.8,25.625l28.795,28.795A33.556,33.556,0,0,1,310.7,55.638" transform="translate(-60.456 -1.315)" fill="#0e1165"/>
              <path id="Trazado_819737" data-name="Trazado 819737" d="M324.155,108.246a33.462,33.462,0,0,1-43.379,29.506l-30.328,30.329a74.161,74.161,0,0,0,114.437-59.835Z" transform="translate(-64.213 -27.754)" fill="#0e1165"/>
              <path id="Trazado_819738" data-name="Trazado 819738" d="M254.7,128.617l-23.7-23.7L202.227,133.7l23.7,23.7a74.145,74.145,0,0,0,12.16,9.834L268.412,136.9a33.287,33.287,0,0,1-13.714-8.282" transform="translate(-51.85 -26.901)" fill="#0e1165"/>
              <path id="Trazado_819739" data-name="Trazado 819739" d="M254.7,62.705q.63-.629,1.286-1.219L227.19,32.692q-.64.611-1.268,1.237l-23.7,23.7L231,86.4Z" transform="translate(-51.849 -8.382)" fill="#0e1165"/>
              <path id="Trazado_819740" data-name="Trazado 819740" d="M221.079,95h0L192.3,66.224,163.53,95l28.775,28.776L221.08,95Z" transform="translate(-41.928 -16.979)" fill="#0e1165"/>
              <path id="Trazado_819741" data-name="Trazado 819741" d="M40.695,80.488a33.291,33.291,0,0,1,9.814-23.7h0a33.916,33.916,0,0,1,3.92-3.362L25.5,24.5q-1.933,1.687-3.767,3.515l0,0A74.21,74.21,0,0,0,18.11,129.07l28.942-28.942a33.257,33.257,0,0,1-6.357-19.64" transform="translate(0 -6.282)" fill="#3459cc"/>
              <path id="Trazado_819742" data-name="Trazado 819742" d="M83,40.694a33.267,33.267,0,0,1,23.039,9.192L134.824,21.1A74.195,74.195,0,0,0,34.3,18.219L63.224,47.146A33.271,33.271,0,0,1,83,40.694" transform="translate(-8.794 0)" fill="#f0c52c"/>
              <path id="Trazado_819743" data-name="Trazado 819743" d="M156.62,52.707l-23.7-23.7c-.214-.214-.433-.422-.649-.634L103.492,57.161c.219.208.441.41.656.625l23.7,23.7-23.7,23.7a33.51,33.51,0,0,1-47.393,0,33.873,33.873,0,0,1-3.459-4.057L24.354,130.064q1.736,2,3.624,3.891a74.292,74.292,0,0,0,104.945,0l23.7-23.7L127.846,81.481Z" transform="translate(-6.244 -7.276)" fill="#2cfedf"/>
              <rect id="Rectángulo_382273" data-name="Rectángulo 382273" width="0.001" height="0.001" transform="translate(179.151 74.206) rotate(-45)" fill="#8ea6ff"/>
              <path id="Trazado_819744" data-name="Trazado 819744" d="M310.7,50.51a33.43,33.43,0,0,1,9.7,26.168h40.73a74.013,74.013,0,0,0-21.652-54.944l0,0A74.206,74.206,0,0,0,235.8,20.5l28.795,28.795A33.554,33.554,0,0,1,310.7,50.51" transform="translate(-60.456)" fill="#3459cc"/>
              <path id="Trazado_819745" data-name="Trazado 819745" d="M324.155,103.117a33.463,33.463,0,0,1-43.379,29.506l-30.328,30.329a74.161,74.161,0,0,0,114.437-59.835Z" transform="translate(-64.213 -26.438)" fill="#f0c52c"/>
              <path id="Trazado_819746" data-name="Trazado 819746" d="M254.7,123.49,231,99.793l-28.775,28.775,23.7,23.7a74.145,74.145,0,0,0,12.16,9.834l30.328-30.328A33.287,33.287,0,0,1,254.7,123.49" transform="translate(-51.85 -25.586)" fill="#e8bbc7"/>
              <path id="Trazado_819747" data-name="Trazado 819747" d="M254.7,57.577q.63-.63,1.286-1.219L227.19,27.564q-.64.611-1.268,1.237l-23.7,23.7L231,81.272Z" transform="translate(-51.849 -7.067)" fill="#8ea6ff"/>
              <path id="Trazado_819748" data-name="Trazado 819748" d="M221.079,89.87h0L192.3,61.1,163.53,89.87l28.775,28.775L221.08,89.871Z" transform="translate(-41.928 -15.664)" fill="#8ea6ff"/>
              <path id="Trazado_819749" data-name="Trazado 819749" d="M289.834,66.191l-1.72,5.986A19.675,19.675,0,0,0,283.646,74l-5.515-3.028L273.2,75.836l3.067,5.444a19.127,19.127,0,0,0-1.843,4.411l-6.064,1.7v6.9l6.064,1.7a19.108,19.108,0,0,0,1.843,4.41l-3.067,5.444,4.929,4.866,5.515-3.028a19.676,19.676,0,0,0,4.468,1.82l1.72,5.986h6.986l1.719-5.986a19.676,19.676,0,0,0,4.468-1.82l5.515,3.028,4.929-4.866-3.067-5.444a19.137,19.137,0,0,0,1.844-4.411l6.063-1.7v-6.9l-6.063-1.7a19.164,19.164,0,0,0-1.844-4.411l3.067-5.444-4.929-4.866L303.008,74a19.675,19.675,0,0,0-4.468-1.82l-1.719-5.986Zm3.493,13.815a10.831,10.831,0,1,1-10.97,10.831,10.924,10.924,0,0,1,10.97-10.831" transform="translate(-68.806 -16.971)" fill="#8ea6ff"/>
              <path id="Trazado_819750" data-name="Trazado 819750" d="M97.055,91.517l-9-20.094A22.084,22.084,0,0,1,116.1,80.467Z" transform="translate(-22.577 -17.822)" fill="#3459cc"/>
              <path id="Trazado_819751" data-name="Trazado 819751" d="M92.566,92.176,76.761,107.505a22.017,22.017,0,0,1,.477-31.134,20.255,20.255,0,0,1,6.33-4.289Z" transform="translate(-18.088 -18.481)" fill="#f0c52c"/>
              <path id="Trazado_819752" data-name="Trazado 819752" d="M94.708,95.295l19.044-11.05a22.017,22.017,0,0,1-7.994,30.094A21.717,21.717,0,0,1,78.9,110.624Z" transform="translate(-20.23 -21.6)" fill="#8ea6ff"/>
              <path id="Trazado_819753" data-name="Trazado 819753" d="M192.049,331.756c13.4,0,20.458-19.007,23.078-28.147-3.4-.8-5.689-1.414-6.181-1.8-2.42-1.882-2.42-19.362-2.42-19.362l-13.312,1.868L179.9,282.451s0,17.48-2.42,19.362c-.5.392-2.9,1.029-6.446,1.857,2.042,9.358,7.782,28.085,21.014,28.085" transform="translate(-43.852 -72.418)" fill="#d18491"/>
              <path id="Trazado_819754" data-name="Trazado 819754" d="M239.816,325.781c-6.644-5.787-37.2-11.745-50.562-14.878-2.62,9.14-9.68,28.147-23.079,28.147-13.231,0-18.972-18.728-21.014-28.085-13.492,3.149-43.7,9.067-50.3,14.816-8.337,7.261-24.741,84.711-24.741,84.711H264.557s-16.4-77.45-24.741-84.711" transform="translate(-17.979 -79.713)" fill="#3459cc"/>
              <path id="Trazado_819755" data-name="Trazado 819755" d="M342.714,310.91l5.648,80.139h-26.53s3.133-85.249,3.4-86.055c0,0,3.185-70.433,7.8-69.921,1.21.135,3.1,3.381,3.258,6.177.459,8.033-.918,23.641-.918,23.641s14.6-1.581,23.746,9.445-9.682,23.4-9.682,23.4Z" transform="translate(-82.515 -60.27)" fill="#d18491"/>
              <path id="Trazado_819756" data-name="Trazado 819756" d="M131.934,196.5A14.4,14.4,0,0,1,120.4,173.93c-4.161-3.711-5.619-10.127-4.5-15.588a16.323,16.323,0,0,1,10.6-11.952c-.637-3.734,1.646-8.586,4.482-11.1a15.267,15.267,0,0,1,15.142-2.8c1.486-5.6,5.641-10.935,11.3-12.184a16.241,16.241,0,0,1,15.644,5.365c3.94-4.95,10.641-8.854,16.881-7.809s11.664,6.655,11.672,12.982a17.785,17.785,0,0,1,16.356,1.762,14.934,14.934,0,0,1,6.276,14.775,8.848,8.848,0,0,1,4.785,1.131A16.615,16.615,0,0,1,237,169.781a15.6,15.6,0,0,1,4.367,12.264,20.881,20.881,0,0,1-2.424,7.248c-2.342,4.49-5.953,8.7-10.849,9.99" transform="translate(-29.622 -30.175)" fill="#0e1165"/>
              <path id="Trazado_819757" data-name="Trazado 819757" d="M226.99,202.343c0,22.025-13.934,55.3-39.88,55.3s-39.88-33.27-39.88-55.3,17.855-47.6,39.88-47.6,39.88,25.576,39.88,47.6" transform="translate(-37.749 -39.675)" fill="#d18491"/>
              <g id="Grupo_1072937" data-name="Grupo 1072937" transform="translate(143.106 195.344)" style="mix-blend-mode: multiply;isolation: isolate">
                <g id="Grupo_1072936" data-name="Grupo 1072936">
                  <g id="Grupo_1072935" data-name="Grupo 1072935" clip-path="url(#clip-path)">
                    <path id="Trazado_819758" data-name="Trazado 819758" d="M200.806,262.755a19.431,19.431,0,0,0-8.357,1.154,9.221,9.221,0,0,0,6.661,3.229,8.857,8.857,0,0,0,6.585-3.5,24.984,24.984,0,0,0-4.889-.883" transform="translate(-192.449 -262.698)" fill="#d18491"/>
                  </g>
                </g>
              </g>
              <path id="Trazado_819759" data-name="Trazado 819759" d="M199.7,261.193a24.986,24.986,0,0,1,4.889.883,20.481,20.481,0,0,0,3.283-5.471,19.584,19.584,0,0,1-9.316,2.049,47.252,47.252,0,0,1-10.42-1.151,18.083,18.083,0,0,0,3.207,4.845,19.43,19.43,0,0,1,8.357-1.154" transform="translate(-48.237 -65.792)" fill="#0e1165"/>
              <path id="Trazado_819760" data-name="Trazado 819760" d="M172.26,281.168a27.328,27.328,0,0,0,4.941,3.345,33.869,33.869,0,0,0,5.416,2.347,34.839,34.839,0,0,0,5.715,1.347c.96.184,1.944.22,2.913.338.976.045,1.959.081,2.934.08a30.428,30.428,0,0,0,5.808-.588,28.155,28.155,0,0,0,5.6-1.668,28.88,28.88,0,0,0,5.207-2.757,26.962,26.962,0,0,0,4.616-3.778,20.706,20.706,0,0,1-4.111,4.458,25.04,25.04,0,0,1-5.159,3.3,27.965,27.965,0,0,1-11.949,2.753,32.114,32.114,0,0,1-12.038-2.232,28.311,28.311,0,0,1-5.395-2.888,20.948,20.948,0,0,1-4.5-4.062" transform="translate(-44.166 -71.748)" fill="#0e1165"/>
              <path id="Trazado_819761" data-name="Trazado 819761" d="M184.237,220.918a4.529,4.529,0,1,1-4.529-4.529,4.529,4.529,0,0,1,4.529,4.529" transform="translate(-44.914 -55.481)" fill="#0e1165"/>
              <path id="Trazado_819762" data-name="Trazado 819762" d="M212.68,220.918a4.529,4.529,0,1,0,4.529-4.529,4.529,4.529,0,0,0-4.529,4.529" transform="translate(-54.53 -55.481)" fill="#0e1165"/>
              <path id="Trazado_819763" data-name="Trazado 819763" d="M163.279,213.939a13.224,13.224,0,0,1,1.282-3.146,15.425,15.425,0,0,1,2.085-2.777,17.915,17.915,0,0,1,2.677-2.281,19.9,19.9,0,0,1,3.1-1.713c2.15-.94,4.484-1.965,7.019-1.607a9.3,9.3,0,0,1,3.623,1.191,5.764,5.764,0,0,1,2.526,2.843l-.283.319a14.865,14.865,0,0,0-3.151-.292,27.54,27.54,0,0,0-2.811.2c-.929.106-1.862.174-2.843.213a12.942,12.942,0,0,0-2.951.352,16.686,16.686,0,0,0-2.845.968,15.366,15.366,0,0,0-2.684,1.433,14.738,14.738,0,0,0-2.4,1.956,15.043,15.043,0,0,0-1.956,2.508Z" transform="translate(-41.864 -51.879)" fill="#0e1165"/>
              <path id="Trazado_819764" data-name="Trazado 819764" d="M231.021,214.1a14.946,14.946,0,0,0-1.956-2.508,14.757,14.757,0,0,0-2.4-1.956,15.441,15.441,0,0,0-2.684-1.432,16.694,16.694,0,0,0-2.846-.968,12.936,12.936,0,0,0-2.951-.352c-.982-.039-1.915-.107-2.844-.213a27.34,27.34,0,0,0-2.811-.2,14.915,14.915,0,0,0-3.151.292l-.283-.318a5.764,5.764,0,0,1,2.526-2.843,9.3,9.3,0,0,1,3.623-1.191c2.535-.358,4.868.666,7.02,1.607a19.836,19.836,0,0,1,3.1,1.713,17.957,17.957,0,0,1,2.677,2.28,15.458,15.458,0,0,1,2.085,2.778,13.224,13.224,0,0,1,1.282,3.146Z" transform="translate(-53.612 -51.879)" fill="#0e1165"/>
              <path id="Trazado_819765" data-name="Trazado 819765" d="M142.611,211.087a5.667,5.667,0,0,0,3.828-2.18c5.407-5.84,6.988-14.293,6.911-22.251a13.626,13.626,0,0,0,10.484-.805,12.971,12.971,0,0,0,6.1-8.239,14.5,14.5,0,0,0,10.506,3.139,13,13,0,0,0,8.848-5.383c4.354,4.54,11.608,6.811,17.435,4.44,1.9,4.068,6.24,7.182,10.6,8.254.742,4.216.363,9.224,2.09,13.141s4.526,7.517,8.385,9.368c2.177-9.469.968-19.717-1.882-29.006-1.626-5.3-3.493-10.586-6.477-15.257-7.085-11.088-20.1-17.609-33.222-18.6a30.037,30.037,0,0,0-12.02,1.191c-6.156,2.115-11.008,6.978-14.721,12.325-9.751,14.043-15.326,32.836-16.863,49.863" transform="translate(-36.564 -37.838)" fill="#0e1165"/>
              <path id="Trazado_819766" data-name="Trazado 819766" d="M267.155,229.127a16.322,16.322,0,0,1-8.25,10.833,9.078,9.078,0,0,1-4.28,1.224c-3.412-.027-6.314-2.944-7.154-6.147s-.026-6.572,1.2-9.62c1.584-3.939,4.4-7.984,8.751-8.621,7.008-1.025,10.935,6.7,9.734,12.331" transform="translate(-63.362 -55.561)" fill="#d18491"/>
              <g id="Grupo_1072940" data-name="Grupo 1072940" transform="translate(187.519 164.335)" style="mix-blend-mode: multiply;isolation: isolate">
                <g id="Grupo_1072939" data-name="Grupo 1072939">
                  <g id="Grupo_1072938" data-name="Grupo 1072938" clip-path="url(#clip-path-2)">
                    <path id="Trazado_819767" data-name="Trazado 819767" d="M252.175,237.985a8.278,8.278,0,0,0,4.008-2.109,1.6,1.6,0,0,0,.5-.739c.132-.559-.294-1.095-.691-1.533l-2.41-2.655a1.4,1.4,0,0,1-.378-.592,1.321,1.321,0,0,1,.127-.745c1.164-3.038,2.52-6.306,5.42-7.926A4.29,4.29,0,0,1,264.721,223a12.192,12.192,0,0,1,1.671,3.586s.3,6.72-4.759,10.364a8.836,8.836,0,0,1-9.458,1.031" transform="translate(-252.175 -220.997)" fill="#d18491"/>
                  </g>
                </g>
              </g>
              <path id="Trazado_819768" data-name="Trazado 819768" d="M266.392,226.376a13.175,13.175,0,0,0-2.076-3.48,4.22,4.22,0,0,0-3.244-1.5,3.538,3.538,0,0,0-1.65.46,4.52,4.52,0,0,0-.68.564c-.229.221-.45.457-.662.7a21.5,21.5,0,0,0-2.287,3.266c-.348.577-.683,1.165-1,1.764l-.463.9-.219.455-.106.225-.042.088c-2.556-1.483-.852-.183-1.366-.6l0,.01,0-.01.012-.025.026-.055.033-.071.005-.011a.819.819,0,0,1,.068-.12c.094-.089-.089.035.238-.222,2.179.809.613.95,1.092.829l-.019.062-.039.119-.061.2-.031.135a.026.026,0,0,0,0-.011.346.346,0,0,0-.011-.068s0,0,0,.006a3.962,3.962,0,0,0,.5.626c.454.521.9,1.052,1.338,1.585l.663.8a3.843,3.843,0,0,1,.654,1,1.739,1.739,0,0,1,.132.718,1.414,1.414,0,0,1-.239.718,3.645,3.645,0,0,1-.846.811,7.778,7.778,0,0,1-3.932,1.52,8.937,8.937,0,0,0,3.429-2.1,3.1,3.1,0,0,0,.574-.687.537.537,0,0,0-.054-.547,10.5,10.5,0,0,0-1.287-1.405c-.489-.489-.974-.982-1.449-1.484l-.361-.377a2.2,2.2,0,0,1-.434-.605,1.439,1.439,0,0,1-.084-.239,1.245,1.245,0,0,1-.03-.2v-.141a2.454,2.454,0,0,1,.051-.376l.071-.3.035-.129c0-.015,0-.009,0,0,.48-.126-1.084.01,1.095.813.329-.264.141-.126.233-.214a.7.7,0,0,0,.06-.106v0l-.019.048-.025.063-.014.034-.008.02-.011.024c-.516-.414,1.184.9-1.37-.6l.061-.149.109-.246.222-.482.465-.951c.319-.628.654-1.25,1.013-1.861a21.3,21.3,0,0,1,2.538-3.46c.251-.265.518-.521.8-.764a5.7,5.7,0,0,1,.959-.7,4.691,4.691,0,0,1,4.564.2,5.793,5.793,0,0,1,1.61,1.551,10.463,10.463,0,0,1,1.478,3.96" transform="translate(-64.656 -56.449)" fill="#0e1165"/>
              <path id="Trazado_819769" data-name="Trazado 819769" d="M127.586,229.127a16.322,16.322,0,0,0,8.25,10.833,9.078,9.078,0,0,0,4.28,1.224c3.412-.027,6.314-2.944,7.154-6.147s.026-6.572-1.2-9.62c-1.584-3.939-4.4-7.984-8.751-8.621-7.008-1.025-10.935,6.7-9.733,12.331" transform="translate(-32.657 -55.561)" fill="#d18491"/>
              <g id="Grupo_1072943" data-name="Grupo 1072943" transform="translate(96.983 164.335)" style="mix-blend-mode: multiply;isolation: isolate">
                <g id="Grupo_1072942" data-name="Grupo 1072942">
                  <g id="Grupo_1072941" data-name="Grupo 1072941" clip-path="url(#clip-path-3)">
                    <path id="Trazado_819770" data-name="Trazado 819770" d="M144.644,237.985a8.284,8.284,0,0,1-4.009-2.109,1.6,1.6,0,0,1-.5-.739c-.132-.559.294-1.095.691-1.533l2.41-2.655a1.4,1.4,0,0,0,.378-.592,1.327,1.327,0,0,0-.127-.745c-1.164-3.038-2.52-6.306-5.42-7.926A4.29,4.29,0,0,0,132.1,223a12.191,12.191,0,0,0-1.671,3.586s-.3,6.72,4.759,10.364a8.836,8.836,0,0,0,9.458,1.031" transform="translate(-130.423 -220.997)" fill="#d18491"/>
                  </g>
                </g>
              </g>
              <path id="Trazado_819771" data-name="Trazado 819771" d="M130.428,226.377a10.506,10.506,0,0,1,1.452-3.927,4.99,4.99,0,0,1,3.785-2.275,5.049,5.049,0,0,1,2.274.464,8.275,8.275,0,0,1,1.9,1.188,11.638,11.638,0,0,1,2.687,3.432,31.367,31.367,0,0,1,1.648,3.865,2.843,2.843,0,0,1,.173.672,1.5,1.5,0,0,1-.207.936,6.593,6.593,0,0,1-.774.886c-.471.5-.952.984-1.436,1.469a8.726,8.726,0,0,0-1.25,1.385.514.514,0,0,0-.022.538,3.5,3.5,0,0,0,.585.684,8.959,8.959,0,0,0,3.4,2.08,7.779,7.779,0,0,1-3.9-1.492,4.007,4.007,0,0,1-.842-.782,1.5,1.5,0,0,1-.173-1.42,3.51,3.51,0,0,1,.636-1.022l.658-.793q.652-.794,1.324-1.57a7.046,7.046,0,0,0,.554-.677c.02-.062,0,0,0-.05a1.907,1.907,0,0,0-.112-.311A33.491,33.491,0,0,0,141.145,226a10.587,10.587,0,0,0-2.273-3.053,5.453,5.453,0,0,0-3.2-1.553,4.267,4.267,0,0,0-3.189,1.53,13.335,13.335,0,0,0-2.054,3.452" transform="translate(-33.441 -56.45)" fill="#0e1165"/>
              <path id="Trazado_819772" data-name="Trazado 819772" d="M199.493,216.266a13.936,13.936,0,0,0,3.333,8.157c.969,1.072,2.137,2.053,3.267,3.241a9.633,9.633,0,0,1,2.444,4.486,9.925,9.925,0,0,1-.31,5.117,8.666,8.666,0,0,1-3,4.125,9.008,9.008,0,0,1-4.658,1.689,7.949,7.949,0,0,1-4.622-1.091,8.993,8.993,0,0,0,8.235-1.89,7.946,7.946,0,0,0,2.278-7.5,7.81,7.81,0,0,0-1.872-3.606c-.918-1.131-2.106-2.185-3.058-3.545a11.768,11.768,0,0,1-2.035-9.183" transform="translate(-50.239 -55.449)" fill="#0e1165"/>
              <path id="Trazado_819773" data-name="Trazado 819773" d="M140.353,192.361a9.215,9.215,0,0,1,6.946-11.654c-.3-4.868,2.585-9.6,7.275-10.935" transform="translate(-35.889 -43.528)" fill="none" stroke="#fff" stroke-linecap="round" stroke-miterlimit="10" stroke-width="1.045"/>
              <path id="Trazado_819774" data-name="Trazado 819774" d="M155.184,151.169a12.7,12.7,0,0,1,14.659,2.609c3.314-2.67,8.9-1.863,11.809,1.243" transform="translate(-39.788 -38.433)" fill="none" stroke="#fff" stroke-linecap="round" stroke-miterlimit="10" stroke-width="1.045"/>
              <path id="Trazado_819775" data-name="Trazado 819775" d="M206.146,135.732a10.758,10.758,0,0,1,13.6,8.042c4.011-.582,8.053,2.1,9.858,5.725" transform="translate(-52.854 -34.688)" fill="none" stroke="#fff" stroke-linecap="round" stroke-miterlimit="10" stroke-width="1.045"/>
              <path id="Trazado_819776" data-name="Trazado 819776" d="M211.529,165.506a12,12,0,0,1,12.911,6.815,9.313,9.313,0,0,1,10.157,6.753" transform="translate(-54.235 -42.384)" fill="none" stroke="#fff" stroke-linecap="round" stroke-miterlimit="10" stroke-width="1.045"/>
              <path id="Trazado_819777" data-name="Trazado 819777" d="M257.59,174.966a9.2,9.2,0,0,1,5.037,11.5c2.674,1.694,3.006,6.33,1.569,9.151" transform="translate(-66.044 -44.86)" fill="none" stroke="#fff" stroke-linecap="round" stroke-miterlimit="10" stroke-width="1.045"/>
              <path id="Trazado_819778" data-name="Trazado 819778" d="M327.4,298.965c1.682-3.825,3.3-12,5.726-15.405s6.376-5.283,10.161-7.028c.658-.3,1.547-.562,2.013-.008a1.534,1.534,0,0,1,.28.846c.419,4.069-2.156,7.832-5,10.77a2.152,2.152,0,0,0-.82,1.507,2.175,2.175,0,0,0,.387.936,19.262,19.262,0,0,1,2.275,14.682,16,16,0,0,1-9.813,10.9" transform="translate(-83.942 -70.815)" fill="none" stroke="#0e1165" stroke-linecap="round" stroke-miterlimit="10" stroke-width="2.061"/>
              <path id="Trazado_819779" data-name="Trazado 819779" d="M356.99,317.949a8.153,8.153,0,0,1-9.945-.941" transform="translate(-88.98 -81.279)" fill="none" stroke="#0e1165" stroke-linecap="round" stroke-miterlimit="10" stroke-width="2.061"/>
              <path id="Trazado_819780" data-name="Trazado 819780" d="M364.248,284.239a58.693,58.693,0,0,1-11.222,25.993c-.119.155-.286.329-.477.281s-.11-.436.054-.329" transform="translate(-90.363 -72.877)" fill="none" stroke="#0e1165" stroke-linecap="round" stroke-miterlimit="10" stroke-width="2.061"/>
              <path id="Trazado_819781" data-name="Trazado 819781" d="M355.824,278.482c-1.077,7.189-4.426,13.81-7.728,20.286" transform="translate(-89.249 -71.401)" fill="none" stroke="#0e1165" stroke-linecap="round" stroke-miterlimit="10" stroke-width="2.061"/>
              <path id="Trazado_819782" data-name="Trazado 819782" d="M162.249,313.8s5.536,31.692,27.5,31.692,28.287-31.614,28.287-31.614" transform="translate(-41.599 -80.457)" fill="none" stroke="#0e1165" stroke-linecap="round" stroke-miterlimit="10" stroke-width="2.061"/>
              <path id="Trazado_819783" data-name="Trazado 819783" d="M117.607,343.573a367.091,367.091,0,0,0,6.579,74.622" transform="translate(-30.144 -88.09)" fill="none" stroke="#0e1165" stroke-linecap="round" stroke-miterlimit="10" stroke-width="2.061"/>
              <path id="Trazado_819784" data-name="Trazado 819784" d="M269.457,343.573a367.089,367.089,0,0,1-6.579,74.622" transform="translate(-67.4 -88.09)" fill="none" stroke="#0e1165" stroke-linecap="round" stroke-miterlimit="10" stroke-width="2.061"/>
              <path id="Trazado_819785" data-name="Trazado 819785" d="M111.371,411.133H244.462V337.875a5.567,5.567,0,0,0-5.567-5.567H116.938a5.567,5.567,0,0,0-5.567,5.567Z" transform="translate(-28.555 -85.201)" fill="#8ea6ff"/>
              <path id="Trazado_819786" data-name="Trazado 819786" d="M118.767,410.876H240.858v-67.2a5.107,5.107,0,0,0-5.107-5.107H123.874a5.107,5.107,0,0,0-5.107,5.107Z" transform="translate(-30.451 -86.806)" fill="none" stroke="#3459cc" stroke-linecap="round" stroke-miterlimit="10" stroke-width="1.933"/>
              <path id="Trazado_819787" data-name="Trazado 819787" d="M209.68,384.146a13.46,13.46,0,1,1-13.46-13.46,13.46,13.46,0,0,1,13.46,13.46" transform="translate(-46.858 -95.041)" fill="#fdffff"/>
              <path id="Trazado_819788" data-name="Trazado 819788" d="M205.191,329.876h-16.95a3.548,3.548,0,0,1,0-7.1h16.95a3.548,3.548,0,1,1,0,7.1" transform="translate(-47.354 -82.759)" fill="#0e1165"/>
              <path id="Trazado_819789" data-name="Trazado 819789" d="M104.851,442.3H247.638v-1.371a5.963,5.963,0,0,0-5.963-5.963H110.814a5.963,5.963,0,0,0-5.963,5.963Z" transform="translate(-26.883 -111.523)" fill="#fdffff"/>
              <path id="Trazado_819790" data-name="Trazado 819790" d="M193.138,326.555a2.172,2.172,0,1,1-2.172-2.172,2.172,2.172,0,0,1,2.172,2.172" transform="translate(-48.405 -83.17)" fill="#fdffff"/>
              <path id="Trazado_819791" data-name="Trazado 819791" d="M199.77,328.517H207.7a1.629,1.629,0,1,0,0-3.258H199.77a1.629,1.629,0,1,0,0,3.258" transform="translate(-50.802 -83.394)" fill="#8ea6ff"/>
              <path id="Trazado_819792" data-name="Trazado 819792" d="M212.194,382.823a17.3,17.3,0,1,1-17.3-17.3A17.3,17.3,0,0,1,212.194,382.823Z" transform="translate(-45.536 -93.718)" fill="none" stroke="#3459cc" stroke-linecap="round" stroke-miterlimit="10" stroke-width="1.933"/>
            </g>
          </g>
        </g>
      </g>
    </g>
  </g>
</svg>
