<svg xmlns="http://www.w3.org/2000/svg" width="187.722" height="184.495" viewBox="0 0 187.722 184.495">
  <g id="Grupo_1073443" data-name="Grupo 1073443" transform="translate(-182.278 -1564.534)">
    <g id="Grupo_1073362" data-name="Grupo 1073362" transform="translate(182.278 1564.534)">
      <g id="Grupo_1073235" data-name="Grupo 1073235" transform="translate(0 0)">
        <path id="Trazado_821758" data-name="Trazado 821758" d="M179.449,0H8.272A8.556,8.556,0,0,0,0,8.813V175.682A8.556,8.556,0,0,0,8.272,184.5H179.449a8.556,8.556,0,0,0,8.272-8.813V8.813A8.556,8.556,0,0,0,179.449,0Z" transform="translate(0 0)" fill="#a854f3"/>
      </g>
    </g>
    <g id="datos_1_" data-name="datos (1)" transform="translate(206.354 1594.312)">
      <path id="Trazado_823542" data-name="Trazado 823542" d="M14.2,0h97.9a9.791,9.791,0,0,1,9.79,9.79V88.114a9.791,9.791,0,0,1-9.79,9.79H14.2a9.791,9.791,0,0,1-9.79-9.79V9.79A9.789,9.789,0,0,1,14.2,0Z" transform="translate(-4.411)" fill="#87ced9"/>
      <g id="Grupo_1073439" data-name="Grupo 1073439" transform="translate(7.343 7.343)">
        <rect id="Rectángulo_382675" data-name="Rectángulo 382675" width="4.895" height="4.895" fill="#4398d1"/>
        <rect id="Rectángulo_382676" data-name="Rectángulo 382676" width="4.895" height="4.895" transform="translate(9.791)" fill="#4398d1"/>
        <rect id="Rectángulo_382677" data-name="Rectángulo 382677" width="4.895" height="4.895" transform="translate(19.581)" fill="#4398d1"/>
        <path id="Trazado_823543" data-name="Trazado 823543" d="M67.167,70.621h97.9a9.791,9.791,0,0,1,9.79,9.79v78.324a9.791,9.791,0,0,1-9.79,9.79h-97.9a9.791,9.791,0,0,1-9.79-9.79V80.411A9.789,9.789,0,0,1,67.167,70.621Z" transform="translate(-50.034 -58.383)" fill="#4398d1"/>
      </g>
      <path id="Trazado_823544" data-name="Trazado 823544" d="M221.579,70.621H209.95c-17.542,55.852-51.133,84.081-74.388,97.9h86.017a9.791,9.791,0,0,0,9.79-9.79V80.411A9.791,9.791,0,0,0,221.579,70.621Z" transform="translate(-99.198 -51.04)" fill="#3f8fc4"/>
      <g id="Grupo_1073440" data-name="Grupo 1073440" transform="translate(22.029 26.924)">
        <rect id="Rectángulo_382678" data-name="Rectángulo 382678" width="4.895" height="4.895" fill="#87ced9"/>
        <rect id="Rectángulo_382679" data-name="Rectángulo 382679" width="4.895" height="4.895" transform="translate(9.79)" fill="#87ced9"/>
        <rect id="Rectángulo_382680" data-name="Rectángulo 382680" width="4.895" height="4.895" transform="translate(19.581)" fill="#87ced9"/>
      </g>
      <g id="Grupo_1073441" data-name="Grupo 1073441" transform="translate(22.029 36.714)">
        <rect id="Rectángulo_382681" data-name="Rectángulo 382681" width="102.8" height="4.895" transform="translate(0 61.19)" fill="#3685ba"/>
        <rect id="Rectángulo_382682" data-name="Rectángulo 382682" width="4.895" height="14.686" transform="translate(4.895 41.61)" fill="#3685ba"/>
        <rect id="Rectángulo_382683" data-name="Rectángulo 382683" width="4.895" height="29.371" transform="translate(14.686 26.924)" fill="#3685ba"/>
        <rect id="Rectángulo_382684" data-name="Rectángulo 382684" width="4.895" height="22.029" transform="translate(24.476 34.267)" fill="#3685ba"/>
        <rect id="Rectángulo_382685" data-name="Rectángulo 382685" width="4.895" height="39.162" transform="translate(34.267 17.133)" fill="#3685ba"/>
        <rect id="Rectángulo_382686" data-name="Rectángulo 382686" width="4.895" height="44.057" transform="translate(44.057 12.238)" fill="#3685ba"/>
        <rect id="Rectángulo_382687" data-name="Rectángulo 382687" width="4.895" height="17.133" transform="translate(53.848 14.686)" fill="#3685ba"/>
        <rect id="Rectángulo_382688" data-name="Rectángulo 382688" width="4.895" height="26.924" transform="translate(63.638 4.895)" fill="#3685ba"/>
        <rect id="Rectángulo_382689" data-name="Rectángulo 382689" width="4.895" height="31.819" transform="translate(73.429)" fill="#3685ba"/>
        <rect id="Rectángulo_382690" data-name="Rectángulo 382690" width="4.895" height="46.505" transform="translate(83.219 9.79)" fill="#3685ba"/>
        <rect id="Rectángulo_382691" data-name="Rectángulo 382691" width="4.895" height="36.714" transform="translate(93.01 19.581)" fill="#3685ba"/>
      </g>
      <rect id="Rectángulo_382692" data-name="Rectángulo 382692" width="10.385" height="41.538" transform="translate(139.536 134.637) rotate(135)" fill="#fdb62f"/>
      <rect id="Rectángulo_382693" data-name="Rectángulo 382693" width="10.385" height="13.846" transform="translate(119.936 115.047) rotate(135)" fill="#fa962a"/>
      <circle id="Elipse_9754" data-name="Elipse 9754" cx="31.819" cy="31.819" r="31.819" transform="translate(56.295 61.19)" fill="#fdb62f"/>
      <circle id="Elipse_9755" data-name="Elipse 9755" cx="22.029" cy="22.029" r="22.029" transform="translate(66.086 70.981)" fill="#87ced9"/>
      <g id="Grupo_1073442" data-name="Grupo 1073442" transform="translate(66.086 70.981)">
        <path id="Trazado_823545" data-name="Trazado 823545" d="M244.8,353.1a21.741,21.741,0,0,0,1.753,4.9h39.421a21.759,21.759,0,0,0,1.753-4.9Z" transform="translate(-244.23 -326.179)" fill="#4398d1"/>
        <path id="Trazado_823546" data-name="Trazado 823546" d="M318.271,278.027V256.143a20.74,20.74,0,0,0-4.9,0v21.884Z" transform="translate(-293.795 -255.998)" fill="#4398d1"/>
        <path id="Trazado_823547" data-name="Trazado 823547" d="M282.961,281.365V260.617a21.917,21.917,0,0,0-4.9,2.435v18.313Z" transform="translate(-268.276 -259.336)" fill="#4398d1"/>
        <path id="Trazado_823548" data-name="Trazado 823548" d="M353.582,281.365V263.052a21.911,21.911,0,0,0-4.9-2.435v20.748Z" transform="translate(-319.315 -259.336)" fill="#4398d1"/>
        <path id="Trazado_823549" data-name="Trazado 823549" d="M247.651,285.564a21.925,21.925,0,0,0-4.9,13.832h4.9Z" transform="translate(-242.756 -277.366)" fill="#4398d1"/>
        <path id="Trazado_823550" data-name="Trazado 823550" d="M384,299.395h4.9a21.928,21.928,0,0,0-4.9-13.832Z" transform="translate(-344.835 -277.366)" fill="#4398d1"/>
      </g>
    </g>
  </g>
</svg>
