<svg xmlns="http://www.w3.org/2000/svg" width="67" height="67" viewBox="0 0 67 67">
  <g id="Grupo_1073444" data-name="Grupo 1073444" transform="translate(-198.5 -2061)">
    <g id="Grupo_1073043" data-name="Grupo 1073043" transform="translate(-19.5 -883)">
      <circle id="Elipse_9669" data-name="Elipse 9669" cx="33.5" cy="33.5" r="33.5" transform="translate(218 2944)" fill="#f0c52c"/>
    </g>
    <g id="computer" transform="translate(209.5 2072)">
      <path id="Trazado_823551" data-name="Trazado 823551" d="M42.255,16.354V35.3H3V16.354A1.358,1.358,0,0,1,4.354,15H40.9A1.358,1.358,0,0,1,42.255,16.354Z" transform="translate(-0.323 -4.202)" fill="#57a4ff"/>
      <path id="Trazado_823552" data-name="Trazado 823552" d="M42.255,16.354V35.3H3V32.6H31.426a8.122,8.122,0,0,0,8.122-8.122V16.354A1.358,1.358,0,0,0,38.194,15H40.9A1.358,1.358,0,0,1,42.255,16.354Z" transform="translate(-0.323 -4.202)" fill="#2488ff"/>
      <path id="Trazado_823553" data-name="Trazado 823553" d="M53,27h2.707v9.475H53Z" transform="translate(-16.483 -8.08)" fill="#ff7956"/>
      <path id="Trazado_823554" data-name="Trazado 823554" d="M45,29h2.707v8.122H45Z" transform="translate(-13.897 -8.726)" fill="#ffde55"/>
      <path id="Trazado_823555" data-name="Trazado 823555" d="M36.243,59.707H20L22.03,57H34.213Z" transform="translate(-5.817 -17.776)" fill="#c6c5ca"/>
      <path id="Trazado_823556" data-name="Trazado 823556" d="M37,33h2.707v5.414H37Z" transform="translate(-11.312 -10.019)" fill="#00ddc2"/>
      <path id="Trazado_823557" data-name="Trazado 823557" d="M36.873,5.437a6.067,6.067,0,0,1,1.218,3.655,5.592,5.592,0,0,1-.041.677H32V3a6.086,6.086,0,0,1,4.873,2.437Z" transform="translate(-9.696 -0.323)" fill="#ff7956"/>
      <path id="Trazado_823558" data-name="Trazado 823558" d="M24.909,13.518A6.09,6.09,0,0,1,29.091,3V9.768h6.051a5.706,5.706,0,0,1-.311,1.354,6.087,6.087,0,0,1-9.922,2.4Z" transform="translate(-6.787 -0.323)" fill="#ffde55"/>
      <path id="Trazado_823559" data-name="Trazado 823559" d="M35.142,15.192a5.706,5.706,0,0,1-.311,1.354A6.09,6.09,0,0,1,23,14.515a6.29,6.29,0,0,1,.081-1.015,6.217,6.217,0,0,0,.271,1.015,5.981,5.981,0,0,0,1.557,2.4,6.081,6.081,0,0,0,9.631-1.719Z" transform="translate(-6.787 -3.717)" fill="#2488ff"/>
      <path id="Trazado_823560" data-name="Trazado 823560" d="M34.475,55.061H25L25.677,51H33.8Z" transform="translate(-7.433 -15.836)" fill="#57a4ff"/>
      <path id="Trazado_823561" data-name="Trazado 823561" d="M42.255,45v2.707A1.358,1.358,0,0,1,40.9,49.061H4.354A1.358,1.358,0,0,1,3,47.707V45Z" transform="translate(-0.323 -13.897)" fill="#c6c5ca"/>
      <path id="Trazado_823562" data-name="Trazado 823562" d="M26,51h8.122v2.03H26Z" transform="translate(-7.757 -15.836)" fill="#2488ff"/>
      <path id="Trazado_823563" data-name="Trazado 823563" d="M10.384,22.384h3.384A3.384,3.384,0,1,1,10.384,19Z" transform="translate(-1.616 -5.494)" fill="#ffde55"/>
      <path id="Trazado_823564" data-name="Trazado 823564" d="M37,33h2.707v5.414H37Z" transform="translate(-11.312 -10.019)" fill="#00d7df"/>
      <path id="Trazado_823565" data-name="Trazado 823565" d="M53,27h2.707v1.354H53Z" transform="translate(-16.483 -8.08)" fill="#ff5023"/>
      <path id="Trazado_823566" data-name="Trazado 823566" d="M45,29h2.707v1.354H45Z" transform="translate(-13.897 -8.726)" fill="#ebbf00"/>
      <path id="Trazado_823567" data-name="Trazado 823567" d="M37,33h2.707v1.354H37Z" transform="translate(-11.312 -10.019)" fill="#009698"/>
      <path id="Trazado_823568" data-name="Trazado 823568" d="M40.578,10.122H28.937a6.9,6.9,0,0,0,.135-1.354,6.744,6.744,0,0,0-.981-3.492l2.558-1.922H35.84V2H30.426a.666.666,0,0,0-.406.135L27.279,4.193a6.739,6.739,0,0,0-9.949,0L14.589,2.135A.666.666,0,0,0,14.183,2H8.768V3.354h5.191l2.558,1.922a6.744,6.744,0,0,0-.981,3.492,6.9,6.9,0,0,0,.135,1.354H4.03A2.037,2.037,0,0,0,2,12.152V33.81a2.037,2.037,0,0,0,2.03,2.03H17.567v2.707h-2.03a.686.686,0,0,0-.541.271l-2.03,2.707a.677.677,0,0,0,.541,1.083H31.1a.677.677,0,0,0,.541-1.083l-2.03-2.707a.686.686,0,0,0-.541-.271h-2.03V35.84H40.578a2.037,2.037,0,0,0,2.03-2.03V12.152a2.037,2.037,0,0,0-2.03-2.03ZM22.981,3.4a5.4,5.4,0,0,1,3.208,1.6L24.605,6.2l.812,1.083L27,6.088a5.377,5.377,0,0,1,.717,2.68H22.981ZM17.607,6.088l1.584,1.191L20,6.2,18.419,5.005a5.4,5.4,0,0,1,3.208-1.6V9.445a.677.677,0,0,0,.677.677h5.238a5.411,5.411,0,1,1-9.936-4.034ZM28.734,39.9l1.015,1.354H14.859L15.875,39.9ZM18.92,38.548V35.84h6.768v2.707ZM41.255,33.81a.677.677,0,0,1-.677.677H4.03a.677.677,0,0,1-.677-.677v-2.03h37.9Zm0-3.384H3.354V12.152a.677.677,0,0,1,.677-.677H16.1a6.763,6.763,0,0,0,12.4,0H40.578a.677.677,0,0,1,.677.677Z" transform="translate(0 0)"/>
      <path id="Trazado_823569" data-name="Trazado 823569" d="M54,2h2.707V3.354H54Z" transform="translate(-16.806 0)"/>
      <path id="Trazado_823570" data-name="Trazado 823570" d="M44,6h1.354V7.354H44Z" transform="translate(-13.574 -1.293)"/>
      <path id="Trazado_823571" data-name="Trazado 823571" d="M48,6h6.768V7.354H48Z" transform="translate(-14.867 -1.293)"/>
      <path id="Trazado_823572" data-name="Trazado 823572" d="M44,10h5.414v1.354H44Z" transform="translate(-13.574 -2.586)"/>
      <path id="Trazado_823573" data-name="Trazado 823573" d="M54,10h2.707v1.354H54Z" transform="translate(-16.806 -2.586)"/>
      <path id="Trazado_823574" data-name="Trazado 823574" d="M6,2H8.707V3.354H6Z" transform="translate(-1.293 0)"/>
      <path id="Trazado_823575" data-name="Trazado 823575" d="M18,6h1.354V7.354H18Z" transform="translate(-5.171 -1.293)"/>
      <path id="Trazado_823576" data-name="Trazado 823576" d="M6,6h6.768V7.354H6Z" transform="translate(-1.293 -1.293)"/>
      <path id="Trazado_823577" data-name="Trazado 823577" d="M12,10h5.414v1.354H12Z" transform="translate(-3.232 -2.586)"/>
      <path id="Trazado_823578" data-name="Trazado 823578" d="M6,10H8.707v1.354H6Z" transform="translate(-1.293 -2.586)"/>
      <path id="Trazado_823579" data-name="Trazado 823579" d="M6,32H9.384v1.354H6Z" transform="translate(-1.293 -9.696)"/>
      <path id="Trazado_823580" data-name="Trazado 823580" d="M13,32H25.859v1.354H13Z" transform="translate(-3.555 -9.696)"/>
      <path id="Trazado_823581" data-name="Trazado 823581" d="M6,36H16.829v1.354H6Z" transform="translate(-1.293 -10.989)"/>
      <path id="Trazado_823582" data-name="Trazado 823582" d="M24,36h5.414v1.354H24Z" transform="translate(-7.11 -10.989)"/>
      <path id="Trazado_823583" data-name="Trazado 823583" d="M6,40h6.768v1.354H6Z" transform="translate(-1.293 -12.281)"/>
      <path id="Trazado_823584" data-name="Trazado 823584" d="M18,40h9.475v1.354H18Z" transform="translate(-5.171 -12.281)"/>
      <path id="Trazado_823585" data-name="Trazado 823585" d="M36.677,38.768h2.707a.677.677,0,0,0,.677-.677V32.677A.677.677,0,0,0,39.384,32H36.677a.677.677,0,0,0-.677.677v5.414A.677.677,0,0,0,36.677,38.768Zm.677-5.414h1.354v4.061H37.354Z" transform="translate(-10.989 -9.696)"/>
      <path id="Trazado_823586" data-name="Trazado 823586" d="M47.384,28H44.677a.677.677,0,0,0-.677.677V36.8a.677.677,0,0,0,.677.677h2.707a.677.677,0,0,0,.677-.677V28.677A.677.677,0,0,0,47.384,28Zm-.677,8.122H45.354V29.354h1.354Z" transform="translate(-13.574 -8.403)"/>
      <path id="Trazado_823587" data-name="Trazado 823587" d="M55.384,26H52.677a.677.677,0,0,0-.677.677v9.475a.677.677,0,0,0,.677.677h2.707a.677.677,0,0,0,.677-.677V26.677A.677.677,0,0,0,55.384,26Zm-.677,9.475H53.354V27.354h1.354Z" transform="translate(-16.16 -7.757)"/>
      <path id="Trazado_823588" data-name="Trazado 823588" d="M10.061,26.122a4.065,4.065,0,0,0,4.061-4.061.677.677,0,0,0-.677-.677H10.738V18.677A.677.677,0,0,0,10.061,18a4.061,4.061,0,0,0,0,8.122Zm-.677-6.683v2.622a.677.677,0,0,0,.677.677h2.621a2.707,2.707,0,1,1-3.3-3.3Z" transform="translate(-1.293 -5.171)"/>
      <path id="Trazado_823589" data-name="Trazado 823589" d="M20,24h1.354v1.354H20Z" transform="translate(-5.817 -7.11)"/>
      <path id="Trazado_823590" data-name="Trazado 823590" d="M24,24h5.414v1.354H24Z" transform="translate(-7.11 -7.11)"/>
      <path id="Trazado_823591" data-name="Trazado 823591" d="M20,28h8.122v1.354H20Z" transform="translate(-5.817 -8.403)"/>
      <path id="Trazado_823592" data-name="Trazado 823592" d="M39.993,25.747l1.163-2.333H44.8a.677.677,0,0,0,.52-.244L48.5,19.354h2.39V18H48.183a.677.677,0,0,0-.52.244l-3.181,3.817H40.738a.677.677,0,0,0-.609.374l-1.163,2.333H36v1.354h3.384A.677.677,0,0,0,39.993,25.747Z" transform="translate(-10.989 -5.171)"/>
    </g>
  </g>
</svg>
