<svg xmlns="http://www.w3.org/2000/svg" width="85" height="85" viewBox="0 0 85 85">
  <g id="Grupo_1099131" data-name="Grupo 1099131" transform="translate(-180 -7318)">
    <rect id="Rectángulo_382840" data-name="Rectángulo 382840" width="85" height="85" rx="42.5" transform="translate(180 7318)" fill="#f0c52c"/>
    <g id="analisis-de-los-datos_1_" data-name="analisis-de-los-datos (1)" transform="translate(193 7333)">
      <g id="Grupo_1098202" data-name="Grupo 1098202" transform="translate(0.951 0.966)">
        <g id="Grupo_1098198" data-name="Grupo 1098198" transform="translate(0 0)">
          <path id="Trazado_849157" data-name="Trazado 849157" d="M180.442,351.725H198.66V362.1H180.442Z" transform="translate(-160.568 -313.805)" fill="#9facba" fill-rule="evenodd"/>
          <path id="Trazado_849158" data-name="Trazado 849158" d="M319.6,351.725h1.413V362.1H319.6Z" transform="translate(-282.921 -313.805)" fill="#685e68" fill-rule="evenodd"/>
          <path id="Trazado_849159" data-name="Trazado 849159" d="M92.806,430.075H132.19v-3.036c0-1.67-1.71-3.036-3.8-3.036H96.606c-2.09,0-3.8,1.366-3.8,3.036Z" transform="translate(-83.515 -377.355)" fill="#7a8c98" fill-rule="evenodd"/>
          <path id="Trazado_849160" data-name="Trazado 849160" d="M92.806,434.471H132.19v-3.036A2.893,2.893,0,0,0,130.657,429a2.507,2.507,0,0,1,.325,1.225v3.036H92.806Z" transform="translate(-83.515 -381.75)" fill="#d1d1d6" fill-rule="evenodd"/>
          <path id="Trazado_849161" data-name="Trazado 849161" d="M20.327,37.717H69.38a4.469,4.469,0,0,1,4.456,4.456V72.829a4.469,4.469,0,0,1-4.456,4.456H20.327a4.469,4.469,0,0,1-4.456-4.456V42.173A4.469,4.469,0,0,1,20.327,37.717Z" transform="translate(-15.871 -37.717)" fill="#4360ea" fill-rule="evenodd"/>
          <path id="Trazado_849162" data-name="Trazado 849162" d="M77.42,44.034a4.461,4.461,0,0,1,1.97,3.693V78.384a4.469,4.469,0,0,1-4.456,4.456H25.881a4.461,4.461,0,0,1-3.693-1.97,4.424,4.424,0,0,0,2.486.763H73.727a4.469,4.469,0,0,0,4.456-4.456V46.52a4.424,4.424,0,0,0-.763-2.486Z" transform="translate(-21.425 -43.271)" fill="#1331bd" fill-rule="evenodd"/>
          <path id="Trazado_849163" data-name="Trazado 849163" d="M47.346,68.574H96.622a.62.62,0,0,1,.618.618v27.75H46.728V69.192A.62.62,0,0,1,47.346,68.574Z" transform="translate(-43.002 -64.848)" fill="#fff0ad" fill-rule="evenodd"/>
          <path id="Trazado_849164" data-name="Trazado 849164" d="M439.895,68.574h2.415a.62.62,0,0,1,.618.618v27.75h-2.415V69.192A.62.62,0,0,0,439.895,68.574Z" transform="translate(-388.689 -64.848)" fill="#c4e2ff" fill-rule="evenodd"/>
        </g>
        <g id="Grupo_1098199" data-name="Grupo 1098199" transform="translate(6.731 6.376)">
          <path id="Trazado_849165" data-name="Trazado 849165" d="M83.7,109.749a6.091,6.091,0,1,1-7.018-7.018.362.362,0,0,1,.422.357v5.649a.59.59,0,0,0,.59.59h5.649a.362.362,0,0,1,.357.422Z" transform="translate(-71.607 -101.251)" fill="#3ee2a8" fill-rule="evenodd"/>
          <path id="Trazado_849166" data-name="Trazado 849166" d="M78.3,114.8c-.2.019-.4.03-.6.03a6.091,6.091,0,0,1-1.011-12.1.351.351,0,0,1,.294.081.362.362,0,0,1,.092.117A6.091,6.091,0,0,0,78.3,114.8Z" transform="translate(-71.607 -101.25)" fill="#00e499" fill-rule="evenodd"/>
          <path id="Trazado_849167" data-name="Trazado 849167" d="M139.548,90.525a6.1,6.1,0,0,1,4.995,4.995.362.362,0,0,1-.357.422h-4.7a.363.363,0,0,1-.362-.362v-4.7a.362.362,0,0,1,.422-.357Z" transform="translate(-130.972 -90.519)" fill="#ffe177" fill-rule="evenodd"/>
          <path id="Trazado_849168" data-name="Trazado 849168" d="M139.811,90.525a6.1,6.1,0,0,1,4.995,4.995.362.362,0,0,1-.357.422h-1.208a.362.362,0,0,0,.357-.422,6.1,6.1,0,0,0-4.173-4.8.361.361,0,0,1,.092-.116A.351.351,0,0,1,139.811,90.525Z" transform="translate(-131.235 -90.519)" fill="#ffd064" fill-rule="evenodd"/>
        </g>
        <g id="Grupo_1098200" data-name="Grupo 1098200" transform="translate(21.034 11.773)">
          <path id="Trazado_849169" data-name="Trazado 849169" d="M373.482,135.206h2.756a.6.6,0,0,1,.6.6v16.642a.6.6,0,0,1-.6.6h-2.756a.6.6,0,0,1-.6-.6V135.81A.6.6,0,0,1,373.482,135.206Z" transform="translate(-350.799 -135.206)" fill="#1682fb" fill-rule="evenodd"/>
          <path id="Trazado_849170" data-name="Trazado 849170" d="M390.7,135.206h1.208a.6.6,0,0,1,.6.6v16.642a.6.6,0,0,1-.6.6H390.7a.6.6,0,0,0,.6-.6V135.81A.6.6,0,0,0,390.7,135.206Z" transform="translate(-366.468 -135.206)" fill="#60b7ff" fill-rule="evenodd"/>
          <path id="Trazado_849171" data-name="Trazado 849171" d="M251.6,178.26h2.756a.6.6,0,0,1,.6.6v11.443a.6.6,0,0,1-.6.6H251.6a.6.6,0,0,1-.6-.6V178.864A.6.6,0,0,1,251.6,178.26Z" transform="translate(-243.632 -173.061)" fill="#1682fb" fill-rule="evenodd"/>
          <path id="Trazado_849172" data-name="Trazado 849172" d="M268.813,178.26h1.208a.6.6,0,0,1,.6.6v11.443a.6.6,0,0,1-.6.6h-1.208a.6.6,0,0,0,.6-.6V178.864A.6.6,0,0,0,268.813,178.26Z" transform="translate(-259.301 -173.061)" fill="#0f6bd2" fill-rule="evenodd"/>
          <path id="Trazado_849173" data-name="Trazado 849173" d="M312.539,200.643h2.756a.605.605,0,0,1,.6.6v8.74a.6.6,0,0,1-.6.6h-2.756a.605.605,0,0,1-.6-.6v-8.74A.605.605,0,0,1,312.539,200.643Z" transform="translate(-297.216 -192.741)" fill="#ffe177" fill-rule="evenodd"/>
          <path id="Trazado_849174" data-name="Trazado 849174" d="M329.773,200.643h1.206a.605.605,0,0,1,.6.6v8.74a.605.605,0,0,1-.6.6h-1.206a.6.6,0,0,0,.6-.6v-8.74A.6.6,0,0,0,329.773,200.643Z" transform="translate(-312.9 -192.741)" fill="#ffd064" fill-rule="evenodd"/>
          <path id="Trazado_849175" data-name="Trazado 849175" d="M190.652,233.633h2.756a.6.6,0,0,1,.6.6v4.756a.6.6,0,0,1-.6.6h-2.756a.6.6,0,0,1-.6-.6v-4.756A.605.605,0,0,1,190.652,233.633Z" transform="translate(-190.048 -221.747)" fill="#ed74b7" fill-rule="evenodd"/>
          <path id="Trazado_849176" data-name="Trazado 849176" d="M207.869,233.633h1.208a.6.6,0,0,1,.6.6v4.756a.6.6,0,0,1-.6.6h-1.208a.6.6,0,0,0,.6-.6v-4.756A.6.6,0,0,0,207.869,233.633Z" transform="translate(-205.717 -221.747)" fill="#fd4755" fill-rule="evenodd"/>
        </g>
        <g id="Grupo_1098201" data-name="Grupo 1098201" transform="translate(28.585 20.556)">
          <path id="Trazado_849177" data-name="Trazado 849177" d="M402.937,351a9.063,9.063,0,0,1-1.529,1.684l4.158,4.076,1.583-1.631Z" transform="translate(-383.435 -333.72)" fill="#a79ba7" fill-rule="evenodd"/>
          <path id="Trazado_849178" data-name="Trazado 849178" d="M411.008,350.764a1.044,1.044,0,0,1-.453.607l4.13,4.1.506-.554Z" transform="translate(-391.478 -333.516)" fill="#837683" fill-rule="evenodd"/>
          <path id="Trazado_849179" data-name="Trazado 849179" d="M433.177,384.025l1.786-1.841a.821.821,0,0,0-.017-1.158l-4.948-4.8a.822.822,0,0,0-1.158.017l-1.786,1.841a.821.821,0,0,0,.018,1.158l4.948,4.8A.821.821,0,0,0,433.177,384.025Z" transform="translate(-405.781 -355.699)" fill="#f1ba84" fill-rule="evenodd"/>
          <path id="Trazado_849180" data-name="Trazado 849180" d="M445.564,376.224l4.948,4.8a.821.821,0,0,1,.017,1.158l-1.786,1.841a.816.816,0,0,1-.222.162.822.822,0,0,0,.954-.162l1.787-1.841a.822.822,0,0,0-.017-1.158l-4.948-4.8a.823.823,0,0,0-.936-.145A.811.811,0,0,1,445.564,376.224Z" transform="translate(-422.08 -355.699)" fill="#e3a76f" fill-rule="evenodd"/>
          <ellipse id="Elipse_11319" data-name="Elipse 11319" cx="9.011" cy="9.01" rx="9.011" ry="9.01" transform="translate(0 12.741) rotate(-45)" fill="#a79ba7"/>
          <path id="Trazado_849181" data-name="Trazado 849181" d="M354.971,238.82a9.011,9.011,0,1,1,0,18.021q-.22,0-.437-.011a9.01,9.01,0,0,0,0-18Q354.752,238.82,354.971,238.82Z" transform="translate(-342.222 -235.09)" fill="#837683" fill-rule="evenodd"/>
          <circle id="Elipse_11320" data-name="Elipse 11320" cx="6.453" cy="6.453" r="6.453" transform="translate(4.332 9.24) rotate(-22.514)" fill="#eceff1"/>
          <path id="Trazado_849182" data-name="Trazado 849182" d="M311.17,259.994c.147,0,.292.005.436.015a6.453,6.453,0,0,0,0,12.877c-.144.01-.29.015-.436.015a6.453,6.453,0,1,1,0-12.907Z" transform="translate(-298.42 -253.707)" fill="#d1d1d6" fill-rule="evenodd"/>
        </g>
      </g>
      <path id="Trazado_849183" data-name="Trazado 849183" d="M50.305,69.475A5.487,5.487,0,1,1,55.8,63.987,5.493,5.493,0,0,1,50.305,69.475Zm0-12.907a7.419,7.419,0,1,0,7.423,7.419,7.425,7.425,0,0,0-7.423-7.419ZM35.743,43.016a.966.966,0,0,1-.966.966H33.4a.966.966,0,1,1,0-1.933h1.381A.966.966,0,0,1,35.743,43.016Zm13.113,0a.965.965,0,0,1-.961.966H38.221a.966.966,0,1,1,0-1.933H47.9A.965.965,0,0,1,48.856,43.016Zm0-3.623a.965.965,0,0,1-.961.966H38.221a.966.966,0,1,1,0-1.932H47.9A.964.964,0,0,1,48.856,39.393Zm-13.113,0a.966.966,0,0,1-.966.966H33.4a.966.966,0,1,1,0-1.932h1.381A.965.965,0,0,1,35.743,39.393Zm-10.93-1.206a5.123,5.123,0,0,1,3.325,3.328H24.812Zm-.966,5.26H29.32a.975.975,0,0,0,.716-.317.959.959,0,0,0,.244-.742,7.062,7.062,0,0,0-6.343-6.342.969.969,0,0,0-1.057.962v5.473a.966.966,0,0,0,.966.966Zm-2.063,6.222A5.1,5.1,0,0,0,26.671,46.1H21.783a1.559,1.559,0,0,1-1.557-1.556V39.659a5.127,5.127,0,0,0,1.557,10.01Zm6.065-5.5h-5.69V38.483a.96.96,0,0,0-1.057-.961,7.056,7.056,0,1,0,7.708,7.7.986.986,0,0,0-.25-.742.962.962,0,0,0-.71-.317ZM32.992,59.34H30.962V55.308h2.029Zm.966-5.964H30a.966.966,0,0,0-.966.966v5.964a.965.965,0,0,0,.966.966h3.962a.965.965,0,0,0,.966-.966V54.341A.966.966,0,0,0,33.958,53.376Zm32,12.419V35.139a3.492,3.492,0,0,0-3.49-3.49H13.416a3.5,3.5,0,0,0-3.49,3.49V65.795a3.5,3.5,0,0,0,3.49,3.49H41.887a9.869,9.869,0,0,1-1.535-5.3c0-.093.006-.184.006-.276H12.688a.966.966,0,0,1-.966-.966V35.027a1.586,1.586,0,0,1,1.586-1.584H62.583a1.586,1.586,0,0,1,1.586,1.584V62.745a.966.966,0,0,1-.966.966h-2.95c0,.092.006.184.006.276a9.9,9.9,0,0,1-1.353,5l.3.293h3.263a3.492,3.492,0,0,0,3.49-3.49ZM64.328,78.753,59.6,74.172l1.574-1.622L65.9,77.131ZM42.285,63.987a8.02,8.02,0,1,0,8.02-8.021A8.03,8.03,0,0,0,42.285,63.987ZM40.352,48.621V59.34H38.323V48.621Zm7.361,5.758a9.82,9.82,0,0,0-2.029.8V51.324h2.029Zm7.361.872a9.969,9.969,0,0,0-2.035-.832v-11h2.035ZM57,56.631a9.9,9.9,0,0,1,3.007,5.148h2.228v-26.4H13.654v26.4H40.6c.04-.171.08-.34.131-.507H37.357a.966.966,0,0,1-.966-.966V47.655a.966.966,0,0,1,.966-.966h3.962a.966.966,0,0,1,.966.966V58.1a10.076,10.076,0,0,1,1.467-1.595v-6.15a.966.966,0,0,1,.966-.966H48.68a.966.966,0,0,1,.966.966v3.7c.216-.015.438-.024.659-.024.273,0,.54.014.8.035V42.456a.966.966,0,0,1,.966-.966h3.967a.965.965,0,0,1,.961.966V56.631Zm.762,13.943L59.121,71.9l-.233.24-1.353-1.315C57.609,70.74,57.689,70.658,57.763,70.574ZM46.088,76.365H29.8V71.217h13.67A9.994,9.994,0,0,0,46.088,73Zm10.584,4v2.07H19.219v-2.07c0-1.122,1.3-2.07,2.831-2.07H53.835C55.37,78.3,56.672,79.245,56.672,80.367Zm11.22-14.572V35.139a5.429,5.429,0,0,0-5.423-5.422H13.416a5.429,5.429,0,0,0-5.423,5.422V65.795a5.429,5.429,0,0,0,5.423,5.422H27.87v5.148H22.05c-2.626,0-4.763,1.8-4.763,4V83.4a.965.965,0,0,0,.966.966H57.638A.965.965,0,0,0,58.6,83.4V80.367c0-2.207-2.137-4-4.769-4H48.02V73.673a9.9,9.9,0,0,0,8.049-1.579l1.62,1.568a1.718,1.718,0,0,0-.08.54,1.788,1.788,0,0,0,.54,1.253l4.939,4.789a1.781,1.781,0,0,0,2.518-.038l1.785-1.837a1.788,1.788,0,0,0-.04-2.522l-4.775-4.634a5.428,5.428,0,0,0,5.314-5.42Z" transform="translate(-7.993 -29.717)" fill="#242222" fill-rule="evenodd"/>
    </g>
  </g>
</svg>
