<svg xmlns="http://www.w3.org/2000/svg" xmlns:xlink="http://www.w3.org/1999/xlink" width="118.006" height="118.006" viewBox="0 0 118.006 118.006">
  <defs>
    <filter id="Trazado_849170" x="0" y="0" width="118.006" height="118.006" filterUnits="userSpaceOnUse">
      <feOffset dy="3" input="SourceAlpha"/>
      <feGaussianBlur stdDeviation="3" result="blur"/>
      <feFlood flood-opacity="0.161"/>
      <feComposite operator="in" in2="blur"/>
      <feComposite in="SourceGraphic"/>
    </filter>
    <filter id="Elipse_9683" x="5.085" y="5.933" width="106.141" height="106.141" filterUnits="userSpaceOnUse">
      <feOffset dy="3" input="SourceAlpha"/>
      <feGaussianBlur stdDeviation="3" result="blur-2"/>
      <feFlood flood-opacity="0.161"/>
      <feComposite operator="in" in2="blur-2"/>
      <feComposite in="SourceGraphic"/>
    </filter>
  </defs>
  <g id="Grupo_1099126" data-name="Grupo 1099126" transform="translate(-1080 -3956)">
    <g id="Grupo_1099125" data-name="Grupo 1099125" transform="translate(0.006 0.172)">
      <g transform="matrix(1, 0, 0, 1, 1079.99, 3955.83)" filter="url(#Trazado_849170)">
        <path id="Trazado_849170-2" data-name="Trazado 849170" d="M50,0A50,50,0,1,1,0,50,50,50,0,0,1,50,0Z" transform="translate(9 6)" fill="#fff"/>
      </g>
      <g transform="matrix(1, 0, 0, 1, 1079.99, 3955.83)" filter="url(#Elipse_9683)">
        <g id="Elipse_9683-2" data-name="Elipse 9683" transform="translate(14.09 11.93)" fill="#faf682" stroke="#f0e929" stroke-width="5">
          <circle cx="44.07" cy="44.07" r="44.07" stroke="none"/>
          <circle cx="44.07" cy="44.07" r="41.57" fill="none"/>
        </g>
      </g>
    </g>
    <g id="Grupo_1073691" data-name="Grupo 1073691" transform="translate(3548.641 12029.334)">
      <path id="path7001" d="M-196.8-330.837l-7.988,9.184a4.374,4.374,0,0,1-3.3,1.506,4.375,4.375,0,0,1-3.3-1.506l-7.988-9.184a4.421,4.421,0,0,1,.419-6.206c2.972-2.642,6.488.772,6.488.772V-370.6h8.763v34.333s3.524-3.45,6.488-.772a4.434,4.434,0,0,1,.419,6.206" transform="translate(-2201.635 -7662.008)" fill="#b0f0ef"/>
      <path id="path7005" d="M-72.906-147.683a36.151,36.151,0,0,1-8.763.309v-18.061h8.763Z" transform="translate(-2332.437 -7867.177)" fill="#76e7e7"/>
      <path id="path7009" d="M-263.619-132.315a15.874,15.874,0,0,0-15.843-15.9,15.874,15.874,0,0,0-15.844,15.9,15.874,15.874,0,0,0,15.844,15.9,15.874,15.874,0,0,0,15.843-15.9" transform="translate(-2130.262 -7905.041)" fill="#ff8a98"/>
      <path id="path7013" d="M-68.076-132.315a15.9,15.9,0,0,1,11.755-15.368,15.83,15.83,0,0,0-4.094-.536,15.874,15.874,0,0,0-15.843,15.9,15.874,15.874,0,0,0,15.843,15.9,15.827,15.827,0,0,0,4.094-.536,15.9,15.9,0,0,1-11.755-15.368" transform="translate(-2349.309 -7905.041)" fill="#fd5c6f"/>
      <path id="path7017" d="M0-22.885v.01a2.751,2.751,0,0,0,2.751,2.751h12.5A2.751,2.751,0,0,0,18-22.875v-.01a2.751,2.751,0,0,0-2.751-2.751H2.751A2.751,2.751,0,0,0,0-22.885" transform="translate(-2418.723 -8014.477)" fill="#fffcdc"/>
      <path id="path7025" d="M-152.576,31.979a5.447,5.447,0,0,1-4.11-1.874l-7.988-9.184a5.514,5.514,0,0,1,.516-7.712,5.165,5.165,0,0,1,6.128-.5V-4.376a1.073,1.073,0,0,1,1.073-1.073,1.073,1.073,0,0,1,1.073,1.073V14.782a1.073,1.073,0,0,1-.655.988,1.073,1.073,0,0,1-1.165-.218c-.113-.108-2.845-2.681-5.028-.74a3.361,3.361,0,0,0-.322,4.7l7.988,9.184a3.3,3.3,0,0,0,2.491,1.137,3.3,3.3,0,0,0,2.491-1.137l7.988-9.184a3.345,3.345,0,0,0-.328-4.706c-2.19-1.979-4.9.631-5.018.743a1.073,1.073,0,0,1-1.167.222,1.073,1.073,0,0,1-.657-.989V-8.927A1.073,1.073,0,0,1-148.195-10a1.073,1.073,0,0,1,1.073,1.073V12.7a5.121,5.121,0,0,1,6.135.513,5.476,5.476,0,0,1,.509,7.707l-7.988,9.184A5.447,5.447,0,0,1-152.576,31.979Z" transform="translate(-2257.146 -8013.061)"/>
      <path id="path7037" d="M-288.389-158.22a16.966,16.966,0,0,1,16.917,16.977,16.966,16.966,0,0,1-16.917,16.977,16.966,16.966,0,0,1-16.917-16.977A16.966,16.966,0,0,1-288.389-158.22Zm0,31.809a14.818,14.818,0,0,0,14.77-14.831,14.818,14.818,0,0,0-14.77-14.831,14.818,14.818,0,0,0-14.77,14.831A14.818,14.818,0,0,0-288.389-126.411Z" transform="translate(-2121.335 -7896.114)"/>
      <path id="path7041" d="M-135.771-53.709a1.073,1.073,0,0,1-1.073-1.073,1.073,1.073,0,0,1,1.073-1.073,1.68,1.68,0,0,0,1.678-1.678,1.682,1.682,0,0,0-1.678-1.688h-12.5a1.679,1.679,0,0,0-1.677,1.678,1.682,1.682,0,0,0,1.677,1.688h8.032a1.073,1.073,0,0,1,1.073,1.073,1.073,1.073,0,0,1-1.073,1.073h-8.032a3.828,3.828,0,0,1-3.824-3.824,3.83,3.83,0,0,1,3.824-3.834h12.5a3.828,3.828,0,0,1,3.824,3.824A3.83,3.83,0,0,1-135.771-53.709Z" transform="translate(-2267.706 -7979.818)"/>
    </g>
  </g>
</svg>
