<svg xmlns="http://www.w3.org/2000/svg" width="61" height="61" viewBox="0 0 61 61">
  <g id="Grupo_1073720" data-name="Grupo 1073720" transform="translate(-309 -7495)">
    <g id="Grupo_1073615" data-name="Grupo 1073615" transform="translate(-24 6567)">
      <path id="Trazado_872940" data-name="Trazado 872940" d="M30.5,0A30.5,30.5,0,1,1,0,30.5,30.5,30.5,0,0,1,30.5,0Z" transform="translate(333 928)" fill="#efc43f"/>
    </g>
    <g id="escudo-seguro" transform="translate(280.319 7501)">
      <g id="Grupo_1073718" data-name="Grupo 1073718" transform="translate(38.733 1.051)">
        <path id="Trazado_824203" data-name="Trazado 824203" d="M79.982,29.908,67.017,42.872a2.368,2.368,0,0,1-3.349,0l-6.21-6.21a2.368,2.368,0,1,1,3.349-3.349l4.536,4.536,11.29-11.29a2.368,2.368,0,0,1,3.349,3.349ZM68.719,10.768a82.221,82.221,0,0,1-20.267,8.6V30.11c0,20.161,17.436,28.552,20.267,28.552S88.988,50.271,88.988,30.11V19.365A84.788,84.788,0,0,1,68.719,10.768Z" transform="translate(-48.452 -10.768)" fill="#85bf4f"/>
        <path id="Trazado_824204" data-name="Trazado 824204" d="M143.828,182.373l12.965-12.964a2.368,2.368,0,0,0-3.349-3.349l-11.29,11.29-4.536-4.536a2.368,2.368,0,0,0-3.349,3.349l6.21,6.21A2.368,2.368,0,0,0,143.828,182.373Z" transform="translate(-125.263 -150.269)" fill="#ffcd85"/>
      </g>
      <g id="Grupo_1073719" data-name="Grupo 1073719" transform="translate(37.681 0)">
        <path id="Trazado_824205" data-name="Trazado 824205" d="M79.546,8.633A83.169,83.169,0,0,1,59.535.146a1.051,1.051,0,0,0-1.069,0A80.892,80.892,0,0,1,38.455,8.633a1.052,1.052,0,0,0-.774,1.014V20.394a30.916,30.916,0,0,0,9.388,22.588C51.68,47.5,57.051,50,59,50s7.321-2.5,11.931-7.016A30.916,30.916,0,0,0,80.32,20.394V9.648A1.052,1.052,0,0,0,79.546,8.633Zm-1.33,11.761A28.853,28.853,0,0,1,69.46,41.479C64.926,45.922,60.078,47.894,59,47.894s-5.925-1.973-10.46-6.415a28.854,28.854,0,0,1-8.757-21.085V10.446A82.83,82.83,0,0,0,59,2.27a85.451,85.451,0,0,0,19.216,8.175Z" transform="translate(-37.681 0)" fill="#000003"/>
        <path id="Trazado_824206" data-name="Trazado 824206" d="M88.16,99.61a1.052,1.052,0,0,0-1.364-.593c-1.879.74-3.807,1.422-5.732,2.025a1.052,1.052,0,0,0-.737,1v4.061a1.052,1.052,0,0,0,2.1,0v-3.293c1.726-.559,3.451-1.176,5.136-1.841A1.051,1.051,0,0,0,88.16,99.61Z" transform="translate(-76.163 -89.281)" fill="#000003"/>
        <path id="Trazado_824207" data-name="Trazado 824207" d="M171.257,88.315a1.052,1.052,0,0,0,.422-.088l.019-.008a1.052,1.052,0,1,0-.849-1.924l-.017.007a1.051,1.051,0,0,0,.425,2.014Z" transform="translate(-157.261 -77.787)" fill="#000003"/>
        <path id="Trazado_824208" data-name="Trazado 824208" d="M311.24,345.7a1.052,1.052,0,0,0-1.456.305,25.593,25.593,0,0,1-3.022,3.775,26.855,26.855,0,0,1-3.017,2.684,1.052,1.052,0,1,0,1.275,1.673,29,29,0,0,0,3.254-2.895,27.674,27.674,0,0,0,3.271-4.087A1.052,1.052,0,0,0,311.24,345.7Z" transform="translate(-277.389 -311.786)" fill="#000003"/>
        <path id="Trazado_824209" data-name="Trazado 824209" d="M277.149,432.11l-.06.036a1.052,1.052,0,1,0,1.054,1.82l.07-.041a1.052,1.052,0,1,0-1.063-1.815Z" transform="translate(-253.236 -389.783)" fill="#000003"/>
        <path id="Trazado_824210" data-name="Trazado 824210" d="M128.658,162.355a3.42,3.42,0,0,0-4.837,4.837l6.21,6.21a3.421,3.421,0,0,0,4.837,0l12.964-12.965A3.42,3.42,0,0,0,143,155.6L132.45,166.146Zm15.825-5.267a1.317,1.317,0,1,1,1.862,1.862l-12.964,12.964a1.318,1.318,0,0,1-1.862,0l-6.21-6.21a1.317,1.317,0,0,1,1.862-1.862l4.535,4.536a1.052,1.052,0,0,0,1.487,0Z" transform="translate(-114.507 -139.502)" fill="#000003"/>
      </g>
    </g>
  </g>
</svg>
