<svg xmlns="http://www.w3.org/2000/svg" xmlns:xlink="http://www.w3.org/1999/xlink" width="122" height="123.001" viewBox="0 0 122 123.001">
  <defs>
    <filter id="Elipse_9685" x="0" y="1.001" width="122" height="122" filterUnits="userSpaceOnUse">
      <feOffset dy="3" input="SourceAlpha"/>
      <feGaussianBlur stdDeviation="3" result="blur"/>
      <feFlood flood-opacity="0.161"/>
      <feComposite operator="in" in2="blur"/>
      <feComposite in="SourceGraphic"/>
    </filter>
  </defs>
  <g id="Grupo_1099144" data-name="Grupo 1099144" transform="translate(-740 -11245)">
    <g id="Grupo_1099140" data-name="Grupo 1099140" transform="translate(1 1497.473)">
      <circle id="Elipse_11310" data-name="Elipse 11310" cx="59" cy="59" r="59" transform="translate(741 9747.527)" fill="#fff"/>
      <g id="Grupo_1098210" data-name="Grupo 1098210" transform="translate(0 208.528)">
        <g transform="matrix(1, 0, 0, 1, 739, 9539)" filter="url(#Elipse_9685)">
          <g id="Elipse_9685-2" data-name="Elipse 9685" transform="translate(9 7)" fill="#f2e5fd" stroke="#a854f3" stroke-width="5">
            <circle cx="52" cy="52" r="52" stroke="none"/>
            <circle cx="52" cy="52" r="49.5" fill="none"/>
          </g>
        </g>
      </g>
    </g>
    <g id="escritorio" transform="translate(774 11258.701)">
      <g id="Grupo_1073759" data-name="Grupo 1073759" transform="translate(0 20.299)">
        <rect id="Rectángulo_382969" data-name="Rectángulo 382969" width="12.652" height="5.752" transform="translate(20.665 36.428)" fill="#9facba"/>
        <rect id="Rectángulo_382970" data-name="Rectángulo 382970" width="4.217" height="5.752" transform="translate(20.665 36.428)" fill="#8d9ca8"/>
        <path id="Rectángulo_382971" data-name="Rectángulo 382971" d="M-6.709-7.5H5.943a.791.791,0,0,1,.791.791V-.957a.791.791,0,0,1-.791.791H-6.709A.791.791,0,0,1-7.5-.957V-6.709A.791.791,0,0,1-6.709-7.5ZM5.152-5.918H-5.918v4.17H5.152Z" transform="translate(27.375 43.137)"/>
        <path id="Trazado_824634" data-name="Trazado 824634" d="M7.5,315.384a2.109,2.109,0,0,0,2.109,2.109H57.793a2.109,2.109,0,0,0,2.109-2.109V311.8H7.5Z" transform="translate(-6.709 -281.064)" fill="#c5d3dd"/>
        <path id="Trazado_824635" data-name="Trazado 824635" d="M11.77,315.384V311.8H7.5v3.585a2.109,2.109,0,0,0,2.109,2.109h4.27A2.109,2.109,0,0,1,11.77,315.384Z" transform="translate(-6.709 -281.064)" fill="#b6c4cf"/>
        <path id="Trazado_824636" data-name="Trazado 824636" d="M51.084,311.574H47.552a.791.791,0,0,1,0-1.582h3.532a1.319,1.319,0,0,0,1.318-1.318v-2.794H1.582v2.794A1.319,1.319,0,0,0,2.9,309.993H43.861a.791.791,0,0,1,0,1.582H2.9a2.9,2.9,0,0,1-2.9-2.9V305.09a.791.791,0,0,1,.791-.791h52.4a.791.791,0,0,1,.791.791v3.585A2.9,2.9,0,0,1,51.084,311.574Z" transform="translate(0 -274.355)"/>
        <path id="Línea_256" data-name="Línea 256" d="M24.078-5.918H-6.709A.791.791,0,0,1-7.5-6.709.791.791,0,0,1-6.709-7.5H24.078a.791.791,0,0,1,.791.791A.791.791,0,0,1,24.078-5.918Z" transform="translate(18.307 48.889)"/>
        <rect id="Rectángulo_382972" data-name="Rectángulo 382972" width="52.402" height="25.914" transform="translate(0.791 4.821)" fill="#dff6fd"/>
        <rect id="Rectángulo_382973" data-name="Rectángulo 382973" width="4.27" height="25.914" transform="translate(0.791 4.821)" fill="#c8effe"/>
        <path id="Rectángulo_382974" data-name="Rectángulo 382974" d="M-6.709-7.5h52.4a.791.791,0,0,1,.791.791V19.2a.791.791,0,0,1-.791.791h-52.4A.791.791,0,0,1-7.5,19.2V-6.709A.791.791,0,0,1-6.709-7.5ZM44.9-5.918H-5.918V18.414H44.9Z" transform="translate(7.5 11.53)"/>
        <path id="Trazado_824637" data-name="Trazado 824637" d="M57.793,27.8H9.609A2.109,2.109,0,0,0,7.5,29.908v1.921H59.9V29.908A2.109,2.109,0,0,0,57.793,27.8Z" transform="translate(-6.709 -27.008)" fill="#6bd9e7"/>
        <path id="Trazado_824638" data-name="Trazado 824638" d="M53.193,25.91H.791A.791.791,0,0,1,0,25.12V23.2a2.9,2.9,0,0,1,2.9-2.9h9.647a.791.791,0,0,1,0,1.582H2.9A1.319,1.319,0,0,0,1.582,23.2v1.13H52.4V23.2a1.319,1.319,0,0,0-1.318-1.318H16.237a.791.791,0,1,1,0-1.582H51.084a2.9,2.9,0,0,1,2.9,2.9V25.12A.791.791,0,0,1,53.193,25.91Z" transform="translate(0 -20.299)"/>
        <path id="Trazado_824639" data-name="Trazado 824639" d="M9.609,27.8A2.109,2.109,0,0,0,7.5,29.908v1.921h8.444V27.8Z" transform="translate(-6.709 -27.008)" fill="#6bd9e7"/>
        <path id="Trazado_824640" data-name="Trazado 824640" d="M13.879,27.8H9.609A2.109,2.109,0,0,0,7.5,29.908v1.921h4.27V29.908A2.109,2.109,0,0,1,13.879,27.8Z" transform="translate(-6.709 -27.008)" fill="#2ed1e2"/>
        <path id="Trazado_824641" data-name="Trazado 824641" d="M2.9,20.3H9.235a.791.791,0,0,1,.791.791v4.03a.791.791,0,0,1-.791.791H.791A.791.791,0,0,1,0,25.12V23.2A2.9,2.9,0,0,1,2.9,20.3Zm5.544,1.582H2.9A1.319,1.319,0,0,0,1.582,23.2v1.13H8.444Z" transform="translate(0 -20.299)"/>
        <g id="Grupo_1073758" data-name="Grupo 1073758" transform="translate(4.719 7.697)">
          <path id="Trazado_824642" data-name="Trazado 824642" d="M358.462,100.8v18.378h10.152a.527.527,0,0,0,.527-.527V101.326a.527.527,0,0,0-.527-.527Z" transform="translate(-325.386 -100.008)" fill="#fea613"/>
          <rect id="Rectángulo_382975" data-name="Rectángulo 382975" width="3.536" height="18.378" transform="translate(33.076 0.791)" fill="#fe9901"/>
          <path id="Trazado_824643" data-name="Trazado 824643" d="M351.753,93.3H361.9a1.319,1.319,0,0,1,1.318,1.318V111.94a1.319,1.319,0,0,1-1.318,1.318H351.753a.791.791,0,0,1-.791-.791V94.09A.791.791,0,0,1,351.753,93.3Zm9.888,1.582h-9.1v16.8h9.1Z" transform="translate(-318.677 -93.299)"/>
          <path id="Trazado_824644" data-name="Trazado 824644" d="M387.905,136.134v-5.576a.316.316,0,0,1,.316-.316h3.838a.316.316,0,0,1,.316.316v5.576a.316.316,0,0,1-.316.316h-3.838A.316.316,0,0,1,387.905,136.134Z" transform="translate(-351.725 -126.347)" fill="#fff"/>
          <path id="Trazado_824644_-_Contorno" data-name="Trazado 824644 - Contorno" d="M385.35,130.532h-3.838a1.108,1.108,0,0,1-1.107-1.107v-5.576a1.108,1.108,0,0,1,1.107-1.107h3.838a1.108,1.108,0,0,1,1.107,1.107v5.576A1.108,1.108,0,0,1,385.35,130.532Zm-3.363-1.582h2.889v-4.627h-2.889Z" transform="translate(-345.015 -119.638)"/>
          <g id="Grupo_1073756" data-name="Grupo 1073756" transform="translate(0.791 0.791)">
            <path id="Trazado_824645" data-name="Trazado 824645" d="M55.452,104.524H52.781a.527.527,0,0,1-.527-.527v-2.671a.527.527,0,0,1,.527-.527h2.671a.527.527,0,0,1,.527.527V104A.527.527,0,0,1,55.452,104.524Z" transform="translate(-52.254 -100.799)" fill="#fed402"/>
            <path id="Trazado_824646" data-name="Trazado 824646" d="M54.02,104v-2.671a.527.527,0,0,1,.527-.527H52.781a.527.527,0,0,0-.527.527V104a.527.527,0,0,0,.527.527h1.766A.527.527,0,0,1,54.02,104Z" transform="translate(-52.254 -100.799)" fill="#fac600"/>
            <path id="Trazado_824647" data-name="Trazado 824647" d="M55.452,174.01H52.781a.527.527,0,0,1-.527-.527v-2.671a.527.527,0,0,1,.527-.527h2.671a.527.527,0,0,1,.527.527v2.671A.527.527,0,0,1,55.452,174.01Z" transform="translate(-52.254 -162.959)" fill="#00f2a6"/>
            <path id="Trazado_824648" data-name="Trazado 824648" d="M54.02,173.482v-2.671a.527.527,0,0,1,.527-.527H52.781a.527.527,0,0,0-.527.527v2.671a.527.527,0,0,0,.527.527h1.766A.527.527,0,0,1,54.02,173.482Z" transform="translate(-52.254 -162.958)" fill="#05e39c"/>
            <path id="Trazado_824649" data-name="Trazado 824649" d="M55.452,243.5H52.781a.527.527,0,0,1-.527-.527V240.3a.527.527,0,0,1,.527-.527h2.671a.527.527,0,0,1,.527.527v2.671A.527.527,0,0,1,55.452,243.5Z" transform="translate(-52.254 -225.117)" fill="#6bd9e7"/>
            <path id="Trazado_824650" data-name="Trazado 824650" d="M54.02,242.968V240.3a.527.527,0,0,1,.527-.527H52.781a.527.527,0,0,0-.527.527v2.671a.527.527,0,0,0,.527.527h1.766A.527.527,0,0,1,54.02,242.968Z" transform="translate(-52.254 -225.117)" fill="#2ed1e2"/>
          </g>
          <g id="Grupo_1073757" data-name="Grupo 1073757">
            <path id="Trazado_824651" data-name="Trazado 824651" d="M48.743,98.606H46.072a1.319,1.319,0,0,1-1.318-1.318V94.617A1.319,1.319,0,0,1,46.072,93.3h2.671a1.319,1.319,0,0,1,1.318,1.318v2.671A1.32,1.32,0,0,1,48.743,98.606Zm-2.407-1.582h2.144V94.881H46.336Z" transform="translate(-44.754 -93.299)"/>
            <path id="Trazado_824652" data-name="Trazado 824652" d="M48.743,168.092H46.072a1.319,1.319,0,0,1-1.318-1.318V164.1a1.319,1.319,0,0,1,1.318-1.318h2.671a1.319,1.319,0,0,1,1.318,1.318v2.671A1.32,1.32,0,0,1,48.743,168.092Zm-2.407-1.582h2.144v-2.144H46.336Z" transform="translate(-44.754 -155.459)"/>
            <path id="Trazado_824653" data-name="Trazado 824653" d="M48.743,237.577H46.072a1.319,1.319,0,0,1-1.318-1.318v-2.671a1.319,1.319,0,0,1,1.318-1.318h2.671a1.319,1.319,0,0,1,1.318,1.318v2.671A1.32,1.32,0,0,1,48.743,237.577ZM46.336,236h2.144v-2.144H46.336Z" transform="translate(-44.754 -217.617)"/>
          </g>
          <path id="Trazado_824654" data-name="Trazado 824654" d="M156.181,119.177H132.866a.527.527,0,0,1-.527-.527V101.326a.527.527,0,0,1,.527-.527h23.314Z" transform="translate(-123.104 -100.008)" fill="#fff"/>
          <path id="Trazado_824655" data-name="Trazado 824655" d="M149.471,113.258H126.157a1.319,1.319,0,0,1-1.318-1.318V94.617a1.319,1.319,0,0,1,1.318-1.318h23.314a.791.791,0,0,1,.791.791v18.378A.791.791,0,0,1,149.471,113.258Zm-23.051-1.582h22.26v-16.8h-22.26Z" transform="translate(-116.395 -93.299)"/>
          <path id="Línea_257" data-name="Línea 257" d="M6.627-5.918H-6.709A.791.791,0,0,1-7.5-6.709.791.791,0,0,1-6.709-7.5H6.627a.791.791,0,0,1,.791.791A.791.791,0,0,1,6.627-5.918Z" transform="translate(22.972 15.447)"/>
          <path id="Línea_258" data-name="Línea 258" d="M-5.794-5.918h-.916A.791.791,0,0,1-7.5-6.709.791.791,0,0,1-6.709-7.5h.916A.791.791,0,0,1-5-6.709.791.791,0,0,1-5.794-5.918Z" transform="translate(19.421 15.447)"/>
          <path id="Línea_259" data-name="Línea 259" d="M10.179-5.918H-6.709A.791.791,0,0,1-7.5-6.709.791.791,0,0,1-6.709-7.5H10.179a.791.791,0,0,1,.791.791A.791.791,0,0,1,10.179-5.918Z" transform="translate(19.421 18.676)"/>
          <path id="Línea_260" data-name="Línea 260" d="M2.231-5.918H-6.709A.791.791,0,0,1-7.5-6.709.791.791,0,0,1-6.709-7.5H2.231a.791.791,0,0,1,.791.791A.791.791,0,0,1,2.231-5.918Z" transform="translate(19.421 21.904)"/>
          <path id="Trazado_824656" data-name="Trazado 824656" d="M156.181,105.269H132.339v-3.943a.527.527,0,0,1,.527-.527h23.314Z" transform="translate(-123.104 -100.008)" fill="#4f66d0"/>
          <path id="Trazado_824657" data-name="Trazado 824657" d="M149.471,99.351H125.63a.791.791,0,0,1-.791-.791V94.617a1.319,1.319,0,0,1,1.318-1.318h23.314a.791.791,0,0,1,.791.791v4.47A.791.791,0,0,1,149.471,99.351Zm-23.051-1.582h22.26V94.881h-22.26Z" transform="translate(-116.395 -93.299)"/>
          <path id="Trazado_824658" data-name="Trazado 824658" d="M136.809,105.269h-4.47v-3.943a.527.527,0,0,1,.527-.527h3.943Z" transform="translate(-123.104 -100.008)" fill="#314dc9"/>
          <path id="Trazado_824659" data-name="Trazado 824659" d="M130.1,99.351h-4.47a.791.791,0,0,1-.791-.791V94.617a1.319,1.319,0,0,1,1.318-1.318H130.1a.791.791,0,0,1,.791.791v4.47A.791.791,0,0,1,130.1,99.351Zm-3.68-1.582h2.889V94.881h-2.889Z" transform="translate(-116.395 -93.299)"/>
          <path id="Línea_261" data-name="Línea 261" d="M-2.239-5.918h-4.47A.791.791,0,0,1-7.5-6.709.791.791,0,0,1-6.709-7.5h4.47a.791.791,0,0,1,.791.791A.791.791,0,0,1-2.239-5.918Z" transform="translate(42.89 22.773)"/>
          <path id="Línea_262" data-name="Línea 262" d="M-2.239-5.918h-4.47A.791.791,0,0,1-7.5-6.709.791.791,0,0,1-6.709-7.5h4.47a.791.791,0,0,1,.791.791A.791.791,0,0,1-2.239-5.918Z" transform="translate(42.89 19.793)"/>
        </g>
      </g>
      <path id="Trazado_824660" data-name="Trazado 824660" d="M46.037,457H8.027a.527.527,0,0,1-.527-.527v-2.151a.527.527,0,0,1,.527-.527h38.01a.527.527,0,0,1,.527.527v2.151A.527.527,0,0,1,46.037,457Z" transform="translate(-6.709 -387.794)" fill="#c5d3dd"/>
      <path id="Trazado_824661" data-name="Trazado 824661" d="M12.877,456.477v-2.151a.527.527,0,0,1,.527-.527H8.027a.527.527,0,0,0-.527.527v2.151a.527.527,0,0,0,.527.527H13.4A.527.527,0,0,1,12.877,456.477Z" transform="translate(-6.709 -387.794)" fill="#b6c4cf"/>
      <path id="Trazado_824662" data-name="Trazado 824662" d="M39.328,451.086H1.318A1.319,1.319,0,0,1,0,449.768v-2.151A1.319,1.319,0,0,1,1.318,446.3H9.384a.791.791,0,1,1,0,1.582h-7.8V449.5H39.064v-1.624H13.074a.791.791,0,1,1,0-1.582H39.328a1.319,1.319,0,0,1,1.318,1.318v2.151A1.319,1.319,0,0,1,39.328,451.086Z" transform="translate(0 -381.084)"/>
      <path id="Trazado_824663" data-name="Trazado 824663" d="M419.517,439.314h-9.489a.527.527,0,0,1-.527-.527V437.6a3.582,3.582,0,0,1,3.582-3.582h2.853a3.582,3.582,0,0,1,3.582,3.582v1.709Z" transform="translate(-366.324 -370.103)" fill="#c5d3dd"/>
      <path id="Trazado_824664" data-name="Trazado 824664" d="M412.926,438.786V437.6a3.581,3.581,0,0,1,3.295-3.569c-.095-.007-.19-.013-.287-.013h-2.853A3.582,3.582,0,0,0,409.5,437.6v1.182a.527.527,0,0,0,.527.527h3.427A.527.527,0,0,1,412.926,438.786Z" transform="translate(-366.323 -370.103)" fill="#b6c4cf"/>
      <path id="Trazado_824665" data-name="Trazado 824665" d="M412.807,433.4h-9.489A1.319,1.319,0,0,1,402,432.077V430.9a4.377,4.377,0,0,1,4.373-4.372h2.853A4.377,4.377,0,0,1,413.6,430.9V432.6A.791.791,0,0,1,412.807,433.4Zm-9.226-1.581h8.435V430.9a2.794,2.794,0,0,0-2.791-2.791h-2.853a2.794,2.794,0,0,0-2.791,2.791Z" transform="translate(-359.615 -363.393)"/>
    </g>
  </g>
</svg>
