<svg xmlns="http://www.w3.org/2000/svg" width="82" height="84" viewBox="0 0 82 84">
  <g id="Grupo_1073783" data-name="Grupo 1073783" transform="translate(-203 -12094)">
    <rect id="Rectángulo_382875" data-name="Rectángulo 382875" width="82" height="84" rx="8" transform="translate(203 12094)" fill="#f0c52c"/>
    <g id="etapas" transform="translate(144 12102)">
      <path id="Trazado_824694" data-name="Trazado 824694" d="M209.619,206.289H176V188h33.619Z" transform="translate(-86.552 -162.719)" fill="#dfedff"/>
      <path id="Trazado_824695" data-name="Trazado 824695" d="M200.964,198.978H190.2a1.345,1.345,0,1,1,0-2.69h9.419v-15.6H168.69v15.6h9.4a1.345,1.345,0,0,1,0,2.69H167.345A1.345,1.345,0,0,1,166,197.633V179.345A1.345,1.345,0,0,1,167.345,178h33.619a1.345,1.345,0,0,1,1.345,1.345v18.289A1.345,1.345,0,0,1,200.964,198.978Z" transform="translate(-77.897 -154.063)"/>
      <path id="Línea_256" data-name="Línea 256" transform="translate(106.285 43.57)"/>
      <rect id="Rectángulo_382976" data-name="Rectángulo 382976" width="33.894" height="18.958" transform="translate(89.213 1.064)" fill="#faf7f5"/>
      <path id="Rectángulo_382976_-_Contorno" data-name="Rectángulo 382976 - Contorno" d="M-8.655-10H24.964a1.345,1.345,0,0,1,1.345,1.345V9.9a1.345,1.345,0,0,1-1.345,1.345H-8.655A1.345,1.345,0,0,1-10,9.9V-8.655A1.345,1.345,0,0,1-8.655-10ZM23.619-7.31H-7.31V8.558H23.619Z" transform="translate(98.103 10)"/>
      <rect id="Rectángulo_382977" data-name="Rectángulo 382977" width="33.894" height="18.958" transform="translate(89.213 48.745)" fill="#a0c8ff"/>
      <path id="Rectángulo_382977_-_Contorno" data-name="Rectángulo 382977 - Contorno" d="M-8.655-10H24.964a1.345,1.345,0,0,1,1.345,1.345V9.9a1.345,1.345,0,0,1-1.345,1.345H-8.655A1.345,1.345,0,0,1-10,9.9V-8.655A1.345,1.345,0,0,1-8.655-10ZM23.619-7.31H-7.31V8.558H23.619Z" transform="translate(98.103 57.604)"/>
      <circle id="Elipse_9783" data-name="Elipse 9783" cx="3.447" cy="3.447" r="3.447" transform="translate(77.149 30.936)" fill="#ffe6b4"/>
      <path id="Elipse_9783_-_Contorno" data-name="Elipse 9783 - Contorno" d="M-5.293-10A4.712,4.712,0,0,1-.587-5.293,4.712,4.712,0,0,1-5.293-.587,4.712,4.712,0,0,1-10-5.293,4.712,4.712,0,0,1-5.293-10Zm0,6.724A2.019,2.019,0,0,0-3.276-5.293,2.019,2.019,0,0,0-5.293-7.31,2.019,2.019,0,0,0-7.31-5.293,2.019,2.019,0,0,0-5.293-3.276Z" transform="translate(86 39.719)"/>
      <ellipse id="Elipse_9784" data-name="Elipse 9784" cx="3.447" cy="3.16" rx="3.447" ry="3.16" transform="translate(77.149 7.383)" fill="#ff9c9b"/>
      <path id="Elipse_9784_-_Contorno" data-name="Elipse 9784 - Contorno" d="M-5.293-10A4.712,4.712,0,0,1-.587-5.293,4.712,4.712,0,0,1-5.293-.587,4.712,4.712,0,0,1-10-5.293,4.712,4.712,0,0,1-5.293-10Zm0,6.724A2.019,2.019,0,0,0-3.276-5.293,2.019,2.019,0,0,0-5.293-7.31,2.019,2.019,0,0,0-7.31-5.293,2.019,2.019,0,0,0-5.293-3.276Z" transform="translate(86 15.917)"/>
      <ellipse id="Elipse_9785" data-name="Elipse 9785" cx="3.447" cy="3.16" rx="3.447" ry="3.16" transform="translate(77.149 55.064)" fill="#9de3d1"/>
      <path id="Elipse_9785_-_Contorno" data-name="Elipse 9785 - Contorno" d="M-5.293-10A4.712,4.712,0,0,1-.587-5.293,4.712,4.712,0,0,1-5.293-.587,4.712,4.712,0,0,1-10-5.293,4.712,4.712,0,0,1-5.293-10Zm0,6.724A2.019,2.019,0,0,0-3.276-5.293,2.019,2.019,0,0,0-5.293-7.31,2.019,2.019,0,0,0-7.31-5.293,2.019,2.019,0,0,0-5.293-3.276Z" transform="translate(86 63.521)"/>
      <path id="Línea_257" data-name="Línea 257" d="M8.154-7.31H8.006A1.345,1.345,0,0,1,6.662-8.655,1.345,1.345,0,0,1,8.006-10h.148A1.345,1.345,0,0,1,9.5-8.655,1.345,1.345,0,0,1,8.154-7.31Zm-6.2,0H-8.655A1.345,1.345,0,0,1-10-8.655,1.345,1.345,0,0,1-8.655-10H1.955A1.345,1.345,0,0,1,3.3-8.655,1.345,1.345,0,0,1,1.955-7.31Z" transform="translate(103.482 21.968)"/>
      <path id="Línea_258" data-name="Línea 258" d="M14.206-7.31H5.868A1.345,1.345,0,0,1,4.523-8.655,1.345,1.345,0,0,1,5.868-10h8.337A1.345,1.345,0,0,1,15.55-8.655,1.345,1.345,0,0,1,14.206-7.31Zm-14.389,0H-8.655A1.345,1.345,0,0,1-10-8.655,1.345,1.345,0,0,1-8.655-10H-.183A1.345,1.345,0,0,1,1.161-8.655,1.345,1.345,0,0,1-.183-7.31Z" transform="translate(103.482 16.589)"/>
      <path id="Línea_259" data-name="Línea 259" d="M8.154-7.31H8.006A1.345,1.345,0,0,1,6.662-8.655,1.345,1.345,0,0,1,8.006-10h.148A1.345,1.345,0,0,1,9.5-8.655,1.345,1.345,0,0,1,8.154-7.31Zm-6.2,0H-8.655A1.345,1.345,0,0,1-10-8.655,1.345,1.345,0,0,1-8.655-10H1.955A1.345,1.345,0,0,1,3.3-8.655,1.345,1.345,0,0,1,1.955-7.31Z" transform="translate(103.482 45.771)"/>
      <path id="Línea_260" data-name="Línea 260" d="M14.206-7.31H5.868A1.345,1.345,0,0,1,4.523-8.655,1.345,1.345,0,0,1,5.868-10h8.337A1.345,1.345,0,0,1,15.55-8.655,1.345,1.345,0,0,1,14.206-7.31Zm-14.389,0H-8.655A1.345,1.345,0,0,1-10-8.655,1.345,1.345,0,0,1-8.655-10H-.183A1.345,1.345,0,0,1,1.161-8.655,1.345,1.345,0,0,1-.183-7.31Z" transform="translate(103.482 40.392)"/>
      <path id="Línea_261" data-name="Línea 261" d="M8.154-7.31H8.006A1.345,1.345,0,0,1,6.662-8.655,1.345,1.345,0,0,1,8.006-10h.148A1.345,1.345,0,0,1,9.5-8.655,1.345,1.345,0,0,1,8.154-7.31Zm-6.2,0H-8.655A1.345,1.345,0,0,1-10-8.655,1.345,1.345,0,0,1-8.655-10H1.955A1.345,1.345,0,0,1,3.3-8.655,1.345,1.345,0,0,1,1.955-7.31Z" transform="translate(103.482 69.573)"/>
      <path id="Línea_262" data-name="Línea 262" d="M14.206-7.31H5.868A1.345,1.345,0,0,1,4.523-8.655,1.345,1.345,0,0,1,5.868-10h8.337A1.345,1.345,0,0,1,15.55-8.655,1.345,1.345,0,0,1,14.206-7.31Zm-14.389,0H-8.655A1.345,1.345,0,0,1-10-8.655,1.345,1.345,0,0,1-8.655-10H-.183A1.345,1.345,0,0,1,1.161-8.655,1.345,1.345,0,0,1-.183-7.31Z" transform="translate(103.482 64.194)"/>
      <path id="Línea_263" data-name="Línea 263" d="M-3.276-7.31H-8.655A1.345,1.345,0,0,1-10-8.655,1.345,1.345,0,0,1-8.655-10h5.379A1.345,1.345,0,0,1-1.931-8.655,1.345,1.345,0,0,1-3.276-7.31Z" transform="translate(92.724 19.279)"/>
      <path id="Línea_264" data-name="Línea 264" d="M-3.276-7.31H-8.655A1.345,1.345,0,0,1-10-8.655,1.345,1.345,0,0,1-8.655-10h5.379A1.345,1.345,0,0,1-1.931-8.655,1.345,1.345,0,0,1-3.276-7.31Z" transform="translate(92.724 43.081)"/>
      <path id="Línea_265" data-name="Línea 265" d="M-3.276-7.31H-8.655A1.345,1.345,0,0,1-10-8.655,1.345,1.345,0,0,1-8.655-10h5.379A1.345,1.345,0,0,1-1.931-8.655,1.345,1.345,0,0,1-3.276-7.31Z" transform="translate(92.724 66.883)"/>
      <path id="Línea_266" data-name="Línea 266" d="M-8.655-1.394A1.345,1.345,0,0,1-10-2.738V-8.655A1.345,1.345,0,0,1-8.655-10,1.345,1.345,0,0,1-7.31-8.655v5.917A1.345,1.345,0,0,1-8.655-1.394Z" transform="translate(89.362 70.245)"/>
      <path id="Línea_267" data-name="Línea 267" d="M-8.655-1.394A1.345,1.345,0,0,1-10-2.738V-8.655A1.345,1.345,0,0,1-8.655-10,1.345,1.345,0,0,1-7.31-8.655v5.917A1.345,1.345,0,0,1-8.655-1.394Z" transform="translate(89.362 10)"/>
      <path id="Línea_268" data-name="Línea 268" d="M-8.655,9.768A1.345,1.345,0,0,1-10,8.423V-8.655A1.345,1.345,0,0,1-8.655-10,1.345,1.345,0,0,1-7.31-8.655V8.423A1.345,1.345,0,0,1-8.655,9.768Z" transform="translate(89.362 22.641)"/>
      <path id="Línea_269" data-name="Línea 269" d="M-8.655,9.768A1.345,1.345,0,0,1-10,8.423V-8.655A1.345,1.345,0,0,1-8.655-10,1.345,1.345,0,0,1-7.31-8.655V8.423A1.345,1.345,0,0,1-8.655,9.768Z" transform="translate(89.362 46.443)"/>
    </g>
  </g>
</svg>
