<svg xmlns="http://www.w3.org/2000/svg" xmlns:xlink="http://www.w3.org/1999/xlink" width="61" height="61" viewBox="0 0 61 61">
  <defs>
    <clipPath id="clip-path">
      <path id="path7779" d="M0-682.665H44.414v44.414H0Z" transform="translate(0 682.665)"/>
    </clipPath>
  </defs>
  <g id="Grupo_1074182" data-name="Grupo 1074182" transform="translate(-1090 -5900)">
    <g id="Grupo_1073848" data-name="Grupo 1073848" transform="translate(781 -1963)">
      <g id="Grupo_1073618" data-name="Grupo 1073618" transform="translate(-24 6935)">
        <circle id="Elipse_9665" data-name="Elipse 9665" cx="30.5" cy="30.5" r="30.5" transform="translate(333 928)" fill="#2cfedf"/>
      </g>
    </g>
    <g id="g7773" transform="translate(1098 6590.665)">
      <g id="g7775" transform="translate(0 -682.665)">
        <g id="g7777" transform="translate(0 0)" clip-path="url(#clip-path)">
          <g id="g7783" transform="translate(28.36 3.019)">
            <path id="path7785" d="M-200.754-102.53a6.834,6.834,0,0,1-.376,2.289h0l-.023.067s-.549.8-.82,1.234a6.438,6.438,0,0,1-5.832,3.039c-3.94,0-6.918-2.69-6.918-6.63,0-2.237,1.154-3.878,2.379-5.566a7.163,7.163,0,0,1,.734-.518,7.08,7.08,0,0,1,3.722-1.051,7.134,7.134,0,0,1,7.134,7.135" transform="translate(214.723 109.665)" fill="#ff7e7b"/>
          </g>
          <g id="g7787" transform="translate(28.062 4.588)">
            <path id="path7789" d="M-199.289-113.851a7.165,7.165,0,0,1-6.734,4.777,7.134,7.134,0,0,1-7.134-7.134,7.133,7.133,0,0,1,2.678-5.566,7.079,7.079,0,0,0-.4,2.366,7.134,7.134,0,0,0,7.134,7.134,7.009,7.009,0,0,0,4.461-1.578" transform="translate(213.157 121.773)" fill="#f46969"/>
          </g>
          <g id="g7791" transform="translate(7.058 22.551)">
            <path id="path7793" d="M-340.148-112.857-357-110.788a4.324,4.324,0,0,1-4.241-2.077l-2.574-4.317,2.814-.346,1.988,3.334a1.73,1.73,0,0,0,1.7.831l16.855-2.07a1.729,1.729,0,0,0,1.445-1.217l1.122-3.716,2.814-.346-1.453,4.812a4.324,4.324,0,0,1-3.612,3.041" transform="translate(363.818 120.71)" fill="#72706f"/>
          </g>
          <g id="g7795" transform="translate(17.386 33.625)">
            <path id="path7797" d="M-86.989,0h-2.594l-.649,2.748-2.81,2.134,4.756.906,4.756-.906Z" transform="translate(93.042)" fill="#686564"/>
          </g>
          <g id="g7799" transform="translate(17.386 33.625)">
            <path id="path7801" d="M-80.775,0l-3.459,4.882-.878.614L-86.4,4.882-82.937,0Z" transform="translate(86.396)" fill="#5e5b5a"/>
          </g>
          <g id="g7803" transform="translate(28.636 19.411)">
            <path id="path7805" d="M-152.114-50.73H-157.4l-2.326-.13a2.873,2.873,0,0,1-2.973-2.9l6.611-.5,7,.5a3.027,3.027,0,0,1-3.027,3.027" transform="translate(162.7 54.26)" fill="#dfeef4"/>
          </g>
          <g id="g7807" transform="translate(28.411 19.411)">
            <path id="path7809" d="M-83.262-50.73h-2.767a3.027,3.027,0,0,1-3.027-3.027l1.415-.5,1.353.5a3.027,3.027,0,0,0,3.027,3.027" transform="translate(89.056 54.26)" fill="#cfe2e8"/>
          </g>
          <g id="g7811" transform="translate(27.14 17.32)">
            <path id="path7813" d="M-220.207-37.28h-11.285l-2.94-.216a.972.972,0,0,1-1.1-1.081,1.039,1.039,0,0,1,1.172-1.1l2.866-.2h11.285a1.3,1.3,0,0,1,1.3,1.3,1.3,1.3,0,0,1-1.3,1.3" transform="translate(235.53 39.875)" fill="#f2fbff"/>
          </g>
          <g id="g7815" transform="translate(26.898 17.32)">
            <path id="path7817" d="M-61.514,0V2.594H-64.5a1.3,1.3,0,0,1-1.3-1.3A1.29,1.29,0,0,1-65.414.38,1.29,1.29,0,0,1-64.5,0Z" transform="translate(65.795)" fill="#dfeef4"/>
          </g>
          <g id="g7819" transform="translate(19.115 19.17)">
            <path id="path7821" d="M0-159.824l1.508-4.69-.135-1.314,1.063-4.647a.605.605,0,0,1,1.18,0l1.063,4.648-.177,1.3,1.55,4.706Z" transform="translate(0 170.946)" fill="#dfeef4"/>
          </g>
          <g id="g7823" transform="translate(19.115 24.066)">
            <path id="path7825" d="M-86.989-89.475h-6.053l1.373-6a6.238,6.238,0,0,1,1.653-.222,6.207,6.207,0,0,1,1.653.223Z" transform="translate(93.042 95.701)" fill="#cfe2e8"/>
          </g>
          <g id="g7827" transform="translate(18.084 25.968)">
            <path id="path7829" d="M-120.449-62.136a4.3,4.3,0,0,1-.687,2.339s-.367.359-.546.55a3.807,3.807,0,0,1-3.034,1.032,3.822,3.822,0,0,1-4.114-3.921,4.8,4.8,0,0,1,1.718-3.637,4.3,4.3,0,0,1,2.34-.687,4.324,4.324,0,0,1,4.324,4.324" transform="translate(128.83 66.46)" fill="#f2fbff"/>
          </g>
          <g id="g7831" transform="translate(17.818 26.655)">
            <path id="path7833" d="M-114.394-85.873a4.32,4.32,0,0,1-3.637,1.984,4.324,4.324,0,0,1-4.324-4.324,4.32,4.32,0,0,1,1.985-3.636,4.3,4.3,0,0,0-.687,2.339,4.324,4.324,0,0,0,4.324,4.324,4.3,4.3,0,0,0,2.339-.687" transform="translate(122.354 91.849)" fill="#dfeef4"/>
          </g>
          <g id="g7835" transform="translate(20.413 28.562)">
            <path id="path7837" d="M-49.708-24.854a1.729,1.729,0,0,1-1.729,1.729,1.729,1.729,0,0,1-1.73-1.729,1.729,1.729,0,0,1,1.73-1.73,1.729,1.729,0,0,1,1.729,1.73" transform="translate(53.167 26.584)" fill="#dfeef4"/>
          </g>
          <g id="g7839" transform="translate(10.194 38.507)">
            <path id="path7841" d="M-340.713-41.008h-21.1l-2.263-.177a.346.346,0,0,1-.346-.346l.041-.56a1.729,1.729,0,0,1,1.729-1.729l2.214-.042H-342.1a1.729,1.729,0,0,1,1.729,1.729v.778a.346.346,0,0,1-.346.346" transform="translate(364.422 43.861)" fill="#72706f"/>
          </g>
          <g id="g7843" transform="translate(10.035 38.507)">
            <path id="path7845" d="M-64.62,0A1.729,1.729,0,0,0-66.35,1.729V2.854h-2.421a.346.346,0,0,1-.346-.346V1.729A1.729,1.729,0,0,1-67.388,0Z" transform="translate(69.117 0)" fill="#686564"/>
          </g>
          <g id="g7847" transform="translate(2.39 22.611)">
            <path id="path7849" d="M-152.114-50.73H-157.4l-2.326-.13a2.872,2.872,0,0,1-2.973-2.9l6.611-.5,7,.5a3.027,3.027,0,0,1-3.027,3.027" transform="translate(162.7 54.26)" fill="#dfeef4"/>
          </g>
          <g id="g7851" transform="translate(2.166 22.611)">
            <path id="path7853" d="M-83.262-50.73h-2.767a3.027,3.027,0,0,1-3.027-3.027l1.415-.5,1.353.5a3.027,3.027,0,0,0,3.027,3.027" transform="translate(89.056 54.26)" fill="#cfe2e8"/>
          </g>
          <g id="g7855" transform="translate(0.895 20.52)">
            <path id="path7857" d="M-220.208-37.28h-11.285l-2.94-.216a.972.972,0,0,1-1.1-1.081,1.039,1.039,0,0,1,1.172-1.1l2.866-.2h11.285a1.3,1.3,0,0,1,1.3,1.3,1.3,1.3,0,0,1-1.3,1.3" transform="translate(235.531 39.875)" fill="#f2fbff"/>
          </g>
          <g id="g7859" transform="translate(0.653 20.52)">
            <path id="path7861" d="M-61.514,0V2.594H-64.5a1.3,1.3,0,0,1-1.3-1.3A1.29,1.29,0,0,1-65.414.38,1.29,1.29,0,0,1-64.5,0Z" transform="translate(65.795)" fill="#dfeef4"/>
          </g>
          <g id="g7863" transform="translate(2.412 6.251)">
            <path id="path7865" d="M-198.4-102.53a6.845,6.845,0,0,1-.376,2.289s-.851,1.292-1.352,1.926a6.508,6.508,0,0,1-5.407,2.475,6.388,6.388,0,0,1-6.673-6.692c0-2.557,1.307-4.422,2.95-6.082a7.07,7.07,0,0,1,3.722-1.051,7.134,7.134,0,0,1,7.134,7.135" transform="translate(212.21 109.665)" fill="#bbf39b"/>
          </g>
          <g id="g7867" transform="translate(1.95 7.302)">
            <path id="path7869" d="M-199.639-120.328a7.169,7.169,0,0,1-6.758,4.845,7.134,7.134,0,0,1-7.134-7.134,7.148,7.148,0,0,1,3.412-6.084,7.082,7.082,0,0,0-.381,2.3,7.134,7.134,0,0,0,7.134,7.134,6.976,6.976,0,0,0,3.727-1.056" transform="translate(213.531 128.701)" fill="#9ae59c"/>
          </g>
          <g id="g7871" transform="translate(31.87 6.825)">
            <path id="path7873" d="M-72.448-46.965l1.252-1.252a1.189,1.189,0,0,0,.062-1.633,1.167,1.167,0,0,0-1.69-.041L-74.1-48.616a.086.086,0,0,1-.122,0l-1.252-1.252a1.189,1.189,0,0,0-1.634-.062,1.168,1.168,0,0,0-.041,1.69l1.275,1.275a.086.086,0,0,1,0,.122l-1.251,1.251a1.185,1.185,0,0,0-.145.176c-.083.488-.227.986.173,1.385a1.164,1.164,0,0,0,.825.342.8.8,0,0,0,.694-.245l.1,0,1.257-1.257a.086.086,0,0,1,.122,0l1.275,1.275a1.164,1.164,0,0,0,.826.342,1.164,1.164,0,0,0,.825-.342,1.2,1.2,0,0,0-.024-1.676l-1.251-1.251a.086.086,0,0,1,0-.122" transform="translate(77.49 50.233)" fill="#f2fbff"/>
          </g>
          <g id="g7875" transform="translate(31.884 11.642)">
            <path id="path7877" d="M-28.721-21.27l-.018.018a1.164,1.164,0,0,1-.826.342,1.162,1.162,0,0,1-.825-.342,1.193,1.193,0,0,1-.12-1.5,7.172,7.172,0,0,0,1.79,1.48" transform="translate(30.72 22.751)" fill="#dfeef4"/>
          </g>
          <g id="g7879" transform="translate(4.649 10.186)">
            <path id="path7881" d="M-49.674-94.808a1.049,1.049,0,0,1-.749-.357l-2.306-2.282a1.024,1.024,0,0,1-.131-1.5c.2-.2.275-.476.533-.5a1.122,1.122,0,0,1,.881.326l1.658,1.658a.087.087,0,0,0,.128-.006L-46.7-101a1.124,1.124,0,0,1,1.583-.142,1.124,1.124,0,0,1,.142,1.583l-3.458,4.141-.328.181a1.255,1.255,0,0,1-.859.43h-.05" transform="translate(53.131 101.405)" fill="#f2fbff"/>
          </g>
          <g id="g7883" transform="translate(4.414 12.152)">
            <path id="path7885" d="M-70.824-57.775l-.347.415a1.124,1.124,0,0,1-.812.4h-.051a1.124,1.124,0,0,1-.795-.329l-2.594-2.594a1.124,1.124,0,0,1,0-1.59,1.118,1.118,0,0,1,.709-.326,7.155,7.155,0,0,0,3.89,4.02" transform="translate(75.752 61.796)" fill="#dfeef4"/>
          </g>
          <g id="g7887" transform="translate(25.534 22.372)">
            <path id="path7889" d="M-9.351-86.9A.651.651,0,0,1-10-87.471.651.651,0,0,1-9.43-88.2l4.317-.53a1.085,1.085,0,0,0,.906-.763l1.115-3.691a.651.651,0,0,1,.811-.435.651.651,0,0,1,.435.811l-1.115,3.691a2.386,2.386,0,0,1-1.993,1.678l-4.317.53A.658.658,0,0,1-9.351-86.9Z" transform="translate(10.001 93.642)"/>
          </g>
          <g id="g7891" transform="translate(9.489 25.585)">
            <path id="path7893" d="M-6.107-4.913A2.387,2.387,0,0,1-8.156-6.077L-9.91-9.018a.651.651,0,0,1,.226-.892.651.651,0,0,1,.892.226l1.754,2.941a1.085,1.085,0,0,0,1.063.521l4.328-.531a.651.651,0,0,1,.725.566.651.651,0,0,1-.566.725l-4.328.531A2.387,2.387,0,0,1-6.107-4.913Z" transform="translate(10.002 10.002)"/>
          </g>
          <g id="g7895" transform="translate(6.461 25.589)">
            <path id="path7897" d="M-174.129-91.8a4.991,4.991,0,0,1-4.284-2.434l-2.546-4.27a.651.651,0,0,1,.226-.892.651.651,0,0,1,.892.226l2.546,4.27a3.689,3.689,0,0,0,3.616,1.771l4.328-.531a.651.651,0,0,1,.725.566.651.651,0,0,1-.566.725l-4.328.531A4.991,4.991,0,0,1-174.129-91.8Z" transform="translate(181.05 99.489)"/>
          </g>
          <g id="g7899" transform="translate(25.839 29.528)">
            <path id="path7901" d="M-94.736-7.832a.651.651,0,0,1-.645-.571.651.651,0,0,1,.566-.725l4.33-.532a3.685,3.685,0,0,0,1.042-.287.651.651,0,0,1,.858.332.651.651,0,0,1-.332.858,4.986,4.986,0,0,1-1.409.389l-4.33.532A.657.657,0,0,1-94.736-7.832Z" transform="translate(95.386 10.002)"/>
          </g>
          <g id="g7903" transform="translate(33.527 22.37)">
            <path id="path7905" d="M-34.059-3.586a.648.648,0,0,1-.288-.068.651.651,0,0,1-.295-.872,3.7,3.7,0,0,0,.225-.57l1.342-4.445a.651.651,0,0,1,.811-.435.651.651,0,0,1,.435.811L-33.17-4.719a5,5,0,0,1-.3.771A.651.651,0,0,1-34.059-3.586Z" transform="translate(34.709 10.003)"/>
          </g>
          <g id="g7907" transform="translate(16.785 33.601)">
            <path id="path7909" d="M-55.663-4.447a.648.648,0,0,1-.376-.12.651.651,0,0,1-.155-.907l3.013-4.253a.651.651,0,0,1,.907-.155.651.651,0,0,1,.155.907l-3.013,4.253A.65.65,0,0,1-55.663-4.447Z" transform="translate(56.313 10.001)"/>
          </g>
          <g id="g7911" transform="translate(23.314 33.601)">
            <path id="path7913" d="M-52.648-69.813a.65.65,0,0,1-.531-.275l-3.013-4.253a.651.651,0,0,1,.155-.907.651.651,0,0,1,.907.155l3.013,4.253a.651.651,0,0,1-.155.907A.648.648,0,0,1-52.648-69.813Z" transform="translate(56.313 75.367)"/>
          </g>
          <g id="g7915" transform="translate(19.385 18.456)">
            <path id="path7917" d="M-9.351-114.656a.652.652,0,0,1-.146-.017.651.651,0,0,1-.489-.779l1.579-6.9a1.236,1.236,0,0,1,1.226-.977,1.236,1.236,0,0,1,1.226.977l1.575,6.886a.651.651,0,0,1-.489.779.651.651,0,0,1-.779-.489l-1.533-6.7-1.537,6.716A.651.651,0,0,1-9.351-114.656Z" transform="translate(10.002 123.33)"/>
          </g>
          <g id="g7919" transform="translate(0 19.919)">
            <path id="path7921" d="M-136.1-46.1h-3.31a.651.651,0,0,1-.651-.651.651.651,0,0,1,.651-.651h3.31a.651.651,0,0,0,.651-.651.651.651,0,0,0-.651-.651h-14.313a.651.651,0,0,0-.651.651.651.651,0,0,0,.651.651h7.961a.651.651,0,0,1,.651.651.651.651,0,0,1-.651.651h-7.961a1.954,1.954,0,0,1-1.952-1.952A1.954,1.954,0,0,1-150.416-50H-136.1a1.954,1.954,0,0,1,1.952,1.952A1.954,1.954,0,0,1-136.1-46.1Z" transform="translate(152.368 50)"/>
          </g>
          <g id="g7923" transform="translate(26.197 16.709)">
            <path id="path7925" d="M-233.735-46.1h-14.313A1.954,1.954,0,0,1-250-48.048,1.954,1.954,0,0,1-248.048-50h14.313a1.954,1.954,0,0,1,1.952,1.952A1.954,1.954,0,0,1-233.735-46.1Zm-14.313-2.6a.651.651,0,0,0-.651.651.651.651,0,0,0,.651.651h14.313a.651.651,0,0,0,.651-.651.651.651,0,0,0-.651-.651Z" transform="translate(249.999 50)"/>
          </g>
          <g id="g7927" transform="translate(1.518 22.521)">
            <path id="path7929" d="M-211.839-5.663h-7.807a3.691,3.691,0,0,1-3.687-3.687.651.651,0,0,1,.651-.651.651.651,0,0,1,.651.651,2.388,2.388,0,0,0,2.385,2.386h7.807a2.388,2.388,0,0,0,2.386-2.386A.651.651,0,0,1-208.8-10a.651.651,0,0,1,.651.651A3.691,3.691,0,0,1-211.839-5.663Z" transform="translate(223.333 10)"/>
          </g>
          <g id="g7931" transform="translate(27.715 19.312)">
            <path id="path7933" d="M-211.839-5.663h-7.807a3.691,3.691,0,0,1-3.687-3.687.651.651,0,0,1,.651-.651.651.651,0,0,1,.651.651,2.388,2.388,0,0,0,2.385,2.386h7.807a2.388,2.388,0,0,0,2.386-2.386A.651.651,0,0,1-208.8-10a.651.651,0,0,1,.651.651A3.691,3.691,0,0,1-211.839-5.663Z" transform="translate(223.333 10)"/>
          </g>
          <g id="g7935" transform="translate(17.219 25.275)">
            <path id="path7937" d="M-138.345-76.666a4.994,4.994,0,0,1,4.988,4.988,4.994,4.994,0,0,1-4.988,4.988,4.994,4.994,0,0,1-4.988-4.988A4.994,4.994,0,0,1-138.345-76.666Zm0,8.675a3.691,3.691,0,0,0,3.687-3.687,3.691,3.691,0,0,0-3.687-3.687,3.691,3.691,0,0,0-3.687,3.687A3.691,3.691,0,0,0-138.345-67.992Z" transform="translate(143.333 76.666)"/>
          </g>
          <g id="g7939" transform="translate(19.821 27.878)">
            <path id="path7941" d="M-60.948-36.667a2.388,2.388,0,0,1,2.385,2.385A2.388,2.388,0,0,1-60.948-31.9a2.388,2.388,0,0,1-2.386-2.385A2.388,2.388,0,0,1-60.948-36.667Zm0,3.47a1.086,1.086,0,0,0,1.084-1.084,1.086,1.086,0,0,0-1.084-1.084,1.086,1.086,0,0,0-1.084,1.084A1.086,1.086,0,0,0-60.948-33.2Z" transform="translate(63.333 36.667)"/>
          </g>
          <g id="g7943" transform="translate(9.412 37.854)">
            <path id="path7945" d="M-358.393-49.836h-24.289a.651.651,0,0,1-.651-.651v-1.128A2.388,2.388,0,0,1-380.947-54h20.819a2.388,2.388,0,0,1,2.385,2.386v1.128A.651.651,0,0,1-358.393-49.836Zm-23.638-1.3h22.988v-.477a1.086,1.086,0,0,0-1.084-1.084h-20.819a1.086,1.086,0,0,0-1.084,1.084Z" transform="translate(383.332 54)"/>
          </g>
          <g id="g7947" transform="translate(1.301 5.606)">
            <path id="path7949" d="M-53.6-11.275A7.816,7.816,0,0,1-61.4-19.082a7.772,7.772,0,0,1,1.3-4.312.651.651,0,0,1,.9-.182.651.651,0,0,1,.182.9A6.475,6.475,0,0,0-60.1-19.082,6.513,6.513,0,0,0-53.6-12.576a6.513,6.513,0,0,0,6.506-6.506A6.513,6.513,0,0,0-53.6-25.588a6.486,6.486,0,0,0-3.465,1,.651.651,0,0,1-.9-.2.651.651,0,0,1,.2-.9,7.786,7.786,0,0,1,4.159-1.2,7.816,7.816,0,0,1,7.807,7.807A7.816,7.816,0,0,1-53.6-11.275Z" transform="translate(61.402 26.889)"/>
          </g>
          <g id="g7951" transform="translate(27.498 2.396)">
            <path id="path7953" d="M-203.271-42.684a7.816,7.816,0,0,1-7.807-7.807,7.816,7.816,0,0,1,7.807-7.807,7.792,7.792,0,0,1,4.076,1.147.651.651,0,0,1,.215.895.651.651,0,0,1-.895.215,6.491,6.491,0,0,0-3.4-.955,6.513,6.513,0,0,0-6.506,6.506,6.513,6.513,0,0,0,6.506,6.506,6.513,6.513,0,0,0,6.506-6.506,6.471,6.471,0,0,0-1.119-3.649.651.651,0,0,1,.173-.9.651.651,0,0,1,.9.173,7.767,7.767,0,0,1,1.343,4.38A7.816,7.816,0,0,1-203.271-42.684Z" transform="translate(211.078 58.299)"/>
          </g>
          <g id="g7955" transform="translate(31.316 6.213)">
            <path id="path7957" d="M-80.617-53.352a1.81,1.81,0,0,1-1.288-.534l-.881-.881-.881.881a1.81,1.81,0,0,1-1.288.534,1.81,1.81,0,0,1-1.288-.534,1.824,1.824,0,0,1,0-2.576l.881-.881-.881-.881a1.824,1.824,0,0,1,0-2.576,1.81,1.81,0,0,1,1.288-.534,1.81,1.81,0,0,1,1.288.533l.881.881.881-.881a1.81,1.81,0,0,1,1.288-.533,1.81,1.81,0,0,1,1.288.533,1.824,1.824,0,0,1,0,2.576l-.881.881.881.881a1.824,1.824,0,0,1,0,2.576A1.81,1.81,0,0,1-80.617-53.352Zm-2.169-2.985a.651.651,0,0,1,.46.191l1.341,1.341a.517.517,0,0,0,.368.152.517.517,0,0,0,.368-.152.521.521,0,0,0,0-.736l-1.341-1.341a.651.651,0,0,1-.191-.46.651.651,0,0,1,.191-.46l1.341-1.341a.521.521,0,0,0,0-.736.517.517,0,0,0-.368-.152.517.517,0,0,0-.368.152l-1.341,1.341a.651.651,0,0,1-.46.191.651.651,0,0,1-.46-.191l-1.341-1.341a.517.517,0,0,0-.368-.152.517.517,0,0,0-.368.152.521.521,0,0,0,0,.736l1.341,1.341a.651.651,0,0,1,.191.46.651.651,0,0,1-.191.46l-1.341,1.341a.521.521,0,0,0,0,.736.517.517,0,0,0,.368.152.517.517,0,0,0,.368-.152l1.341-1.341A.651.651,0,0,1-82.786-56.336Z" transform="translate(86.775 61.332)"/>
          </g>
          <g id="g7959" transform="translate(3.774 9.553)">
            <path id="path7961" d="M-62.94-106.795a1.766,1.766,0,0,1-1.257-.521l-2.6-2.6a1.78,1.78,0,0,1,0-2.515,1.767,1.767,0,0,1,1.257-.521,1.767,1.767,0,0,1,1.257.521l1.227,1.227,2.57-3.078a1.775,1.775,0,0,1,1.366-.638,1.781,1.781,0,0,1,1.139.413,1.78,1.78,0,0,1,.225,2.5l-3.817,4.571a1.783,1.783,0,0,1-1.285.637Zm-2.6-4.858a.474.474,0,0,0-.337.14.474.474,0,0,0-.14.337.474.474,0,0,0,.14.337l2.6,2.6a.474.474,0,0,0,.337.14v.651l.02-.651a.479.479,0,0,0,.346-.171l3.817-4.571a.478.478,0,0,0-.06-.672.471.471,0,0,0-.305-.111.477.477,0,0,0-.367.171l-3.026,3.624a.651.651,0,0,1-.47.233.651.651,0,0,1-.489-.19l-1.73-1.73A.474.474,0,0,0-65.542-111.652Z" transform="translate(67.32 114.922)"/>
          </g>
        </g>
      </g>
    </g>
  </g>
</svg>
