<svg xmlns="http://www.w3.org/2000/svg" width="61" height="61" viewBox="0 0 61 61">
  <g id="Grupo_1074189" data-name="Grupo 1074189" transform="translate(-3479 5800)">
    <circle id="Elipse_9665" data-name="Elipse 9665" cx="30.5" cy="30.5" r="30.5" transform="translate(3479 -5800)" fill="#2cfedf"/>
    <g id="programacion-web" transform="translate(3489 -5790)">
      <path id="Trazado_826067" data-name="Trazado 826067" d="M36.137,8.392V36.225H9.7L9,8.392,22.917,7Z" transform="translate(-2.738 -2.129)" fill="#d9dde3"/>
      <path id="Trazado_826068" data-name="Trazado 826068" d="M7.262,8.7V36.529H3.087A2.087,2.087,0,0,1,1,34.442V8.7L3.783,8Z" transform="translate(-0.304 -2.433)" fill="#bdc2cc"/>
      <path id="Trazado_826069" data-name="Trazado 826069" d="M33.7,3.087V6.567H1V3.087A2.087,2.087,0,0,1,3.087,1H31.616A2.087,2.087,0,0,1,33.7,3.087Z" transform="translate(-0.304 -0.304)" fill="#397382"/>
      <path id="Trazado_826070" data-name="Trazado 826070" d="M45.958,51.395l3.022-1.209a6.262,6.262,0,0,0,3.936-5.814V36.54a.691.691,0,0,0-.65-.7c-1.289-.075-4.19-.39-5.9-1.709a.668.668,0,0,0-.813,0c-1.712,1.322-4.613,1.634-5.9,1.709a.691.691,0,0,0-.65.7v7.832a6.262,6.262,0,0,0,3.936,5.814Z" transform="translate(-11.863 -10.341)" fill="#55cba9"/>
      <g id="Grupo_1074188" data-name="Grupo 1074188">
        <path id="Trazado_826071" data-name="Trazado 826071" d="M40.444,24.81c-1.133-.065-3.938-.348-5.517-1.565a1.322,1.322,0,0,0-.135-.074V2.783A2.783,2.783,0,0,0,32.008,0H2.783A2.783,2.783,0,0,0,0,2.783V6.262a.7.7,0,0,0,.7.7H6.262V33.4H2.783a1.392,1.392,0,0,1-1.392-1.392V9.046A.7.7,0,1,0,0,9.046V32.008a2.783,2.783,0,0,0,2.783,2.783h23.7a6.917,6.917,0,0,0,4.328,5.7L33.837,41.7a.7.7,0,0,0,.516,0l3.022-1.209A6.925,6.925,0,0,0,41.75,34.03V26.2a1.392,1.392,0,0,0-1.306-1.389ZM2.783,1.392H32.008A1.392,1.392,0,0,1,33.4,2.783V5.567H1.392V2.783A1.392,1.392,0,0,1,2.783,1.392ZM7.654,6.958H33.4V23.171a1.191,1.191,0,0,0-.135.07c-1.579,1.215-4.384,1.5-5.518,1.565A1.392,1.392,0,0,0,26.442,26.2v7.2H7.654Zm32.7,27.072a5.539,5.539,0,0,1-3.5,5.169L34.1,40.3,31.332,39.2a5.54,5.54,0,0,1-3.5-5.169L27.828,26.2c1.567-.09,4.465-.452,6.246-1.849h.01c1.821,1.4,4.714,1.758,6.274,1.849Z" fill="#373737"/>
        <path id="Trazado_826072" data-name="Trazado 826072" d="M4.7,5.392h.7A.7.7,0,1,0,5.392,4H4.7a.7.7,0,1,0,0,1.392Z" transform="translate(-1.217 -1.217)" fill="#373737"/>
        <path id="Trazado_826073" data-name="Trazado 826073" d="M9.7,5.392h.7a.7.7,0,0,0,0-1.392H9.7a.7.7,0,1,0,0,1.392Z" transform="translate(-2.738 -1.217)" fill="#373737"/>
        <path id="Trazado_826074" data-name="Trazado 826074" d="M14.7,5.392h.7a.7.7,0,1,0,0-1.392h-.7a.7.7,0,1,0,0,1.392Z" transform="translate(-4.258 -1.217)" fill="#373737"/>
        <path id="Trazado_826075" data-name="Trazado 826075" d="M36.7,5.392h5.567a.7.7,0,0,0,0-1.392H36.7a.7.7,0,1,0,0,1.392Z" transform="translate(-10.95 -1.217)" fill="#373737"/>
        <path id="Trazado_826076" data-name="Trazado 826076" d="M4.7,13.392h.7a.7.7,0,1,0,0-1.392H4.7a.7.7,0,1,0,0,1.392Z" transform="translate(-1.217 -3.65)" fill="#373737"/>
        <path id="Trazado_826077" data-name="Trazado 826077" d="M4.7,17.392h.7a.7.7,0,1,0,0-1.392H4.7a.7.7,0,1,0,0,1.392Z" transform="translate(-1.217 -4.867)" fill="#373737"/>
        <path id="Trazado_826078" data-name="Trazado 826078" d="M4.7,21.392h.7a.7.7,0,1,0,0-1.392H4.7a.7.7,0,0,0,0,1.392Z" transform="translate(-1.217 -6.083)" fill="#373737"/>
        <path id="Trazado_826079" data-name="Trazado 826079" d="M4.7,25.392h.7a.7.7,0,1,0,0-1.392H4.7a.7.7,0,0,0,0,1.392Z" transform="translate(-1.217 -7.3)" fill="#373737"/>
        <path id="Trazado_826080" data-name="Trazado 826080" d="M4.7,29.392h.7a.7.7,0,1,0,0-1.392H4.7a.7.7,0,1,0,0,1.392Z" transform="translate(-1.217 -8.517)" fill="#373737"/>
        <path id="Trazado_826081" data-name="Trazado 826081" d="M4.7,33.392h.7a.7.7,0,1,0,0-1.392H4.7a.7.7,0,1,0,0,1.392Z" transform="translate(-1.217 -9.733)" fill="#373737"/>
        <path id="Trazado_826082" data-name="Trazado 826082" d="M4.7,37.392h.7a.7.7,0,1,0,0-1.392H4.7a.7.7,0,1,0,0,1.392Z" transform="translate(-1.217 -10.95)" fill="#373737"/>
        <path id="Trazado_826083" data-name="Trazado 826083" d="M4.7,41.392h.7a.7.7,0,1,0,0-1.392H4.7a.7.7,0,1,0,0,1.392Z" transform="translate(-1.217 -12.167)" fill="#373737"/>
        <path id="Trazado_826084" data-name="Trazado 826084" d="M17.175,40H13.7a.7.7,0,1,0,0,1.392h3.479a.7.7,0,1,0,0-1.392Z" transform="translate(-3.954 -12.167)" fill="#373737"/>
        <path id="Trazado_826085" data-name="Trazado 826085" d="M28.958,40H22.7a.7.7,0,0,0,0,1.392h6.262a.7.7,0,1,0,0-1.392Z" transform="translate(-6.692 -12.167)" fill="#373737"/>
        <path id="Trazado_826086" data-name="Trazado 826086" d="M13.7,29.392h3.479a.7.7,0,1,0,0-1.392H13.7a.7.7,0,1,0,0,1.392Z" transform="translate(-3.954 -8.517)" fill="#373737"/>
        <path id="Trazado_826087" data-name="Trazado 826087" d="M13.7,33.392h3.479a.7.7,0,1,0,0-1.392H13.7a.7.7,0,1,0,0,1.392Z" transform="translate(-3.954 -9.733)" fill="#373737"/>
        <path id="Trazado_826088" data-name="Trazado 826088" d="M28.262,28.7a.7.7,0,0,0-.7-.7H22.7a.7.7,0,0,0,0,1.392h4.871A.7.7,0,0,0,28.262,28.7Z" transform="translate(-6.692 -8.517)" fill="#373737"/>
        <path id="Trazado_826089" data-name="Trazado 826089" d="M26.871,32.7a.7.7,0,0,0-.7-.7H22.7a.7.7,0,0,0,0,1.392h3.479A.7.7,0,0,0,26.871,32.7Z" transform="translate(-6.692 -9.733)" fill="#373737"/>
        <path id="Trazado_826090" data-name="Trazado 826090" d="M13.7,25.392h.7a.7.7,0,1,0,0-1.392h-.7a.7.7,0,1,0,0,1.392Z" transform="translate(-3.954 -7.3)" fill="#373737"/>
        <path id="Trazado_826091" data-name="Trazado 826091" d="M18,24.7a.7.7,0,0,0,.7.7h4.871a.7.7,0,1,0,0-1.392H18.7A.7.7,0,0,0,18,24.7Z" transform="translate(-5.475 -7.3)" fill="#373737"/>
        <path id="Trazado_826092" data-name="Trazado 826092" d="M37.35,24H29.7a.7.7,0,0,0,0,1.392H37.35a.7.7,0,0,0,0-1.392Z" transform="translate(-8.821 -7.3)" fill="#373737"/>
        <path id="Trazado_826093" data-name="Trazado 826093" d="M19.7,17.392H34.308a.7.7,0,0,0,0-1.392H19.7a.7.7,0,0,0,0,1.392Z" transform="translate(-5.779 -4.867)" fill="#373737"/>
        <path id="Trazado_826094" data-name="Trazado 826094" d="M13.7,17.392h1.392a.7.7,0,0,0,0-1.392H13.7a.7.7,0,0,0,0,1.392Z" transform="translate(-3.954 -4.867)" fill="#373737"/>
        <path id="Trazado_826095" data-name="Trazado 826095" d="M13.7,37.392h.7a.7.7,0,1,0,0-1.392h-.7a.7.7,0,1,0,0,1.392Z" transform="translate(-3.954 -10.95)" fill="#373737"/>
        <path id="Trazado_826096" data-name="Trazado 826096" d="M18.7,36a.7.7,0,1,0,0,1.392h4.871a.7.7,0,1,0,0-1.392Z" transform="translate(-5.475 -10.95)" fill="#373737"/>
        <path id="Trazado_826097" data-name="Trazado 826097" d="M31.783,36H29.7a.7.7,0,0,0,0,1.392h2.087a.7.7,0,0,0,0-1.392Z" transform="translate(-8.821 -10.95)" fill="#373737"/>
        <path id="Trazado_826098" data-name="Trazado 826098" d="M13.7,21.392h2.783a.7.7,0,0,0,0-1.392H13.7a.7.7,0,1,0,0,1.392Z" transform="translate(-3.954 -6.083)" fill="#373737"/>
        <path id="Trazado_826099" data-name="Trazado 826099" d="M24.479,21.392a.7.7,0,0,0,0-1.392H21.7a.7.7,0,0,0,0,1.392Z" transform="translate(-6.388 -6.083)" fill="#373737"/>
        <path id="Trazado_826100" data-name="Trazado 826100" d="M13.7,13.392h2.783a.7.7,0,1,0,0-1.392H13.7a.7.7,0,0,0,0,1.392Z" transform="translate(-3.954 -3.65)" fill="#373737"/>
        <path id="Trazado_826101" data-name="Trazado 826101" d="M21.7,13.392h6.958a.7.7,0,1,0,0-1.392H21.7a.7.7,0,1,0,0,1.392Z" transform="translate(-6.388 -3.65)" fill="#373737"/>
        <path id="Trazado_826102" data-name="Trazado 826102" d="M29.7,21.392h2.783a.7.7,0,1,0,0-1.392H29.7a.7.7,0,0,0,0,1.392Z" transform="translate(-8.821 -6.083)" fill="#373737"/>
        <path id="Trazado_826103" data-name="Trazado 826103" d="M45.948,46.532l-.762-.762a.7.7,0,1,0-.984.984l1.392,1.392a.7.7,0,0,0,1.088-.134l4.175-6.958a.7.7,0,1,0-1.193-.717Z" transform="translate(-13.383 -12.167)" fill="#373737"/>
      </g>
    </g>
  </g>
</svg>
