<svg xmlns="http://www.w3.org/2000/svg" width="61" height="61" viewBox="0 0 61 61">
  <g id="Grupo_1074195" data-name="Grupo 1074195" transform="translate(-3164 5422)">
    <circle id="Elipse_9665" data-name="Elipse 9665" cx="30.5" cy="30.5" r="30.5" transform="translate(3164 -5422)" fill="#2cfedf"/>
    <g id="software_1_" data-name="software (1)" transform="translate(3173 -5413)">
      <path id="Trazado_826182" data-name="Trazado 826182" d="M48,118.419H8.812A1.312,1.312,0,0,1,7.5,117.107v-24.3A1.312,1.312,0,0,1,8.812,91.5H48a1.312,1.312,0,0,1,1.312,1.312v24.3A1.311,1.311,0,0,1,48,118.419Z" transform="translate(-6.869 -83.803)" fill="#685c79"/>
      <path id="Trazado_826183" data-name="Trazado 826183" d="M461.433,91.5h-2.524a1.311,1.311,0,0,1,1.312,1.312v24.3a1.311,1.311,0,0,1-1.312,1.312h2.524a1.311,1.311,0,0,0,1.312-1.312v-24.3A1.311,1.311,0,0,0,461.433,91.5Z" transform="translate(-420.305 -83.803)" fill="#594f69"/>
      <rect id="Rectángulo_383237" data-name="Rectángulo 383237" width="21.872" height="36.761" transform="translate(39.916 10.221) rotate(90)" fill="#ade7ff"/>
      <path id="Trazado_826184" data-name="Trazado 826184" d="M134.965,477.024h-21.7A1.262,1.262,0,0,1,112,475.762h0a1.262,1.262,0,0,1,1.262-1.262h21.7a1.262,1.262,0,0,1,1.262,1.262h0A1.262,1.262,0,0,1,134.965,477.024Z" transform="translate(-102.578 -434.584)" fill="#685c79"/>
      <path id="Trazado_826185" data-name="Trazado 826185" d="M357.408,474.5h-2.534a1.262,1.262,0,1,1,0,2.524h2.534a1.262,1.262,0,0,0,0-2.524Z" transform="translate(-325.021 -434.584)" fill="#594f69"/>
      <path id="Trazado_826186" data-name="Trazado 826186" d="M177.235,416.8H161.3a6.656,6.656,0,0,0,2.717-5.3h10.5A6.656,6.656,0,0,0,177.235,416.8Z" transform="translate(-147.734 -376.884)" fill="#ade7ff"/>
      <path id="Trazado_826187" data-name="Trazado 826187" d="M292.452,411.5h-2.383a6.656,6.656,0,0,0,2.717,5.3h2.383A6.656,6.656,0,0,1,292.452,411.5Z" transform="translate(-265.668 -376.884)" fill="#82d2f5"/>
      <path id="Trazado_826188" data-name="Trazado 826188" d="M175.32,148.9v10.289l-8.16,3.9-8.16-3.9V148.9l8.16-3.9Z" transform="translate(-145.625 -132.802)" fill="#ff2c5c"/>
      <path id="Trazado_826189" data-name="Trazado 826189" d="M238.662,148.9l-2.524,1.206-7.978-3.985L230.5,145Z" transform="translate(-208.967 -132.802)" fill="#e62753"/>
      <path id="Trazado_826190" data-name="Trazado 826190" d="M167.16,195.241v10.289l-8.16-3.9V191.343Z" transform="translate(-145.625 -175.247)" fill="#4fb1f5"/>
      <path id="Trazado_826191" data-name="Trazado 826191" d="M256,195.241v10.289l8.16-3.9V191.343Z" transform="translate(-234.465 -175.247)" fill="#ffd659"/>
      <path id="Trazado_826192" data-name="Trazado 826192" d="M325.524,191.343,323,192.549l.038,10.271,2.486-1.188Z" transform="translate(-295.829 -175.247)" fill="#ffbd54"/>
      <circle id="Elipse_9856" data-name="Elipse 9856" cx="1.262" cy="1.262" r="1.262" transform="translate(31.661 0.631)" fill="#ff2c5c"/>
      <circle id="Elipse_9857" data-name="Elipse 9857" cx="1.262" cy="1.262" r="1.262" transform="translate(20.273 0.631)" fill="#ff2c5c"/>
      <circle id="Elipse_9858" data-name="Elipse 9858" cx="1.262" cy="1.262" r="1.262" transform="translate(8.885 0.631)" fill="#ff2c5c"/>
      <path id="Trazado_826193" data-name="Trazado 826193" d="M41.128,7.066H32.3a.631.631,0,0,0,0,1.262h8.825a.681.681,0,0,1,.681.681V33.3a.681.681,0,0,1-.681.681H1.943a.681.681,0,0,1-.681-.681V9.009a.681.681,0,0,1,.681-.681H15.8V9.59H3.155a.631.631,0,0,0-.631.631v16.67a.631.631,0,1,0,1.262,0V10.852H15.8v3.385l-2.7,1.29a.635.635,0,0,0-.359.569V26.385a.631.631,0,0,0,.359.569l8.16,3.9a.639.639,0,0,0,.544,0l4.587-2.192a.631.631,0,1,0-.544-1.139l-3.684,1.76V20.392l6.9-3.3v8.891l-.937.448a.631.631,0,1,0,.544,1.139l1.3-.619a.631.631,0,0,0,.359-.569V16.1a.634.634,0,0,0-.359-.569l-2.7-1.29V10.852H39.285v20.61H3.785V29.583a.631.631,0,1,0-1.262,0v2.51a.631.631,0,0,0,.631.631H39.916a.631.631,0,0,0,.631-.631V10.221a.631.631,0,0,0-.631-.631H27.266V8.328h2.345a.631.631,0,0,0,0-1.262H27.266V5.8h5.657a.631.631,0,0,0,.631-.631v-1.5a1.893,1.893,0,1,0-1.262,0v.866H26.635A.631.631,0,0,0,26,5.173V7.066H22.166V3.677a1.893,1.893,0,1,0-1.262,0V7.066H17.066V5.173a.631.631,0,0,0-.631-.631H10.778V3.677a1.893,1.893,0,1,0-1.262,0v1.5a.631.631,0,0,0,.631.631H15.8V7.066H1.943A1.945,1.945,0,0,0,0,9.009V33.3a1.945,1.945,0,0,0,1.943,1.943H15.621a6.013,6.013,0,0,1-2.257,4.038H10.683a1.893,1.893,0,1,0,0,3.785h21.7a1.893,1.893,0,1,0,0-3.785H29.708a6.073,6.073,0,0,1-2.258-4.038H41.128A1.945,1.945,0,0,0,43.07,33.3V9.009A1.945,1.945,0,0,0,41.128,7.066Zm-8.2-5.8a.631.631,0,1,1-.631.631A.632.632,0,0,1,32.923,1.262Zm-11.388,0a.631.631,0,1,1-.631.631A.632.632,0,0,1,21.535,1.262Zm-11.388,0a.631.631,0,1,1-.631.631A.632.632,0,0,1,10.147,1.262Zm6.919,9.59H20.9V11.8l-3.838,1.834ZM28.231,16.1l-6.7,3.2-6.7-3.2,6.7-3.2Zm-14.225,1,6.9,3.3v8.891l-6.9-3.3Zm12-3.463L22.166,11.8v-.948H26Zm0-5.305V9.59H22.166V8.328Zm-5.1,0V9.59H17.066V8.328Zm12.114,32.85a.632.632,0,0,1-.631.631h-21.7a.631.631,0,0,1,0-1.262h21.7A.632.632,0,0,1,33.018,41.178ZM27.9,39.285H15.172a7.115,7.115,0,0,0,1.717-4.038h9.291A7.116,7.116,0,0,0,27.9,39.285Z"/>
    </g>
  </g>
</svg>
