<svg xmlns="http://www.w3.org/2000/svg" width="61" height="61" viewBox="0 0 61 61">
  <g id="Grupo_1074196" data-name="Grupo 1074196" transform="translate(-3794 5422)">
    <circle id="Elipse_9665" data-name="Elipse 9665" cx="30.5" cy="30.5" r="30.5" transform="translate(3794 -5422)" fill="#2cfedf"/>
    <g id="software" transform="translate(3805 -5408.5)">
      <path id="Trazado_826194" data-name="Trazado 826194" d="M7.5,9.691V32.328a1.69,1.69,0,0,0,1.691,1.69H41.3a1.69,1.69,0,0,0,1.69-1.69V9.691A1.69,1.69,0,0,0,41.3,8H9.191A1.691,1.691,0,0,0,7.5,9.691Zm0,0" transform="translate(-6.914 -6.914)" fill="#87d1ea"/>
      <path id="Trazado_826195" data-name="Trazado 826195" d="M417.957,8h-1.875a1.691,1.691,0,0,1,1.691,1.691V32.328a1.691,1.691,0,0,1-1.691,1.69h1.875a1.69,1.69,0,0,0,1.691-1.69V9.691A1.691,1.691,0,0,0,417.957,8Zm0,0" transform="translate(-383.576 -6.914)" fill="#5fa6ce"/>
      <path id="Trazado_826196" data-name="Trazado 826196" d="M7.5,283.02v2.842a1.69,1.69,0,0,0,1.691,1.69H41.3a1.69,1.69,0,0,0,1.69-1.69V283.02Zm0,0" transform="translate(-6.914 -260.448)" fill="#cae5ed"/>
      <path id="Trazado_826197" data-name="Trazado 826197" d="M417.773,285.861a1.691,1.691,0,0,1-1.691,1.69h1.875l.094,0c.052,0,.1-.008.153-.015.032,0,.063-.01.094-.016l.082-.019a1.7,1.7,0,0,0,1.248-1.38c0-.028.008-.056.011-.085.005-.057.009-.115.009-.173V283.02h-1.875Zm0,0" transform="translate(-383.576 -260.448)" fill="#9bb8d1"/>
      <path id="Trazado_826198" data-name="Trazado 826198" d="M190.237,341.031l-.991,4.587h7.089l-.991-4.587Zm0,0" transform="translate(-174.461 -313.927)" fill="#3a4d7b"/>
      <path id="Trazado_826199" data-name="Trazado 826199" d="M203.2,342.675l-.355-1.644h-5.106l-.355,1.644Zm0,0" transform="translate(-181.966 -313.927)" fill="#242e5b"/>
      <path id="Trazado_826200" data-name="Trazado 826200" d="M127.378,389.092h16.177a.313.313,0,0,0,.214-.541,13.737,13.737,0,0,0-16.6,0A.313.313,0,0,0,127.378,389.092Zm0,0" transform="translate(-117.138 -355.159)" fill="#cae5ed"/>
      <path id="Trazado_826201" data-name="Trazado 826201" d="M232.516,388.55a12.362,12.362,0,0,0-8.3-2.793q-.446,0-.881.025a8.739,8.739,0,0,1,6.012,2.768c.168.193.056.541-.173.541H232.3A.313.313,0,0,0,232.516,388.55Zm0,0" transform="translate(-205.884 -355.159)" fill="#9bb8d1"/>
      <path id="Trazado_826202" data-name="Trazado 826202" d="M401.581,193.724l-2.485-4.3a.345.345,0,0,1,.126-.472l1.853-1.07a.346.346,0,0,0,0-.6l-7.283-4.2a.588.588,0,0,0-.882.509v8.409a.346.346,0,0,0,.518.3l1.853-1.07a.345.345,0,0,1,.472.127l2.485,4.3a.345.345,0,0,0,.472.127l2.744-1.584A.346.346,0,0,0,401.581,193.724Zm0,0" transform="translate(-362.214 -168.238)" fill="#ea6789"/>
      <path id="Trazado_826203" data-name="Trazado 826203" d="M242.7,1.672h14.88a1.106,1.106,0,0,1,1.1,1.1V14.914a.586.586,0,1,0,1.172,0V2.777A2.279,2.279,0,0,0,257.58.5H242.7a.586.586,0,0,0,0,1.172Zm0,0" transform="translate(-223.198)"/>
      <path id="Trazado_826204" data-name="Trazado 826204" d="M233.363,79.218l4.59,2.65a.587.587,0,0,0,.293.078h0a.587.587,0,0,0,.293-.078l4.59-2.65a.586.586,0,0,0,.293-.508v-5.3a.586.586,0,0,0-.293-.507l0,0-4.586-2.648a.586.586,0,0,0-.586,0L233.368,72.9l0,0a.586.586,0,0,0-.293.507v5.3A.586.586,0,0,0,233.363,79.218Zm.879-.846V74.426l.2.114L237.66,76.4v3.946Zm4.59,1.973V76.4l3.221-1.859.2-.114v3.947Zm-.586-8.908,3.418,1.973-.5.291-2.914,1.682L235.332,73.7l-.5-.291Zm0,0" transform="translate(-214.862 -64.231)"/>
      <path id="Trazado_826205" data-name="Trazado 826205" d="M97.13,80.364h.034a.586.586,0,0,0,.584-.553l.082-1.463a.586.586,0,0,0-.321-.556L96.2,77.133a.586.586,0,1,0-.529,1.046l.341.172L92.5,80.381V76.32l.319.209a.586.586,0,1,0,.642-.981l-1.226-.8a.585.585,0,0,0-.641,0l-1.226.8a.586.586,0,0,0,.642.981l.319-.209c0,5.585.017,5.217.015,5.209,0,.013.006.025.009.036.116.4.16.21,4.664,2.877l-.341.172a.586.586,0,0,0,.265,1.109.58.58,0,0,0,.264-.063L97.509,85a.586.586,0,0,0,.321-.556l-.082-1.463a.586.586,0,1,0-1.17.066l.021.381L93.082,81.4,96.6,79.365l-.021.381A.585.585,0,0,0,97.13,80.364Zm0,0" transform="translate(-83.059 -68.357)"/>
      <path id="Trazado_826206" data-name="Trazado 826206" d="M39.875,25.193,37.51,21.1l1.645-.95a.932.932,0,0,0,0-1.613l-7.283-4.2a1.174,1.174,0,0,0-1.761,1.017v6.64H1.172V2.777a1.106,1.106,0,0,1,1.1-1.1H17.157a.586.586,0,0,0,0-1.172H2.277A2.279,2.279,0,0,0,0,2.777V25.414A2.279,2.279,0,0,0,2.277,27.69H15.05l-.6,2.8q-.388.1-.766.219a.586.586,0,1,0,.354,1.117q.49-.155,1-.273a.6.6,0,0,0,.078-.018,14.621,14.621,0,0,1,3.22-.349,12.379,12.379,0,0,1,7.34,2.162H10.99a8.581,8.581,0,0,1,1.018-.66.586.586,0,0,0-.569-1.024,9.2,9.2,0,0,0-1.812,1.3.9.9,0,0,0,.614,1.555H26.418a.9.9,0,0,0,.613-1.555,11.089,11.089,0,0,0-4.818-2.472l-.605-2.8H34.382a2.267,2.267,0,0,0,.993-.227l.142.246a.932.932,0,0,0,1.273.341l2.744-1.584a.931.931,0,0,0,.341-1.272ZM20.958,30.227a16.308,16.308,0,0,0-5.256,0l.547-2.534h4.16Zm13.424-3.709H2.277a1.106,1.106,0,0,1-1.1-1.1V23.158H30.11v.6a.932.932,0,0,0,1.4.807l1.645-.949,1.634,2.83A1.106,1.106,0,0,1,34.382,26.518Zm2.03.4-.33-.571c-.006-.011-.012-.022-.019-.033l-2.016-3.492a.927.927,0,0,0-.565-.434.944.944,0,0,0-.243-.032.929.929,0,0,0-.464.125l-1.492.862,0-7.994,6.922,4-1.492.862a.933.933,0,0,0-.341,1.273l2.365,4.1Zm0,0"/>
    </g>
  </g>
</svg>
