<svg xmlns="http://www.w3.org/2000/svg" width="61" height="61" viewBox="0 0 61 61">
  <g id="Grupo_1074197" data-name="Grupo 1074197" transform="translate(-3831 5427)">
    <circle id="Elipse_9862" data-name="Elipse 9862" cx="30.5" cy="30.5" r="30.5" transform="translate(3831 -5427)" fill="#2cfedf"/>
    <g id="solucion" transform="translate(3839 -5418)">
      <path id="Trazado_826207" data-name="Trazado 826207" d="M29,55h4.016v5.355H29Z" transform="translate(-9.258 -17.855)" fill="#5a6c80"/>
      <circle id="Elipse_9859" data-name="Elipse 9859" cx="5" cy="5" r="5" transform="translate(2 2)" fill="#ff7375"/>
      <ellipse id="Elipse_9860" data-name="Elipse 9860" cx="5.5" cy="5" rx="5.5" ry="5" transform="translate(31 2)" fill="#67cc6d"/>
      <path id="Trazado_826208" data-name="Trazado 826208" d="M36.741,32.368a9.371,9.371,0,1,0-12.718,8.748v2.631a.669.669,0,0,0,.669.669h5.355a.669.669,0,0,0,.669-.669V41.117A9.371,9.371,0,0,0,36.741,32.368Z" transform="translate(-5.62 -7.272)" fill="#8ea0b3"/>
      <ellipse id="Elipse_9861" data-name="Elipse 9861" cx="6.5" cy="7" rx="6.5" ry="7" transform="translate(15 18)" fill="#f2f2f2"/>
      <path id="Trazado_826209" data-name="Trazado 826209" d="M7.024,13.048A6.024,6.024,0,1,0,1,7.024a6.024,6.024,0,0,0,6.024,6.024Zm0-10.71A4.685,4.685,0,1,1,2.339,7.024,4.685,4.685,0,0,1,7.024,2.339Z"/>
      <path id="Trazado_826210" data-name="Trazado 826210" d="M51.024,1a6.024,6.024,0,1,0,6.024,6.024A6.024,6.024,0,0,0,51.024,1Zm0,10.71A4.685,4.685,0,1,1,55.71,7.024,4.685,4.685,0,0,1,51.024,11.71Z" transform="translate(-14.548)"/>
      <path id="Trazado_826211" data-name="Trazado 826211" d="M6.7,11.436,8.6,9.542l1.894,1.894.944-.944L9.542,8.6,11.436,6.7l-.944-.944L8.6,7.654,6.7,5.76,5.76,6.7,7.654,8.6,5.76,10.492Z" transform="translate(-1.574 -1.574)"/>
      <path id="Trazado_826212" data-name="Trazado 826212" d="M51.294,9.633l-.944-.95-.95.95,1.426,1.419a.671.671,0,0,0,.944,0l3.789-3.789-.95-.944Z" transform="translate(-16.003 -1.759)"/>
      <path id="Trazado_826213" data-name="Trazado 826213" d="M27.046,22A10.04,10.04,0,0,0,23.03,41.237v2.182a1.339,1.339,0,0,0,1.339,1.339v4.685h1.339V44.758h2.677v4.685h1.339V44.758a1.339,1.339,0,0,0,1.339-1.339V41.237A10.04,10.04,0,0,0,27.046,22Zm2.677,21.419H24.368V41.706a9.753,9.753,0,0,0,5.355,0Zm-2.677-2.677a8.7,8.7,0,1,1,8.7-8.7A8.7,8.7,0,0,1,27.046,40.742Z" transform="translate(-5.296 -6.944)"/>
      <path id="Trazado_826214" data-name="Trazado 826214" d="M28.363,26a7.363,7.363,0,1,0,7.363,7.363A7.363,7.363,0,0,0,28.363,26Zm0,13.387a6.024,6.024,0,1,1,6.024-6.024A6.024,6.024,0,0,1,28.363,39.387Z" transform="translate(-6.613 -8.266)"/>
      <path id="Trazado_826215" data-name="Trazado 826215" d="M21,9h5.355v1.339H21Z" transform="translate(-6.613 -2.645)"/>
      <path id="Trazado_826216" data-name="Trazado 826216" d="M30.677,30A2.677,2.677,0,0,0,28,32.677h1.339a1.339,1.339,0,1,1,1.339,1.339.669.669,0,0,0-.669.669v2.008h1.339V35.268A2.677,2.677,0,0,0,30.677,30Z" transform="translate(-8.927 -9.589)"/>
      <path id="Trazado_826217" data-name="Trazado 826217" d="M31,42h1.339v1.339H31Z" transform="translate(-9.919 -13.556)"/>
      <path id="Trazado_826218" data-name="Trazado 826218" d="M36.606,10.216l.8,1.071,2.677-2.008a.669.669,0,0,0,0-1.071L37.41,6.2l-.8,1.071,1.071.8H35V9.413h2.677Z" transform="translate(-11.242 -1.719)"/>
      <path id="Trazado_826219" data-name="Trazado 826219" d="M31,5h1.339V6.339H31Z" transform="translate(-9.919 -1.323)"/>
      <path id="Trazado_826220" data-name="Trazado 826220" d="M31,9h1.339v1.339H31Z" transform="translate(-9.919 -2.645)"/>
      <path id="Trazado_826221" data-name="Trazado 826221" d="M31,13h1.339v1.339H31Z" transform="translate(-9.919 -3.968)"/>
      <path id="Trazado_826222" data-name="Trazado 826222" d="M31,17h1.339v1.339H31Z" transform="translate(-9.919 -5.29)"/>
    </g>
  </g>
</svg>
