<svg xmlns="http://www.w3.org/2000/svg" width="61" height="61" viewBox="0 0 61 61">
  <g id="Grupo_1074155" data-name="Grupo 1074155" transform="translate(-2534 5028)">
    <circle id="Elipse_9790" data-name="Elipse 9790" cx="30.5" cy="30.5" r="30.5" transform="translate(2534 -5028)" fill="#2cfedf"/>
    <g id="grafico-empresarial" transform="translate(2543 -5018)">
      <g id="Grupo_1074154" data-name="Grupo 1074154" transform="translate(0 0)">
        <g id="Grupo_1074151" data-name="Grupo 1074151" transform="translate(0.615 0.615)">
          <path id="Trazado_825960" data-name="Trazado 825960" d="M91.234,339.135c-1.049.159-2.306-.025-2.306,2.1a14.573,14.573,0,0,0,.453,7.763c1.123,1.163,2.346,1.29,3.707,0l.11-.285a9.949,9.949,0,0,0-.11-7.416h0A2.183,2.183,0,0,0,91.234,339.135Z" transform="translate(-81.967 -311.928)" fill="#6ed5a1"/>
          <path id="Trazado_825961" data-name="Trazado 825961" d="M72.066,338.85a20.476,20.476,0,0,0-2.142-.025,2.182,2.182,0,0,0-2.183,2.183v7.7c.774,1.065,1.6,1.077,2.471,0v-7.7A2.183,2.183,0,0,1,72.066,338.85Z" transform="translate(-62.8 -311.643)" fill="#46cc8d"/>
          <path id="Trazado_825962" data-name="Trazado 825962" d="M167.113,309.014c-1.049.159-2.471,0-2.412,2.158,0,2.11-.581,8.457.559,10.173q1.524,2.224,3.707,0l.419-1.26a12.328,12.328,0,0,0-.173-8.263l-.246-.649A2.183,2.183,0,0,0,167.113,309.014Z" transform="translate(-151.669 -284.278)" fill="#ff938a"/>
          <path id="Trazado_825963" data-name="Trazado 825963" d="M145.517,310.887a2.183,2.183,0,0,1,1.853-2.158,20.508,20.508,0,0,0-2.142-.025,2.182,2.182,0,0,0-2.183,2.183V321.06c.757,1.217,1.58,1.236,2.471,0V310.887Z" transform="translate(-131.926 -283.993)" fill="#fd7a6e"/>
          <path id="Trazado_825964" data-name="Trazado 825964" d="M242.844,278.893c-1.049.159-2.471,0-2.416,2.158,0,1.209-.467,11.367.563,12.644q1.634,2.127,3.707,0l.534-2.576a19.076,19.076,0,0,0-.1-8.2l-.435-1.87A2.183,2.183,0,0,0,242.844,278.893Z" transform="translate(-221.222 -256.628)" fill="#83deff"/>
          <path id="Trazado_825965" data-name="Trazado 825965" d="M220.82,280.766a2.183,2.183,0,0,1,1.853-2.158,20.485,20.485,0,0,0-2.142-.025,2.182,2.182,0,0,0-2.183,2.183V293.41a1.259,1.259,0,0,0,2.471,0Z" transform="translate(-201.051 -256.344)" fill="#5ad6ff"/>
          <path id="Trazado_825966" data-name="Trazado 825966" d="M315.028,248.766c-2.142-.025-2.8,1.009-2.8,2.1,0,.724,0,14.579.947,15.17,1.142,1.362,2.369,1.474,3.707,0l.846-3.066a16.657,16.657,0,0,0,.042-8.707l-.888-3.342A2.183,2.183,0,0,0,315.028,248.766Z" transform="translate(-287.228 -228.973)" fill="#eaaa83"/>
          <path id="Trazado_825967" data-name="Trazado 825967" d="M296.123,250.645a2.183,2.183,0,0,1,1.853-2.158,20.511,20.511,0,0,0-2.142-.025,2.182,2.182,0,0,0-2.183,2.183V265.76c.641,1.365,1.451,1.47,2.471,0Z" transform="translate(-270.177 -228.694)" fill="#e4996d"/>
          <path id="Trazado_825968" data-name="Trazado 825968" d="M95.382,125l-2.072-1.037a14.938,14.938,0,0,0-11.247-.866l-.319.1c-1.142,4.912,1.02,9.287,7.015,11.214A10,10,0,0,0,95.382,125Z" transform="translate(-75.384 -112.958)" fill="#ff938a"/>
          <path id="Trazado_825969" data-name="Trazado 825969" d="M14.224,102.267q-.211-.735-.364-1.467c-1.051-2.452-2.88-3.212-5.325-2.634a10,10,0,0,0,12.34,13.848A17.681,17.681,0,0,1,14.224,102.267Z" transform="translate(-7.5 -90.559)" fill="#fd7a6e"/>
          <path id="Trazado_825970" data-name="Trazado 825970" d="M70.837,40.589l3.639,1.8a9.267,9.267,0,0,0,0-10,9.968,9.968,0,0,0-3.7.71A6.292,6.292,0,0,0,70.837,40.589Z" transform="translate(-64.477 -30.348)" fill="#f8ea69"/>
          <path id="Trazado_825971" data-name="Trazado 825971" d="M25.38,41.049A10.032,10.032,0,0,0,20.121,45.9l5.325,2.634A18.409,18.409,0,0,1,25.38,41.049Z" transform="translate(-19.086 -38.297)" fill="#f8dc11"/>
          <path id="Trazado_825972" data-name="Trazado 825972" d="M389.194,218.65c-1.049.159-2.883,1.064-2.883,2.158,0,.724-.247,16.062,1.03,17.586q1.853,2.224,3.707,0V220.808A2.183,2.183,0,0,0,389.194,218.65Z" transform="translate(-355.216 -201.328)" fill="#f8ea69"/>
          <path id="Trazado_825973" data-name="Trazado 825973" d="M371.426,220.524a2.183,2.183,0,0,1,1.853-2.158,20.5,20.5,0,0,0-2.142-.025,2.182,2.182,0,0,0-2.183,2.183V238.11a1.25,1.25,0,0,0,2.471,0Z" transform="translate(-339.302 -201.044)" fill="#f8dc11"/>
          <path id="Trazado_825974" data-name="Trazado 825974" d="M373.85,16.711V10.644A3.144,3.144,0,0,0,370.706,7.5h-7.385a10.128,10.128,0,0,0,2.384,12.355h5A3.144,3.144,0,0,0,373.85,16.711Z" transform="translate(-333.077 -7.5)" fill="#e5eef9"/>
          <path id="Trazado_825975" data-name="Trazado 825975" d="M314.246,7.5h-2.389a3.144,3.144,0,0,0-3.144,3.144v6.067a3.144,3.144,0,0,0,3.144,3.144h4.774A18.156,18.156,0,0,1,314.246,7.5Z" transform="translate(-284.002 -7.5)" fill="#d9e7f9"/>
          <path id="Trazado_825976" data-name="Trazado 825976" d="M141.387,17.252a1.926,1.926,0,0,1-1.889,2.29H129.38V9.423a1.926,1.926,0,0,1,2.29-1.888A12.235,12.235,0,0,1,141.387,17.252Z" transform="translate(-119.381 -7.501)" fill="#6ed5a1"/>
          <path id="Trazado_825977" data-name="Trazado 825977" d="M95.093,461.171a1.853,1.853,0,0,0-1.853-1.853H61.115c-2.8,0-2.608.829-2.608,1.853s.165,1.853,2.608,1.853H93.239A1.853,1.853,0,0,0,95.093,461.171Z" transform="translate(-54.32 -422.252)" fill="#7a8fa5"/>
          <path id="Trazado_825978" data-name="Trazado 825978" d="M12.442,461.171a1.853,1.853,0,0,1,1.853-1.853H9.353a1.853,1.853,0,1,0,0,3.707H14.3A1.853,1.853,0,0,1,12.442,461.171Z" transform="translate(-7.5 -422.252)" fill="#6a829a"/>
        </g>
        <g id="Grupo_1074153" data-name="Grupo 1074153">
          <g id="Grupo_1074152" data-name="Grupo 1074152">
            <path id="Trazado_825979" data-name="Trazado 825979" d="M39.535,456.755H2.469a2.469,2.469,0,1,1,0-4.937H5.557a.615.615,0,0,1,0,1.231H2.469a1.238,1.238,0,0,0,0,2.476H39.535a1.238,1.238,0,1,0,0-2.476H36.446a.615.615,0,0,1,0-1.231h3.089a2.469,2.469,0,1,1,0,4.937Z" transform="translate(0 -414.752)"/>
            <path id="Trazado_825980" data-name="Trazado 825980" d="M67.035,342.448H60.857a.615.615,0,0,1-.615-.615v-7.7a2.8,2.8,0,0,1,2.8-2.8h1.812a2.8,2.8,0,0,1,2.8,2.8.615.615,0,0,1-1.231,0,1.569,1.569,0,0,0-1.567-1.568H63.04a1.569,1.569,0,0,0-1.567,1.568v7.086h5.563a.615.615,0,1,1,0,1.231Z" transform="translate(-55.3 -304.151)"/>
            <path id="Trazado_825981" data-name="Trazado 825981" d="M142.338,314.8H136.16a.615.615,0,0,1-.615-.615V304.01a2.8,2.8,0,0,1,2.8-2.8h1.812a2.8,2.8,0,0,1,2.8,2.8.615.615,0,1,1-1.231,0,1.569,1.569,0,0,0-1.568-1.568h-1.812a1.569,1.569,0,0,0-1.567,1.568v9.557h5.562a.615.615,0,1,1,0,1.231Z" transform="translate(-124.425 -276.501)"/>
            <path id="Trazado_825982" data-name="Trazado 825982" d="M217.641,287.148h-6.178a.615.615,0,0,1-.615-.615V273.889a2.8,2.8,0,0,1,2.8-2.8h1.812a2.8,2.8,0,0,1,2.8,2.8.615.615,0,0,1-1.231,0,1.569,1.569,0,0,0-1.568-1.568h-1.812a1.569,1.569,0,0,0-1.568,1.568v12.028h5.562a.615.615,0,1,1,0,1.231Z" transform="translate(-193.55 -248.851)"/>
            <path id="Trazado_825983" data-name="Trazado 825983" d="M292.944,259.5h-6.178a.615.615,0,0,1-.615-.615V243.768a2.8,2.8,0,0,1,2.8-2.8h1.812a2.8,2.8,0,0,1,2.8,2.8.615.615,0,1,1-1.231,0,1.569,1.569,0,0,0-1.568-1.568h-1.812a1.569,1.569,0,0,0-1.567,1.568v14.5h5.562a.615.615,0,1,1,0,1.231Z" transform="translate(-262.676 -221.201)"/>
            <path id="Trazado_825984" data-name="Trazado 825984" d="M368.248,231.847H362.07a.615.615,0,0,1-.615-.615V213.646a2.8,2.8,0,0,1,2.8-2.8h1.812a2.8,2.8,0,0,1,2.8,2.8v17.586A.615.615,0,0,1,368.248,231.847Zm-5.562-1.231h4.947V213.646a1.569,1.569,0,0,0-1.567-1.567h-1.812a1.569,1.569,0,0,0-1.567,1.567Z" transform="translate(-331.802 -193.55)"/>
            <path id="Trazado_825985" data-name="Trazado 825985" d="M64.048,158a10.6,10.6,0,0,1-5.545-1.562.615.615,0,0,1,.644-1.049,9.386,9.386,0,0,0,14.285-8,.615.615,0,1,1,1.231,0A10.626,10.626,0,0,1,64.048,158Z" transform="translate(-53.434 -134.729)"/>
            <path id="Trazado_825986" data-name="Trazado 825986" d="M3.189,42.816a.614.614,0,0,1-.457-.2A10.614,10.614,0,0,1,10.614,24.89a.615.615,0,1,1,0,1.231A9.384,9.384,0,0,0,3.646,41.789a.615.615,0,0,1-.457,1.027Z" transform="translate(0 -22.848)"/>
            <path id="Trazado_825987" data-name="Trazado 825987" d="M132.615,13.273H122.5a.615.615,0,0,1-.615-.615V2.54A2.542,2.542,0,0,1,124.421,0a2.577,2.577,0,0,1,.48.045,12.911,12.911,0,0,1,10.207,10.206,2.541,2.541,0,0,1-2.493,3.02Zm-9.5-1.231h9.5a1.3,1.3,0,0,0,1-.472,1.316,1.316,0,0,0,.279-1.088,11.672,11.672,0,0,0-9.227-9.226,1.346,1.346,0,0,0-.25-.024,1.31,1.31,0,0,0-1.309,1.307Z" transform="translate(-111.882 -0.002)"/>
            <path id="Línea_267" data-name="Línea 267" d="M2.077-1.837A.613.613,0,0,1,1.8-1.9L-7.159-6.335a.615.615,0,0,1-.279-.824.615.615,0,0,1,.824-.279L2.35-3a.615.615,0,0,1,.279.824A.615.615,0,0,1,2.077-1.837Z" transform="translate(8.537 15.108)"/>
            <path id="Trazado_825988" data-name="Trazado 825988" d="M314.744,13.586h-1.087a.615.615,0,1,1,0-1.231h1.087a2.532,2.532,0,0,0,2.528-2.529V3.759a2.531,2.531,0,0,0-2.528-2.528H304.97a2.532,2.532,0,0,0-2.529,2.528V9.827a2.532,2.532,0,0,0,2.529,2.529h5.816a.615.615,0,1,1,0,1.231H304.97a3.764,3.764,0,0,1-3.76-3.76V3.759A3.764,3.764,0,0,1,304.97,0h9.774A3.763,3.763,0,0,1,318.5,3.759V9.827A3.764,3.764,0,0,1,314.744,13.586Z" transform="translate(-276.499 0)"/>
            <path id="Línea_268" data-name="Línea 268" d="M-.707-6.269H-6.885A.615.615,0,0,1-7.5-6.885.615.615,0,0,1-6.885-7.5H-.707a.615.615,0,0,1,.615.615A.615.615,0,0,1-.707-6.269Z" transform="translate(39.006 10.589)"/>
            <path id="Línea_269" data-name="Línea 269" d="M-.707-6.269H-6.885A.615.615,0,0,1-7.5-6.885.615.615,0,0,1-6.885-7.5H-.707a.615.615,0,0,1,.615.615A.615.615,0,0,1-.707-6.269Z" transform="translate(39.006 13.678)"/>
            <path id="Línea_270" data-name="Línea 270" d="M-.707-6.269H-6.885A.615.615,0,0,1-7.5-6.885.615.615,0,0,1-6.885-7.5H-.707a.615.615,0,0,1,.615.615A.615.615,0,0,1-.707-6.269Z" transform="translate(39.006 16.767)"/>
            <path id="Línea_271" data-name="Línea 271" d="M-6.267-6.269h-.618A.615.615,0,0,1-7.5-6.885.615.615,0,0,1-6.885-7.5h.618a.615.615,0,0,1,.615.615A.615.615,0,0,1-6.267-6.269Z" transform="translate(35.3 10.589)"/>
            <path id="Línea_272" data-name="Línea 272" d="M-6.267-6.269h-.618A.615.615,0,0,1-7.5-6.885.615.615,0,0,1-6.885-7.5h.618a.615.615,0,0,1,.615.615A.615.615,0,0,1-6.267-6.269Z" transform="translate(35.3 13.678)"/>
            <path id="Línea_273" data-name="Línea 273" d="M-6.267-6.269h-.618A.615.615,0,0,1-7.5-6.885.615.615,0,0,1-6.885-7.5h.618a.615.615,0,0,1,.615.615A.615.615,0,0,1-6.267-6.269Z" transform="translate(35.3 16.767)"/>
          </g>
        </g>
      </g>
    </g>
  </g>
</svg>
