<svg xmlns="http://www.w3.org/2000/svg" width="85" height="69" viewBox="0 0 85 69">
  <g id="Grupo_1099138" data-name="Grupo 1099138" transform="translate(-180 -6407)">
    <g id="Grupo_1098713" data-name="Grupo 1098713" transform="translate(0 5333)">
      <circle id="Elipse_9675" data-name="Elipse 9675" cx="3" cy="3" r="3" transform="translate(180 1074)" fill="#a854f3"/>
      <circle id="Elipse_9676" data-name="Elipse 9676" cx="3" cy="3" r="3" transform="translate(195 1074)" fill="#a854f3"/>
      <circle id="Elipse_9677" data-name="Elipse 9677" cx="3" cy="3" r="3" transform="translate(212 1074)" fill="#a854f3"/>
      <circle id="Elipse_9678" data-name="Elipse 9678" cx="3" cy="3" r="3" transform="translate(227 1074)" fill="#a854f3"/>
      <circle id="Elipse_9679" data-name="Elipse 9679" cx="3" cy="3" r="3" transform="translate(244 1074)" fill="#a854f3"/>
      <circle id="Elipse_9680" data-name="Elipse 9680" cx="3" cy="3" r="3" transform="translate(259 1074)" fill="#a854f3"/>
    </g>
    <g id="Grupo_1098714" data-name="Grupo 1098714" transform="translate(0 5349)">
      <circle id="Elipse_9675-2" data-name="Elipse 9675" cx="3" cy="3" r="3" transform="translate(180 1074)" fill="#a854f3"/>
      <circle id="Elipse_9676-2" data-name="Elipse 9676" cx="3" cy="3" r="3" transform="translate(195 1074)" fill="#a854f3"/>
      <circle id="Elipse_9677-2" data-name="Elipse 9677" cx="3" cy="3" r="3" transform="translate(212 1074)" fill="#a854f3"/>
      <circle id="Elipse_9678-2" data-name="Elipse 9678" cx="3" cy="3" r="3" transform="translate(227 1074)" fill="#a854f3"/>
      <circle id="Elipse_9679-2" data-name="Elipse 9679" cx="3" cy="3" r="3" transform="translate(244 1074)" fill="#a854f3"/>
      <circle id="Elipse_9680-2" data-name="Elipse 9680" cx="3" cy="3" r="3" transform="translate(259 1074)" fill="#a854f3"/>
    </g>
    <g id="Grupo_1098715" data-name="Grupo 1098715" transform="translate(0 5365)">
      <circle id="Elipse_9675-3" data-name="Elipse 9675" cx="3" cy="3" r="3" transform="translate(180 1074)" fill="#a854f3"/>
      <circle id="Elipse_9676-3" data-name="Elipse 9676" cx="3" cy="3" r="3" transform="translate(195 1074)" fill="#a854f3"/>
      <circle id="Elipse_9677-3" data-name="Elipse 9677" cx="3" cy="3" r="3" transform="translate(212 1074)" fill="#a854f3"/>
      <circle id="Elipse_9678-3" data-name="Elipse 9678" cx="3" cy="3" r="3" transform="translate(227 1074)" fill="#a854f3"/>
      <circle id="Elipse_9679-3" data-name="Elipse 9679" cx="3" cy="3" r="3" transform="translate(244 1074)" fill="#a854f3"/>
      <circle id="Elipse_9680-3" data-name="Elipse 9680" cx="3" cy="3" r="3" transform="translate(259 1074)" fill="#a854f3"/>
    </g>
    <g id="Grupo_1098713-2" data-name="Grupo 1098713" transform="translate(0 5381)">
      <circle id="Elipse_9675-4" data-name="Elipse 9675" cx="3" cy="3" r="3" transform="translate(180 1074)" fill="#a854f3"/>
      <circle id="Elipse_9676-4" data-name="Elipse 9676" cx="3" cy="3" r="3" transform="translate(195 1074)" fill="#a854f3"/>
      <circle id="Elipse_9677-4" data-name="Elipse 9677" cx="3" cy="3" r="3" transform="translate(212 1074)" fill="#a854f3"/>
      <circle id="Elipse_9678-4" data-name="Elipse 9678" cx="3" cy="3" r="3" transform="translate(227 1074)" fill="#a854f3"/>
      <circle id="Elipse_9679-4" data-name="Elipse 9679" cx="3" cy="3" r="3" transform="translate(244 1074)" fill="#a854f3"/>
      <circle id="Elipse_9680-4" data-name="Elipse 9680" cx="3" cy="3" r="3" transform="translate(259 1074)" fill="#a854f3"/>
    </g>
    <g id="Grupo_1098714-2" data-name="Grupo 1098714" transform="translate(0 5396)">
      <circle id="Elipse_9675-5" data-name="Elipse 9675" cx="3" cy="3" r="3" transform="translate(180 1074)" fill="#a854f3"/>
      <circle id="Elipse_9676-5" data-name="Elipse 9676" cx="3" cy="3" r="3" transform="translate(195 1074)" fill="#a854f3"/>
      <circle id="Elipse_9677-5" data-name="Elipse 9677" cx="3" cy="3" r="3" transform="translate(212 1074)" fill="#a854f3"/>
      <circle id="Elipse_9678-5" data-name="Elipse 9678" cx="3" cy="3" r="3" transform="translate(227 1074)" fill="#a854f3"/>
      <circle id="Elipse_9679-5" data-name="Elipse 9679" cx="3" cy="3" r="3" transform="translate(244 1074)" fill="#a854f3"/>
      <circle id="Elipse_9680-5" data-name="Elipse 9680" cx="3" cy="3" r="3" transform="translate(259 1074)" fill="#a854f3"/>
    </g>
  </g>
</svg>
