<svg xmlns="http://www.w3.org/2000/svg" xmlns:xlink="http://www.w3.org/1999/xlink" width="505" height="187" viewBox="0 0 505 187">
  <defs>
    <clipPath id="clip-path">
      <rect id="Rectángulo_383163" data-name="Rectángulo 383163" width="505" height="187" rx="5" transform="translate(915 9193)" fill="#add3fd"/>
    </clipPath>
    <clipPath id="clip-path-2">
      <rect id="Rectángulo_383158" data-name="Rectángulo 383158" width="235.362" height="295.798" fill="none"/>
    </clipPath>
    <clipPath id="clip-path-4">
      <rect id="Rectángulo_383155" data-name="Rectángulo 383155" width="5.937" height="2.401" transform="translate(140.631 30.852)" fill="none"/>
    </clipPath>
    <clipPath id="clip-path-5">
      <rect id="Rectángulo_383156" data-name="Rectángulo 383156" width="2.169" height="1.86" transform="translate(129.586 34.468)" fill="none"/>
    </clipPath>
    <clipPath id="clip-path-6">
      <rect id="Rectángulo_383162" data-name="Rectángulo 383162" width="238.313" height="280.622" fill="none"/>
    </clipPath>
    <clipPath id="clip-path-8">
      <rect id="Rectángulo_383159" data-name="Rectángulo 383159" width="2.678" height="2.208" transform="translate(90.017 30.242)" fill="none"/>
    </clipPath>
    <clipPath id="clip-path-9">
      <rect id="Rectángulo_383160" data-name="Rectángulo 383160" width="6.922" height="2.334" transform="translate(74.625 28.806)" fill="none"/>
    </clipPath>
    <clipPath id="clip-path-10">
      <rect id="Rectángulo_383154" data-name="Rectángulo 383154" width="401.359" height="236.923" fill="none"/>
    </clipPath>
  </defs>
  <g id="Grupo_1074222" data-name="Grupo 1074222" transform="translate(-915 -9193)">
    <path id="Trazado_872942" data-name="Trazado 872942" d="M5,0H500a5,5,0,0,1,5,5V182a5,5,0,0,1-5,5H5a5,5,0,0,1-5-5V5A5,5,0,0,1,5,0Z" transform="translate(915 9193)" fill="#e8eefe"/>
    <g id="Enmascarar_grupo_167" data-name="Enmascarar grupo 167" clip-path="url(#clip-path)">
      <g id="Grupo_1074102" data-name="Grupo 1074102">
        <g id="Grupo_1074102-2" data-name="Grupo 1074102" transform="translate(-100.11 -1424.911)">
          <path id="Trazado_824546" data-name="Trazado 824546" d="M88.8,0l81.927,73.393,77.13-69.1,77.569,69.489L406.485,1.17,486.667,73,559.1,8.112,571.108,18.87,486.667,94.515,406.485,22.69,325.431,95.3,247.861,25.813l-77.13,69.1L88.8,21.516,12.014,90.307,0,79.553Z" transform="translate(987.2 10817.381)" fill="#0b47db"/>
          <path id="Trazado_824547" data-name="Trazado 824547" d="M88.8,16.8l81.927,73.388,77.13-69.091,77.569,69.485,81.054-72.611L486.667,89.8,559.1,24.9l12.009,10.762-84.441,75.645-80.182-71.83-81.054,72.611L247.861,42.6l-77.13,69.1L88.8,38.311,12.014,107.1,0,96.349Z" transform="translate(987.2 10726.414)" fill="#0b47db"/>
          <path id="Trazado_824548" data-name="Trazado 824548" d="M88.8,33.59l81.927,73.388,77.13-69.1,77.569,69.485,81.054-72.607,80.182,71.829L559.1,41.7l12.009,10.762-84.441,75.645L406.485,56.276l-81.054,72.611L247.861,59.4l-77.13,69.1L88.8,55.106,12.014,123.9,0,113.139Z" transform="translate(987.2 10635.447)" fill="#0b47db"/>
          <path id="Trazado_824549" data-name="Trazado 824549" d="M88.8,50.387l81.927,73.393,77.13-69.1,77.569,69.484,81.054-72.611,80.182,71.834L559.1,58.5l12.009,10.758L486.667,144.9l-80.182-71.83-81.054,72.611L247.861,76.195l-77.13,69.1L88.8,71.9l-76.79,68.8L0,129.94Z" transform="translate(987.2 10544.477)" fill="#0b47db"/>
          <path id="Trazado_824550" data-name="Trazado 824550" d="M88.8,67.182l81.927,73.393,77.13-69.1,77.569,69.485,81.054-72.611,80.182,71.83L559.1,75.29l12.009,10.758L486.667,161.7l-80.182-71.83-81.054,72.611L247.861,92.99l-77.13,69.1L88.8,88.693l-76.79,68.8L0,146.731Z" transform="translate(987.2 10453.511)" fill="#0b47db"/>
          <path id="Trazado_824551" data-name="Trazado 824551" d="M88.8,83.977l81.927,73.389,77.13-69.1,77.569,69.485,81.054-72.607,80.182,71.83L559.1,92.085l12.009,10.762-84.441,75.645-80.182-71.829-81.054,72.611-77.569-69.489-77.13,69.1L88.8,105.493l-76.79,68.791L0,163.526Z" transform="translate(987.2 10362.544)" fill="#0b47db"/>
        </g>
      </g>
      <g id="Grupo_1074101" data-name="Grupo 1074101">
        <g id="Grupo_1074090" data-name="Grupo 1074090" transform="translate(1165.321 9208)">
          <g id="Grupo_1074089" data-name="Grupo 1074089" clip-path="url(#clip-path-2)">
            <g id="Grupo_1074088" data-name="Grupo 1074088">
              <g id="Grupo_1074087" data-name="Grupo 1074087" clip-path="url(#clip-path-2)">
                <path id="Trazado_825256" data-name="Trazado 825256" d="M181.637,277.865v6.178h-4.476v-2.792a1.425,1.425,0,0,0-1.425-1.425H156.563a1.2,1.2,0,0,0-1.2,1.2v3.019h-5.206v-3.019a1.2,1.2,0,0,0-1.2-1.2H129.935a1.425,1.425,0,0,0-1.426,1.425v2.792h-4.476v-6.178a2.515,2.515,0,0,1,2.516-2.515h23.61V195.722h5.206V275.35h23.757a2.515,2.515,0,0,1,2.515,2.515" fill="#314fa5"/>
                <path id="Trazado_825257" data-name="Trazado 825257" d="M156.682,238.374h-7.838a.946.946,0,0,1-.946-.946V203.791h9.73v33.637a.946.946,0,0,1-.946.946" fill="#1c2b74"/>
                <path id="Trazado_825258" data-name="Trazado 825258" d="M133,288.039a6.666,6.666,0,1,1-6.665-6.665A6.665,6.665,0,0,1,133,288.039" fill="#171612"/>
                <path id="Trazado_825259" data-name="Trazado 825259" d="M126.333,291.857a3.818,3.818,0,1,1,3.817-3.817,3.821,3.821,0,0,1-3.817,3.817" fill="#5a554d"/>
                <path id="Trazado_825260" data-name="Trazado 825260" d="M159.5,288.039a6.666,6.666,0,1,1-6.665-6.665,6.665,6.665,0,0,1,6.665,6.665" fill="#171612"/>
                <path id="Trazado_825261" data-name="Trazado 825261" d="M152.835,291.857a3.818,3.818,0,1,1,3.817-3.817,3.821,3.821,0,0,1-3.817,3.817" fill="#5a554d"/>
                <path id="Trazado_825262" data-name="Trazado 825262" d="M186.1,288.039a6.665,6.665,0,1,1-6.665-6.665,6.665,6.665,0,0,1,6.665,6.665" fill="#171612"/>
                <path id="Trazado_825263" data-name="Trazado 825263" d="M179.432,291.857a3.818,3.818,0,1,1,3.817-3.817,3.821,3.821,0,0,1-3.817,3.817" fill="#5a554d"/>
                <path id="Trazado_825264" data-name="Trazado 825264" d="M235.125,81.644,206.836,199.492a8.459,8.459,0,0,1-8.225,6.484h-66.4A8.458,8.458,0,0,1,124,195.5L152.928,77.653a8.457,8.457,0,0,1,8.214-6.441H226.9a8.457,8.457,0,0,1,8.224,10.432" fill="#1c2b74"/>
                <path id="Trazado_825265" data-name="Trazado 825265" d="M227.817,81.644l-28.29,117.848a8.457,8.457,0,0,1-8.224,6.484h-66.4a8.459,8.459,0,0,1-8.214-10.475L145.62,77.653a8.457,8.457,0,0,1,8.214-6.441h65.759a8.458,8.458,0,0,1,8.224,10.432" fill="#314fa5"/>
                <path id="Trazado_825266" data-name="Trazado 825266" d="M191.3,200.231h-66.4a2.712,2.712,0,0,1-2.635-3.36L151.2,79.024a2.708,2.708,0,0,1,2.635-2.067h65.759a2.714,2.714,0,0,1,2.638,3.347l-28.29,117.848a2.7,2.7,0,0,1-2.638,2.079M153.834,77.717a1.949,1.949,0,0,0-1.9,1.488L123.01,197.052a1.954,1.954,0,0,0,1.9,2.42h66.4a1.946,1.946,0,0,0,1.9-1.5l28.29-117.847a1.953,1.953,0,0,0-1.9-2.41Z" fill="#1c2b74"/>
                <path id="Trazado_825267" data-name="Trazado 825267" d="M85.284,209.469H196.8a9.555,9.555,0,0,0,9.308-7.392l1.494-6.42H88.5Z" fill="#1c2b74"/>
                <path id="Trazado_825268" data-name="Trazado 825268" d="M86.812,209.469H189.629a9.557,9.557,0,0,0,9.309-7.392l1.494-6.42H86.812a6.906,6.906,0,0,0,0,13.812" fill="#314fa5"/>
                <path id="Trazado_825269" data-name="Trazado 825269" d="M137.622,81.039l-.77,3.071c-.259,1-.516,2.007-.789,3-.543,2-1.1,3.986-1.672,5.972-1.167,3.969-2.378,7.933-3.727,11.89s-2.767,7.923-4.438,11.917c-.835,2-1.724,4.01-2.736,6.063a48.936,48.936,0,0,1-3.726,6.435c-.406.579-.851,1.175-1.374,1.806a19.816,19.816,0,0,1-1.909,2.015,15.625,15.625,0,0,1-1.374,1.123,13.362,13.362,0,0,1-1.938,1.172,11.655,11.655,0,0,1-2.838.98,11.175,11.175,0,0,1-1.8.217l-.235.007h-.166l-.328-.005c-.225,0-.42-.018-.627-.033a13.7,13.7,0,0,1-3.834-.892,17.98,17.98,0,0,1-2.533-1.217,27.215,27.215,0,0,1-3.56-2.486,52.641,52.641,0,0,1-5.163-4.945c-1.526-1.65-2.934-3.305-4.289-4.971s-2.647-3.34-3.907-5.024-2.467-3.39-3.606-5.137-2.221-3.525-3.232-5.348q-.76-1.365-1.461-2.772c-.236-.467-.458-.944-.682-1.422-.113-.238-.224-.478-.329-.723l-.328-.755a5.885,5.885,0,0,1,9.316-6.732l.252.227c.342.306.718.664,1.065,1.009s.713.7,1.061,1.051q1.047,1.062,2.069,2.142,2.042,2.158,4,4.353c1.311,1.457,2.6,2.921,3.875,4.372s2.578,2.866,3.888,4.23,2.633,2.678,3.954,3.886a37.106,37.106,0,0,0,3.839,3.128,9.326,9.326,0,0,0,1.47.866c.159.066.269.091.211.047a2.3,2.3,0,0,0-.9-.219c-.081-.009-.151-.011-.249-.018l-.139,0-.212,0a6.33,6.33,0,0,0-2.475.584,5.331,5.331,0,0,0-.659.37c-.122.076-.2.141-.22.145-.06.036.018-.071.116-.227s.245-.385.4-.647c.3-.527.649-1.194.987-1.91s.686-1.493,1.019-2.3c.67-1.613,1.309-3.337,1.917-5.1,1.208-3.542,2.331-7.24,3.384-10.981s2.051-7.54,2.993-11.357c.476-1.907.948-3.818,1.4-5.732l.68-2.866.645-2.811.037-.164a10.1,10.1,0,0,1,19.7,4.517l-.048.2" fill="#eaad8f"/>
                <path id="Trazado_825270" data-name="Trazado 825270" d="M124.727,60.7a26.071,26.071,0,0,0-7.449,12.619c-2.333,9.181-8.2,26.683-8.2,26.683s16.03,10.033,22.932,9.783Z" fill="#467b6c"/>
                <path id="Trazado_825271" data-name="Trazado 825271" d="M107.813,118.754l2.866,1.158c.5.2.158.969-.343.767l-2.866-1.158c-.5-.2-.158-.969.343-.767" fill="#c6695d"/>
                <path id="Trazado_825272" data-name="Trazado 825272" d="M106.055,118.174a7.391,7.391,0,0,1,2.186,4.587.453.453,0,0,0,.9-.1,8.365,8.365,0,0,0-2.51-5.187c-.417-.408-.989.293-.576.7" fill="#c6695d"/>
                <path id="Trazado_825273" data-name="Trazado 825273" d="M52.993,259.053l-5.925,9.681-11.291-5,5.125-10.4Z" fill="#e9a48e"/>
                <path id="Trazado_825274" data-name="Trazado 825274" d="M.023,269.236l42.7,18.9a6.538,6.538,0,0,0,1.612-2.123c1.865-3.494,3.267-9.769,4.31-13.653.119-.455.237-.878.35-1.256a13.664,13.664,0,0,1,.53-1.541c1.313-2.966-1.538-3.62-1.538-3.62-6.2,2.324-8.277-6.2-12.057-5.376,0,0-1.62.337-6.362,1.886s-11.4,1.011-17.214.892c-7.509-.156-10.478,1.7-11.635,3.362a3.651,3.651,0,0,0-.7,2.527" fill="#c04d3a"/>
                <path id="Trazado_825275" data-name="Trazado 825275" d="M.023,269.236l42.7,18.9a6.538,6.538,0,0,0,1.612-2.123L.721,266.709a3.651,3.651,0,0,0-.7,2.527" fill="#7e231a"/>
                <path id="Trazado_825276" data-name="Trazado 825276" d="M38.369,286.21l1.268.561a10.252,10.252,0,0,1,.732-7.853,13.169,13.169,0,0,1,8.279-6.556c.119-.455.236-.877.349-1.256a14.31,14.31,0,0,0-9.623,7.311,11.332,11.332,0,0,0-1.005,7.793" fill="#7e231a"/>
                <path id="Trazado_825277" data-name="Trazado 825277" d="M29.18,265.3a.77.77,0,0,0,.783-1.312l-2.375-1.843a.769.769,0,0,0-.943,1.216l2.374,1.843a.805.805,0,0,0,.161.1" fill="#fff"/>
                <path id="Trazado_825278" data-name="Trazado 825278" d="M32.814,264.248a.77.77,0,0,0,.783-1.312l-2.375-1.843a.769.769,0,0,0-.943,1.216l2.374,1.843a.805.805,0,0,0,.161.1" fill="#fff"/>
                <path id="Trazado_825279" data-name="Trazado 825279" d="M25.826,265.665a.77.77,0,0,0,.783-1.312l-2.375-1.843a.769.769,0,0,0-.943,1.216l2.374,1.843a.805.805,0,0,0,.161.1" fill="#fff"/>
                <path id="Trazado_825280" data-name="Trazado 825280" d="M22.5,265.975a.77.77,0,0,0,.783-1.312l-2.375-1.843a.769.769,0,0,0-.943,1.216l2.374,1.843a.805.805,0,0,0,.161.1" fill="#fff"/>
                <path id="Trazado_825281" data-name="Trazado 825281" d="M18.98,266.066a.77.77,0,0,0,.783-1.312l-2.375-1.843a.769.769,0,0,0-.943,1.216l2.374,1.843a.807.807,0,0,0,.161.1" fill="#fff"/>
                <path id="Trazado_825282" data-name="Trazado 825282" d="M15.305,265.846a.77.77,0,0,0,.783-1.312l-2.375-1.843a.769.769,0,0,0-.943,1.216l2.374,1.843a.805.805,0,0,0,.161.1" fill="#fff"/>
                <path id="Trazado_825283" data-name="Trazado 825283" d="M133.463,185.739c-27.289,4.46-42.517,13.638-42.517,13.638s-9.676,22.361-15.427,30.568-18.934,34.267-18.934,34.267L36.72,255.724s2.047-5.083,5.279-12.851c.085-.2.167-.394.249-.594.9-2.155,1.885-4.506,2.941-7,.1-.23.193-.459.29-.691,1.949-4.61,4.124-9.7,6.419-14.955q.225-.519.452-1.037c1.986-4.547,4.054-9.21,6.139-13.8.106-.235.213-.466.319-.7,1.2-2.64,2.406-5.252,3.6-7.8l.3-.628c1.551-3.293,3.085-6.475,4.569-9.464q.185-.366.362-.725c2.416-4.829,4.7-9.135,6.741-12.568.125-.213.251-.423.374-.628a41.524,41.524,0,0,1,4.3-6.137c.157-.174.312-.336.461-.483.051-.051.107-.1.167-.155,2.5-2.152,12.677-5.615,24.743-7.422.386-.058.773-.113,1.164-.166h0c9.886-1.377,20.891-1.6,29.912.918a26.944,26.944,0,0,1-2.034,26.907" fill="#171612"/>
                <path id="Trazado_825284" data-name="Trazado 825284" d="M58.711,259.3a.564.564,0,0,1-.219-.044L39.05,251.169a.572.572,0,0,1,.439-1.056L58.931,258.2a.572.572,0,0,1-.22,1.1" fill="#5a554d"/>
                <path id="Trazado_825285" data-name="Trazado 825285" d="M55.443,257.661a.584.584,0,0,1-.211-.04.572.572,0,0,1-.32-.743c.04-.1,4.108-10.25,13.6-24.649,9.425-14.3,19.28-38.477,19.378-38.72a.572.572,0,0,1,1.06.431c-.1.243-10,24.521-19.483,38.918C60.039,247.16,56.014,257.2,55.975,257.3a.572.572,0,0,1-.532.361" fill="#5a554d"/>
                <path id="Trazado_825286" data-name="Trazado 825286" d="M191.038,160.13a.241.241,0,0,1-.053.032.044.044,0,0,1-.015.01c-.032.018-.06.038-.085.053a.7.7,0,0,0-.1.06.187.187,0,0,0-.038.02l-.082.05c-.015.007-.033.02-.048.027a.053.053,0,0,1,.015-.012c-.057.03-.1.055-.1.057s-.04.02-.062.033c-.228.132-.58.33-.783.445a.592.592,0,0,0-.057.03,55.567,55.567,0,0,1-6.058,2.89,61.382,61.382,0,0,1-7.252,2.435c-.455.125-.913.24-1.373.357l-.11.025q-2.28.563-4.58.953-.858.146-1.727.272c-2.065.3-4.138.51-6.2.628-.25.017-.5.03-.75.037-2.313.113-4.6.108-6.86,0L154,168.5l-.123-.007h0c-.373-.023-.743-.045-1.113-.078-1.225-.085-2.432-.212-3.627-.365-.418-.045-.83-.1-1.24-.167a60.948,60.948,0,0,1-12.54-3.148c-.278-.1-.553-.21-.828-.317-.2-.078-.395-.155-.592-.238l-.143-.057c-1.255-.52-2.457-1.083-3.595-1.677-.052-.028-.107-.056-.157-.081a34.747,34.747,0,0,1-4.16-2.58c.11-1.965.25-4.05.4-6.087v0c.035-.446.065-.888.1-1.326.093-1.237.185-2.44.28-3.567a.037.037,0,0,1,0-.015c.228-2.368.433-4.823.623-7.268,0-.047.007-.077.007-.077.065-.8.123-1.6.183-2.4.037-.495.072-.983.1-1.47v0c.332-4.677.6-9.12.767-12.627l0,0c.02-.4.04-.787.057-1.162.04-.858.075-1.645.1-2.353.065-1.527.1-3.012.13-4.46.03-1.415.037-2.792.032-4.132-.005-1.53-.03-3.02-.075-4.458-.012-.772-.045-1.532-.072-2.28v0c-.015-.345-.03-.688-.048-1.028-.015-.317-.03-.635-.05-.947l0,0c-.005-.075-.008-.15-.013-.225-.017-.352-.04-.705-.062-1.047-.07-1.17-.155-2.305-.243-3.413-.207-2.475-.462-4.79-.75-6.95-.047-.377-.1-.752-.15-1.122-.525-3.738-1.14-7-1.755-9.845-.07-.34-.14-.673-.215-1-1.367-6.167-2.665-10.3-2.862-13.14a8.286,8.286,0,0,1,.01-1.4,9.932,9.932,0,0,1,.407-2.093,7.962,7.962,0,0,1,.765-1.7,10.373,10.373,0,0,1,4.775-3.84c.228-.108.455-.21.69-.313.625-.275,1.273-.532,1.93-.8.233-.092.468-.187.708-.28.727-.287,1.465-.582,2.2-.9a.046.046,0,0,1,.02-.005c.555-.245,1.107-.505,1.65-.783.232-.12.46-.242.687-.367s.438-.245.648-.378c.272-.17.55-.35.817-.535a13,13,0,0,0,3.735-3.88.173.173,0,0,0,.028-.04c.122-.195.24-.4.357-.615l17.345-1.78a22.074,22.074,0,0,0,3.058,1.565c.22.1.452.195.7.3.14.055.28.107.425.167s.32.12.487.183c.09.032.193.067.288.1.612.215,1.287.428,2.017.628.28.075.57.15.87.222.238.058.48.113.728.163.137.032.277.06.417.087.225.048.448.09.685.135.468.083.953.16,1.455.223.263.037.528.067.795.1q.907.1,1.883.153a11.452,11.452,0,0,1,3.577.765c.24.092.475.192.71.3a12.076,12.076,0,0,1,2.275,1.388,13.055,13.055,0,0,1,1.15.992h0c.055.053.107.1.16.158.162.157.32.32.477.49.225.242.445.495.663.757a20.132,20.132,0,0,1,1.522,2.128c.163.26.32.525.475.8.138.24.273.485.4.738.11.2.215.41.317.62a40.4,40.4,0,0,1,3.088,9.18l0,.007q.345,1.564.628,3.245c.507,3.06,1.015,6.04,1.5,8.95.058.333.113.668.17,1l.545,3.282c.325,2.01.645,4,.945,5.958.058.405.123.807.183,1.217.135.908.245,1.728.337,2.508.24,1.99.383,3.71.635,5.97,0,0,3.69,45.222-1.672,57.985" fill="#467b6c"/>
                <path id="Trazado_825287" data-name="Trazado 825287" d="M189.311,134.813c-.007.257-.015.512-.022.77-.188,5.923-.643,12.013-1.45,18.145-.033.252-.065.5-.1.755-.213,1.562-.45,3.13-.71,4.695a.366.366,0,0,1-.323.3.288.288,0,0,1-.1,0,.361.361,0,0,1-.3-.417q.39-2.352.71-4.7c.035-.253.067-.505.1-.758.8-6.079,1.252-12.114,1.44-17.985.007-.257.015-.512.022-.767a237.782,237.782,0,0,0-6.74-62.035.367.367,0,0,1,.255-.448.359.359,0,0,1,.45.253,238.512,238.512,0,0,1,6.765,62.2" fill="#253f3d"/>
                <path id="Trazado_825288" data-name="Trazado 825288" d="M131.344,30.807s-3.6.91-4.79-1.766,1.78-5.1-2.178-7.6-7.887-8.471-3.821-12.282,6.212,1.559,9.426-3.144,4.8-5.266,9.581-5.94c4.676-.659,6.379,3.64,11.287,2.887s8.767,4.771,7.757,8.05c-1.419,4.605-1.62,3.887-1.015,7.68s-1.947,6.856-4.887,6.753-21.36,5.367-21.36,5.367" fill="#171612"/>
                <path id="Trazado_825289" data-name="Trazado 825289" d="M159.21,46.506c-.328,3.137-4.549,7.326-7.035,8.447a14.789,14.789,0,0,1-11.463.426l-1.161-6.006-.237-1.225-.449-2.324L151.66,33.495l.738-.712.5-.48.291.49.332.565-.027.269c2.162,5.633,2.772,9.087,5.718,12.879" fill="#e9a48e"/>
                <path id="Trazado_825290" data-name="Trazado 825290" d="M140.293,53.482a16.31,16.31,0,0,0,8.834-10.711c-2.442,2.875-5.618,5.049-8.808,5.341a8.555,8.555,0,0,1-1,.034Z" fill="#171612"/>
                <path id="Trazado_825291" data-name="Trazado 825291" d="M128.9,29.533a2.613,2.613,0,0,0-1.651,2.832c.1,2.334,1.968,5.9,4.173,4.99s-2.522-7.822-2.522-7.822" fill="#c6695d"/>
                <path id="Trazado_825292" data-name="Trazado 825292" d="M153.915,34.121l0,0-.084.023c-.016.205-.04.411-.068.617-.011.091-.023.18-.038.272-.059.374-.141.754-.24,1.138-1.543,5.953-7.693,12.712-13.645,13.033a9.312,9.312,0,0,1-1.017,0c-5.843-.34-8.392-6.481-8.6-11.421-.008-.186-.014-.371-.014-.554,0,0-.069-.329-.2-.9-.1-.456-.249-1.077-.425-1.809-.531-2.187-1.368-5.409-2.385-8.552-1.783-5.511.532-14.495,11.7-18.46,8.9-3.159,14.365,1.108,16.557,6.007a12.775,12.775,0,0,1,1.041,3.756,22.761,22.761,0,0,1-.129,5.1c1.1-.108,2.372.288,3.327,2.1,1.761,3.352-1.765,8.535-5.785,9.648" fill="#e9a48e"/>
                <path id="Trazado_825293" data-name="Trazado 825293" d="M156.373,22.371a10.325,10.325,0,0,1-3.218,2.045l-1.988,3.271L148.3,26.414s.7-3.609-1.229-4.461-1.4-3.21-1.4-3.21,6.891-5.043,9.786-5.229A12.759,12.759,0,0,1,156.5,17.27a22.753,22.753,0,0,1-.129,5.1" fill="#171612"/>
                <path id="Trazado_825294" data-name="Trazado 825294" d="M126.207,19.411s7.192-6.766,12.184-5.494a12.828,12.828,0,0,1,7.284,4.826s9.156.23,10.865-2.364-2.43-11.195-9.527-11.83-16.907,3.158-20.806,14.862" fill="#171612"/>
                <path id="Trazado_825295" data-name="Trazado 825295" d="M131.383,30.919c.233.79.755,1.333,1.165,1.212s.554-.86.321-1.65-.754-1.333-1.165-1.212-.554.86-.321,1.65" fill="#171612"/>
                <path id="Trazado_825296" data-name="Trazado 825296" d="M133.71,29.685a.215.215,0,0,0,.088-.1.217.217,0,0,0-.117-.285c-.093-.039-2.291-.936-3.743.621a.218.218,0,0,0,.319.3c1.246-1.337,3.236-.525,3.256-.516a.217.217,0,0,0,.2-.015" fill="#171612"/>
                <g id="Grupo_1074083" data-name="Grupo 1074083" opacity="0.5">
                  <g id="Grupo_1074082" data-name="Grupo 1074082">
                    <g id="Grupo_1074081" data-name="Grupo 1074081" clip-path="url(#clip-path-4)">
                      <path id="Trazado_825297" data-name="Trazado 825297" d="M140.64,32.768c.128.532,1.558.643,3.192.248s2.855-1.147,2.726-1.679-1.558-.643-3.192-.248-2.855,1.147-2.726,1.679" fill="#c6695d"/>
                    </g>
                  </g>
                </g>
                <g id="Grupo_1074086" data-name="Grupo 1074086" opacity="0.5">
                  <g id="Grupo_1074085" data-name="Grupo 1074085">
                    <g id="Grupo_1074084" data-name="Grupo 1074084" clip-path="url(#clip-path-5)">
                      <path id="Trazado_825298" data-name="Trazado 825298" d="M130.012,36.328c1.106-.409,1.834-.959,1.734-1.377s-.994-.573-2.16-.434c.177.734.321,1.353.426,1.811" fill="#c6695d"/>
                    </g>
                  </g>
                </g>
                <path id="Trazado_825299" data-name="Trazado 825299" d="M150.8,34.146a3.091,3.091,0,0,0,1.07.686,3.944,3.944,0,0,0,1.85.2c.015-.091.027-.182.038-.27.029-.208.052-.414.066-.619l.085-.023a4.119,4.119,0,0,1-.466.057,3.2,3.2,0,0,1-.8-.04,2.336,2.336,0,0,1-1.236-.618.436.436,0,0,0-.61.624" fill="#c6695d"/>
                <path id="Trazado_825300" data-name="Trazado 825300" d="M138.823,49.206a9.3,9.3,0,0,0,1.016,0c5.952-.322,12.1-7.081,13.644-13.033a1.9,1.9,0,0,0-1.609-1.34l-.706-7.146-2.87-1.274s-.9,6.692-3.035,7.432-7.3.957-9.2,2.634c0,0-3.823-.542-5.836,1.3.2,4.939,2.754,11.081,8.6,11.422" fill="#171612"/>
                <path id="Trazado_825301" data-name="Trazado 825301" d="M140.327,35.975s.76,3.794-2.335,4.794a3.336,3.336,0,0,1-4.226-2Z" fill="#fff"/>
                <path id="Trazado_825302" data-name="Trazado 825302" d="M138.985,42.018a1.742,1.742,0,0,0,.809-.826.292.292,0,0,0-.54-.224,1.187,1.187,0,0,1-1.156.648.292.292,0,1,0-.017.584,1.9,1.9,0,0,0,.9-.182" fill="#5f5f75"/>
                <path id="Trazado_825303" data-name="Trazado 825303" d="M154.235,31.024a.437.437,0,0,0,.258-.427c-.2-3.088,2.973-5.276,3.005-5.3a.436.436,0,0,0-.488-.723c-.148.1-3.625,2.486-3.387,6.078a.437.437,0,0,0,.464.407.46.46,0,0,0,.148-.037" fill="#c6695d"/>
                <path id="Trazado_825304" data-name="Trazado 825304" d="M157.475,28.425a.426.426,0,0,0,.137-.1.436.436,0,0,0-.012-.617,2.994,2.994,0,0,0-2.875-.595.436.436,0,0,0,.254.835A2.123,2.123,0,0,1,157,28.34a.435.435,0,0,0,.479.085" fill="#c6695d"/>
                <path id="Trazado_825305" data-name="Trazado 825305" d="M135.546,35.569a.436.436,0,0,0,0-.8l-2.674-1.162,1.89-1.092a.438.438,0,0,0,.211-.3l1.014-5.466a.436.436,0,1,0-.857-.159l-.978,5.268-2.465,1.424a.437.437,0,0,0,.044.778L135.2,35.57a.433.433,0,0,0,.351,0" fill="#c6695d"/>
                <path id="Trazado_825306" data-name="Trazado 825306" d="M141.555,25.052a1.2,1.2,0,0,0,.254-2.038c-.124-.1-3.067-2.367-6.093-.525a1.2,1.2,0,1,0,1.246,2.048,3.188,3.188,0,0,1,3.364.361,1.2,1.2,0,0,0,1.229.154" fill="#171612"/>
                <path id="Trazado_825307" data-name="Trazado 825307" d="M129.391,27.873a1.2,1.2,0,0,0,.672-.785c.264-.979,1.894-1.375,2.316-1.427a1.2,1.2,0,0,0-.294-2.38c-1.337.166-3.755,1.022-4.337,3.184a1.2,1.2,0,0,0,1.643,1.408" fill="#171612"/>
                <path id="Trazado_825308" data-name="Trazado 825308" d="M138.3,28.965c.233.79.755,1.333,1.165,1.212s.554-.86.321-1.65-.754-1.333-1.165-1.212-.554.86-.321,1.65" fill="#171612"/>
                <path id="Trazado_825309" data-name="Trazado 825309" d="M141.2,27.917a.218.218,0,0,0,.02-.388c-.087-.05-2.154-1.218-3.791.143a.218.218,0,1,0,.278.335c1.406-1.169,3.277-.111,3.295-.1a.22.22,0,0,0,.2.01" fill="#171612"/>
                <path id="Trazado_825310" data-name="Trazado 825310" d="M129.957,72.42a27.955,27.955,0,0,1-4.51,9.1c-.071-.342-.144-.675-.216-1a27.284,27.284,0,0,0,3.828-7.726,21.008,21.008,0,0,0-.734-14.441c.227-.108.455-.211.688-.312a21.621,21.621,0,0,1,.944,14.386" fill="#5fa68d"/>
                <path id="Trazado_825311" data-name="Trazado 825311" d="M183.956,59.473a27.562,27.562,0,0,1-9.6,11.164v0q-.924.612-1.89,1.147c-6.222,3.438-13.408,4.2-20.274,5.529-6.893,1.331-13.3,3.565-18.686,8.2a33.857,33.857,0,0,0-6.155,6.973c-.049-.379-.1-.754-.15-1.123a34.882,34.882,0,0,1,5.566-6.221,36.958,36.958,0,0,1,16.7-8.04c7.085-1.587,14.547-2.079,21.186-5.236a26,26,0,0,0,4-2.368,26.869,26.869,0,0,0,8.828-10.821c.163.26.321.525.477.8" fill="#5fa68d"/>
                <path id="Trazado_825312" data-name="Trazado 825312" d="M124.859,75.295c.052.247.459,2.228.981,5.039q.116.62.236,1.288c.806,4.471,1.78,10.447,2.141,15.037a.427.427,0,0,1-.756.3l-.009-.011c-.344-4.581-1.346-10.721-2.163-15.266a.268.268,0,0,1-.013-.08c-.641-3.529-1.162-6.083-1.178-6.151a.383.383,0,0,1,.3-.46.387.387,0,0,1,.46.3" fill="#253f3d"/>
                <path id="Trazado_825313" data-name="Trazado 825313" d="M151.8,70.348a57.552,57.552,0,0,1-1.567-10.084,31.545,31.545,0,0,1,.553-7.385s5.761-3.305,7.378-7.7c0,0,6.706.878,7.951,5.437,0,0-6.691,15.77-14.315,19.732" fill="#253f3d"/>
                <path id="Trazado_825314" data-name="Trazado 825314" d="M139.778,50.544s-4.108-.08-3.582,5.446c1.044,10.983,8.516,13.3,8.516,13.3l.949-5.8a36.516,36.516,0,0,0,.135-8.667s-5.471.219-6.018-4.282" fill="#253f3d"/>
                <path id="Trazado_825315" data-name="Trazado 825315" d="M149.1,62.365a1.173,1.173,0,1,1-1.286-1.047,1.172,1.172,0,0,1,1.286,1.047" fill="#253f3d"/>
                <path id="Trazado_825316" data-name="Trazado 825316" d="M149.176,67.044A1.173,1.173,0,1,1,147.89,66a1.173,1.173,0,0,1,1.286,1.047" fill="#253f3d"/>
                <path id="Trazado_825317" data-name="Trazado 825317" d="M149.44,71.242a1.173,1.173,0,1,1-1.286-1.047,1.172,1.172,0,0,1,1.286,1.047" fill="#253f3d"/>
                <path id="Trazado_825318" data-name="Trazado 825318" d="M152.3,97.987c-.149,2.89-3.149,5.218-4.974,7.124q-9.491,9.917-18.983,19.831c.021-.4.04-.788.058-1.162l3.4-3.549q6.768-7.068,13.529-14.136,1.758-1.834,3.516-3.671a11.023,11.023,0,0,0,2.376-3.231c.731-1.765-.031-3.5-1.994-3.762a8.551,8.551,0,0,0-3.588.517,52.38,52.38,0,0,0-17.167,9.122c-.015-.319-.03-.636-.049-.949l0,0a53.178,53.178,0,0,1,5.149-3.554,54.042,54.042,0,0,1,7.491-3.785c2.387-.978,5.212-2.279,7.855-2.137,1.872.1,3.488,1.334,3.382,3.345" fill="#5fa68d"/>
                <path id="Trazado_825319" data-name="Trazado 825319" d="M176.688,73.361c-5.1,2.5-10.128,5.7-13.194,10.62-2.73,4.381-3.756,10.057-1.212,14.759a11.82,11.82,0,0,0,4.513,4.678,12.333,12.333,0,0,0,6.475,1.265c2.621-.022,6.188.03,6.631,3.375.357,2.695-1.344,5.279-1.373,7.969-.051,4.747,5.48,8.2,9.758,6.328.449-.2.175-.911-.278-.713a6.293,6.293,0,0,1-6.664-1.255c-1.964-1.744-2.315-4.009-1.75-6.476.483-2.109,1.531-4.4.938-6.591a4.435,4.435,0,0,0-3.214-3.087c-2.093-.583-4.314-.173-6.449-.353a9.6,9.6,0,0,1-6.243-3.153c-3.7-4.018-3.744-9.772-1.485-14.52,2.744-5.764,8.272-9.4,13.825-12.133.438-.215.165-.931-.278-.713" fill="#5fa68d"/>
                <path id="Trazado_825320" data-name="Trazado 825320" d="M189.311,134.813c-.007.257-.015.512-.022.77-.245.015-.488.028-.73.032a18.569,18.569,0,0,1-4.225-.37,16.547,16.547,0,0,1-7.4-3.522c-2.632-2.245-4.47-5.23-6.327-8.108-1.91-2.96-3.97-5.962-6.955-7.945-3.49-2.312-7.42-2.252-11.133-.452a47.541,47.541,0,0,0-9.537,6.772,89.166,89.166,0,0,0-15.51,17.055c.037-.494.072-.982.1-1.47v0a89.987,89.987,0,0,1,16.092-17.147,41.208,41.208,0,0,1,9.19-6.2,11.312,11.312,0,0,1,9.55-.138,19,19,0,0,1,6.943,6.29c2.09,2.9,3.767,6.1,6.12,8.8a16,16,0,0,0,8.332,5.163,17.785,17.785,0,0,0,4.78.505c.245-.008.488-.017.73-.035" fill="#5fa68d"/>
                <path id="Trazado_825321" data-name="Trazado 825321" d="M190.47,160.46c-.227.131-.582.329-.785.445-6-3.241-12.95-5-19.549-2.445-3.433,1.33-7.267,4.175-7.835,8.079a5.82,5.82,0,0,0,.031,1.956q-.374.027-.75.039c-.542-2.886,1.084-5.679,3.14-7.6a16.958,16.958,0,0,1,8.689-4.161c5.989-1.056,11.858.79,17.059,3.692" fill="#5fa68d"/>
                <path id="Trazado_825322" data-name="Trazado 825322" d="M154.723,168.535c-.242-.011-.485-.025-.724-.038-.042,0-.083,0-.124-.008,1.831-3.588,3.509-8.181,2.3-12.013a5.591,5.591,0,0,0-5.927-3.813c-2.607.163-4.983,1.589-7.081,3.035a33.688,33.688,0,0,0-8.639,8.716c-.2-.078-.4-.155-.591-.235l-.142-.059c.285-.42.579-.832.881-1.24a31.963,31.963,0,0,1,11.528-9.863c4.152-1.967,9.658-1.338,10.85,3.8.881,3.807-.511,8.1-2.328,11.714" fill="#5fa68d"/>
                <path id="Trazado_825323" data-name="Trazado 825323" d="M187.838,153.728c-.033.253-.065.5-.1.755q-.36-.057-.72-.125a23.727,23.727,0,0,1-2.43-.585c-6.388-1.88-10.91-6.512-15.65-10.923a34.976,34.976,0,0,0-7.74-5.844,15.683,15.683,0,0,0-11.045-1.24,32.924,32.924,0,0,0-11.338,5.877,67.052,67.052,0,0,0-8.582,7.54q-2.077,2.172-3.955,4.51c.032-.445.065-.888.1-1.325a66.96,66.96,0,0,1,4.86-5.277c5.288-5.163,11.845-10.548,19.223-12.183,6.972-1.545,12.762,1.76,17.785,6.272,5.137,4.616,9.785,9.913,16.657,11.893q1.1.315,2.218.527c.24.048.477.088.72.128" fill="#5fa68d"/>
                <path id="Trazado_825324" data-name="Trazado 825324" d="M102.3,260.931l-2.037,15.278H87.917l.585-14.23Z" fill="#e9a48e"/>
                <path id="Trazado_825325" data-name="Trazado 825325" d="M57.49,295.8l46.7-.175a6.528,6.528,0,0,0,.6-2.6c.277-3.951-1.006-10.251-1.638-14.223-.077-.464-.142-.9-.194-1.289a13.919,13.919,0,0,1-.145-1.623c-.012-3.244-2.881-2.677-2.881-2.677-4.709,4.651-10.086-2.278-13.2.013,0,0-1.342.97-5.038,4.319s-9.992,5.575-15.351,7.841c-6.919,2.922-8.873,5.823-9.249,7.818a3.649,3.649,0,0,0,.393,2.592" fill="#c04d3a"/>
                <path id="Trazado_825326" data-name="Trazado 825326" d="M57.447,295.71h46.7a6.537,6.537,0,0,0,.614-2.594h-47.7a3.648,3.648,0,0,0,.384,2.594" fill="#7e231a"/>
                <path id="Trazado_825327" data-name="Trazado 825327" d="M99.382,295.71h1.387a10.249,10.249,0,0,1-2.51-7.478,13.171,13.171,0,0,1,4.917-9.345c-.075-.464-.139-.9-.189-1.29a14.311,14.311,0,0,0-5.84,10.58,11.334,11.334,0,0,0,2.235,7.533" fill="#7e231a"/>
                <path id="Trazado_825328" data-name="Trazado 825328" d="M82.515,280.3a.77.77,0,0,0,.185-1.517l-2.917-.724a.77.77,0,0,0-.372,1.494l2.917.724a.754.754,0,0,0,.187.023" fill="#fff"/>
                <path id="Trazado_825329" data-name="Trazado 825329" d="M85.413,277.877a.77.77,0,0,0,.185-1.517l-2.917-.724a.77.77,0,1,0-.371,1.494l2.917.724a.746.746,0,0,0,.186.023" fill="#fff"/>
                <path id="Trazado_825330" data-name="Trazado 825330" d="M79.6,282a.77.77,0,0,0,.185-1.517l-2.917-.724a.77.77,0,1,0-.371,1.494l2.917.724A.8.8,0,0,0,79.6,282" fill="#fff"/>
                <path id="Trazado_825331" data-name="Trazado 825331" d="M76.68,283.631a.769.769,0,0,0,.185-1.516l-2.918-.725a.77.77,0,1,0-.37,1.494l2.917.724a.746.746,0,0,0,.186.023" fill="#fff"/>
                <path id="Trazado_825332" data-name="Trazado 825332" d="M73.5,285.139a.77.77,0,0,0,.185-1.517l-2.917-.724a.77.77,0,1,0-.371,1.494l2.917.724a.746.746,0,0,0,.186.023" fill="#fff"/>
                <path id="Trazado_825333" data-name="Trazado 825333" d="M70.05,286.424a.77.77,0,0,0,.185-1.517l-2.917-.724a.77.77,0,1,0-.371,1.494l2.917.724a.8.8,0,0,0,.186.023" fill="#fff"/>
                <path id="Trazado_825334" data-name="Trazado 825334" d="M151.307,197.788c-26.463,0-39.038-2.554-39.038-2.554s-.636,23.366-1.868,33.223-6.518,38.26-6.518,38.26l-19.932,1.015s-.186-4.989-.3-12.708v0c0-.266-.007-.531-.012-.8-.031-2.23-.056-4.671-.065-7.273v0c0-.355,0-.71,0-1.073-.024-7.129.048-15.37.328-23.732v0c.015-.42.029-.843.046-1.263v0c.136-3.745.314-7.5.544-11.181.019-.3.039-.6.058-.9.155-2.37.333-4.7.536-6.982.02-.237.041-.476.063-.711,1.046-11.413,2.74-21.28,5.434-26.535.116-.224.232-.439.353-.647a7.784,7.784,0,0,1,2.481-2.842c5.745-3.541,12.621-5.537,21.319-6.938l1.044-.167c5.469-.836,11.647-1.459,18.7-2.092l.752-.07h0c4.371-.389,9.074-.788,14.146-1.245q.366-.032.737-.067,2.9-.261,5.972-.556s7.268-1.23,15.335-1.8c.282-.022.567-.041.853-.058,7.617-.49,15.745-.34,19.028,2.013,0,0,9.553,37.7-39.99,37.7" fill="#171612"/>
                <path id="Trazado_825335" data-name="Trazado 825335" d="M186.674,159.7a.567.567,0,1,0-1.123.152c.017.128,1.641,12.9-5.438,21.993-3.947,5.071-9.857,8.091-17.566,8.975-15.521,1.779-29.916.249-39.442-.764-7.688-.818-12.328-1.311-13.891.07-1.421,1.256-1.96,8.44-2.867,22.093-.912,13.736-3.111,35.828-5.937,47.846.355.141.956-.336,1.317-.21,2.875-12.118,4.833-33.723,5.751-47.561.389-5.848.724-10.9,1.132-14.726.553-5.182,1.086-6.355,1.355-6.592,1.189-1.051,6.409-.5,13.02.207,9.575,1.018,24.045,2.557,39.692.763,8.026-.92,14.195-4.087,18.336-9.412,7.371-9.478,5.734-22.293,5.661-22.834" fill="#5a554d"/>
                <path id="Trazado_825336" data-name="Trazado 825336" d="M84.359,261.785a.553.553,0,0,1-.539-.533.558.558,0,0,1,.507-.6l20.313-1.284a.546.546,0,0,1,.572.531.558.558,0,0,1-.507.6l-20.313,1.285h-.033" fill="#5a554d"/>
                <path id="Trazado_825337" data-name="Trazado 825337" d="M128.162,93.289s1.34-7,.548-9.273-.776-6.123-2.345-5.721-1.458,5.139-1.458,5.139Z" fill="#eaad8f"/>
                <path id="Trazado_825338" data-name="Trazado 825338" d="M186.639,78.021l-.808,3.221c-.271,1.054-.541,2.105-.828,3.15-.569,2.093-1.147,4.18-1.753,6.263-1.223,4.163-2.494,8.321-3.908,12.471s-2.9,8.309-4.655,12.5c-.876,2.1-1.808,4.206-2.87,6.359a51.154,51.154,0,0,1-3.907,6.749c-.426.607-.892,1.233-1.441,1.894a20.959,20.959,0,0,1-2,2.114,16.605,16.605,0,0,1-1.44,1.177,14.131,14.131,0,0,1-2.033,1.23,12.233,12.233,0,0,1-2.977,1.027,11.65,11.65,0,0,1-1.891.227l-.246.008h-.174l-.344,0c-.236,0-.44-.019-.658-.035a14.386,14.386,0,0,1-4.02-.935,18.841,18.841,0,0,1-2.658-1.277,28.494,28.494,0,0,1-3.732-2.607,54.983,54.983,0,0,1-5.416-5.187c-1.6-1.729-3.077-3.466-4.5-5.212s-2.776-3.5-4.1-5.27-2.587-3.555-3.781-5.388-2.33-3.7-3.39-5.609q-.8-1.431-1.533-2.906c-.247-.49-.48-.991-.715-1.492-.118-.249-.235-.5-.345-.759l-.343-.791a6.172,6.172,0,0,1,9.77-7.06l.264.238c.358.32.753.7,1.117,1.058s.748.73,1.112,1.1q1.1,1.114,2.17,2.247,2.142,2.263,4.2,4.564c1.375,1.529,2.724,3.064,4.064,4.586s2.7,3.006,4.077,4.437,2.762,2.808,4.148,4.075a38.838,38.838,0,0,0,4.025,3.28,9.83,9.83,0,0,0,1.542.909c.167.07.283.1.221.049a2.4,2.4,0,0,0-.938-.23c-.085-.009-.158-.011-.262-.018l-.145,0-.223,0a6.754,6.754,0,0,0-1.1.127,6.488,6.488,0,0,0-1.49.486,5.468,5.468,0,0,0-.691.389c-.128.079-.208.147-.231.151-.063.038.019-.075.122-.238s.256-.4.414-.679c.32-.552.681-1.251,1.035-2s.719-1.566,1.069-2.412c.7-1.691,1.373-3.5,2.01-5.353,1.267-3.715,2.446-7.593,3.55-11.516s2.151-7.908,3.139-11.911c.5-2,.994-4,1.468-6.012l.713-3,.676-2.949.04-.172a10.6,10.6,0,1,1,20.658,4.738c-.012.052-.038.156-.05.208" fill="#eaad8f"/>
                <path id="Trazado_825339" data-name="Trazado 825339" d="M155.375,117.575l3.006,1.214c.526.213.165,1.017-.36.805l-3.006-1.214c-.526-.213-.165-1.017.36-.805" fill="#c6695d"/>
                <path id="Trazado_825340" data-name="Trazado 825340" d="M153.531,116.967a7.752,7.752,0,0,1,2.292,4.811.475.475,0,0,0,.944-.1,8.772,8.772,0,0,0-2.632-5.44c-.437-.428-1.037.308-.6.732" fill="#c6695d"/>
                <path id="Trazado_825341" data-name="Trazado 825341" d="M127.729,100.145a6.719,6.719,0,0,1-9.091-2.009,16.438,16.438,0,0,0-3.814-4.093c-3.328-2.248-7.884-3.979-9.243-5.59-2.007-2.377,1.344-2.218,1.756-2.141a46.468,46.468,0,0,1,6.173,1.8s-5.625-3.864-8.261-4.39-3.762-2.669-1.021-3.584,9.824,2.051,11.564,3.4c0,0-2.855-3.278-6.4-4.109s-4.7-1.6-5.782-2.611,1.151-2.959,6.072-1.672a16.087,16.087,0,0,1,8.313,4.689,26.927,26.927,0,0,0-2.911-4.413c-2.039-2.6-6.215-3.232-6.63-5.165-.424-1.976,4.353-1.035,6.756.663s4.293,2.729,6.309,5.9A47.369,47.369,0,0,1,126.1,85.3c.75,2.19,4.444,9.627,3.414,12.8a4.118,4.118,0,0,1-1.787,2.044" fill="#eaad8f"/>
                <path id="Trazado_825342" data-name="Trazado 825342" d="M187.956,74.39A110.764,110.764,0,0,1,186.9,88.4c-.032.268-.07.533-.1.792-.752,5.55-1.6,9.723-1.6,9.723-1.922.045-5.437-.695-9.385-1.74-.247-.065-.5-.132-.747-.2-3.145-.855-6.513-1.878-9.53-2.837l-1.36-.435c-2.183-.705-4.12-1.356-5.565-1.845h0l-1.085-.373c-1.01-.347-1.6-.555-1.6-.555s.725-3.12,1.82-7.458c.065-.254.133-.515.2-.78.292-1.149.61-2.375.942-3.64q.1-.382.2-.77c2.233-8.415,5.148-18.317,7.025-20.525a7.348,7.348,0,0,1,1.29-1.177c.205-.147.418-.287.638-.418a10.725,10.725,0,0,1,1.245-.625,12.611,12.611,0,0,1,10.9.363c.21.11.415.232.615.36a10.7,10.7,0,0,1,2.68,2.41A13.559,13.559,0,0,1,184.5,60.17c.12.2.237.4.352.613a24.728,24.728,0,0,1,2.838,8.509,42.054,42.054,0,0,1,.26,4.388q.007.353.007.71" fill="#467b6c"/>
                <path id="Trazado_825343" data-name="Trazado 825343" d="M186.9,88.4c-.032.268-.07.533-.1.792a16.289,16.289,0,0,0-2.437.728,17.5,17.5,0,0,0-8.543,7.255c-.247-.065-.5-.132-.747-.2a18.367,18.367,0,0,1,8.752-7.645,17.024,17.024,0,0,1,3.08-.93" fill="#5fa68d"/>
                <path id="Trazado_825344" data-name="Trazado 825344" d="M184.851,60.783c-.35.087-.695.187-1.04.3-4.637,1.5-7.27,5.048-9.58,9.13-1.95,3.452-4.055,7.39-7.827,9.142a7.866,7.866,0,0,1-7.518-.3c.068-.255.135-.513.2-.77,3.038,2.325,7.448.765,9.978-1.785,3.115-3.143,4.57-7.465,7.225-10.945a14.908,14.908,0,0,1,8.21-5.388c.12.2.237.4.352.613" fill="#5fa68d"/>
                <path id="Trazado_825345" data-name="Trazado 825345" d="M187.956,74.39c-3.732-.348-7.14,2.617-9.182,5.622-2.078,3.053-3.495,6.53-5.9,9.36a15.333,15.333,0,0,1-7.34,4.771l-1.36-.435c4.54-.925,7.877-3.936,10.247-7.808,2.093-3.418,3.733-7.3,6.9-9.9a9.572,9.572,0,0,1,6.628-2.315q.007.353.007.71" fill="#5fa68d"/>
                <path id="Trazado_825346" data-name="Trazado 825346" d="M158.608,91.863h0l-1.085-.373c2.6-1.017,5.025-2.805,3.113-5.465a9.233,9.233,0,0,0-2.888-2.547c.065-.255.133-.515.2-.78a8.337,8.337,0,0,1,3.892,3.927c1.045,2.483-.912,4.18-3.227,5.238" fill="#5fa68d"/>
                <path id="Trazado_825347" data-name="Trazado 825347" d="M181.3,55.79c-.165.16-.33.32-.5.475-2.352,2.23-4.907,4.075-8.307,3.823a5.969,5.969,0,0,1-5.093-3.5c-.027-.057-.052-.112-.077-.17a9.032,9.032,0,0,1-.343-5.577c.238.057.48.112.728.162a8.21,8.21,0,0,0,.33,5.168c1.167,2.647,3.9,3.6,6.62,3a12.032,12.032,0,0,0,5.527-3.263c.213-.2.423-.4.633-.6.162.158.32.32.477.49" fill="#5fa68d"/>
                <path id="Trazado_825348" data-name="Trazado 825348" d="M187.2,78.036a74.592,74.592,0,0,1-2.441,20.638.375.375,0,0,0,.723.2,75.37,75.37,0,0,0,2.468-20.837.375.375,0,0,0-.75,0" fill="#253f3d"/>
              </g>
            </g>
          </g>
        </g>
        <g id="Grupo_1074100" data-name="Grupo 1074100" transform="translate(940.842 9208)">
          <g id="Grupo_1074099" data-name="Grupo 1074099" clip-path="url(#clip-path-6)">
            <g id="Grupo_1074098" data-name="Grupo 1074098">
              <g id="Grupo_1074097" data-name="Grupo 1074097" clip-path="url(#clip-path-6)">
                <path id="Trazado_825349" data-name="Trazado 825349" d="M165.65,56.222l-.368,1.607L164.91,59.4c-.253,1.042-.518,2.08-.785,3.115-.535,2.073-1.113,4.133-1.705,6.192-1.207,4.116-2.513,8.223-4.02,12.323-.75,2.05-1.54,4.108-2.423,6.162s-1.822,4.12-2.907,6.213c-.543,1.047-1.122,2.1-1.775,3.168s-1.358,2.147-2.193,3.259A24.927,24.927,0,0,1,146,103.3a17.63,17.63,0,0,1-2.37,1.83,15.394,15.394,0,0,1-1.592.887,13.751,13.751,0,0,1-2,.765,12.7,12.7,0,0,1-2.442.463c-.223.02-.445.033-.665.042s-.458.005-.685,0l-.168,0-.122-.007-.245-.013c-.165-.01-.32-.022-.47-.038a15.933,15.933,0,0,1-1.678-.247c-.517-.1-.98-.217-1.425-.34a27.326,27.326,0,0,1-4.38-1.685c-1.252-.6-2.38-1.223-3.452-1.853s-2.087-1.272-3.065-1.927c-1.953-1.313-3.78-2.658-5.555-4.025s-3.485-2.755-5.155-4.173-3.308-2.842-4.913-4.294-3.182-2.92-4.742-4.4-3.09-2.987-4.6-4.512l-2.259-2.3-1.118-1.172-1.147-1.218a9.342,9.342,0,0,1,13.487-12.929l.1.107,1.018,1.042,1.062,1.073,2.14,2.15c1.432,1.432,2.867,2.863,4.322,4.268s2.9,2.815,4.366,4.189,2.927,2.74,4.407,4.063c.737.665,1.48,1.315,2.22,1.96s1.483,1.282,2.222,1.9c1.485,1.24,2.976,2.43,4.446,3.5.729.54,1.452,1.055,2.157,1.523s1.382.887,2,1.224c.082.048.165.093.245.135.452-.512.935-1.13,1.415-1.8.487-.683.983-1.42,1.47-2.185.977-1.537,1.92-3.2,2.832-4.91s1.8-3.478,2.663-5.275c1.717-3.6,3.363-7.305,4.932-11.06.795-1.875,1.56-3.765,2.325-5.66l1.128-2.845.56-1.42.535-1.388.055-.142a6.184,6.184,0,0,1,11.795,3.615" fill="#eaad8f"/>
                <path id="Trazado_825350" data-name="Trazado 825350" d="M138.079,95.914a12.134,12.134,0,0,0-2.043-6.313c-.216-.326.315-.617.529-.294a12.739,12.739,0,0,1,2.119,6.62c.014.389-.59.375-.605-.013" fill="#c6695d"/>
                <path id="Trazado_825351" data-name="Trazado 825351" d="M139.777,93.914a12.339,12.339,0,0,0-2.469-2.51c-.306-.234.007-.752.317-.516a13.351,13.351,0,0,1,2.681,2.732c.23.314-.3.6-.529.294" fill="#c6695d"/>
                <path id="Trazado_825352" data-name="Trazado 825352" d="M158.307,39.541s.222-.007-.36-1.277c-.954-2.08.526-5.715-.67-6.857-1.6-1.53-2.659,1.781-4.221,8.353-.411,1.729.122,7.879.7,9.784.435,1.445.3,3.425,1.132,4.206,2.645,2.472,9.579,3.143,10.782,1.673,1.771-2.164,2.789-7.481,3.845-9.341s6.392-14.6,4.843-14.494-4.539,5.948-4.539,5.948,3.467-10.087,1.842-10.693c-1.533-.572-4.745,8.853-4.745,8.853s3.231-12.727.9-12.361c-1.163.183-4.4,11.551-4.4,11.551s1.63-7.515-1.563-7.7c-3.364-.188-4.958,3.388-4.958,3.388s.105,2.329,2.909.319c2.475-1.773-1.489,8.643-1.489,8.643" fill="#eaad8f"/>
                <path id="Trazado_825353" data-name="Trazado 825353" d="M169.523,40.761a.44.44,0,0,0-.042-.579,12.523,12.523,0,0,0-9.134-3.255.439.439,0,0,0,.074.875,11.846,11.846,0,0,1,8.444,3.007.44.44,0,0,0,.622-.006.362.362,0,0,0,.036-.042" fill="#c6695d"/>
                <path id="Trazado_825354" data-name="Trazado 825354" d="M163.006,49.584a.441.441,0,0,0,.028-.491c-2.682-4.507-.3-7.861-.278-7.894a.44.44,0,0,0-.705-.525l0,.007c-.113.155-2.743,3.861.233,8.861a.439.439,0,0,0,.6.153.432.432,0,0,0,.125-.111" fill="#c6695d"/>
                <path id="Trazado_825355" data-name="Trazado 825355" d="M53.725,262.689v6.178H58.2v-2.792a1.425,1.425,0,0,1,1.425-1.425H78.8a1.2,1.2,0,0,1,1.2,1.2v3.019H85.2v-3.019a1.2,1.2,0,0,1,1.2-1.2h19.026a1.425,1.425,0,0,1,1.426,1.425v2.792h4.476v-6.178a2.515,2.515,0,0,0-2.515-2.515H85.2V180.546H80v79.628H56.24a2.515,2.515,0,0,0-2.515,2.515" fill="#314fa5"/>
                <path id="Trazado_825356" data-name="Trazado 825356" d="M78.681,223.2h7.838a.946.946,0,0,0,.946-.946V188.615h-9.73v33.637a.946.946,0,0,0,.946.946" fill="#1c2b74"/>
                <path id="Trazado_825357" data-name="Trazado 825357" d="M102.364,272.863a6.666,6.666,0,1,0,6.665-6.665,6.665,6.665,0,0,0-6.665,6.665" fill="#171612"/>
                <path id="Trazado_825358" data-name="Trazado 825358" d="M109.03,276.681a3.818,3.818,0,1,0-3.817-3.817,3.821,3.821,0,0,0,3.817,3.817" fill="#5a554d"/>
                <path id="Trazado_825359" data-name="Trazado 825359" d="M75.862,272.863a6.666,6.666,0,1,0,6.665-6.665,6.665,6.665,0,0,0-6.665,6.665" fill="#171612"/>
                <path id="Trazado_825360" data-name="Trazado 825360" d="M82.527,276.681a3.818,3.818,0,1,0-3.817-3.817,3.821,3.821,0,0,0,3.817,3.817" fill="#5a554d"/>
                <path id="Trazado_825361" data-name="Trazado 825361" d="M49.265,272.863A6.666,6.666,0,1,0,55.93,266.2a6.665,6.665,0,0,0-6.665,6.665" fill="#171612"/>
                <path id="Trazado_825362" data-name="Trazado 825362" d="M55.931,276.681a3.818,3.818,0,1,0-3.817-3.817,3.821,3.821,0,0,0,3.817,3.817" fill="#5a554d"/>
                <path id="Trazado_825363" data-name="Trazado 825363" d="M.237,66.468,28.526,184.316a8.459,8.459,0,0,0,8.225,6.484h66.4a8.459,8.459,0,0,0,8.215-10.475L82.434,62.477a8.457,8.457,0,0,0-8.214-6.441H8.461A8.458,8.458,0,0,0,.237,66.468" fill="#1c2b74"/>
                <path id="Trazado_825364" data-name="Trazado 825364" d="M7.545,66.468,35.834,184.316a8.459,8.459,0,0,0,8.225,6.484h66.4a8.459,8.459,0,0,0,8.215-10.475L89.742,62.477a8.457,8.457,0,0,0-8.214-6.441H15.769A8.458,8.458,0,0,0,7.545,66.468" fill="#314fa5"/>
                <path id="Trazado_825365" data-name="Trazado 825365" d="M41.422,182.976,13.132,65.128a2.712,2.712,0,0,1,2.638-3.346H81.529a2.708,2.708,0,0,1,2.635,2.066L113.091,181.7a2.712,2.712,0,0,1-2.635,3.359H44.06a2.7,2.7,0,0,1-2.638-2.079M15.77,62.541a1.953,1.953,0,0,0-1.9,2.41L42.16,182.8a1.948,1.948,0,0,0,1.9,1.5h66.4a1.954,1.954,0,0,0,1.9-2.42L83.426,64.029a1.949,1.949,0,0,0-1.9-1.488Z" fill="#1c2b74"/>
                <path id="Trazado_825366" data-name="Trazado 825366" d="M150.079,194.293H38.565a9.557,9.557,0,0,1-9.309-7.392l-1.494-6.419h119.1Z" fill="#1c2b74"/>
                <path id="Trazado_825367" data-name="Trazado 825367" d="M148.55,194.293H45.733a9.557,9.557,0,0,1-9.309-7.392l-1.494-6.419H148.55a6.906,6.906,0,1,1,0,13.811" fill="#314fa5"/>
                <path id="Trazado_825368" data-name="Trazado 825368" d="M85.7,2.125s14.57,5.247,11.6,22.051c-3.237,18.308-6.327,35.006-3.869,44.92,0,0-42.077,3.683-50.123-7.854,0,0,12.085-18.946,12.6-31.507S57.03,3.124,67.656.78,85.7,2.125,85.7,2.125" fill="#171612"/>
                <path id="Trazado_825369" data-name="Trazado 825369" d="M106.385,146.409q-1.568.429-3.113.8c-.432.106-.86.208-1.289.306a118.622,118.622,0,0,1-40.694,2.232q-.68-.079-1.314-.166a73.807,73.807,0,0,1-9.089-1.721l-.041-.011a50.714,50.714,0,0,0,1.532-9.883c.063-1.125.108-2.218.142-3.257v0c.061-1.943.073-3.7.062-5.158v-.081c-.007-.979-.023-1.816-.041-2.473,6.447-1.222,18.335-3.358,29.356-4.719,7.994-.988,15.533-1.569,20.2-1.1l.265,1.737.4,2.565.333,1.92.726,4.2,2.512,14.488Z" fill="#eaad8f"/>
                <path id="Trazado_825370" data-name="Trazado 825370" d="M52.255,139.624s36.621,4.351,52.195-5.05c0,0,3.383,15.525,3.087,19.644-.711,9.868-55.992,7.684-57.387-1.966-.616-4.26,2.1-12.628,2.1-12.628" fill="#467b6c"/>
                <path id="Trazado_825371" data-name="Trazado 825371" d="M52.163,138.578a9.773,9.773,0,0,0-1.219,5.89s36.564,5.03,54.571-4.717a7.273,7.273,0,0,0-1.344-6.124s-14.142,9.62-52.008,4.951" fill="#253f3d"/>
                <path id="Trazado_825372" data-name="Trazado 825372" d="M102.76,125.481c-3.864.278-8.987.775-14.733,1.67-11.082,1.722-24.483,4.913-35.65,10.818.063-1.126.109-2.219.142-3.258v0c.062-1.943.074-3.7.063-5.158v-.081c-.007-.979-.023-1.816-.041-2.473,6.448-1.223,18.336-3.358,29.356-4.72,7.994-.988,15.534-1.569,20.2-1.1l.266,1.736Z" fill="#c6695d"/>
                <path id="Trazado_825373" data-name="Trazado 825373" d="M52.519,134.708v0c-6.305-.278-5.061-3.818-5.061-3.818l.046-.012,5.078-1.412v.081Z" fill="#32237f"/>
                <path id="Trazado_825374" data-name="Trazado 825374" d="M113.038,100.148a12.345,12.345,0,0,1-.149,1.255c-.028.169-.064.341-.1.514a12.6,12.6,0,0,1-.354,1.209c-.086.248-.182.5-.286.749a34.594,34.594,0,0,1-5.468,8.476c-.177.21-.346.4-.506.582s-.324.359-.468.511c-.233.245-.43.445-.579.587-.084.076-.155.144-.223.2-.192.177-.3.269-.3.269,0,.027,0,.05,0,.078q.012.3.031.625c.02.367.045.762.078,1.187q.05.705.129,1.518c.008.086.018.174.025.263l.008.093c.013.124.023.251.038.38.076.779.165,1.619.266,2.507.088.792.187,1.625.293,2.485l-.01,0h0a28.432,28.432,0,0,0-3.087-.719h-.005c-5.683-1.02-12.674-.779-19.855.119q-1.566.193-3.139.43c-.575.086-1.147.174-1.721.266l0,0c-3.626.582-7.234,1.3-10.683,2.062-.273.061-.546.122-.82.185-5.042,1.141-9.715,2.388-13.564,3.492-1.92.549-3.633,1.062-5.085,1.513l.007-.1q.121-1.595.2-3.115c.036-.7.063-1.384.086-2.059.01-.322.02-.64.028-.957q.052-2.106.023-4.071-.015-1.146-.061-2.247c-.013-.323-.025-.645-.043-.961-.046-.913-.1-1.8-.175-2.667,0-.04-.005-.078-.01-.119-.109-1.323-.281-2.793-.511-4.377q-.057-.4-.121-.812c-.62-4.056-1.592-8.79-2.834-13.711-.061-.243-.124-.486-.187-.731,0-.025-.013-.048-.018-.074-.245-.969-.506-1.948-.774-2.927-.076-.281-.155-.559-.236-.838-.042-.156-.088-.316-.131-.473-.033-.121-.071-.24-.1-.361-.1-.367-.207-.729-.316-1.1s-.208-.706-.311-1.058c-.188-.625-.377-1.25-.575-1.869-.01-.033-.02-.069-.03-.1-.063-.2-.127-.405-.192-.6s-.122-.385-.182-.577q-.615-1.917-1.276-3.788c-.258-.741-.5-1.488-.726-2.234-.045-.154-.091-.309-.134-.463-.071-.241-.139-.486-.2-.729-.059-.2-.112-.4-.162-.6v0c-.152-.594-.291-1.194-.418-1.791v0c-.061-.294-.119-.592-.177-.888v0c-.162-.891-.3-1.776-.39-2.652v0a27.746,27.746,0,0,1-.167-3.226c0-.286.006-.572.018-.853.013-.331.033-.66.061-.984.023-.245.048-.491.076-.734,0-.015,0-.025,0-.038.033-.253.068-.506.109-.754.02-.126.04-.25.063-.374l.073-.37c.026-.121.053-.242.079-.364v-.007c.023-.079.04-.16.058-.238.01-.038.02-.076.03-.117.028-.108.056-.217.086-.326.038-.144.079-.283.122-.425q.147-.479.321-.941c.008-.016.013-.033.02-.048.043-.112.089-.223.134-.334s.094-.221.14-.329.1-.228.159-.342c.1-.2.2-.407.309-.6.065-.117.129-.233.2-.347.053-.094.109-.182.167-.276.124-.2.253-.4.392-.587.066-.1.137-.192.208-.286.058-.073.116-.152.174-.225.021-.028.043-.053.066-.081.061-.073.122-.152.187-.225.17-.2.349-.4.537-.587.068-.071.139-.142.212-.213s.175-.167.266-.25.18-.16.273-.241.185-.157.281-.232c.063-.054.129-.1.195-.155a11.629,11.629,0,0,1,1.574-1.022c.075-.046.154-.088.232-.129s.165-.089.251-.129c.139-.071.283-.139.427-.205.046-.023.094-.043.14-.063.091-.041.177-.079.268-.117.4-.169.822-.323,1.262-.465.026-.01.053-.018.081-.028.117-.035.236-.071.355-.109.167-.048.336-.093.508-.139.423-.109.843-.215,1.26-.321s.827-.208,1.232-.3c5.139-1.252,9.461-2.044,11.047-2.323l.3-.053.136-.025a.045.045,0,0,0,.028,0c.033-.007.061-.012.086-.015a.065.065,0,0,0,.018,0l.053-.007.028-.005,2.1.316L83.154,54.59l.645.1,1.195.18.48.074,2.262.344c2.184.394,4.1.786,5.782,1.194.508.121,1,.245,1.462.372.339.088.665.179.982.273a25.47,25.47,0,0,1,4.757,1.827,11.316,11.316,0,0,1,2.36,1.619c.056.048.109.1.16.149a7.259,7.259,0,0,1,.544.572c.043.048.083.094.121.144a7.968,7.968,0,0,1,1.022,1.594c.061.127.124.253.18.385.116.263.22.534.311.81.038.106.073.215.109.329.053.174.106.351.154.533.051.2.1.4.147.608.053.23.1.468.152.711.013.058.023.116.033.177.025.134.048.271.071.41.02.114.038.227.055.344.008.05.018.106.026.159.088.582.167,1.194.24,1.84.017.174.038.349.061.528.015.147.03.3.048.446.015.167.035.336.053.508q.106.984.222,2.068a.821.821,0,0,0,.011.083c.015.147.03.3.05.448.008.083.018.169.028.253s.023.195.033.293c.015.137.03.276.048.415,0,.043.013.091.018.137.015.131.033.266.05.4.033.261.069.521.106.779q.138.952.307,1.9v0c.05.276.1.547.154.82.008.046.018.091.025.137v0c.018.089.033.175.053.264.271,1.4.585,2.788.921,4.149,1.481,6.009,3.371,9.873,4.132,13.428.051.25.1.5.139.743a12.785,12.785,0,0,1,.175,3.014" fill="#fff"/>
                <path id="Trazado_825375" data-name="Trazado 825375" d="M105.468,123.64a3.351,3.351,0,0,1-2.412,3.774l-.691-4.5a9.838,9.838,0,0,1,3.1.725" fill="#32237f"/>
                <path id="Trazado_825376" data-name="Trazado 825376" d="M106.138,67.336a63.662,63.662,0,0,1-9.769,2.092c-8.418,1.129-16.646.17-24.947-1.341-8.757-1.593-17.8-3.463-26.7-1.791a29.47,29.47,0,0,0-7.343,2.4c0-.286.005-.572.018-.853a29.974,29.974,0,0,1,6.887-2.229c8.2-1.6,16.57-.225,24.674,1.258,8.438,1.541,16.793,2.917,25.391,2.042a62.466,62.466,0,0,0,11.664-2.328c.025.134.048.271.07.41.021.114.038.228.056.344" fill="#dbccc1"/>
                <path id="Trazado_825377" data-name="Trazado 825377" d="M94.98,56.851a79.292,79.292,0,0,1-51.011-1.068c.076-.045.155-.088.233-.129s.165-.088.251-.129c.139-.071.283-.139.427-.205A78.3,78.3,0,0,0,58.237,58.8a77.629,77.629,0,0,0,35.281-2.318q.762.181,1.462.372" fill="#dbccc1"/>
                <path id="Trazado_825378" data-name="Trazado 825378" d="M107.133,75.691c-1.136.46-2.29.888-3.454,1.28a62.726,62.726,0,0,1-19.7,3.29c-7.449.032-14.619-1.708-21.916-2.958-7.361-1.26-14.663-1.468-21.846.837-.443.142-.883.291-1.32.451-.071-.241-.14-.486-.2-.729q1.036-.376,2.093-.691c6.753-2.019,13.627-1.88,20.529-.759,7.555,1.23,14.956,3.122,22.663,3.09a62.037,62.037,0,0,0,23.05-4.59c.033.26.068.521.106.779" fill="#dbccc1"/>
                <path id="Trazado_825379" data-name="Trazado 825379" d="M112.864,97.134a14.573,14.573,0,0,1-7.317-1.1,7.473,7.473,0,0,1-4.307-6.265,13.717,13.717,0,0,1,6.2-12.18c.051.276.1.547.155.82a13.094,13.094,0,0,0-5.63,10.5,6.962,6.962,0,0,0,4.729,6.8,14.762,14.762,0,0,0,6.032.686c.05.251.1.5.139.744" fill="#dbccc1"/>
                <path id="Trazado_825380" data-name="Trazado 825380" d="M112.431,103.126c-.086.248-.182.5-.286.749C98.28,100.168,86.251,91.692,72.616,87.312c-9.986-3.208-21.261-4.3-31.182-.953-.01-.033-.02-.069-.03-.1-.063-.2-.126-.4-.192-.6a40.8,40.8,0,0,1,9.916-2.024c15.019-1.207,28.816,5.333,41.957,11.714a113.662,113.662,0,0,0,19.346,7.783" fill="#dbccc1"/>
                <path id="Trazado_825381" data-name="Trazado 825381" d="M54.685,105.264q-3.716,2.684-7.644,5.045-.057-.4-.121-.812,2.915-1.761,5.718-3.709c2.287-1.589,8.985-5.359,6.179-8.891-1.06-1.336-2.981-1.792-4.6-1.964a27.02,27.02,0,0,0-5.84.033,28.32,28.32,0,0,0-4.3.82c-.061-.243-.124-.486-.187-.731a28.732,28.732,0,0,1,6.862-1.007c2.9-.074,7.75-.026,9.151,3.188,1.546,3.547-2.864,6.32-5.227,8.028" fill="#dbccc1"/>
                <path id="Trazado_825382" data-name="Trazado 825382" d="M106.677,112.351c-.177.21-.346.4-.506.582a35.5,35.5,0,0,1-6.472-4.109c-4.094-3.168-7.955-6.938-12.891-8.777-5.741-2.141-11.452-.322-16.619,2.459A116.258,116.258,0,0,0,47.78,118.433c-.013-.323-.025-.645-.043-.961q4.391-3.887,9.134-7.355a99.183,99.183,0,0,1,14.558-9.1c4.846-2.376,10.159-3.653,15.4-1.768,4.689,1.687,8.484,5.09,12.307,8.17a37.271,37.271,0,0,0,7.545,4.936" fill="#dbccc1"/>
                <path id="Trazado_825383" data-name="Trazado 825383" d="M66.966,125.8c-.273.061-.547.121-.82.185a7.675,7.675,0,0,0-8.327-4.762,19.119,19.119,0,0,0-10.029,4.488c.01-.321.02-.64.028-.956,4.42-3.408,11.588-6.467,16.35-2.733a8.537,8.537,0,0,1,2.8,3.778" fill="#dbccc1"/>
                <path id="Trazado_825384" data-name="Trazado 825384" d="M104.911,118.646a48.321,48.321,0,0,0-12.428.056,32.126,32.126,0,0,0-13.112,4.764c-.574.086-1.146.174-1.72.266a27.3,27.3,0,0,1,5.705-3.3c7-3.006,14.233-3.338,21.484-2.525.008.086.018.174.025.263l.008.093c.013.124.023.251.038.38" fill="#dbccc1"/>
                <path id="Trazado_825385" data-name="Trazado 825385" d="M69.676,115.468a.556.556,0,0,0,.74.255,31.93,31.93,0,0,1,20.241-1.617,34.636,34.636,0,0,0,13.976,1.1c-.013-.221-.024-.429-.03-.626l0-.078s.194-.165.523-.472a32.987,32.987,0,0,1-14.18-.995,32.472,32.472,0,0,0-21.012,1.693.553.553,0,0,0-.255.74" fill="#dbccc1"/>
                <path id="Trazado_825386" data-name="Trazado 825386" d="M96.189,241.354l-4.334,17.452,12.7.842,8.154-18.294Z" fill="#eaad8f"/>
                <path id="Trazado_825387" data-name="Trazado 825387" d="M136.659,280.622l-47.722-.559a6.675,6.675,0,0,1-.6-2.659c-.251-4.04,1.111-10.467,1.79-14.522.082-.473.152-.916.208-1.315a14.033,14.033,0,0,0,.162-1.658c.039-3.315,2.966-2.712,2.966-2.712,4.774,4.792,10.326-2.246,13.491.121,0,0,1.363,1,5.113,4.455s10.165,5.779,15.623,8.138c7.047,3.043,9.021,6.024,9.389,8.065a3.727,3.727,0,0,1-.423,2.646" fill="#e59f3f"/>
                <path id="Trazado_825388" data-name="Trazado 825388" d="M136.659,280.622l-47.722-.559a6.675,6.675,0,0,1-.6-2.659l48.742.572a3.727,3.727,0,0,1-.423,2.646" fill="#b56d25"/>
                <path id="Trazado_825389" data-name="Trazado 825389" d="M93.806,280.119l-1.418-.017a10.47,10.47,0,0,0,2.655-7.611,13.46,13.46,0,0,0-4.913-9.609c.082-.473.153-.916.209-1.316a14.622,14.622,0,0,1,5.841,10.881,11.583,11.583,0,0,1-2.374,7.672" fill="#b56d25"/>
                <path id="Trazado_825390" data-name="Trazado 825390" d="M111.228,264.579a.787.787,0,0,1-.171-1.552l2.99-.705a.786.786,0,0,1,.361,1.531l-2.99.705a.771.771,0,0,1-.19.021" fill="#fff"/>
                <path id="Trazado_825391" data-name="Trazado 825391" d="M108.535,262.239a.787.787,0,0,1-.171-1.552l2.99-.705a.786.786,0,1,1,.361,1.531l-2.99.7a.78.78,0,0,1-.19.021" fill="#fff"/>
                <path id="Trazado_825392" data-name="Trazado 825392" d="M114.188,266.347a.786.786,0,0,1-.17-1.552l2.989-.705a.786.786,0,1,1,.361,1.531l-2.99.7a.768.768,0,0,1-.19.021" fill="#fff"/>
                <path id="Trazado_825393" data-name="Trazado 825393" d="M117.15,268.048a.787.787,0,0,1-.171-1.552l2.99-.705a.786.786,0,1,1,.361,1.53l-2.99.706a.769.769,0,0,1-.19.021" fill="#fff"/>
                <path id="Trazado_825394" data-name="Trazado 825394" d="M120.383,269.627a.787.787,0,0,1-.171-1.552l2.99-.705a.786.786,0,1,1,.361,1.53l-2.99.706a.78.78,0,0,1-.19.021" fill="#fff"/>
                <path id="Trazado_825395" data-name="Trazado 825395" d="M123.892,270.982a.787.787,0,0,1-.171-1.552l2.99-.7a.786.786,0,0,1,.361,1.531l-2.99.7a.768.768,0,0,1-.19.021" fill="#fff"/>
                <path id="Trazado_825396" data-name="Trazado 825396" d="M102.274,214.943,94.281,245l16.2,2.878s3.7-5.053,8.924-12.61c.157-.228.315-.456.472-.687,3.282-4.76,7.117-10.445,10.994-16.456q.224-.345.447-.694c3.621-5.64,7.264-11.539,10.5-17.214.149-.263.3-.523.447-.783,5.659-9.99,10-19.2,10.706-24.912,2.284-18.466-39.053-32.674-39.053-32.674C88.961,142.3,81.128,176.3,81.128,176.3L115.1,181.5c-6.179,7.37-8.159,16.709-12.822,33.439" fill="#467b6c"/>
                <path id="Trazado_825397" data-name="Trazado 825397" d="M106.652,218.851c2.029-1.367,4.451-1.256,6.789-1.44a13.179,13.179,0,0,0,5.162-1.4,12.5,12.5,0,0,0,6.041-7.053c1.2-3.6.805-8.11,3.792-10.9a8.784,8.784,0,0,1,10.2-.906,9.991,9.991,0,0,1,3.179,3.057q.224-.395.447-.784a10.852,10.852,0,0,0-3.048-2.875,9.765,9.765,0,0,0-9.236-.5c-3.665,1.744-4.625,5.4-5.292,9.092a16.526,16.526,0,0,1-1.964,6,11.868,11.868,0,0,1-4.709,4.256c-3.716,1.858-8.3.4-11.775,2.745-.434.29-.024.995.41.7" fill="#5fa68d"/>
                <path id="Trazado_825398" data-name="Trazado 825398" d="M119.4,235.264c.157-.228.315-.456.472-.686a10.742,10.742,0,0,1-1.486-11.534,9.909,9.909,0,0,1,12.479-4.923q.225-.345.448-.694a10.707,10.707,0,0,0-13.63,5.205,11.591,11.591,0,0,0,1.717,12.632" fill="#5fa68d"/>
                <path id="Trazado_825399" data-name="Trazado 825399" d="M109.11,209.492a7.894,7.894,0,0,0,6.024-6.1c.642-3.021.409-5.853,2.614-8.293,2.082-2.3,5.086-3.472,7.252-5.674,1.3-1.317,2.42-3.3,1.99-5.212a3.27,3.27,0,0,0-3.945-2.588.407.407,0,0,1-.217-.785c3.013-.889,5.389,2.129,5,4.947-.527,3.789-4.126,5.746-6.951,7.729-1.888,1.326-3.616,2.9-4.224,5.2-.534,2.026-.365,4.184-1.088,6.171a8.666,8.666,0,0,1-6.451,5.416Z" fill="#5fa68d"/>
                <path id="Trazado_825400" data-name="Trazado 825400" d="M102.234,230.765c1.447-.93,3.051-1.927,4.848-1.754a3.288,3.288,0,0,1,2.992,2.263c1.013,3.594-5.052,7.3-1.355,10.525.395.345-.182.918-.576.575-1.979-1.724-1.49-4.5-.3-6.487.947-1.58,2.734-4.379.4-5.7-1.9-1.074-4.012.258-5.6,1.279-.442.285-.851-.419-.411-.7" fill="#5fa68d"/>
                <path id="Trazado_825401" data-name="Trazado 825401" d="M99.155,240.935a.626.626,0,0,1-.545-.836c.078-.218,7.889-21.909,11.784-37.6a51.358,51.358,0,0,1,14.35-24.268c-3.825-.358-10.135-1.689-10.441-1.753a.626.626,0,0,1,.259-1.224c.085.017,8.555,1.8,11.734,1.814a.625.625,0,0,1,.388,1.114A49.581,49.581,0,0,0,111.608,202.8C107.7,218.554,99.865,240.3,99.786,240.523a.626.626,0,0,1-.631.412" fill="#253f3d"/>
                <path id="Trazado_825402" data-name="Trazado 825402" d="M113.133,244.312a.621.621,0,0,1-.085-.012l-17.242-3.6a.625.625,0,1,1,.256-1.224l17.241,3.6a.625.625,0,0,1-.17,1.236" fill="#253f3d"/>
                <path id="Trazado_825403" data-name="Trazado 825403" d="M179.812,223.452l10.83,13.307,10.936-7.7-10.055-16.628Z" fill="#eaad8f"/>
                <path id="Trazado_825404" data-name="Trazado 825404" d="M238.313,224.892,201.27,254.984a6.688,6.688,0,0,1-2.159-1.661c-2.777-2.945-5.84-8.758-7.912-12.309-.24-.416-.468-.8-.681-1.144a13.907,13.907,0,0,0-.936-1.378c-2.09-2.573.545-3.982.545-3.982,6.735.631,6.5-8.33,10.449-8.535,0,0,1.689-.1,6.779.154s11.511-2.059,17.216-3.736c7.363-2.168,10.787-1.139,12.375.194a3.729,3.729,0,0,1,1.367,2.3" fill="#e59f3f"/>
                <path id="Trazado_825405" data-name="Trazado 825405" d="M238.313,224.892,201.27,254.984a6.688,6.688,0,0,1-2.159-1.661l37.835-30.736a3.729,3.729,0,0,1,1.367,2.3" fill="#b56d25"/>
                <path id="Trazado_825406" data-name="Trazado 825406" d="M205.049,251.914l-1.1.894a10.474,10.474,0,0,0-2.828-7.549,13.459,13.459,0,0,0-9.922-4.245c-.24-.416-.469-.8-.681-1.144a14.616,14.616,0,0,1,11.449,4.628,11.58,11.58,0,0,1,3.082,7.416" fill="#b56d25"/>
                <path id="Trazado_825407" data-name="Trazado 825407" d="M208.5,228.825a.787.787,0,0,1-1.124-1.084l1.847-2.454a.787.787,0,1,1,1.257.946l-1.848,2.454a.824.824,0,0,1-.132.138" fill="#fff"/>
                <path id="Trazado_825408" data-name="Trazado 825408" d="M204.935,228.749a.787.787,0,0,1-1.124-1.084l1.847-2.454a.787.787,0,1,1,1.257.946l-1.847,2.454a.792.792,0,0,1-.133.138" fill="#fff"/>
                <path id="Trazado_825409" data-name="Trazado 825409" d="M211.909,228.291a.787.787,0,0,1-1.124-1.084l1.847-2.454a.787.787,0,1,1,1.257.946l-1.847,2.454a.793.793,0,0,1-.133.138" fill="#fff"/>
                <path id="Trazado_825410" data-name="Trazado 825410" d="M215.274,227.7a.787.787,0,0,1-1.124-1.084L216,224.166a.786.786,0,1,1,1.256.945l-1.847,2.455a.791.791,0,0,1-.133.138" fill="#fff"/>
                <path id="Trazado_825411" data-name="Trazado 825411" d="M218.768,226.85a.787.787,0,0,1-1.124-1.084l1.847-2.454a.787.787,0,0,1,1.257.946l-1.847,2.454a.793.793,0,0,1-.133.138" fill="#fff"/>
                <path id="Trazado_825412" data-name="Trazado 825412" d="M222.333,225.647a.787.787,0,0,1-1.124-1.084l1.848-2.454a.786.786,0,1,1,1.256.946l-1.847,2.454a.83.83,0,0,1-.133.138" fill="#fff"/>
                <path id="Trazado_825413" data-name="Trazado 825413" d="M49.509,165.9a30.509,30.509,0,0,0,.6,3.013c1.7,6.7,5.824,12.98,14.981,14.8,22,4.372,62.576-13.142,62.576-13.142,5.366,10.872,18.19,25.24,31.945,37.426S184.5,230.5,184.5,230.5l14.184-9.068s-3.071-5.471-7.9-13.546c-.16-.266-.323-.537-.486-.811-2.433-4.058-5.284-8.726-8.392-13.66q-.277-.442-.559-.887c-1.638-2.593-3.347-5.254-5.1-7.931-.144-.222-.288-.442-.434-.662-7.522-11.454-15.844-23.156-23.219-31.293-.165-.185-.328-.364-.493-.543-.931-1.011-1.842-1.964-2.737-2.848-.206-.206-.412-.407-.616-.6-3.29-3.179-6.3-5.414-8.848-6.309a29.6,29.6,0,0,0-6.342-1.275c-.737-.079-1.508-.146-2.3-.2-.3-.021-.6-.04-.9-.057h0c-.64-.038-1.3-.067-1.975-.092-2.341-.081-4.871-.081-7.549-.013h0c-.372.008-.749.019-1.126.032-5.664.176-11.91.635-18.266,1.259-.363.032-.724.07-1.09.108h0c-3.84.383-7.711.825-11.506,1.294l-.808.1c-3.35.418-6.638.86-9.787,1.3l-.949.136C70.015,145.965,63.516,147,58.7,147.8h0c-.4.068-.781.13-1.153.192-4.619.779-7.41,1.291-7.41,1.291a49.593,49.593,0,0,0-.627,16.617" fill="#467b6c"/>
                <path id="Trazado_825414" data-name="Trazado 825414" d="M181.947,202.414a9.934,9.934,0,0,0,8.843,5.471c-.16-.266-.323-.537-.486-.811a8.631,8.631,0,0,1-2.506-.437,9.276,9.276,0,0,1-5.585-5.625,12.024,12.024,0,0,1-.3-7.6q-.277-.444-.559-.887a12.844,12.844,0,0,0,.594,9.887" fill="#5fa68d"/>
                <path id="Trazado_825415" data-name="Trazado 825415" d="M136.41,173.779c1.546-5.27,3.749-12.041,9.925-13.31,5.251-1.077,10.142,3.846,12.813,7.8a24.157,24.157,0,0,1,3.147,6.632c.613,2.065.862,4.215,1.456,6.285,1.039,3.6,3.565,6.507,7.633,5.9a8.841,8.841,0,0,0,4.866-2.488c-.143-.222-.287-.442-.434-.662a9.52,9.52,0,0,1-1.356,1.088c-2.482,1.633-5.959,1.986-8.105-.388-1.483-1.643-1.955-3.99-2.392-6.092a33.56,33.56,0,0,0-1.825-6.469,24.37,24.37,0,0,0-8.048-10.226c-3.7-2.664-8.116-3.163-11.875-.325-3.833,2.891-5.295,7.624-6.592,12.04a.409.409,0,0,0,.787.217" fill="#5fa68d"/>
                <path id="Trazado_825416" data-name="Trazado 825416" d="M141.985,183.575c.827-4.117,2.188-9.029,6.786-10.279,4.146-1.128,6.719,2.317,7.142,6.062.315,2.792-.393,5.653.36,8.4a11.773,11.773,0,0,0,4.609,6.029c3.791,2.84,8.584,4.381,11.7,8.093,2.574,3.07,3.5,8.215.258,11.169-.386.352-.963-.222-.575-.576,3.194-2.909,1.811-7.9-.836-10.661-2.939-3.062-7.037-4.546-10.452-6.96-3-2.119-5.427-4.9-5.8-8.677-.361-3.661,1.322-10.35-3.342-12.047-2.4-.873-5.072.584-6.486,2.505-1.531,2.078-2.077,4.671-2.575,7.153-.1.513-.888.3-.785-.216" fill="#5fa68d"/>
                <path id="Trazado_825417" data-name="Trazado 825417" d="M192.074,218.8a7.268,7.268,0,0,0-14.191-1.747c-.168.493-.954.281-.785-.217a8.08,8.08,0,0,1,15.79,1.964c.043.522-.771.519-.814,0" fill="#5fa68d"/>
                <path id="Trazado_825418" data-name="Trazado 825418" d="M130.354,140.806c1.82,3.662,4.042,7.09,7.937,8.8a12.882,12.882,0,0,0,11.077-.361c-.206-.206-.412-.407-.616-.6a12.068,12.068,0,0,1-11.213-.32c-2.932-1.655-4.774-4.468-6.282-7.465-.3-.022-.6-.041-.9-.057" fill="#5fa68d"/>
                <path id="Trazado_825419" data-name="Trazado 825419" d="M88.026,143.5a13.831,13.831,0,0,0,15.125,11.289c4.82-.336,9.881-1.972,14.408.529,4.023,2.224,6.431,6.562,7.842,10.785.165.494.952.282.786-.217a21.4,21.4,0,0,0-6.219-9.895c-3.4-2.807-7.421-3.144-11.656-2.634-4.717.567-9.382,1.457-13.63-1.286a13.263,13.263,0,0,1-5.848-8.674l-.808.1" fill="#5fa68d"/>
                <path id="Trazado_825420" data-name="Trazado 825420" d="M100.343,142.1a26.467,26.467,0,0,0,15.328,7.069,13.967,13.967,0,0,0,5.834-.215,3.261,3.261,0,0,0,2.255-3.515c-.171-1.877-1.614-3.4-2.873-4.679-.019-.019-.038-.041-.06-.06h0c-.372.009-.749.019-1.126.033,1.283,1.193,2.853,2.672,3.2,4.421.547,2.77-2.113,3.32-4.218,3.348a25.674,25.674,0,0,1-17.249-6.511c-.363.033-.724.071-1.09.109" fill="#5fa68d"/>
                <path id="Trazado_825421" data-name="Trazado 825421" d="M108.231,171.337a13.16,13.16,0,0,0-11.8-7.2c-4.939.1-9.694,2.689-14.484.3-3.959-1.977-6.462-6.006-10.492-7.874-4.6-2.129-10.6-.792-13.417,3.533a10.333,10.333,0,0,0-1.467,7.86c.675,2.91,2.863,5.073,4.52,7.452.3.431-.405.838-.7.411-1.555-2.233-3.549-4.257-4.4-6.9a10.82,10.82,0,0,1,.182-6.876A11.13,11.13,0,0,1,66.6,154.755c5.319-.1,8.661,3.45,12.413,6.652,2.2,1.879,4.6,3.3,7.574,3.3,3.016.007,5.908-1.083,8.9-1.334a13.964,13.964,0,0,1,13.443,7.549c.238.466-.464.878-.7.411" fill="#5fa68d"/>
                <path id="Trazado_825422" data-name="Trazado 825422" d="M88.825,175.613a18.9,18.9,0,0,0-10.927-5.8c-2.212-.333-4.836-.425-6.738.944s-2.575,4.484-.062,5.643c.475.219.062.921-.41.7a3.745,3.745,0,0,1-1.75-4.887c.94-2.206,3.325-3.2,5.578-3.376,5.525-.429,11.161,2.23,14.885,6.2.357.381-.217.958-.576.575" fill="#5fa68d"/>
                <path id="Trazado_825423" data-name="Trazado 825423" d="M57.546,147.994a16.753,16.753,0,0,0,8.607,3.114c4.641.312,10.323-1.758,12.086-6.309-.317.046-.634.089-.949.135-1.9,4.055-7.229,5.726-11.512,5.33A15.759,15.759,0,0,1,58.7,147.8h0c-.4.068-.781.131-1.153.193" fill="#5fa68d"/>
                <path id="Trazado_825424" data-name="Trazado 825424" d="M144.135,193.542a.627.627,0,0,1-.339-.129c-10-7.75-15.379-19.049-16.641-21.938-5.235,3.033-21.264,7.752-21.974,7.96a.625.625,0,1,1-.352-1.2c.18-.053,18.034-5.308,22.265-8.2a.625.625,0,0,1,.935.289c.052.133,5.325,13.409,16.533,22.1a.625.625,0,0,1-.427,1.118" fill="#253f3d"/>
                <path id="Trazado_825425" data-name="Trazado 825425" d="M181.435,227.416a.625.625,0,0,1-.3-1.146l14.436-9.492a.625.625,0,1,1,.687,1.045l-14.435,9.492a.626.626,0,0,1-.387.1" fill="#253f3d"/>
                <path id="Trazado_825426" data-name="Trazado 825426" d="M184.919,225.037a.631.631,0,0,1-.884,0c-.238-.239-23.849-23.622-35.239-33.7-10.283-9.1-16.5-23.222-17.759-26.263-4.221,1.664-30.53,11.674-54.986,13.016-11.067.611-18.017-2.622-21.9-5.439a22.543,22.543,0,0,1-4.044-3.741,30.492,30.492,0,0,1-.6-3.017,14.811,14.811,0,0,0,1.164,1.718,21.218,21.218,0,0,0,4.283,4.075c3.709,2.675,10.371,5.743,21.031,5.159,26.328-1.45,54.874-13.043,55.158-13.159a.61.61,0,0,1,.485,0,.619.619,0,0,1,.338.35c.061.161,6.373,16.376,17.66,26.359,11.413,10.1,35.05,33.508,35.288,33.743a.63.63,0,0,1,0,.888" fill="#253f3d"/>
                <path id="Trazado_825427" data-name="Trazado 825427" d="M93.073,24.673a2.98,2.98,0,0,1,2.344,2.914c.288,2.648-1.218,6.987-3.859,6.338s1.515-9.252,1.515-9.252" fill="#c6695d"/>
                <path id="Trazado_825428" data-name="Trazado 825428" d="M85.581,36.764a5.761,5.761,0,1,1,4.875,6.528,5.767,5.767,0,0,1-4.875-6.528m1.032.15a4.718,4.718,0,1,0,5.346-3.993,4.723,4.723,0,0,0-5.346,3.993" fill="#fff"/>
                <line id="Línea_266" data-name="Línea 266" y2="0.002" transform="translate(84.941 44.814)" fill="#eaad8f"/>
                <path id="Trazado_825429" data-name="Trazado 825429" d="M62.824,51.2a16.294,16.294,0,0,0,10.934,7.972c9.73,1.828,10.971-2.313,10.971-2.313a15.357,15.357,0,0,1-.514-3.723q-.031-.8-.007-1.655a45.132,45.132,0,0,1,.506-5.191c.066-.456.139-.931.219-1.419l.008-.058c-6.712-1.894-12.132-5.138-15.716-10.3l-.992-.65-.667-.44-.143.39.076,1.266c.375,5.95-1.17,10.8-4.675,16.122" fill="#eaad8f"/>
                <path id="Trazado_825430" data-name="Trazado 825430" d="M78.69,69.4a5.423,5.423,0,0,0,.633.047,5.48,5.48,0,0,0,4.6-2.011c3.155-3.955,1.178-12.349,1.092-12.7a.527.527,0,1,0-1.024.247c.02.082,1.943,8.249-.892,11.8a4.421,4.421,0,0,1-3.765,1.613C72.429,68.3,63.549,51.384,63.46,51.213a.526.526,0,1,0-.934.486c.364.7,8.784,16.717,16.164,17.7" fill="#e59f3f"/>
                <path id="Trazado_825431" data-name="Trazado 825431" d="M73.7,39.926c1.3,3.3,4.375,9.162,10.508,11.558a44.89,44.89,0,0,1,.5-5.191c.067-.456.14-.931.219-1.419-.134.01-.272.016-.41.019-3.7.087-7.636-1.988-10.822-4.967" fill="#171612"/>
                <path id="Trazado_825432" data-name="Trazado 825432" d="M59.737,23.307c-.388,3.665,2.239,8.481,7.018,9.121l.025,0h0l.1.014c.055.219.122.436.194.657.03.1.062.192.095.288a.184.184,0,0,0,.011.026C69.509,39.959,77.991,44.561,82.775,45.2a11.027,11.027,0,0,0,3.279-.077c5.2-.566,6.881-7.337,6.641-12.673a20.22,20.22,0,0,0-.224-2.208l-.024-.143s2.483-7.166,3.222-10.329C97.1,13.64,94.2,6.951,80.711,4.266S63.058,9.691,61.625,14.075c-.241.73-.561,5.2.107,6a3.659,3.659,0,0,0-1.995,3.236" fill="#eaad8f"/>
                <path id="Trazado_825433" data-name="Trazado 825433" d="M83.77,27.329a.537.537,0,0,1-.439-.465c-.063-.527-.378-1.682-.949-1.884a2.773,2.773,0,0,0-1.9.306.535.535,0,1,1-.532-.929,3.8,3.8,0,0,1,2.792-.387c1.352.479,1.629,2.537,1.657,2.77a.535.535,0,0,1-.626.589" fill="#171612"/>
                <path id="Trazado_825434" data-name="Trazado 825434" d="M88.378,28.669a.548.548,0,0,1-.148-.049.535.535,0,0,1-.237-.719c.085-.17.87-1.66,2.058-1.648a3.022,3.022,0,0,1,2.028,1.071.535.535,0,0,1-.817.692,1.989,1.989,0,0,0-1.222-.692c-.391,0-.9.687-1.091,1.059a.535.535,0,0,1-.571.286" fill="#171612"/>
                <path id="Trazado_825435" data-name="Trazado 825435" d="M81.987,32.51s-.958,4.229,2.481,5.436a3.737,3.737,0,0,0,4.79-2.118Z" fill="#fff"/>
                <path id="Trazado_825436" data-name="Trazado 825436" d="M83.319,39.318a1.945,1.945,0,0,1-.882-.948.327.327,0,0,1,.611-.235,1.331,1.331,0,0,0,1.276.758.327.327,0,1,1,0,.654,2.134,2.134,0,0,1-1.008-.229" fill="#c6695d"/>
                <path id="Trazado_825437" data-name="Trazado 825437" d="M66.755,32.428l.025,0h0l.1.015c.055.218.122.435.194.656.03.1.062.192.095.288a.154.154,0,0,0,.011.027,4.439,4.439,0,0,0,1.929-.537,3.508,3.508,0,0,0,1.089-.955.5.5,0,0,0-.794-.6,2.676,2.676,0,0,1-1.289.907,3.6,3.6,0,0,1-.893.179,4.458,4.458,0,0,1-.47.016" fill="#c6695d"/>
                <g id="Grupo_1074093" data-name="Grupo 1074093" opacity="0.5">
                  <g id="Grupo_1074092" data-name="Grupo 1074092">
                    <g id="Grupo_1074091" data-name="Grupo 1074091" clip-path="url(#clip-path-8)">
                      <path id="Trazado_825438" data-name="Trazado 825438" d="M90.019,31.1c-.048.545,1.1,1.1,2.675,1.347a19.761,19.761,0,0,0-.224-2.208c-1.383.029-2.408.363-2.451.861" fill="#c6695d"/>
                    </g>
                  </g>
                </g>
                <path id="Trazado_825439" data-name="Trazado 825439" d="M61.869,29.745c.278.26.553.523.838.775a4.715,4.715,0,1,0,2.7-.16,1.137,1.137,0,0,1-.53-1.144c.089.009.179.019.268.032a5.781,5.781,0,1,1-3.279.5" fill="#fff"/>
                <path id="Trazado_825440" data-name="Trazado 825440" d="M86.631,32.485a.414.414,0,0,0,.231-.033l1.983-.894a.417.417,0,0,0,.077-.715,6.014,6.014,0,0,1-2.35-4.5.417.417,0,1,0-.829.091,6.942,6.942,0,0,0,2.147,4.643l-1.371.619a.417.417,0,0,0,.112.793" fill="#c6695d"/>
                <path id="Trazado_825441" data-name="Trazado 825441" d="M83.846,20.169a1.014,1.014,0,0,0,.885-1.783,2.938,2.938,0,0,0-1.993-.532,7.354,7.354,0,0,0-5.62,3.351s3.659-1.366,5.608-1.227a5.645,5.645,0,0,1,1.12.191" fill="#171612"/>
                <path id="Trazado_825442" data-name="Trazado 825442" d="M89.674,21.195a1.014,1.014,0,0,1-.343-1.961,2.942,2.942,0,0,1,2.062.055c3.592,1.311,3.449,3.992,3.449,3.992A13.466,13.466,0,0,0,90.8,21.33a5.684,5.684,0,0,0-1.129-.135" fill="#171612"/>
                <g id="Grupo_1074096" data-name="Grupo 1074096" opacity="0.5">
                  <g id="Grupo_1074095" data-name="Grupo 1074095">
                    <g id="Grupo_1074094" data-name="Grupo 1074094" clip-path="url(#clip-path-9)">
                      <path id="Trazado_825443" data-name="Trazado 825443" d="M81.546,30.277c-.055.622-1.648.99-3.559.822s-3.415-.808-3.36-1.43,1.648-.991,3.558-.823,3.416.809,3.361,1.431" fill="#c6695d"/>
                    </g>
                  </g>
                </g>
                <path id="Trazado_825444" data-name="Trazado 825444" d="M67.511,29.617a.5.5,0,0,1-.364-.438c-.294-3.518-4.25-5.446-4.29-5.465a.5.5,0,0,1,.428-.9C63.469,22.9,67.8,25,68.138,29.1a.5.5,0,0,1-.627.521" fill="#c6695d"/>
                <path id="Trazado_825445" data-name="Trazado 825445" d="M63.414,27.237a.517.517,0,0,1-.171-.085.5.5,0,0,1-.091-.7,3.414,3.414,0,0,1,3.142-1.16.5.5,0,0,1-.145.985,2.422,2.422,0,0,0-2.209.781.5.5,0,0,1-.526.177" fill="#c6695d"/>
                <path id="Trazado_825446" data-name="Trazado 825446" d="M78.956,11.549a6.306,6.306,0,0,1-3.164,5.831,18.872,18.872,0,0,1-4.586,1.9s3.358,11.1-.833,12.215-2.488-10.469-8.641-11.42c0,0-2.181-.7-1.549-4.573S65.156,1.286,78.715,2.906c10.171,1.215,18.616,7.617,18.23,14.8s-1.777,5.623-1.777,5.623,1.153-4.084-3.435-7.714c-3.806-3.011-12.777-4.065-12.777-4.065" fill="#171612"/>
                <path id="Trazado_825447" data-name="Trazado 825447" d="M84.055,122.916c5.53-.32,10.988-.014,16.476-1.014.478-.087.669.649.187.736-5.553,1.012-11.082.714-16.679,1.038-.487.028-.47-.732.016-.76" fill="#c6695d"/>
                <path id="Trazado_825448" data-name="Trazado 825448" d="M65.423,110.141c.015.014.029.03.044.045v0a.454.454,0,0,0-.049-.049c0-.005-.026-.023-.017-.015Z" fill="#eaad8f"/>
                <path id="Trazado_825449" data-name="Trazado 825449" d="M65.5,110.23v0h0l0,0" fill="#eaad8f"/>
                <path id="Trazado_825450" data-name="Trazado 825450" d="M57.147,62.7l1.38,2.672q.707,1.377,1.437,2.754,1.444,2.755,2.933,5.486,1.473,2.733,3.008,5.4c1.009,1.786,2.037,3.549,3.09,5.268s2.113,3.409,3.2,5.028S74.38,92.491,75.48,93.9c.549.708,1.1,1.379,1.634,1.989s1.054,1.162,1.514,1.607l.171.165.159.146c.11.107.2.177.295.263s.164.135.244.21l.09.072c.029.025.061.055.073.063a.317.317,0,0,1,.049.048s.044.028.068.043l.085.052c.1.068.256.146.394.223s.316.16.472.242l.532.25c1.494.674,3.322,1.337,5.19,1.961q1.409.468,2.871.91c.973.3,1.955.6,2.949.881q2.981.859,6.042,1.648c2.036.525,4.084,1.063,6.146,1.569,4.124,1.008,8.28,2.009,12.454,2.97l12.515,2.889.037.008a6.407,6.407,0,0,1-1.631,12.647c-1.136-.034-2.218-.084-3.323-.131l-3.291-.177c-2.194-.12-4.382-.288-6.575-.449-4.379-.352-8.763-.753-13.156-1.28-2.2-.263-4.4-.523-6.607-.846s-4.423-.664-6.656-1.049q-1.674-.287-3.367-.613t-3.41-.722a69,69,0,0,1-7.175-1.973l-.977-.347c-.341-.131-.668-.251-1.02-.4s-.7-.285-1.077-.461l-.279-.127c-.1-.045-.175-.078-.294-.139l-.664-.341c-.228-.116-.425-.23-.627-.346l-.6-.352c-.365-.231-.755-.472-1.094-.706s-.694-.476-1-.711l-.478-.356-.451-.355a41.14,41.14,0,0,1-3.212-2.837c-.969-.945-1.862-1.887-2.714-2.829a103.406,103.406,0,0,1-8.735-11.388q-1.933-2.878-3.727-5.778T43.862,84.2q-1.665-2.949-3.236-5.935-.779-1.5-1.542-3.013l-.75-1.53-.375-.777-.389-.83a10.862,10.862,0,0,1,19.477-9.612Z" fill="#eaad8f"/>
                <path id="Trazado_825451" data-name="Trazado 825451" d="M74.531,103.487a12.123,12.123,0,0,1,4.78-4.6c.344-.185.014-.692-.327-.509a12.721,12.721,0,0,0-4.992,4.837c-.2.336.343.609.539.274" fill="#c6695d"/>
                <path id="Trazado_825452" data-name="Trazado 825452" d="M73.978,100.923a12.341,12.341,0,0,1,3.361-1.048c.38-.062.349-.666-.037-.6a13.324,13.324,0,0,0-3.653,1.144c-.35.167-.018.674.329.508" fill="#c6695d"/>
              </g>
            </g>
          </g>
        </g>
        <g id="Grupo_1074080" data-name="Grupo 1074080" transform="translate(964.641 9258)">
          <g id="Grupo_1074079" data-name="Grupo 1074079" clip-path="url(#clip-path-10)">
            <path id="Trazado_825224" data-name="Trazado 825224" d="M49.257,186.45H14.909a2.116,2.116,0,0,1-2.116-2.117v-.323a2.116,2.116,0,0,1,2.116-2.117H49.257a2.117,2.117,0,0,1,2.117,2.117v.323a2.117,2.117,0,0,1-2.117,2.117" fill="#171612"/>
            <path id="Trazado_825225" data-name="Trazado 825225" d="M398.81,236.923a2.683,2.683,0,0,1-2.417-2.219L356.716,83.121a3.5,3.5,0,0,1,1.613-4.1c1.334-.566,2.777.352,3.222,2.051l39.677,151.584a3.5,3.5,0,0,1-1.613,4.1,2.056,2.056,0,0,1-.8.167" fill="#171612"/>
            <path id="Trazado_825226" data-name="Trazado 825226" d="M385.325,186.45H350.977a2.117,2.117,0,0,1-2.117-2.117v-.323a2.117,2.117,0,0,1,2.117-2.117h34.348a2.117,2.117,0,0,1,2.117,2.117v.323a2.117,2.117,0,0,1-2.117,2.117" fill="#171612"/>
            <path id="Trazado_825227" data-name="Trazado 825227" d="M336.8,236.923a2.064,2.064,0,0,1-.806-.167,3.5,3.5,0,0,1-1.612-4.1L374.058,81.071c.445-1.7,1.887-2.617,3.222-2.051a3.5,3.5,0,0,1,1.613,4.1L339.216,234.7a2.684,2.684,0,0,1-2.417,2.219" fill="#171612"/>
            <path id="Trazado_825228" data-name="Trazado 825228" d="M64.561,236.923a2.684,2.684,0,0,1-2.418-2.219L22.466,83.121a3.5,3.5,0,0,1,1.614-4.1c1.334-.566,2.777.352,3.222,2.051L66.979,232.655a3.5,3.5,0,0,1-1.614,4.1,2.055,2.055,0,0,1-.8.167" fill="#171612"/>
            <path id="Trazado_825229" data-name="Trazado 825229" d="M2.549,236.923a2.064,2.064,0,0,1-.806-.167,3.5,3.5,0,0,1-1.612-4.1L39.808,81.071c.445-1.7,1.887-2.617,3.222-2.051a3.5,3.5,0,0,1,1.613,4.1L4.966,234.7a2.684,2.684,0,0,1-2.417,2.219" fill="#171612"/>
            <rect id="Rectángulo_383152" data-name="Rectángulo 383152" width="379.021" height="13.861" transform="translate(11.868 73.468)" fill="#171612"/>
            <rect id="Rectángulo_383153" data-name="Rectángulo 383153" width="379.021" height="1.456" transform="translate(11.868 82.348)" fill="#5a554d"/>
            <path id="Trazado_825230" data-name="Trazado 825230" d="M61.616,73.467H145l.905-2.605c.569-1.639-.916-3.273-2.975-3.273H65.989a3.072,3.072,0,0,0-2.975,1.855Z" fill="#fff"/>
            <path id="Trazado_825231" data-name="Trazado 825231" d="M161.637,3.928,151.589,58.01a2.72,2.72,0,0,1-2.443,2.458h-61.9c-1.62,0-2.816-1.923-2.443-3.928L94.852,2.458A2.721,2.721,0,0,1,97.295,0h61.9c1.62,0,2.816,1.923,2.443,3.928" fill="#fff"/>
            <path id="Trazado_825232" data-name="Trazado 825232" d="M131.56,32.349c-.295,3.4-2.7,6.163-5.377,6.163s-4.6-2.759-4.309-6.163,2.7-6.163,5.377-6.163,4.6,2.759,4.309,6.163" fill="#2b2b39"/>
            <path id="Trazado_825233" data-name="Trazado 825233" d="M99.747,0l-10.7,60.469h-1.8c-1.62,0-2.816-1.924-2.443-3.929L94.852,2.459A2.721,2.721,0,0,1,97.295,0Z" fill="#2b2b39"/>
            <path id="Trazado_825234" data-name="Trazado 825234" d="M117.677,60.468l-2.11,12.847h6.2l2.11-12.847Z" fill="#2b2b39"/>
            <path id="Trazado_825235" data-name="Trazado 825235" d="M106.517,71.142l1.27-2.271a2.308,2.308,0,0,1,1.969-1.293h17a2.417,2.417,0,0,1,2.142,1.65l.856,2.084c.4.975-.156,2.142-1.02,2.142H107.454c-.934,0-1.479-1.343-.937-2.312" fill="#fff"/>
            <path id="Trazado_825236" data-name="Trazado 825236" d="M350.091,73.467H266.708l-.9-2.605c-.569-1.639.916-3.273,2.975-3.273h76.94a3.071,3.071,0,0,1,2.975,1.855Z" fill="#fff"/>
            <path id="Trazado_825237" data-name="Trazado 825237" d="M250.071,3.928,260.119,58.01a2.72,2.72,0,0,0,2.443,2.458h61.9c1.62,0,2.816-1.923,2.443-3.928L316.856,2.458A2.721,2.721,0,0,0,314.413,0h-61.9c-1.62,0-2.816,1.923-2.443,3.928" fill="#fff"/>
            <path id="Trazado_825238" data-name="Trazado 825238" d="M280.147,32.349c.295,3.4,2.7,6.163,5.377,6.163s4.6-2.759,4.309-6.163-2.7-6.163-5.376-6.163-4.605,2.759-4.31,6.163" fill="#2b2b39"/>
            <path id="Trazado_825239" data-name="Trazado 825239" d="M311.96,0l10.7,60.469h1.8c1.62,0,2.816-1.924,2.443-3.929L316.855,2.459A2.721,2.721,0,0,0,314.412,0Z" fill="#2b2b39"/>
            <path id="Trazado_825240" data-name="Trazado 825240" d="M294.03,60.468l2.11,12.847h-6.2l-2.11-12.847Z" fill="#2b2b39"/>
            <path id="Trazado_825241" data-name="Trazado 825241" d="M305.19,71.142l-1.27-2.271a2.308,2.308,0,0,0-1.969-1.293h-17a2.415,2.415,0,0,0-2.141,1.65l-.857,2.084c-.4.975.156,2.142,1.02,2.142h21.284c.934,0,1.479-1.343.937-2.312" fill="#fff"/>
            <path id="Trazado_825242" data-name="Trazado 825242" d="M250.1,59.646H232.277a1.143,1.143,0,0,1-1.143-1.143V57.112a1.142,1.142,0,0,1,1.143-1.142H250.1a1.142,1.142,0,0,1,1.143,1.142V58.5a1.143,1.143,0,0,1-1.143,1.143" fill="#c04d3a"/>
            <path id="Trazado_825243" data-name="Trazado 825243" d="M252.253,67.862a4.944,4.944,0,0,1-.742,2.5c-1.756,2.685-6.366,3.088-8.789,3.1-.378,0-.7-.005-.955-.015h0c-.184,0-.328-.015-.425-.02l-.154-.009a22.223,22.223,0,0,1-3.983-.1q-.319-.038-.646-.088c-2.18-.332-4.547-1.112-5.7-2.866a4.353,4.353,0,0,1-.6-1.447,5.252,5.252,0,0,1-.115-.708,10.026,10.026,0,0,1,.412-3.622c.071-.259.149-.515.232-.764.122-.373.255-.734.391-1.078.218-.559.448-1.068.659-1.51l.144-.3c.115-.23.222-.434.316-.61.23-.432.382-.683.382-.683h17.005a22,22,0,0,1,1.252,2.493c.084.193.169.4.251.6.01.022.017.044.027.068.2.517.4,1.074.563,1.652.071.253.14.515.2.776a10.423,10.423,0,0,1,.27,1.883,7.014,7.014,0,0,1,0,.739" fill="#c04d3a"/>
            <path id="Trazado_825244" data-name="Trazado 825244" d="M251.979,65.24a16.3,16.3,0,0,1-8.812,2.01c-3.035-.1-5.838-1.29-8.77-2.127a12.318,12.318,0,0,0-3.838-.537c.071-.258.149-.515.232-.763,3.2.009,6.6,1.763,9.646,2.378a17,17,0,0,0,9.1-.68,12.128,12.128,0,0,0,2.243-1.057c.071.254.14.515.2.776" fill="#df7668"/>
            <path id="Trazado_825245" data-name="Trazado 825245" d="M244.38,59.646c-3.336,4.069-8.548,4.657-12.4,1.293.115-.229.222-.434.316-.61a7.792,7.792,0,0,0,11.224-.683Z" fill="#df7668"/>
            <path id="Trazado_825246" data-name="Trazado 825246" d="M252.253,67.862a25.264,25.264,0,0,0-9.531,5.6c-.378,0-.7-.005-.955-.015a26.085,26.085,0,0,1,10.482-6.328,7.014,7.014,0,0,1,0,.739" fill="#df7668"/>
            <path id="Trazado_825247" data-name="Trazado 825247" d="M237.2,73.317c-.213-.024-.427-.054-.646-.088a3.486,3.486,0,0,0-1.1-2.764,7.378,7.378,0,0,0-5.2-1.549,5.263,5.263,0,0,1-.115-.707,9.422,9.422,0,0,1,2.555.251,5.85,5.85,0,0,1,3.847,2.288,4.387,4.387,0,0,1,.654,2.569" fill="#df7668"/>
            <path id="Trazado_825248" data-name="Trazado 825248" d="M251.218,62.813a3.206,3.206,0,0,1-1.422.21c-1.636-.122-2.64-1.6-2.991-3.377h.6c.439,1.781,1.677,3.043,3.418,2.53.038-.012.077-.022.113-.036.084.192.169.4.251.6.01.022.017.044.027.068" fill="#df7668"/>
            <path id="Trazado_825249" data-name="Trazado 825249" d="M249.688,60.012H232.683a.377.377,0,0,1,0-.732h17.005a.377.377,0,0,1,0,.732" fill="#7e231a"/>
            <path id="Trazado_825250" data-name="Trazado 825250" d="M248.272,52.673c-.234.444-.465.857-.682,1.232-.694,1.2-1.248,2-1.292,2.064H236.074c-.044-.066-.6-.864-1.293-2.064-.217-.375-.448-.788-.682-1.232-1.253-2.379-2.576-5.592-2.214-8.038a4.33,4.33,0,0,1,.5-1.623,1.469,1.469,0,0,1,.363-.411c1.1-.819,2.793,1.095,3.328,1.033.721-.083-.453-4.666-2.126-7.918-1.565-3.041-2.584-7.1-.668-8.57A2.222,2.222,0,0,1,233.5,27a1.9,1.9,0,0,1,.219-.117c2.488-1.167,3.34,3.084,4.389,2.5,1.03-.576-2.126-14.151,2.837-14.178.077,0,.159,0,.241.007s.164-.009.242-.007c4.962.027,1.805,13.6,2.836,14.178,1.049.584,1.9-3.667,4.388-2.5a1.914,1.914,0,0,1,.22.117,2.492,2.492,0,0,1,.217.146c1.916,1.465.9,5.529-.667,8.57-1.674,3.252-2.847,7.835-2.127,7.918.536.062,2.225-1.852,3.328-1.033a1.485,1.485,0,0,1,.363.411,4.331,4.331,0,0,1,.5,1.623c.363,2.446-.961,5.659-2.214,8.038" fill="#467b6c"/>
            <path id="Trazado_825251" data-name="Trazado 825251" d="M241.428,15.2V55.97h-.483V15.2c.077,0,.159,0,.242.008s.162-.01.241-.008" fill="#253f3d"/>
            <path id="Trazado_825252" data-name="Trazado 825252" d="M241.369,38.562l-.182.2-.183.2-.058-.086L233.081,27.32l.2-.174A2.235,2.235,0,0,1,233.5,27l7.445,10.939.241.355Z" fill="#253f3d"/>
            <path id="Trazado_825253" data-name="Trazado 825253" d="M241.369,55.269l-.182.2-.183.2-.058-.086-8.559-12.574a1.462,1.462,0,0,1,.362-.41l8.2,12.045.241.355Z" fill="#253f3d"/>
            <path id="Trazado_825254" data-name="Trazado 825254" d="M249.292,27.32l-7.864,11.555-.06.088-.182-.2-.183-.2.183-.269.242-.356L248.871,27a2.291,2.291,0,0,1,.218.145Z" fill="#253f3d"/>
            <path id="Trazado_825255" data-name="Trazado 825255" d="M249.986,43.011l-8.557,12.572-.06.088-.182-.2-.183-.2.183-.268.242-.356L249.624,42.6a1.476,1.476,0,0,1,.362.41" fill="#253f3d"/>
          </g>
        </g>
      </g>
    </g>
  </g>
</svg>
