<svg xmlns="http://www.w3.org/2000/svg" xmlns:xlink="http://www.w3.org/1999/xlink" width="122" height="123.001" viewBox="0 0 122 123.001">
  <defs>
    <filter id="Elipse_9685" x="0" y="1.001" width="122" height="122" filterUnits="userSpaceOnUse">
      <feOffset dy="3" input="SourceAlpha"/>
      <feGaussianBlur stdDeviation="3" result="blur"/>
      <feFlood flood-opacity="0.161"/>
      <feComposite operator="in" in2="blur"/>
      <feComposite in="SourceGraphic"/>
    </filter>
  </defs>
  <g id="Grupo_1099180" data-name="Grupo 1099180" transform="translate(-739 -11172)">
    <g id="Grupo_1099177" data-name="Grupo 1099177" transform="translate(420 -73)">
      <g id="Grupo_1099142" data-name="Grupo 1099142" transform="translate(-420 1497.473)">
        <circle id="Elipse_11310" data-name="Elipse 11310" cx="59" cy="59" r="59" transform="translate(741 9747.527)" fill="#fff"/>
        <g id="Grupo_1098210" data-name="Grupo 1098210" transform="translate(0 208.528)">
          <g transform="matrix(1, 0, 0, 1, 739, 9539)" filter="url(#Elipse_9685)">
            <g id="Elipse_9685-2" data-name="Elipse 9685" transform="translate(9 7)" fill="#f2e5fd" stroke="#a854f3" stroke-width="5">
              <circle cx="52" cy="52" r="52" stroke="none"/>
              <circle cx="52" cy="52" r="49.5" fill="none"/>
            </g>
          </g>
        </g>
      </g>
    </g>
    <g id="_FILLED_OUTLINE" data-name="/ FILLED_OUTLINE" transform="translate(753 11183.988)">
      <circle id="Elipse_9828" data-name="Elipse 9828" cx="9.171" cy="9.171" r="9.171" transform="translate(37.398 17.029)" fill="#ed8f4f"/>
      <path id="Trazado_825925" data-name="Trazado 825925" d="M81.807,156.308l-3.693-1.641-3.693,1.641A4.076,4.076,0,0,0,72,160.033v13.655H84.228V160.033a4.076,4.076,0,0,0-2.42-3.725Z" transform="translate(-48.867 -120.994)" fill="#05a056"/>
      <path id="Trazado_825926" data-name="Trazado 825926" d="M54.114,196.127v-1.07a3.057,3.057,0,1,0-6.114,0v1.07a3.057,3.057,0,0,0,1.815,2.793l1.241.552,1.242-.552a3.057,3.057,0,0,0,1.815-2.793Z" transform="translate(-27.924 -153.573)" fill="#fcdcc8"/>
      <path id="Trazado_825927" data-name="Trazado 825927" d="M33.807,252.308l-3.693-1.641-3.693,1.641A4.076,4.076,0,0,0,24,256.033v8.56H36.228v-8.56a4.076,4.076,0,0,0-2.42-3.725Z" transform="translate(-6.981 -204.767)" fill="#0cbf6a"/>
      <path id="Trazado_825928" data-name="Trazado 825928" d="M102.114,100.127v-1.07a3.057,3.057,0,1,0-6.114,0v1.07a3.057,3.057,0,0,0,1.815,2.793l1.241.552,1.242-.552A3.057,3.057,0,0,0,102.114,100.127Z" transform="translate(-69.81 -69.8)" fill="#fcdcc8"/>
      <path id="Trazado_825929" data-name="Trazado 825929" d="M150.114,196.127v-1.07a3.057,3.057,0,1,0-6.114,0v1.07a3.057,3.057,0,0,0,1.815,2.793l1.241.552,1.242-.552A3.057,3.057,0,0,0,150.114,196.127Z" transform="translate(-111.697 -153.573)" fill="#fcdcc8"/>
      <path id="Trazado_825930" data-name="Trazado 825930" d="M129.807,252.308l-3.693-1.641-3.693,1.641a4.076,4.076,0,0,0-2.42,3.725v8.56h12.228v-8.56A4.076,4.076,0,0,0,129.807,252.308Z" transform="translate(-90.754 -204.767)" fill="#04b263"/>
      <path id="Trazado_825931" data-name="Trazado 825931" d="M184,288v18.341h4.076a9.171,9.171,0,0,0,9.171-9.171h0A9.171,9.171,0,0,0,188.076,288Z" transform="translate(-146.602 -237.345)" fill="#ed8f4f"/>
      <circle id="Elipse_9829" data-name="Elipse 9829" cx="9.171" cy="9.171" r="9.171" transform="translate(28.228 50.655)" fill="#f7a46b"/>
      <path id="Trazado_825932" data-name="Trazado 825932" d="M214.114,127.284l6.114-6.114h-3.057V112h-6.114v9.171H208Z" transform="translate(-167.545 -83.762)" fill="#ffc542"/>
      <path id="Trazado_825933" data-name="Trazado 825933" d="M352,136h17.322l-1.019,3.057.018.08a41.9,41.9,0,0,1,0,18.181l-.018.08,1.019,3.057H352l1.019-3.057-.018-.08a41.907,41.907,0,0,1,0-18.181l.018-.08Z" transform="translate(-293.204 -104.705)" fill="#ffd168"/>
      <circle id="Elipse_9830" data-name="Elipse 9830" cx="2.038" cy="2.038" r="2.038" transform="translate(64.91 37.408)" fill="#e5b13b"/>
      <rect id="Rectángulo_383230" data-name="Rectángulo 383230" width="6.114" height="2.038" transform="translate(63.891 44.541)" fill="#e5b13b"/>
      <rect id="Rectángulo_383231" data-name="Rectángulo 383231" width="8.152" height="2.038" transform="translate(62.872 48.617)" fill="#e5b13b"/>
      <path id="Trazado_825934" data-name="Trazado 825934" d="M103.3,349.095a2.038,2.038,0,0,1-1.08-.31l-7.16-4.475a2.037,2.037,0,0,0-1.08-.31H82.341v1.019a4.076,4.076,0,0,0,4.076,4.076H92.53l-7.3,5.681a4.076,4.076,0,0,1-4.054.552l-13.084-5.388a2.386,2.386,0,0,0-3.043,1.14L64,353.171l13.805,7.266a16.439,16.439,0,0,0,11.644,1.4l10.214-2.553H112.91v-10.19Z" transform="translate(-41.886 -286.212)" fill="#fcdcc8"/>
      <path id="Trazado_825935" data-name="Trazado 825935" d="M345.775,41.647a28.565,28.565,0,0,0-12.534-9.081l.7-1.913a30.6,30.6,0,0,1,13.428,9.728Z" transform="translate(-276.834 -12.776)" fill="#ffe7b1"/>
      <path id="Trazado_825936" data-name="Trazado 825936" d="M111.038,36.726l-1.243-1.615a30.484,30.484,0,0,1,8.081-4.459l.7,1.913A28.439,28.439,0,0,0,111.038,36.726Z" transform="translate(-81.848 -12.776)" fill="#ffe7b1"/>
      <rect id="Rectángulo_383232" data-name="Rectángulo 383232" width="3.056" height="2.038" rx="1.019" transform="translate(49.626 61.863)" fill="#efc8b4"/>
      <path id="Trazado_825937" data-name="Trazado 825937" d="M182.107,35.54v.849h-2.038a1.019,1.019,0,0,0-.721,1.74l6.114,6.114a1.019,1.019,0,0,0,1.441,0l6.114-6.114a1.019,1.019,0,0,0-.721-1.74h-2.038V35.54a10.19,10.19,0,1,0-8.152,0Zm4.076,6.541-3.654-3.654h.6a1.019,1.019,0,0,0,1.019-1.019V29.257h4.076v8.152a1.019,1.019,0,0,0,1.019,1.019h.6Zm0-24.033a8.152,8.152,0,0,1,4.076,15.212V28.238a1.019,1.019,0,0,0-1.019-1.019h-6.114a1.019,1.019,0,0,0-1.019,1.019V33.26a8.152,8.152,0,0,1,4.076-15.212Z" transform="translate(-139.614)"/>
      <path id="Trazado_825938" data-name="Trazado 825938" d="M362.378,150.362a43.217,43.217,0,0,0,0-18.23l.93-2.79a1.019,1.019,0,0,0-.967-1.341H345.019a1.019,1.019,0,0,0-.967,1.341l.93,2.79a43.216,43.216,0,0,0,0,18.23l-.93,2.79a1.019,1.019,0,0,0,.967,1.341h17.322a1.019,1.019,0,0,0,.967-1.341Zm-2.022.378.572,1.716H346.432l.572-1.716a1.02,1.02,0,0,0,.028-.543l-.018-.081a41.154,41.154,0,0,1,0-17.739l.018-.08a1.02,1.02,0,0,0-.028-.543l-.572-1.716h14.495l-.572,1.716a1.019,1.019,0,0,0-.028.543l.018.081a41.154,41.154,0,0,1,0,17.739l-.018.08A1.019,1.019,0,0,0,360.355,150.739Z" transform="translate(-286.222 -97.724)"/>
      <path id="Trazado_825939" data-name="Trazado 825939" d="M395.057,182.114A3.057,3.057,0,1,0,392,179.057a3.057,3.057,0,0,0,3.057,3.057Zm0-4.076a1.019,1.019,0,1,1-1.019,1.019A1.019,1.019,0,0,1,395.057,178.038Z" transform="translate(-328.109 -139.611)"/>
      <rect id="Rectángulo_383233" data-name="Rectángulo 383233" width="6.114" height="2.038" transform="translate(63.891 44.541)"/>
      <rect id="Rectángulo_383234" data-name="Rectángulo 383234" width="8.152" height="2.038" transform="translate(62.872 48.617)"/>
      <path id="Trazado_825940" data-name="Trazado 825940" d="M60.878,124.528l-7.161-4.475a3.053,3.053,0,0,0-1.62-.465h-.9a10.187,10.187,0,0,0-8.961-7.1,5.067,5.067,0,0,0-2.767-3.056l-1.709-.76a4.081,4.081,0,0,0,1.678-3.3V104.3a4.082,4.082,0,0,0-3.3-4,5.1,5.1,0,0,0-2.779-3.1l-1.709-.76a4.081,4.081,0,0,0,1.678-3.3v-1.07a4.076,4.076,0,1,0-8.152,0v1.07a4.081,4.081,0,0,0,1.678,3.3l-1.709.76a5.1,5.1,0,0,0-2.779,3.1,4.082,4.082,0,0,0-3.3,4v1.07a4.081,4.081,0,0,0,1.678,3.3l-1.709.76A5.1,5.1,0,0,0,16,114.085v8.56h2.038v-8.56a3.06,3.06,0,0,1,1.815-2.793l3.279-1.457,3.279,1.457a3.06,3.06,0,0,1,1.815,2.793v4.12a10.205,10.205,0,0,0-.417,7.9l-1.22-.5a3.419,3.419,0,0,0-4.343,1.627L21.2,129.322a1.019,1.019,0,0,0,.437,1.357l13.805,7.266a17.438,17.438,0,0,0,12.366,1.488L57.9,136.91H71.024v-2.038H57.777a1.016,1.016,0,0,0-.247.031l-10.214,2.553a15.4,15.4,0,0,1-10.922-1.314l-12.922-6.8.6-1.2a1.373,1.373,0,0,1,1.744-.653L38.9,132.876a5.105,5.105,0,0,0,5.068-.69l7.028-5.466h1.688v-2.038H44.53a3.06,3.06,0,0,1-3.057-3.057H52.1a1.018,1.018,0,0,1,.54.155l7.16,4.475a3.054,3.054,0,0,0,1.62.465h9.606v-2.038H61.418A1.017,1.017,0,0,1,60.878,124.528Zm-11.848-4.94H47.118a10.17,10.17,0,0,0-3.13-4.7,8.093,8.093,0,0,1,2.605,1.415A8.205,8.205,0,0,1,49.031,119.588Zm-10.391-8.3a3.047,3.047,0,0,1,1.345,1.164H37.4a10.155,10.155,0,0,0-7.132,2.921v-1.292a3.06,3.06,0,0,1,1.815-2.793l3.279-1.457ZM37.4,104.3v1.07a2.04,2.04,0,0,1-1.21,1.862l-.828.368-.828-.368a2.04,2.04,0,0,1-1.21-1.862V104.3a2.038,2.038,0,0,1,4.076,0ZM27.209,92.076a2.038,2.038,0,1,1,4.076,0v1.07a2.04,2.04,0,0,1-1.21,1.862l-.828.368-.828-.368a2.04,2.04,0,0,1-1.21-1.862Zm-2.038,13.3a2.04,2.04,0,0,1-1.21,1.862l-.828.368-.828-.368a2.04,2.04,0,0,1-1.21-1.862V104.3a2.038,2.038,0,0,1,4.076,0Zm2.069,4.055-1.709-.76a4.081,4.081,0,0,0,1.678-3.3V104.3a4.082,4.082,0,0,0-2.717-3.842,3.056,3.056,0,0,1,1.475-1.4l3.279-1.457,3.279,1.457a3.056,3.056,0,0,1,1.475,1.4,4.082,4.082,0,0,0-2.717,3.842v1.07a4.081,4.081,0,0,0,1.678,3.3l-1.709.76a5.087,5.087,0,0,0-2.007,1.6A5.087,5.087,0,0,0,27.24,109.429ZM44.53,126.721h3.144l-4.96,3.857a3.063,3.063,0,0,1-3.041.414L30.7,127.3a8.152,8.152,0,1,1,14.252-7.71h-4.5a1.019,1.019,0,0,0-1.019,1.019v1.019A5.1,5.1,0,0,0,44.53,126.721Z" transform="translate(0 -62.819)"/>
      <path id="Trazado_825941" data-name="Trazado 825941" d="M345.775,41.647l1.6-1.266a30.6,30.6,0,0,0-13.428-9.728l-.7,1.913A28.565,28.565,0,0,1,345.775,41.647Z" transform="translate(-276.834 -12.776)"/>
      <path id="Trazado_825942" data-name="Trazado 825942" d="M118.579,32.565l-.7-1.913a30.484,30.484,0,0,0-8.081,4.459l1.243,1.615a28.439,28.439,0,0,1,7.541-4.161Z" transform="translate(-81.848 -12.776)"/>
    </g>
  </g>
</svg>
