<svg xmlns="http://www.w3.org/2000/svg" width="284.739" height="596.329" viewBox="0 0 284.739 596.329">
  <g id="Grupo_1099229" data-name="Grupo 1099229" transform="translate(4811.003 10189)">
    <path id="Trazado_873602" data-name="Trazado 873602" d="M5,0H199a5,5,0,0,1,5,5V68a5,5,0,0,1-5,5H5a5,5,0,0,1-5-5V5A5,5,0,0,1,5,0Z" transform="translate(-4756 -10189)" fill="#8722e2"/>
    <path id="Trazado_873606" data-name="Trazado 873606" d="M5,0H199a5,5,0,0,1,5,5V67a5,5,0,0,1-5,5H5a5,5,0,0,1-5-5V5A5,5,0,0,1,5,0Z" transform="translate(-4756 -10055)" fill="#8722e2"/>
    <path id="Trazado_873610" data-name="Trazado 873610" d="M5,0H199a5,5,0,0,1,5,5V67a5,5,0,0,1-5,5H5a5,5,0,0,1-5-5V5A5,5,0,0,1,5,0Z" transform="translate(-4756 -9921)" fill="#cb94fc"/>
    <path id="Trazado_873614" data-name="Trazado 873614" d="M5,0H199a5,5,0,0,1,5,5V66.977a5,5,0,0,1-5,5H5a5,5,0,0,1-5-5V5A5,5,0,0,1,5,0Z" transform="translate(-4756 -9792.916)" fill="#cb94fc"/>
    <path id="Trazado_873604" data-name="Trazado 873604" d="M-49.671,0V-13.508h3.813a6.138,6.138,0,0,1,3.117.779,5.271,5.271,0,0,1,2.092,2.217,7.217,7.217,0,0,1,.747,3.3v.863A7.242,7.242,0,0,1-40.639-3,5.188,5.188,0,0,1-42.745-.789,6.529,6.529,0,0,1-45.932,0Zm1.781-12.051V-1.457h1.874A4.077,4.077,0,0,0-42.81-2.738a5.294,5.294,0,0,0,1.146-3.649v-.789a5.378,5.378,0,0,0-1.081-3.579,3.846,3.846,0,0,0-3.066-1.3Zm9.955,6.939a5.929,5.929,0,0,1,.58-2.653,4.325,4.325,0,0,1,1.614-1.818,4.394,4.394,0,0,1,2.361-.64A4.233,4.233,0,0,1-30.063-8.8,5.461,5.461,0,0,1-28.8-5.028v.121a5.981,5.981,0,0,1-.561,2.63,4.262,4.262,0,0,1-1.6,1.814,4.445,4.445,0,0,1-2.4.649,4.223,4.223,0,0,1-3.307-1.419,5.433,5.433,0,0,1-1.266-3.757Zm1.726.2a4.294,4.294,0,0,0,.775,2.681,2.479,2.479,0,0,0,2.073,1.011A2.464,2.464,0,0,0-31.283-2.24a4.7,4.7,0,0,0,.77-2.871A4.287,4.287,0,0,0-31.3-7.788,2.492,2.492,0,0,0-33.38-8.813,2.465,2.465,0,0,0-35.43-7.8,4.661,4.661,0,0,0-36.209-4.908Zm13.591,3.692a2.472,2.472,0,0,0,1.6-.557,1.958,1.958,0,0,0,.761-1.392h1.624a3.112,3.112,0,0,1-.594,1.642A3.911,3.911,0,0,1-20.684-.278a4.216,4.216,0,0,1-1.934.464,4.135,4.135,0,0,1-3.261-1.368A5.45,5.45,0,0,1-27.09-4.926v-.288a6.043,6.043,0,0,1,.538-2.607,4.1,4.1,0,0,1,1.545-1.772,4.388,4.388,0,0,1,2.38-.631,4.026,4.026,0,0,1,2.806,1.011,3.614,3.614,0,0,1,1.192,2.625h-1.624a2.365,2.365,0,0,0-.738-1.6,2.294,2.294,0,0,0-1.637-.626,2.4,2.4,0,0,0-2.027.942,4.422,4.422,0,0,0-.719,2.723v.325a4.334,4.334,0,0,0,.714,2.672A2.414,2.414,0,0,0-22.618-1.215ZM-10.5-.993A3.646,3.646,0,0,1-13.443.186a3.12,3.12,0,0,1-2.445-.932,4.036,4.036,0,0,1-.849-2.76v-6.531h1.716v6.485q0,2.282,1.855,2.282a2.569,2.569,0,0,0,2.616-1.466v-7.3h1.716V0h-1.633Zm5.891-9.045.046,1.113a3.707,3.707,0,0,1,2.978-1.3A2.87,2.87,0,0,1,1.28-8.609a3.8,3.8,0,0,1,1.3-1.169,3.85,3.85,0,0,1,1.9-.445q3.3,0,3.358,3.5V0H6.123V-6.624a2.3,2.3,0,0,0-.492-1.61A2.165,2.165,0,0,0,3.98-8.767,2.276,2.276,0,0,0,2.394-8.2a2.315,2.315,0,0,0-.733,1.535V0H-.065V-6.578A1.915,1.915,0,0,0-2.208-8.767a2.3,2.3,0,0,0-2.31,1.438V0H-6.234V-10.038ZM14.593.186a4.386,4.386,0,0,1-3.321-1.341,4.976,4.976,0,0,1-1.28-3.586v-.315a6.024,6.024,0,0,1,.571-2.667,4.451,4.451,0,0,1,1.6-1.837,4.012,4.012,0,0,1,2.222-.663,3.759,3.759,0,0,1,3.043,1.29,5.583,5.583,0,0,1,1.085,3.692v.714h-6.8a3.568,3.568,0,0,0,.867,2.4,2.727,2.727,0,0,0,2.111.914,2.989,2.989,0,0,0,1.54-.371,3.87,3.87,0,0,0,1.1-.983l1.048.816A4.215,4.215,0,0,1,14.593.186Zm-.213-9a2.289,2.289,0,0,0-1.744.756,3.675,3.675,0,0,0-.872,2.12h5.028v-.13a3.269,3.269,0,0,0-.705-2.027A2.155,2.155,0,0,0,14.38-8.813Zm7.737-1.225.056,1.262a3.658,3.658,0,0,1,3.006-1.447q3.182,0,3.21,3.59V0H26.672V-6.643a2.311,2.311,0,0,0-.5-1.6,1.989,1.989,0,0,0-1.517-.52,2.477,2.477,0,0,0-1.466.445,3.024,3.024,0,0,0-.983,1.169V0H20.494V-10.038Zm11.188-2.431v2.431H35.18v1.327H33.306v6.233a1.393,1.393,0,0,0,.25.906,1.054,1.054,0,0,0,.854.3,4.155,4.155,0,0,0,.816-.111V0a5,5,0,0,1-1.317.184,2.137,2.137,0,0,1-1.735-.7,2.989,2.989,0,0,1-.584-1.976V-8.711H29.762v-1.327h1.828v-2.431Zm3.238,7.357a5.929,5.929,0,0,1,.58-2.653,4.325,4.325,0,0,1,1.614-1.818,4.394,4.394,0,0,1,2.361-.64A4.233,4.233,0,0,1,44.415-8.8a5.461,5.461,0,0,1,1.266,3.776v.121a5.981,5.981,0,0,1-.561,2.63,4.262,4.262,0,0,1-1.6,1.814,4.445,4.445,0,0,1-2.4.649A4.223,4.223,0,0,1,37.81-1.234a5.433,5.433,0,0,1-1.266-3.757Zm1.726.2a4.294,4.294,0,0,0,.775,2.681,2.479,2.479,0,0,0,2.073,1.011A2.464,2.464,0,0,0,43.2-2.24a4.7,4.7,0,0,0,.77-2.871,4.287,4.287,0,0,0-.784-2.677A2.492,2.492,0,0,0,41.1-8.813,2.465,2.465,0,0,0,39.048-7.8,4.661,4.661,0,0,0,38.269-4.908ZM-40.115,12.9a5.88,5.88,0,0,1,1.095-3.716,3.462,3.462,0,0,1,2.867-1.406,3.481,3.481,0,0,1,2.792,1.206V3.75h1.716V18h-1.577l-.083-1.076a3.5,3.5,0,0,1-2.867,1.262,3.429,3.429,0,0,1-2.844-1.429,5.947,5.947,0,0,1-1.1-3.729Zm1.716.195a4.452,4.452,0,0,0,.705,2.672,2.279,2.279,0,0,0,1.948.965,2.5,2.5,0,0,0,2.384-1.466V10.652a2.523,2.523,0,0,0-2.366-1.419,2.29,2.29,0,0,0-1.967.974A4.9,4.9,0,0,0-38.4,13.092Zm13.582,5.093a4.386,4.386,0,0,1-3.321-1.341,4.976,4.976,0,0,1-1.28-3.586v-.315a6.024,6.024,0,0,1,.571-2.667,4.451,4.451,0,0,1,1.6-1.837,4.012,4.012,0,0,1,2.222-.663,3.759,3.759,0,0,1,3.043,1.29A5.583,5.583,0,0,1-20.9,12.758v.714h-6.8a3.568,3.568,0,0,0,.867,2.4,2.727,2.727,0,0,0,2.111.914,2.989,2.989,0,0,0,1.54-.371,3.87,3.87,0,0,0,1.1-.983l1.048.816A4.215,4.215,0,0,1-24.817,18.186Zm-.213-9a2.289,2.289,0,0,0-1.744.756,3.675,3.675,0,0,0-.872,2.12h5.028v-.13a3.269,3.269,0,0,0-.705-2.027A2.155,2.155,0,0,0-25.03,9.187Zm10.4,3.711a5.88,5.88,0,0,1,1.095-3.716,3.462,3.462,0,0,1,2.867-1.406A3.481,3.481,0,0,1-7.876,8.982V3.75H-6.16V18H-7.737l-.083-1.076a3.5,3.5,0,0,1-2.867,1.262,3.429,3.429,0,0,1-2.844-1.429,5.947,5.947,0,0,1-1.1-3.729Zm1.716.195a4.452,4.452,0,0,0,.705,2.672,2.279,2.279,0,0,0,1.948.965,2.5,2.5,0,0,0,2.384-1.466V10.652a2.523,2.523,0,0,0-2.366-1.419,2.29,2.29,0,0,0-1.967.974A4.9,4.9,0,0,0-12.914,13.092ZM-1.633,18H-3.349V7.962h1.716ZM-3.488,5.3a1.024,1.024,0,0,1,.255-.705.958.958,0,0,1,.756-.288.973.973,0,0,1,.761.288,1.014,1.014,0,0,1,.26.705.98.98,0,0,1-.26.7.99.99,0,0,1-.761.278A.975.975,0,0,1-3.233,6,.991.991,0,0,1-3.488,5.3ZM6.958,15.337a1.264,1.264,0,0,0-.524-1.081,5.045,5.045,0,0,0-1.828-.663,8.641,8.641,0,0,1-2.069-.668A2.943,2.943,0,0,1,1.406,12a2.219,2.219,0,0,1-.366-1.28A2.6,2.6,0,0,1,2.083,8.63,4.076,4.076,0,0,1,4.75,7.776a4.194,4.194,0,0,1,2.769.881,2.8,2.8,0,0,1,1.062,2.254H6.856a1.549,1.549,0,0,0-.6-1.215,2.242,2.242,0,0,0-1.508-.51,2.346,2.346,0,0,0-1.466.408,1.285,1.285,0,0,0-.529,1.067,1.041,1.041,0,0,0,.492.937,6.05,6.05,0,0,0,1.777.6,9.257,9.257,0,0,1,2.083.687,3.038,3.038,0,0,1,1.183.96,2.361,2.361,0,0,1,.385,1.368A2.569,2.569,0,0,1,7.6,17.374a4.514,4.514,0,0,1-2.792.812,5.055,5.055,0,0,1-2.134-.427A3.47,3.47,0,0,1,1.22,16.567,2.873,2.873,0,0,1,.7,14.911H2.412A1.777,1.777,0,0,0,3.1,16.279a2.681,2.681,0,0,0,1.7.506,2.768,2.768,0,0,0,1.563-.394A1.212,1.212,0,0,0,6.958,15.337Zm8.118,2.848a4.386,4.386,0,0,1-3.321-1.341,4.976,4.976,0,0,1-1.28-3.586v-.315a6.024,6.024,0,0,1,.571-2.667,4.451,4.451,0,0,1,1.6-1.837,4.012,4.012,0,0,1,2.222-.663,3.759,3.759,0,0,1,3.043,1.29,5.583,5.583,0,0,1,1.085,3.692v.714h-6.8a3.568,3.568,0,0,0,.867,2.4,2.727,2.727,0,0,0,2.111.914,2.989,2.989,0,0,0,1.54-.371,3.87,3.87,0,0,0,1.1-.983l1.048.816A4.215,4.215,0,0,1,15.076,18.186Zm-.213-9a2.289,2.289,0,0,0-1.744.756,3.675,3.675,0,0,0-.872,2.12h5.028v-.13a3.269,3.269,0,0,0-.705-2.027A2.155,2.155,0,0,0,14.862,9.187ZM22.6,7.962l.056,1.262a3.658,3.658,0,0,1,3.006-1.447q3.182,0,3.21,3.59V18H27.155V11.357a2.311,2.311,0,0,0-.5-1.6,1.989,1.989,0,0,0-1.517-.52,2.477,2.477,0,0,0-1.466.445,3.024,3.024,0,0,0-.983,1.169V18H20.976V7.962Zm5.678-3.915a2.307,2.307,0,0,1-.571,1.624,1.853,1.853,0,0,1-1.424.622,2.089,2.089,0,0,1-.659-.093,3.554,3.554,0,0,1-.728-.38,3.154,3.154,0,0,0-.649-.348,1.589,1.589,0,0,0-.459-.06.851.851,0,0,0-.649.292,1.06,1.06,0,0,0-.269.747l-1.15-.065a2.421,2.421,0,0,1,.561-1.642A1.8,1.8,0,0,1,23.7,4.093a1.73,1.73,0,0,1,.584.093,4.26,4.26,0,0,1,.705.362,4.149,4.149,0,0,0,.682.353,1.566,1.566,0,0,0,.524.083.83.83,0,0,0,.663-.315,1.107,1.107,0,0,0,.264-.733ZM31,12.888a5.929,5.929,0,0,1,.58-2.653A4.325,4.325,0,0,1,33.2,8.417a4.394,4.394,0,0,1,2.361-.64A4.233,4.233,0,0,1,38.877,9.2a5.461,5.461,0,0,1,1.266,3.776v.121a5.981,5.981,0,0,1-.561,2.63,4.262,4.262,0,0,1-1.6,1.814,4.445,4.445,0,0,1-2.4.649,4.223,4.223,0,0,1-3.307-1.419A5.433,5.433,0,0,1,31,13.009Zm1.726.2a4.294,4.294,0,0,0,.775,2.681,2.625,2.625,0,0,0,4.152-.014,4.7,4.7,0,0,0,.77-2.871,4.287,4.287,0,0,0-.784-2.677A2.492,2.492,0,0,0,35.56,9.187,2.465,2.465,0,0,0,33.51,10.2,4.661,4.661,0,0,0,32.73,13.092Z" transform="translate(-4750 -10090)" fill="#3a1d71"/>
    <path id="Trazado_873608" data-name="Trazado 873608" d="M-45.236-3.535H-50.9L-52.167,0H-54l5.158-13.508h1.559L-42.119,0h-1.828Zm-5.121-1.457h4.592l-2.3-6.318ZM-35.718-8.5a5.143,5.143,0,0,0-.844-.065,2.262,2.262,0,0,0-2.292,1.438V0H-40.57V-10.038h1.67l.028,1.16a2.672,2.672,0,0,1,2.394-1.345,1.753,1.753,0,0,1,.761.13Zm.983,3.4a5.892,5.892,0,0,1,1.085-3.743,3.517,3.517,0,0,1,2.913-1.378,3.515,3.515,0,0,1,2.811,1.2l.074-1.011h1.577v13.9H-27.99V-.928A3.6,3.6,0,0,1-30.754.186a3.462,3.462,0,0,1-2.9-1.415,6.023,6.023,0,0,1-1.081-3.753Zm1.716.195A4.466,4.466,0,0,0-32.29-2.2a2.317,2.317,0,0,0,1.962.983A2.57,2.57,0,0,0-27.99-2.57V-7.487a2.578,2.578,0,0,0-2.319-1.327,2.334,2.334,0,0,0-1.976.988A4.862,4.862,0,0,0-33.018-4.908Zm15.7,3.915A3.646,3.646,0,0,1-20.262.186a3.12,3.12,0,0,1-2.445-.932,4.036,4.036,0,0,1-.849-2.76v-6.531h1.716v6.485q0,2.282,1.855,2.282a2.569,2.569,0,0,0,2.616-1.466v-7.3h1.716V0h-1.633ZM-11.179,0H-12.9V-10.038h1.716Zm-1.855-12.7a1.024,1.024,0,0,1,.255-.705.958.958,0,0,1,.756-.288.973.973,0,0,1,.761.288A1.014,1.014,0,0,1-11-12.7a.98.98,0,0,1-.26.7.99.99,0,0,1-.761.278A.975.975,0,0,1-12.78-12,.991.991,0,0,1-13.035-12.7Zm6.93.232v2.431H-4.23v1.327H-6.1v6.233a1.393,1.393,0,0,0,.25.906,1.054,1.054,0,0,0,.854.3,4.155,4.155,0,0,0,.816-.111V0A5,5,0,0,1-5.5.186a2.137,2.137,0,0,1-1.735-.7,2.989,2.989,0,0,1-.584-1.976V-8.711H-9.648v-1.327h1.828v-2.431ZM1.939.186A4.386,4.386,0,0,1-1.382-1.155a4.976,4.976,0,0,1-1.28-3.586v-.315a6.024,6.024,0,0,1,.571-2.667A4.451,4.451,0,0,1-.5-9.56a4.012,4.012,0,0,1,2.222-.663,3.759,3.759,0,0,1,3.043,1.29A5.583,5.583,0,0,1,5.854-5.242v.714h-6.8a3.568,3.568,0,0,0,.867,2.4,2.727,2.727,0,0,0,2.111.914,2.989,2.989,0,0,0,1.54-.371,3.869,3.869,0,0,0,1.1-.983l1.048.816A4.215,4.215,0,0,1,1.939.186Zm-.213-9a2.289,2.289,0,0,0-1.744.756,3.675,3.675,0,0,0-.872,2.12H4.138v-.13a3.269,3.269,0,0,0-.705-2.027A2.155,2.155,0,0,0,1.726-8.813Zm10.14,7.6a2.472,2.472,0,0,0,1.6-.557,1.958,1.958,0,0,0,.761-1.392h1.624a3.112,3.112,0,0,1-.594,1.642A3.911,3.911,0,0,1,13.8-.278a4.216,4.216,0,0,1-1.934.464A4.135,4.135,0,0,1,8.6-1.183,5.45,5.45,0,0,1,7.394-4.926v-.288a6.043,6.043,0,0,1,.538-2.607A4.1,4.1,0,0,1,9.477-9.593a4.388,4.388,0,0,1,2.38-.631,4.026,4.026,0,0,1,2.806,1.011,3.614,3.614,0,0,1,1.192,2.625H14.231a2.365,2.365,0,0,0-.738-1.6,2.294,2.294,0,0,0-1.637-.626,2.4,2.4,0,0,0-2.027.942A4.422,4.422,0,0,0,9.11-5.149v.325a4.334,4.334,0,0,0,.714,2.672A2.414,2.414,0,0,0,11.866-1.215Zm8.248-11.253v2.431h1.874v1.327H20.113v6.233a1.393,1.393,0,0,0,.25.906,1.054,1.054,0,0,0,.854.3,4.155,4.155,0,0,0,.816-.111V0a5.005,5.005,0,0,1-1.317.184,2.137,2.137,0,0,1-1.735-.7A2.989,2.989,0,0,1,18.4-2.486V-8.711H16.569v-1.327H18.4v-2.431ZM30.188-.993A3.646,3.646,0,0,1,27.248.186,3.12,3.12,0,0,1,24.8-.747a4.036,4.036,0,0,1-.849-2.76v-6.531H25.67v6.485q0,2.282,1.855,2.282a2.569,2.569,0,0,0,2.616-1.466v-7.3h1.716V0H30.226ZM39.317-8.5a5.143,5.143,0,0,0-.844-.065,2.262,2.262,0,0,0-2.292,1.438V0H34.465V-10.038h1.67l.028,1.16a2.672,2.672,0,0,1,2.394-1.345,1.753,1.753,0,0,1,.761.13Zm7.4,8.5a3.605,3.605,0,0,1-.241-1.058A3.829,3.829,0,0,1,43.622.186a3.543,3.543,0,0,1-2.435-.84,2.716,2.716,0,0,1-.951-2.129,2.838,2.838,0,0,1,1.192-2.435,5.621,5.621,0,0,1,3.354-.867h1.67v-.789a1.928,1.928,0,0,0-.538-1.433,2.163,2.163,0,0,0-1.586-.533,2.5,2.5,0,0,0-1.54.464,1.367,1.367,0,0,0-.622,1.123H40.44a2.369,2.369,0,0,1,.533-1.452,3.641,3.641,0,0,1,1.447-1.109,4.869,4.869,0,0,1,2.009-.408,3.968,3.968,0,0,1,2.718.867,3.129,3.129,0,0,1,1.021,2.389v4.62a5.649,5.649,0,0,0,.353,2.2V0ZM43.873-1.308A3.016,3.016,0,0,0,45.4-1.726a2.525,2.525,0,0,0,1.048-1.085v-2.06H45.106q-3.154,0-3.154,1.846a1.562,1.562,0,0,0,.538,1.262A2.068,2.068,0,0,0,43.873-1.308ZM-48.386,12.9a5.88,5.88,0,0,1,1.095-3.716,3.462,3.462,0,0,1,2.867-1.406,3.481,3.481,0,0,1,2.792,1.206V3.75h1.716V18h-1.577l-.083-1.076a3.5,3.5,0,0,1-2.867,1.262,3.429,3.429,0,0,1-2.844-1.429,5.947,5.947,0,0,1-1.1-3.729Zm1.716.195a4.452,4.452,0,0,0,.705,2.672,2.279,2.279,0,0,0,1.948.965,2.5,2.5,0,0,0,2.384-1.466V10.652A2.523,2.523,0,0,0-44,9.233a2.29,2.29,0,0,0-1.967.974A4.9,4.9,0,0,0-46.67,13.092Zm13.582,5.093a4.386,4.386,0,0,1-3.321-1.341,4.976,4.976,0,0,1-1.28-3.586v-.315a6.024,6.024,0,0,1,.571-2.667,4.451,4.451,0,0,1,1.6-1.837A4.012,4.012,0,0,1-33.3,7.776a3.759,3.759,0,0,1,3.043,1.29,5.583,5.583,0,0,1,1.085,3.692v.714h-6.8a3.568,3.568,0,0,0,.867,2.4,2.727,2.727,0,0,0,2.111.914,2.989,2.989,0,0,0,1.54-.371,3.87,3.87,0,0,0,1.1-.983l1.048.816A4.215,4.215,0,0,1-33.088,18.186Zm-.213-9a2.289,2.289,0,0,0-1.744.756,3.675,3.675,0,0,0-.872,2.12h5.028v-.13a3.269,3.269,0,0,0-.705-2.027A2.155,2.155,0,0,0-33.3,9.187Zm16.022,6.1q.139-1.039-1.141-1.466l-1.744-.51q-2.208-.761-2.134-2.523a2.78,2.78,0,0,1,1.211-2.176,4.312,4.312,0,0,1,2.7-.83,3.6,3.6,0,0,1,2.472.886,2.807,2.807,0,0,1,.914,2.259l-1.67-.009a1.566,1.566,0,0,0-.473-1.225A1.872,1.872,0,0,0-18.457,9.2a2.445,2.445,0,0,0-1.5.427,1.562,1.562,0,0,0-.677,1.095q-.121.872,1.067,1.271l.844.232a5.436,5.436,0,0,1,2.449,1.16,2.215,2.215,0,0,1,.668,1.772,2.814,2.814,0,0,1-.612,1.633,3.5,3.5,0,0,1-1.484,1.062,4.964,4.964,0,0,1-1.976.339,3.916,3.916,0,0,1-2.635-.932,2.882,2.882,0,0,1-1-2.352l1.679.009a1.779,1.779,0,0,0,.538,1.354,2.057,2.057,0,0,0,1.475.51,2.893,2.893,0,0,0,1.586-.385A1.481,1.481,0,0,0-17.279,15.282Zm8.953-7.505a3.618,3.618,0,0,1,2.162.687A3.9,3.9,0,0,1-4.833,10.3a5.7,5.7,0,0,1,.292,2.565l-.019.2a6.751,6.751,0,0,1-.872,2.649,5.117,5.117,0,0,1-1.8,1.842,4.389,4.389,0,0,1-2.421.622A3.625,3.625,0,0,1-11.81,17.5a3.812,3.812,0,0,1-1.322-1.818,5.855,5.855,0,0,1-.3-2.533,6.84,6.84,0,0,1,.844-2.8,5.236,5.236,0,0,1,1.814-1.925A4.337,4.337,0,0,1-8.326,7.776Zm-3.414,5.381a5.7,5.7,0,0,0,0,1.215,2.977,2.977,0,0,0,.654,1.744,1.963,1.963,0,0,0,1.5.677,2.675,2.675,0,0,0,1.54-.413A3.466,3.466,0,0,0-6.861,15.05a5.606,5.606,0,0,0,.622-1.976,8.9,8.9,0,0,0,.028-1.438,3.09,3.09,0,0,0-.677-1.772,2.007,2.007,0,0,0-1.5-.687A2.736,2.736,0,0,0-10.6,10.2a5.042,5.042,0,0,0-1.123,2.746ZM-2.482,18-.96,9.289H-2.51l.232-1.327h1.54l.167-1.187A3.94,3.94,0,0,1,.6,4.409a3.475,3.475,0,0,1,2.486-.872,5.8,5.8,0,0,1,1.2.159L4.077,5.1a5.506,5.506,0,0,0-.9-.111,1.917,1.917,0,0,0-1.415.541A2.462,2.462,0,0,0,1.09,6.972l-.148.99H3.02L2.788,9.289H.71L-.8,18ZM7.631,5.531,7.2,7.962H9.031L8.8,9.289H6.981L5.933,15.532a2.177,2.177,0,0,0-.009.445.708.708,0,0,0,.789.724,4.809,4.809,0,0,0,.816-.093l-.13,1.4a4.568,4.568,0,0,1-1.225.167,1.753,1.753,0,0,1-1.5-.738,2.853,2.853,0,0,1-.39-1.934L5.3,9.289H3.53l.232-1.327H5.534l.427-2.431ZM18.318,15.625l3.2-7.663h1.735L18.68,18H17.316l-1.039-7.589L12.659,18H11.3L10.21,7.962h1.6l.612,7.478L15.99,7.962h1.354ZM29.4,18a2.249,2.249,0,0,1-.065-.529l.028-.529a4.115,4.115,0,0,1-2.932,1.243,3,3,0,0,1-2.157-.84,2.541,2.541,0,0,1-.756-2.055,3.09,3.09,0,0,1,1.4-2.491,5.944,5.944,0,0,1,3.428-.9l1.753.009.111-.8a1.834,1.834,0,0,0-.348-1.424,1.679,1.679,0,0,0-1.322-.543,2.589,2.589,0,0,0-1.526.422,1.8,1.8,0,0,0-.812,1.164l-1.688.009a2.691,2.691,0,0,1,.687-1.563,3.994,3.994,0,0,1,1.549-1.058A5,5,0,0,1,28.7,7.767a3.328,3.328,0,0,1,2.44.951,2.949,2.949,0,0,1,.733,2.426l-.816,4.973-.046.714a3.5,3.5,0,0,0,.111,1.011L31.1,18ZM26.76,16.7a2.929,2.929,0,0,0,1.526-.385A3.864,3.864,0,0,0,29.525,15.2l.362-2.069-1.271-.009a4.814,4.814,0,0,0-2.431.5,1.845,1.845,0,0,0-.956,1.419,1.437,1.437,0,0,0,.329,1.174A1.569,1.569,0,0,0,26.76,16.7ZM39.619,9.493l-.789-.083a2.873,2.873,0,0,0-2.542,1.457L35.054,18H33.375L35.119,7.962l1.624-.009-.25,1.169a3,3,0,0,1,2.514-1.364,3.08,3.08,0,0,1,.8.139Zm4.425,8.693A3.619,3.619,0,0,1,41.113,16.8a4.757,4.757,0,0,1-.891-3.442l.046-.4a6.679,6.679,0,0,1,.886-2.728,5.153,5.153,0,0,1,1.777-1.86,4.145,4.145,0,0,1,2.264-.6,3.192,3.192,0,0,1,2.431,1.03,4.235,4.235,0,0,1,.965,2.69,7.862,7.862,0,0,1-.037,1.206l-.1.77H41.892a3.391,3.391,0,0,0,.45,2.319,2.131,2.131,0,0,0,1.842.993,3.571,3.571,0,0,0,2.746-1.336l.965.816a4.415,4.415,0,0,1-1.628,1.424A4.614,4.614,0,0,1,44.044,18.186Zm1.067-9.008a2.453,2.453,0,0,0-1.814.705,5.011,5.011,0,0,0-1.229,2.18l4.88.009.037-.148a2.746,2.746,0,0,0-.376-1.944A1.767,1.767,0,0,0,45.111,9.177Z" transform="translate(-4757 -9957)" fill="#3a1d71"/>
    <path id="Trazado_873605" data-name="Trazado 873605" d="M-48.059-4.061a4.708,4.708,0,0,1-1.5,3.133A4.911,4.911,0,0,1-52.91.176,4.509,4.509,0,0,1-56.544-1.45,6.542,6.542,0,0,1-57.911-5.8v-1.23a7.291,7.291,0,0,1,.637-3.138,4.76,4.76,0,0,1,1.806-2.079,5.029,5.029,0,0,1,2.707-.725,4.624,4.624,0,0,1,3.27,1.138,4.765,4.765,0,0,1,1.433,3.151h-1.7a3.677,3.677,0,0,0-.954-2.222,2.885,2.885,0,0,0-2.052-.688A3.019,3.019,0,0,0-55.3-10.4a5.492,5.492,0,0,0-.918,3.4v1.24a5.645,5.645,0,0,0,.87,3.316A2.812,2.812,0,0,0-52.91-1.2a3.247,3.247,0,0,0,2.158-.637,3.536,3.536,0,0,0,1-2.219Zm1.617-.782a5.617,5.617,0,0,1,.549-2.514,4.1,4.1,0,0,1,1.529-1.723,4.163,4.163,0,0,1,2.237-.606,4.01,4.01,0,0,1,3.142,1.345,5.174,5.174,0,0,1,1.2,3.577v.114a5.666,5.666,0,0,1-.532,2.492A4.038,4.038,0,0,1-39.836-.439a4.211,4.211,0,0,1-2.272.615,4,4,0,0,1-3.133-1.345,5.147,5.147,0,0,1-1.2-3.56Zm1.635.193a4.068,4.068,0,0,0,.734,2.54,2.349,2.349,0,0,0,1.964.958,2.335,2.335,0,0,0,1.969-.971,4.449,4.449,0,0,0,.729-2.72,4.061,4.061,0,0,0-.743-2.536,2.361,2.361,0,0,0-1.973-.971,2.335,2.335,0,0,0-1.942.958A4.416,4.416,0,0,0-44.807-4.649Zm10.591-4.86.044,1.055a3.512,3.512,0,0,1,2.821-1.23,2.719,2.719,0,0,1,2.716,1.529A3.6,3.6,0,0,1-27.4-9.264a3.647,3.647,0,0,1,1.8-.422q3.129,0,3.182,3.313V0h-1.626V-6.275A2.184,2.184,0,0,0-24.513-7.8a2.051,2.051,0,0,0-1.564-.505,2.156,2.156,0,0,0-1.5.541,2.193,2.193,0,0,0-.694,1.455V0h-1.635V-6.231a1.814,1.814,0,0,0-2.03-2.074,2.175,2.175,0,0,0-2.188,1.362V0h-1.626V-9.51Zm22.28,4.86a5.694,5.694,0,0,1-.993,3.5A3.183,3.183,0,0,1-15.618.176a3.488,3.488,0,0,1-2.725-1.1V3.656h-1.626V-9.51h1.485l.079,1.055a3.35,3.35,0,0,1,2.76-1.23,3.243,3.243,0,0,1,2.711,1.292,5.756,5.756,0,0,1,1,3.595Zm-1.626-.185a4.2,4.2,0,0,0-.686-2.54,2.208,2.208,0,0,0-1.881-.932A2.39,2.39,0,0,0-18.343-7v4.544a2.4,2.4,0,0,0,2.232,1.3,2.2,2.2,0,0,0,1.859-.927A4.587,4.587,0,0,0-13.562-4.834Zm8.288-3.217a4.873,4.873,0,0,0-.8-.062A2.143,2.143,0,0,0-8.244-6.75V0H-9.87V-9.51h1.582l.026,1.1A2.532,2.532,0,0,1-5.994-9.686a1.661,1.661,0,0,1,.721.123Zm.888,3.208a5.617,5.617,0,0,1,.549-2.514A4.1,4.1,0,0,1-2.307-9.079,4.163,4.163,0,0,1-.07-9.686,4.01,4.01,0,0,1,3.072-8.341a5.174,5.174,0,0,1,1.2,3.577v.114A5.666,5.666,0,0,1,3.74-2.158,4.038,4.038,0,0,1,2.219-.439,4.211,4.211,0,0,1-.053.176,4,4,0,0,1-3.186-1.169a5.147,5.147,0,0,1-1.2-3.56Zm1.635.193a4.068,4.068,0,0,0,.734,2.54,2.349,2.349,0,0,0,1.964.958,2.335,2.335,0,0,0,1.969-.971,4.449,4.449,0,0,0,.729-2.72A4.061,4.061,0,0,0,1.9-7.378,2.361,2.361,0,0,0-.07-8.35a2.335,2.335,0,0,0-1.942.958A4.416,4.416,0,0,0-2.751-4.649Zm17.112,0a5.654,5.654,0,0,1-1,3.5A3.2,3.2,0,0,1,10.67.176,3.315,3.315,0,0,1,7.884-1.1L7.8,0H6.311V-13.5H7.937v5.036a3.3,3.3,0,0,1,2.716-1.222,3.221,3.221,0,0,1,2.72,1.31,5.824,5.824,0,0,1,.989,3.586Zm-1.626-.185A4.394,4.394,0,0,0,12.094-7.4a2.124,2.124,0,0,0-1.846-.905A2.387,2.387,0,0,0,7.937-6.812V-2.7A2.454,2.454,0,0,0,10.266-1.2a2.112,2.112,0,0,0,1.819-.905A4.672,4.672,0,0,0,12.735-4.834ZM22.28,0a3.416,3.416,0,0,1-.229-1A3.628,3.628,0,0,1,19.345.176a3.357,3.357,0,0,1-2.307-.8,2.573,2.573,0,0,1-.9-2.017,2.688,2.688,0,0,1,1.129-2.307,5.325,5.325,0,0,1,3.177-.822h1.582v-.747a1.826,1.826,0,0,0-.51-1.358,2.049,2.049,0,0,0-1.5-.505,2.371,2.371,0,0,0-1.459.439,1.3,1.3,0,0,0-.589,1.063H16.33a2.244,2.244,0,0,1,.505-1.375A3.449,3.449,0,0,1,18.207-9.3a4.613,4.613,0,0,1,1.9-.387,3.759,3.759,0,0,1,2.575.822A2.964,2.964,0,0,1,23.651-6.6v4.377a5.351,5.351,0,0,0,.334,2.083V0Zm-2.7-1.239a2.858,2.858,0,0,0,1.45-.4,2.392,2.392,0,0,0,.993-1.028V-4.614H20.751q-2.988,0-2.988,1.749a1.48,1.48,0,0,0,.51,1.2A1.959,1.959,0,0,0,19.582-1.239Zm10.433.088a2.342,2.342,0,0,0,1.521-.527A1.855,1.855,0,0,0,32.256-3h1.538a2.949,2.949,0,0,1-.562,1.556A3.7,3.7,0,0,1,31.847-.264a3.994,3.994,0,0,1-1.833.439,3.918,3.918,0,0,1-3.089-1.3,5.163,5.163,0,0,1-1.147-3.546v-.272a5.725,5.725,0,0,1,.51-2.47,3.883,3.883,0,0,1,1.463-1.679,4.157,4.157,0,0,1,2.254-.6,3.814,3.814,0,0,1,2.659.958A3.424,3.424,0,0,1,33.794-6.24H32.256a2.241,2.241,0,0,0-.7-1.516,2.174,2.174,0,0,0-1.551-.593,2.276,2.276,0,0,0-1.92.892,4.19,4.19,0,0,0-.681,2.58v.308a4.106,4.106,0,0,0,.677,2.531A2.287,2.287,0,0,0,30.015-1.151ZM37.389,0H35.763V-9.51h1.626ZM35.631-12.032a.971.971,0,0,1,.242-.668.907.907,0,0,1,.716-.272.922.922,0,0,1,.721.272.96.96,0,0,1,.246.668.929.929,0,0,1-.246.659.938.938,0,0,1-.721.264.924.924,0,0,1-.716-.264A.938.938,0,0,1,35.631-12.032ZM39.56-4.843a5.617,5.617,0,0,1,.549-2.514,4.1,4.1,0,0,1,1.529-1.723,4.163,4.163,0,0,1,2.237-.606,4.01,4.01,0,0,1,3.142,1.345,5.174,5.174,0,0,1,1.2,3.577v.114a5.666,5.666,0,0,1-.532,2.492A4.038,4.038,0,0,1,46.165-.439a4.211,4.211,0,0,1-2.272.615,4,4,0,0,1-3.133-1.345,5.147,5.147,0,0,1-1.2-3.56Zm1.635.193a4.068,4.068,0,0,0,.734,2.54,2.349,2.349,0,0,0,1.964.958,2.335,2.335,0,0,0,1.969-.971,4.449,4.449,0,0,0,.729-2.72,4.061,4.061,0,0,0-.743-2.536,2.361,2.361,0,0,0-1.973-.971,2.335,2.335,0,0,0-1.942.958A4.416,4.416,0,0,0,41.194-4.649Zm3.419-8.833h1.969L44.227-10.9l-1.31,0ZM51.794-9.51l.053,1.2a3.465,3.465,0,0,1,2.848-1.371q3.015,0,3.041,3.4V0H56.109V-6.293a2.189,2.189,0,0,0-.47-1.521A1.884,1.884,0,0,0,54.2-8.306a2.347,2.347,0,0,0-1.389.422,2.865,2.865,0,0,0-.932,1.107V0H50.256V-9.51Z" transform="translate(-4584.131 -10081)" fill="#8722e2"/>
    <path id="Trazado_873609" data-name="Trazado 873609" d="M-48.059-4.061a4.708,4.708,0,0,1-1.5,3.133A4.911,4.911,0,0,1-52.91.176,4.509,4.509,0,0,1-56.544-1.45,6.542,6.542,0,0,1-57.911-5.8v-1.23a7.291,7.291,0,0,1,.637-3.138,4.76,4.76,0,0,1,1.806-2.079,5.029,5.029,0,0,1,2.707-.725,4.624,4.624,0,0,1,3.27,1.138,4.765,4.765,0,0,1,1.433,3.151h-1.7a3.677,3.677,0,0,0-.954-2.222,2.885,2.885,0,0,0-2.052-.688A3.019,3.019,0,0,0-55.3-10.4a5.492,5.492,0,0,0-.918,3.4v1.24a5.645,5.645,0,0,0,.87,3.316A2.812,2.812,0,0,0-52.91-1.2a3.247,3.247,0,0,0,2.158-.637,3.536,3.536,0,0,0,1-2.219Zm1.617-.782a5.617,5.617,0,0,1,.549-2.514,4.1,4.1,0,0,1,1.529-1.723,4.163,4.163,0,0,1,2.237-.606,4.01,4.01,0,0,1,3.142,1.345,5.174,5.174,0,0,1,1.2,3.577v.114a5.666,5.666,0,0,1-.532,2.492A4.038,4.038,0,0,1-39.836-.439a4.211,4.211,0,0,1-2.272.615,4,4,0,0,1-3.133-1.345,5.147,5.147,0,0,1-1.2-3.56Zm1.635.193a4.068,4.068,0,0,0,.734,2.54,2.349,2.349,0,0,0,1.964.958,2.335,2.335,0,0,0,1.969-.971,4.449,4.449,0,0,0,.729-2.72,4.061,4.061,0,0,0-.743-2.536,2.361,2.361,0,0,0-1.973-.971,2.335,2.335,0,0,0-1.942.958A4.416,4.416,0,0,0-44.807-4.649Zm10.591-4.86.044,1.055a3.512,3.512,0,0,1,2.821-1.23,2.719,2.719,0,0,1,2.716,1.529A3.6,3.6,0,0,1-27.4-9.264a3.647,3.647,0,0,1,1.8-.422q3.129,0,3.182,3.313V0h-1.626V-6.275A2.184,2.184,0,0,0-24.513-7.8a2.051,2.051,0,0,0-1.564-.505,2.156,2.156,0,0,0-1.5.541,2.193,2.193,0,0,0-.694,1.455V0h-1.635V-6.231a1.814,1.814,0,0,0-2.03-2.074,2.175,2.175,0,0,0-2.188,1.362V0h-1.626V-9.51Zm22.28,4.86a5.694,5.694,0,0,1-.993,3.5A3.183,3.183,0,0,1-15.618.176a3.488,3.488,0,0,1-2.725-1.1V3.656h-1.626V-9.51h1.485l.079,1.055a3.35,3.35,0,0,1,2.76-1.23,3.243,3.243,0,0,1,2.711,1.292,5.756,5.756,0,0,1,1,3.595Zm-1.626-.185a4.2,4.2,0,0,0-.686-2.54,2.208,2.208,0,0,0-1.881-.932A2.39,2.39,0,0,0-18.343-7v4.544a2.4,2.4,0,0,0,2.232,1.3,2.2,2.2,0,0,0,1.859-.927A4.587,4.587,0,0,0-13.562-4.834Zm8.288-3.217a4.873,4.873,0,0,0-.8-.062A2.143,2.143,0,0,0-8.244-6.75V0H-9.87V-9.51h1.582l.026,1.1A2.532,2.532,0,0,1-5.994-9.686a1.661,1.661,0,0,1,.721.123Zm.888,3.208a5.617,5.617,0,0,1,.549-2.514A4.1,4.1,0,0,1-2.307-9.079,4.163,4.163,0,0,1-.07-9.686,4.01,4.01,0,0,1,3.072-8.341a5.174,5.174,0,0,1,1.2,3.577v.114A5.666,5.666,0,0,1,3.74-2.158,4.038,4.038,0,0,1,2.219-.439,4.211,4.211,0,0,1-.053.176,4,4,0,0,1-3.186-1.169a5.147,5.147,0,0,1-1.2-3.56Zm1.635.193a4.068,4.068,0,0,0,.734,2.54,2.349,2.349,0,0,0,1.964.958,2.335,2.335,0,0,0,1.969-.971,4.449,4.449,0,0,0,.729-2.72A4.061,4.061,0,0,0,1.9-7.378,2.361,2.361,0,0,0-.07-8.35a2.335,2.335,0,0,0-1.942.958A4.416,4.416,0,0,0-2.751-4.649Zm17.112,0a5.654,5.654,0,0,1-1,3.5A3.2,3.2,0,0,1,10.67.176,3.315,3.315,0,0,1,7.884-1.1L7.8,0H6.311V-13.5H7.937v5.036a3.3,3.3,0,0,1,2.716-1.222,3.221,3.221,0,0,1,2.72,1.31,5.824,5.824,0,0,1,.989,3.586Zm-1.626-.185A4.394,4.394,0,0,0,12.094-7.4a2.124,2.124,0,0,0-1.846-.905A2.387,2.387,0,0,0,7.937-6.812V-2.7A2.454,2.454,0,0,0,10.266-1.2a2.112,2.112,0,0,0,1.819-.905A4.672,4.672,0,0,0,12.735-4.834ZM22.28,0a3.416,3.416,0,0,1-.229-1A3.628,3.628,0,0,1,19.345.176a3.357,3.357,0,0,1-2.307-.8,2.573,2.573,0,0,1-.9-2.017,2.688,2.688,0,0,1,1.129-2.307,5.325,5.325,0,0,1,3.177-.822h1.582v-.747a1.826,1.826,0,0,0-.51-1.358,2.049,2.049,0,0,0-1.5-.505,2.371,2.371,0,0,0-1.459.439,1.3,1.3,0,0,0-.589,1.063H16.33a2.244,2.244,0,0,1,.505-1.375A3.449,3.449,0,0,1,18.207-9.3a4.613,4.613,0,0,1,1.9-.387,3.759,3.759,0,0,1,2.575.822A2.964,2.964,0,0,1,23.651-6.6v4.377a5.351,5.351,0,0,0,.334,2.083V0Zm-2.7-1.239a2.858,2.858,0,0,0,1.45-.4,2.392,2.392,0,0,0,.993-1.028V-4.614H20.751q-2.988,0-2.988,1.749a1.48,1.48,0,0,0,.51,1.2A1.959,1.959,0,0,0,19.582-1.239Zm10.433.088a2.342,2.342,0,0,0,1.521-.527A1.855,1.855,0,0,0,32.256-3h1.538a2.949,2.949,0,0,1-.562,1.556A3.7,3.7,0,0,1,31.847-.264a3.994,3.994,0,0,1-1.833.439,3.918,3.918,0,0,1-3.089-1.3,5.163,5.163,0,0,1-1.147-3.546v-.272a5.725,5.725,0,0,1,.51-2.47,3.883,3.883,0,0,1,1.463-1.679,4.157,4.157,0,0,1,2.254-.6,3.814,3.814,0,0,1,2.659.958A3.424,3.424,0,0,1,33.794-6.24H32.256a2.241,2.241,0,0,0-.7-1.516,2.174,2.174,0,0,0-1.551-.593,2.276,2.276,0,0,0-1.92.892,4.19,4.19,0,0,0-.681,2.58v.308a4.106,4.106,0,0,0,.677,2.531A2.287,2.287,0,0,0,30.015-1.151ZM37.389,0H35.763V-9.51h1.626ZM35.631-12.032a.971.971,0,0,1,.242-.668.907.907,0,0,1,.716-.272.922.922,0,0,1,.721.272.96.96,0,0,1,.246.668.929.929,0,0,1-.246.659.938.938,0,0,1-.721.264.924.924,0,0,1-.716-.264A.938.938,0,0,1,35.631-12.032ZM39.56-4.843a5.617,5.617,0,0,1,.549-2.514,4.1,4.1,0,0,1,1.529-1.723,4.163,4.163,0,0,1,2.237-.606,4.01,4.01,0,0,1,3.142,1.345,5.174,5.174,0,0,1,1.2,3.577v.114a5.666,5.666,0,0,1-.532,2.492A4.038,4.038,0,0,1,46.165-.439a4.211,4.211,0,0,1-2.272.615,4,4,0,0,1-3.133-1.345,5.147,5.147,0,0,1-1.2-3.56Zm1.635.193a4.068,4.068,0,0,0,.734,2.54,2.349,2.349,0,0,0,1.964.958,2.335,2.335,0,0,0,1.969-.971,4.449,4.449,0,0,0,.729-2.72,4.061,4.061,0,0,0-.743-2.536,2.361,2.361,0,0,0-1.973-.971,2.335,2.335,0,0,0-1.942.958A4.416,4.416,0,0,0,41.194-4.649Zm3.419-8.833h1.969L44.227-10.9l-1.31,0ZM51.794-9.51l.053,1.2a3.465,3.465,0,0,1,2.848-1.371q3.015,0,3.041,3.4V0H56.109V-6.293a2.189,2.189,0,0,0-.47-1.521A1.884,1.884,0,0,0,54.2-8.306a2.347,2.347,0,0,0-1.389.422,2.865,2.865,0,0,0-.932,1.107V0H50.256V-9.51Z" transform="translate(-4584.131 -9948)" fill="#8722e2"/>
    <path id="Trazado_873613" data-name="Trazado 873613" d="M-48.059-4.061a4.708,4.708,0,0,1-1.5,3.133A4.911,4.911,0,0,1-52.91.176,4.509,4.509,0,0,1-56.544-1.45,6.542,6.542,0,0,1-57.911-5.8v-1.23a7.291,7.291,0,0,1,.637-3.138,4.76,4.76,0,0,1,1.806-2.079,5.029,5.029,0,0,1,2.707-.725,4.624,4.624,0,0,1,3.27,1.138,4.765,4.765,0,0,1,1.433,3.151h-1.7a3.677,3.677,0,0,0-.954-2.222,2.885,2.885,0,0,0-2.052-.688A3.019,3.019,0,0,0-55.3-10.4a5.492,5.492,0,0,0-.918,3.4v1.24a5.645,5.645,0,0,0,.87,3.316A2.812,2.812,0,0,0-52.91-1.2a3.247,3.247,0,0,0,2.158-.637,3.536,3.536,0,0,0,1-2.219Zm1.617-.782a5.617,5.617,0,0,1,.549-2.514,4.1,4.1,0,0,1,1.529-1.723,4.163,4.163,0,0,1,2.237-.606,4.01,4.01,0,0,1,3.142,1.345,5.174,5.174,0,0,1,1.2,3.577v.114a5.666,5.666,0,0,1-.532,2.492A4.038,4.038,0,0,1-39.836-.439a4.211,4.211,0,0,1-2.272.615,4,4,0,0,1-3.133-1.345,5.147,5.147,0,0,1-1.2-3.56Zm1.635.193a4.068,4.068,0,0,0,.734,2.54,2.349,2.349,0,0,0,1.964.958,2.335,2.335,0,0,0,1.969-.971,4.449,4.449,0,0,0,.729-2.72,4.061,4.061,0,0,0-.743-2.536,2.361,2.361,0,0,0-1.973-.971,2.335,2.335,0,0,0-1.942.958A4.416,4.416,0,0,0-44.807-4.649Zm10.591-4.86.044,1.055a3.512,3.512,0,0,1,2.821-1.23,2.719,2.719,0,0,1,2.716,1.529A3.6,3.6,0,0,1-27.4-9.264a3.647,3.647,0,0,1,1.8-.422q3.129,0,3.182,3.313V0h-1.626V-6.275A2.184,2.184,0,0,0-24.513-7.8a2.051,2.051,0,0,0-1.564-.505,2.156,2.156,0,0,0-1.5.541,2.193,2.193,0,0,0-.694,1.455V0h-1.635V-6.231a1.814,1.814,0,0,0-2.03-2.074,2.175,2.175,0,0,0-2.188,1.362V0h-1.626V-9.51Zm22.28,4.86a5.694,5.694,0,0,1-.993,3.5A3.183,3.183,0,0,1-15.618.176a3.488,3.488,0,0,1-2.725-1.1V3.656h-1.626V-9.51h1.485l.079,1.055a3.35,3.35,0,0,1,2.76-1.23,3.243,3.243,0,0,1,2.711,1.292,5.756,5.756,0,0,1,1,3.595Zm-1.626-.185a4.2,4.2,0,0,0-.686-2.54,2.208,2.208,0,0,0-1.881-.932A2.39,2.39,0,0,0-18.343-7v4.544a2.4,2.4,0,0,0,2.232,1.3,2.2,2.2,0,0,0,1.859-.927A4.587,4.587,0,0,0-13.562-4.834Zm8.288-3.217a4.873,4.873,0,0,0-.8-.062A2.143,2.143,0,0,0-8.244-6.75V0H-9.87V-9.51h1.582l.026,1.1A2.532,2.532,0,0,1-5.994-9.686a1.661,1.661,0,0,1,.721.123Zm.888,3.208a5.617,5.617,0,0,1,.549-2.514A4.1,4.1,0,0,1-2.307-9.079,4.163,4.163,0,0,1-.07-9.686,4.01,4.01,0,0,1,3.072-8.341a5.174,5.174,0,0,1,1.2,3.577v.114A5.666,5.666,0,0,1,3.74-2.158,4.038,4.038,0,0,1,2.219-.439,4.211,4.211,0,0,1-.053.176,4,4,0,0,1-3.186-1.169a5.147,5.147,0,0,1-1.2-3.56Zm1.635.193a4.068,4.068,0,0,0,.734,2.54,2.349,2.349,0,0,0,1.964.958,2.335,2.335,0,0,0,1.969-.971,4.449,4.449,0,0,0,.729-2.72A4.061,4.061,0,0,0,1.9-7.378,2.361,2.361,0,0,0-.07-8.35a2.335,2.335,0,0,0-1.942.958A4.416,4.416,0,0,0-2.751-4.649Zm17.112,0a5.654,5.654,0,0,1-1,3.5A3.2,3.2,0,0,1,10.67.176,3.315,3.315,0,0,1,7.884-1.1L7.8,0H6.311V-13.5H7.937v5.036a3.3,3.3,0,0,1,2.716-1.222,3.221,3.221,0,0,1,2.72,1.31,5.824,5.824,0,0,1,.989,3.586Zm-1.626-.185A4.394,4.394,0,0,0,12.094-7.4a2.124,2.124,0,0,0-1.846-.905A2.387,2.387,0,0,0,7.937-6.812V-2.7A2.454,2.454,0,0,0,10.266-1.2a2.112,2.112,0,0,0,1.819-.905A4.672,4.672,0,0,0,12.735-4.834ZM22.28,0a3.416,3.416,0,0,1-.229-1A3.628,3.628,0,0,1,19.345.176a3.357,3.357,0,0,1-2.307-.8,2.573,2.573,0,0,1-.9-2.017,2.688,2.688,0,0,1,1.129-2.307,5.325,5.325,0,0,1,3.177-.822h1.582v-.747a1.826,1.826,0,0,0-.51-1.358,2.049,2.049,0,0,0-1.5-.505,2.371,2.371,0,0,0-1.459.439,1.3,1.3,0,0,0-.589,1.063H16.33a2.244,2.244,0,0,1,.505-1.375A3.449,3.449,0,0,1,18.207-9.3a4.613,4.613,0,0,1,1.9-.387,3.759,3.759,0,0,1,2.575.822A2.964,2.964,0,0,1,23.651-6.6v4.377a5.351,5.351,0,0,0,.334,2.083V0Zm-2.7-1.239a2.858,2.858,0,0,0,1.45-.4,2.392,2.392,0,0,0,.993-1.028V-4.614H20.751q-2.988,0-2.988,1.749a1.48,1.48,0,0,0,.51,1.2A1.959,1.959,0,0,0,19.582-1.239Zm10.433.088a2.342,2.342,0,0,0,1.521-.527A1.855,1.855,0,0,0,32.256-3h1.538a2.949,2.949,0,0,1-.562,1.556A3.7,3.7,0,0,1,31.847-.264a3.994,3.994,0,0,1-1.833.439,3.918,3.918,0,0,1-3.089-1.3,5.163,5.163,0,0,1-1.147-3.546v-.272a5.725,5.725,0,0,1,.51-2.47,3.883,3.883,0,0,1,1.463-1.679,4.157,4.157,0,0,1,2.254-.6,3.814,3.814,0,0,1,2.659.958A3.424,3.424,0,0,1,33.794-6.24H32.256a2.241,2.241,0,0,0-.7-1.516,2.174,2.174,0,0,0-1.551-.593,2.276,2.276,0,0,0-1.92.892,4.19,4.19,0,0,0-.681,2.58v.308a4.106,4.106,0,0,0,.677,2.531A2.287,2.287,0,0,0,30.015-1.151ZM37.389,0H35.763V-9.51h1.626ZM35.631-12.032a.971.971,0,0,1,.242-.668.907.907,0,0,1,.716-.272.922.922,0,0,1,.721.272.96.96,0,0,1,.246.668.929.929,0,0,1-.246.659.938.938,0,0,1-.721.264.924.924,0,0,1-.716-.264A.938.938,0,0,1,35.631-12.032ZM39.56-4.843a5.617,5.617,0,0,1,.549-2.514,4.1,4.1,0,0,1,1.529-1.723,4.163,4.163,0,0,1,2.237-.606,4.01,4.01,0,0,1,3.142,1.345,5.174,5.174,0,0,1,1.2,3.577v.114a5.666,5.666,0,0,1-.532,2.492A4.038,4.038,0,0,1,46.165-.439a4.211,4.211,0,0,1-2.272.615,4,4,0,0,1-3.133-1.345,5.147,5.147,0,0,1-1.2-3.56Zm1.635.193a4.068,4.068,0,0,0,.734,2.54,2.349,2.349,0,0,0,1.964.958,2.335,2.335,0,0,0,1.969-.971,4.449,4.449,0,0,0,.729-2.72,4.061,4.061,0,0,0-.743-2.536,2.361,2.361,0,0,0-1.973-.971,2.335,2.335,0,0,0-1.942.958A4.416,4.416,0,0,0,41.194-4.649Zm3.419-8.833h1.969L44.227-10.9l-1.31,0ZM51.794-9.51l.053,1.2a3.465,3.465,0,0,1,2.848-1.371q3.015,0,3.041,3.4V0H56.109V-6.293a2.189,2.189,0,0,0-.47-1.521A1.884,1.884,0,0,0,54.2-8.306a2.347,2.347,0,0,0-1.389.422,2.865,2.865,0,0,0-.932,1.107V0H50.256V-9.51Z" transform="translate(-4584 -9813)" fill="#8722e2"/>
    <path id="Trazado_873612" data-name="Trazado 873612" d="M-27.576-3.3q.193-1.406-1.459-2.057l-1.521-.554-.51-.22q-2.566-1.169-2.4-3.287a3.438,3.438,0,0,1,.729-1.881,4.151,4.151,0,0,1,1.7-1.261,5.455,5.455,0,0,1,2.254-.417,4.5,4.5,0,0,1,2.07.519,3.333,3.333,0,0,1,1.384,1.375A3.75,3.75,0,0,1-24.9-9.088L-26.565-9.1a2.292,2.292,0,0,0-.527-1.83,2.361,2.361,0,0,0-1.758-.666,3.274,3.274,0,0,0-2.013.564,2.2,2.2,0,0,0-.932,1.585q-.176,1.312,1.608,1.99l1.31.467.659.281q2.479,1.143,2.294,3.393a3.389,3.389,0,0,1-.729,1.868A4.079,4.079,0,0,1-28.371-.229a5.924,5.924,0,0,1-2.333.4,4.882,4.882,0,0,1-2.2-.514,3.592,3.592,0,0,1-1.516-1.384,3.462,3.462,0,0,1-.457-2l1.652.009a2.177,2.177,0,0,0,.62,1.815,2.789,2.789,0,0,0,1.973.69,3.523,3.523,0,0,0,2.1-.554A2.156,2.156,0,0,0-27.576-3.3Zm8.3-6.39a3.428,3.428,0,0,1,2.048.65A3.7,3.7,0,0,1-15.97-7.291a5.4,5.4,0,0,1,.277,2.43l-.018.193a6.4,6.4,0,0,1-.826,2.509A4.848,4.848,0,0,1-18.242-.413a4.158,4.158,0,0,1-2.294.589,3.434,3.434,0,0,1-2.043-.65A3.611,3.611,0,0,1-23.832-2.2a5.547,5.547,0,0,1-.281-2.4,6.48,6.48,0,0,1,.8-2.654,4.96,4.96,0,0,1,1.718-1.824A4.109,4.109,0,0,1-19.279-9.686Zm-3.234,5.1a5.4,5.4,0,0,0,0,1.151,2.821,2.821,0,0,0,.62,1.652,1.86,1.86,0,0,0,1.419.642,2.534,2.534,0,0,0,1.459-.391A3.284,3.284,0,0,0-17.89-2.795,5.311,5.311,0,0,0-17.3-4.667a8.431,8.431,0,0,0,.026-1.362,2.927,2.927,0,0,0-.642-1.679,1.9,1.9,0,0,0-1.424-.65,2.592,2.592,0,0,0-2.092.967A4.776,4.776,0,0,0-22.5-4.79ZM-13.742,0-12.3-8.253h-1.468l.22-1.257h1.459l.158-1.125a3.733,3.733,0,0,1,1.107-2.241A3.292,3.292,0,0,1-8.468-13.7a5.5,5.5,0,0,1,1.134.15l-.193,1.335a5.216,5.216,0,0,0-.853-.105,1.816,1.816,0,0,0-1.34.513,2.333,2.333,0,0,0-.637,1.362l-.141.938H-8.53l-.22,1.257h-1.969L-12.151,0Zm9.58-11.812-.4,2.3h1.731l-.22,1.257H-4.777L-5.77-2.338a2.062,2.062,0,0,0-.009.422.67.67,0,0,0,.747.686,4.556,4.556,0,0,0,.773-.088L-4.381.009a4.328,4.328,0,0,1-1.16.158,1.661,1.661,0,0,1-1.424-.7,2.7,2.7,0,0,1-.369-1.833l.967-5.889H-8.046l.22-1.257h1.679l.4-2.3ZM5.963-2.25,9-9.51h1.644L6.306,0H5.014L4.03-7.189.6,0H-.69L-1.718-9.51H-.2l.58,7.084L3.757-9.51H5.041ZM16.458,0A2.13,2.13,0,0,1,16.4-.5l.026-.5A3.9,3.9,0,0,1,13.645.176,2.841,2.841,0,0,1,11.6-.62a2.407,2.407,0,0,1-.716-1.947,2.927,2.927,0,0,1,1.323-2.36,5.631,5.631,0,0,1,3.248-.848l1.661.009.105-.756a1.738,1.738,0,0,0-.33-1.349,1.591,1.591,0,0,0-1.252-.514,2.453,2.453,0,0,0-1.446.4,1.7,1.7,0,0,0-.769,1.1l-1.6.009a2.55,2.55,0,0,1,.65-1.481,3.784,3.784,0,0,1,1.468-1A4.742,4.742,0,0,1,15.8-9.694a3.153,3.153,0,0,1,2.312.9A2.794,2.794,0,0,1,18.8-6.5l-.773,4.711-.044.677a3.318,3.318,0,0,0,.105.958L18.075,0Zm-2.5-1.23A2.774,2.774,0,0,0,15.407-1.6a3.661,3.661,0,0,0,1.173-1.059l.343-1.96-1.2-.009a4.561,4.561,0,0,0-2.3.475A1.748,1.748,0,0,0,12.511-2.8a1.361,1.361,0,0,0,.312,1.112A1.486,1.486,0,0,0,13.961-1.23ZM26.143-8.06,25.4-8.139a2.722,2.722,0,0,0-2.408,1.38L21.819,0H20.228L21.88-9.51l1.538-.009-.237,1.107A2.843,2.843,0,0,1,25.563-9.7a2.918,2.918,0,0,1,.756.132ZM30.335.176a3.429,3.429,0,0,1-2.777-1.31,4.507,4.507,0,0,1-.844-3.261l.044-.378A6.327,6.327,0,0,1,27.6-7.356a4.882,4.882,0,0,1,1.683-1.762,3.927,3.927,0,0,1,2.145-.567,3.024,3.024,0,0,1,2.3.976,4.012,4.012,0,0,1,.914,2.549,7.448,7.448,0,0,1-.035,1.143l-.1.729H28.3a3.212,3.212,0,0,0,.426,2.2,2.019,2.019,0,0,0,1.745.94,3.383,3.383,0,0,0,2.6-1.266l.914.773A4.183,4.183,0,0,1,32.44-.294,4.371,4.371,0,0,1,30.335.176Zm1.011-8.534a2.324,2.324,0,0,0-1.718.668,4.748,4.748,0,0,0-1.165,2.065l4.623.009.035-.141A2.6,2.6,0,0,0,32.766-7.6,1.674,1.674,0,0,0,31.346-8.358Z" transform="translate(-4742 -9813)" fill="#3a1d71"/>
    <path id="Trazado_873616" data-name="Trazado 873616" d="M5,0H199.393a5,5,0,0,1,5,5V66.977a5,5,0,0,1-5,5H5a5,5,0,0,1-5-5V5A5,5,0,0,1,5,0Z" transform="translate(-4756 -9664.648)" fill="#ebd3fe"/>
    <path id="Trazado_873603" data-name="Trazado 873603" d="M8.367-2.637H3.744L2.865,0H.062L4.825-12.8H7.269L12.059,0h-2.8ZM4.456-4.772h3.2L6.047-9.562ZM15-9.51l.079,1.1a3.32,3.32,0,0,1,2.733-1.274,2.759,2.759,0,0,1,2.25.888,4.142,4.142,0,0,1,.756,2.654V0h-2.54V-6.1a1.654,1.654,0,0,0-.352-1.176,1.572,1.572,0,0,0-1.169-.366,1.747,1.747,0,0,0-1.608.916V0h-2.54V-9.51ZM28.257,0A2.821,2.821,0,0,1,28-.853,3.073,3.073,0,0,1,25.6.176a3.376,3.376,0,0,1-2.316-.809,2.6,2.6,0,0,1-.918-2.039,2.687,2.687,0,0,1,1.121-2.32,5.529,5.529,0,0,1,3.239-.817H27.9v-.545a1.567,1.567,0,0,0-.338-1.055,1.331,1.331,0,0,0-1.068-.4,1.513,1.513,0,0,0-1.006.308,1.045,1.045,0,0,0-.365.844h-2.54a2.551,2.551,0,0,1,.51-1.529,3.37,3.37,0,0,1,1.441-1.1,5.253,5.253,0,0,1,2.092-.4,4.15,4.15,0,0,1,2.791.883,3.09,3.09,0,0,1,1.033,2.483V-2.2a4.546,4.546,0,0,0,.378,2.048V0Zm-2.1-1.767a2.188,2.188,0,0,0,1.037-.25,1.645,1.645,0,0,0,.7-.672V-4.324h-.949q-1.907,0-2.03,1.318l-.009.149a1.017,1.017,0,0,0,.334.782A1.3,1.3,0,0,0,26.156-1.767ZM27.123-13.5h2.769l-2.435,2.725H25.392ZM35.077,0H32.528V-13.5h2.549ZM39.85,0H37.3V-9.51H39.85Zm-2.7-11.971a1.251,1.251,0,0,1,.382-.94,1.436,1.436,0,0,1,1.042-.369,1.44,1.44,0,0,1,1.037.369,1.244,1.244,0,0,1,.387.94,1.247,1.247,0,0,1-.391.949,1.443,1.443,0,0,1-1.033.369,1.443,1.443,0,0,1-1.033-.369A1.247,1.247,0,0,1,37.151-11.971Zm9.94,9.343a.818.818,0,0,0-.461-.734,5.241,5.241,0,0,0-1.481-.479q-3.393-.712-3.393-2.883a2.613,2.613,0,0,1,1.05-2.114,4.237,4.237,0,0,1,2.747-.848,4.56,4.56,0,0,1,2.9.853,2.687,2.687,0,0,1,1.085,2.215H47a1.229,1.229,0,0,0-.352-.9,1.488,1.488,0,0,0-1.1-.356,1.52,1.52,0,0,0-.993.29.916.916,0,0,0-.352.738.783.783,0,0,0,.4.681,4.114,4.114,0,0,0,1.349.448,11.019,11.019,0,0,1,1.6.426,2.628,2.628,0,0,1,2.013,2.558,2.481,2.481,0,0,1-1.116,2.1,4.815,4.815,0,0,1-2.883.8A5.029,5.029,0,0,1,43.44-.25a3.561,3.561,0,0,1-1.455-1.169,2.716,2.716,0,0,1-.527-1.6h2.408a1.326,1.326,0,0,0,.5,1.037,1.987,1.987,0,0,0,1.248.36,1.839,1.839,0,0,0,1.1-.277A.861.861,0,0,0,47.092-2.628ZM53.877,0H51.328V-9.51h2.549Zm-2.7-11.971a1.251,1.251,0,0,1,.382-.94A1.436,1.436,0,0,1,52.6-13.28a1.44,1.44,0,0,1,1.037.369,1.244,1.244,0,0,1,.387.94,1.247,1.247,0,0,1-.391.949,1.443,1.443,0,0,1-1.033.369,1.443,1.443,0,0,1-1.033-.369A1.247,1.247,0,0,1,51.179-11.971Zm9.94,9.343a.818.818,0,0,0-.461-.734,5.241,5.241,0,0,0-1.481-.479q-3.393-.712-3.393-2.883a2.613,2.613,0,0,1,1.05-2.114,4.237,4.237,0,0,1,2.747-.848,4.56,4.56,0,0,1,2.9.853,2.687,2.687,0,0,1,1.085,2.215h-2.54a1.229,1.229,0,0,0-.352-.9,1.488,1.488,0,0,0-1.1-.356,1.52,1.52,0,0,0-.993.29.916.916,0,0,0-.352.738.783.783,0,0,0,.4.681,4.114,4.114,0,0,0,1.349.448,11.019,11.019,0,0,1,1.6.426,2.628,2.628,0,0,1,2.013,2.558,2.481,2.481,0,0,1-1.116,2.1,4.815,4.815,0,0,1-2.883.8A5.029,5.029,0,0,1,57.467-.25a3.561,3.561,0,0,1-1.455-1.169,2.716,2.716,0,0,1-.527-1.6h2.408a1.326,1.326,0,0,0,.5,1.037,1.987,1.987,0,0,0,1.248.36,1.839,1.839,0,0,0,1.1-.277A.861.861,0,0,0,61.119-2.628Z" transform="translate(-4710 -10147)" fill="#fff"/>
    <path id="Trazado_873607" data-name="Trazado 873607" d="M-26.714,0V-12.8h3.938a5.98,5.98,0,0,1,3.019.76,5.3,5.3,0,0,1,2.079,2.162,6.669,6.669,0,0,1,.747,3.186V-6.1a6.688,6.688,0,0,1-.734,3.173,5.256,5.256,0,0,1-2.07,2.153A6.025,6.025,0,0,1-22.75,0Zm2.637-10.661v8.543H-22.8a2.863,2.863,0,0,0,2.364-1.011A4.567,4.567,0,0,0-19.6-6.021V-6.7a4.64,4.64,0,0,0-.809-2.958,2.854,2.854,0,0,0-2.364-1.006ZM-12.5,0h-2.549V-9.51H-12.5Zm-2.7-11.971a1.251,1.251,0,0,1,.382-.94,1.436,1.436,0,0,1,1.042-.369,1.44,1.44,0,0,1,1.037.369,1.244,1.244,0,0,1,.387.94,1.247,1.247,0,0,1-.391.949,1.443,1.443,0,0,1-1.033.369,1.443,1.443,0,0,1-1.033-.369A1.247,1.247,0,0,1-15.2-11.971Zm9.94,9.343a.818.818,0,0,0-.461-.734A5.241,5.241,0,0,0-7.2-3.841Q-10.6-4.553-10.6-6.724a2.613,2.613,0,0,1,1.05-2.114A4.237,4.237,0,0,1-6.8-9.686a4.56,4.56,0,0,1,2.9.853A2.687,2.687,0,0,1-2.817-6.618h-2.54a1.229,1.229,0,0,0-.352-.9,1.488,1.488,0,0,0-1.1-.356,1.52,1.52,0,0,0-.993.29.916.916,0,0,0-.352.738.783.783,0,0,0,.4.681A4.114,4.114,0,0,0-6.4-5.717a11.019,11.019,0,0,1,1.6.426A2.628,2.628,0,0,1-2.791-2.733a2.481,2.481,0,0,1-1.116,2.1,4.815,4.815,0,0,1-2.883.8A5.029,5.029,0,0,1-8.912-.25a3.561,3.561,0,0,1-1.455-1.169,2.716,2.716,0,0,1-.527-1.6h2.408a1.326,1.326,0,0,0,.5,1.037,1.987,1.987,0,0,0,1.248.36,1.839,1.839,0,0,0,1.1-.277A.861.861,0,0,0-5.26-2.628ZM3.221.176A4.668,4.668,0,0,1-.185-1.107,4.561,4.561,0,0,1-1.5-4.526v-.246A5.745,5.745,0,0,1-.945-7.334,4.064,4.064,0,0,1,.624-9.075,4.4,4.4,0,0,1,2.94-9.686a3.947,3.947,0,0,1,3.072,1.23A5,5,0,0,1,7.132-4.966v1.037H1.077a2.36,2.36,0,0,0,.743,1.494,2.245,2.245,0,0,0,1.569.563A2.742,2.742,0,0,0,5.682-2.936l1.248,1.4A3.813,3.813,0,0,1,5.383-.277,5.075,5.075,0,0,1,3.221.176Zm-.29-7.813a1.587,1.587,0,0,0-1.226.512A2.651,2.651,0,0,0,1.1-5.66H4.636v-.2a1.891,1.891,0,0,0-.457-1.311A1.638,1.638,0,0,0,2.931-7.638Zm7.98-1.872.079,1.1a3.32,3.32,0,0,1,2.733-1.274,2.759,2.759,0,0,1,2.25.888,4.142,4.142,0,0,1,.756,2.654V0H14.19V-6.1a1.654,1.654,0,0,0-.352-1.176,1.572,1.572,0,0,0-1.169-.366,1.747,1.747,0,0,0-1.608.916V0H8.521V-9.51Zm5.045-3.876a2.46,2.46,0,0,1-.58,1.666,1.8,1.8,0,0,1-1.415.672,2.146,2.146,0,0,1-.593-.075,3.981,3.981,0,0,1-.716-.321,3.864,3.864,0,0,0-.659-.3,1.611,1.611,0,0,0-.439-.057.7.7,0,0,0-.523.22.854.854,0,0,0-.215.624l-1.477-.088a2.5,2.5,0,0,1,.576-1.661,1.776,1.776,0,0,1,1.411-.686,1.816,1.816,0,0,1,.5.066,5.468,5.468,0,0,1,.76.321,4.941,4.941,0,0,0,.729.308,1.665,1.665,0,0,0,.422.053.741.741,0,0,0,.532-.215.819.819,0,0,0,.224-.62Zm2.3,8.543A5.64,5.64,0,0,1,18.8-7.365a3.989,3.989,0,0,1,1.569-1.714,4.577,4.577,0,0,1,2.377-.606,4.33,4.33,0,0,1,3.142,1.178,4.727,4.727,0,0,1,1.358,3.2l.018.65a4.97,4.97,0,0,1-1.222,3.511A4.247,4.247,0,0,1,22.768.176a4.268,4.268,0,0,1-3.283-1.318,5.058,5.058,0,0,1-1.226-3.586Zm2.54.18a3.555,3.555,0,0,0,.51,2.073,1.682,1.682,0,0,0,1.459.717,1.686,1.686,0,0,0,1.441-.709,3.89,3.89,0,0,0,.519-2.267,3.519,3.519,0,0,0-.519-2.06,1.686,1.686,0,0,0-1.459-.731,1.658,1.658,0,0,0-1.441.726A3.955,3.955,0,0,0,20.8-4.662Z" transform="translate(-4678 -10013)" fill="#fff"/>
    <path id="Trazado_873611" data-name="Trazado 873611" d="M-61.559,0H-64.2V-12.8h2.637ZM-56.9-9.51l.079,1.063a3.342,3.342,0,0,1,2.733-1.239,2.536,2.536,0,0,1,2.522,1.45,3.265,3.265,0,0,1,2.856-1.45,2.836,2.836,0,0,1,2.3.9,4.141,4.141,0,0,1,.756,2.711V0H-48.2V-6.078a1.818,1.818,0,0,0-.316-1.185,1.4,1.4,0,0,0-1.116-.374,1.585,1.585,0,0,0-1.582,1.092L-51.205,0h-2.54V-6.07a1.8,1.8,0,0,0-.325-1.2,1.414,1.414,0,0,0-1.107-.37,1.645,1.645,0,0,0-1.564.9V0h-2.54V-9.51Zm21.762,4.843a5.7,5.7,0,0,1-1,3.52A3.2,3.2,0,0,1-38.83.176a2.963,2.963,0,0,1-2.329-1V3.656H-43.7V-9.51h2.355l.088.932a2.985,2.985,0,0,1,2.408-1.107,3.22,3.22,0,0,1,2.733,1.3A5.858,5.858,0,0,1-35.139-4.8Zm-2.54-.194a3.763,3.763,0,0,0-.47-2.054,1.53,1.53,0,0,0-1.367-.723,1.662,1.662,0,0,0-1.644.917v3.906a1.691,1.691,0,0,0,1.661.943Q-37.679-1.872-37.679-4.861ZM-30.885,0h-2.549V-13.5h2.549Zm6.469.176a4.668,4.668,0,0,1-3.406-1.283,4.561,4.561,0,0,1-1.314-3.419v-.246a5.745,5.745,0,0,1,.554-2.562,4.064,4.064,0,0,1,1.569-1.74A4.4,4.4,0,0,1-24.7-9.686a3.947,3.947,0,0,1,3.072,1.23A5,5,0,0,1-20.5-4.966v1.037h-6.056a2.36,2.36,0,0,0,.743,1.494,2.245,2.245,0,0,0,1.569.563,2.742,2.742,0,0,0,2.294-1.063l1.248,1.4A3.813,3.813,0,0,1-22.254-.277,5.075,5.075,0,0,1-24.416.176Zm-.29-7.813a1.587,1.587,0,0,0-1.226.512,2.651,2.651,0,0,0-.6,1.466H-23v-.2a1.891,1.891,0,0,0-.457-1.311A1.638,1.638,0,0,0-24.706-7.638Zm8.024-1.872.079,1.063a3.342,3.342,0,0,1,2.733-1.239,2.536,2.536,0,0,1,2.522,1.45A3.265,3.265,0,0,1-8.49-9.686a2.836,2.836,0,0,1,2.3.9,4.141,4.141,0,0,1,.756,2.711V0H-7.98V-6.078A1.818,1.818,0,0,0-8.3-7.263a1.4,1.4,0,0,0-1.116-.374A1.585,1.585,0,0,0-11-6.545L-10.986,0h-2.54V-6.07a1.8,1.8,0,0,0-.325-1.2,1.414,1.414,0,0,0-1.107-.37,1.645,1.645,0,0,0-1.564.9V0h-2.54V-9.51ZM.9.176A4.668,4.668,0,0,1-2.509-1.107,4.561,4.561,0,0,1-3.823-4.526v-.246A5.745,5.745,0,0,1-3.27-7.334,4.064,4.064,0,0,1-1.7-9.075,4.4,4.4,0,0,1,.615-9.686a3.947,3.947,0,0,1,3.072,1.23A5,5,0,0,1,4.808-4.966v1.037H-1.248A2.36,2.36,0,0,0-.505-2.435a2.245,2.245,0,0,0,1.569.563A2.742,2.742,0,0,0,3.357-2.936l1.248,1.4A3.813,3.813,0,0,1,3.059-.277,5.075,5.075,0,0,1,.9.176ZM.606-7.638A1.587,1.587,0,0,0-.62-7.126a2.651,2.651,0,0,0-.6,1.466H2.312v-.2a1.891,1.891,0,0,0-.457-1.311A1.638,1.638,0,0,0,.606-7.638ZM8.587-9.51l.079,1.1A3.32,3.32,0,0,1,11.4-9.686a2.759,2.759,0,0,1,2.25.888,4.142,4.142,0,0,1,.756,2.654V0h-2.54V-6.1a1.654,1.654,0,0,0-.352-1.176,1.572,1.572,0,0,0-1.169-.366,1.747,1.747,0,0,0-1.608.916V0H6.2V-9.51Zm10.784-2.338V-9.51H21v1.863H19.371V-2.9a1.133,1.133,0,0,0,.2.756,1.015,1.015,0,0,0,.773.229,4.051,4.051,0,0,0,.747-.062V-.053a5.229,5.229,0,0,1-1.538.229,2.425,2.425,0,0,1-2.725-2.7V-7.646H15.442V-9.51h1.389v-2.338ZM27.923,0a2.821,2.821,0,0,1-.255-.853,3.073,3.073,0,0,1-2.4,1.028,3.376,3.376,0,0,1-2.316-.809,2.6,2.6,0,0,1-.918-2.039,2.687,2.687,0,0,1,1.121-2.32,5.529,5.529,0,0,1,3.239-.817h1.169v-.545a1.567,1.567,0,0,0-.338-1.055,1.331,1.331,0,0,0-1.068-.4A1.513,1.513,0,0,0,25.15-7.5a1.045,1.045,0,0,0-.365.844h-2.54a2.551,2.551,0,0,1,.51-1.529,3.37,3.37,0,0,1,1.441-1.1,5.253,5.253,0,0,1,2.092-.4,4.15,4.15,0,0,1,2.791.883,3.09,3.09,0,0,1,1.033,2.483V-2.2a4.546,4.546,0,0,0,.378,2.048V0Zm-2.1-1.767a2.188,2.188,0,0,0,1.037-.25,1.645,1.645,0,0,0,.7-.672V-4.324h-.949q-1.907,0-2.03,1.318l-.009.149a1.017,1.017,0,0,0,.334.782A1.3,1.3,0,0,0,25.822-1.767Zm10.2-.105a1.666,1.666,0,0,0,1.143-.387,1.355,1.355,0,0,0,.457-1.028H40a3.258,3.258,0,0,1-.527,1.771A3.48,3.48,0,0,1,38.052-.268a4.442,4.442,0,0,1-1.991.444,4.129,4.129,0,0,1-3.217-1.3A5.13,5.13,0,0,1,31.667-4.7v-.167a5.071,5.071,0,0,1,1.169-3.507,4.08,4.08,0,0,1,3.208-1.31A4,4,0,0,1,38.9-8.67,3.594,3.594,0,0,1,40-5.968H37.617a1.745,1.745,0,0,0-.457-1.206A1.524,1.524,0,0,0,36-7.638a1.53,1.53,0,0,0-1.34.647,3.749,3.749,0,0,0-.453,2.1v.264a3.8,3.8,0,0,0,.448,2.113A1.549,1.549,0,0,0,36.018-1.872ZM44.13,0H41.581V-9.51H44.13Zm-2.7-11.971a1.251,1.251,0,0,1,.382-.94,1.436,1.436,0,0,1,1.042-.369,1.44,1.44,0,0,1,1.037.369,1.244,1.244,0,0,1,.387.94,1.247,1.247,0,0,1-.391.949,1.443,1.443,0,0,1-1.033.369,1.443,1.443,0,0,1-1.033-.369A1.247,1.247,0,0,1,41.432-11.971Zm4.395,7.128a5.64,5.64,0,0,1,.545-2.522A3.989,3.989,0,0,1,47.94-9.079a4.577,4.577,0,0,1,2.377-.606,4.33,4.33,0,0,1,3.142,1.178,4.727,4.727,0,0,1,1.358,3.2l.018.65a4.97,4.97,0,0,1-1.222,3.511A4.247,4.247,0,0,1,50.335.176a4.268,4.268,0,0,1-3.283-1.318,5.058,5.058,0,0,1-1.226-3.586Zm2.54.18a3.555,3.555,0,0,0,.51,2.073,1.682,1.682,0,0,0,1.459.717,1.686,1.686,0,0,0,1.441-.709,3.89,3.89,0,0,0,.519-2.267,3.519,3.519,0,0,0-.519-2.06,1.686,1.686,0,0,0-1.459-.731,1.658,1.658,0,0,0-1.441.726A3.955,3.955,0,0,0,48.366-4.662ZM50.818-13.5h2.769l-2.435,2.725H49.087Zm7.919,3.99.079,1.1A3.32,3.32,0,0,1,61.55-9.686,2.759,2.759,0,0,1,63.8-8.8a4.142,4.142,0,0,1,.756,2.654V0h-2.54V-6.1a1.654,1.654,0,0,0-.352-1.176A1.572,1.572,0,0,0,60.5-7.638a1.747,1.747,0,0,0-1.608.916V0h-2.54V-9.51Z" transform="translate(-4678 -9879)" fill="#12263f"/>
    <path id="Trazado_873615" data-name="Trazado 873615" d="M-42.557-3.173l2.9-9.624h2.936L-41.177,0h-2.751l-4.438-12.8h2.927ZM-31.693.176A4.668,4.668,0,0,1-35.1-1.107a4.561,4.561,0,0,1-1.314-3.419v-.246a5.745,5.745,0,0,1,.554-2.562,4.064,4.064,0,0,1,1.569-1.74,4.4,4.4,0,0,1,2.316-.611A3.947,3.947,0,0,1-28.9-8.455a5,5,0,0,1,1.121,3.489v1.037h-6.056A2.36,2.36,0,0,0-33.1-2.435a2.245,2.245,0,0,0,1.569.563,2.742,2.742,0,0,0,2.294-1.063l1.248,1.4A3.813,3.813,0,0,1-29.531-.277,5.075,5.075,0,0,1-31.693.176Zm-.29-7.813a1.587,1.587,0,0,0-1.226.512,2.651,2.651,0,0,0-.6,1.466h3.533v-.2a1.891,1.891,0,0,0-.457-1.311A1.638,1.638,0,0,0-31.983-7.638ZM-21-7.128a6.9,6.9,0,0,0-.914-.07,1.86,1.86,0,0,0-1.89.976V0h-2.54V-9.51h2.4l.07,1.134a2.354,2.354,0,0,1,2.118-1.31,2.662,2.662,0,0,1,.791.114ZM-17.095,0h-2.549V-9.51h2.549Zm-2.7-11.971a1.251,1.251,0,0,1,.382-.94,1.436,1.436,0,0,1,1.042-.369,1.44,1.44,0,0,1,1.037.369,1.244,1.244,0,0,1,.387.94,1.247,1.247,0,0,1-.391.949,1.443,1.443,0,0,1-1.033.369,1.443,1.443,0,0,1-1.033-.369A1.247,1.247,0,0,1-19.793-11.971ZM-14.388,0V-7.646H-15.8V-9.51h1.415v-.439a3.566,3.566,0,0,1,1.1-2.764,4.438,4.438,0,0,1,3.063-.971,10.16,10.16,0,0,1,2.883.519l-.369,2.1a11.248,11.248,0,0,0-1.336-.33,6.564,6.564,0,0,0-1.02-.075q-1.775,0-1.775,1.573v.387h1.872v1.863h-1.872V0Zm8.235,0H-8.7V-9.51h2.549ZM-.1-1.872a1.666,1.666,0,0,0,1.143-.387A1.355,1.355,0,0,0,1.5-3.287H3.885a3.258,3.258,0,0,1-.527,1.771A3.48,3.48,0,0,1,1.938-.268,4.442,4.442,0,0,1-.053.176a4.129,4.129,0,0,1-3.217-1.3A5.13,5.13,0,0,1-4.447-4.7v-.167A5.071,5.071,0,0,1-3.278-8.376,4.08,4.08,0,0,1-.07-9.686,4,4,0,0,1,2.791-8.67a3.594,3.594,0,0,1,1.094,2.7H1.5a1.745,1.745,0,0,0-.457-1.206,1.524,1.524,0,0,0-1.16-.464,1.53,1.53,0,0,0-1.34.647,3.749,3.749,0,0,0-.453,2.1v.264a3.8,3.8,0,0,0,.448,2.113A1.549,1.549,0,0,0-.1-1.872ZM10.846,0a2.821,2.821,0,0,1-.255-.853A3.073,3.073,0,0,1,8.191.176,3.376,3.376,0,0,1,5.875-.633a2.6,2.6,0,0,1-.918-2.039,2.687,2.687,0,0,1,1.121-2.32A5.529,5.529,0,0,1,9.316-5.81h1.169v-.545a1.567,1.567,0,0,0-.338-1.055,1.331,1.331,0,0,0-1.068-.4A1.513,1.513,0,0,0,8.073-7.5a1.045,1.045,0,0,0-.365.844H5.168a2.551,2.551,0,0,1,.51-1.529,3.37,3.37,0,0,1,1.441-1.1,5.253,5.253,0,0,1,2.092-.4A4.15,4.15,0,0,1,12-8.8a3.09,3.09,0,0,1,1.033,2.483V-2.2a4.546,4.546,0,0,0,.378,2.048V0Zm-2.1-1.767a2.188,2.188,0,0,0,1.037-.25,1.645,1.645,0,0,0,.7-.672V-4.324H9.536q-1.907,0-2.03,1.318L7.5-2.856a1.017,1.017,0,0,0,.334.782A1.3,1.3,0,0,0,8.745-1.767Zm10.2-.105a1.666,1.666,0,0,0,1.143-.387,1.355,1.355,0,0,0,.457-1.028h2.382a3.258,3.258,0,0,1-.527,1.771A3.48,3.48,0,0,1,20.975-.268a4.442,4.442,0,0,1-1.991.444,4.129,4.129,0,0,1-3.217-1.3A5.13,5.13,0,0,1,14.59-4.7v-.167a5.071,5.071,0,0,1,1.169-3.507,4.08,4.08,0,0,1,3.208-1.31A4,4,0,0,1,21.828-8.67a3.594,3.594,0,0,1,1.094,2.7H20.54a1.745,1.745,0,0,0-.457-1.206,1.524,1.524,0,0,0-1.16-.464,1.53,1.53,0,0,0-1.34.647,3.749,3.749,0,0,0-.453,2.1v.264a3.8,3.8,0,0,0,.448,2.113A1.549,1.549,0,0,0,18.94-1.872ZM27.053,0H24.5V-9.51h2.549Zm-2.7-11.971a1.251,1.251,0,0,1,.382-.94,1.436,1.436,0,0,1,1.042-.369,1.44,1.44,0,0,1,1.037.369,1.244,1.244,0,0,1,.387.94,1.247,1.247,0,0,1-.391.949,1.443,1.443,0,0,1-1.033.369,1.443,1.443,0,0,1-1.033-.369A1.247,1.247,0,0,1,24.354-11.971Zm4.395,7.128a5.64,5.64,0,0,1,.545-2.522,3.989,3.989,0,0,1,1.569-1.714,4.577,4.577,0,0,1,2.377-.606,4.33,4.33,0,0,1,3.142,1.178,4.727,4.727,0,0,1,1.358,3.2l.018.65a4.97,4.97,0,0,1-1.222,3.511A4.247,4.247,0,0,1,33.258.176a4.268,4.268,0,0,1-3.283-1.318,5.058,5.058,0,0,1-1.226-3.586Zm2.54.18a3.555,3.555,0,0,0,.51,2.073,1.682,1.682,0,0,0,1.459.717A1.686,1.686,0,0,0,34.7-2.581a3.89,3.89,0,0,0,.519-2.267,3.519,3.519,0,0,0-.519-2.06,1.686,1.686,0,0,0-1.459-.731,1.658,1.658,0,0,0-1.441.726A3.955,3.955,0,0,0,31.289-4.662ZM33.741-13.5H36.51l-2.435,2.725H32.01ZM41.66-9.51l.079,1.1a3.32,3.32,0,0,1,2.733-1.274,2.759,2.759,0,0,1,2.25.888,4.142,4.142,0,0,1,.756,2.654V0h-2.54V-6.1a1.654,1.654,0,0,0-.352-1.176,1.572,1.572,0,0,0-1.169-.366,1.747,1.747,0,0,0-1.608.916V0H39.27V-9.51Z" transform="translate(-4678 -9751)" fill="#12263f"/>
    <path id="Trazado_873617" data-name="Trazado 873617" d="M-56.575-12.8l3.287,9.281,3.27-9.281h3.463V0H-49.2V-3.5l.264-6.038L-52.392,0H-54.2l-3.445-9.527.264,6.029V0h-2.637V-12.8ZM-38.909,0a2.821,2.821,0,0,1-.255-.853,3.073,3.073,0,0,1-2.4,1.028,3.376,3.376,0,0,1-2.316-.809A2.6,2.6,0,0,1-44.8-2.672a2.687,2.687,0,0,1,1.121-2.32,5.529,5.529,0,0,1,3.239-.817h1.169v-.545a1.567,1.567,0,0,0-.338-1.055,1.331,1.331,0,0,0-1.068-.4,1.513,1.513,0,0,0-1.006.308,1.045,1.045,0,0,0-.365.844h-2.54a2.551,2.551,0,0,1,.51-1.529,3.37,3.37,0,0,1,1.441-1.1,5.253,5.253,0,0,1,2.092-.4,4.15,4.15,0,0,1,2.791.883,3.09,3.09,0,0,1,1.033,2.483V-2.2a4.546,4.546,0,0,0,.378,2.048V0Zm-2.1-1.767a2.188,2.188,0,0,0,1.037-.25,1.645,1.645,0,0,0,.7-.672V-4.324h-.949q-1.907,0-2.03,1.318l-.009.149a1.017,1.017,0,0,0,.334.782A1.3,1.3,0,0,0-41.01-1.767Zm8.578-7.743.079,1.1a3.32,3.32,0,0,1,2.733-1.274,2.759,2.759,0,0,1,2.25.888,4.142,4.142,0,0,1,.756,2.654V0h-2.54V-6.1A1.654,1.654,0,0,0-29.5-7.272a1.572,1.572,0,0,0-1.169-.366,1.747,1.747,0,0,0-1.608.916V0h-2.54V-9.51Zm10.784-2.338V-9.51h1.626v1.863h-1.626V-2.9a1.133,1.133,0,0,0,.2.756,1.015,1.015,0,0,0,.773.229,4.051,4.051,0,0,0,.747-.062V-.053a5.229,5.229,0,0,1-1.538.229,2.425,2.425,0,0,1-2.725-2.7V-7.646h-1.389V-9.51h1.389v-2.338ZM-14.229.176a4.668,4.668,0,0,1-3.406-1.283,4.561,4.561,0,0,1-1.314-3.419v-.246A5.745,5.745,0,0,1-18.4-7.334a4.064,4.064,0,0,1,1.569-1.74,4.4,4.4,0,0,1,2.316-.611,3.947,3.947,0,0,1,3.072,1.23,5,5,0,0,1,1.121,3.489v1.037h-6.056a2.36,2.36,0,0,0,.743,1.494,2.245,2.245,0,0,0,1.569.563,2.742,2.742,0,0,0,2.294-1.063l1.248,1.4A3.813,3.813,0,0,1-12.067-.277,5.075,5.075,0,0,1-14.229.176Zm-.29-7.813a1.587,1.587,0,0,0-1.226.512,2.651,2.651,0,0,0-.6,1.466h3.533v-.2a1.891,1.891,0,0,0-.457-1.311A1.638,1.638,0,0,0-14.52-7.638Zm7.98-1.872.079,1.1A3.32,3.32,0,0,1-3.727-9.686a2.759,2.759,0,0,1,2.25.888A4.142,4.142,0,0,1-.721-6.144V0h-2.54V-6.1a1.654,1.654,0,0,0-.352-1.176,1.572,1.572,0,0,0-1.169-.366,1.747,1.747,0,0,0-1.608.916V0H-8.93V-9.51ZM3.885,0H1.336V-9.51H3.885Zm-2.7-11.971a1.251,1.251,0,0,1,.382-.94A1.436,1.436,0,0,1,2.61-13.28a1.44,1.44,0,0,1,1.037.369,1.244,1.244,0,0,1,.387.94,1.247,1.247,0,0,1-.391.949,1.443,1.443,0,0,1-1.033.369,1.443,1.443,0,0,1-1.033-.369A1.247,1.247,0,0,1,1.187-11.971ZM8.358-9.51l.079,1.063a3.342,3.342,0,0,1,2.733-1.239,2.536,2.536,0,0,1,2.522,1.45,3.265,3.265,0,0,1,2.856-1.45,2.836,2.836,0,0,1,2.3.9,4.141,4.141,0,0,1,.756,2.711V0H17.06V-6.078a1.818,1.818,0,0,0-.316-1.185,1.4,1.4,0,0,0-1.116-.374,1.585,1.585,0,0,0-1.582,1.092L14.054,0h-2.54V-6.07a1.8,1.8,0,0,0-.325-1.2,1.414,1.414,0,0,0-1.107-.37,1.645,1.645,0,0,0-1.564.9V0H5.977V-9.51ZM24.24,0H21.691V-9.51H24.24Zm-2.7-11.971a1.251,1.251,0,0,1,.382-.94,1.436,1.436,0,0,1,1.042-.369A1.44,1.44,0,0,1,24-12.911a1.244,1.244,0,0,1,.387.94,1.247,1.247,0,0,1-.391.949,1.443,1.443,0,0,1-1.033.369,1.443,1.443,0,0,1-1.033-.369A1.247,1.247,0,0,1,21.542-11.971ZM30.709.176A4.668,4.668,0,0,1,27.3-1.107a4.561,4.561,0,0,1-1.314-3.419v-.246a5.745,5.745,0,0,1,.554-2.562,4.064,4.064,0,0,1,1.569-1.74,4.4,4.4,0,0,1,2.316-.611A3.947,3.947,0,0,1,33.5-8.455,5,5,0,0,1,34.62-4.966v1.037H28.564a2.36,2.36,0,0,0,.743,1.494,2.245,2.245,0,0,0,1.569.563A2.742,2.742,0,0,0,33.17-2.936l1.248,1.4A3.813,3.813,0,0,1,32.871-.277,5.075,5.075,0,0,1,30.709.176Zm-.29-7.813a1.587,1.587,0,0,0-1.226.512,2.651,2.651,0,0,0-.6,1.466h3.533v-.2a1.891,1.891,0,0,0-.457-1.311A1.638,1.638,0,0,0,30.419-7.638ZM38.4-9.51l.079,1.1a3.32,3.32,0,0,1,2.733-1.274,2.759,2.759,0,0,1,2.25.888,4.142,4.142,0,0,1,.756,2.654V0h-2.54V-6.1a1.654,1.654,0,0,0-.352-1.176,1.572,1.572,0,0,0-1.169-.366,1.747,1.747,0,0,0-1.608.916V0h-2.54V-9.51Zm10.784-2.338V-9.51H50.81v1.863H49.184V-2.9a1.133,1.133,0,0,0,.2.756,1.015,1.015,0,0,0,.773.229,4.051,4.051,0,0,0,.747-.062V-.053a5.229,5.229,0,0,1-1.538.229,2.425,2.425,0,0,1-2.725-2.7V-7.646H45.255V-9.51h1.389v-2.338Zm2.382,7a5.64,5.64,0,0,1,.545-2.522,3.989,3.989,0,0,1,1.569-1.714,4.577,4.577,0,0,1,2.377-.606A4.33,4.33,0,0,1,59.2-8.508a4.727,4.727,0,0,1,1.358,3.2l.018.65a4.97,4.97,0,0,1-1.222,3.511A4.247,4.247,0,0,1,56.074.176a4.268,4.268,0,0,1-3.283-1.318,5.058,5.058,0,0,1-1.226-3.586Zm2.54.18a3.555,3.555,0,0,0,.51,2.073,1.682,1.682,0,0,0,1.459.717,1.686,1.686,0,0,0,1.441-.709,3.89,3.89,0,0,0,.519-2.267,3.519,3.519,0,0,0-.519-2.06,1.686,1.686,0,0,0-1.459-.731,1.658,1.658,0,0,0-1.441.726A3.955,3.955,0,0,0,54.105-4.662Z" transform="translate(-4678 -9622.734)" fill="#12263f"/>
    <g id="Grupo_1074282" data-name="Grupo 1074282" transform="translate(-4699.42 -10114)">
      <path id="Trazado_4456" data-name="Trazado 4456" d="M0,12.674l2.111,1.966L11.783,4.231l9.675,10.408,2.111-1.966L11.783,0Z" transform="translate(23.569 52.246) rotate(180)" fill="#3a1d71"/>
      <path id="Trazado_826276" data-name="Trazado 826276" d="M-640.326-10255.283v-51.174" transform="translate(652.11 10306.457)" fill="none" stroke="#3a1d71" stroke-linecap="round" stroke-width="3"/>
    </g>
    <g id="Grupo_1074285" data-name="Grupo 1074285" transform="translate(-4699.42 -9845)">
      <path id="Trazado_4456-2" data-name="Trazado 4456" d="M0,12.674l2.111,1.966L11.783,4.231l9.675,10.408,2.111-1.966L11.783,0Z" transform="translate(23.569 52.246) rotate(180)" fill="#3a1d71"/>
      <path id="Trazado_826276-2" data-name="Trazado 826276" d="M-640.326-10255.283v-51.174" transform="translate(652.11 10306.457)" fill="none" stroke="#3a1d71" stroke-linecap="round" stroke-width="3"/>
    </g>
    <g id="Grupo_1074288" data-name="Grupo 1074288" transform="translate(-4699.42 -9980)">
      <path id="Trazado_4456-3" data-name="Trazado 4456" d="M0,12.674l2.111,1.966L11.783,4.231l9.675,10.408,2.111-1.966L11.783,0Z" transform="translate(23.569 52.246) rotate(180)" fill="#3a1d71"/>
      <path id="Trazado_826276-3" data-name="Trazado 826276" d="M-640.326-10255.283v-51.174" transform="translate(652.11 10306.457)" fill="none" stroke="#3a1d71" stroke-linecap="round" stroke-width="3"/>
    </g>
    <g id="Grupo_1074287" data-name="Grupo 1074287" transform="translate(-4699.42 -9717.514)">
      <path id="Trazado_4456-4" data-name="Trazado 4456" d="M0,12.674l2.111,1.966L11.783,4.231l9.675,10.408,2.111-1.966L11.783,0Z" transform="translate(23.569 52.246) rotate(180)" fill="#3a1d71"/>
      <path id="Trazado_826276-4" data-name="Trazado 826276" d="M-640.326-10255.283v-51.174" transform="translate(652.11 10306.457)" fill="none" stroke="#3a1d71" stroke-linecap="round" stroke-width="3"/>
    </g>
    <g id="Grupo_1074283" data-name="Grupo 1074283" transform="translate(-4664.862 -10114)">
      <path id="Trazado_4456-5" data-name="Trazado 4456" d="M0,1.966,2.111,0l9.672,10.408L21.458,0l2.111,1.966L11.783,14.639Z" transform="translate(23.569 14.639) rotate(180)" fill="#8722e2"/>
      <path id="Trazado_826276-5" data-name="Trazado 826276" d="M-640.326-10253.783a1.5,1.5,0,0,1-1.5-1.5v-51.174a1.5,1.5,0,0,1,1.5-1.5,1.5,1.5,0,0,1,1.5,1.5v51.174A1.5,1.5,0,0,1-640.326-10253.783Z" transform="translate(652.11 10307.528)" fill="#8722e2"/>
    </g>
    <g id="Grupo_1074284" data-name="Grupo 1074284" transform="translate(-4664.862 -9845)">
      <path id="Trazado_4456-6" data-name="Trazado 4456" d="M0,1.966,2.111,0l9.672,10.408L21.458,0l2.111,1.966L11.783,14.639Z" transform="translate(23.569 14.639) rotate(180)" fill="#8722e2"/>
      <path id="Trazado_826276-6" data-name="Trazado 826276" d="M-640.326-10253.783a1.5,1.5,0,0,1-1.5-1.5v-51.174a1.5,1.5,0,0,1,1.5-1.5,1.5,1.5,0,0,1,1.5,1.5v51.174A1.5,1.5,0,0,1-640.326-10253.783Z" transform="translate(652.11 10307.528)" fill="#8722e2"/>
    </g>
    <g id="Grupo_1074289" data-name="Grupo 1074289" transform="translate(-4664.862 -9980)">
      <path id="Trazado_4456-7" data-name="Trazado 4456" d="M0,1.966,2.111,0l9.672,10.408L21.458,0l2.111,1.966L11.783,14.639Z" transform="translate(23.569 14.639) rotate(180)" fill="#8722e2"/>
      <path id="Trazado_826276-7" data-name="Trazado 826276" d="M-640.326-10253.783a1.5,1.5,0,0,1-1.5-1.5v-51.174a1.5,1.5,0,0,1,1.5-1.5,1.5,1.5,0,0,1,1.5,1.5v51.174A1.5,1.5,0,0,1-640.326-10253.783Z" transform="translate(652.11 10307.528)" fill="#8722e2"/>
    </g>
    <g id="Grupo_1074286" data-name="Grupo 1074286" transform="translate(-4664.862 -9717.514)">
      <path id="Trazado_4456-8" data-name="Trazado 4456" d="M0,1.966,2.111,0l9.672,10.408L21.458,0l2.111,1.966L11.783,14.639Z" transform="translate(23.569 14.639) rotate(180)" fill="#8722e2"/>
      <path id="Trazado_826276-8" data-name="Trazado 826276" d="M-640.326-10253.783a1.5,1.5,0,0,1-1.5-1.5v-51.174a1.5,1.5,0,0,1,1.5-1.5,1.5,1.5,0,0,1,1.5,1.5v51.174A1.5,1.5,0,0,1-640.326-10253.783Z" transform="translate(652.11 10307.528)" fill="#8722e2"/>
    </g>
  </g>
</svg>
