<svg xmlns="http://www.w3.org/2000/svg" width="50" height="50" viewBox="0 0 50 50">
  <g id="Grupo_1073463" data-name="Grupo 1073463" transform="translate(-407.5 -2933)">
    <circle id="Elipse_9669" data-name="Elipse 9669" cx="25" cy="25" r="25" transform="translate(407.5 2933)" fill="#f0c52c"/>
    <g id="desarrollo-de-software" transform="translate(412.5 2938)">
      <ellipse id="Elipse_9756" data-name="Elipse 9756" cx="1.5" cy="1" rx="1.5" ry="1" transform="translate(8 2.93)" fill="#46ccff"/>
      <ellipse id="Elipse_9757" data-name="Elipse 9757" cx="1.5" cy="1" rx="1.5" ry="1" transform="translate(30 2.93)" fill="#46ccff"/>
      <path id="Trazado_823651" data-name="Trazado 823651" d="M26,48h7.386v6.155H26Z" transform="translate(-9.228 -17.687)" fill="#323232"/>
      <path id="Trazado_823652" data-name="Trazado 823652" d="M15,57H35.927v2.462H15Z" transform="translate(-4.998 -21.147)" fill="#b90000"/>
      <path id="Trazado_823653" data-name="Trazado 823653" d="M3,11H38.7V34.389H3Z" transform="translate(-0.384 -3.461)" fill="#6090bf"/>
      <path id="Trazado_823654" data-name="Trazado 823654" d="M3,45H38.7v2.462H3Z" transform="translate(-0.384 -16.533)" fill="#b90000"/>
      <g id="Grupo_1073462" data-name="Grupo 1073462" transform="translate(5.078 13.695)">
        <circle id="Elipse_9758" data-name="Elipse 9758" cx="1.5" cy="1.5" r="1.5" transform="translate(-0.078 4.236)" fill="#efaf22"/>
        <circle id="Elipse_9759" data-name="Elipse 9759" cx="1.5" cy="1.5" r="1.5" transform="translate(27.922 4.236)" fill="#efaf22"/>
        <path id="Trazado_823655" data-name="Trazado 823655" d="M34.079,27.771V25.309H32.67a4.167,4.167,0,0,0-.339-.819l1-1-1.711-1.742-1,1a4.167,4.167,0,0,0-.849-.339V21H27.309v1.41a4.167,4.167,0,0,0-.819.339l-1-1-1.742,1.742,1,1a4.167,4.167,0,0,0-.339.819H23v2.462h1.41a4.167,4.167,0,0,0,.339.819l-1,1.028,1.742,1.742,1-1a4.167,4.167,0,0,0,.819.339v1.379h2.462V30.67a4.167,4.167,0,0,0,.819-.339l1.028,1,1.711-1.711-1-1a4.167,4.167,0,0,0,.339-.849Z" transform="translate(-13.152 -21)" fill="#efaf22"/>
      </g>
      <ellipse id="Elipse_9760" data-name="Elipse 9760" cx="1.5" cy="2" rx="1.5" ry="2" transform="translate(19 16.93)" fill="#ffd6ba"/>
      <path id="Trazado_823656" data-name="Trazado 823656" d="M38.315,6.924H24.158V4.462h5.65a1.847,1.847,0,1,0,0-1.231H23.543a.616.616,0,0,0-.616.616V6.924H18V3.846a.616.616,0,0,0-.616-.616H11.122a1.847,1.847,0,1,0,0,1.231h5.65V6.924H2.616A.616.616,0,0,0,2,7.539V30.929a.616.616,0,0,0,.616.616H16.157v3.693H10a.616.616,0,0,0-.616.616v2.462A.616.616,0,0,0,10,38.93H30.929a.616.616,0,0,0,.616-.616V35.853a.616.616,0,0,0-.616-.616H24.774V31.544H38.315a.616.616,0,0,0,.616-.616V7.539A.616.616,0,0,0,38.315,6.924ZM31.544,3.231a.616.616,0,1,1-.616.616A.616.616,0,0,1,31.544,3.231ZM9.386,4.462A.616.616,0,1,1,10,3.846.616.616,0,0,1,9.386,4.462ZM22.927,8.155v6.007l-.542.535-.074-.031v-.973a.616.616,0,0,0-.616-.616H19.234a.616.616,0,0,0-.616.616v.973l-.074.031L18,14.162V8.155Zm.788,9.325a3.57,3.57,0,0,1,.289.7.616.616,0,0,0,.616.437h.769V19.85H24.6a.616.616,0,0,0-.616.437,3.57,3.57,0,0,1-.289.7.616.616,0,0,0,.129.708l.56.56-.837.892-.616-.56a.616.616,0,0,0-.732-.1,3.57,3.57,0,0,1-.7.289.616.616,0,0,0-.437.616v.769H19.85v-.794a.616.616,0,0,0-.437-.616,3.57,3.57,0,0,1-.7-.289.616.616,0,0,0-.732.1l-.56.56-.868-.812.56-.56a.616.616,0,0,0,.1-.732,3.57,3.57,0,0,1-.289-.7.616.616,0,0,0-.616-.437h-.769V18.619h.794a.616.616,0,0,0,.616-.437,3.57,3.57,0,0,1,.289-.7.616.616,0,0,0-.129-.708l-.56-.56.868-.868.56.56a.616.616,0,0,0,.732.1,3.57,3.57,0,0,1,.7-.289.616.616,0,0,0,.437-.616V14.31h1.231V15.1a.616.616,0,0,0,.437.616,3.57,3.57,0,0,1,.7.289.616.616,0,0,0,.708-.129l.56-.56.868.868-.56.56a.616.616,0,0,0-.08.732ZM16.772,8.155v6.069L15.24,15.75a.616.616,0,0,0,0,.874l.689.689a.375.375,0,0,1-.031.074h-.973A.616.616,0,0,0,14.31,18v.616H8.044a1.847,1.847,0,1,0,0,1.231H14.31v.616a.616.616,0,0,0,.616.616H15.9a.375.375,0,0,1,.031.074l-.689.689a.616.616,0,0,0-.178.437.646.646,0,0,0,.178.437l1.742,1.742a.616.616,0,0,0,.874,0l.689-.689.074.031v.973a.616.616,0,0,0,.616.616H21.7a.616.616,0,0,0,.616-.616V23.8l.074-.031.689.689a.616.616,0,0,0,.874,0l1.742-1.742a.646.646,0,0,0,.178-.437.616.616,0,0,0-.178-.437L25,21.155a.375.375,0,0,1,.031-.074H26a.616.616,0,0,0,.616-.616V19.85h6.266a1.847,1.847,0,1,0,0-1.231H26.62V18A.616.616,0,0,0,26,17.388h-.973A.375.375,0,0,1,25,17.314l.689-.689a.616.616,0,0,0,0-.874l-1.533-1.526V8.155H37.7v19.7H3.231V8.155ZM6.924,19.234a.616.616,0,1,1-.616-.616A.616.616,0,0,1,6.924,19.234Zm27.082,0a.616.616,0,1,1,.616.616A.616.616,0,0,1,34.006,19.234ZM30.313,37.7h-19.7V36.468h19.7Zm-6.771-2.462H17.388V31.544h6.155ZM3.231,30.313V29.082H37.7v1.231Z"/>
      <path id="Trazado_823657" data-name="Trazado 823657" d="M30.462,26a2.462,2.462,0,1,0,2.462,2.462A2.462,2.462,0,0,0,30.462,26Zm0,3.693a1.231,1.231,0,1,1,1.231-1.231A1.231,1.231,0,0,1,30.462,29.693Z" transform="translate(-9.997 -9.228)"/>
      <path id="Trazado_823658" data-name="Trazado 823658" d="M6.616,15.231H9.693v4.924a.616.616,0,0,0,.616.616H14a.616.616,0,1,0,0-1.231H10.924V14.616A.616.616,0,0,0,10.309,14H6.616a.616.616,0,1,0,0,1.231Z" transform="translate(-1.538 -4.614)"/>
      <path id="Trazado_823659" data-name="Trazado 823659" d="M52,14H48.309a.616.616,0,0,0-.616.616V19.54H44.616a.616.616,0,1,0,0,1.231h3.693a.616.616,0,0,0,.616-.616V15.231H52A.616.616,0,0,0,52,14Z" transform="translate(-16.149 -4.614)"/>
    </g>
  </g>
</svg>
