<svg xmlns="http://www.w3.org/2000/svg" xmlns:xlink="http://www.w3.org/1999/xlink" width="118.006" height="118.006" viewBox="0 0 118.006 118.006">
  <defs>
    <filter id="Trazado_849170" x="0" y="0" width="118.006" height="118.006" filterUnits="userSpaceOnUse">
      <feOffset dy="3" input="SourceAlpha"/>
      <feGaussianBlur stdDeviation="3" result="blur"/>
      <feFlood flood-opacity="0.161"/>
      <feComposite operator="in" in2="blur"/>
      <feComposite in="SourceGraphic"/>
    </filter>
    <filter id="Elipse_9683" x="5.085" y="5.933" width="106.141" height="106.141" filterUnits="userSpaceOnUse">
      <feOffset dy="3" input="SourceAlpha"/>
      <feGaussianBlur stdDeviation="3" result="blur-2"/>
      <feFlood flood-opacity="0.161"/>
      <feComposite operator="in" in2="blur-2"/>
      <feComposite in="SourceGraphic"/>
    </filter>
  </defs>
  <g id="Grupo_1099127" data-name="Grupo 1099127" transform="translate(-1080 -3956)">
    <g id="Grupo_1099125" data-name="Grupo 1099125" transform="translate(0.006 0.172)">
      <g transform="matrix(1, 0, 0, 1, 1079.99, 3955.83)" filter="url(#Trazado_849170)">
        <path id="Trazado_849170-2" data-name="Trazado 849170" d="M50,0A50,50,0,1,1,0,50,50,50,0,0,1,50,0Z" transform="translate(9 6)" fill="#fff"/>
      </g>
      <g transform="matrix(1, 0, 0, 1, 1079.99, 3955.83)" filter="url(#Elipse_9683)">
        <g id="Elipse_9683-2" data-name="Elipse 9683" transform="translate(14.09 11.93)" fill="#faf682" stroke="#f0e929" stroke-width="5">
          <circle cx="44.07" cy="44.07" r="44.07" stroke="none"/>
          <circle cx="44.07" cy="44.07" r="41.57" fill="none"/>
        </g>
      </g>
    </g>
    <g id="Grupo_1099128" data-name="Grupo 1099128" transform="translate(3916 12028.456)">
      <path id="path6981" d="M-195.988-88.568l-8.262-9.5a4.525,4.525,0,0,0-3.414-1.557,4.525,4.525,0,0,0-3.414,1.557l-8.262,9.5a4.573,4.573,0,0,0,.433,6.419c3.074,2.733,6.711-.8,6.711-.8v35.509h9.064V-82.948s3.645,3.569,6.711.8a4.586,4.586,0,0,0,.433-6.419" transform="translate(-2568.837 -7953.6)" fill="#b0f0ef"/>
      <path id="path6985" d="M-72.606-3.668a37.389,37.389,0,0,0-9.064-.32v18.68h9.064Z" transform="translate(-2699.366 -8015.73)" fill="#76e7e7"/>
      <path id="path6989" d="M-262.533-131.772a16.418,16.418,0,0,1-16.386,16.449,16.418,16.418,0,0,1-16.386-16.449,16.418,16.418,0,0,1,16.386-16.449,16.418,16.418,0,0,1,16.386,16.449" transform="translate(-2497.584 -7864.359)" fill="#60daa8"/>
      <path id="path6993" d="M-67.8-131.772a16.447,16.447,0,0,1,12.157-15.9,16.366,16.366,0,0,0-4.234-.554,16.418,16.418,0,0,0-16.386,16.449,16.418,16.418,0,0,0,16.386,16.449,16.365,16.365,0,0,0,4.234-.554A16.447,16.447,0,0,1-67.8-131.772" transform="translate(-2716.631 -7864.359)" fill="#00ce8e"/>
      <path id="path6997" d="M-126.366-52.009h-3.628v-3.642a2.845,2.845,0,0,0-2.839-2.85,2.845,2.845,0,0,0-2.839,2.85v3.642H-139.3a2.845,2.845,0,0,0-2.839,2.85,2.845,2.845,0,0,0,2.839,2.85h3.628v3.642a2.845,2.845,0,0,0,2.839,2.85,2.845,2.845,0,0,0,2.839-2.85v-3.642h3.628a2.845,2.845,0,0,0,2.839-2.85,2.845,2.845,0,0,0-2.839-2.85" transform="translate(-2643.669 -7946.972)" fill="#fffcdc"/>
      <path id="path7021" d="M-155.538-338.677h-2.22v-22.615a5.343,5.343,0,0,1-6.338-.514,5.7,5.7,0,0,1-.533-7.977l8.262-9.5a5.633,5.633,0,0,1,4.251-1.939,5.634,5.634,0,0,1,4.251,1.938l8.262,9.5a5.663,5.663,0,0,1-.526,7.971,5.3,5.3,0,0,1-6.345.531v22.368h-2.22v-24.522a1.11,1.11,0,0,1,.68-1.023,1.11,1.11,0,0,1,1.206.23c.117.113,2.944,2.8,5.19.768a3.459,3.459,0,0,0,.34-4.867l-8.262-9.5A3.415,3.415,0,0,0-152.116-379a3.414,3.414,0,0,0-2.576,1.176l-8.262,9.5a3.476,3.476,0,0,0,.333,4.861c2.277,2.024,5.082-.651,5.2-.766a1.11,1.11,0,0,1,1.205-.226,1.11,1.11,0,0,1,.678,1.022Z" transform="translate(-2624.385 -7673.113)"/>
      <path id="path7029" d="M-24.044-214.673A17.344,17.344,0,0,1-34.07-217.84a1.11,1.11,0,0,1-.27-1.546,1.11,1.11,0,0,1,1.546-.27,15.136,15.136,0,0,0,8.749,2.763A15.325,15.325,0,0,0-8.767-232.232a15.326,15.326,0,0,0-15.277-15.34,15.326,15.326,0,0,0-15.277,15.34,15.222,15.222,0,0,0,3.264,9.478,1.11,1.11,0,0,1-.189,1.558,1.11,1.11,0,0,1-1.558-.189,17.422,17.422,0,0,1-3.737-10.847,17.548,17.548,0,0,1,17.5-17.559,17.548,17.548,0,0,1,17.5,17.559A17.548,17.548,0,0,1-24.044-214.673Z" transform="translate(-2752.46 -7763.899)"/>
      <path id="path7033" d="M-141.724-68.5a3.959,3.959,0,0,1,3.949,3.96v2.532h2.518a3.959,3.959,0,0,1,3.949,3.96,3.959,3.959,0,0,1-3.949,3.96h-2.518v2.533a3.959,3.959,0,0,1-3.949,3.96,3.959,3.959,0,0,1-3.949-3.96v-2.533h-2.518a3.959,3.959,0,0,1-3.949-3.96,3.959,3.959,0,0,1,3.949-3.96h2.518v-2.532A3.959,3.959,0,0,1-141.724-68.5Zm6.468,12.193a1.737,1.737,0,0,0,1.729-1.74,1.737,1.737,0,0,0-1.729-1.741h-3.628a1.11,1.11,0,0,1-1.11-1.11v-3.642a1.737,1.737,0,0,0-1.73-1.74,1.737,1.737,0,0,0-1.73,1.74V-60.9a1.11,1.11,0,0,1-1.11,1.11h-3.628a1.737,1.737,0,0,0-1.73,1.741,1.737,1.737,0,0,0,1.73,1.74h3.628a1.11,1.11,0,0,1,1.11,1.11v3.642a1.737,1.737,0,0,0,1.73,1.74,1.737,1.737,0,0,0,1.73-1.74V-55.2a1.11,1.11,0,0,1,1.11-1.11Z" transform="translate(-2634.779 -7938.083)"/>
    </g>
  </g>
</svg>
