<svg xmlns="http://www.w3.org/2000/svg" xmlns:xlink="http://www.w3.org/1999/xlink" width="262" height="191.389" viewBox="0 0 262 191.389">
  <defs>
    <clipPath id="clip-path">
      <rect id="Rectángulo_382919" data-name="Rectángulo 382919" width="262" height="130.665" transform="translate(0 0)" fill="none"/>
    </clipPath>
    <clipPath id="clip-path-2">
      <rect id="Rectángulo_382920" data-name="Rectángulo 382920" width="93.633" height="101.319" fill="none"/>
    </clipPath>
    <clipPath id="clip-path-3">
      <rect id="Rectángulo_382921" data-name="Rectángulo 382921" width="82.268" height="60.334" fill="none"/>
    </clipPath>
    <clipPath id="clip-path-4">
      <rect id="Rectángulo_382922" data-name="Rectángulo 382922" width="95.804" height="40.596" transform="translate(0 0)" fill="none"/>
    </clipPath>
  </defs>
  <g id="Grupo_1073701" data-name="Grupo 1073701" transform="translate(-213 -4911.611)">
    <rect id="Rectángulo_382822" data-name="Rectángulo 382822" width="231" height="186" rx="7" transform="translate(229 4917)" fill="#a854f3"/>
    <g id="Grupo_1073693" data-name="Grupo 1073693" transform="translate(213 4972.333)">
      <g id="Grupo_1073692" data-name="Grupo 1073692" transform="translate(0 0.001)" clip-path="url(#clip-path)">
        <path id="Trazado_823970" data-name="Trazado 823970" d="M32.587,156.768s-19.177,8.037-22.8,13.273S45.659,185,46.593,184.07s9.327-24.233,8.959-25.469-22.965-1.834-22.965-1.834" transform="translate(-4.869 -79.927)" fill="#361524"/>
        <path id="Trazado_823971" data-name="Trazado 823971" d="M93.338,123l-36.79,16.55,6.94,18.713,40.122-9.711,5.976-22.385Z" transform="translate(-28.831 -62.713)" fill="#52a1a1"/>
        <path id="Trazado_823972" data-name="Trazado 823972" d="M267.548,97.5s-22.315,23.861-22.875,23.956-14.192,1.681-16.623.656S211.617,97.01,211.617,97.01s2.375-.353,6.062-.734c2.342-.241,5.205-.5,8.325-.684,3.7-.224,7.754-.347,11.709-.235,12.539.353,29.834,2.146,29.834,2.146" transform="translate(-107.891 -48.596)" fill="#ffa6a6"/>
        <path id="Trazado_823973" data-name="Trazado 823973" d="M248.694,109.307s-5.839,4.5-12.518,2.541c-9.032-2.65-11.233-12.2-12.191-15.284,2.342-.241,5.205-.5,8.325-.683,4.443,3.5,12.785,10.639,12.785,10.639Z" transform="translate(-114.197 -48.885)" fill="#361524"/>
        <path id="Trazado_823974" data-name="Trazado 823974" d="M261.439,23.922a9.247,9.247,0,0,0-1.126-3.4,6.36,6.36,0,0,1-.789-3.248,12.881,12.881,0,0,0,.04-1.926,5,5,0,0,0-2-3.389,7.834,7.834,0,0,0-2.424-7.1,6.264,6.264,0,0,0-7.643-.584c-2.194-5.1-8.19-5.574-11.15-1.794A6.082,6.082,0,0,0,232.1.5a6.015,6.015,0,0,0-3.242.9c-1.081.661-1.749,2.056-2.916,2.37-2.362.636-4.371,1.408-5.681,3.884a8.513,8.513,0,0,0-.862,5.08A13.98,13.98,0,0,0,216.27,26.88a12.558,12.558,0,0,0,4.85,6.444,6.99,6.99,0,0,0,1.188,3.28c1.362,1.809,3.675,2.043,5.64,2.366a61.769,61.769,0,0,0,16.617.6c4.322-.465,9.317-1.126,12.808-4.254a9.661,9.661,0,0,0,3.194-6.558,8.926,8.926,0,0,0,.873-4.834" transform="translate(-109.885 -0.001)" fill="#361524"/>
        <path id="Trazado_823975" data-name="Trazado 823975" d="M235.787,70.876c4.223,6.316,11.753,7.97,18.436,4.626,5.543-2.774,8.18-7.963,9.324-13.908a45.74,45.74,0,0,0,.492-15.792c-.829-4.975-9.992-15.559-16.713-14.077s-13.876,6.562-15.535,7.939-2.878,20.932,4,31.213" transform="translate(-117.518 -16.103)" fill="#ffa6a6"/>
        <path id="Trazado_823976" data-name="Trazado 823976" d="M227.351,61.751s-2.854-3.293-5.049-1.1.96,9.319,2.525,10.976c2.488,2.634,4.829,1.713,4.829,1.713Z" transform="translate(-112.955 -30.54)" fill="#ffa6a6"/>
        <path id="Trazado_823977" data-name="Trazado 823977" d="M252.3,81.444a1.639,1.639,0,0,0-.568-1.408.83.83,0,0,0-.945-.043,1.136,1.136,0,0,0-.372.657,3.868,3.868,0,0,0,.031,2.042,1.113,1.113,0,0,0,.267.508.827.827,0,0,0,1.063-.03,1.548,1.548,0,0,0,.478-1.03,6,6,0,0,0,.045-.695" transform="translate(-127.611 -40.719)" fill="#361524"/>
        <path id="Trazado_823978" data-name="Trazado 823978" d="M277.052,81.587a1.521,1.521,0,0,0-.527-1.308.772.772,0,0,0-.877-.04,1.051,1.051,0,0,0-.346.611,3.583,3.583,0,0,0,.029,1.895,1.027,1.027,0,0,0,.248.471.767.767,0,0,0,.987-.028,1.438,1.438,0,0,0,.444-.957,5.7,5.7,0,0,0,.042-.645" transform="translate(-140.303 -40.849)" fill="#361524"/>
        <path id="Trazado_823979" data-name="Trazado 823979" d="M264.252,90.2a.43.43,0,0,1-.071-.006c-1.187-.211-2.6-.625-2.6-1.4,0-.618.592-4.458.659-4.893a.408.408,0,0,1,.459-.337.4.4,0,0,1,.336.459c-.261,1.688-.649,4.35-.649,4.771a6.125,6.125,0,0,0,1.937.61.4.4,0,0,1-.07.8" transform="translate(-133.364 -42.604)" fill="#361524"/>
        <path id="Trazado_823980" data-name="Trazado 823980" d="M259.284,100.179a6.2,6.2,0,0,1-5.273-2.646.4.4,0,1,1,.676-.437,5.453,5.453,0,0,0,4.958,2.268,4.97,4.97,0,0,0,4.309-2.582.4.4,0,1,1,.72.36,5.767,5.767,0,0,1-4.985,3.026c-.135.007-.272.011-.406.011" transform="translate(-129.473 -49.23)" fill="#361524"/>
        <path id="Trazado_823981" data-name="Trazado 823981" d="M250.667,71.3a1.2,1.2,0,0,0-.047-.124,1.757,1.757,0,0,0-.663-.716,4.8,4.8,0,0,0-2.284-.662,6.209,6.209,0,0,0-2.057.134c-.8.21-2.718,1.254-1.684,2.284a2.177,2.177,0,0,0,1.238.491,11.37,11.37,0,0,0,4.557-.138,1.422,1.422,0,0,0,.833-.453.929.929,0,0,0,.106-.818" transform="translate(-124.215 -35.575)" fill="#361524"/>
        <path id="Trazado_823982" data-name="Trazado 823982" d="M270.826,72.122a1.421,1.421,0,0,0,.833.453,11.361,11.361,0,0,0,4.557.138,2.173,2.173,0,0,0,1.238-.491c1.034-1.029-.885-2.074-1.684-2.284a6.2,6.2,0,0,0-2.057-.134,4.8,4.8,0,0,0-2.284.661,1.756,1.756,0,0,0-.663.716,1.218,1.218,0,0,0-.047.124.931.931,0,0,0,.106.818" transform="translate(-138 -35.575)" fill="#361524"/>
        <path id="Trazado_823983" data-name="Trazado 823983" d="M263.677,39.833a2.557,2.557,0,0,1,.98-2.048,20.025,20.025,0,0,0-5.632-4.129,17.794,17.794,0,0,0-1.144-1.623,15.26,15.26,0,0,0-11.256-5.574c-8.34-.489-19.892,4-21.948,12.953a.393.393,0,0,0,.265.469,5.892,5.892,0,0,0,5.215,7.1,6.808,6.808,0,0,0,5.765-2.574,4.8,4.8,0,0,0,4.262,1.673,6.57,6.57,0,0,0,5.22-4.288c1.54.824,3.542.211,5.112-.745a10.889,10.889,0,0,0,3.625-3.642c-.271.442,1.027,2.521,1.274,2.928A13.712,13.712,0,0,0,258.2,43.1a6.057,6.057,0,0,0,3.775,1.109c.724-1.421,1.677-2.87,1.7-4.38" transform="translate(-114.544 -13.472)" fill="#361524"/>
        <path id="Trazado_823984" data-name="Trazado 823984" d="M293.938,60.314s2.854-3.293,5.049-1.1-.96,9.319-2.525,10.976c-2.488,2.634-4.83,1.713-4.83,1.713Z" transform="translate(-148.687 -29.807)" fill="#ffa6a6"/>
        <path id="Trazado_823985" data-name="Trazado 823985" d="M216.99,96.944s3.558,18.833,17.605,19.814,19.578-19.433,19.578-19.433l11.043,1.009-1.586,63.455H207.045l6.858-64.57Z" transform="translate(-105.56 -49.427)" fill="#fff"/>
        <path id="Trazado_823986" data-name="Trazado 823986" d="M175.441,97.5V168.61H140.757L131.606,110a179.794,179.794,0,0,1,19.516-8.066c8.5-2.706,24.319-4.433,24.319-4.433" transform="translate(-67.098 -49.712)" fill="#52a1a1"/>
        <path id="Trazado_823987" data-name="Trazado 823987" d="M136.813,150.341a.28.28,0,0,1-.265-.191l-8.176-24.284a.28.28,0,0,1,.531-.178l8.176,24.284a.28.28,0,0,1-.176.354.284.284,0,0,1-.089.015" transform="translate(-65.442 -63.984)" fill="#361524"/>
        <path id="Trazado_823988" data-name="Trazado 823988" d="M201.818,131.846a.281.281,0,0,1-.254-.161l-4.813-10.272a.277.277,0,0,1-.013-.2l7.02-21.811a.28.28,0,1,1,.533.172L197.3,121.275l4.767,10.172a.28.28,0,0,1-.135.373.276.276,0,0,1-.118.026" transform="translate(-100.298 -50.578)" fill="#361524"/>
        <path id="Trazado_823989" data-name="Trazado 823989" d="M312.014,98.526l.722,70.605h34.684l9.151-58.607a149.871,149.871,0,0,0-19.516-8.066c-10.289-3.321-25.042-3.933-25.042-3.933" transform="translate(-159.078 -50.233)" fill="#52a1a1"/>
        <path id="Trazado_823990" data-name="Trazado 823990" d="M324.309,131.846a.275.275,0,0,1-.119-.026.28.28,0,0,1-.135-.373l4.767-10.172-6.986-21.706a.28.28,0,0,1,.533-.172l7.02,21.811a.277.277,0,0,1-.013.2l-4.813,10.272a.281.281,0,0,1-.254.161" transform="translate(-164.079 -50.578)" fill="#361524"/>
        <path id="Trazado_823991" data-name="Trazado 823991" d="M262.633,238.991H75.731a1.682,1.682,0,0,1-1.356-2.678l3.042-4.14.415-.56,4.549-6.2.415-.56,4.555-6.2.409-.56,3.636-4.947a1.68,1.68,0,0,1,1.356-.683H245.612a1.68,1.68,0,0,1,1.356.683L250.6,218.1l.409.56,4.555,6.2.414.56,4.55,6.2.415.56,3.042,4.14a1.682,1.682,0,0,1-1.356,2.678" transform="translate(-37.751 -108.326)" fill="#361524"/>
        <path id="Trazado_823992" data-name="Trazado 823992" d="M264.455,231.948l-.415-.56H248.386l-3.5-6.2h14.606l-.415-.56H244.565l-3.5-6.2h13.457l-.409-.561H240.744l-1.485-2.639a.289.289,0,0,0-.386-.106.283.283,0,0,0-.107.381l1.334,2.364H226.026l-1.967-5.63-.011-.028a.28.28,0,0,0-.538.028.249.249,0,0,0,.006.157l1.916,5.474h-17.39l-1.02-4.784a.273.273,0,0,0-.33-.213.281.281,0,0,0-.219.33l1,4.667h-16.1l-.42-5.63h-.56l.42,5.63H173.233v-5.63h-.56v5.63H155.086l.42-5.63h-.56l-.42,5.63h-16.1l1-4.667a.281.281,0,0,0-.219-.33.276.276,0,0,0-.331.213l-1.02,4.784h-17.39l1.916-5.474a.249.249,0,0,0,.005-.157.28.28,0,0,0-.179-.2.284.284,0,0,0-.359.174l-.011.028-1.967,5.63H105.8l1.333-2.364a.283.283,0,0,0-.106-.381.29.29,0,0,0-.387.106l-1.485,2.639H91.267l-.409.561h13.978l-3.5,6.2H86.3l-.415.56h15.127l-3.5,6.2H81.34l-.415.56H97.2l-3.854,6.818h.644l3.855-6.818h17.11l-2.381,6.818h.594l2.381-6.818h19.312l-1.451,6.818h.571l1.451-6.818h18.04l-.51,6.818h.566l.51-6.818h18.634v6.818h.56v-6.818h18.629l.51,6.818h.566l-.51-6.818h18.04l1.451,6.818h.572l-1.451-6.818h19.312l2.381,6.818h.594l-2.381-6.818h17.11l3.855,6.818h.644l-3.855-6.818ZM120.272,218.435h17.469l-1.322,6.2H118.109Zm-14.791,0h14.2l-2.163,6.2H101.979Zm9.67,12.953H98.158l3.5-6.2h15.659Zm19.827,0H115.745l2.168-6.2H136.3Zm18.539,0H135.55l1.322-6.2h17.1Zm.5-6.757H136.99l1.322-6.2h16.169Zm18.651,6.757h-18.6l.465-6.2h18.13Zm0-6.757H154.582l.459-6.2h17.631Zm67.746-6.2,3.5,6.2H228.385l-2.163-6.2Zm-14.791,0,2.163,6.2H209.482l-1.322-6.2Zm-52.4,0h17.626l.46,6.2H173.233Zm0,12.953v-6.2h18.125l.465,6.2Zm18.186-12.953h16.169l1.322,6.2H191.879Zm.964,12.953-.459-6.2h17.1l1.322,6.2Zm18.539,0-1.322-6.2h18.388l2.168,6.2Zm19.827,0-2.168-6.2h15.66l3.5,6.2Z" transform="translate(-41.259 -108.101)" fill="#f0dcd8"/>
        <path id="Trazado_823993" data-name="Trazado 823993" d="M82.437,153.036s-55.333,3.639-68.538,9.3C2.133,167.378-2.162,175.781,1.012,185.866c4.1,13.022,25.64,11.766,35.857,9.9,15.314-2.8,69.285-17.742,69.285-17.742Z" transform="translate(0 -78.025)" fill="#ffa6a6"/>
        <path id="Trazado_823994" data-name="Trazado 823994" d="M165.755,153.025s19.609-.264,26.519,1.829c4.1,1.243,7.334,3.31,10.964,5.553,5.887,3.637,8.831,13.33,8.831,19.885,0,2.584.726,7.912-2.839,8.565-4.32.791-4.559-6.643-6.032-9.312-1.494-2.708-2.708-2.615-7.937-2.055s-8.217.56-8.217.56l-23.624-7.844Z" transform="translate(-83.319 -78.013)" fill="#ffa6a6"/>
        <path id="Trazado_823995" data-name="Trazado 823995" d="M454.074,156.768s19.177,8.037,22.8,13.273S441,185,440.067,184.07s-9.327-24.233-8.959-25.469,22.965-1.834,22.965-1.834" transform="translate(-219.791 -79.927)" fill="#361524"/>
        <path id="Trazado_823996" data-name="Trazado 823996" d="M386.015,123l36.79,16.55-6.94,18.713-40.122-9.711-5.976-22.385Z" transform="translate(-188.523 -62.713)" fill="#52a1a1"/>
        <path id="Trazado_823997" data-name="Trazado 823997" d="M387.833,150.341a.283.283,0,0,1-.089-.015.28.28,0,0,1-.176-.354l8.175-24.284a.28.28,0,0,1,.531.178L388.1,150.151a.28.28,0,0,1-.265.191" transform="translate(-197.591 -63.985)" fill="#361524"/>
        <path id="Trazado_823998" data-name="Trazado 823998" d="M341.669,153.036s55.333,3.639,68.538,9.3c11.765,5.042,16.061,13.446,12.886,23.531-4.1,13.022-25.64,11.766-35.857,9.9-15.314-2.8-69.285-17.742-69.285-17.742Z" transform="translate(-162.105 -78.025)" fill="#ffa6a6"/>
        <path id="Trazado_823999" data-name="Trazado 823999" d="M302.914,170.9a61.913,61.913,0,0,0,6.167,6.831l22.843-7.584-2.335-17.181s-17.291-.747-25.788,2.911c-2.969,1.278-7.19,3.158-9.542,6.053,2.928,4.025,5.648,5,8.655,8.97" transform="translate(-150.025 -77.959)" fill="#ffa6a6"/>
        <path id="Trazado_824000" data-name="Trazado 824000" d="M206.743,200.475s.794,13.026-.957,17.018-5.462,2.591-6.723-2.451-1.768-15.707-1.768-15.707Z" transform="translate(-100.589 -101.63)" fill="#ffa6a6"/>
        <path id="Trazado_824001" data-name="Trazado 824001" d="M141.3,211.537a3.062,3.062,0,0,0,1.167,3.315,5.635,5.635,0,0,0,3.735,1.261s-.42,4.669,3.6,5.085c3.593.372,5.882-3.451,7.237-5.458s2.8-4.42,2.8-4.42.794,7.222,5.322,7.128,5.416-11.112,5.416-11.112-.234-3.735-.887-3.968-15.547-.934-16.948-.42-11.438,8.591-11.438,8.591" transform="translate(-71.981 -103.377)" fill="#ffa6a6"/>
        <path id="Trazado_824002" data-name="Trazado 824002" d="M289.3,167.317s-7.458,5-8.649,13.263c-.493,3.418.638,7.04,2.206,10.045a10.736,10.736,0,0,0,4.164,4.734,3.711,3.711,0,0,0,3.906-.069c1.636-1.237,1.177-3.243.71-4.935-.342-1.24-.67-2.493-.975-3.744a9.3,9.3,0,0,1,.213-5.331c.771-1.961,6.3-4.832,6.3-4.832s-1.261-6.373-2.171-6.373-5.708-2.758-5.708-2.758" transform="translate(-143.027 -85.306)" fill="#ffa6a6"/>
        <path id="Trazado_824003" data-name="Trazado 824003" d="M299.487,187.464s6.406,2.8,9.051,3.5a23.382,23.382,0,0,0,4.676.77s-.348,7.53,0,12.606c.3,4.435,4.879,5.72,6.419,2.148s3.315-15.594,3.315-15.8-2.521-10.295-2.8-10.575-11.8-4.772-12.956-3.642-4.692,2.591-5.6,3.362-2.1,7.634-2.1,7.634" transform="translate(-152.691 -89.879)" fill="#ffa6a6"/>
        <path id="Trazado_824004" data-name="Trazado 824004" d="M341.62,208.968s-1.307,8.852,4.342,8.731c3.805-.082,4.015-7.155,4.015-7.155s.23,8.66,3.326,11.4c2.662,2.358,5.253-.373,5.253-.373s4.1,2.406,6.39-2.848,2.54-8.124,2.493-8.311-6.023-5.369-7.564-5.929-12.886-3.035-15.174-2.194-6.209,2.941-6.209,3.409,3.128,3.268,3.128,3.268" transform="translate(-172.577 -103.049)" fill="#ffa6a6"/>
        <path id="Trazado_824005" data-name="Trazado 824005" d="M198.107,201.905a.28.28,0,0,1-.275-.231c-.073-.4-1.748-9.971.077-15.026,1.874-5.19,12.114-4.152,12.55-4.105a.28.28,0,1,1-.06.557c-.1-.011-10.237-1.039-11.962,3.738-1.775,4.915-.071,14.64-.053,14.737a.281.281,0,0,1-.226.325.293.293,0,0,1-.05,0" transform="translate(-100.469 -93.01)" fill="#361524"/>
        <path id="Trazado_824006" data-name="Trazado 824006" d="M178.635,197.7a.281.281,0,0,1-.28-.274c0-.089-.209-8.925-.175-11.146l0-.17c.033-2.319.12-8.478,5.28-9.9,4.643-1.272,7.674,4.506,7.7,4.563a.28.28,0,0,1-.5.256c-.028-.055-2.853-5.437-7.057-4.279-4.755,1.307-4.835,6.952-4.869,9.363l0,.171c-.034,2.21.173,11.035.176,11.124a.281.281,0,0,1-.274.287Z" transform="translate(-90.842 -89.747)" fill="#361524"/>
        <path id="Trazado_824007" data-name="Trazado 824007" d="M151.456,204.7a.277.277,0,0,1-.122-.028.28.28,0,0,1-.131-.374c.023-.047,2.26-4.707,3.427-7.549,1.869-4.55,6.037-15.89,6.079-16a.28.28,0,0,1,.526.194c-.042.114-4.213,11.464-6.086,16.025-1.173,2.856-3.418,7.531-3.441,7.578a.28.28,0,0,1-.252.159" transform="translate(-77.075 -92.06)" fill="#361524"/>
        <path id="Trazado_824008" data-name="Trazado 824008" d="M140.08,206.252a.28.28,0,0,1-.277-.241c-.592-4.145,1.708-14.993,6.623-15.909a3.655,3.655,0,0,1,3.142.693c1.934,1.6,1.962,5.095,1.962,5.242a.28.28,0,0,1-.279.281h0a.281.281,0,0,1-.28-.28c0-.033-.028-3.378-1.76-4.813a3.123,3.123,0,0,0-2.68-.572c-4.529.844-6.725,11.4-6.171,15.279a.28.28,0,0,1-.238.317l-.04,0" transform="translate(-71.231 -96.878)" fill="#361524"/>
        <path id="Trazado_824009" data-name="Trazado 824009" d="M331.221,202.058a.251.251,0,0,1-.047,0,.28.28,0,0,1-.23-.322,47.419,47.419,0,0,0,.6-6.213c.126-3.91-.034-7.59-3.325-9.642-2.3-1.432-5.432-2.075-9.589-1.956a.276.276,0,0,1-.288-.273.281.281,0,0,1,.272-.288c4.265-.114,7.507.548,9.9,2.041,3.541,2.208,3.715,6.217,3.589,10.135a48.031,48.031,0,0,1-.611,6.287.28.28,0,0,1-.276.234" transform="translate(-162.306 -93.479)" fill="#361524"/>
        <path id="Trazado_824010" data-name="Trazado 824010" d="M350.364,196.8a.257.257,0,0,1-.043,0,.28.28,0,0,1-.234-.319c.014-.088,1.329-8.792-.042-14.6-1.337-5.656-10.53-6.269-10.623-6.275a.28.28,0,0,1,.033-.559c.4.024,9.7.643,11.135,6.7,1.4,5.914.065,14.726.051,14.814a.28.28,0,0,1-.276.237" transform="translate(-172.917 -89.242)" fill="#361524"/>
        <path id="Trazado_824011" data-name="Trazado 824011" d="M370.455,213.782h-.03a.28.28,0,0,1-.249-.308l.028-.269c.44-4.119,1.607-15.061-1.724-21.232a8.278,8.278,0,0,0-7.138-4.117.281.281,0,0,1-.269-.292.286.286,0,0,1,.292-.269,8.834,8.834,0,0,1,7.608,4.411c3.414,6.324,2.233,17.391,1.788,21.558l-.028.269a.28.28,0,0,1-.278.25" transform="translate(-184.09 -95.491)" fill="#361524"/>
        <path id="Trazado_824012" data-name="Trazado 824012" d="M387.449,211.486a.3.3,0,0,1-.051,0,.281.281,0,0,1-.226-.325c.012-.062,1.1-6.261-1.454-9.462-2.486-3.117-6.864-.663-6.908-.639a.28.28,0,1,1-.277-.486c.047-.028,4.843-2.714,7.623.775,2.709,3.4,1.616,9.646,1.568,9.911a.279.279,0,0,1-.274.23" transform="translate(-192.92 -101.742)" fill="#361524"/>
        <path id="Trazado_824013" data-name="Trazado 824013" d="M281.56,109.009a.28.28,0,0,1-.116-.535c5.5-2.491,6.84-9.49,7.162-12.383l.28.008.277.04c-.333,3-1.728,10.235-7.488,12.846a.285.285,0,0,1-.116.025" transform="translate(-143.408 -48.991)" fill="#361524"/>
      </g>
    </g>
    <g id="Grupo_1073696" data-name="Grupo 1073696" transform="translate(-115 104.611)">
      <g id="Grupo_1073695" data-name="Grupo 1073695" transform="translate(328 4807)">
        <g id="Grupo_1073694" data-name="Grupo 1073694" clip-path="url(#clip-path-2)">
          <path id="Trazado_824014" data-name="Trazado 824014" d="M70.41,88.523v7.73a5.126,5.126,0,0,1-5.126,5.126H5.7A5.126,5.126,0,0,1,.572,96.253V5.7A5.126,5.126,0,0,1,5.7.572H65.285A5.126,5.126,0,0,1,70.41,5.7V75.78L93.692,94.468Z" transform="translate(-0.315 -0.315)" fill="#fff"/>
          <path id="Trazado_824015" data-name="Trazado 824015" d="M64.969,101.319H5.382A5.388,5.388,0,0,1,0,95.937V5.382A5.388,5.388,0,0,1,5.382,0H64.969a5.388,5.388,0,0,1,5.382,5.382V75.341L93.537,93.953a.256.256,0,0,1-.224.448L70.351,88.538v7.4a5.388,5.388,0,0,1-5.382,5.382M5.382.513a4.875,4.875,0,0,0-4.87,4.87V95.937a4.875,4.875,0,0,0,4.87,4.87H64.969a4.875,4.875,0,0,0,4.87-4.87V88.208a.257.257,0,0,1,.32-.248l22.134,5.652L69.935,75.664a.254.254,0,0,1-.1-.2V5.382a4.875,4.875,0,0,0-4.87-4.87Z" fill="#361524"/>
          <path id="Trazado_824016" data-name="Trazado 824016" d="M118.185,69.471a.256.256,0,0,1-.253-.22q-.053-.377-.121-.749a.256.256,0,0,1,.206-.3.261.261,0,0,1,.3.206c.047.255.088.51.124.769a.255.255,0,0,1-.217.289l-.037,0" transform="translate(-64.976 -37.616)" fill="#e95a73"/>
          <path id="Trazado_824017" data-name="Trazado 824017" d="M87.952,35.63a.255.255,0,0,1-.075-.011q-.362-.111-.73-.208a.256.256,0,0,1,.13-.5c.252.066.5.137.75.213a.256.256,0,0,1-.075.5" transform="translate(-47.96 -19.253)" fill="#e95a73"/>
          <path id="Trazado_824018" data-name="Trazado 824018" d="M53.132,71.972A19.222,19.222,0,1,1,58.02,34.155l-.13.5a18.712,18.712,0,1,0,13.951,18.1,18.961,18.961,0,0,0-.182-2.623l.508-.071a19.579,19.579,0,0,1,.187,2.695A19.244,19.244,0,0,1,53.132,71.972" transform="translate(-18.703 -18.492)" fill="#e95a73"/>
          <path id="Trazado_824019" data-name="Trazado 824019" d="M60,70.841a2.23,2.23,0,0,1-1.093-1.949,2.025,2.025,0,0,1,.681-1.645,2.455,2.455,0,0,1,1.633-.571,2.543,2.543,0,0,1,1.779.6,2.085,2.085,0,0,1,.653,1.621,2.25,2.25,0,0,1-1.093,1.949,2.1,2.1,0,0,1,1.323,2.089,2.385,2.385,0,0,1-.688,1.788,2.547,2.547,0,0,1-1.857.671,2.7,2.7,0,0,1-1.987-.671,2.407,2.407,0,0,1-.675-1.788A2.1,2.1,0,0,1,60,70.841m-.25,2.04a1.579,1.579,0,0,0,.417,1.1,1.605,1.605,0,0,0,2.268-.062,1.649,1.649,0,0,0-.032-2.139,1.561,1.561,0,0,0-2.653,1.1M59.906,69a1.348,1.348,0,0,0,.44,1.039,1.436,1.436,0,0,0,1.736.094,1.458,1.458,0,0,0,.493-1.672,1.214,1.214,0,0,0-.4-.537,1.438,1.438,0,0,0-.739-.243,1.342,1.342,0,0,0-1.405.723,1.607,1.607,0,0,0-.124.6" transform="translate(-32.362 -36.774)"/>
          <path id="Trazado_824020" data-name="Trazado 824020" d="M72.985,71.035a5.623,5.623,0,0,1,.786-3.224,2.478,2.478,0,0,1,2.147-1.135,2.433,2.433,0,0,1,2.168,1.178,5.824,5.824,0,0,1,.758,3.182,5.628,5.628,0,0,1-.783,3.215,2.468,2.468,0,0,1-2.144,1.139A2.431,2.431,0,0,1,73.741,74.2a5.829,5.829,0,0,1-.756-3.17m1.239,0a5.62,5.62,0,0,0,.437,2.59,1.4,1.4,0,0,0,2.514,0,5.626,5.626,0,0,0,.437-2.587,5.566,5.566,0,0,0-.443-2.605,1.379,1.379,0,0,0-1.251-.771,1.338,1.338,0,0,0-1.3.877,6.318,6.318,0,0,0-.391,2.5" transform="translate(-40.255 -36.774)"/>
          <path id="Trazado_824021" data-name="Trazado 824021" d="M89.661,75.468a.452.452,0,0,1-.179-.036.463.463,0,0,1-.247-.606L92.491,67.1a.463.463,0,0,1,.853.359l-3.256,7.726a.463.463,0,0,1-.426.283" transform="translate(-49.197 -36.853)"/>
          <path id="Trazado_824022" data-name="Trazado 824022" d="M89.223,66.816a.617.617,0,0,0,0,1.233.617.617,0,0,0,0-1.233" transform="translate(-48.882 -36.852)"/>
          <path id="Trazado_824023" data-name="Trazado 824023" d="M97.382,83.357a.617.617,0,0,0,0,1.233.617.617,0,0,0,0-1.233" transform="translate(-53.382 -45.975)"/>
          <path id="Trazado_824024" data-name="Trazado 824024" d="M31.719,162.834l9.654-13,15.055,11.391,15.7-20.682Z" transform="translate(-17.495 -77.516)" fill="#fff"/>
          <path id="Trazado_824025" data-name="Trazado 824025" d="M31.4,162.776a.257.257,0,0,1-.206-.409l9.654-13a.256.256,0,0,1,.36-.052l14.851,11.236,15.546-20.478a.257.257,0,1,1,.409.31l-15.7,20.682a.257.257,0,0,1-.359.049L41.11,149.879l-9.5,12.793a.255.255,0,0,1-.206.1" transform="translate(-17.179 -77.201)" fill="#361524"/>
          <path id="Trazado_824026" data-name="Trazado 824026" d="M121.257,136.228a2.477,2.477,0,1,0-2.477,2.478,2.477,2.477,0,0,0,2.477-2.478" transform="translate(-64.146 -73.77)" fill="#434194"/>
          <path id="Trazado_824027" data-name="Trazado 824027" d="M31.15,187.2a2.477,2.477,0,1,0-2.478,2.478A2.478,2.478,0,0,0,31.15,187.2" transform="translate(-14.448 -101.885)" fill="#434194"/>
        </g>
      </g>
    </g>
    <g id="Grupo_1073698" data-name="Grupo 1073698" transform="translate(306.633 4915)">
      <g id="Grupo_1073697" data-name="Grupo 1073697" clip-path="url(#clip-path-3)">
        <path id="Trazado_824028" data-name="Trazado 824028" d="M24.95,46.16H78.784a3.686,3.686,0,0,0,3.686-3.686V4.258A3.686,3.686,0,0,0,78.784.572H4.258A3.687,3.687,0,0,0,.571,4.258V42.474A3.686,3.686,0,0,0,4.258,46.16H16.191l4.367,14.377Z" transform="translate(-0.387 -0.388)" fill="#fff"/>
        <path id="Trazado_824029" data-name="Trazado 824029" d="M20.171,60.334h0a.184.184,0,0,1-.176-.131L15.667,45.957H3.871A3.875,3.875,0,0,1,0,42.086V3.871A3.875,3.875,0,0,1,3.871,0H78.4a3.875,3.875,0,0,1,3.871,3.871V42.086A3.875,3.875,0,0,1,78.4,45.957H24.7L20.348,60.2a.185.185,0,0,1-.177.13M3.871.369a3.506,3.506,0,0,0-3.5,3.5V42.086a3.506,3.506,0,0,0,3.5,3.5H15.8a.185.185,0,0,1,.176.131l4.191,13.8,4.215-13.8a.184.184,0,0,1,.176-.13H78.4a3.506,3.506,0,0,0,3.5-3.5V3.871a3.506,3.506,0,0,0-3.5-3.5Z" fill="#361524"/>
        <path id="Trazado_824030" data-name="Trazado 824030" d="M24.309,51.209a.179.179,0,0,1-.091-.024.184.184,0,0,1-.069-.251c.034-.06.977-5.615,6.833-5.615h.136a10.055,10.055,0,0,1,6.651,2.549,6.117,6.117,0,0,0,3.672,1.69,4.375,4.375,0,0,0,3.945-1.769,6.4,6.4,0,0,1,1.676-1.435,5.529,5.529,0,0,1,2.867-.636,4.1,4.1,0,0,0,2.019-.38c.5-.267,1.053-1.7,1.689-3.353,1.225-3.192,2.9-7.563,6.141-9.362a9.908,9.908,0,0,1,13.239,3.194,25.1,25.1,0,0,1,2.391,5.293c.294.815.6,1.658.938,2.471.924,2.218,2.225,3.608,3.867,4.134a5.456,5.456,0,0,0,5.692-1.6,33.381,33.381,0,0,0,4.121-5.861.184.184,0,1,1,.325.173,33.777,33.777,0,0,1-4.173,5.935,5.824,5.824,0,0,1-6.078,1.7c-1.75-.56-3.127-2.022-4.095-4.343-.343-.822-.648-1.669-.944-2.488a24.809,24.809,0,0,0-2.353-5.217,9.542,9.542,0,0,0-12.75-3.073c-3.122,1.734-4.772,6.033-5.977,9.172-.716,1.867-1.234,3.215-1.861,3.546a4.387,4.387,0,0,1-2.187.422,5.152,5.152,0,0,0-2.7.591,6.1,6.1,0,0,0-1.58,1.359,4.764,4.764,0,0,1-4.226,1.889,6.487,6.487,0,0,1-3.887-1.766,9.741,9.741,0,0,0-6.433-2.473h-.131c-5.643,0-6.479,5.37-6.512,5.429a.184.184,0,0,1-.16.093" transform="translate(-16.344 -21.205)" fill="#e95a73"/>
        <path id="Trazado_824031" data-name="Trazado 824031" d="M90.788,52.8H24.056V19.622h.369V52.431H90.788Z" transform="translate(-16.297 -13.293)" fill="#5dace1"/>
        <path id="Trazado_824032" data-name="Trazado 824032" d="M225.3,113.839l2.607,2.607-2.607,2.607Z" transform="translate(-152.637 -77.124)" fill="#5dace1"/>
        <path id="Trazado_824033" data-name="Trazado 824033" d="M16.555,21.433l2.607-2.607,2.607,2.607Z" transform="translate(-11.216 -12.755)" fill="#5dace1"/>
      </g>
    </g>
    <g id="Grupo_1073700" data-name="Grupo 1073700" transform="translate(371 4972.334)">
      <g id="Grupo_1073699" data-name="Grupo 1073699" transform="translate(0 0)" clip-path="url(#clip-path-4)">
        <path id="Trazado_824034" data-name="Trazado 824034" d="M36.28,25.388V35.679a4.99,4.99,0,0,0,4.99,4.99H90.887a4.99,4.99,0,0,0,4.99-4.99V5.562a4.989,4.989,0,0,0-4.99-4.99H41.27a4.989,4.989,0,0,0-4.99,4.99v5.481L.572,28.631Z" transform="translate(-0.322 -0.322)" fill="#fff"/>
        <path id="Trazado_824035" data-name="Trazado 824035" d="M90.565,40.6H40.948a5.245,5.245,0,0,1-5.239-5.239V25.339L.272,28.557a.253.253,0,0,1-.262-.181.249.249,0,0,1,.13-.291L35.708,10.565V5.239A5.245,5.245,0,0,1,40.948,0H90.565A5.245,5.245,0,0,1,95.8,5.239V35.357A5.245,5.245,0,0,1,90.565,40.6M35.958,24.816a.246.246,0,0,1,.168.065.25.25,0,0,1,.082.184V35.357a4.745,4.745,0,0,0,4.74,4.74H90.565a4.745,4.745,0,0,0,4.74-4.74V5.239A4.745,4.745,0,0,0,90.565.5H40.948a4.745,4.745,0,0,0-4.74,4.74V10.72a.249.249,0,0,1-.14.224l-34.5,17,34.37-3.122h.022" transform="translate(0 0)" fill="#361524"/>
        <path id="Trazado_824036" data-name="Trazado 824036" d="M163.473,31.034l-7.819,11.538-6.741,9.952-6.741-9.952-7.814-11.538Z" transform="translate(-75.705 -17.486)" fill="#88cbf7"/>
        <path id="Trazado_824037" data-name="Trazado 824037" d="M163.473,31.034,159.566,36.8l-3.912,5.772H142.172L138.265,36.8l-3.907-5.766Z" transform="translate(-75.705 -17.486)" fill="#5dace1"/>
        <path id="Trazado_824038" data-name="Trazado 824038" d="M163.473,31.034,159.566,36.8h-21.3l-3.907-5.766Z" transform="translate(-75.705 -17.486)" fill="#3c94cf"/>
        <path id="Trazado_824039" data-name="Trazado 824039" d="M100.586,18.842h0Z" transform="translate(-56.676 -10.617)" fill="#fff"/>
        <path id="Trazado_824040" data-name="Trazado 824040" d="M144.122,18.77H100.264a.249.249,0,0,1,0-.5h43.858a.249.249,0,0,1,0,.5" transform="translate(-56.354 -10.295)" fill="#361524"/>
        <path id="Trazado_824041" data-name="Trazado 824041" d="M100.586,54.275h0Z" transform="translate(-56.676 -30.582)" fill="#fff"/>
        <path id="Trazado_824042" data-name="Trazado 824042" d="M111.158,54.2H100.264a.249.249,0,1,1,0-.5h10.894a.249.249,0,1,1,0,.5" transform="translate(-56.354 -30.26)" fill="#361524"/>
        <path id="Trazado_824043" data-name="Trazado 824043" d="M100.586,63.8h0Z" transform="translate(-56.676 -35.949)" fill="#fff"/>
        <path id="Trazado_824044" data-name="Trazado 824044" d="M115.007,63.728H100.263a.249.249,0,0,1,0-.5h14.743a.249.249,0,1,1,0,.5" transform="translate(-56.354 -35.627)" fill="#361524"/>
        <path id="Trazado_824045" data-name="Trazado 824045" d="M100.586,73.325h0Z" transform="translate(-56.676 -41.316)" fill="#fff"/>
        <path id="Trazado_824046" data-name="Trazado 824046" d="M119.64,73.252H100.263a.249.249,0,0,1,0-.5H119.64a.249.249,0,1,1,0,.5" transform="translate(-56.354 -40.993)" fill="#361524"/>
      </g>
    </g>
  </g>
</svg>
