<svg xmlns="http://www.w3.org/2000/svg" width="67" height="67" viewBox="0 0 67 67">
  <g id="Grupo_1073487" data-name="Grupo 1073487" transform="translate(-1082.5 -5074)">
    <circle id="Elipse_9670" data-name="Elipse 9670" cx="33.5" cy="33.5" r="33.5" transform="translate(1082.5 5074)" fill="#f0c52c"/>
    <g id="control-de-calidad" transform="translate(1100.5 5089)">
      <g id="Grupo_1073486" data-name="Grupo 1073486" transform="translate(-2 -2)">
        <path id="Trazado_823879" data-name="Trazado 823879" d="M24.927,81.876H1.917A1.92,1.92,0,0,1,0,79.958V49.917A1.92,1.92,0,0,1,1.917,48h23.01a1.92,1.92,0,0,1,1.917,1.917V79.958A1.92,1.92,0,0,1,24.927,81.876ZM1.917,48.639A1.28,1.28,0,0,0,.639,49.917V79.958a1.28,1.28,0,0,0,1.278,1.278h23.01a1.28,1.28,0,0,0,1.278-1.278V49.917a1.28,1.28,0,0,0-1.278-1.278Zm0,0" transform="translate(0.16 -44.005)" fill="#263238"/>
        <path id="Trazado_823879_-_Contorno" data-name="Trazado 823879 - Contorno" d="M23.087,80.2H.077A2.08,2.08,0,0,1-2,78.118V48.077A2.08,2.08,0,0,1,.077,46h23.01a2.08,2.08,0,0,1,2.077,2.077V78.118A2.08,2.08,0,0,1,23.087,80.2ZM.077,46.32A1.76,1.76,0,0,0-1.68,48.077V78.118A1.76,1.76,0,0,0,.077,79.876h23.01a1.76,1.76,0,0,0,1.758-1.758V48.077a1.76,1.76,0,0,0-1.758-1.758Zm23.01,33.237H.077a1.44,1.44,0,0,1-1.438-1.438V48.077A1.44,1.44,0,0,1,.077,46.639h23.01a1.44,1.44,0,0,1,1.438,1.438V78.118A1.44,1.44,0,0,1,23.087,79.556ZM.077,46.959a1.12,1.12,0,0,0-1.119,1.119V78.118A1.12,1.12,0,0,0,.077,79.237h23.01a1.12,1.12,0,0,0,1.119-1.119V48.077a1.12,1.12,0,0,0-1.119-1.119Z" transform="translate(2 -42.165)" fill="#263238"/>
        <path id="Trazado_823880" data-name="Trazado 823880" d="M57.567,121.876H33.917A1.92,1.92,0,0,1,32,119.958v-.32a.32.32,0,1,1,.639,0v.32a1.28,1.28,0,0,0,1.278,1.278H57.567a1.28,1.28,0,0,0,1.278-1.278V89.917a1.28,1.28,0,0,0-1.278-1.278h-.32a.32.32,0,1,1,0-.639h.32a1.92,1.92,0,0,1,1.917,1.917v30.041A1.92,1.92,0,0,1,57.567,121.876Zm0,0" transform="translate(-29.284 -80.809)" fill="#263238"/>
        <path id="Trazado_823880_-_Contorno" data-name="Trazado 823880 - Contorno" d="M55.726,120.2H32.077A2.08,2.08,0,0,1,30,118.118v-.32a.479.479,0,0,1,.959,0v.32a1.12,1.12,0,0,0,1.119,1.119H55.726a1.12,1.12,0,0,0,1.119-1.119V88.077a1.12,1.12,0,0,0-1.119-1.119h-.32a.479.479,0,1,1,0-.959h.32A2.08,2.08,0,0,1,57.8,88.077v30.041A2.08,2.08,0,0,1,55.726,120.2Zm-25.247-2.557a.16.16,0,0,0-.16.16v.32a1.76,1.76,0,0,0,1.758,1.758H55.726a1.76,1.76,0,0,0,1.758-1.758V88.077a1.76,1.76,0,0,0-1.758-1.758h-.32a.16.16,0,0,0,0,.32h.32a1.44,1.44,0,0,1,1.438,1.438v30.041a1.44,1.44,0,0,1-1.438,1.438H32.077a1.44,1.44,0,0,1-1.438-1.438v-.32A.16.16,0,0,0,30.479,117.639Z" transform="translate(-27.443 -78.969)" fill="#263238"/>
        <path id="Trazado_823881" data-name="Trazado 823881" d="M350.876,16.639H348.32a.32.32,0,0,1,0-.639h2.557a.32.32,0,0,1,0,.639Zm0,0" transform="translate(-320.037 -14.562)" fill="#263238"/>
        <path id="Trazado_823881_-_Contorno" data-name="Trazado 823881 - Contorno" d="M349.036,14.959h-2.557a.479.479,0,0,1,0-.959h2.557a.479.479,0,0,1,0,.959Zm-2.557-.639a.16.16,0,0,0,0,.32h2.557a.16.16,0,0,0,0-.32Z" transform="translate(-318.196 -12.722)" fill="#263238"/>
        <path id="Trazado_823882" data-name="Trazado 823882" d="M364.32,3.2a.32.32,0,0,1-.32-.32V.32a.32.32,0,1,1,.639,0V2.876A.32.32,0,0,1,364.32,3.2Zm0,0" transform="translate(-334.758 0.16)" fill="#263238"/>
        <path id="Trazado_823882_-_Contorno" data-name="Trazado 823882 - Contorno" d="M362.479,1.515A.48.48,0,0,1,362,1.036V-1.521A.48.48,0,0,1,362.479-2a.48.48,0,0,1,.479.479V1.036A.48.48,0,0,1,362.479,1.515Zm0-3.2a.16.16,0,0,0-.16.16V1.036a.16.16,0,1,0,.32,0V-1.521A.16.16,0,0,0,362.479-1.68Z" transform="translate(-332.918 2)" fill="#263238"/>
        <path id="Trazado_823883" data-name="Trazado 823883" d="M394.876,60.639H392.32a.32.32,0,0,1,0-.639h2.557a.32.32,0,0,1,0,.639Zm0,0" transform="translate(-360.521 -55.046)" fill="#263238"/>
        <path id="Trazado_823883_-_Contorno" data-name="Trazado 823883 - Contorno" d="M393.036,58.959h-2.557a.479.479,0,0,1,0-.959h2.557a.479.479,0,1,1,0,.959Zm-2.557-.639a.16.16,0,0,0,0,.32h2.557a.16.16,0,0,0,0-.32Z" transform="translate(-358.681 -53.206)" fill="#263238"/>
        <path id="Trazado_823884" data-name="Trazado 823884" d="M408.32,47.2a.32.32,0,0,1-.32-.32V44.32a.32.32,0,0,1,.639,0v2.557A.32.32,0,0,1,408.32,47.2Zm0,0" transform="translate(-375.243 -40.325)" fill="#263238"/>
        <path id="Trazado_823884_-_Contorno" data-name="Trazado 823884 - Contorno" d="M406.479,45.515a.48.48,0,0,1-.479-.479V42.479a.479.479,0,1,1,.959,0v2.557A.48.48,0,0,1,406.479,45.515Zm0-3.2a.16.16,0,0,0-.16.16v2.557a.16.16,0,0,0,.32,0V42.479A.16.16,0,0,0,406.479,42.32Z" transform="translate(-373.403 -38.485)" fill="#263238"/>
        <path id="Trazado_823885" data-name="Trazado 823885" d="M166.354,120.639H155.808a.32.32,0,0,1,0-.639h10.546a.32.32,0,0,1,0,.639Zm0,0" transform="translate(-142.906 -110.253)" fill="#263238"/>
        <path id="Trazado_823885_-_Contorno" data-name="Trazado 823885 - Contorno" d="M164.514,118.959H153.968a.479.479,0,0,1,0-.959h10.546a.479.479,0,0,1,0,.959Zm-10.546-.639a.16.16,0,0,0,0,.32h10.546a.16.16,0,1,0,0-.32Z" transform="translate(-141.065 -108.413)" fill="#263238"/>
        <path id="Trazado_823886" data-name="Trazado 823886" d="M163.158,160.639h-7.35a.32.32,0,0,1,0-.639h7.35a.32.32,0,0,1,0,.639Zm0,0" transform="translate(-142.906 -147.057)" fill="#263238"/>
        <path id="Trazado_823886_-_Contorno" data-name="Trazado 823886 - Contorno" d="M161.318,158.959h-7.35a.479.479,0,0,1,0-.959h7.35a.479.479,0,0,1,0,.959Zm-7.35-.639a.16.16,0,0,0,0,.32h7.35a.16.16,0,0,0,0-.32Z" transform="translate(-141.065 -145.217)" fill="#263238"/>
        <path id="Trazado_823887" data-name="Trazado 823887" d="M166.354,232.639H155.808a.32.32,0,0,1,0-.639h10.546a.32.32,0,0,1,0,.639Zm0,0" transform="translate(-142.906 -213.304)" fill="#263238"/>
        <path id="Trazado_823887_-_Contorno" data-name="Trazado 823887 - Contorno" d="M164.514,230.959H153.968a.479.479,0,0,1,0-.959h10.546a.479.479,0,0,1,0,.959Zm-10.546-.639a.16.16,0,0,0,0,.32h10.546a.16.16,0,1,0,0-.32Z" transform="translate(-141.065 -211.464)" fill="#263238"/>
        <path id="Trazado_823888" data-name="Trazado 823888" d="M163.158,272.639h-7.35a.32.32,0,0,1,0-.639h7.35a.32.32,0,0,1,0,.639Zm0,0" transform="translate(-142.906 -250.109)" fill="#263238"/>
        <path id="Trazado_823888_-_Contorno" data-name="Trazado 823888 - Contorno" d="M161.318,270.959h-7.35a.479.479,0,0,1,0-.959h7.35a.479.479,0,0,1,0,.959Zm-7.35-.639a.16.16,0,0,0,0,.32h7.35a.16.16,0,0,0,0-.32Z" transform="translate(-141.065 -248.268)" fill="#263238"/>
        <path id="Trazado_823889" data-name="Trazado 823889" d="M408.32,449.917a.32.32,0,0,1-.32-.32V448.32a.32.32,0,0,1,.639,0V449.6A.32.32,0,0,1,408.32,449.917Zm0,0" transform="translate(-375.243 -412.047)" fill="#263238"/>
        <path id="Trazado_823889_-_Contorno" data-name="Trazado 823889 - Contorno" d="M406.479,448.237a.48.48,0,0,1-.479-.479v-1.278a.479.479,0,0,1,.959,0v1.278A.48.48,0,0,1,406.479,448.237Zm0-1.917a.16.16,0,0,0-.16.16v1.278a.16.16,0,0,0,.32,0v-1.278A.16.16,0,0,0,406.479,446.32Z" transform="translate(-373.403 -410.207)" fill="#263238"/>
        <path id="Trazado_823890" data-name="Trazado 823890" d="M408.32,300.144a.32.32,0,0,1-.32-.32v-11.5a.32.32,0,0,1,.639,0v11.5A.32.32,0,0,1,408.32,300.144Zm0,0" transform="translate(-375.243 -264.83)" fill="#263238"/>
        <path id="Trazado_823890_-_Contorno" data-name="Trazado 823890 - Contorno" d="M406.479,298.464a.48.48,0,0,1-.479-.479v-11.5a.479.479,0,0,1,.959,0v11.5A.48.48,0,0,1,406.479,298.464Zm0-12.144a.16.16,0,0,0-.16.16v11.5a.16.16,0,1,0,.32,0v-11.5A.16.16,0,0,0,406.479,286.32Z" transform="translate(-373.403 -262.99)" fill="#263238"/>
      </g>
      <path id="Trazado_823891" data-name="Trazado 823891" d="M52.6,113.752H48.127a.639.639,0,0,1-.639-.639v-4.474a.639.639,0,0,1,.639-.639H52.6a.64.64,0,0,1,.639.639v4.474A.64.64,0,0,1,52.6,113.752Zm0,0" transform="translate(-45.534 -101.211)" fill="#4db6ac"/>
      <path id="Trazado_823891_-_Contorno" data-name="Trazado 823891 - Contorno" d="M50.761,112.072H46.287a.8.8,0,0,1-.8-.8V106.8a.8.8,0,0,1,.8-.8h4.474a.8.8,0,0,1,.8.8v4.474A.8.8,0,0,1,50.761,112.072Zm-4.474-5.752a.48.48,0,0,0-.479.479v4.474a.48.48,0,0,0,.479.479h4.474a.48.48,0,0,0,.479-.479V106.8a.48.48,0,0,0-.479-.479Z" transform="translate(-43.694 -99.371)" fill="#263238"/>
      <path id="Trazado_823892" data-name="Trazado 823892" d="M48.921,110.392H44.447a.96.96,0,0,1-.959-.959v-4.474a.96.96,0,0,1,.959-.959h4.474a.96.96,0,0,1,.959.959v4.474A.96.96,0,0,1,48.921,110.392Zm-4.474-5.752a.32.32,0,0,0-.32.32v4.474a.32.32,0,0,0,.32.32h4.474a.32.32,0,0,0,.32-.32v-4.474a.32.32,0,0,0-.32-.32Zm0,0" transform="translate(-41.854 -97.531)" fill="#263238"/>
      <path id="Trazado_823892_-_Contorno" data-name="Trazado 823892 - Contorno" d="M47.081,108.711H42.607a1.12,1.12,0,0,1-1.119-1.119v-4.474A1.12,1.12,0,0,1,42.607,102h4.474a1.12,1.12,0,0,1,1.119,1.119v4.474A1.12,1.12,0,0,1,47.081,108.711Zm-4.474-6.392a.8.8,0,0,0-.8.8v4.474a.8.8,0,0,0,.8.8h4.474a.8.8,0,0,0,.8-.8v-4.474a.8.8,0,0,0-.8-.8Zm4.474,5.752H42.607a.48.48,0,0,1-.479-.479v-4.474a.48.48,0,0,1,.479-.479h4.474a.48.48,0,0,1,.479.479v4.474A.48.48,0,0,1,47.081,108.072Zm-4.474-5.113a.16.16,0,0,0-.16.16v4.474a.16.16,0,0,0,.16.16h4.474a.16.16,0,0,0,.16-.16v-4.474a.16.16,0,0,0-.16-.16Z" transform="translate(-40.014 -95.691)" fill="#263238"/>
      <path id="Trazado_823893" data-name="Trazado 823893" d="M64.706,108.168a.321.321,0,0,1-.226-.093l-1.356-1.356a.32.32,0,0,1,.452-.452l1.13,1.13,3.289-3.289a.32.32,0,0,1,.452.452l-3.515,3.515A.32.32,0,0,1,64.706,108.168Zm0,0" transform="translate(-59.835 -97.545)" fill="#263238"/>
      <path id="Trazado_823893_-_Contorno" data-name="Trazado 823893 - Contorno" d="M62.867,106.488a.479.479,0,0,1-.339-.14h0l-1.356-1.356a.48.48,0,0,1,0-.678h0a.48.48,0,0,1,.678,0l1.017,1.017,3.176-3.176a.479.479,0,0,1,.678.678l-3.516,3.516A.478.478,0,0,1,62.867,106.488Zm-.114-.366a.161.161,0,0,0,.227,0l3.515-3.515a.16.16,0,0,0-.226-.226l-3.4,3.4-1.243-1.243a.16.16,0,0,0-.226,0,.16.16,0,0,0,0,.226Z" transform="translate(-57.996 -95.704)" fill="#263238"/>
      <path id="Trazado_823894" data-name="Trazado 823894" d="M52.6,225.752H48.127a.639.639,0,0,1-.639-.639v-4.474a.639.639,0,0,1,.639-.639H52.6a.64.64,0,0,1,.639.639v4.474A.64.64,0,0,1,52.6,225.752Zm0,0" transform="translate(-45.534 -204.263)" fill="#4db6ac"/>
      <path id="Trazado_823894_-_Contorno" data-name="Trazado 823894 - Contorno" d="M50.761,224.072H46.287a.8.8,0,0,1-.8-.8V218.8a.8.8,0,0,1,.8-.8h4.474a.8.8,0,0,1,.8.8v4.474A.8.8,0,0,1,50.761,224.072Zm-4.474-5.752a.48.48,0,0,0-.479.479v4.474a.48.48,0,0,0,.479.479h4.474a.48.48,0,0,0,.479-.479V218.8a.48.48,0,0,0-.479-.479Z" transform="translate(-43.694 -202.423)" fill="#263238"/>
      <path id="Trazado_823895" data-name="Trazado 823895" d="M48.921,222.392H44.447a.96.96,0,0,1-.959-.959v-4.474a.96.96,0,0,1,.959-.959h4.474a.96.96,0,0,1,.959.959v4.474A.96.96,0,0,1,48.921,222.392Zm-4.474-5.752a.32.32,0,0,0-.32.32v4.474a.32.32,0,0,0,.32.32h4.474a.32.32,0,0,0,.32-.32v-4.474a.32.32,0,0,0-.32-.32Zm0,0" transform="translate(-41.854 -200.583)" fill="#263238"/>
      <path id="Trazado_823895_-_Contorno" data-name="Trazado 823895 - Contorno" d="M47.081,220.711H42.607a1.12,1.12,0,0,1-1.119-1.119v-4.474A1.12,1.12,0,0,1,42.607,214h4.474a1.12,1.12,0,0,1,1.119,1.119v4.474A1.12,1.12,0,0,1,47.081,220.711Zm-4.474-6.392a.8.8,0,0,0-.8.8v4.474a.8.8,0,0,0,.8.8h4.474a.8.8,0,0,0,.8-.8v-4.474a.8.8,0,0,0-.8-.8Zm4.474,5.752H42.607a.48.48,0,0,1-.479-.479v-4.474a.48.48,0,0,1,.479-.479h4.474a.48.48,0,0,1,.479.479v4.474A.48.48,0,0,1,47.081,220.072Zm-4.474-5.113a.16.16,0,0,0-.16.16v4.474a.16.16,0,0,0,.16.16h4.474a.16.16,0,0,0,.16-.16v-4.474a.16.16,0,0,0-.16-.16Z" transform="translate(-40.014 -198.743)" fill="#263238"/>
      <path id="Trazado_823896" data-name="Trazado 823896" d="M64.706,220.168a.321.321,0,0,1-.226-.093l-1.356-1.356a.32.32,0,0,1,.452-.452l1.13,1.13,3.289-3.289a.32.32,0,0,1,.452.452l-3.515,3.515A.32.32,0,0,1,64.706,220.168Zm0,0" transform="translate(-59.835 -200.596)" fill="#263238"/>
      <path id="Trazado_823896_-_Contorno" data-name="Trazado 823896 - Contorno" d="M62.867,218.488a.479.479,0,0,1-.339-.14h0l-1.356-1.356a.48.48,0,0,1,0-.678h0a.48.48,0,0,1,.678,0l1.017,1.017,3.176-3.176a.479.479,0,0,1,.678.678l-3.516,3.516A.477.477,0,0,1,62.867,218.488Zm-.114-.366a.161.161,0,0,0,.227,0l3.515-3.515a.16.16,0,0,0-.226-.226l-3.4,3.4-1.243-1.243a.16.16,0,0,0-.226,0,.16.16,0,0,0,0,.226Z" transform="translate(-57.996 -198.756)" fill="#263238"/>
      <path id="Trazado_823897" data-name="Trazado 823897" d="M166.354,352.639H155.808a.32.32,0,0,1,0-.639h10.546a.32.32,0,1,1,0,.639Zm0,0" transform="translate(-144.906 -325.717)" fill="#263238"/>
      <path id="Trazado_823897_-_Contorno" data-name="Trazado 823897 - Contorno" d="M164.514,350.959H153.968a.479.479,0,0,1,0-.959h10.546a.479.479,0,0,1,0,.959Zm-10.546-.639a.16.16,0,0,0,0,.32h10.546a.16.16,0,0,0,0-.32Z" transform="translate(-143.065 -323.877)" fill="#263238"/>
      <path id="Trazado_823898" data-name="Trazado 823898" d="M163.158,392.639h-7.35a.32.32,0,0,1,0-.639h7.35a.32.32,0,0,1,0,.639Zm0,0" transform="translate(-144.906 -362.521)" fill="#263238"/>
      <path id="Trazado_823898_-_Contorno" data-name="Trazado 823898 - Contorno" d="M161.318,390.959h-7.35a.479.479,0,0,1,0-.959h7.35a.479.479,0,0,1,0,.959Zm-7.35-.639a.16.16,0,0,0,0,.32h7.35a.16.16,0,0,0,0-.32Z" transform="translate(-143.065 -360.681)" fill="#263238"/>
      <path id="Trazado_823899" data-name="Trazado 823899" d="M52.6,345.753H48.127a.639.639,0,0,1-.639-.639v-4.474a.639.639,0,0,1,.639-.639H52.6a.64.64,0,0,1,.639.639v4.474A.64.64,0,0,1,52.6,345.753Zm0,0" transform="translate(-45.534 -314.676)" fill="#4db6ac"/>
      <path id="Trazado_823899_-_Contorno" data-name="Trazado 823899 - Contorno" d="M50.761,344.072H46.287a.8.8,0,0,1-.8-.8V338.8a.8.8,0,0,1,.8-.8h4.474a.8.8,0,0,1,.8.8v4.474A.8.8,0,0,1,50.761,344.072Zm-4.474-5.753a.48.48,0,0,0-.479.479v4.474a.48.48,0,0,0,.479.479h4.474a.48.48,0,0,0,.479-.479V338.8a.48.48,0,0,0-.479-.479Z" transform="translate(-43.694 -312.836)" fill="#263238"/>
      <path id="Trazado_823900" data-name="Trazado 823900" d="M48.921,342.392H44.447a.96.96,0,0,1-.959-.959v-4.474a.96.96,0,0,1,.959-.959h4.474a.96.96,0,0,1,.959.959v4.474A.96.96,0,0,1,48.921,342.392Zm-4.474-5.752a.32.32,0,0,0-.32.32v4.474a.32.32,0,0,0,.32.32h4.474a.32.32,0,0,0,.32-.32v-4.474a.32.32,0,0,0-.32-.32Zm0,0" transform="translate(-41.854 -310.995)" fill="#263238"/>
      <path id="Trazado_823900_-_Contorno" data-name="Trazado 823900 - Contorno" d="M47.081,340.711H42.607a1.12,1.12,0,0,1-1.119-1.119v-4.474A1.12,1.12,0,0,1,42.607,334h4.474a1.12,1.12,0,0,1,1.119,1.119v4.474A1.12,1.12,0,0,1,47.081,340.711Zm-4.474-6.392a.8.8,0,0,0-.8.8v4.474a.8.8,0,0,0,.8.8h4.474a.8.8,0,0,0,.8-.8v-4.474a.8.8,0,0,0-.8-.8Zm4.474,5.753H42.607a.48.48,0,0,1-.479-.479v-4.474a.48.48,0,0,1,.479-.479h4.474a.48.48,0,0,1,.479.479v4.474A.48.48,0,0,1,47.081,340.072Zm-4.474-5.113a.16.16,0,0,0-.16.16v4.474a.16.16,0,0,0,.16.16h4.474a.16.16,0,0,0,.16-.16v-4.474a.16.16,0,0,0-.16-.16Z" transform="translate(-40.014 -309.155)" fill="#263238"/>
      <path id="Trazado_823901" data-name="Trazado 823901" d="M64.706,340.168a.321.321,0,0,1-.226-.093l-1.356-1.356a.32.32,0,0,1,.452-.452l1.13,1.13,3.289-3.289a.32.32,0,0,1,.452.452l-3.515,3.515A.32.32,0,0,1,64.706,340.168Zm0,0" transform="translate(-59.835 -311.009)" fill="#263238"/>
      <path id="Trazado_823901_-_Contorno" data-name="Trazado 823901 - Contorno" d="M62.867,338.488a.479.479,0,0,1-.339-.14h0l-1.356-1.356a.48.48,0,0,1,0-.678h0a.48.48,0,0,1,.678,0l1.017,1.017,3.176-3.176a.479.479,0,0,1,.678.678l-3.516,3.516A.478.478,0,0,1,62.867,338.488Zm-.114-.366a.161.161,0,0,0,.227,0l3.515-3.515a.16.16,0,0,0-.226-.226l-3.4,3.4-1.243-1.243a.16.16,0,0,0-.226,0,.16.16,0,0,0,0,.226Z" transform="translate(-57.996 -309.169)" fill="#263238"/>
    </g>
  </g>
</svg>
