<svg xmlns="http://www.w3.org/2000/svg" xmlns:xlink="http://www.w3.org/1999/xlink" width="67" height="67" viewBox="0 0 67 67">
  <defs>
    <clipPath id="clip-path">
      <path id="path9616" d="M0-682.665H47.639v47.639H0Z" transform="translate(0 682.665)"/>
    </clipPath>
  </defs>
  <g id="Grupo_1073485" data-name="Grupo 1073485" transform="translate(-610.5 -5352)">
    <circle id="Elipse_9671" data-name="Elipse 9671" cx="33.5" cy="33.5" r="33.5" transform="translate(610.5 5352)" fill="#f0c52c"/>
    <g id="g9594" transform="translate(620.5 6044.665)">
      <g id="g9596" transform="translate(13.923 -643.916)">
        <path id="path9598" d="M-24.806,0l-1.861,5.324h8.545L-19.982,0Z" transform="translate(26.667)" fill="#ddebfd"/>
      </g>
      <g id="g9600" transform="translate(14.854 -643.915)">
        <path id="path9602" d="M-89.1-35.487l-.93-2.662h-4.824l-.93,2.662Z" transform="translate(95.788 38.149)" fill="#bed9fd"/>
      </g>
      <g id="g9604" transform="translate(19.91 -644.614)">
        <path id="path9606" d="M-34.11-79.582a.7.7,0,0,1-.659-.468l-1.861-5.324a.7.7,0,0,1,.429-.889.7.7,0,0,1,.889.429l1.861,5.324a.7.7,0,0,1-.429.889A.7.7,0,0,1-34.11-79.582Z" transform="translate(36.669 86.302)"/>
      </g>
      <g id="g9608" transform="translate(13.225 -644.614)">
        <path id="path9610" d="M-35.971-3.282a.7.7,0,0,1-.23-.039.7.7,0,0,1-.429-.889l1.861-5.324a.7.7,0,0,1,.889-.429.7.7,0,0,1,.429.889L-35.313-3.75A.7.7,0,0,1-35.971-3.282Z" transform="translate(36.669 10.003)"/>
      </g>
      <g id="g9612" transform="translate(0 -682.665)">
        <g id="g9614" clip-path="url(#clip-path)">
          <g id="g9620" transform="translate(10.499 44.074)">
            <path id="path9622" d="M0-19.019v.987a.337.337,0,0,0,.337.337h14.72a.337.337,0,0,0,.337-.337v-.987a1.427,1.427,0,0,0-1.427-1.427H1.427A1.427,1.427,0,0,0,0-19.019" transform="translate(0 20.445)" fill="#bed9fd"/>
          </g>
          <g id="g9624" transform="translate(9.801 43.376)">
            <path id="path9626" d="M5.755-26.3H-8.965A1.036,1.036,0,0,1-10-27.334v-.987a2.127,2.127,0,0,1,2.125-2.125H4.665A2.127,2.127,0,0,1,6.79-28.321v.987A1.036,1.036,0,0,1,5.755-26.3ZM-8.6-27.695h14v-.626a.73.73,0,0,0-.729-.729H-7.875a.73.73,0,0,0-.729.729Z" transform="translate(10 30.445)"/>
          </g>
          <g id="g9628" transform="translate(33.927 24.769)">
            <path id="path9630" d="M-133.15-150.452a.7.7,0,0,1-.7-.7v-8.642a1.3,1.3,0,0,0-1.3-1.3,1.3,1.3,0,0,0-1.3,1.3v4.541a2.7,2.7,0,0,1-2.7,2.7h-3.292a.7.7,0,0,1-.7-.7.7.7,0,0,1,.7-.7h3.292a1.3,1.3,0,0,0,1.3-1.3v-4.541a2.7,2.7,0,0,1,2.7-2.7,2.7,2.7,0,0,1,2.7,2.7v8.642A.7.7,0,0,1-133.15-150.452Z" transform="translate(143.138 162.489)"/>
          </g>
          <g id="g9632" transform="translate(0.698 12.158)">
            <path id="path9634" d="M0-342.06v-24.73a.93.93,0,0,1,.93-.93H34.066a.93.93,0,0,1,.93.93v24.73a.93.93,0,0,1-.93.93H.93a.93.93,0,0,1-.93-.93" transform="translate(0 367.72)" fill="#ddebfd"/>
          </g>
          <g id="g9636" transform="translate(0.698 12.158)">
            <path id="path9638" d="M-454.095-308.571H-487.23a.93.93,0,0,1-.93-.93v-21.288a.93.93,0,0,1,.93-.93h33.135a.93.93,0,0,1,.93.93V-309.5a.93.93,0,0,1-.93.93" transform="translate(488.16 331.719)" fill="#655e67"/>
          </g>
          <g id="g9640" transform="translate(0 20.577)">
            <path id="path9642" d="M-476.73-182.312h-33.135a1.63,1.63,0,0,1-1.628-1.628v-13.1a.7.7,0,0,1,.7-.7.7.7,0,0,1,.7.7v13.1a.233.233,0,0,0,.233.233h33.135a.233.233,0,0,0,.233-.233.7.7,0,0,1,.7-.7.7.7,0,0,1,.7.7A1.63,1.63,0,0,1-476.73-182.312Z" transform="translate(511.493 197.739)"/>
          </g>
          <g id="g9644" transform="translate(0 11.46)">
            <path id="path9646" d="M-9.3-86.724a.7.7,0,0,1-.7-.7v-4.93A1.63,1.63,0,0,1-8.372-93.98a.7.7,0,0,1,.7.7.7.7,0,0,1-.7.7.233.233,0,0,0-.233.233v4.93A.7.7,0,0,1-9.3-86.724Z" transform="translate(10 93.98)"/>
          </g>
          <g id="g9648" transform="translate(3.303 14.763)">
            <path id="path9650" d="M0-4.961V12.233a.372.372,0,0,0,.372.372H29.413a.372.372,0,0,0,.372-.372V-4.961a.372.372,0,0,0-.372-.372H.372A.372.372,0,0,0,0-4.961" transform="translate(0 5.333)" fill="#80b6fc"/>
          </g>
          <g id="g9652" transform="translate(2.605 14.066)">
            <path id="path9654" d="M-154.97,9.334h-29.041a1.071,1.071,0,0,1-1.07-1.07V-8.93a1.071,1.071,0,0,1,1.07-1.07h11.846a.7.7,0,0,1,.7.7.7.7,0,0,1-.7.7h-11.52V7.938h28.39V-8.6h-11.52a.7.7,0,0,1-.7-.7.7.7,0,0,1,.7-.7h11.846a1.071,1.071,0,0,1,1.07,1.07V8.264A1.071,1.071,0,0,1-154.97,9.334Z" transform="translate(185.081 10)"/>
          </g>
          <g id="g9656" transform="translate(0 28.745)">
            <path id="path9658" d="M-392.823-132.663h-27.85a1.621,1.621,0,0,1-1.62-1.62v-8.385a.7.7,0,0,1,.7-.7.7.7,0,0,1,.7.7v8.385a.224.224,0,0,0,.224.224h27.85a.7.7,0,0,1,.7.7A.7.7,0,0,1-392.823-132.663Z" transform="translate(422.292 143.365)"/>
          </g>
          <g id="g9660" transform="translate(20.173 11.46)">
            <path id="path9662" d="M4.59,17.987H2.553a.7.7,0,0,1,0-1.4H4.59a.233.233,0,0,0,.233-.233V-8.372A.233.233,0,0,0,4.59-8.6H-9.3a.7.7,0,0,1-.7-.7.7.7,0,0,1,.7-.7H4.59A1.63,1.63,0,0,1,6.219-8.372v24.73A1.63,1.63,0,0,1,4.59,17.987Z" transform="translate(10 10)"/>
          </g>
          <g id="g9664" transform="translate(0 11.46)">
            <path id="path9666" d="M-9.3-54.676a.7.7,0,0,1-.7-.7V-57.9a1.63,1.63,0,0,1,1.628-1.628H5.521a.7.7,0,0,1,.7.7.7.7,0,0,1-.7.7H-8.372A.233.233,0,0,0-8.6-57.9v2.526A.7.7,0,0,1-9.3-54.676Z" transform="translate(10 59.528)"/>
          </g>
          <g id="g9668" transform="translate(40.891 36.108)">
            <path id="path9670" d="M-47.53,0h-1.082A2.484,2.484,0,0,0-51.1,2.484V7.3a2.484,2.484,0,0,0,2.484,2.484h1.082A2.484,2.484,0,0,0-45.046,7.3V2.484A2.484,2.484,0,0,0-47.53,0" transform="translate(51.096)" fill="#ddebfd"/>
          </g>
          <g id="g9672" transform="translate(42.966 36.108)">
            <path id="path9674" d="M-19.873,0h-1.082a2.509,2.509,0,0,0-.409.034,2.484,2.484,0,0,1,2.075,2.45V7.3a2.484,2.484,0,0,1-2.075,2.45,2.509,2.509,0,0,0,.409.034h1.082A2.484,2.484,0,0,0-17.389,7.3V2.484A2.484,2.484,0,0,0-19.873,0" transform="translate(21.364)" fill="#bed9fd"/>
          </g>
          <g id="g9676" transform="translate(40.194 35.41)">
            <path id="path9678" d="M-57.914-10h1.082a3.185,3.185,0,0,1,3.182,3.182V-2a3.185,3.185,0,0,1-3.182,3.182h-1.082A3.185,3.185,0,0,1-61.1-2V-6.818A3.185,3.185,0,0,1-57.914-10Zm1.082,9.786A1.788,1.788,0,0,0-55.046-2V-6.818A1.788,1.788,0,0,0-56.832-8.6h-1.082A1.788,1.788,0,0,0-59.7-6.818V-2A1.788,1.788,0,0,0-57.914-.214Z" transform="translate(61.096 10)"/>
          </g>
          <g id="g9680" transform="translate(43.218 37.832)">
            <path id="path9682" d="M-9.3-7.863a.7.7,0,0,1-.7-.7V-9.3a.7.7,0,0,1,.7-.7.7.7,0,0,1,.7.7v.741A.7.7,0,0,1-9.3-7.863Z" transform="translate(10 10)"/>
          </g>
          <g id="g9684" transform="translate(28.655 8.988)">
            <path id="path9686" d="M-11.959,0H4.532a.9.9,0,0,1,.9.9V7.144a.9.9,0,0,1-.9.9H-6.1a.838.838,0,0,0-.528.188l-3.157,2.565a.479.479,0,0,1-.773-.288l-.384-2.176a.348.348,0,0,0-.343-.288h-.671a.9.9,0,0,1-.9-.9V.9a.9.9,0,0,1,.9-.9" transform="translate(12.856 0)" fill="#e27c48"/>
          </g>
          <g id="g9688" transform="translate(41.984 11.318)">
            <path id="path9690" d="M-9.3-7.507a.7.7,0,0,1-.7-.7V-9.3a.7.7,0,0,1,.7-.7.7.7,0,0,1,.7.7v1.1A.7.7,0,0,1-9.3-7.507Z" transform="translate(10 10)"/>
          </g>
          <g id="g9692" transform="translate(41.984 12.076)">
            <path id="path9694" d="M-24.266-8.267a.7.7,0,0,1-.664-.482.7.7,0,0,1,.448-.879l1.044-.339a.7.7,0,0,1,.879.448.7.7,0,0,1-.448.879L-24.05-8.3A.7.7,0,0,1-24.266-8.267Z" transform="translate(24.964 10.003)"/>
          </g>
          <g id="g9696" transform="translate(41.984 12.415)">
            <path id="path9698" d="M-17.9-20.443a.7.7,0,0,1-.565-.288l-.645-.888a.7.7,0,0,1,.154-.975.7.7,0,0,1,.975.154l.645.888a.7.7,0,0,1-.154.975A.7.7,0,0,1-17.9-20.443Z" transform="translate(19.247 22.727)"/>
          </g>
          <g id="g9700" transform="translate(41.339 12.415)">
            <path id="path9702" d="M-9.3-20.443a.7.7,0,0,1-.41-.133.7.7,0,0,1-.154-.975l.645-.888a.7.7,0,0,1,.975-.154.7.7,0,0,1,.154.975l-.645.888A.7.7,0,0,1-9.3-20.443Z" transform="translate(10.001 22.727)"/>
          </g>
          <g id="g9704" transform="translate(40.94 12.076)">
            <path id="path9706" d="M-8.261-8.267A.7.7,0,0,1-8.476-8.3L-9.52-8.641a.7.7,0,0,1-.448-.879.7.7,0,0,1,.879-.448l1.044.339A.7.7,0,0,1-7.6-8.75.7.7,0,0,1-8.261-8.267Z" transform="translate(10.003 10.003)"/>
          </g>
          <g id="g9708" transform="translate(37.1 11.318)">
            <path id="path9710" d="M-9.3-7.507a.7.7,0,0,1-.7-.7V-9.3a.7.7,0,0,1,.7-.7.7.7,0,0,1,.7.7v1.1A.7.7,0,0,1-9.3-7.507Z" transform="translate(10 10)"/>
          </g>
          <g id="g9712" transform="translate(37.1 12.076)">
            <path id="path9714" d="M-24.265-8.267a.7.7,0,0,1-.664-.482.7.7,0,0,1,.448-.879l1.044-.339a.7.7,0,0,1,.879.448A.7.7,0,0,1-23-8.641l-1.044.339A.7.7,0,0,1-24.265-8.267Z" transform="translate(24.963 10.003)"/>
          </g>
          <g id="g9716" transform="translate(37.1 12.415)">
            <path id="path9718" d="M-17.9-20.443a.7.7,0,0,1-.565-.288l-.645-.888a.7.7,0,0,1,.154-.975.7.7,0,0,1,.975.154l.645.888a.7.7,0,0,1-.154.975A.7.7,0,0,1-17.9-20.443Z" transform="translate(19.247 22.727)"/>
          </g>
          <g id="g9720" transform="translate(36.455 12.415)">
            <path id="path9722" d="M-9.3-20.443a.7.7,0,0,1-.41-.133.7.7,0,0,1-.154-.975l.645-.888a.7.7,0,0,1,.975-.154.7.7,0,0,1,.154.975l-.645.888A.7.7,0,0,1-9.3-20.443Z" transform="translate(10.001 22.727)"/>
          </g>
          <g id="g9724" transform="translate(36.056 12.076)">
            <path id="path9726" d="M-8.26-8.267A.7.7,0,0,1-8.476-8.3L-9.52-8.641a.7.7,0,0,1-.448-.879.7.7,0,0,1,.879-.448l1.044.339A.7.7,0,0,1-7.6-8.75.7.7,0,0,1-8.26-8.267Z" transform="translate(10.003 10.003)"/>
          </g>
          <g id="g9728" transform="translate(32.217 11.318)">
            <path id="path9730" d="M-9.3-7.507a.7.7,0,0,1-.7-.7V-9.3a.7.7,0,0,1,.7-.7.7.7,0,0,1,.7.7v1.1A.7.7,0,0,1-9.3-7.507Z" transform="translate(10 10)"/>
          </g>
          <g id="g9732" transform="translate(32.216 12.076)">
            <path id="path9734" d="M-24.266-8.267a.7.7,0,0,1-.664-.482.7.7,0,0,1,.448-.879l1.044-.339a.7.7,0,0,1,.879.448.7.7,0,0,1-.448.879L-24.05-8.3A.7.7,0,0,1-24.266-8.267Z" transform="translate(24.964 10.003)"/>
          </g>
          <g id="g9736" transform="translate(32.217 12.415)">
            <path id="path9738" d="M-17.9-20.443a.7.7,0,0,1-.565-.288l-.645-.888a.7.7,0,0,1,.154-.975.7.7,0,0,1,.975.154l.645.888a.7.7,0,0,1-.154.975A.7.7,0,0,1-17.9-20.443Z" transform="translate(19.247 22.727)"/>
          </g>
          <g id="g9740" transform="translate(31.571 12.415)">
            <path id="path9742" d="M-9.3-20.443a.7.7,0,0,1-.41-.133.7.7,0,0,1-.154-.975l.645-.888a.7.7,0,0,1,.975-.154.7.7,0,0,1,.154.975l-.645.888A.7.7,0,0,1-9.3-20.443Z" transform="translate(10.001 22.727)"/>
          </g>
          <g id="g9744" transform="translate(31.173 12.076)">
            <path id="path9746" d="M-8.261-8.267A.7.7,0,0,1-8.476-8.3L-9.52-8.641a.7.7,0,0,1-.448-.879.7.7,0,0,1,.879-.448l1.044.339A.7.7,0,0,1-7.6-8.75.7.7,0,0,1-8.261-8.267Z" transform="translate(10.003 10.003)"/>
          </g>
          <g id="g9748" transform="translate(27.958 8.29)">
            <path id="path9750" d="M-21.261-10H-4.77A1.6,1.6,0,0,1-3.175-8.405v6.247A1.6,1.6,0,0,1-4.77-.563H-15.405a.141.141,0,0,0-.088.031L-18.65,2.033a1.178,1.178,0,0,1-.74.264,1.176,1.176,0,0,1-1.16-.972l-.333-1.887h-.377a1.6,1.6,0,0,1-1.595-1.595V-8.405A1.6,1.6,0,0,1-21.261-10ZM-4.77-1.959a.2.2,0,0,0,.2-.2V-8.405a.2.2,0,0,0-.2-.2H-21.261a.2.2,0,0,0-.2.2v6.247a.2.2,0,0,0,.2.2h.671a1.045,1.045,0,0,1,1.03.864l.319,1.809,2.867-2.33a1.54,1.54,0,0,1,.969-.344Z" transform="translate(22.856 10)"/>
          </g>
          <g id="g9752" transform="translate(11.652 0.814)">
            <path id="path9754" d="M-168.291-53.445a1.572,1.572,0,0,0-1.117-.463h-.609a3.547,3.547,0,0,0-3.547-3.546,3.546,3.546,0,0,0-3.149,1.914c-.041,0-.082,0-.123,0a1.637,1.637,0,0,0-1.637,1.637h-.864a1.579,1.579,0,0,0-1.579,1.58,1.574,1.574,0,0,0,.462,1.117,1.572,1.572,0,0,0,1.117.463h9.93a1.58,1.58,0,0,0,1.58-1.58,1.575,1.575,0,0,0-.463-1.117" transform="translate(180.916 57.455)" fill="#ddebfd"/>
          </g>
          <g id="g9756" transform="translate(10.954 0.116)">
            <path id="path9758" d="M-162.708-97.989h-9.929a2.26,2.26,0,0,1-1.611-.668,2.261,2.261,0,0,1-.666-1.61,2.28,2.28,0,0,1,2.277-2.277h.273a2.342,2.342,0,0,1,1.944-1.62,4.23,4.23,0,0,1,3.556-1.927,4.252,4.252,0,0,1,4.188,3.547,2.259,2.259,0,0,1,1.579.668,2.262,2.262,0,0,1,.667,1.609A2.28,2.28,0,0,1-162.708-97.989Zm-9.929-3.159a.882.882,0,0,0-.881.882.875.875,0,0,0,.258.623.874.874,0,0,0,.623.259h9.929a.883.883,0,0,0,.882-.882.876.876,0,0,0-.259-.623.874.874,0,0,0-.623-.259h-.609a.7.7,0,0,1-.7-.7,2.852,2.852,0,0,0-2.849-2.849,2.841,2.841,0,0,0-2.53,1.538.7.7,0,0,1-.67.374l-.072,0a.941.941,0,0,0-.939.939.7.7,0,0,1-.7.7Z" transform="translate(174.914 106.09)"/>
          </g>
          <g id="g9760" transform="translate(18.196 16.004)">
            <path id="path9762"/>
          </g>
          <g id="g9764" transform="translate(17.498 12.456)">
            <path id="path9766" d="M-9.3-9.628a.7.7,0,0,1-.7-.7V-10.4a.7.7,0,0,1,.7-.7.7.7,0,0,1,.7.7v.077A.7.7,0,0,1-9.3-9.628Z" transform="translate(10 11.1)"/>
          </g>
          <g id="g9768" transform="translate(18.196 10.457)">
            <path id="path9770"/>
          </g>
          <g id="g9772" transform="translate(12.341 20.83)">
            <path id="path9774" d="M-130.24-51.684h-7.832a1.939,1.939,0,0,1-1.939-1.939,1.939,1.939,0,0,1,1.939-1.939h7.832a1.939,1.939,0,0,1,1.939,1.939,1.939,1.939,0,0,1-1.939,1.939" transform="translate(140.01 55.561)" fill="#fbf490"/>
          </g>
          <g id="g9776" transform="translate(11.643 20.132)">
            <path id="path9778" d="M-139.542-60.288h-7.832a2.639,2.639,0,0,1-2.636-2.636,2.639,2.639,0,0,1,2.636-2.637h7.832a2.639,2.639,0,0,1,2.636,2.637A2.639,2.639,0,0,1-139.542-60.288Zm-7.832-3.877a1.242,1.242,0,0,0-1.241,1.241,1.242,1.242,0,0,0,1.241,1.241h7.832a1.242,1.242,0,0,0,1.241-1.241,1.242,1.242,0,0,0-1.241-1.241Z" transform="translate(150.01 65.561)"/>
          </g>
          <g id="g9780" transform="translate(14.532 27.443)">
            <path id="path9782" d="M-3.37-8.6H-9.3a.7.7,0,0,1-.7-.7.7.7,0,0,1,.7-.7H-3.37a.7.7,0,0,1,.7.7A.7.7,0,0,1-3.37-8.6Z" transform="translate(10 10)"/>
          </g>
        </g>
      </g>
    </g>
  </g>
</svg>
