<svg xmlns="http://www.w3.org/2000/svg" xmlns:xlink="http://www.w3.org/1999/xlink" width="505" height="115" viewBox="0 0 505 115">
  <defs>
    <clipPath id="clip-path">
      <rect id="Rectángulo_382924" data-name="Rectángulo 382924" width="505" height="83" rx="15" transform="translate(915 6278)" fill="#add3fd"/>
    </clipPath>
  </defs>
  <g id="Grupo_1073707" data-name="Grupo 1073707" transform="translate(-915 -6262)">
    <rect id="Rectángulo_382833" data-name="Rectángulo 382833" width="505" height="83" rx="15" transform="translate(915 6278)" fill="#0b47db"/>
    <g id="algoritmo_1_" data-name="algoritmo (1)" transform="translate(952 6262)">
      <g id="Grupo_1073702" data-name="Grupo 1073702" transform="translate(37.734 1.797)">
        <path id="Trazado_824047" data-name="Trazado 824047" d="M168,8h32.344V18.781H168Zm0,0" transform="translate(-168 -8)" fill="#cf71fb"/>
        <path id="Trazado_824048" data-name="Trazado 824048" d="M168,96h32.344v10.781H168Zm0,0" transform="translate(-168 -76.234)" fill="#cf71fb"/>
        <path id="Trazado_824049" data-name="Trazado 824049" d="M168,320h32.344v10.781H168Zm0,0" transform="translate(-168 -249.922)" fill="#cf71fb"/>
      </g>
      <path id="Trazado_824050" data-name="Trazado 824050" d="M183.43,188.139l12.705-12.705,12.706,12.705-12.706,12.705Zm0,0" transform="translate(-142.23 -136.03)" fill="#f96437"/>
      <path id="Trazado_824051" data-name="Trazado 824051" d="M213.563,418.781A10.781,10.781,0,1,1,202.781,408,10.782,10.782,0,0,1,213.563,418.781Zm0,0" transform="translate(-148.875 -316.359)" fill="#fddf81"/>
      <path id="Trazado_824052" data-name="Trazado 824052" d="M22.375,207.188A7.188,7.188,0,1,1,15.187,200,7.188,7.188,0,0,1,22.375,207.188Zm0,0" transform="translate(-6.203 -155.078)" fill="#fddf81"/>
      <path id="Trazado_824053" data-name="Trazado 824053" d="M422.375,95.188A7.188,7.188,0,1,1,415.188,88,7.188,7.188,0,0,1,422.375,95.188Zm0,0" transform="translate(-316.359 -68.234)" fill="#fddf81"/>
      <path id="Trazado_824054" data-name="Trazado 824054" d="M96,224h3.594v3.594H96Zm0,0" transform="translate(-74.438 -173.688)"/>
      <path id="Trazado_824055" data-name="Trazado 824055" d="M128,224h3.594v3.594H128Zm0,0" transform="translate(-99.25 -173.688)"/>
      <path id="Trazado_824056" data-name="Trazado 824056" d="M100.625,18.15V7.188a1.8,1.8,0,0,0-1.8-1.8H71.875V1.8a1.8,1.8,0,0,0-1.8-1.8H37.734a1.8,1.8,0,0,0-1.8,1.8V5.391H23.359a1.8,1.8,0,0,0-1.8,1.8V25.156H8.984a1.8,1.8,0,0,0-1.8,1.8V43.307a8.984,8.984,0,0,0,0,17.606V77.266a1.8,1.8,0,0,0,1.8,1.8H35.938v3.594a1.8,1.8,0,0,0,1.8,1.8H52.109v5.535A12.57,12.57,0,1,0,66.34,104.219H86.25a1.8,1.8,0,0,0,1.8-1.8V53.906H98.828a1.8,1.8,0,0,0,1.8-1.8V35.756a8.984,8.984,0,0,0,0-17.606ZM39.531,3.594h28.75v7.188H39.531ZM25.156,8.984H35.938v3.594a1.8,1.8,0,0,0,1.8,1.8H52.109v5.391H37.734a1.8,1.8,0,0,0-1.8,1.8v3.594H25.156ZM68.281,23.359v7.188H39.531V23.359ZM3.594,52.109A5.391,5.391,0,1,1,8.984,57.5,5.4,5.4,0,0,1,3.594,52.109ZM35.938,71.875v3.594H10.781V60.912a8.984,8.984,0,0,0,0-17.606V28.75H35.938v3.594a1.8,1.8,0,0,0,1.8,1.8H52.109V38.66L40.457,50.313H35.938v3.594h4.519L52.109,65.559v4.519H37.734A1.8,1.8,0,0,0,35.938,71.875ZM53.906,41.944,64.072,52.109,53.906,62.275,43.741,52.109ZM39.531,73.672h28.75v7.188H39.531Zm14.375,37.734a8.984,8.984,0,1,1,8.984-8.984A8.995,8.995,0,0,1,53.906,111.406Zm30.547-10.781H66.34A12.591,12.591,0,0,0,55.7,89.986V84.453H70.078a1.8,1.8,0,0,0,1.8-1.8V71.875a1.8,1.8,0,0,0-1.8-1.8H55.7V65.559L67.356,53.906h17.1ZM97.031,50.313H67.356L55.7,38.66V34.141H70.078a1.8,1.8,0,0,0,1.8-1.8V21.563a1.8,1.8,0,0,0-1.8-1.8H55.7V14.375H70.078a1.8,1.8,0,0,0,1.8-1.8V8.984H97.031V18.15a8.984,8.984,0,0,0,0,17.606Zm1.8-17.969a5.391,5.391,0,1,1,5.391-5.391A5.4,5.4,0,0,1,98.828,32.344Zm0,0"/>
    </g>
    <g id="algoritmo-_" data-name="algoritmo-&apos;" transform="translate(1089 6271)">
      <path id="Trazado_824057" data-name="Trazado 824057" d="M154.339,98.323H52.032a3.653,3.653,0,0,1-3.653-3.653V28.5a3.653,3.653,0,0,1,3.653-3.653H154.339a3.653,3.653,0,0,1,3.653,3.653V94.67A3.653,3.653,0,0,1,154.339,98.323Zm0,0" transform="translate(-35.755 -18.364)" fill="#bce8f1"/>
      <path id="Trazado_824058" data-name="Trazado 824058" d="M154.642,24.848H139.564V82.627a3.351,3.351,0,0,1-3.351,3.35H48.379v9a3.35,3.35,0,0,0,3.35,3.35H154.642a3.35,3.35,0,0,0,3.35-3.35V28.2A3.351,3.351,0,0,0,154.642,24.848Zm0,0" transform="translate(-35.755 -18.364)" fill="#95dae8"/>
      <path id="Trazado_824059" data-name="Trazado 824059" d="M157.992,40.6V28.462a3.615,3.615,0,0,0-3.614-3.614H51.993a3.614,3.614,0,0,0-3.614,3.614V40.6Zm0,0" transform="translate(-35.755 -18.364)" fill="#f0feff"/>
      <path id="Trazado_824060" data-name="Trazado 824060" d="M412.639,24.848H397.824V40.6h18.429V28.462A3.615,3.615,0,0,0,412.639,24.848Zm0,0" transform="translate(-294.016 -18.364)" fill="#def4f8"/>
      <path id="Trazado_824061" data-name="Trazado 824061" d="M149.659,89.991H30.949V15.08a7.659,7.659,0,0,1,7.659-7.658H142a7.658,7.658,0,0,1,7.658,7.658V89.991ZM42.438,77.306H138.17a2.393,2.393,0,0,0,2.393-2.393v-56a2.393,2.393,0,0,0-2.393-2.393H42.438a2.393,2.393,0,0,0-2.393,2.393v56A2.393,2.393,0,0,0,42.438,77.306Zm0,0" transform="translate(-22.873 -5.485)" fill="#607882"/>
      <path id="Trazado_824062" data-name="Trazado 824062" d="M143.519,8V79.515a1.835,1.835,0,0,1-1.835,1.835H30.949v9.069h118.71V15.507A7.661,7.661,0,0,0,143.519,8Zm0,0" transform="translate(-22.873 -5.912)" fill="#495959"/>
      <path id="Trazado_824063" data-name="Trazado 824063" d="M126.191,322.811H18.381a10.96,10.96,0,0,1-10.96-10.96V310.5a1.257,1.257,0,0,1,1.258-1.258H135.891a1.258,1.258,0,0,1,1.259,1.258v1.352A10.96,10.96,0,0,1,126.191,322.811Zm0,0" transform="translate(-5.485 -228.548)" fill="#607882"/>
      <path id="Trazado_824064" data-name="Trazado 824064" d="M143.292,309.242H131.575a10.846,10.846,0,0,1-10.791,9.775H17.418a10.814,10.814,0,0,0,8.236,3.794h108.04a10.844,10.844,0,0,0,10.844-10.844v-1.48A1.245,1.245,0,0,0,143.292,309.242Zm0,0" transform="translate(-12.873 -228.548)" fill="#495959"/>
      <g id="Grupo_1073703" data-name="Grupo 1073703" transform="translate(31.897 27.564)">
        <path id="Trazado_824065" data-name="Trazado 824065" d="M124.491,108.837h-1.615c-.413,0-.638-.15-.638-.664,0-.463.25-.588.9-.714l.463-.1c1.389-.3,1-1.728,2.065-1.728.4,0,.726.175.726.851v7.11c0,.65-.25,1.1-.951,1.1s-.951-.451-.951-1.1Zm0,0" transform="translate(-122.238 -105.633)" fill="#607882"/>
        <path id="Trazado_824066" data-name="Trazado 824066" d="M157,105.633c2.027,0,3.341,1.465,3.341,4.419,0,2.215-.7,4.643-3.341,4.643s-3.342-2.428-3.342-4.643C153.656,107.1,154.97,105.633,157,105.633Zm0,7.56c.963,0,1.514-.789,1.514-3.029,0-1.878-.413-3.029-1.514-3.029s-1.515,1.152-1.515,3.029C155.484,112.4,156.034,113.193,157,113.193Zm0,0" transform="translate(-145.458 -105.633)" fill="#607882"/>
        <path id="Trazado_824067" data-name="Trazado 824067" d="M195.947,105.633c2.028,0,3.342,1.465,3.342,4.419,0,2.215-.7,4.643-3.342,4.643s-3.341-2.428-3.341-4.643C192.605,107.1,193.919,105.633,195.947,105.633Zm0,7.56c.964,0,1.515-.789,1.515-3.029,0-1.878-.413-3.029-1.515-3.029s-1.514,1.152-1.514,3.029C194.433,112.4,194.983,113.193,195.947,113.193Zm0,0" transform="translate(-174.244 -105.633)" fill="#607882"/>
        <path id="Trazado_824068" data-name="Trazado 824068" d="M231.507,108.837h-1.615c-.414,0-.638-.15-.638-.664,0-.463.25-.588.9-.714l.464-.1c1.389-.3,1-1.728,2.065-1.728.4,0,.726.175.726.851v7.11c0,.65-.25,1.1-.951,1.1s-.951-.451-.951-1.1Zm0,0" transform="translate(-201.329 -105.633)" fill="#607882"/>
        <path id="Trazado_824069" data-name="Trazado 824069" d="M264.013,105.633c2.027,0,3.341,1.465,3.341,4.419,0,2.215-.7,4.643-3.341,4.643s-3.341-2.428-3.341-4.643C260.672,107.1,261.986,105.633,264.013,105.633Zm0,7.56c.964,0,1.515-.789,1.515-3.029,0-1.878-.413-3.029-1.515-3.029s-1.515,1.152-1.515,3.029C262.5,112.4,263.049,113.193,264.013,113.193Zm0,0" transform="translate(-224.549 -105.633)" fill="#607882"/>
        <path id="Trazado_824070" data-name="Trazado 824070" d="M299.569,108.837h-1.615c-.413,0-.638-.15-.638-.664,0-.463.251-.588.9-.714l.464-.1c1.388-.3,1-1.728,2.065-1.728.4,0,.726.175.726.851v7.11c0,.65-.251,1.1-.952,1.1s-.951-.451-.951-1.1Zm0,0" transform="translate(-251.631 -105.633)" fill="#607882"/>
        <path id="Trazado_824071" data-name="Trazado 824071" d="M332.077,105.633c2.027,0,3.341,1.465,3.341,4.419,0,2.215-.7,4.643-3.341,4.643s-3.342-2.428-3.342-4.643C328.734,107.1,330.048,105.633,332.077,105.633Zm0,7.56c.963,0,1.515-.789,1.515-3.029,0-1.878-.414-3.029-1.515-3.029s-1.515,1.152-1.515,3.029C330.562,112.4,331.112,113.193,332.077,113.193Zm0,0" transform="translate(-274.851 -105.633)" fill="#607882"/>
        <path id="Trazado_824072" data-name="Trazado 824072" d="M371.025,105.633c2.028,0,3.342,1.465,3.342,4.419,0,2.215-.7,4.643-3.342,4.643s-3.341-2.428-3.341-4.643C367.684,107.1,369,105.633,371.025,105.633Zm0,7.56c.964,0,1.515-.789,1.515-3.029,0-1.878-.413-3.029-1.515-3.029s-1.514,1.152-1.514,3.029C369.511,112.4,370.062,113.193,371.025,113.193Zm0,0" transform="translate(-303.637 -105.633)" fill="#607882"/>
        <path id="Trazado_824073" data-name="Trazado 824073" d="M127.881,158.246c2.027,0,3.341,1.465,3.341,4.418,0,2.216-.7,4.644-3.341,4.644s-3.342-2.428-3.342-4.644C124.539,159.711,125.854,158.246,127.881,158.246Zm0,7.56c.963,0,1.515-.789,1.515-3.029,0-1.878-.414-3.029-1.515-3.029s-1.515,1.152-1.515,3.029C126.367,165.017,126.917,165.806,127.881,165.806Zm0,0" transform="translate(-123.939 -144.517)" fill="#607882"/>
        <path id="Trazado_824074" data-name="Trazado 824074" d="M163.44,161.45h-1.615c-.413,0-.638-.15-.638-.663,0-.464.251-.589.9-.714l.463-.1c1.389-.3,1-1.727,2.065-1.727.4,0,.726.175.726.851v7.11c0,.65-.25,1.1-.951,1.1s-.951-.451-.951-1.1Zm0,0" transform="translate(-151.024 -144.517)" fill="#607882"/>
        <path id="Trazado_824075" data-name="Trazado 824075" d="M195.947,158.246c2.028,0,3.342,1.465,3.342,4.418,0,2.216-.7,4.644-3.342,4.644s-3.341-2.428-3.341-4.644C192.605,159.711,193.919,158.246,195.947,158.246Zm0,7.56c.964,0,1.515-.789,1.515-3.029,0-1.878-.413-3.029-1.515-3.029s-1.514,1.152-1.514,3.029C194.433,165.017,194.983,165.806,195.947,165.806Zm0,0" transform="translate(-174.244 -144.517)" fill="#607882"/>
        <path id="Trazado_824076" data-name="Trazado 824076" d="M231.507,161.45h-1.615c-.414,0-.638-.15-.638-.663,0-.464.25-.589.9-.714l.464-.1c1.389-.3,1-1.727,2.065-1.727.4,0,.726.175.726.851v7.11c0,.65-.25,1.1-.951,1.1s-.951-.451-.951-1.1Zm0,0" transform="translate(-201.329 -144.517)" fill="#607882"/>
        <path id="Trazado_824077" data-name="Trazado 824077" d="M264.013,158.246c2.027,0,3.341,1.465,3.341,4.418,0,2.216-.7,4.644-3.341,4.644s-3.341-2.428-3.341-4.644C260.672,159.711,261.986,158.246,264.013,158.246Zm0,7.56c.964,0,1.515-.789,1.515-3.029,0-1.878-.413-3.029-1.515-3.029s-1.515,1.152-1.515,3.029C262.5,165.017,263.049,165.806,264.013,165.806Zm0,0" transform="translate(-224.549 -144.517)" fill="#607882"/>
        <path id="Trazado_824078" data-name="Trazado 824078" d="M302.959,158.246c2.027,0,3.341,1.465,3.341,4.418,0,2.216-.7,4.644-3.341,4.644s-3.342-2.428-3.342-4.644C299.617,159.711,300.932,158.246,302.959,158.246Zm0,7.56c.963,0,1.515-.789,1.515-3.029,0-1.878-.413-3.029-1.515-3.029s-1.515,1.152-1.515,3.029C301.445,165.017,302,165.806,302.959,165.806Zm0,0" transform="translate(-253.332 -144.517)" fill="#607882"/>
        <path id="Trazado_824079" data-name="Trazado 824079" d="M341.909,158.246c2.027,0,3.341,1.465,3.341,4.418,0,2.216-.7,4.644-3.341,4.644s-3.342-2.428-3.342-4.644C338.566,159.711,339.881,158.246,341.909,158.246Zm0,7.56c.963,0,1.515-.789,1.515-3.029,0-1.878-.413-3.029-1.515-3.029s-1.515,1.152-1.515,3.029C340.394,165.017,340.944,165.806,341.909,165.806Zm0,0" transform="translate(-282.118 -144.517)" fill="#607882"/>
        <path id="Trazado_824080" data-name="Trazado 824080" d="M377.467,161.45h-1.615c-.413,0-.638-.15-.638-.663,0-.464.25-.589.9-.714l.463-.1c1.389-.3,1-1.727,2.065-1.727.4,0,.726.175.726.851v7.11c0,.65-.25,1.1-.951,1.1s-.951-.451-.951-1.1Zm0,0" transform="translate(-309.203 -144.517)" fill="#607882"/>
        <path id="Trazado_824081" data-name="Trazado 824081" d="M124.491,214.063h-1.615c-.413,0-.638-.15-.638-.663,0-.464.25-.589.9-.714l.463-.1c1.389-.3,1-1.727,2.065-1.727.4,0,.726.175.726.851v7.109c0,.651-.25,1.1-.951,1.1s-.951-.451-.951-1.1Zm0,0" transform="translate(-122.238 -183.402)" fill="#607882"/>
        <path id="Trazado_824082" data-name="Trazado 824082" d="M157,210.859c2.027,0,3.341,1.465,3.341,4.418,0,2.216-.7,4.644-3.341,4.644s-3.342-2.428-3.342-4.644C153.656,212.324,154.97,210.859,157,210.859Zm0,7.559c.963,0,1.514-.788,1.514-3.028,0-1.878-.413-3.029-1.514-3.029s-1.515,1.152-1.515,3.029C155.484,217.631,156.034,218.419,157,218.419Zm0,0" transform="translate(-145.458 -183.402)" fill="#607882"/>
        <path id="Trazado_824083" data-name="Trazado 824083" d="M192.557,214.063h-1.615c-.414,0-.638-.15-.638-.663,0-.464.25-.589.9-.714l.463-.1c1.389-.3,1-1.727,2.065-1.727.4,0,.726.175.726.851v7.109c0,.651-.251,1.1-.951,1.1s-.951-.451-.951-1.1Zm0,0" transform="translate(-172.543 -183.402)" fill="#607882"/>
        <path id="Trazado_824084" data-name="Trazado 824084" d="M225.064,210.859c2.027,0,3.342,1.465,3.342,4.418,0,2.216-.7,4.644-3.342,4.644s-3.341-2.428-3.341-4.644C221.723,212.324,223.037,210.859,225.064,210.859Zm0,7.559c.964,0,1.515-.788,1.515-3.028,0-1.878-.413-3.029-1.515-3.029s-1.515,1.152-1.515,3.029C223.549,217.631,224.1,218.419,225.064,218.419Zm0,0" transform="translate(-195.763 -183.402)" fill="#607882"/>
        <path id="Trazado_824085" data-name="Trazado 824085" d="M264.013,210.859c2.027,0,3.341,1.465,3.341,4.418,0,2.216-.7,4.644-3.341,4.644s-3.341-2.428-3.341-4.644C260.672,212.324,261.986,210.859,264.013,210.859Zm0,7.559c.964,0,1.515-.788,1.515-3.028,0-1.878-.413-3.029-1.515-3.029s-1.515,1.152-1.515,3.029C262.5,217.631,263.049,218.419,264.013,218.419Zm0,0" transform="translate(-224.549 -183.402)" fill="#607882"/>
        <path id="Trazado_824086" data-name="Trazado 824086" d="M299.569,214.063h-1.615c-.413,0-.638-.15-.638-.663,0-.464.251-.589.9-.714l.464-.1c1.388-.3,1-1.727,2.065-1.727.4,0,.726.175.726.851v7.109c0,.651-.251,1.1-.952,1.1s-.951-.451-.951-1.1Zm0,0" transform="translate(-251.631 -183.402)" fill="#607882"/>
        <path id="Trazado_824087" data-name="Trazado 824087" d="M332.077,210.859c2.027,0,3.341,1.465,3.341,4.418,0,2.216-.7,4.644-3.341,4.644s-3.342-2.428-3.342-4.644C328.734,212.324,330.048,210.859,332.077,210.859Zm0,7.559c.963,0,1.515-.788,1.515-3.028,0-1.878-.414-3.029-1.515-3.029s-1.515,1.152-1.515,3.029C330.562,217.631,331.112,218.419,332.077,218.419Zm0,0" transform="translate(-274.851 -183.402)" fill="#607882"/>
        <path id="Trazado_824088" data-name="Trazado 824088" d="M371.025,210.859c2.028,0,3.342,1.465,3.342,4.418,0,2.216-.7,4.644-3.342,4.644s-3.341-2.428-3.341-4.644C367.684,212.324,369,210.859,371.025,210.859Zm0,7.559c.964,0,1.515-.788,1.515-3.028,0-1.878-.413-3.029-1.515-3.029s-1.514,1.152-1.514,3.029C369.511,217.631,370.062,218.419,371.025,218.419Zm0,0" transform="translate(-303.637 -183.402)" fill="#607882"/>
      </g>
      <path id="Trazado_824089" data-name="Trazado 824089" d="M158.445,99.515a4.335,4.335,0,0,0,4.33-4.33v-56a4.335,4.335,0,0,0-4.33-4.33H62.713a4.335,4.335,0,0,0-4.33,4.33v56a4.334,4.334,0,0,0,4.33,4.33Zm-96.189-4.33V49.93h68a1.937,1.937,0,1,0,0-3.873h-68V39.182a.457.457,0,0,1,.457-.457h95.733a.457.457,0,0,1,.457.457v6.875H139.469a1.937,1.937,0,0,0,0,3.873H158.9V95.185a.458.458,0,0,1-.457.458H62.713A.458.458,0,0,1,62.256,95.185Zm0,0" transform="translate(-43.148 -25.757)"/>
      <path id="Trazado_824090" data-name="Trazado 824090" d="M130.419,78.757h-1.7V9.595A9.605,9.605,0,0,0,119.126,0H15.735A9.542,9.542,0,0,0,7.576,4.543a1.937,1.937,0,1,0,3.291,2.042,5.692,5.692,0,0,1,4.867-2.711H119.126a5.729,5.729,0,0,1,5.722,5.721V78.757h-.562a1.936,1.936,0,0,0,0,3.872h5.441v.789a8.917,8.917,0,0,1-8.908,8.908H12.781a8.917,8.917,0,0,1-8.908-8.908v-.786l111.52.382h.006a1.937,1.937,0,0,0,.007-3.873L10.013,78.781V14.291a1.937,1.937,0,0,0-3.873,0V78.767l-2.957-.01A3.185,3.185,0,0,0,0,81.939v1.479A12.8,12.8,0,0,0,12.781,96.2h108.04A12.8,12.8,0,0,0,133.6,83.418V81.939A3.185,3.185,0,0,0,130.419,78.757Zm0,0"/>
      <path id="Trazado_824091" data-name="Trazado 824091" d="M122.876,108.837h1.615v4.756c0,.65.251,1.1.951,1.1s.951-.451.951-1.1v-7.11c0-.676-.325-.851-.726-.851-1.063,0-.676,1.427-2.065,1.728l-.463.1c-.651.125-.9.251-.9.714C122.238,108.687,122.464,108.837,122.876,108.837Zm0,0" transform="translate(-90.341 -78.069)"/>
      <path id="Trazado_824092" data-name="Trazado 824092" d="M157,114.694c2.64,0,3.341-2.428,3.341-4.644,0-2.953-1.314-4.418-3.341-4.418s-3.342,1.465-3.342,4.418C153.656,112.266,154.358,114.694,157,114.694Zm0-7.559c1.1,0,1.514,1.151,1.514,3.028,0,2.24-.55,3.029-1.514,3.029s-1.515-.789-1.515-3.029C155.484,108.286,155.9,107.135,157,107.135Zm0,0" transform="translate(-113.561 -78.069)"/>
      <path id="Trazado_824093" data-name="Trazado 824093" d="M195.947,114.694c2.641,0,3.342-2.428,3.342-4.644,0-2.953-1.314-4.418-3.342-4.418s-3.341,1.465-3.341,4.418C192.605,112.266,193.307,114.694,195.947,114.694Zm0-7.559c1.1,0,1.515,1.151,1.515,3.028,0,2.24-.55,3.029-1.515,3.029s-1.514-.789-1.514-3.029C194.433,108.286,194.846,107.135,195.947,107.135Zm0,0" transform="translate(-142.347 -78.069)"/>
      <path id="Trazado_824094" data-name="Trazado 824094" d="M229.892,108.837h1.615v4.756c0,.65.25,1.1.951,1.1s.951-.451.951-1.1v-7.11c0-.676-.325-.851-.726-.851-1.064,0-.676,1.427-2.065,1.728l-.463.1c-.651.125-.9.251-.9.714C229.254,108.687,229.479,108.837,229.892,108.837Zm0,0" transform="translate(-169.432 -78.069)"/>
      <path id="Trazado_824095" data-name="Trazado 824095" d="M264.013,114.694c2.641,0,3.341-2.428,3.341-4.644,0-2.953-1.314-4.418-3.341-4.418s-3.341,1.465-3.341,4.418C260.672,112.266,261.372,114.694,264.013,114.694Zm0-7.559c1.1,0,1.515,1.151,1.515,3.028,0,2.24-.55,3.029-1.515,3.029s-1.515-.789-1.515-3.029C262.5,108.286,262.912,107.135,264.013,107.135Zm0,0" transform="translate(-192.652 -78.069)"/>
      <path id="Trazado_824096" data-name="Trazado 824096" d="M297.954,108.837h1.615v4.756c0,.65.251,1.1.952,1.1s.951-.451.951-1.1v-7.11c0-.676-.326-.851-.726-.851-1.064,0-.677,1.427-2.065,1.728l-.464.1c-.65.125-.9.251-.9.714C297.316,108.687,297.542,108.837,297.954,108.837Zm0,0" transform="translate(-219.734 -78.069)"/>
      <path id="Trazado_824097" data-name="Trazado 824097" d="M332.077,114.694c2.64,0,3.341-2.428,3.341-4.644,0-2.953-1.314-4.418-3.341-4.418s-3.342,1.465-3.342,4.418C328.734,112.266,329.436,114.694,332.077,114.694Zm0-7.559c1.1,0,1.515,1.151,1.515,3.028,0,2.24-.551,3.029-1.515,3.029s-1.515-.789-1.515-3.029C330.562,108.286,330.975,107.135,332.077,107.135Zm0,0" transform="translate(-242.954 -78.069)"/>
      <path id="Trazado_824098" data-name="Trazado 824098" d="M371.025,114.694c2.641,0,3.342-2.428,3.342-4.644,0-2.953-1.314-4.418-3.342-4.418s-3.341,1.465-3.341,4.418C367.684,112.266,368.385,114.694,371.025,114.694Zm0-7.559c1.1,0,1.515,1.151,1.515,3.028,0,2.24-.55,3.029-1.515,3.029s-1.514-.789-1.514-3.029C369.511,108.286,369.924,107.135,371.025,107.135Zm0,0" transform="translate(-271.74 -78.069)"/>
      <path id="Trazado_824099" data-name="Trazado 824099" d="M124.539,162.665c0,2.215.7,4.643,3.342,4.643s3.341-2.428,3.341-4.643c0-2.954-1.314-4.419-3.341-4.419S124.539,159.711,124.539,162.665Zm4.857.112c0,2.24-.551,3.028-1.515,3.028s-1.515-.788-1.515-3.028c0-1.878.413-3.029,1.515-3.029S129.4,160.9,129.4,162.777Zm0,0" transform="translate(-92.042 -116.953)"/>
      <path id="Trazado_824100" data-name="Trazado 824100" d="M164.391,167.308c.7,0,.952-.451.952-1.1V159.1c0-.676-.326-.851-.727-.851-1.063,0-.676,1.427-2.065,1.727l-.463.1c-.65.125-.9.251-.9.714,0,.513.225.663.638.663h1.615v4.756C163.44,166.857,163.691,167.308,164.391,167.308Zm0,0" transform="translate(-119.127 -116.953)"/>
      <path id="Trazado_824101" data-name="Trazado 824101" d="M195.947,167.308c2.641,0,3.342-2.428,3.342-4.643,0-2.954-1.314-4.419-3.342-4.419s-3.341,1.465-3.341,4.419C192.605,164.88,193.307,167.308,195.947,167.308Zm0-7.559c1.1,0,1.515,1.151,1.515,3.028,0,2.24-.55,3.029-1.515,3.029s-1.514-.789-1.514-3.029C194.433,160.9,194.846,159.749,195.947,159.749Zm0,0" transform="translate(-142.347 -116.953)"/>
      <path id="Trazado_824102" data-name="Trazado 824102" d="M229.892,161.451h1.615v4.756c0,.65.25,1.1.951,1.1s.951-.451.951-1.1V159.1c0-.676-.325-.851-.726-.851-1.064,0-.676,1.427-2.065,1.727l-.463.1c-.651.125-.9.251-.9.714C229.254,161.3,229.479,161.451,229.892,161.451Zm0,0" transform="translate(-169.432 -116.953)"/>
      <path id="Trazado_824103" data-name="Trazado 824103" d="M264.013,167.308c2.641,0,3.341-2.428,3.341-4.643,0-2.954-1.314-4.419-3.341-4.419s-3.341,1.465-3.341,4.419C260.672,164.88,261.372,167.308,264.013,167.308Zm0-7.559c1.1,0,1.515,1.151,1.515,3.028,0,2.24-.55,3.029-1.515,3.029s-1.515-.789-1.515-3.029C262.5,160.9,262.912,159.749,264.013,159.749Zm0,0" transform="translate(-192.652 -116.953)"/>
      <path id="Trazado_824104" data-name="Trazado 824104" d="M299.617,162.665c0,2.215.7,4.643,3.342,4.643s3.341-2.428,3.341-4.643c0-2.954-1.314-4.419-3.341-4.419S299.617,159.711,299.617,162.665Zm4.857.112c0,2.24-.551,3.028-1.515,3.028s-1.515-.788-1.515-3.028c0-1.878.413-3.029,1.515-3.029S304.474,160.9,304.474,162.777Zm0,0" transform="translate(-221.435 -116.953)"/>
      <path id="Trazado_824105" data-name="Trazado 824105" d="M338.566,162.665c0,2.215.7,4.643,3.342,4.643s3.341-2.428,3.341-4.643c0-2.954-1.314-4.419-3.341-4.419S338.566,159.711,338.566,162.665Zm4.857.112c0,2.24-.551,3.028-1.515,3.028s-1.515-.788-1.515-3.028c0-1.878.413-3.029,1.515-3.029S343.423,160.9,343.423,162.777Zm0,0" transform="translate(-250.221 -116.953)"/>
      <path id="Trazado_824106" data-name="Trazado 824106" d="M378.418,167.308c.7,0,.951-.451.951-1.1V159.1c0-.676-.325-.851-.726-.851-1.064,0-.676,1.427-2.065,1.727l-.463.1c-.651.125-.9.251-.9.714,0,.513.225.663.638.663h1.615v4.756C377.467,166.857,377.718,167.308,378.418,167.308Zm0,0" transform="translate(-277.306 -116.953)"/>
      <path id="Trazado_824107" data-name="Trazado 824107" d="M122.876,214.063h1.615v4.756c0,.651.251,1.1.951,1.1s.951-.451.951-1.1V211.71c0-.676-.325-.851-.726-.851-1.063,0-.676,1.427-2.065,1.727l-.463.1c-.651.125-.9.25-.9.714C122.238,213.913,122.464,214.063,122.876,214.063Zm0,0" transform="translate(-90.341 -155.838)"/>
      <path id="Trazado_824108" data-name="Trazado 824108" d="M157,219.921c2.64,0,3.341-2.428,3.341-4.644,0-2.953-1.314-4.418-3.341-4.418s-3.342,1.465-3.342,4.418C153.656,217.493,154.358,219.921,157,219.921Zm0-7.56c1.1,0,1.514,1.152,1.514,3.029,0,2.24-.55,3.029-1.514,3.029s-1.515-.789-1.515-3.029C155.484,213.513,155.9,212.361,157,212.361Zm0,0" transform="translate(-113.561 -155.838)"/>
      <path id="Trazado_824109" data-name="Trazado 824109" d="M190.943,214.063h1.615v4.756c0,.651.251,1.1.951,1.1s.952-.451.952-1.1V211.71c0-.676-.326-.851-.727-.851-1.063,0-.676,1.427-2.065,1.727l-.463.1c-.65.125-.9.25-.9.714C190.3,213.913,190.53,214.063,190.943,214.063Zm0,0" transform="translate(-140.646 -155.838)"/>
      <path id="Trazado_824110" data-name="Trazado 824110" d="M225.064,219.921c2.641,0,3.342-2.428,3.342-4.644,0-2.953-1.315-4.418-3.342-4.418s-3.341,1.465-3.341,4.418C221.723,217.493,222.423,219.921,225.064,219.921Zm0-7.56c1.1,0,1.515,1.152,1.515,3.029,0,2.24-.55,3.029-1.515,3.029s-1.515-.789-1.515-3.029C223.549,213.513,223.963,212.361,225.064,212.361Zm0,0" transform="translate(-163.866 -155.838)"/>
      <path id="Trazado_824111" data-name="Trazado 824111" d="M264.013,219.921c2.641,0,3.341-2.428,3.341-4.644,0-2.953-1.314-4.418-3.341-4.418s-3.341,1.465-3.341,4.418C260.672,217.493,261.372,219.921,264.013,219.921Zm0-7.56c1.1,0,1.515,1.152,1.515,3.029,0,2.24-.55,3.029-1.515,3.029s-1.515-.789-1.515-3.029C262.5,213.513,262.912,212.361,264.013,212.361Zm0,0" transform="translate(-192.652 -155.838)"/>
      <path id="Trazado_824112" data-name="Trazado 824112" d="M297.954,214.063h1.615v4.756c0,.651.251,1.1.952,1.1s.951-.451.951-1.1V211.71c0-.676-.326-.851-.726-.851-1.064,0-.677,1.427-2.065,1.727l-.464.1c-.65.125-.9.25-.9.714C297.316,213.913,297.542,214.063,297.954,214.063Zm0,0" transform="translate(-219.734 -155.838)"/>
      <path id="Trazado_824113" data-name="Trazado 824113" d="M332.077,219.921c2.64,0,3.341-2.428,3.341-4.644,0-2.953-1.314-4.418-3.341-4.418s-3.342,1.465-3.342,4.418C328.734,217.493,329.436,219.921,332.077,219.921Zm0-7.56c1.1,0,1.515,1.152,1.515,3.029,0,2.24-.551,3.029-1.515,3.029s-1.515-.789-1.515-3.029C330.562,213.513,330.975,212.361,332.077,212.361Zm0,0" transform="translate(-242.954 -155.838)"/>
      <path id="Trazado_824114" data-name="Trazado 824114" d="M371.025,219.921c2.641,0,3.342-2.428,3.342-4.644,0-2.953-1.314-4.418-3.342-4.418s-3.341,1.465-3.341,4.418C367.684,217.493,368.385,219.921,371.025,219.921Zm0-7.56c1.1,0,1.515,1.152,1.515,3.029,0,2.24-.55,3.029-1.515,3.029s-1.514-.789-1.514-3.029C369.511,213.513,369.924,212.361,371.025,212.361Zm0,0" transform="translate(-271.74 -155.838)"/>
    </g>
    <g id="algoritmos" transform="translate(1251.78 6263.999)">
      <path id="Trazado_824115" data-name="Trazado 824115" d="M85.9,161.217v-16.2a14.65,14.65,0,0,1,1.616-6.649c3.76-7.382,7.862-22.146,8.163-29.776,1.192-30.137-18.417-45.711-41.842-45.711-19.235,0-35.473,8.118-34.408,35.438.122,3.123-3.737,11.422-13.292,29.065-.514.95.432,2.073,1.529,2.073H19.335c.276,11.128-2.688,20.189,19.109,17.264v14.495" transform="translate(-4.799 -50.391)" fill="#3f8fd5"/>
      <path id="Trazado_824116" data-name="Trazado 824116" d="M82.3,156.407H79.914v-16.2a15.925,15.925,0,0,1,1.746-7.19c3.763-7.388,7.743-21.892,8.035-29.282.534-13.5-3.207-24.817-10.819-32.735C71.6,63.431,61.005,59.262,49.042,59.262c-11.462,0-20.086,2.925-25.635,8.694-5.47,5.687-8.021,14.268-7.582,25.506.131,3.355-3.385,11.122-13.435,29.68a.545.545,0,0,0,.481.314H15.7l.029,1.162c.033,1.32.02,2.6.009,3.839-.045,4.789-.081,8.571,2.332,10.7s7.452,2.642,15.418,1.572l1.351-.181v15.857H32.453V143.262c-8.029.937-13.12.193-15.963-2.318-3.229-2.851-3.186-7.327-3.138-12.511.008-.848.016-1.715.01-2.6H2.872a2.965,2.965,0,0,1-2.5-1.423,2.42,2.42,0,0,1-.075-2.41C7.2,109.251,13.577,96.975,13.444,93.555c-.465-11.91,2.31-21.078,8.246-27.25,6.015-6.254,15.218-9.425,27.353-9.425,12.616,0,23.821,4.428,31.55,12.469,8.071,8.4,12.042,20.32,11.482,34.48-.3,7.654-4.409,22.647-8.293,30.269a13.534,13.534,0,0,0-1.486,6.108Z" transform="translate(0 -45.581)"/>
      <path id="Trazado_824117" data-name="Trazado 824117" d="M134.812,111.556H90.252c-6.562,0-13.048-5.415-14.162-11.881C71.8,74.791,88.831,62.608,104.548,62.608l4.926.054c17.833,0,40.938,14.4,40.938,32.236v1.059a15.6,15.6,0,0,1-15.6,15.6Z" transform="translate(-60.431 -50.172)" fill="#fdc00f"/>
      <path id="Trazado_824118" data-name="Trazado 824118" d="M130,107.94H85.437A16.246,16.246,0,0,1,70.1,95.07c-2.434-14.12,2.019-22.978,6.184-27.923A30.845,30.845,0,0,1,99.733,56.609l4.939.054c9.126,0,19.54,3.611,27.845,9.659a39.243,39.243,0,0,1,10.2,10.571,24.47,24.47,0,0,1,4.074,13.2V91.15A16.81,16.81,0,0,1,130,107.94ZM99.72,58.992a28.428,28.428,0,0,0-21.612,9.69C72.6,75.218,70.645,84.2,72.449,94.665a13.826,13.826,0,0,0,12.988,10.892H130A14.423,14.423,0,0,0,144.405,91.15V90.091c0-7.843-4.72-15.6-13.291-21.842-7.912-5.762-17.8-9.2-26.455-9.2Z" transform="translate(-55.616 -45.365)"/>
      <path id="Trazado_824119" data-name="Trazado 824119" d="M193.994,239.168H170.067a9.4,9.4,0,0,1,0-18.807h18v2.383h-18a7.02,7.02,0,0,0,0,14.04h23.927Z" transform="translate(-128.745 -176.593)"/>
      <rect id="Rectángulo_382923" data-name="Rectángulo 382923" width="17.417" height="2.383" transform="translate(42.211 51.98)"/>
      <path id="Trazado_824120" data-name="Trazado 824120" d="M121.715,145.059a7.724,7.724,0,0,1,8.938-9.618l-.46,2.339a5.341,5.341,0,0,0-6.18,6.649Z" transform="translate(-97.313 -108.423)"/>
      <path id="Trazado_824121" data-name="Trazado 824121" d="M343.188,261.656a7.725,7.725,0,0,1-1.6-13.033l1.492,1.859a5.341,5.341,0,0,0,1.1,9.01Z" transform="translate(-271.425 -199.241)"/>
      <path id="Trazado_824122" data-name="Trazado 824122" d="M97.152,136.6a5.21,5.21,0,0,0-7.132-1.847L88.811,132.7a7.593,7.593,0,0,1,10.4,2.693Z" transform="translate(-71.164 -105.503)"/>
      <path id="Trazado_824123" data-name="Trazado 824123" d="M212.971,101.934a5.341,5.341,0,0,0-9.066-.457l-1.961-1.355a7.725,7.725,0,0,1,13.113.661Z" transform="translate(-161.827 -77.568)"/>
      <path id="Trazado_824124" data-name="Trazado 824124" d="M217.874,66.646l-2.247-.8a5.21,5.21,0,0,0-3.171-6.651l.8-2.246a7.593,7.593,0,0,1,4.622,9.693Z" transform="translate(-170.251 -45.64)"/>
      <path id="Trazado_824125" data-name="Trazado 824125" d="M104.882,215.686a7.724,7.724,0,0,1,5.854-11.753l.218,2.373a5.341,5.341,0,0,0-4.046,8.125Z" transform="translate(-83.119 -163.427)"/>
      <path id="Trazado_824126" data-name="Trazado 824126" d="M172.317,165.228a7.691,7.691,0,0,1-3.977-1.1l1.231-2.041a5.341,5.341,0,0,0,8.076-4.143l2.376.192a7.721,7.721,0,0,1-7.706,7.1Z" transform="translate(-134.897 -126.569)"/>
      <path id="Trazado_824127" data-name="Trazado 824127" d="M312.5,28.733l-.477-.056-4.524-.528a21.486,21.486,0,0,0-1.314-4.335l3.473-2.947.368-.312a26.07,26.07,0,0,0-2.684-4.324l-.444.189-4.181,1.8a20.1,20.1,0,0,0-3.307-3.085l1.528-4.3.161-.454q-1.041-.7-2.163-1.3-1.141-.608-2.316-1.092l-.289.388-2.73,3.661a21.459,21.459,0,0,0-4.4-1.041l-.814-4.469-.086-.474a26.121,26.121,0,0,0-5.1.175l-.056.478-.521,4.519a20.666,20.666,0,0,0-4.34,1.311l-2.942-3.464-.312-.368a26.285,26.285,0,0,0-4.333,2.684l.192.444,1.8,4.158a21.476,21.476,0,0,0-3.087,3.32l-4.292-1.529-.455-.161c-.468.7-.9,1.426-1.312,2.185a24.655,24.655,0,0,0-1.1,2.3l.386.287,3.669,2.725a22.361,22.361,0,0,0-.659,2.258,21.7,21.7,0,0,0-.368,2.142l-4.483.825-.472.086a25.964,25.964,0,0,0,.17,5.08l.478.056,4.52.532A21.354,21.354,0,0,0,267,40.43l-3.464,2.941-.366.312a26.025,26.025,0,0,0,2.689,4.328l.44-.19,4.171-1.8a22.261,22.261,0,0,0,3.3,3.083l-1.525,4.281-.161.454q1.053.7,2.189,1.31t2.31,1.094l.287-.386,2.708-3.639a21.6,21.6,0,0,0,4.4,1.028l.825,4.473.088.472a25.78,25.78,0,0,0,5.078-.166l.056-.477.536-4.524a22.23,22.23,0,0,0,4.33-1.3l2.949,3.464a25.2,25.2,0,0,0,4.445-2.758l-1.807-4.186a20.651,20.651,0,0,0,3.1-3.307l4.287,1.523.455.161q.7-1.053,1.31-2.2c.4-.752.758-1.519,1.079-2.294l-.385-.286-3.629-2.71a21.584,21.584,0,0,0,.64-2.232c.17-.724.291-1.454.39-2.178l4.469-.819.47-.086A25.842,25.842,0,0,0,312.5,28.733Z" transform="translate(-208.725 -4.804)" fill="#d22732"/>
      <path id="Trazado_824128" data-name="Trazado 824128" d="M281.787,54.636q-.89,0-1.778-.058a1.192,1.192,0,0,1-1.092-.97l-.759-4.108a22.848,22.848,0,0,1-2.94-.685l-2.483,3.337a1.192,1.192,0,0,1-1.413.39c-.806-.334-1.618-.719-2.415-1.144-.777-.415-1.547-.875-2.288-1.369a1.192,1.192,0,0,1-.462-1.39l1.4-3.93a23.517,23.517,0,0,1-2.2-2.057l-3.829,1.65a1.192,1.192,0,0,1-1.418-.369A27.281,27.281,0,0,1,257.3,39.4a1.192,1.192,0,0,1,.3-1.434l3.18-2.7a22.672,22.672,0,0,1-.88-2.9l-4.146-.488a1.192,1.192,0,0,1-1.043-1.027,27.233,27.233,0,0,1-.179-5.313,1.192,1.192,0,0,1,.975-1.1l4.108-.755c.073-.449.161-.912.266-1.382.119-.512.258-1.025.423-1.556l-3.365-2.5a1.192,1.192,0,0,1-.39-1.413,26.02,26.02,0,0,1,1.152-2.412c.416-.775.877-1.542,1.369-2.279a1.192,1.192,0,0,1,1.39-.461l3.935,1.4a22.81,22.81,0,0,1,2.067-2.216L264.8,7.052a1.192,1.192,0,0,1,.37-1.42A27.552,27.552,0,0,1,269.7,2.826a1.192,1.192,0,0,1,1.436.3l2.7,3.177a21.915,21.915,0,0,1,2.9-.878l.479-4.142A1.192,1.192,0,0,1,278.243.238,27.39,27.39,0,0,1,283.57.056a1.192,1.192,0,0,1,1.1.976l.748,4.1a22.788,22.788,0,0,1,2.936.693l2.5-3.359a1.192,1.192,0,0,1,1.412-.39c.821.339,1.635.724,2.421,1.142.764.411,1.524.868,2.264,1.362a1.192,1.192,0,0,1,.461,1.39l-1.4,3.945a21.425,21.425,0,0,1,2.212,2.066l3.841-1.653a1.192,1.192,0,0,1,1.414.371,27.32,27.32,0,0,1,2.807,4.522,1.192,1.192,0,0,1-.3,1.436l-3.187,2.7a22.619,22.619,0,0,1,.878,2.9l4.151.485a1.192,1.192,0,0,1,1.042,1.029,27.094,27.094,0,0,1,.171,5.319,1.192,1.192,0,0,1-.973,1.092l-4.1.751c-.085.52-.178.988-.282,1.432-.123.529-.256,1.031-.4,1.515l3.329,2.484A1.192,1.192,0,0,1,307,37.78c-.346.835-.726,1.643-1.129,2.4-.418.788-.88,1.562-1.37,2.3a1.192,1.192,0,0,1-1.392.462l-3.93-1.4a22.017,22.017,0,0,1-2.076,2.21l1.468,3.4a1.192,1.192,0,0,1-.364,1.414,26.441,26.441,0,0,1-4.655,2.888,1.192,1.192,0,0,1-1.427-.3l-2.4-2.817a23.627,23.627,0,0,1-2.891.874l-.492,4.15a1.192,1.192,0,0,1-1.027,1.042A26.981,26.981,0,0,1,281.787,54.636Zm-.7-2.393a24.864,24.864,0,0,0,3.006-.1l.482-4.063a1.192,1.192,0,0,1,.963-1.031,21.145,21.145,0,0,0,4.1-1.235,1.192,1.192,0,0,1,1.36.33l2.34,2.748a24.066,24.066,0,0,0,2.679-1.662l-1.434-3.321a1.192,1.192,0,0,1,.315-1.374,19.528,19.528,0,0,0,2.92-3.115,1.192,1.192,0,0,1,1.356-.413l3.849,1.367c.263-.43.515-.87.751-1.316s.451-.881.662-1.344l-3.259-2.433a1.192,1.192,0,0,1-.412-1.347,20.294,20.294,0,0,0,.6-2.109c.142-.6.259-1.26.37-2.07a1.192,1.192,0,0,1,.966-1.011l4.008-.735a24.8,24.8,0,0,0-.1-3.009l-4.06-.473a1.192,1.192,0,0,1-1.033-.96,20.21,20.21,0,0,0-1.241-4.093A1.192,1.192,0,0,1,300.6,18.1l3.118-2.647a25,25,0,0,0-1.589-2.561l-3.754,1.618A1.192,1.192,0,0,1,297,14.194a19,19,0,0,0-3.111-2.9,1.192,1.192,0,0,1-.416-1.357l1.373-3.869c-.427-.264-.857-.512-1.288-.743s-.9-.461-1.361-.672L289.749,7.94a1.192,1.192,0,0,1-1.351.412,20.347,20.347,0,0,0-4.155-.982,1.192,1.192,0,0,1-1.02-.968l-.73-4.008a25.092,25.092,0,0,0-3.019.1l-.468,4.056a1.192,1.192,0,0,1-.966,1.035,19.449,19.449,0,0,0-4.09,1.236,1.192,1.192,0,0,1-1.377-.325l-2.64-3.111a25.284,25.284,0,0,0-2.567,1.589l1.614,3.73a1.192,1.192,0,0,1-.307,1.368,20.354,20.354,0,0,0-2.917,3.135,1.19,1.19,0,0,1-1.357.413l-3.854-1.374c-.265.43-.516.867-.755,1.308s-.467.9-.675,1.347l3.293,2.446a1.192,1.192,0,0,1,.416,1.346,21.2,21.2,0,0,0-.625,2.138c-.153.693-.271,1.374-.346,2.011a1.192,1.192,0,0,1-.968,1.033l-4.024.741a24.914,24.914,0,0,0,.1,3.006l4.06.478a1.192,1.192,0,0,1,1.033.965,20.249,20.249,0,0,0,1.24,4.1,1.192,1.192,0,0,1-.328,1.369l-3.109,2.638a24.934,24.934,0,0,0,1.593,2.565l3.741-1.614a1.192,1.192,0,0,1,1.369.31,21.067,21.067,0,0,0,3.125,2.918,1.192,1.192,0,0,1,.4,1.351l-1.369,3.842c.431.265.869.516,1.31.752s.9.466,1.357.675l2.43-3.264a1.192,1.192,0,0,1,1.351-.413,20.44,20.44,0,0,0,4.158.97,1.192,1.192,0,0,1,1.021.966Z" transform="translate(-203.919 0)"/>
      <path id="Trazado_824129" data-name="Trazado 824129" d="M339.889,65.625a14.658,14.658,0,0,0-19.8,6,13.966,13.966,0,0,0-1.362,3.646,14.622,14.622,0,0,0,27.153,10.137,15,15,0,0,0,1.351-3.6A14.628,14.628,0,0,0,339.889,65.625Z" transform="translate(-255.118 -51.208)" fill="#b22732"/>
      <path id="Trazado_824130" data-name="Trazado 824130" d="M328.191,89.583a15.841,15.841,0,0,1-15.413-19.336,15.133,15.133,0,0,1,1.475-3.947,15.885,15.885,0,0,1,21.413-6.486l.005,0A15.848,15.848,0,0,1,343.6,77.324a16.154,16.154,0,0,1-1.457,3.883,15.677,15.677,0,0,1-9.338,7.685A15.858,15.858,0,0,1,328.191,89.583Zm.054-29.239a13.491,13.491,0,0,0-11.894,7.087,12.778,12.778,0,0,0-1.247,3.337,13.429,13.429,0,0,0,24.937,9.322,13.758,13.758,0,0,0,1.241-3.307,13.388,13.388,0,0,0-13.037-16.439Z" transform="translate(-250.335 -46.449)"/>
      <path id="Trazado_824131" data-name="Trazado 824131" d="M372.534,110.669a5.472,5.472,0,0,0-7.393,2.24,5.213,5.213,0,0,0-.508,1.361,5.459,5.459,0,0,0,10.137,3.784,5.6,5.6,0,0,0,.5-1.342A5.46,5.46,0,0,0,372.534,110.669Z" transform="translate(-292.093 -88.172)" fill="#d1d3d4"/>
      <path id="Trazado_824132" data-name="Trazado 824132" d="M365.152,117.346a6.661,6.661,0,0,1-6.481-8.131,6.384,6.384,0,0,1,.622-1.662,6.678,6.678,0,0,1,9-2.726l.005,0a6.664,6.664,0,0,1,3.335,7.363,6.771,6.771,0,0,1-.611,1.629,6.594,6.594,0,0,1-3.929,3.234A6.663,6.663,0,0,1,365.152,117.346Zm.02-10.916a4.288,4.288,0,0,0-3.78,2.253,4.019,4.019,0,0,0-.394,1.053,4.27,4.27,0,0,0,5.4,5.04,4.225,4.225,0,0,0,2.517-2.072,4.377,4.377,0,0,0,.4-1.053,4.252,4.252,0,0,0-4.141-5.221Z" transform="translate(-287.293 -83.382)"/>
    </g>
    <g id="Enmascarar_grupo_154" data-name="Enmascarar grupo 154" clip-path="url(#clip-path)">
      <g id="Grupo_1073705" data-name="Grupo 1073705" transform="translate(1357.349 6293.368)">
        <path id="Trazado_819307" data-name="Trazado 819307" d="M110.81,26.19,91.987,6.02,74.266,25.01,56.445,5.913,37.822,25.868,19.4,6.128,2.759,23.96,0,21,19.4.215,37.822,19.954,56.445,0,74.266,19.1,91.987.107l18.823,20.17L128.452,1.371l2.76,2.955Z" transform="translate(0 0)" fill="#3a1d71"/>
        <path id="Trazado_819308" data-name="Trazado 819308" d="M110.81,42.985,91.987,22.816,74.266,41.8l-17.822-19.1L37.822,42.664,19.4,22.923,2.759,40.757,0,37.8,19.4,17.01,37.822,36.751,56.445,16.8l17.822,19.1L91.987,16.9,110.81,37.072l17.643-18.906,2.76,2.955Z" transform="translate(0 3.589)" fill="#3a1d71"/>
        <path id="Trazado_819309" data-name="Trazado 819309" d="M110.81,59.78,91.987,39.611,74.266,58.6,56.445,39.5,37.822,59.459,19.4,39.718,2.759,57.552,0,54.594,19.4,33.805,37.822,53.546,56.445,33.59l17.822,19.1L91.987,33.7,110.81,53.867l17.643-18.905,2.76,2.957Z" transform="translate(0 7.178)" fill="#3a1d71"/>
        <path id="Trazado_819310" data-name="Trazado 819310" d="M110.81,76.577,91.987,56.406,74.266,75.4,56.445,56.3,37.822,76.255,19.4,56.513,2.759,74.347,0,71.39,19.4,50.6,37.822,70.342,56.445,50.387l17.822,19.1,17.721-18.99,18.823,20.17,17.643-18.907,2.76,2.957Z" transform="translate(0 10.767)" fill="#3a1d71"/>
        <path id="Trazado_819311" data-name="Trazado 819311" d="M110.81,93.372,91.987,73.2,74.266,92.191l-17.822-19.1L37.822,93.05,19.4,73.31,2.759,91.143,0,88.187,19.4,67.4l18.422,19.74L56.445,67.182l17.822,19.1L91.987,67.29,110.81,87.46l17.643-18.907,2.76,2.957Z" transform="translate(0 14.355)" fill="#3a1d71"/>
        <path id="Trazado_819312" data-name="Trazado 819312" d="M110.81,110.167,91.987,90,74.266,108.987l-17.822-19.1L37.822,109.845,19.4,90.1,2.759,107.939,0,104.981,19.4,84.192l18.422,19.741L56.445,83.977l17.822,19.1L91.987,84.085l18.823,20.169,17.643-18.905,2.76,2.957Z" transform="translate(0 17.944)" fill="#3a1d71"/>
      </g>
      <g id="Grupo_1073706" data-name="Grupo 1073706" transform="translate(871.114 6249.521)">
        <path id="Trazado_819307-2" data-name="Trazado 819307" d="M65.6,15.505,54.46,3.564,43.969,14.807,33.418,3.5,22.392,15.315,11.486,3.628,1.634,14.185,0,12.435,11.486.127,22.392,11.813,33.418,0,43.969,11.305,54.46.063,65.6,12,76.049.812l1.634,1.75Z" transform="translate(0 0)" fill="#3a1d71"/>
        <path id="Trazado_819308-2" data-name="Trazado 819308" d="M65.6,32.3,54.46,20.36,43.969,31.6,33.418,20.3,22.392,32.11,11.486,20.423,1.634,30.981,0,29.23,11.486,16.922,22.392,28.61,33.418,16.8,43.969,28.1,54.46,16.859,65.6,28.8,76.049,17.607l1.634,1.75Z" transform="translate(0 -4.727)" fill="#3a1d71"/>
        <path id="Trazado_819309-2" data-name="Trazado 819309" d="M65.6,49.1,54.46,37.155,43.969,48.4,33.418,37.092,22.392,48.905,11.486,37.218,1.634,47.777,0,46.026,11.486,33.718,22.392,45.4,33.418,33.59,43.969,44.9,54.46,33.654,65.6,45.6,76.049,34.4l1.634,1.75Z" transform="translate(0 -9.454)" fill="#3a1d71"/>
        <path id="Trazado_819310-2" data-name="Trazado 819310" d="M65.6,65.892,54.46,53.95,43.969,65.193,33.418,53.887,22.392,65.7,11.486,54.014,1.634,64.572,0,62.822,11.486,50.514,22.392,62.2,33.418,50.387,43.969,61.693,54.46,50.45,65.6,62.391,76.049,51.2l1.634,1.75Z" transform="translate(0 -14.182)" fill="#3a1d71"/>
        <path id="Trazado_819311-2" data-name="Trazado 819311" d="M65.6,82.687,54.46,70.746,43.969,81.988,33.418,70.682,22.392,82.5,11.486,70.81,1.634,81.368,0,79.618,11.486,67.309,22.392,79,33.418,67.182,43.969,78.488,54.46,67.246,65.6,79.187,76.049,67.994l1.634,1.75Z" transform="translate(0 -18.909)" fill="#3a1d71"/>
        <path id="Trazado_819312-2" data-name="Trazado 819312" d="M65.6,99.482,54.46,87.542,43.969,98.784,33.418,87.478,22.392,99.292,11.486,87.6,1.634,98.163,0,96.412,11.486,84.1,22.392,95.791,33.418,83.977,43.969,95.283,54.46,84.041,65.6,95.982,76.049,84.789l1.634,1.75Z" transform="translate(0 -23.636)" fill="#3a1d71"/>
      </g>
    </g>
  </g>
</svg>
