<svg xmlns="http://www.w3.org/2000/svg" xmlns:xlink="http://www.w3.org/1999/xlink" width="505" height="634.522" viewBox="0 0 505 634.522">
  <defs>
    <clipPath id="clip-path">
      <rect id="Rectángulo_382668" data-name="Rectángulo 382668" width="248.63" height="64.424" fill="none"/>
    </clipPath>
    <clipPath id="clip-path-2">
      <rect id="Rectángulo_382670" data-name="Rectángulo 382670" width="175.508" height="50.235" fill="none"/>
    </clipPath>
    <clipPath id="clip-path-3">
      <rect id="Rectángulo_382671" data-name="Rectángulo 382671" width="203.934" height="203.936" fill="none"/>
    </clipPath>
  </defs>
  <g id="Grupo_1073438" data-name="Grupo 1073438" transform="translate(-915 -5857)">
    <g id="Grupo_1073410" data-name="Grupo 1073410" transform="translate(915 5861.908)">
      <g id="Grupo_1073235" data-name="Grupo 1073235" transform="translate(0 0)">
        <rect id="Rectángulo_382613" data-name="Rectángulo 382613" width="295" height="634.302" rx="11" transform="translate(210 -4.907)" fill="#0b47db"/>
      </g>
    </g>
    <g id="Grupo_1073437" data-name="Grupo 1073437" transform="translate(926.5 6007)">
      <g id="Grupo_1074271" data-name="Grupo 1074271">
        <g id="Grupo_1073435" data-name="Grupo 1073435" transform="translate(0.001)">
          <g id="Grupo_1074272" data-name="Grupo 1074272">
            <path id="Trazado_823454" data-name="Trazado 823454" d="M33.906,174.839A174.839,174.839,0,1,0,208.745,0,174.839,174.839,0,0,0,33.906,174.839" transform="translate(-45.407 -141.308)" fill="#dcecfe"/>
            <path id="Trazado_823455" data-name="Trazado 823455" d="M141.962,1009.474H241.6l191.1-15.4,31.55,15.4H498.1V713.993H436.929c-162.906,0-294.967,132.061-294.967,294.968Z" transform="translate(-42.192 -524.952)" fill="#add3fd"/>
            <g id="Grupo_1073427" data-name="Grupo 1073427" transform="translate(19.864 405.734)" opacity="0.5">
              <g id="Grupo_1073426" data-name="Grupo 1073426">
                <g id="Grupo_1073425" data-name="Grupo 1073425" clip-path="url(#clip-path)">
                  <rect id="Rectángulo_382667" data-name="Rectángulo 382667" width="248.629" height="64.424" transform="translate(0.001 0)" fill="#fff"/>
                </g>
              </g>
            </g>
            <path id="Trazado_823456" data-name="Trazado 823456" d="M904.41,1572.05h249.158V1507.1H904.41Zm248.629-.53h-248.1v-63.9h248.1Z" transform="translate(-899.526 -1108.068)" fill="#a854f3"/>
            <path id="Trazado_823457" data-name="Trazado 823457" d="M1289.619,1605.223h73.527a.265.265,0,1,0,0-.53h-73.527a.265.265,0,1,0,0,.53" transform="translate(-1211.29 -1179.825)" fill="#a854f3"/>
            <path id="Trazado_823458" data-name="Trazado 823458" d="M1069.9,1605.223h42.137a.265.265,0,0,0,0-.53H1069.9a.265.265,0,1,0,0,.53" transform="translate(-902.011 -1179.825)" fill="#a854f3"/>
            <path id="Trazado_823459" data-name="Trazado 823459" d="M1427.746,1653.615H1464.7a.265.265,0,1,0,0-.53h-36.956a.265.265,0,1,0,0,.53" transform="translate(-1349.416 -1215.404)" fill="#a854f3"/>
            <path id="Trazado_823460" data-name="Trazado 823460" d="M1069.9,1653.615h78.708a.265.265,0,0,0,0-.53H1069.9a.265.265,0,1,0,0,.53" transform="translate(-938.582 -1215.404)" fill="#a854f3"/>
            <path id="Trazado_823461" data-name="Trazado 823461" d="M1069.9,1702.008H1177.55a.265.265,0,1,0,0-.529H1069.9a.265.265,0,1,0,0,.529" transform="translate(-967.52 -1250.985)" fill="#a854f3"/>
            <path id="Trazado_823462" data-name="Trazado 823462" d="M604.226,176.826h5.3a49.092,49.092,0,0,1,2.014-7.528l-4.591-2.651L615.93,151.1l4.6,2.657a49.676,49.676,0,0,1,5.507-5.507l-2.656-4.6,15.548-8.977,2.651,4.591a49,49,0,0,1,7.529-2.014v-5.3h17.953v5.3a49.015,49.015,0,0,1,7.529,2.014l2.65-4.591,15.548,8.977-2.656,4.6a49.666,49.666,0,0,1,5.507,5.507l4.6-2.657,8.977,15.548-4.591,2.651a49.029,49.029,0,0,1,2.014,7.528h5.3v17.953h-5.3a49.024,49.024,0,0,1-2.014,7.529l4.591,2.651-8.977,15.548-4.6-2.657a49.689,49.689,0,0,1-5.507,5.507l2.656,4.6-15.548,8.976h0l-2.65-4.591a49.02,49.02,0,0,1-7.529,2.014v5.3H649.108v-5.3a49.01,49.01,0,0,1-7.529-2.014l-2.65,4.591h0l-15.548-8.976,2.656-4.6a49.7,49.7,0,0,1-5.507-5.507l-4.6,2.657-8.977-15.548,4.591-2.651a49.086,49.086,0,0,1-2.014-7.529h-5.3Zm24.124,9.95a29.751,29.751,0,1,0,30.709-30.709,29.858,29.858,0,0,0-30.709,30.709" transform="translate(-378.423 -97.01)" fill="#fff"/>
            <path id="Trazado_823463" data-name="Trazado 823463" d="M696.6,266.325a39.54,39.54,0,0,0,5.92-78.633.265.265,0,0,0-.079.524,39.011,39.011,0,1,1-43.6,48.4.265.265,0,0,0-.513.133A39.528,39.528,0,0,0,696.6,266.325" transform="translate(-416.936 -137.995)" fill="#f2e6dc"/>
            <path id="Trazado_823464" data-name="Trazado 823464" d="M241.755,452.191S102.06,518.632,12.3,401.048c0,0,52.476-53.947,94.851-71.189s82.525,7.728,134.6,122.331" transform="translate(248.486 -238.895)" fill="#363e44"/>
            <path id="Trazado_823465" data-name="Trazado 823465" d="M319.537,1464.634l-49.715,96.736H492.47l-6.023-69.233Z" transform="translate(-70.41 -1076.849)" fill="#fff"/>
            <path id="Trazado_823466" data-name="Trazado 823466" d="M820.289,747.118s-22.913-31.484-64.3,10.477S694.7,868.938,694.7,868.938l63,24.233Z" transform="translate(-510.722 -540.97)" fill="#fff"/>
            <path id="Trazado_823467" data-name="Trazado 823467" d="M376.033,798.407C349.67,786.3,306.267,769.461,258.743,763.72l-90.795,215.7,181.93,32.595,19.468-37.516,9.578,42.721,18.481,6.289,4.937-184.009a45.2,45.2,0,0,0-26.309-41.088" transform="translate(46.69 -561.513)" fill="#3a1d71"/>
            <path id="Trazado_823468" data-name="Trazado 823468" d="M404.662,813.218s-38.069-19.869-77.161-25.141l-2.635,74.244Z" transform="translate(2.823 -579.421)" fill="#fff"/>
            <path id="Trazado_823469" data-name="Trazado 823469" d="M931.368,1128.153h98.08L985.1,994.034h-98.08Z" transform="translate(-770.802 -730.848)" fill="#363e44"/>
            <path id="Trazado_823470" data-name="Trazado 823470" d="M1276.721,1297.491c-6.976,1.969-8.931,5.5-8.092,8.948s4.156,5.491,11.132,3.522,14.969-7.208,14.129-10.652-10.194-3.787-17.169-1.818" transform="translate(-1136.294 -953.075)" fill="#e2a18d"/>
            <path id="Trazado_823471" data-name="Trazado 823471" d="M1272.88,1250.357c-8.084,2.281-10.351,6.379-9.378,10.37s4.817,6.364,12.9,4.082,17.349-8.355,16.376-12.346-11.815-4.389-19.9-2.107" transform="translate(-1133.828 -918.28)" fill="#e2a18d"/>
            <path id="Trazado_823472" data-name="Trazado 823472" d="M1309.632,1187.432c-6.975,1.969-10.292-.079-11.131-3.522s1.116-6.979,8.092-8.948,16.33-1.625,17.17,1.818-7.154,8.683-14.13,10.652" transform="translate(-1174.074 -862.988)" fill="#e2a18d"/>
            <path id="Trazado_823473" data-name="Trazado 823473" d="M1286.171,1224.74c-8.085,2.282-11.929-.091-12.9-4.082s1.293-8.089,9.378-10.37,18.927-1.884,19.9,2.107-8.292,10.064-16.377,12.345" transform="translate(-1146.182 -888.82)" fill="#e2a18d"/>
            <path id="Trazado_823474" data-name="Trazado 823474" d="M125.513,964.079s4.005-11.549,16.637.309,37.544,40.008,54.236,36.215S244.6,899.56,296.553,924.981s10.782,106.593-12.559,133.723-62.014,52.232-105.578,47.27-77.6-82.585-82.337-92.3c-8.511-17.45,29.433-49.6,29.433-49.6" transform="translate(146.749 -676.966)" fill="#fff"/>
            <path id="Trazado_823475" data-name="Trazado 823475" d="M437.937,1557.056a102.582,102.582,0,0,0,23.371-2.731,120.267,120.267,0,0,0,31.005-12.16.265.265,0,1,0-.258-.463c-21.105,11.742-43.645,16.652-65.185,14.2-12.526-1.427-25.456-9.085-38.43-22.761a.265.265,0,1,0-.384.364c13.062,13.769,26.1,21.481,38.754,22.922a98.253,98.253,0,0,0,11.126.63" transform="translate(-101.676 -1127.155)" fill="#e6d0be"/>
            <path id="Trazado_823476" data-name="Trazado 823476" d="M907.962,929.135s-29.386-48.592-49.233-42.01,6.118,8.452,4.865,15.4c0,0-12.771,2.844-10.026,10.621,0,0-5.88,4.8-5.487,8.645,0,0-12.593,10.233-6.352,15.418,5.317,4.416,7.476-4.511,13.242-3.475s7.826,24.2,19.487,24.915l7.773,17.476s27.681-30.825,25.732-46.991" transform="translate(-636.962 -651.793)" fill="#e2a18d"/>
            <path id="Trazado_823477" data-name="Trazado 823477" d="M1028.742,1016.879a.265.265,0,0,0,.187-.453c-2.915-2.9-8.964-1.4-9.22-1.329a.265.265,0,0,0,.131.513c.06-.015,6.014-1.494,8.716,1.192a.264.264,0,0,0,.187.077" transform="translate(-805.44 -746.005)" fill="#363e44"/>
            <path id="Trazado_823478" data-name="Trazado 823478" d="M1009.287,982.867a.265.265,0,0,0,.171-.467c-.134-.113-3.343-2.745-8.576-.548a.265.265,0,0,0,.2.488c4.922-2.066,8,.439,8.031.464a.265.265,0,0,0,.17.062" transform="translate(-781.01 -721.25)" fill="#363e44"/>
            <path id="Trazado_823479" data-name="Trazado 823479" d="M849.7,1023.609l8.1,12.65s-13.122,33.16-31.077,44.3l-6.551-13.055s20.5-29.928,29.53-43.9" transform="translate(-581.457 -752.592)" fill="#fff"/>
            <path id="Trazado_823480" data-name="Trazado 823480" d="M843.718,1150.354a.255.255,0,0,0,.1-.019c7.862-3.135,13.723-10.6,17.257-16.312a70.438,70.438,0,0,0,5.837-11.744.265.265,0,0,0-.5-.179c-.078.218-7.989,21.84-22.792,27.743a.265.265,0,0,0,.1.51" transform="translate(-596.745 -824.877)" fill="#e6d0be"/>
            <path id="Trazado_823481" data-name="Trazado 823481" d="M510.01,1251.464a5,5,0,0,0,1.214-.146,3.542,3.542,0,0,0,2.349-1.738c1.143-2.121-.245-4.636-1.174-5.947a21.753,21.753,0,0,0-9.694-7.584.265.265,0,0,0-.193.493,21.223,21.223,0,0,1,9.456,7.4c.858,1.211,2.147,3.521,1.14,5.39a3.059,3.059,0,0,1-2.012,1.476,4.857,4.857,0,0,1-3.75-.652c-1.938-1.285-3.019-3.633-3.888-5.52a.265.265,0,1,0-.481.221c.9,1.948,2.013,4.373,4.076,5.74a5.425,5.425,0,0,0,2.957.87" transform="translate(-153.51 -908.771)" fill="#e6d0be"/>
            <path id="Trazado_823482" data-name="Trazado 823482" d="M571.309,1258.944a.265.265,0,0,0,.243-.161l4.977-11.669a.265.265,0,0,0-.487-.208l-4.977,11.669a.265.265,0,0,0,.244.369" transform="translate(-234.244 -916.649)" fill="#e6d0be"/>
            <path id="Trazado_823483" data-name="Trazado 823483" d="M842.133,1065.223a2.77,2.77,0,1,0-2.77-2.77,2.773,2.773,0,0,0,2.77,2.77m0-5.01a2.24,2.24,0,1,1-2.241,2.24,2.243,2.243,0,0,1,2.241-2.24" transform="translate(-573.639 -779.115)" fill="#e6d0be"/>
            <path id="Trazado_823484" data-name="Trazado 823484" d="M946.2,1204.793a.265.265,0,0,0,.237-.384l-4.162-8.295a.265.265,0,1,0-.473.237l4.162,8.295a.265.265,0,0,0,.237.146" transform="translate(-702.316 -879.316)" fill="#e6d0be"/>
            <path id="Trazado_823485" data-name="Trazado 823485" d="M404.621,869.256a5.205,5.205,0,0,0,2.826-.926,9.859,9.859,0,0,0,3.952-9.669,4.229,4.229,0,0,0-6.884-2.813,9.255,9.255,0,0,0-3.361,4.268c-1.551,3.8-.648,7.77,2.014,8.858a3.826,3.826,0,0,0,1.454.282m-1.354-.527h0Zm4.075-13.277a3.293,3.293,0,0,1,1.252.242,4.067,4.067,0,0,1,2.287,3.081,9.335,9.335,0,0,1-3.724,9.112,4.068,4.068,0,0,1-3.79.6c-2.392-.977-3.165-4.642-1.724-8.167a8.725,8.725,0,0,1,3.16-4.025,4.686,4.686,0,0,1,2.538-.839" transform="translate(-24.085 -628.567)" fill="#a854f3"/>
            <path id="Trazado_823486" data-name="Trazado 823486" d="M421.777,900.737a9.151,9.151,0,0,0,5.31-1.9,9.259,9.259,0,0,0,3.307-4.311,4.229,4.229,0,0,0-4.426-5.977,9.859,9.859,0,0,0-8.394,6.216,4.2,4.2,0,0,0,4.2,5.974m4.42-11.663a3.987,3.987,0,0,1,3.339,1.459,4.067,4.067,0,0,1,.357,3.821,8.727,8.727,0,0,1-3.12,4.056c-3.062,2.267-6.8,2.421-8.34.345a4.066,4.066,0,0,1-.357-3.82,9.333,9.333,0,0,1,7.911-5.858c.071,0,.142,0,.211,0" transform="translate(-47.698 -653.288)" fill="#a854f3"/>
            <path id="Trazado_823487" data-name="Trazado 823487" d="M458.037,920.9a10.264,10.264,0,0,0,2.6-.342c3.967-1.042,6.6-4.152,5.869-6.933a4.575,4.575,0,0,0-3.087-3.034,9.259,9.259,0,0,0-5.431-.122c-3.966,1.042-6.6,4.152-5.869,6.933.568,2.161,3,3.5,5.919,3.5m2.57-10.248a7.746,7.746,0,0,1,2.631.436,4.066,4.066,0,0,1,2.755,2.671c.656,2.5-1.807,5.319-5.492,6.286s-7.215-.279-7.872-2.778,1.807-5.32,5.492-6.287a9.816,9.816,0,0,1,2.486-.329m-8.234,6.683h0Z" transform="translate(-92.802 -669.155)" fill="#a854f3"/>
            <path id="Trazado_823488" data-name="Trazado 823488" d="M501.4,918.884a8.366,8.366,0,0,0,2.978-.52,4.577,4.577,0,0,0,3.031-3.09c.679-2.794-2.01-5.856-5.995-6.825a9.257,9.257,0,0,0-5.428.221,4.576,4.576,0,0,0-3.031,3.09c-.679,2.794,2.01,5.856,5.995,6.825a10.379,10.379,0,0,0,2.45.3m-2.437-10.206a9.873,9.873,0,0,1,2.326.285c3.7.9,6.216,3.675,5.606,6.185a4.065,4.065,0,0,1-2.706,2.72,8.724,8.724,0,0,1-5.114.2c-3.7-.9-6.216-3.675-5.606-6.185a4.066,4.066,0,0,1,2.706-2.72,7.819,7.819,0,0,1,2.788-.486" transform="translate(-144.502 -667.702)" fill="#a854f3"/>
            <path id="Trazado_823489" data-name="Trazado 823489" d="M542.068,901.416a4.218,4.218,0,0,0,4.211-6.057,9.252,9.252,0,0,0-3.385-4.25c-3.34-2.38-7.415-2.411-9.083-.069s-.31,6.184,3.03,8.564a9.258,9.258,0,0,0,5.122,1.812h.1m-4.4-11.592a9.323,9.323,0,0,1,8.114,5.715,3.706,3.706,0,0,1-3.81,5.347,8.724,8.724,0,0,1-4.823-1.714c-3.1-2.21-4.406-5.721-2.907-7.825a4.049,4.049,0,0,1,3.425-1.523" transform="translate(-194.293 -653.846)" fill="#a854f3"/>
            <path id="Trazado_823490" data-name="Trazado 823490" d="M569.22,864.149a3.734,3.734,0,0,0,1.064-.154,4.577,4.577,0,0,0,2.934-3.182,9.857,9.857,0,0,0-2.972-10.013,4.228,4.228,0,0,0-7.129,2.116,9.258,9.258,0,0,0,.051,5.432c1.019,3.433,3.582,5.8,6.052,5.8m-2.091-14.04a4.5,4.5,0,0,1,2.785,1.1,9.334,9.334,0,0,1,2.8,9.437,4.067,4.067,0,0,1-2.581,2.839c-2.48.735-5.374-1.638-6.458-5.29a8.727,8.727,0,0,1-.055-5.118,4.067,4.067,0,0,1,2.581-2.839,3.263,3.263,0,0,1,.928-.133" transform="translate(-229.095 -624.639)" fill="#a854f3"/>
            <path id="Trazado_823491" data-name="Trazado 823491" d="M573.513,822.755a4.694,4.694,0,0,0,3.559-1.88,9.858,9.858,0,0,0,.96-10.4,4.576,4.576,0,0,0-3.5-2.548c-2.858-.264-5.5,2.843-5.878,6.927s1.646,7.621,4.51,7.886c.116.011.232.016.347.016m.972-14.3a4.066,4.066,0,0,1,3.086,2.28,9.334,9.334,0,0,1-.905,9.8,4.068,4.068,0,0,1-3.451,1.676c-2.573-.238-4.381-3.517-4.031-7.31s2.729-6.685,5.3-6.448" transform="translate(-236.138 -594.004)" fill="#a854f3"/>
            <path id="Trazado_823492" data-name="Trazado 823492" d="M305.39,885.858a.266.266,0,0,0,.142-.041l92.221-58.358a.265.265,0,0,0-.284-.448l-91.8,58.092,2.3-85.312a.265.265,0,0,0-.529-.014l-2.314,85.808a.264.264,0,0,0,.265.272" transform="translate(14.836 -587.834)" fill="#fff"/>
            <path id="Trazado_823493" data-name="Trazado 823493" d="M0,257.958s11.943-63.31,65.39-40.907c37.6,15.758,13.462,51.136-8.444,54.95C34.353,275.934,0,257.958,0,257.958" transform="translate(408.482 -156.055)" fill="#363e44"/>
            <path id="Trazado_823494" data-name="Trazado 823494" d="M146.161,255.629l.867-.109c-.039-.313-3.763-31.442,11.17-42.069,7.816-5.563,19.408-4.616,34.452,2.814l.387-.784c-15.355-7.584-27.247-8.507-35.347-2.742-8.048,5.729-10.751,17.106-11.6,25.642a86.928,86.928,0,0,0,.073,17.248" transform="translate(261.887 -153.672)" fill="#363e44"/>
            <path id="Trazado_823495" data-name="Trazado 823495" d="M155.61,592.5l.038,0a.437.437,0,0,0,.4-.473c-2.385-27.4-10.433-47.1-16.764-58.8-6.87-12.7-13.275-19-13.339-19.065a.437.437,0,0,0-.61.626c.063.062,6.393,6.3,13.2,18.893,6.283,11.623,14.271,31.194,16.641,58.418a.437.437,0,0,0,.435.4" transform="translate(304.302 -377.941)" fill="#2d353a"/>
            <path id="Trazado_823496" data-name="Trazado 823496" d="M46.281,333.489a37.921,37.921,0,0,0,23.041-7.42c10.643-7.834,14.631-19.03,14.622-19.629a.437.437,0,0,0-.437-.431H83.5a.437.437,0,0,0-.43.422c-.151,1.1-4.862,13.077-16.425,20.411-10.429,6.613-23.15,7.537-37.81,2.744a.437.437,0,0,0-.271.831,57.144,57.144,0,0,0,17.717,3.071" transform="translate(402.071 -224.988)" fill="#2d353a"/>
            <path id="Trazado_823497" data-name="Trazado 823497" d="M338.2,475.637c9.708,12.418,51.577-.957,51.577-.957l32.317-35.7a40.151,40.151,0,0,0-76.954-22.941s-16.828,46.951-6.94,59.6" transform="translate(-19.004 -284.791)" fill="#e2a18d"/>
            <path id="Trazado_823498" data-name="Trazado 823498" d="M436.162,685.706l2.075-54.392,29.437,1.308L465.6,687.014a14.733,14.733,0,0,1-29.438-1.308" transform="translate(-89.652 -464.164)" fill="#e2a18d"/>
            <path id="Trazado_823499" data-name="Trazado 823499" d="M641.281,538.9s-14.163,8.09-14.479,11.246c-.377,3.767,11,9.525,11,9.525s3.187-20.83,3.482-20.772" transform="translate(-313.736 -396.218)" fill="#e2a18d"/>
            <path id="Trazado_823500" data-name="Trazado 823500" d="M510.787,558.717a34.854,34.854,0,0,0-9.828-11.673c-1.391-1.018-6.915,12.035-5.133,12.371a34.933,34.933,0,0,0,14.96-.7" transform="translate(-148.473 -402.164)" fill="#fff"/>
            <path id="Trazado_823501" data-name="Trazado 823501" d="M546.734,544.483c-9.605-4.226-14.442-14.356-14.442-14.356s10.736-3.279,20.341.947a24.543,24.543,0,0,1,4.6,2.683,13.7,13.7,0,0,1-5.108,12.37,24.723,24.723,0,0,1-5.389-1.644" transform="translate(-204.761 -388.876)" fill="#363e44"/>
            <path id="Trazado_823502" data-name="Trazado 823502" d="M587.57,640.344a6.014,6.014,0,0,0,1.7-.244,6.121,6.121,0,0,0,4.267-4.8.437.437,0,0,0-.862-.149,5.187,5.187,0,0,1-9.064,2.5.437.437,0,0,0-.663.57,6.108,6.108,0,0,0,4.627,2.128" transform="translate(-254.355 -466.716)" fill="#363e44"/>
            <path id="Trazado_823503" data-name="Trazado 823503" d="M463.044,725.033h.027c14.5-.893,30.857-6.074,31.021-6.126a.437.437,0,0,0-.266-.833c-.162.052-16.416,5.2-30.808,6.086a.437.437,0,0,0,.027.874" transform="translate(-123.38 -527.937)" fill="#363e44"/>
            <path id="Trazado_823504" data-name="Trazado 823504" d="M360.915,442.021c11.465-5.494,14.988-32.523,7.944-49.836-9.081-22.321-35.42-35.5-56.7-33.7-5.231.441-17.185,3-21.156,10.456-3.092,5.806,2.8,17.87,12.78,21.338,14.032,4.876,33.7,1.629,26.429,17.619-22.024,48.453,18.107,40.162,30.7,34.124" transform="translate(44.185 -263.45)" fill="#363e44"/>
            <g id="Grupo_1073430" data-name="Grupo 1073430" transform="translate(23.905 254.855)" opacity="0.5">
              <g id="Grupo_1073429" data-name="Grupo 1073429">
                <g id="Grupo_1073428" data-name="Grupo 1073428" clip-path="url(#clip-path-2)">
                  <rect id="Rectángulo_382669" data-name="Rectángulo 382669" width="175.507" height="50.235" transform="translate(0)" fill="#fff"/>
                </g>
              </g>
            </g>
            <path id="Trazado_823505" data-name="Trazado 823505" d="M1129.6,992.471h176.037V941.706H1129.6Zm175.507-.53H1130.131V942.236h174.978Z" transform="translate(-1111.219 -692.374)" fill="#fff"/>
            <path id="Trazado_823506" data-name="Trazado 823506" d="M1185.946,1016.583l-6.4.81,4.537,4.588-1.207,6.338,5.765-2.9,5.655,3.107-.974-6.378,4.7-4.418-6.367-1.045-2.749-5.837Z" transform="translate(-1016.828 -743.212)" fill="#a854f3"/>
            <path id="Trazado_823507" data-name="Trazado 823507" d="M1286.731,1016.583l-6.4.81,4.537,4.588-1.208,6.338,5.766-2.9,5.655,3.107-.973-6.378,4.7-4.418-6.367-1.045-2.749-5.837Z" transform="translate(-1144.297 -743.212)" fill="#a854f3"/>
            <path id="Trazado_823508" data-name="Trazado 823508" d="M1387.516,1016.583l-6.4.81,4.537,4.588-1.208,6.338,5.766-2.9,5.655,3.107-.973-6.378,4.7-4.418-6.367-1.045-2.749-5.837Z" transform="translate(-1271.766 -743.212)" fill="#fff"/>
            <path id="Trazado_823509" data-name="Trazado 823509" d="M1488.3,1016.583l-6.4.81,4.537,4.588-1.208,6.338,5.765-2.9,5.655,3.107-.973-6.378,4.7-4.418-6.367-1.045-2.749-5.837Z" transform="translate(-1399.234 -743.212)" fill="#fff"/>
            <path id="Trazado_823510" data-name="Trazado 823510" d="M1589.085,1016.583l-6.4.81,4.537,4.588-1.207,6.338,5.766-2.9,5.655,3.107-.974-6.378,4.7-4.418-6.367-1.045-2.748-5.837Z" transform="translate(-1526.704 -743.212)" fill="#fff"/>
            <path id="Trazado_823511" data-name="Trazado 823511" d="M1654.568,592.317l-20.415,2.584,14.469,14.633-3.851,20.215,18.388-9.239,18.036,9.91-3.1-20.343,15-14.09-20.307-3.334-8.766-18.618Z" transform="translate(-1632.256 -422.05)" fill="#a854f3"/>
            <path id="Trazado_823512" data-name="Trazado 823512" d="M923.206,275.458a109.341,109.341,0,1,0-42.694-8.619,109,109,0,0,0,42.694,8.619m0-218.839A109.155,109.155,0,1,1,814.051,165.773,109.278,109.278,0,0,1,923.206,56.619" transform="translate(-754.784 -41.239)" fill="#fff"/>
            <g id="Grupo_1073433" data-name="Grupo 1073433" transform="translate(66.455 22.566)" opacity="0.5">
              <g id="Grupo_1073432" data-name="Grupo 1073432">
                <g id="Grupo_1073431" data-name="Grupo 1073431" clip-path="url(#clip-path-3)">
                  <path id="Trazado_823513" data-name="Trazado 823513" d="M842.667,187.2A101.967,101.967,0,1,0,944.635,85.235,101.967,101.967,0,0,0,842.667,187.2" transform="translate(-842.668 -85.234)" fill="#fff"/>
                </g>
              </g>
            </g>
            <path id="Trazado_823514" data-name="Trazado 823514" d="M977.329,588.566l90.493,16.605a101.993,101.993,0,0,1-180.068-.014Z" transform="translate(-809.369 -432.734)" fill="#3a1d71"/>
            <rect id="Rectángulo_382672" data-name="Rectángulo 382672" width="64.615" height="50.462" transform="matrix(-0.995, -0.102, 0.102, -0.995, 198.446, 113.432)" fill="#363e44"/>
            <path id="Trazado_823515" data-name="Trazado 823515" d="M1175.259,541.57h0c-10.8-1.115-19.279-11.477-19.751-24.134l-1.467-39.342,42.79-1.612,1.442,39.385c.549,14.993-10.223,27.023-23.014,25.7" transform="translate(-1010.344 -350.325)" fill="#bc8271"/>
            <path id="Trazado_823516" data-name="Trazado 823516" d="M1173.683,302.047c-1,17.869-11.866,45.63-34.934,44.341s-30.775-30.088-29.777-47.957,16.4-26.853,34.266-25.854,31.443,11.6,30.445,29.47" transform="translate(-973.831 -200.353)" fill="#bc8271"/>
            <path id="Trazado_823517" data-name="Trazado 823517" d="M1342.3,371.969c2.683,7.093,1.025,14.293-3.7,16.083s-10.737-2.511-13.421-9.6-1.026-14.293,3.7-16.082,10.738,2.511,13.421,9.6" transform="translate(-1200.613 -266.125)" fill="#bc8271"/>
            <path id="Trazado_823518" data-name="Trazado 823518" d="M1070.1,386.161c-3.457,6.75-2.612,14.09,1.888,16.395s10.95-1.3,14.407-8.049,2.612-14.09-1.888-16.395-10.95,1.3-14.407,8.049" transform="translate(-877.785 -277.489)" fill="#bc8271"/>
            <path id="Trazado_823519" data-name="Trazado 823519" d="M1085.192,412.941a.264.264,0,0,0,.129-.034,9.761,9.761,0,0,0,3.771-4.1c1.924-3.755,1.417-7.872-1.13-9.176a3.631,3.631,0,0,0-.814-.3.265.265,0,1,0-.123.515,3.1,3.1,0,0,1,.7.256c2.287,1.171,2.691,4.968.9,8.463a9.234,9.234,0,0,1-3.558,3.881.265.265,0,0,0,.129.5" transform="translate(-884.012 -293.595)" fill="#363e44"/>
            <path id="Trazado_823520" data-name="Trazado 823520" d="M1368.455,397.987a.265.265,0,0,0,.154-.48,9.237,9.237,0,0,1-3.1-4.254c-1.39-3.673-.565-7.4,1.838-8.31a3.1,3.1,0,0,1,.719-.177.265.265,0,1,0-.064-.526,3.626,3.626,0,0,0-.843.207c-2.676,1.013-3.639,5.047-2.146,8.993a9.767,9.767,0,0,0,3.291,4.5.264.264,0,0,0,.154.05" transform="translate(-1236.443 -282.506)" fill="#363e44"/>
            <path id="Trazado_823521" data-name="Trazado 823521" d="M1109.494,411.619a.264.264,0,0,0,.249-.174,67.823,67.823,0,0,0,3.587-15,.265.265,0,0,0-.526-.062,67.311,67.311,0,0,1-3.558,14.884.264.264,0,0,0,.249.355" transform="translate(-913.518 -291.26)" fill="#363e44"/>
            <path id="Trazado_823522" data-name="Trazado 823522" d="M1346.608,396.307a.265.265,0,0,0,.255-.334,67.272,67.272,0,0,1-2.311-18.241.265.265,0,0,0-.26-.269h0a.265.265,0,0,0-.265.26,67.8,67.8,0,0,0,2.331,18.389.265.265,0,0,0,.255.2" transform="translate(-1209.223 -277.523)" fill="#363e44"/>
            <path id="Trazado_823523" data-name="Trazado 823523" d="M1181.408,519.287c8.208,0,15.082-5.042,20.223-9.528a.265.265,0,1,0-.348-.4c-5.351,4.669-12.6,9.951-21.229,9.351-8.608-.6-14.991-6.475-20.1-12.142a.265.265,0,1,0-.394.355c4.876,5.41,11.608,11.7,20.455,12.316.468.033.932.048,1.391.048" transform="translate(-1015.217 -372.382)" fill="#363e44"/>
            <path id="Trazado_823524" data-name="Trazado 823524" d="M1222.511,427.583a.264.264,0,0,0,.112-.025c1.63-.761,2.572-1.689,2.8-2.758a3.633,3.633,0,0,0-.631-2.512,10.191,10.191,0,0,1-.92-2.224,8.65,8.65,0,0,1,.019-4.268.265.265,0,0,0-.515-.125,9.169,9.169,0,0,0-.016,4.528,10.627,10.627,0,0,0,.962,2.334,3.157,3.157,0,0,1,.582,2.158c-.19.9-1.032,1.7-2.5,2.388a.265.265,0,0,0,.112.5" transform="translate(-1055.584 -305.466)" fill="#363e44"/>
            <path id="Trazado_823525" data-name="Trazado 823525" d="M1245.582,471.906c.08,0,.159,0,.238-.006a.265.265,0,1,0-.026-.529,5.375,5.375,0,0,1-4.4-2.168,4.806,4.806,0,0,1-.993-2.8.265.265,0,0,0-.265-.262h0a.265.265,0,0,0-.262.267,5.334,5.334,0,0,0,1.1,3.116,5.954,5.954,0,0,0,4.61,2.385" transform="translate(-1080.85 -342.721)" fill="#363e44"/>
            <path id="Trazado_823526" data-name="Trazado 823526" d="M1074.022,235.507a9.543,9.543,0,1,0,5.522-12.314,9.543,9.543,0,0,0-5.522,12.314" transform="translate(-883.185 -163.638)" fill="#363e44"/>
            <path id="Trazado_823527" data-name="Trazado 823527" d="M1286.933,219.788a11.651,11.651,0,1,0,6.743-15.034,11.651,11.651,0,0,0-6.743,15.034" transform="translate(-1156.51 -149.979)" fill="#363e44"/>
            <path id="Trazado_823528" data-name="Trazado 823528" d="M1084.867,185.651a11.651,11.651,0,1,0,6.742-15.034,11.651,11.651,0,0,0-6.742,15.034" transform="translate(-900.944 -124.88)" fill="#363e44"/>
            <path id="Trazado_823529" data-name="Trazado 823529" d="M1267.632,187.273a7.345,7.345,0,1,0,4.25-9.477,7.345,7.345,0,0,0-4.25,9.477" transform="translate(-1123.842 -130.367)" fill="#363e44"/>
            <path id="Trazado_823530" data-name="Trazado 823530" d="M1196.426,181.066a11.651,11.651,0,1,0,6.743-15.034,11.651,11.651,0,0,0-6.743,15.034" transform="translate(-1042.039 -121.509)" fill="#363e44"/>
            <path id="Trazado_823531" data-name="Trazado 823531" d="M1166.644,245.549a11.651,11.651,0,1,0,6.743-15.034,11.651,11.651,0,0,0-6.743,15.034" transform="translate(-1004.372 -168.92)" fill="#363e44"/>
            <path id="Trazado_823532" data-name="Trazado 823532" d="M1138.033,162.754a11.651,11.651,0,1,0,6.743-15.034,11.651,11.651,0,0,0-6.743,15.034" transform="translate(-968.186 -108.046)" fill="#363e44"/>
            <path id="Trazado_823533" data-name="Trazado 823533" d="M1132.661,289.83a7.345,7.345,0,1,0,4.25-9.477,7.345,7.345,0,0,0-4.25,9.477" transform="translate(-953.134 -205.77)" fill="#363e44"/>
            <path id="Trazado_823534" data-name="Trazado 823534" d="M1260.777,372.5h0l.088,0c.032.185.135.425.327.434a5.534,5.534,0,0,1,.409,1.038c.236.542,1.062.141.826-.4-.159-.364,1.03.4,1.558.655,1.683.8,3.4,1.53,5.135,2.2.811.314,1.622.635,2.444.921a21.827,21.827,0,0,0,3.009,1.013,22.731,22.731,0,0,1,3.2,4.307,23.424,23.424,0,0,1-7.574,1.081c-.008-.057-.016-.114-.022-.172-.053-.571-9.552-3.613-9.846-3.2a23.384,23.384,0,0,1-5.961-6.8,23.236,23.236,0,0,1,6.41-1.08" transform="translate(-1116.385 -273.873)" fill="#fff"/>
            <path id="Trazado_823535" data-name="Trazado 823535" d="M1274.781,373.594a18.687,18.687,0,0,1,6.747,4.745,7.583,7.583,0,0,1-4.243,5.4,17.525,17.525,0,0,1-6.009-1.12,16.673,16.673,0,0,1-3.926-2.214,7.615,7.615,0,0,1,.474-7.923,18.007,18.007,0,0,1,6.956,1.115" transform="translate(-1123.345 -273.854)" fill="#363e44"/>
            <path id="Trazado_823536" data-name="Trazado 823536" d="M1134.668,388.983v0l-.086-.016c-.06.177-.2.4-.39.378a5.517,5.517,0,0,0-.565.961c-.318.5-1.071-.026-.754-.524.214-.335-1.08.237-1.64.4-1.788.531-3.593.982-5.417,1.377-.85.184-1.7.375-2.558.529a21.807,21.807,0,0,1-3.13.531,22.766,22.766,0,0,0-3.829,3.756,23.414,23.414,0,0,0,7.312,2.248c.016-.055.034-.11.048-.166.141-.555,10-2.08,10.225-1.63a23.379,23.379,0,0,0,6.947-5.785,23.235,23.235,0,0,0-6.163-2.065" transform="translate(-942.89 -285.983)" fill="#fff"/>
            <path id="Trazado_823537" data-name="Trazado 823537" d="M1144.425,388.04a18.687,18.687,0,0,0-7.4,3.635,7.581,7.581,0,0,0,3.349,5.993,17.522,17.522,0,0,0,6.11-.17,16.661,16.661,0,0,0,4.223-1.575,7.615,7.615,0,0,0,.766-7.9,18.011,18.011,0,0,0-7.045.017" transform="translate(-959.778 -285.037)" fill="#363e44"/>
            <path id="Trazado_823538" data-name="Trazado 823538" d="M1446.621,643.3a.265.265,0,0,0,.117-.5,114.233,114.233,0,0,1-60.692-128.54.265.265,0,1,0-.516-.121A115.057,115.057,0,0,0,1446.5,643.268a.265.265,0,0,0,.117.027" transform="translate(-1319.437 -377.857)" fill="#a854f3"/>
            <path id="Trazado_823539" data-name="Trazado 823539" d="M1529.83,864.874a.265.265,0,0,0,.092-.513,113.9,113.9,0,0,1-58.93-50.539.265.265,0,1,0-.462.258,113.894,113.894,0,0,0,59.208,50.777.268.268,0,0,0,.092.017" transform="translate(-1425.934 -598.25)" fill="#a854f3"/>
            <path id="Trazado_823540" data-name="Trazado 823540" d="M1545.064,230.073l-24.13,3.054,17.1,17.295-4.552,23.893,21.733-10.92,21.317,11.713-3.67-24.044,17.727-16.654-24-3.94-10.361-22.005Z" transform="translate(-1499.783 -153.27)" fill="#a854f3"/>
            <path id="Trazado_823541" data-name="Trazado 823541" d="M1411.025,71.635l-15.6,1.974,11.054,11.179-2.942,15.444,14.048-7.058,13.778,7.571L1428.995,85.2l11.458-10.765-15.513-2.547-6.7-14.223Z" transform="translate(-1316.415 -42.399)" fill="#a854f3"/>
          </g>
        </g>
      </g>
    </g>
  </g>
</svg>
