<svg xmlns="http://www.w3.org/2000/svg" xmlns:xlink="http://www.w3.org/1999/xlink" width="400" height="323" viewBox="0 0 400 323">
  <defs>
    <clipPath id="clip-path">
      <rect id="Rectángulo_382720" data-name="Rectángulo 382720" width="392.607" height="301.371" fill="none"/>
    </clipPath>
  </defs>
  <g id="Grupo_1073478" data-name="Grupo 1073478" transform="translate(-180.5 -6321)">
    <rect id="Rectángulo_382644" data-name="Rectángulo 382644" width="400" height="323" rx="19" transform="translate(180.5 6321)" fill="#aec4fa"/>
    <g id="Grupo_1073477" data-name="Grupo 1073477" transform="translate(184.5 6334.355)">
      <rect id="Rectángulo_382694" data-name="Rectángulo 382694" width="122.088" height="92.101" transform="translate(74.748 13.657)" fill="#2cfedf"/>
      <path id="Trazado_823660" data-name="Trazado 823660" d="M217.947,109.483H217.3V17.7H95.859v91.778h-.645V17.059H217.947Z" transform="translate(-20.788 -3.724)" fill="#262626"/>
      <rect id="Rectángulo_382695" data-name="Rectángulo 382695" width="119.41" height="0.646" transform="translate(81.888 23.428)" fill="#262626"/>
      <rect id="Rectángulo_382696" data-name="Rectángulo 382696" width="119.41" height="0.646" transform="translate(81.888 27.423)" fill="#262626"/>
      <rect id="Rectángulo_382697" data-name="Rectángulo 382697" width="46.857" height="0.645" transform="translate(81.888 50.641)" fill="#262626"/>
      <rect id="Rectángulo_382698" data-name="Rectángulo 382698" width="43.961" height="0.645" transform="translate(154.442 77.487)" fill="#262626"/>
      <rect id="Rectángulo_382699" data-name="Rectángulo 382699" width="43.961" height="0.645" transform="translate(154.442 81.417)" fill="#262626"/>
      <rect id="Rectángulo_382700" data-name="Rectángulo 382700" width="43.961" height="0.645" transform="translate(154.442 85.345)" fill="#262626"/>
      <rect id="Rectángulo_382701" data-name="Rectángulo 382701" width="43.961" height="0.646" transform="translate(154.442 89.274)" fill="#262626"/>
      <rect id="Rectángulo_382702" data-name="Rectángulo 382702" width="43.961" height="0.646" transform="translate(154.442 93.203)" fill="#262626"/>
      <rect id="Rectángulo_382703" data-name="Rectángulo 382703" width="43.961" height="0.646" transform="translate(154.442 97.132)" fill="#262626"/>
      <g id="Grupo_1073466" data-name="Grupo 1073466">
        <g id="Grupo_1073465" data-name="Grupo 1073465" clip-path="url(#clip-path)">
          <path id="Trazado_823661" data-name="Trazado 823661" d="M108.114,23.63a1.763,1.763,0,1,1-1.763-1.762,1.763,1.763,0,0,1,1.763,1.762" transform="translate(-22.835 -4.774)" fill="#3a1d71"/>
          <path id="Trazado_823662" data-name="Trazado 823662" d="M116.56,23.63a1.763,1.763,0,1,1-1.763-1.762,1.763,1.763,0,0,1,1.763,1.762" transform="translate(-24.679 -4.774)" fill="#73716e"/>
          <path id="Trazado_823663" data-name="Trazado 823663" d="M125.006,23.63a1.763,1.763,0,1,1-1.763-1.762,1.763,1.763,0,0,1,1.763,1.762" transform="translate(-26.523 -4.774)" fill="#73716e"/>
          <rect id="Rectángulo_382704" data-name="Rectángulo 382704" width="62.328" height="3.784" transform="translate(83.825 41.477)" fill="#3a1d71"/>
          <path id="Trazado_823664" data-name="Trazado 823664" d="M167.321,54.6H104.347V50.172h62.974Zm-62.328-.646h61.682V50.817H104.993Z" transform="translate(-22.782 -10.954)" fill="#262626"/>
          <rect id="Rectángulo_382705" data-name="Rectángulo 382705" width="62.328" height="3.784" transform="translate(83.825 57.721)" fill="#3a1d71"/>
          <path id="Trazado_823665" data-name="Trazado 823665" d="M167.321,75.382H104.347V70.953h62.974Zm-62.328-.646h61.682V71.6H104.993Z" transform="translate(-22.782 -15.491)" fill="#262626"/>
          <path id="Trazado_823666" data-name="Trazado 823666" d="M217.565,77.451a19.991,19.991,0,0,1-2.822-.2l2.007-14.058a6.347,6.347,0,0,0,1.079.051,5.648,5.648,0,1,0-4.513-9.364l-10.672-9.368a19.848,19.848,0,1,1,15.671,32.924c-.279.009-.515.015-.75.015" transform="translate(-44.243 -8.243)" fill="#3a1d71"/>
          <path id="Trazado_823667" data-name="Trazado 823667" d="M217.27,74.66a15.975,15.975,0,1,1,6.219-30.694l-2.514,5.945A9.522,9.522,0,1,0,217.27,68.2c.128,0,.256,0,.385-.008a9.47,9.47,0,0,0,7.847-4.724l5.575,3.253a15.9,15.9,0,0,1-13.2,7.923c-.215.006-.41.012-.606.012" transform="translate(-43.948 -9.325)" fill="#fff"/>
          <path id="Trazado_823668" data-name="Trazado 823668" d="M220.883,97.02a1.749,1.749,0,0,1-1.443-.6,1.153,1.153,0,0,1-.239-1.048c.378-1.446,3.492-2.729,3.846-2.87l.24.6c-1.22.489-3.238,1.581-3.46,2.433a.506.506,0,0,0,.116.481c.276.341.786.446,1.516.314,4.233-.768,13.558-8.953,14.548-10.488a12.148,12.148,0,0,0-2.188.087,15.589,15.589,0,0,1-4.572-.029,2.243,2.243,0,0,1-1.546-.932,15.294,15.294,0,0,1-6.476,2.706,8.946,8.946,0,0,1-4.884-.777,5.192,5.192,0,0,0-1.48-.46c-.641-.06-1.072.36-1.569.847a2.919,2.919,0,0,1-2.053,1.1,1.12,1.12,0,0,1-.956-.446,1.8,1.8,0,0,1-.582.092,4.253,4.253,0,0,1-2.077-.739,4.395,4.395,0,0,0-1.667-.677,2.782,2.782,0,0,0-1.681.625,3.179,3.179,0,0,1-2.514.693c-1.058-.274-1.346-1.353-1.556-2.14-.125-.471-.256-.959-.473-.972-.31-.016-.816.424-1.273.814-.8.68-1.7,1.452-2.575.972a1.257,1.257,0,0,1-.61-.905,2.806,2.806,0,0,1-.045-.646c-2.242,2.35-4.62,4.283-6.7,4.813a3.391,3.391,0,0,1-2.963-.456c-1.589-1.155-1.845-3.17-.741-5.827,2.091-5.034,8.562-11.07,10.76-10.715a2.31,2.31,0,0,1,1.7,1.083c.924,1.516.123,4,.088,4.108l-.614-.2c.008-.023.743-2.311-.027-3.571a1.675,1.675,0,0,0-1.249-.78c-1.738-.276-8.017,5.4-10.062,10.326-.99,2.383-.814,4.084.525,5.057a2.741,2.741,0,0,0,2.423.352c2.138-.546,4.673-2.741,7.023-5.32.844-3.614,4.585-9.638,5.648-10.989.92-1.169,1.822-1.648,2.412-1.282.546.338.546,1.229,0,2.382a62.391,62.391,0,0,1-7.479,10.214,3.429,3.429,0,0,0-.073,1.325.634.634,0,0,0,.288.469c.481.264,1.174-.327,1.845-.9.6-.514,1.169-1.011,1.73-.968.682.041.874.757,1.058,1.45.2.739.4,1.5,1.094,1.682a2.638,2.638,0,0,0,2.012-.618,3.251,3.251,0,0,1,2.1-.716,4.967,4.967,0,0,1,1.91.757,3.7,3.7,0,0,0,1.768.653.946.946,0,0,0,.351-.054,2.81,2.81,0,0,1,.517-1.832c.313-.421.607-.467.8-.435.272.048.545.288.493.823a2.713,2.713,0,0,1-1.015,1.737.539.539,0,0,0,.378.116,2.353,2.353,0,0,0,1.6-.915,2.6,2.6,0,0,1,2.082-1.028,5.754,5.754,0,0,1,1.668.507,8.377,8.377,0,0,0,4.572.73,14.645,14.645,0,0,0,6.393-2.751,1.388,1.388,0,0,1,.459-.87.8.8,0,0,1,.807-.217.386.386,0,0,1,.245.42c-.028.2-.338.549-.84.955.113.3.523.549,1.17.7a15.208,15.208,0,0,0,4.365.014c1.741-.156,2.59-.212,2.9.236.625.918-6.274,6.356-7.569,7.318-2.766,2.055-6.131,4.182-8.205,4.183m-9.647-11.294a2.087,2.087,0,0,0-.524,1.144,2.274,2.274,0,0,0,.239-.318,1.626,1.626,0,0,0,.285-.826m-8.208-13.551c-.23,0-.764.251-1.473,1.152a44.339,44.339,0,0,0-5.138,9.436,62.082,62.082,0,0,0,6.461-9.011c.467-.988.362-1.483.242-1.557a.18.18,0,0,0-.091-.02" transform="translate(-40.207 -15.616)" fill="#262626"/>
          <rect id="Rectángulo_382706" data-name="Rectángulo 382706" width="116.515" height="0.646" transform="translate(81.888 73.558)" fill="#262626"/>
          <rect id="Rectángulo_382707" data-name="Rectángulo 382707" width="22.114" height="13.44" transform="translate(81.888 83.173)" fill="#fff"/>
          <rect id="Rectángulo_382708" data-name="Rectángulo 382708" width="63.638" height="22.024" transform="translate(200.446 155.691)" fill="#262626"/>
          <path id="Trazado_823669" data-name="Trazado 823669" d="M320.07,190.476v8.92a13.2,13.2,0,0,0,1.746,6.723c1.579,2.672,4.565,5.538,10.2,6.315H268.379c-5.635-.777-8.622-3.643-10.2-6.315a13.192,13.192,0,0,1-1.748-6.723v-8.92Z" transform="translate(-55.986 -41.586)" fill="#73716e"/>
          <path id="Trazado_823670" data-name="Trazado 823670" d="M334.581,212.6H268.317c-5.941-.818-8.927-3.945-10.392-6.425a13.423,13.423,0,0,1-1.778-6.836v-9.144h64.085v9.144a12.986,12.986,0,0,0,1.716,6.609c1.413,2.393,4.3,5.412,10.023,6.206h2.612Zm-77.989-21.959v8.7a12.986,12.986,0,0,0,1.716,6.609c1.415,2.4,4.3,5.417,10.039,6.208l61.358,0a13.033,13.033,0,0,1-8.143-5.979,13.438,13.438,0,0,1-1.778-6.836v-8.7Z" transform="translate(-55.924 -41.524)" fill="#262626"/>
          <path id="Trazado_823671" data-name="Trazado 823671" d="M256.432,129.19v48.379a8.751,8.751,0,0,0,8.752,8.753H320.07V129.19Z" transform="translate(-55.986 -28.206)" fill="#2cfedf"/>
          <path id="Trazado_823672" data-name="Trazado 823672" d="M320.231,186.483H265.122a8.986,8.986,0,0,1-8.976-8.976v-21.16h.446v21.16a8.539,8.539,0,0,0,8.53,8.53h54.662V129.35H267.738V128.9h52.492Z" transform="translate(-55.924 -28.143)" fill="#262626"/>
          <path id="Trazado_823673" data-name="Trazado 823673" d="M276.614,193.2a8.754,8.754,0,0,1-7.964,7.072l-.036.032h64.221c6.218-.486,8.064-7.1,8.064-7.1Z" transform="translate(-58.646 -42.18)" fill="#2cfedf"/>
          <path id="Trazado_823674" data-name="Trazado 823674" d="M342.51,194.536a10.035,10.035,0,0,0,.519-1.339H278.744a9.072,9.072,0,0,1-.374,1.339Z" transform="translate(-60.776 -42.18)" fill="#fff"/>
          <path id="Trazado_823675" data-name="Trazado 823675" d="M332.68,200.461H267.865l.53-.472.076-.005a8.533,8.533,0,0,0,7.76-6.891l.034-.181h64.764l-.079.283c-.019.068-1.96,6.774-8.262,7.266Zm-62.054-.446h62.037c5.258-.416,7.328-5.405,7.766-6.658h-63.8a8.982,8.982,0,0,1-6.007,6.658" transform="translate(-58.483 -42.118)" fill="#262626"/>
          <path id="Trazado_823676" data-name="Trazado 823676" d="M284.861,128.034l-.348-.28c9.7-12.062,9.7-12.064,9.712-12.074l.175-.184,9.854,12.253-.348.28-9.52-11.839-9.525,11.844" transform="translate(-62.117 -25.216)" fill="#262626"/>
          <rect id="Rectángulo_382709" data-name="Rectángulo 382709" width="2.875" height="0.446" transform="matrix(0.606, -0.795, 0.795, 0.606, 232.087, 91.026)" fill="#262626"/>
          <path id="Trazado_823677" data-name="Trazado 823677" d="M291.512,158.309A11.6,11.6,0,0,1,280.351,169.9c-.148,0-.295.009-.442.009a11.6,11.6,0,1,1,11.6-11.6" transform="translate(-58.579 -32.03)" fill="#f2eadf"/>
          <path id="Trazado_823678" data-name="Trazado 823678" d="M294.876,161.55a11.6,11.6,0,0,1-11.161,11.595V161.55Z" transform="translate(-61.943 -35.271)" fill="#fff"/>
          <path id="Trazado_823679" data-name="Trazado 823679" d="M279.286,171.522a13.84,13.84,0,1,1,.525-.01c-.2.005-.363.01-.525.01m0-23.207a9.372,9.372,0,0,0,0,18.744c.119,0,.237,0,.356-.008a9.372,9.372,0,0,0-.356-18.737" transform="translate(-57.956 -31.407)" fill="#73716e"/>
          <path id="Trazado_823680" data-name="Trazado 823680" d="M296.985,157.686h-4.463a9.382,9.382,0,0,0-9.372-9.371v-4.463a13.851,13.851,0,0,1,13.835,13.834" transform="translate(-61.82 -31.407)" fill="#3a1d71"/>
          <path id="Trazado_823681" data-name="Trazado 823681" d="M274.079,150.86l-3.059-3.249a13.781,13.781,0,0,1,9.481-3.76v4.463a9.335,9.335,0,0,0-6.421,2.546" transform="translate(-59.171 -31.407)" fill="#73716e"/>
          <path id="Trazado_823682" data-name="Trazado 823682" d="M270.095,169.077a13.836,13.836,0,0,1-.29-20.417l3.059,3.25a9.282,9.282,0,0,0-2.952,6.826,9.388,9.388,0,0,0,3.147,7.005Z" transform="translate(-57.956 -32.457)" fill="#fff"/>
          <path id="Trazado_823683" data-name="Trazado 823683" d="M280.583,177.343a13.817,13.817,0,0,1-9.191-3.494l2.966-3.335a9.416,9.416,0,0,0,6.587,2.359l.164,4.459q-.261.011-.526.01" transform="translate(-59.253 -37.228)" fill="#262626"/>
          <rect id="Rectángulo_382710" data-name="Rectángulo 382710" width="16.973" height="11.23" transform="translate(244.023 105.537)" fill="#fff"/>
          <rect id="Rectángulo_382711" data-name="Rectángulo 382711" width="21.347" height="3.978" transform="translate(239.552 131.075)" fill="#fff"/>
          <path id="Trazado_823684" data-name="Trazado 823684" d="M326.826,170.683H305.033v-4.424h21.793Zm-21.347-.446h20.9v-3.532h-20.9Z" transform="translate(-66.597 -36.299)" fill="#262626"/>
          <rect id="Rectángulo_382712" data-name="Rectángulo 382712" width="32.987" height="0.446" transform="translate(232.933 108.645)" fill="#262626"/>
          <rect id="Rectángulo_382713" data-name="Rectángulo 382713" width="32.987" height="0.446" transform="translate(232.933 113.087)" fill="#262626"/>
          <rect id="Rectángulo_382714" data-name="Rectángulo 382714" width="64.916" height="72.726" transform="translate(205.917 0.229)" fill="#2cfedf"/>
          <path id="Trazado_823685" data-name="Trazado 823685" d="M328.513,72.955h-.458V.458H263.6v72.5h-.458V0h65.374Z" transform="translate(-57.451)" fill="#262626"/>
          <rect id="Rectángulo_382715" data-name="Rectángulo 382715" width="51.627" height="0.458" transform="translate(219.206 61.231)" fill="#262626"/>
          <path id="Trazado_823686" data-name="Trazado 823686" d="M296.378,59.352l-4.2,2.426V17.384l4.2-2.426Z" transform="translate(-63.791 -3.266)" fill="#fff"/>
          <path id="Trazado_823687" data-name="Trazado 823687" d="M296.378,67.326l-4.2,2.426V53.9l4.2-2.426Z" transform="translate(-63.791 -11.239)" fill="#73716e"/>
          <path id="Trazado_823688" data-name="Trazado 823688" d="M291.885,62.064V17.141l4.659-2.69V59.374Zm.457-44.659V61.271l3.743-2.161V15.244Z" transform="translate(-63.727 -3.155)" fill="#262626"/>
          <path id="Trazado_823689" data-name="Trazado 823689" d="M308.377,61.477l-4.2,2.426V13.611l4.2-2.426Z" transform="translate(-66.41 -2.442)" fill="#fff"/>
          <path id="Trazado_823690" data-name="Trazado 823690" d="M308.377,65.769l-4.2,2.426V33.266l4.2-2.426Z" transform="translate(-66.41 -6.733)" fill="#3a1d71"/>
          <path id="Trazado_823691" data-name="Trazado 823691" d="M303.883,64.189V13.368l4.659-2.691,0,50.822Zm.458-50.557V63.4l3.743-2.162V11.471Z" transform="translate(-66.346 -2.331)" fill="#262626"/>
          <path id="Trazado_823692" data-name="Trazado 823692" d="M320.376,59.352l-4.2,2.426V17.384l4.2-2.426Z" transform="translate(-69.03 -3.266)" fill="#fff"/>
          <path id="Trazado_823693" data-name="Trazado 823693" d="M320.376,64.412l-4.2,2.426V40.561l4.2-2.426Z" transform="translate(-69.03 -8.326)" fill="#73716e"/>
          <path id="Trazado_823694" data-name="Trazado 823694" d="M315.882,62.064V17.141l4.659-2.69V59.374Zm.457-44.659V61.271l3.743-2.161V15.244Z" transform="translate(-68.966 -3.155)" fill="#262626"/>
          <rect id="Rectángulo_382716" data-name="Rectángulo 382716" width="0.458" height="52.717" transform="translate(218.884 8.744)" fill="#262626"/>
          <rect id="Rectángulo_382717" data-name="Rectángulo 382717" width="31.401" height="2.684" transform="translate(237.02 64.528)" fill="#3a1d71"/>
          <path id="Trazado_823695" data-name="Trazado 823695" d="M333.03,83.642H301.171V80.5H333.03Zm-31.4-.458h30.943V80.958H301.629Z" transform="translate(-65.754 -17.575)" fill="#262626"/>
          <rect id="Rectángulo_382718" data-name="Rectángulo 382718" width="15.415" height="0.458" transform="translate(255.419 4.926)" fill="#262626"/>
          <rect id="Rectángulo_382719" data-name="Rectángulo 382719" width="15.415" height="0.458" transform="translate(255.419 7.76)" fill="#262626"/>
        </g>
      </g>
      <g id="Grupo_1073468" data-name="Grupo 1073468">
        <g id="Grupo_1073467" data-name="Grupo 1073467" clip-path="url(#clip-path)">
          <path id="Trazado_823696" data-name="Trazado 823696" d="M229.751,100.621a.391.391,0,0,1-.234-.7l6.128-4.572a.39.39,0,1,1,.467.626l-6.128,4.573a.386.386,0,0,1-.233.077" transform="translate(-50.076 -20.8)" fill="#73716e"/>
          <path id="Trazado_823697" data-name="Trazado 823697" d="M230.115,96.237l-16.553,12.351,1.259,1.688,16.553-12.352a1.053,1.053,0,1,0-1.259-1.688" transform="translate(-46.627 -20.966)" fill="#262626"/>
          <path id="Trazado_823698" data-name="Trazado 823698" d="M214.967,112.216a1.053,1.053,0,1,1-1.473-.214,1.053,1.053,0,0,1,1.473.214" transform="translate(-46.519 -24.407)" fill="#73716e"/>
          <path id="Trazado_823699" data-name="Trazado 823699" d="M114.549,336.717l-10.564,28.4,10.281.559L124.547,339.4Z" transform="translate(-22.703 -73.515)" fill="#73716e"/>
          <path id="Trazado_823700" data-name="Trazado 823700" d="M140.091,344.936l2.594,26.107,10.4-.21-2.857-27.983Z" transform="translate(-30.586 -74.854)" fill="#73716e"/>
          <path id="Trazado_823701" data-name="Trazado 823701" d="M121.046,155.905c-.682,1.378-4.469.9-8.458-1.079s-6.671-4.691-5.988-6.069,4.468-.9,8.458,1.079,6.671,4.691,5.989,6.069" transform="translate(-23.251 -32.307)" fill="#262626"/>
          <path id="Trazado_823702" data-name="Trazado 823702" d="M150.533,119.478c-.465-8.822-.465-8.822-.883-16.579a6.506,6.506,0,0,0-12.993,0c-.425,7.757-.425,7.757-.9,16.579,0,.133-.011.263-.011.4a7.4,7.4,0,1,0,14.806,0c0-.134-.013-.265-.02-.4" transform="translate(-29.637 -21.121)" fill="#73716e"/>
          <path id="Trazado_823703" data-name="Trazado 823703" d="M121.571,141.342a6.538,6.538,0,1,0-11-7.057c-6.691,11.243-11.719,19.7-17.23,28.972a5.392,5.392,0,0,0,9.071,5.82c.012-.014.022-.029.032-.044l19.127-27.691" transform="translate(-20.214 -28.619)" fill="#73716e"/>
          <path id="Trazado_823704" data-name="Trazado 823704" d="M177.428,210.6s-8.9,9.765-48.375,1.532Z" transform="translate(-28.176 -45.979)" fill="#262626"/>
          <path id="Trazado_823705" data-name="Trazado 823705" d="M153.091,226.968a13.4,13.4,0,0,0-26.8.242c0,.424.033.841.075,1.255a.762.762,0,0,0,.006.1c2.742,26.586,3.679,35.672,5.537,53.673a9.057,9.057,0,0,0,18.052-.41c1.051-18.095,1.574-27.212,3.112-53.973,0-.295.024-.589.022-.89" transform="translate(-27.572 -46.654)" fill="#73716e"/>
          <path id="Trazado_823706" data-name="Trazado 823706" d="M151.537,297.482a9.062,9.062,0,0,0-18.122.268c0,.227.021.449.04.673,1.5,18.062,3.128,36.793,4.383,51.8l14.7-4.052c-.31-15.059-.628-30.57-1-48.691" transform="translate(-29.128 -63.011)" fill="#262626"/>
          <path id="Trazado_823707" data-name="Trazado 823707" d="M164.982,230.522l8.806-24.826-41.93.256-4.57,14.872Z" transform="translate(-27.791 -44.909)" fill="#73716e"/>
          <path id="Trazado_823708" data-name="Trazado 823708" d="M165.648,228.151a13.4,13.4,0,0,0-26.488-2.872,1.052,1.052,0,0,0-.034.13c0,.022-.01.043-.014.064-5.715,26.035-8.007,36.477-11.884,54.135a9.314,9.314,0,0,0-.21,1.943,9.058,9.058,0,0,0,17.5,3.291c6.591-16.885,10.477-26.85,20.215-51.822a13.565,13.565,0,0,0,.915-4.869" transform="translate(-27.732 -46.886)" fill="#73716e"/>
          <path id="Trazado_823709" data-name="Trazado 823709" d="M140.292,301.1a9.059,9.059,0,1,0-16.969-6.33c-5.837,17.159-10.614,31.709-15.46,45.97L121.969,346c5.663-13.913,11.453-28.021,18.268-44.768.009-.021.017-.042.027-.064l.028-.07" transform="translate(-23.55 -63.013)" fill="#73716e"/>
          <path id="Trazado_823710" data-name="Trazado 823710" d="M146.865,242.008l-.038-.78,8.8-.435,5.017-14.683.739.253-5.189,15.184Z" transform="translate(-32.056 -49.366)" fill="#262626"/>
          <path id="Trazado_823711" data-name="Trazado 823711" d="M127.277,236.027l-.529-.575,3.063-2.813-.585-12.953.781-.035.6,13.318Z" transform="translate(-27.673 -47.956)" fill="#262626"/>
          <path id="Trazado_823712" data-name="Trazado 823712" d="M141.828,370.409l-2,9.069H167.2V375.33s-11.575-.518-14.112-6.567Z" transform="translate(-30.529 -80.511)" fill="#73716e"/>
          <rect id="Rectángulo_382721" data-name="Rectángulo 382721" width="27.365" height="1.959" transform="translate(109.303 298.967)" fill="#73716e"/>
          <path id="Trazado_823713" data-name="Trazado 823713" d="M134.081,257.319l-.764-.168,5.025-22.889a9.746,9.746,0,0,1-1.724-7.313l2.443-14.477.771.13-2.443,14.477a8.935,8.935,0,0,0,1.662,6.826l.108.144-.014.207Z" transform="translate(-29.107 -46.389)" fill="#262626"/>
          <path id="Trazado_823714" data-name="Trazado 823714" d="M154.806,119.91l12.9,13.96,7.4,56.927-48.375,1.532,9.573-22.464-3.7-2.3-14.169-30.505,2.329-9.394Z" transform="translate(-25.858 -26.18)" fill="#3a1d71"/>
          <path id="Trazado_823715" data-name="Trazado 823715" d="M125.317,189.785c-5.443-4.5-15.58-12.832-23.908-19.681a5.391,5.391,0,1,0-6.332,8.7c9.089,5.806,20.156,12.87,26.108,16.669a3.579,3.579,0,0,0,1.9.555,3.517,3.517,0,0,0,2.233-6.245" transform="translate(-20.214 -36.869)" fill="#73716e"/>
          <path id="Trazado_823716" data-name="Trazado 823716" d="M215.128,117.063c-4.11,5.74-11.726,16.428-17.984,25.21a5.391,5.391,0,1,0,9.117,5.716c5.165-9.468,11.448-21,14.828-27.2a3.585,3.585,0,0,0,.422-1.934,3.516,3.516,0,0,0-6.384-1.8" transform="translate(-42.822 -25.233)" fill="#73716e"/>
          <path id="Trazado_823717" data-name="Trazado 823717" d="M145.685,189.624a1.014,1.014,0,0,0-.949-1.007c-1.455-.113-1.455-.113-3.635-.266a.821.821,0,0,1-.107,0,1.532,1.532,0,0,0,0,3.063,1.571,1.571,0,0,0,.317-.034l3.564-.754a1.046,1.046,0,0,0,.81-1" transform="translate(-30.449 -41.122)" fill="#262626"/>
          <path id="Trazado_823718" data-name="Trazado 823718" d="M140.038,193.257l-.464-.629c13.99-10.306,18.015-20.8,18.054-20.905l.732.272c-.039.107-4.13,10.807-18.323,21.262" transform="translate(-30.473 -37.492)" fill="#262626"/>
          <rect id="Rectángulo_382722" data-name="Rectángulo 382722" width="0.782" height="38.752" transform="translate(102.48 166.536) rotate(-81.746)" fill="#262626"/>
          <path id="Trazado_823719" data-name="Trazado 823719" d="M140.874,189.879a1.524,1.524,0,0,0-2.531-1.152c-2.318,2-2.716,2.35-5.752,4.986a2.037,2.037,0,0,0-.692,1.518c0,1.111,2.831,3.277,2.831,3.277s3.71-5.324,5.753-7.606a1.556,1.556,0,0,0,.39-1.022" transform="translate(-28.798 -41.122)" fill="#73716e"/>
          <path id="Trazado_823720" data-name="Trazado 823720" d="M196.584,142.037a.464.464,0,0,0-.043-.035L169.72,121.674a6.538,6.538,0,1,0-7.535,10.678c10.937,7.18,19.166,12.576,28.185,18.49a5.392,5.392,0,0,0,6.214-8.806" transform="translate(-34.764 -26.275)" fill="#73716e"/>
          <path id="Trazado_823721" data-name="Trazado 823721" d="M182.558,130.258l-12.5-8.729a7.587,7.587,0,0,0-10.034,11.382s.034.03.034.03a7.675,7.675,0,0,0,.865.663l12.049,9.231c1.085.827,4.111-1.318,6.759-4.792s3.916-6.958,2.832-7.785" transform="translate(-34.381 -26.124)" fill="#3a1d71"/>
          <path id="Trazado_823722" data-name="Trazado 823722" d="M126.849,137.331a7.59,7.59,0,0,0-14.473-3.21c-.12.259-5.747,10.655-5.747,10.655.682-1.378,4.469-.9,8.458,1.078s6.671,4.692,5.989,6.07l4.8-10.888a7.456,7.456,0,0,0,.571-1.294l.021-.048a7.676,7.676,0,0,0,.377-2.364" transform="translate(-23.28 -28.325)" fill="#3a1d71"/>
          <rect id="Rectángulo_382723" data-name="Rectángulo 382723" width="5.19" height="0.782" transform="translate(129.637 298.86) rotate(-74.338)" fill="#f2eadf"/>
          <path id="Trazado_823723" data-name="Trazado 823723" d="M103.138,370.942l-1.947,8.845h26.69v-4.046s-10.134-.134-12.608-6.034Z" transform="translate(-22.093 -80.718)" fill="#3a1d71"/>
          <rect id="Rectángulo_382724" data-name="Rectángulo 382724" width="26.69" height="1.91" transform="translate(79.098 299.07)" fill="#73716e"/>
          <rect id="Rectángulo_382725" data-name="Rectángulo 382725" width="5.07" height="0.782" transform="translate(98.923 298.966) rotate(-74.7)" fill="#f2eadf"/>
          <rect id="Rectángulo_382726" data-name="Rectángulo 382726" width="0.782" height="1.959" transform="translate(109.959 298.967)" fill="#262626"/>
          <rect id="Rectángulo_382727" data-name="Rectángulo 382727" width="0.782" height="1.959" transform="translate(111.903 298.967)" fill="#262626"/>
          <rect id="Rectángulo_382728" data-name="Rectángulo 382728" width="0.782" height="1.959" transform="translate(113.847 298.967)" fill="#262626"/>
          <rect id="Rectángulo_382729" data-name="Rectángulo 382729" width="0.782" height="1.959" transform="translate(115.791 298.967)" fill="#262626"/>
          <rect id="Rectángulo_382730" data-name="Rectángulo 382730" width="0.782" height="1.959" transform="translate(117.734 298.967)" fill="#262626"/>
          <rect id="Rectángulo_382731" data-name="Rectángulo 382731" width="0.782" height="1.959" transform="translate(119.679 298.967)" fill="#262626"/>
          <rect id="Rectángulo_382732" data-name="Rectángulo 382732" width="0.782" height="1.959" transform="translate(121.623 298.967)" fill="#262626"/>
          <rect id="Rectángulo_382733" data-name="Rectángulo 382733" width="0.782" height="1.959" transform="translate(123.566 298.967)" fill="#262626"/>
          <rect id="Rectángulo_382734" data-name="Rectángulo 382734" width="0.782" height="1.959" transform="translate(125.511 298.967)" fill="#262626"/>
          <rect id="Rectángulo_382735" data-name="Rectángulo 382735" width="0.782" height="1.959" transform="translate(127.455 298.967)" fill="#262626"/>
          <rect id="Rectángulo_382736" data-name="Rectángulo 382736" width="0.782" height="1.959" transform="translate(129.398 298.967)" fill="#262626"/>
          <rect id="Rectángulo_382737" data-name="Rectángulo 382737" width="0.782" height="1.959" transform="translate(131.343 298.967)" fill="#262626"/>
          <rect id="Rectángulo_382738" data-name="Rectángulo 382738" width="0.782" height="1.959" transform="translate(133.286 298.967)" fill="#262626"/>
          <rect id="Rectángulo_382739" data-name="Rectángulo 382739" width="0.782" height="1.959" transform="translate(135.23 298.967)" fill="#262626"/>
          <rect id="Rectángulo_382740" data-name="Rectángulo 382740" width="0.782" height="1.91" transform="translate(79.728 299.07)" fill="#262626"/>
          <rect id="Rectángulo_382741" data-name="Rectángulo 382741" width="0.782" height="1.91" transform="translate(81.624 299.07)" fill="#262626"/>
          <rect id="Rectángulo_382742" data-name="Rectángulo 382742" width="0.782" height="1.91" transform="translate(83.521 299.07)" fill="#262626"/>
          <rect id="Rectángulo_382743" data-name="Rectángulo 382743" width="0.782" height="1.91" transform="translate(85.416 299.07)" fill="#262626"/>
          <rect id="Rectángulo_382744" data-name="Rectángulo 382744" width="0.782" height="1.91" transform="translate(87.313 299.07)" fill="#262626"/>
          <rect id="Rectángulo_382745" data-name="Rectángulo 382745" width="0.782" height="1.91" transform="translate(89.208 299.07)" fill="#262626"/>
          <rect id="Rectángulo_382746" data-name="Rectángulo 382746" width="0.782" height="1.91" transform="translate(91.105 299.07)" fill="#262626"/>
          <rect id="Rectángulo_382747" data-name="Rectángulo 382747" width="0.782" height="1.91" transform="translate(93.001 299.07)" fill="#262626"/>
          <rect id="Rectángulo_382748" data-name="Rectángulo 382748" width="0.782" height="1.91" transform="translate(94.896 299.07)" fill="#262626"/>
          <rect id="Rectángulo_382749" data-name="Rectángulo 382749" width="0.782" height="1.91" transform="translate(96.793 299.07)" fill="#262626"/>
          <rect id="Rectángulo_382750" data-name="Rectángulo 382750" width="0.782" height="1.91" transform="translate(98.689 299.07)" fill="#262626"/>
          <rect id="Rectángulo_382751" data-name="Rectángulo 382751" width="0.782" height="1.91" transform="translate(100.585 299.07)" fill="#262626"/>
          <rect id="Rectángulo_382752" data-name="Rectángulo 382752" width="0.782" height="1.91" transform="translate(102.481 299.07)" fill="#262626"/>
          <rect id="Rectángulo_382753" data-name="Rectángulo 382753" width="0.782" height="1.91" transform="translate(104.377 299.07)" fill="#262626"/>
          <path id="Trazado_823724" data-name="Trazado 823724" d="M229.085,100.085a.641.641,0,0,0-.168-.006c-.935.069-.935.069-2.149.163a.857.857,0,1,0,.285,1.682c1.177-.31,1.177-.31,2.083-.551a.66.66,0,0,0-.052-1.287" transform="translate(-49.337 -21.85)" fill="#262626"/>
          <path id="Trazado_823725" data-name="Trazado 823725" d="M231.189,103.656c-1.081-.758-1.67-1.171-3.076-2.155a.882.882,0,0,0-.338-.141.856.856,0,0,0-.568,1.591c1.5.834,2.129,1.182,3.285,1.821a.759.759,0,0,0,.2.072.659.659,0,0,0,.5-1.189" transform="translate(-49.509 -22.127)" fill="#262626"/>
          <path id="Trazado_823726" data-name="Trazado 823726" d="M231.538,106.388c-.339-1.049-.339-1.049-.8-2.465a.868.868,0,0,0-.662-.578.853.853,0,0,0-.909,1.244c.693,1.318.693,1.318,1.209,2.292a.646.646,0,0,0,.447.328.635.635,0,0,0,.739-.511.625.625,0,0,0-.023-.31" transform="translate(-50.011 -22.56)" fill="#262626"/>
          <path id="Trazado_823727" data-name="Trazado 823727" d="M226.251,100.226c-1.158-.127-1.158-.127-2.513-.267-.036,0-.07-.005-.106-.005a1.034,1.034,0,0,0,0,2.068c.013,0,.027,0,.04,0,1.335-.048,1.364-.049,2.429-.091a.878.878,0,0,0,.84-.7.858.858,0,0,0-.69-1" transform="translate(-48.599 -21.823)" fill="#262626"/>
          <path id="Trazado_823728" data-name="Trazado 823728" d="M223.6,100.988a1.033,1.033,0,0,0-1.753-.742c-1.486,1.438-1.748,1.692-3.707,3.59a1.361,1.361,0,1,0,2.011,1.826c1.706-2.128,1.932-2.413,3.222-4.03a1.058,1.058,0,0,0,.226-.645" transform="translate(-47.536 -21.823)" fill="#73716e"/>
          <path id="Trazado_823729" data-name="Trazado 823729" d="M226.456,101.359a.849.849,0,0,0-.589.109c-1.478.872-2.129,1.258-4.476,2.65a1.364,1.364,0,0,0,.7,2.537,1.355,1.355,0,0,0,.906-.351c2.037-1.813,2.6-2.318,3.881-3.462a.876.876,0,0,0,.272-.485.858.858,0,0,0-.69-1" transform="translate(-48.19 -22.127)" fill="#73716e"/>
          <path id="Trazado_823730" data-name="Trazado 823730" d="M228.953,103.345a.847.847,0,0,0-.571.1c-1.455.812-1.455.812-3.764,2.107a1.364,1.364,0,0,0,.668,2.554,1.36,1.36,0,0,0,.922-.364c1.949-1.792,1.949-1.792,3.173-2.921a.87.87,0,0,0,.263-.478.859.859,0,0,0-.69-1" transform="translate(-48.888 -22.56)" fill="#73716e"/>
          <path id="Trazado_823731" data-name="Trazado 823731" d="M230.426,106.179a.846.846,0,0,0-.5.058l-1.777.773a1.364,1.364,0,0,0,.528,2.622,1.359,1.359,0,0,0,1.08-.539c.732-.949.732-.949,1.192-1.548a.9.9,0,0,0,.163-.367.858.858,0,0,0-.69-1" transform="translate(-49.63 -23.179)" fill="#73716e"/>
          <path id="Trazado_823732" data-name="Trazado 823732" d="M216.125,105.861l.374,9.842a3.281,3.281,0,0,1-.559,1.957l-5.559,8.224,9.55.129,5.048-9.038a6.954,6.954,0,0,0,.875-3.1l.211-5.091-4.682-4.044Z" transform="translate(-45.932 -22.868)" fill="#73716e"/>
          <rect id="Rectángulo_382754" data-name="Rectángulo 382754" width="0.781" height="12.506" transform="translate(137.034 96.845) rotate(-55.131)" fill="#262626"/>
          <path id="Trazado_823733" data-name="Trazado 823733" d="M139.724,177.7l-7.277-4.592L119.109,144.39l.709-.329,13.241,28.51,7.082,4.468Z" transform="translate(-26.005 -31.453)" fill="#262626"/>
          <path id="Trazado_823734" data-name="Trazado 823734" d="M147.515,380.361h-.782a7.045,7.045,0,0,0-5.008-6.8l.2-.756a7.851,7.851,0,0,1,5.59,7.554" transform="translate(-30.943 -81.394)" fill="#f2eadf"/>
          <path id="Trazado_823735" data-name="Trazado 823735" d="M108.657,380.361h-.782a6.951,6.951,0,0,0-5.008-6.8l.2-.756a7.85,7.85,0,0,1,5.589,7.554" transform="translate(-22.459 -81.394)" fill="#f2eadf"/>
          <rect id="Rectángulo_382755" data-name="Rectángulo 382755" width="27.365" height="0.782" transform="translate(109.303 298.576)" fill="#262626"/>
          <rect id="Rectángulo_382756" data-name="Rectángulo 382756" width="26.69" height="0.782" transform="translate(79.098 298.679)" fill="#262626"/>
          <path id="Trazado_823736" data-name="Trazado 823736" d="M146.24,74.915l8.357,6.193a3.881,3.881,0,0,1,1.27,1.62l.258.618a8.872,8.872,0,0,1,.689,3.428,8.146,8.146,0,0,1-.492,2.811c0,.013,1.709,3.345,1.709,3.345a5.825,5.825,0,0,1,.295,4.631,13.207,13.207,0,0,0-.878,5.634,2.136,2.136,0,0,1-.544,1.741,2.107,2.107,0,0,1-2.039.618l-20.293-4.917-5.5-13.524,4.84-10.607Z" transform="translate(-28.179 -16.356)" fill="#73716e"/>
          <rect id="Rectángulo_382757" data-name="Rectángulo 382757" width="2.519" height="0.781" transform="translate(127.848 72.982) rotate(-47.839)" fill="#262626"/>
          <rect id="Rectángulo_382758" data-name="Rectángulo 382758" width="2.623" height="0.781" transform="matrix(0.588, -0.809, 0.809, 0.588, 127.125, 70.13)" fill="#262626"/>
          <path id="Trazado_823737" data-name="Trazado 823737" d="M150.206,95.962l1.812-1.282s-1.237-4.2,1.5-7.027l-.84-4.906-24.574,8.972,5.081,11.534a3.707,3.707,0,0,0,3.392,2.212h.045a3.705,3.705,0,0,0,3.171-1.789l6.079-10.056Z" transform="translate(-27.969 -18.066)" fill="#262626"/>
          <path id="Trazado_823738" data-name="Trazado 823738" d="M152.385,80.747a4.94,4.94,0,0,0-2.725-4.838l-.817-.4a17.721,17.721,0,0,0-12.972-1.2c-4.436,1.348-8.923,4.542-9.121,11.922l1.061,3.492Z" transform="translate(-27.673 -16.066)" fill="#262626"/>
          <path id="Trazado_823739" data-name="Trazado 823739" d="M153.845,98.286l-1.916-2.959-2.165.354-1.415,2.475,1.282,4.177,3.6,1.79.951-.442Z" transform="translate(-32.389 -20.813)" fill="#73716e"/>
          <path id="Trazado_823740" data-name="Trazado 823740" d="M151.047,102.158l-1.416-3.869,1.893-1.746.53.575-1.51,1.392,1.237,3.379Z" transform="translate(-32.669 -21.078)" fill="#262626"/>
          <path id="Trazado_823741" data-name="Trazado 823741" d="M128.767,88.536l-.494-.031a1.886,1.886,0,0,0-1.839,1.107,1.9,1.9,0,0,1-1.658,1.132,3.856,3.856,0,0,0-3.5,2.517l-.567,1.543a5.422,5.422,0,0,0-.181,3.138l.546,2.27a2.218,2.218,0,0,1-.088,1.323,2.233,2.233,0,0,0,.362,2.247l2.085,2.5a2.624,2.624,0,0,0,2.012.94,2.647,2.647,0,0,1,.827.128l.761.247a2.62,2.62,0,0,0,2.629-.605l1.882-1.813a5.622,5.622,0,0,0,1.531-5.5l-2.6-9.741a1.887,1.887,0,0,0-1.7-1.4" transform="translate(-26.282 -19.322)" fill="#262626"/>
          <rect id="Rectángulo_382759" data-name="Rectángulo 382759" width="0.781" height="10.099" transform="translate(116.778 87.201) rotate(-76.378)" fill="#262626"/>
          <path id="Trazado_823742" data-name="Trazado 823742" d="M116.664,366.641l-.729-.285,2.637-6.74-10.883-4.06.274-.732,11.627,4.338Z" transform="translate(-23.512 -77.468)" fill="#262626"/>
        </g>
      </g>
      <rect id="Rectángulo_382761" data-name="Rectángulo 382761" width="104.826" height="0.782" transform="translate(280.799 300.22)" fill="#262626"/>
      <g id="Grupo_1073470" data-name="Grupo 1073470">
        <g id="Grupo_1073469" data-name="Grupo 1073469" clip-path="url(#clip-path)">
          <path id="Trazado_823743" data-name="Trazado 823743" d="M419.536,97.977c0,1.115-2.05,2.014-2.257,3.068-.215,1.086,1.33,2.7.916,3.7-.422,1.016-2.659,1.062-3.264,1.966s.2,2.995-.571,3.766-2.856-.038-3.767.571-.949,2.842-1.965,3.263c-1,.414-2.612-1.131-3.7-.916-1.054.209-1.953,2.257-3.068,2.257s-2.014-2.049-3.068-2.257c-1.086-.215-2.7,1.33-3.7.916-1.017-.421-1.062-2.659-1.966-3.263s-2.995.2-3.766-.572.038-2.855-.572-3.766-2.841-.949-3.263-1.965c-.414-1,1.131-2.612.916-3.7-.208-1.054-2.257-1.953-2.257-3.068s2.049-2.014,2.257-3.068c.215-1.086-1.33-2.7-.915-3.7.421-1.016,2.658-1.062,3.263-1.966s-.2-2.995.571-3.766,2.856.038,3.767-.571.949-2.842,1.965-3.263c1-.414,2.612,1.131,3.7.916,1.054-.209,1.953-2.257,3.068-2.257s2.014,2.049,3.068,2.257c1.086.215,2.7-1.33,3.7-.916,1.016.421,1.062,2.658,1.965,3.263s2.995-.2,3.767.572-.038,2.856.571,3.766,2.842.949,3.263,1.966c.414,1-1.131,2.612-.916,3.7.208,1.054,2.257,1.953,2.257,3.068" transform="translate(-83.879 -17.532)" fill="#262626"/>
          <path id="Trazado_823744" data-name="Trazado 823744" d="M405.278,134.528c-1.044-9.651-1.045-9.668-1.991-18.412a6.609,6.609,0,0,0-13.184.668c0,.081.009.16.012.241.315,8.834.315,8.834.67,18.551a7.271,7.271,0,0,0,14.538-.266,7.591,7.591,0,0,0-.044-.782" transform="translate(-85.171 -24.054)" fill="#f2eadf"/>
          <path id="Trazado_823745" data-name="Trazado 823745" d="M428.52,184q-1.4-15.552-3.02-33.385a6.166,6.166,0,0,0-.353-1.55,5.962,5.962,0,0,0-11.493,2.894c0,.038.007.073.012.11q2.412,17.671,4.517,33.1a5.441,5.441,0,0,0,.281,1.119A5.2,5.2,0,0,0,428.52,184" transform="translate(-90.301 -31.699)" fill="#73716e"/>
          <path id="Trazado_823746" data-name="Trazado 823746" d="M377.364,149.434a5.962,5.962,0,0,0-11.693-1.933c-.013.034-.023.07-.033.1l-9.069,32.157a5.437,5.437,0,0,0-.188,1.138,5.2,5.2,0,0,0,10.134,1.912q4.921-14.82,10.554-31.817a6.187,6.187,0,0,0,.295-1.562" transform="translate(-77.807 -31.255)" fill="#615f5d"/>
          <path id="Trazado_823747" data-name="Trazado 823747" d="M372.515,142.464l-3.737,16.29a19.443,19.443,0,0,0-.492,4.345v.042a19.429,19.429,0,0,0,.388,3.863l5.25,25.884,26.622.217L411.9,144.3l-12.194-4.069-13.1-1.126Z" transform="translate(-80.407 -30.37)" fill="#73716e"/>
          <path id="Trazado_823748" data-name="Trazado 823748" d="M364.264,184.737c-1.509-1.406-5.979-6.027-5.979-6.027l-7.327,8.253s5.616,6.345,6.521,6.883a5.71,5.71,0,0,0,6.786-9.109" transform="translate(-76.624 -39.018)" fill="#73716e"/>
          <path id="Trazado_823749" data-name="Trazado 823749" d="M409.827,142.52l-6.865-2.291-13.1-1.126-6.664,1.589c0,.073-.023.145-.023.218,0,3.654,6.069,6.615,13.555,6.615,6.252,0,11.53-2.2,13.1-5.005" transform="translate(-83.658 -30.37)" fill="#f2eadf"/>
          <path id="Trazado_823750" data-name="Trazado 823750" d="M407.258,323.455a6.5,6.5,0,1,0-12.966-.665c.13,13.012.235,23.119.329,32.228a4.555,4.555,0,0,0,8.3,2.545,4.51,4.51,0,0,0,.761-2.091c1.026-9.049,2.141-19.091,3.577-32.016" transform="translate(-86.085 -69.039)" fill="#262626"/>
          <path id="Trazado_823751" data-name="Trazado 823751" d="M401.323,203.148H372.9l-4.918,10.627-1.084,21.4,43.64-5.208Z" transform="translate(-80.104 -44.353)" fill="#3a1d71"/>
          <path id="Trazado_823752" data-name="Trazado 823752" d="M410.79,298.989a9.543,9.543,0,0,0-19.067-.84c-.006.15,0,.3,0,.445.035,19.085.068,31.8.1,46.546l14.717.649c1.334-14.687,2.484-27.349,4.212-46.355,0-.149.023-.293.03-.444" transform="translate(-85.524 -63.103)" fill="#3a1d71"/>
          <path id="Trazado_823753" data-name="Trazado 823753" d="M388.465,243.9A13.445,13.445,0,1,0,363.8,233.455c-.009.022-.016.043-.024.066s-.025.076-.037.113l-13.577,42.01a9.541,9.541,0,0,0,17.506,7.409c8.617-16.22,8.637-16.256,20.729-39.024l.041-.078.029-.055" transform="translate(-76.349 -48.937)" fill="#3a1d71"/>
          <path id="Trazado_823754" data-name="Trazado 823754" d="M416.16,239.963a13.446,13.446,0,0,0-26.867-1.184c-.017.389-.009.773.007,1.155,1.1,26.472,1.1,26.472,1.889,45.259a9.54,9.54,0,0,0,18.991.837c2.443-18.644,2.443-18.644,5.879-44.916.041-.38.084-.762.1-1.151" transform="translate(-84.992 -49.326)" fill="#3a1d71"/>
          <path id="Trazado_823755" data-name="Trazado 823755" d="M395.743,342.914c-4.117-8.123-8.7-17.125-14.61-28.712a6.5,6.5,0,1,0-11.2,6.572c7.261,10.8,12.9,19.184,17.989,26.741a4.554,4.554,0,0,0,8.332-2.435,4.5,4.5,0,0,0-.513-2.165" transform="translate(-80.525 -67.821)" fill="#3a1d71"/>
          <path id="Trazado_823756" data-name="Trazado 823756" d="M417.046,230.119H415.23a6.825,6.825,0,0,1-5.636-2.973l-7.735-11.308.646-.441,7.735,11.308a6.041,6.041,0,0,0,4.99,2.632h1.816Z" transform="translate(-87.738 -47.028)" fill="#262626"/>
          <path id="Trazado_823757" data-name="Trazado 823757" d="M388.4,242.774l-3.276-4.224V202.1h.782v36.18l3.113,4.012Z" transform="translate(-84.084 -44.125)" fill="#262626"/>
          <rect id="Rectángulo_382762" data-name="Rectángulo 382762" width="0.782" height="14.407" transform="matrix(0.339, -0.941, 0.941, 0.339, 287.746, 189.779)" fill="#262626"/>
          <rect id="Rectángulo_382763" data-name="Rectángulo 382763" width="0.782" height="5.927" transform="translate(311.724 158.795)" fill="#262626"/>
          <rect id="Rectángulo_382764" data-name="Rectángulo 382764" width="0.782" height="5.566" transform="translate(294.265 158.796)" fill="#262626"/>
          <path id="Trazado_823758" data-name="Trazado 823758" d="M385.263,322.565s-16.988-34.578-17.237-35.166a9.542,9.542,0,1,0-16.454,9.4c.29.391,19.522,31.261,19.522,31.261Z" transform="translate(-76.348 -61.476)" fill="#3a1d71"/>
          <path id="Trazado_823759" data-name="Trazado 823759" d="M358.649,179.773a8.149,8.149,0,0,1-2.205,4.627,9.369,9.369,0,0,1-3.579,2.734,3.441,3.441,0,0,1-.478.137,1.566,1.566,0,0,1-1.359-.217c-.5-.434-.55-1.287-.231-2.336.058-.188.131-.39.21-.592a10.962,10.962,0,0,1,1.785-2.842c1.7-1.989,3.724-3.152,4.9-2.892a1.039,1.039,0,0,1,.81.658,1.639,1.639,0,0,1,.145.723" transform="translate(-76.545 -38.94)" fill="#262626"/>
          <path id="Trazado_823760" data-name="Trazado 823760" d="M400.421,365.166l.585,12.823H374.581v-3.32s14.319-2.408,16.923-9.5Z" transform="translate(-81.782 -79.726)" fill="#262626"/>
          <rect id="Rectángulo_382765" data-name="Rectángulo 382765" width="26.426" height="2.181" transform="translate(292.8 298.262)" fill="#73716e"/>
          <rect id="Rectángulo_382766" data-name="Rectángulo 382766" width="0.782" height="4.579" transform="translate(295.035 294.492) rotate(-17.535)" fill="#73716e"/>
          <rect id="Rectángulo_382767" data-name="Rectángulo 382767" width="19.07" height="0.782" transform="translate(300.156 298.962)" fill="#262626"/>
          <rect id="Rectángulo_382768" data-name="Rectángulo 382768" width="0.782" height="2.343" transform="translate(299.765 298.101)" fill="#262626"/>
          <path id="Trazado_823761" data-name="Trazado 823761" d="M398.2,347.4l7.676,6.43-15.59,21.338-2.68-1.958s4.357-8.068,2.024-21.207Z" transform="translate(-84.626 -75.848)" fill="#73716e"/>
          <path id="Trazado_823762" data-name="Trazado 823762" d="M392.846,378.946l-4.12-1.379.247-.742,4.12,1.379Z" transform="translate(-84.87 -82.272)" fill="#f2eadf"/>
          <rect id="Rectángulo_382769" data-name="Rectángulo 382769" width="26.426" height="2.18" transform="translate(305.663 299.324) rotate(-53.849)" fill="#f2eadf"/>
          <rect id="Rectángulo_382770" data-name="Rectángulo 382770" width="19.071" height="0.781" transform="matrix(0.59, -0.807, 0.807, 0.59, 310.564, 293.796)" fill="#262626"/>
          <rect id="Rectángulo_382771" data-name="Rectángulo 382771" width="0.781" height="2.18" transform="translate(309.771 293.701) rotate(-53.853)" fill="#262626"/>
          <path id="Trazado_823763" data-name="Trazado 823763" d="M400.005,360.1a3.347,3.347,0,0,1-3.343-3.343h.782a2.56,2.56,0,1,0,.324-1.248l-.682-.381a3.344,3.344,0,1,1,2.92,4.973" transform="translate(-86.603 -77.16)" fill="#f2eadf"/>
          <path id="Trazado_823764" data-name="Trazado 823764" d="M406.861,197.881h-26.03a.98.98,0,0,1-.922-1.446l13.232-36.486a2.283,2.283,0,0,1,1.971-1.446h26.03a.979.979,0,0,1,.922,1.446l-13.231,36.486a2.284,2.284,0,0,1-1.971,1.446" transform="translate(-82.925 -34.606)" fill="#f2eadf"/>
          <path id="Trazado_823765" data-name="Trazado 823765" d="M407.786,198.806h-26.03a.98.98,0,0,1-.922-1.446l13.232-36.486a2.283,2.283,0,0,1,1.97-1.446h26.03a.979.979,0,0,1,.922,1.446L409.757,197.36a2.284,2.284,0,0,1-1.971,1.446" transform="translate(-83.127 -34.808)" fill="#262626"/>
          <path id="Trazado_823766" data-name="Trazado 823766" d="M392.66,180.76c-2.919-.253-4.058-.349-6.006-.513-.028,0-.055,0-.082,0a.97.97,0,0,0-.238,1.912c1.9.477,3,.753,5.847,1.462a1.731,1.731,0,0,0,.357.044,1.453,1.453,0,0,0,.122-2.9" transform="translate(-84.186 -39.352)" fill="#f2eadf"/>
          <path id="Trazado_823767" data-name="Trazado 823767" d="M393.629,175.375a1.468,1.468,0,0,0-.2.02c-2.323.319-2.323.319-3.873.535l-.109.026c-1.6.41-1.6.41-2.551.655a.59.59,0,0,0-.433.557.573.573,0,0,0,.551.57c.973.05.983.05,2.6.125l3.859.417c.052,0,.1.009.158.009a1.457,1.457,0,1,0,0-2.914" transform="translate(-84.375 -38.289)" fill="#f2eadf"/>
          <path id="Trazado_823768" data-name="Trazado 823768" d="M392.074,184.283c-2.793-.88-2.864-.9-4.729-1.486a1.176,1.176,0,0,0-.293-.045.968.968,0,0,0-.467,1.821c1.713.937,1.778.972,4.349,2.372a1.547,1.547,0,0,0,.7.179,1.452,1.452,0,0,0,.437-2.841" transform="translate(-84.291 -39.9)" fill="#f2eadf"/>
          <path id="Trazado_823769" data-name="Trazado 823769" d="M391.684,187.335c-2.445-1.2-2.445-1.2-4.078-2a1.014,1.014,0,0,0-.431-.1.976.976,0,0,0-.978.972.965.965,0,0,0,.373.759c1.423,1.127,1.423,1.127,3.56,2.812a1.5,1.5,0,0,0,.911.317,1.453,1.453,0,0,0,.643-2.762" transform="translate(-84.318 -40.442)" fill="#f2eadf"/>
          <path id="Trazado_823770" data-name="Trazado 823770" d="M391.157,189.634c-2.006-.706-2.006-.706-3.262-1.144a1.055,1.055,0,0,0-.258-.044.776.776,0,0,0-.779.774.76.76,0,0,0,.342.624c1.088.766,1.088.766,2.838,1.971a1.257,1.257,0,0,0,.707.22,1.233,1.233,0,0,0,.41-2.4" transform="translate(-84.462 -41.143)" fill="#f2eadf"/>
          <path id="Trazado_823771" data-name="Trazado 823771" d="M420.535,186.952l-17.187-6.57-5.218-4.424L395,175.394l-2.107,2.075,1.008,2.214-2.067,9.5h1.62l7.15-1.542,15.285,7.772a4.893,4.893,0,0,0,1.113.566l.035.018a5.009,5.009,0,0,0,1.617.274,4.844,4.844,0,0,0,1.882-9.32" transform="translate(-85.548 -38.294)" fill="#f2eadf"/>
          <rect id="Rectángulo_382772" data-name="Rectángulo 382772" width="0.781" height="3.391" transform="matrix(0.298, -0.954, 0.954, 0.298, 304.218, 143.671)" fill="#262626"/>
          <path id="Trazado_823772" data-name="Trazado 823772" d="M353.627,171.8a8.149,8.149,0,0,1-2.205,4.627,9.369,9.369,0,0,1-3.579,2.734,3.439,3.439,0,0,1-.478.137c-.492-.781-1.026-1.641-1.591-2.552-4.627-7.484-11.178-18.583-11.178-18.583l-.413-1.981-6.587-8.518,3.645-5.82,9.681,1.923.384,10.68,11.865,16.2.311.434a1.639,1.639,0,0,1,.145.723" transform="translate(-71.524 -30.969)" fill="#f2eadf"/>
          <path id="Trazado_823773" data-name="Trazado 823773" d="M338.213,141.726l-.667,6.414-2.288,1.119-5.3-3.117,5.556-5.305Z" transform="translate(-72.038 -30.749)" fill="#262626"/>
          <path id="Trazado_823774" data-name="Trazado 823774" d="M331.294,144.484a1.185,1.185,0,0,0-1.08-1.788,1.178,1.178,0,0,0-.922.527c-.961,1.43-.961,1.43-2,2.981a1.3,1.3,0,0,0-.215.779,1.284,1.284,0,0,0,2.387.589c.95-1.6.952-1.606,1.824-3.08l.005-.009" transform="translate(-71.41 -31.154)" fill="#f2eadf"/>
          <path id="Trazado_823775" data-name="Trazado 823775" d="M339.356,143.306c-.42-.842-.422-.847-1.008-2.015a.864.864,0,1,0-1.448.918c.83,1.028.83,1.028,1.425,1.761a.645.645,0,0,0,.51.227.617.617,0,0,0,.585-.648.611.611,0,0,0-.066-.244" transform="translate(-73.512 -30.741)" fill="#73716e"/>
          <path id="Trazado_823776" data-name="Trazado 823776" d="M338.472,146.523c-.665-1.041-.818-1.276-1.76-2.726a.865.865,0,0,0-1.588.515.862.862,0,0,0,.221.529c1.147,1.293,1.334,1.5,2.156,2.423a.649.649,0,0,0,.492.206.619.619,0,0,0,.585-.649.6.6,0,0,0-.107-.3" transform="translate(-73.167 -31.309)" fill="#73716e"/>
          <path id="Trazado_823777" data-name="Trazado 823777" d="M336.567,148.131c-.589-1.031-.589-1.031-1.455-2.526a.865.865,0,0,0-1.612.478.857.857,0,0,0,.211.517c1.123,1.312,1.123,1.312,1.9,2.212a.626.626,0,0,0,.481.206.594.594,0,0,0,.563-.624.573.573,0,0,0-.084-.263" transform="translate(-72.812 -31.696)" fill="#73716e"/>
          <path id="Trazado_823778" data-name="Trazado 823778" d="M339.135,136.886a1.281,1.281,0,0,0-.449.109,3.968,3.968,0,0,1-2.644.5c-.034,0-.068,0-.1,0a.874.874,0,1,0,.089,1.745.894.894,0,0,0,.1-.016s2.681.235,2.681.235a1.426,1.426,0,0,0,.457.058,1.315,1.315,0,0,0-.134-2.627" transform="translate(-73.164 -29.886)" fill="#f2eadf"/>
          <path id="Trazado_823779" data-name="Trazado 823779" d="M343.174,141.964c-1.129-2.436-1.133-2.445-2-4.319a1.315,1.315,0,0,0-2.507.621,1.268,1.268,0,0,0,.048.285c.553,1.991.554,2,1.266,4.558a1.7,1.7,0,0,0,3.352-.514,1.7,1.7,0,0,0-.157-.63" transform="translate(-73.94 -29.886)" fill="#f2eadf"/>
          <path id="Trazado_823780" data-name="Trazado 823780" d="M334.486,136.909c-1.227-2.913-4.3-10.18-4.8-11.362a.673.673,0,0,0-.453-.377.643.643,0,0,0-.766.488.634.634,0,0,0,.011.295c.31,1.248,2.25,8.9,3.027,11.96a1.579,1.579,0,1,0,2.983-1" transform="translate(-71.71 -27.325)" fill="#f2eadf"/>
          <path id="Trazado_823781" data-name="Trazado 823781" d="M337.172,140.291c-1.225-1.057-1.225-1.057-2.907-2.5a1.185,1.185,0,1,0-1.387,1.913l3.284,1.985a.863.863,0,0,0,1.01-1.394" transform="translate(-72.552 -30.02)" fill="#f2eadf"/>
          <path id="Trazado_823782" data-name="Trazado 823782" d="M335.59,142.892c-1.225-1.057-1.225-1.057-2.907-2.5A1.185,1.185,0,1,0,331.3,142.3l3.284,1.985a.863.863,0,0,0,1.01-1.394" transform="translate(-72.206 -30.588)" fill="#f2eadf"/>
          <path id="Trazado_823783" data-name="Trazado 823783" d="M334.04,144.809c-1.05-.793-1.05-.793-2.492-1.877a1.208,1.208,0,0,0-.772-.236,1.181,1.181,0,0,0-.441,2.252c1.63.771,1.63.771,2.82,1.331a.912.912,0,0,0,.412.081.861.861,0,0,0,.473-1.551" transform="translate(-71.972 -31.154)" fill="#f2eadf"/>
          <rect id="Rectángulo_382773" data-name="Rectángulo 382773" width="0.781" height="7.758" transform="matrix(0.727, -0.687, 0.687, 0.727, 281.625, 139.961)" fill="#262626"/>
          <rect id="Rectángulo_382774" data-name="Rectángulo 382774" width="7.471" height="0.782" transform="translate(323.299 189.02)" fill="#262626"/>
          <rect id="Rectángulo_382775" data-name="Rectángulo 382775" width="11.639" height="0.782" transform="translate(287.878 133.123)" fill="#262626"/>
          <rect id="Rectángulo_382776" data-name="Rectángulo 382776" width="5.598" height="0.782" transform="translate(322.133 125.979)" fill="#f2eadf"/>
          <path id="Trazado_823784" data-name="Trazado 823784" d="M344.8,158.151a1.457,1.457,0,0,0-.564-.109,1.725,1.725,0,0,0-.333.037l.514.708a.312.312,0,0,1,.116.029,1.332,1.332,0,0,1,.665,1.034,4.328,4.328,0,0,1,.094.8,9.761,9.761,0,0,1-.788,3.781c-.954,2.365-2.365,3.84-3.334,4.079a.885.885,0,0,1-.549-.015c-.455-.188-.737-.854-.759-1.837a2.649,2.649,0,0,1,.007-.332q-.335-.553-.628-1.063a7.532,7.532,0,0,0-.1,1.417c.036,1.3.463,2.184,1.208,2.487a1.648,1.648,0,0,0,.564.109,1.874,1.874,0,0,0,.644-.123c1.28-.441,2.69-2.148,3.622-4.447a10.885,10.885,0,0,0,.832-3.753,2.429,2.429,0,0,0,.007-.318c-.036-1.309-.47-2.191-1.215-2.487" transform="translate(-74.042 -34.505)" fill="#f2eadf"/>
          <path id="Trazado_823785" data-name="Trazado 823785" d="M380.372,121.854a2.091,2.091,0,0,1-.5-1.91l.262-1.068-.7-.958.821-1.837-.994-1.878.677-1.223-.916-.61a1.191,1.191,0,0,1-.2-1.806l2.877-3.027a1.867,1.867,0,0,0,.515-1.288,1.892,1.892,0,0,0-.146-.736l-.086-.2a4.789,4.789,0,0,1-.173-3.238l.738-2.461a4.8,4.8,0,0,1,1.165-1.975l4.941-5.053h15.157l6.2,10.789-2.359,9.741-25.021,9.295a2.078,2.078,0,0,1-2.263-.552" transform="translate(-82.637 -20.213)" fill="#f2eadf"/>
          <path id="Trazado_823786" data-name="Trazado 823786" d="M387.582,108.551l-1.455-.943-2.966-.021.006-.782,3.193.023,1.645,1.067Z" transform="translate(-83.655 -23.319)" fill="#262626"/>
          <rect id="Rectángulo_382777" data-name="Rectángulo 382777" width="1.409" height="0.781" transform="translate(300.345 86.254) rotate(-82.875)" fill="#262626"/>
          <rect id="Rectángulo_382778" data-name="Rectángulo 382778" width="0.781" height="3.357" transform="matrix(0.332, -0.943, 0.943, 0.332, 299.991, 86.474)" fill="#262626"/>
          <path id="Trazado_823787" data-name="Trazado 823787" d="M384.453,112.536v-1.973h.782v.841l1.454-.551.277.731Z" transform="translate(-83.937 -24.139)" fill="#262626"/>
          <path id="Trazado_823788" data-name="Trazado 823788" d="M399.994,108.7l-2.588,2.445a2.893,2.893,0,0,1-1.488-2.918l.215-1.624a2.916,2.916,0,0,0-1.156-2.726l-1.736-1.286a1.935,1.935,0,0,1-.4-2.7l1.9-2.548-2.866-1.19a3.082,3.082,0,0,1-1.391-4.544c.021-.031,16.576-.031,16.576-.031l6.421,11.444-2.751,11.008-6.674,5.384L402.8,108.786Z" transform="translate(-85.142 -19.994)" fill="#262626"/>
          <path id="Trazado_823789" data-name="Trazado 823789" d="M399.919,118.7l1.048.317,3.961-1.459a2.357,2.357,0,0,0,1.543-2.213v-1.409a2.382,2.382,0,0,0-4.142-1.579l-2.847,3.154Z" transform="translate(-87.218 -24.361)" fill="#f2eadf"/>
          <path id="Trazado_823790" data-name="Trazado 823790" d="M382.511,122.047h-2.379l-.435-.427a1.769,1.769,0,0,1-.528-1.261v-.453Z" transform="translate(-82.783 -26.179)" fill="#262626"/>
          <path id="Trazado_823791" data-name="Trazado 823791" d="M380.132,122.645l-.707.79a1.011,1.011,0,0,0-.256.672v.634l3.342-2.1Z" transform="translate(-82.783 -26.777)" fill="#262626"/>
          <rect id="Rectángulo_382779" data-name="Rectángulo 382779" width="10.905" height="0.781" transform="translate(308.675 98.552) rotate(-20.376)" fill="#262626"/>
          <path id="Trazado_823792" data-name="Trazado 823792" d="M383.7,122.827h-2.662v-.782h1.881v-.356h.782Z" transform="translate(-83.192 -26.568)" fill="#262626"/>
          <rect id="Rectángulo_382780" data-name="Rectángulo 382780" width="4.045" height="0.781" transform="translate(313.941 91.354) rotate(-47.393)" fill="#201600"/>
          <rect id="Rectángulo_382781" data-name="Rectángulo 382781" width="15.197" height="0.781" transform="matrix(0.932, -0.361, 0.361, 0.932, 294.604, 266.217)" fill="#262626"/>
        </g>
      </g>
      <rect id="Rectángulo_382783" data-name="Rectángulo 382783" width="129.738" height="3.546" transform="translate(262.868 204.592)" fill="#73716e"/>
      <path id="Trazado_823793" data-name="Trazado 823793" d="M463.311,264.564H332.791v-4.327h130.52Zm-129.738-.782H462.529v-2.764H333.573Z" transform="translate(-72.658 -56.817)" fill="#262626"/>
      <g id="Grupo_1073472" data-name="Grupo 1073472">
        <g id="Grupo_1073471" data-name="Grupo 1073471" clip-path="url(#clip-path)">
          <path id="Trazado_823794" data-name="Trazado 823794" d="M458.908,229.65H384.084a1.57,1.57,0,0,1-1.283-.591,1.667,1.667,0,0,1-.245-1.456l11.484-43.239a2.557,2.557,0,0,1,2.355-1.847H471.22a1.57,1.57,0,0,1,1.281.592,1.664,1.664,0,0,1,.246,1.456L461.263,227.8a2.556,2.556,0,0,1-2.355,1.847M396.395,183.3a1.793,1.793,0,0,0-1.6,1.267L383.312,227.8a.881.881,0,0,0,.109.779.807.807,0,0,0,.663.287h74.825a1.791,1.791,0,0,0,1.6-1.266l11.484-43.239a.879.879,0,0,0-.11-.779.8.8,0,0,0-.661-.287Z" transform="translate(-83.508 -39.849)" fill="#262626"/>
          <path id="Trazado_823795" data-name="Trazado 823795" d="M461.018,229.37H386.193a1.159,1.159,0,0,1-1.15-1.557l11.484-43.238a2.176,2.176,0,0,1,1.977-1.556H473.33a1.159,1.159,0,0,1,1.15,1.556L463,227.812a2.175,2.175,0,0,1-1.977,1.557" transform="translate(-84.054 -39.958)" fill="#fff"/>
          <rect id="Rectángulo_382784" data-name="Rectángulo 382784" width="12.641" height="19.893" transform="translate(340.284 169.519)" fill="#73716e"/>
          <path id="Trazado_823796" data-name="Trazado 823796" d="M460.908,229.65H386.084a1.57,1.57,0,0,1-1.283-.591,1.667,1.667,0,0,1-.245-1.456l11.484-43.239a2.557,2.557,0,0,1,2.355-1.847H473.22a1.57,1.57,0,0,1,1.281.592,1.664,1.664,0,0,1,.246,1.456L463.263,227.8a2.556,2.556,0,0,1-2.355,1.847M398.395,183.3a1.793,1.793,0,0,0-1.6,1.267L385.312,227.8a.881.881,0,0,0,.109.779.807.807,0,0,0,.663.287h74.825a1.791,1.791,0,0,0,1.6-1.266l11.484-43.239a.879.879,0,0,0-.11-.779.8.8,0,0,0-.661-.287Z" transform="translate(-83.945 -39.849)" fill="#262626"/>
          <path id="Trazado_823797" data-name="Trazado 823797" d="M456.585,251.345H443.84L435.1,216.867h12.745Z" transform="translate(-94.995 -47.348)" fill="#fff"/>
          <path id="Trazado_823798" data-name="Trazado 823798" d="M456.947,251.627H443.4l-8.937-35.259H448.01ZM444,250.845h11.938l-8.539-33.7H435.463Z" transform="translate(-94.855 -47.239)" fill="#262626"/>
          <path id="Trazado_823799" data-name="Trazado 823799" d="M435.1,216.867h0Z" transform="translate(-94.995 -47.348)" fill="#fff"/>
          <rect id="Rectángulo_382785" data-name="Rectángulo 382785" width="16.858" height="0.782" transform="translate(340.107 169.128)" fill="#262626"/>
          <rect id="Rectángulo_382786" data-name="Rectángulo 382786" width="5.26" height="0.782" transform="translate(316.709 145.116)" fill="#262626"/>
          <rect id="Rectángulo_382787" data-name="Rectángulo 382787" width="0.894" height="0.782" transform="translate(324.283 145.116)" fill="#262626"/>
          <rect id="Rectángulo_382788" data-name="Rectángulo 382788" width="0.782" height="95.358" transform="translate(344.541 207.43) rotate(-10.942)" fill="#262626"/>
        </g>
      </g>
      <g id="Grupo_1073474" data-name="Grupo 1073474">
        <g id="Grupo_1073473" data-name="Grupo 1073473" clip-path="url(#clip-path)">
          <path id="Trazado_823800" data-name="Trazado 823800" d="M286.057,359.352l-3.15,17.853h33.456v-4.356s-11.776.7-23.929-11.453Z" transform="translate(-61.767 -78.457)" fill="#73716e"/>
          <path id="Trazado_823801" data-name="Trazado 823801" d="M299.484,378.863l-.648-.438a6.627,6.627,0,0,1,6.9-2.336l.975-2.267-11.466-7.216.416-.66,12.033,7.571-1.5,3.491-.324-.083a5.79,5.79,0,0,0-6.381,1.938" transform="translate(-64.46 -79.896)" fill="#f2eadf"/>
          <rect id="Rectángulo_382790" data-name="Rectángulo 382790" width="33.456" height="1.707" transform="translate(221.14 298.747)" fill="#262626"/>
          <path id="Trazado_823802" data-name="Trazado 823802" d="M291.914,380.622a7.916,7.916,0,0,0-7.957-5.411l-.071-.779a8.719,8.719,0,0,1,8.766,5.935Z" transform="translate(-61.98 -81.747)" fill="#f2eadf"/>
          <path id="Trazado_823803" data-name="Trazado 823803" d="M313.222,374.615c-.525-.081-.677-.761-.869-1.622a7,7,0,0,0-.251-.933,6.977,6.977,0,0,0-.659.741c-.546.671-.978,1.205-1.473,1.045s-.562-.86-.628-1.746a7.2,7.2,0,0,0-.109-.939,6.88,6.88,0,0,0-.766.664c-.615.586-1.1,1.047-1.563.839-.5-.227-.469-.981-.433-1.854a6.754,6.754,0,0,0,0-.936,10.174,10.174,0,0,0-.92.657c-.658.5-1.135.868-1.539.628-.7-.415-.428-1.318-.226-1.977a2.374,2.374,0,0,0,.17-.863l.463-.625c.525.374.307,1.088.114,1.717a2.353,2.353,0,0,0-.177,1.006,6.776,6.776,0,0,0,.719-.507c.707-.542,1.319-1.011,1.814-.752.424.22.4.834.363,1.684a7.267,7.267,0,0,0,0,1.013,7.819,7.819,0,0,0,.674-.6c.635-.6,1.137-1.078,1.62-.894.46.178.51.84.573,1.677a7.784,7.784,0,0,0,.111.956,7.989,7.989,0,0,0,.605-.689c.543-.668.97-1.2,1.466-1.078s.628.767.813,1.592a4.109,4.109,0,0,0,.32,1.062.181.181,0,0,0-.1-.042Z" transform="translate(-66.275 -80.278)" fill="#f2eadf"/>
          <path id="Trazado_823804" data-name="Trazado 823804" d="M315.782,291.313a10.591,10.591,0,0,0-21.041-1.733c-3.48,20.907-6.83,41.1-9.874,59.442l18.579,2.606,12.11-58.136a10.645,10.645,0,0,0,.227-2.179" transform="translate(-62.195 -61.288)" fill="#262626"/>
          <path id="Trazado_823805" data-name="Trazado 823805" d="M301.04,289.066a10.591,10.591,0,0,0-9.134-10.485c-20.991-2.94-27.432-3.839-57.364-8.014a18.153,18.153,0,0,0-2.088-.145,15.111,15.111,0,0,0,0,30.221c.086,0,.17-.012.256-.013,30.216-.5,36.719-.61,57.911-.969a10.6,10.6,0,0,0,10.418-10.6" transform="translate(-47.452 -59.041)" fill="#262626"/>
          <rect id="Rectángulo_382791" data-name="Rectángulo 382791" width="6.183" height="0.782" transform="translate(238.003 251.058) rotate(-40.011)" fill="#262626"/>
          <path id="Trazado_823806" data-name="Trazado 823806" d="M292.191,287.259,224.108,276.31a15.1,15.1,0,1,0-2.95,29.99c30.207.892,47.889,1.405,69.075,2.021a11.886,11.886,0,0,0,1.785-.1,10.6,10.6,0,0,0,.174-20.962" transform="translate(-45.081 -60.28)" fill="#f2eadf"/>
          <path id="Trazado_823807" data-name="Trazado 823807" d="M223.6,196.16a7.755,7.755,0,0,0-14.695-3.467c-3.886,7.757-3.886,7.757-7.765,15.516a7.756,7.756,0,1,0,13.875,6.938c3.886-7.757,3.886-7.757,7.766-15.517a7.81,7.81,0,0,0,.819-3.47" transform="translate(-43.736 -41.133)" fill="#f2eadf"/>
          <path id="Trazado_823808" data-name="Trazado 823808" d="M201.893,205.959l11.233,8.17a41.089,41.089,0,0,1,13.441,16.677l.064.145a41.09,41.09,0,0,1,2.719,8.664l4.644,23.717-30.048,16.747L192.91,240.64a36.683,36.683,0,0,1,.263-20.664l.054-.174a31.022,31.022,0,0,1,7.109-12.195Z" transform="translate(-41.821 -44.967)" fill="#73716e"/>
          <path id="Trazado_823809" data-name="Trazado 823809" d="M288.683,278.328c-.746-1.057-2.693-3.762-4.039-5.633a1.211,1.211,0,0,0-.936-.479,1.149,1.149,0,0,0-.825,1.953c1.6,1.657,3.921,4.051,4.821,4.98a.646.646,0,0,0,1.11-.45.628.628,0,0,0-.131-.37" transform="translate(-61.69 -59.432)" fill="#f2eadf"/>
          <path id="Trazado_823810" data-name="Trazado 823810" d="M283.767,273.367a1.152,1.152,0,0,0-1.152-1.152,1.07,1.07,0,0,0-.142.028c-1.783.206-1.783.206-3.79.461a1.3,1.3,0,0,0,.163,2.589,1.292,1.292,0,0,0,.265-.027l3.736-.77a1.18,1.18,0,0,0,.92-1.129" transform="translate(-60.596 -59.432)" fill="#f2eadf"/>
          <path id="Trazado_823811" data-name="Trazado 823811" d="M274.823,272.885l-8.746,2.231-5.16-1.251-.27,7.95H268.5l7.228-2.809Z" transform="translate(-56.907 -59.579)" fill="#f2eadf"/>
          <path id="Trazado_823812" data-name="Trazado 823812" d="M284.161,278.919a.966.966,0,0,0-.923-.962c-1.631-.091-1.631-.091-3.564-.189-.02.009-.037,0-.058,0a1.152,1.152,0,1,0,0,2.3c.021,0,.038-.01.058-.012,1.933-.087,1.933-.087,3.564-.17a.98.98,0,0,0,.923-.971" transform="translate(-60.796 -60.644)" fill="#f2eadf"/>
          <path id="Trazado_823813" data-name="Trazado 823813" d="M288.067,279.286c-.807-1.011-2.651-3.286-4.1-5.077a1.206,1.206,0,0,0-.9-.428,1.152,1.152,0,0,0-1.152,1.153,1.136,1.136,0,0,0,.387.848c1.7,1.552,3.875,3.517,4.834,4.383a.672.672,0,0,0,.433.167.646.646,0,0,0,.646-.646.633.633,0,0,0-.151-.4" transform="translate(-61.551 -59.774)" fill="#f2eadf"/>
          <path id="Trazado_823814" data-name="Trazado 823814" d="M287,280.926c-.66-.852-.8-1.029-2-2.558a1.02,1.02,0,0,0-.764-.371.972.972,0,0,0-.972.972.955.955,0,0,0,.406.769c1.55,1.171,1.731,1.305,2.6,1.946a.606.606,0,0,0,.32.106.538.538,0,0,0,.538-.539.526.526,0,0,0-.121-.327" transform="translate(-61.845 -60.695)" fill="#f2eadf"/>
          <rect id="Rectángulo_382792" data-name="Rectángulo 382792" width="0.782" height="2.845" transform="translate(157.992 189.455) rotate(-86.014)" fill="#262626"/>
          <path id="Trazado_823815" data-name="Trazado 823815" d="M213.521,277.251l-.666-.409,6.337-10.295.666.409Z" transform="translate(-46.472 -58.195)" fill="#262626"/>
          <path id="Trazado_823816" data-name="Trazado 823816" d="M225.395,234.023l-.781-.041.313-6.025.781.041Z" transform="translate(-49.04 -49.769)" fill="#262626"/>
          <path id="Trazado_823817" data-name="Trazado 823817" d="M228.68,249.928c-6.217-12.111-7.9-15.39-15.506-30.19a8.317,8.317,0,1,0-14.427,8.244c8.884,14.069,10.854,17.184,18.128,28.692a6.8,6.8,0,0,0,11.8-6.746" transform="translate(-43.11 -46.989)" fill="#73716e"/>
          <path id="Trazado_823818" data-name="Trazado 823818" d="M255.181,278.951l2.254-7.85a75.844,75.844,0,0,1-25-14.34,6.8,6.8,0,1,0-9.049,10.154,6.991,6.991,0,0,0,.579.437c12.962,9.765,31.211,11.6,31.211,11.6" transform="translate(-48.24 -55.65)" fill="#73716e"/>
          <path id="Trazado_823819" data-name="Trazado 823819" d="M283.3,274.934a1.152,1.152,0,0,0-1.152-1.152c-.036,0-.066.016-.1.02-1.491.116-1.491.116-3.171.265a1.3,1.3,0,0,0,.114,2.594,1.347,1.347,0,0,0,.234-.023c1.659-.3,1.659-.3,3.13-.57a1.179,1.179,0,0,0,.946-1.133" transform="translate(-60.628 -59.774)" fill="#f2eadf"/>
          <rect id="Rectángulo_382793" data-name="Rectángulo 382793" width="0.782" height="31.1" transform="translate(157.348 184.443) rotate(-32.452)" fill="#262626"/>
          <rect id="Rectángulo_382794" data-name="Rectángulo 382794" width="4.924" height="0.782" transform="translate(181.335 205.132) rotate(-46.621)" fill="#262626"/>
          <rect id="Rectángulo_382795" data-name="Rectángulo 382795" width="2.609" height="0.782" transform="translate(218.785 213.852) rotate(-5.05)" fill="#262626"/>
          <path id="Trazado_823820" data-name="Trazado 823820" d="M349.164,365.15v12.279h33.272v-4.584s-12.392.736-25.18-12.053Z" transform="translate(-76.232 -78.771)" fill="#73716e"/>
          <path id="Trazado_823821" data-name="Trazado 823821" d="M357.584,380.424a8.239,8.239,0,0,0-8.394-5.709l-.07-.779a9.155,9.155,0,0,1,9.2,6.232Z" transform="translate(-76.223 -81.638)" fill="#f2eadf"/>
          <path id="Trazado_823822" data-name="Trazado 823822" d="M364.121,378.567l-.649-.437a6.954,6.954,0,0,1,7.253-2.445l1.04-2.418-12.081-7.6L360.1,365l12.647,7.959-1.566,3.642-.324-.083a6.182,6.182,0,0,0-6.736,2.046" transform="translate(-78.529 -79.691)" fill="#f2eadf"/>
          <rect id="Rectángulo_382796" data-name="Rectángulo 382796" width="33.272" height="1.796" transform="translate(272.932 298.658)" fill="#73716e"/>
          <path id="Trazado_823823" data-name="Trazado 823823" d="M320.31,295.538a10.595,10.595,0,1,0-17.641,11.731c12.1,17.4,25.107,36.117,35.724,51.386l15.482-10.3c-9.973-15.7-22.2-34.932-33.565-52.821" transform="translate(-65.666 -63.452)" fill="#f2eadf"/>
          <path id="Trazado_823824" data-name="Trazado 823824" d="M374.648,372.387c-.512-.188-.525-.915-.541-1.836a7.033,7.033,0,0,0-.068-1.045,6.838,6.838,0,0,0-.864.639c-.7.571-1.248,1.025-1.716.765s-.387-.993-.27-1.913a6.311,6.311,0,0,0,.081-1.056c-.17.076-.654.379-.956.567-.754.471-1.348.841-1.767.536-.457-.332-.267-1.1-.047-1.983a6.66,6.66,0,0,0,.2-.989,8.486,8.486,0,0,0-1.119.485c-.775.376-1.338.649-1.695.326-.627-.567-.175-1.4.188-2.061.141-.259.4-.739.359-.869l.576-.528c.452.486.08,1.169-.249,1.771-.193.353-.449.822-.392,1.035a6.612,6.612,0,0,0,.872-.378c.839-.406,1.563-.758,2.009-.395.38.307.226.929.012,1.79a7.094,7.094,0,0,0-.213,1.083,7.632,7.632,0,0,0,.854-.487c.775-.485,1.386-.867,1.838-.58.426.274.339.961.227,1.831a7.527,7.527,0,0,0-.086,1.046,7.73,7.73,0,0,0,.8-.6c.695-.568,1.246-1.016,1.717-.8s.474.912.491,1.8A4.261,4.261,0,0,0,375,371.71a.161.161,0,0,0-.079-.055Z" transform="translate(-79.815 -79.346)" fill="#f2eadf"/>
          <path id="Trazado_823825" data-name="Trazado 823825" d="M328.19,284.9H281.179a2.715,2.715,0,0,1-2.716-2.716c0-.027,52.442-.027,52.442-.027a2.721,2.721,0,0,1-2.716,2.743" transform="translate(-60.796 -61.604)" fill="#f2eadf"/>
          <path id="Trazado_823826" data-name="Trazado 823826" d="M328.081,285.187H281.069a3.109,3.109,0,0,1-3.106-3.106c0-.4,0-.4,2.644-.4l5.941-.008c4.917,0,11.473-.005,18.028-.007l26.612,0v.391a3.123,3.123,0,0,1-3.106,3.134m-49.3-2.72a2.328,2.328,0,0,0,2.293,1.939h47.011a2.336,2.336,0,0,0,2.293-1.961c-4.713,0-46.984,0-51.6.023" transform="translate(-60.687 -61.495)" fill="#262626"/>
          <path id="Trazado_823827" data-name="Trazado 823827" d="M258.8,315.6h-55.03a4.564,4.564,0,0,1-4.563-4.564v-.045H263.36v.045A4.564,4.564,0,0,1,258.8,315.6" transform="translate(-43.491 -67.898)" fill="#262626"/>
          <rect id="Rectángulo_382797" data-name="Rectángulo 382797" width="127.924" height="0.782" transform="translate(186.326 300.22)" fill="#262626"/>
          <rect id="Rectángulo_382798" data-name="Rectángulo 382798" width="2.593" height="0.782" transform="translate(316.413 300.22)" fill="#262626"/>
          <path id="Trazado_823828" data-name="Trazado 823828" d="M339.243,363.981,305.12,315.6l2.564-3.026.6.506-2.173,2.564,33.336,47.267,15.165-10.084.434.65Z" transform="translate(-66.616 -68.244)" fill="#262626"/>
          <path id="Trazado_823829" data-name="Trazado 823829" d="M183.082,370.359H9.587v-.782H182.436l10.138-52.814h-25.8v-.782h26.75Z" transform="translate(-2.093 -68.988)" fill="#262626"/>
          <path id="Trazado_823830" data-name="Trazado 823830" d="M270.106,283.815h-4.974v-.782h4.817l6.663-2.781.3.722Z" transform="translate(-57.886 -61.187)" fill="#262626"/>
          <path id="Trazado_823831" data-name="Trazado 823831" d="M259.3,279.978l-.761-.18,1.778-7.528a129.77,129.77,0,0,1-22.232-12.441l.441-.646c12.778,8.714,22.3,12.449,22.39,12.486l.317.123Z" transform="translate(-51.981 -56.587)" fill="#262626"/>
          <path id="Trazado_823832" data-name="Trazado 823832" d="M347.93,244.726H321.221a2.333,2.333,0,0,0-1.959,1.389l-11.434,27.874h29.488l11.433-27.874c.315-.767-.052-1.389-.819-1.389" transform="translate(-67.208 -53.431)" fill="#fff"/>
          <path id="Trazado_823833" data-name="Trazado 823833" d="M337.416,274.27H307.084l7.02-17.114.723.3-6.578,16.037h28.643l11.333-27.631a.709.709,0,0,0,.009-.653.543.543,0,0,0-.467-.2H321.06a1.942,1.942,0,0,0-1.6,1.146L318.706,248l-.722-.3.755-1.842a2.718,2.718,0,0,1,2.321-1.631h26.708a1.29,1.29,0,0,1,1.117.542,1.468,1.468,0,0,1,.065,1.386Z" transform="translate(-67.045 -53.322)" fill="#262626"/>
          <path id="Trazado_823834" data-name="Trazado 823834" d="M334.413,265.627a2.1,2.1,0,0,1-1.824-.872,2.435,2.435,0,0,1-.089-2.3l.724.3a1.68,1.68,0,0,0,.014,1.566,1.349,1.349,0,0,0,1.175.526,4.057,4.057,0,0,0,3.347-2.388,1.676,1.676,0,0,0-.015-1.565c-.453-.676-1.739-.679-2.858,0l-.4-.668c1.5-.906,3.213-.8,3.911.236a2.435,2.435,0,0,1,.09,2.3,4.774,4.774,0,0,1-4.071,2.873" transform="translate(-72.542 -56.679)" fill="#262626"/>
          <path id="Trazado_823835" data-name="Trazado 823835" d="M205.731,173.537l-3.328-3.768s-3.073,2.195-3.8,4.755l.988,1.463h2.579l-2.579,2.341.768.732,4.682-3.219Z" transform="translate(-43.36 -37.065)" fill="#3a1d71"/>
          <path id="Trazado_823836" data-name="Trazado 823836" d="M209.936,190.583l17.073,11.7,1.953-.656,2.158-7.823,2.121-.951.366-1.1-2.195-5.706L232.876,184l.292-1.317-.729-4.518a6.955,6.955,0,0,0-2.033-3.894l-6.894-6.658s-13.534-.585-15.728,5.633,2.152,17.337,2.152,17.337" transform="translate(-45.23 -36.591)" fill="#f2eadf"/>
          <path id="Trazado_823837" data-name="Trazado 823837" d="M207.118,195.538l4.718-5.347,2.049-7.1s4.1-.146,4.169,3.8a2.335,2.335,0,0,0,2.3-1.866l.691-3.4a1.834,1.834,0,0,1,1.8-1.468,1.841,1.841,0,0,0,1.867-1.833v-2.483H205.4a19.157,19.157,0,0,0,1.9,13.314Z" transform="translate(-44.747 -38.394)" fill="#3a1d71"/>
          <path id="Trazado_823838" data-name="Trazado 823838" d="M205.523,173.813s4.389-10.271,18.727-6.452a7.863,7.863,0,0,1,4.483.975,3.694,3.694,0,0,1,1.1,5.452c-.019.025-24.315.025-24.315.025" transform="translate(-44.872 -36.354)" fill="#3a1d71"/>
          <path id="Trazado_823839" data-name="Trazado 823839" d="M238.457,188.258l-2.895-1.792-1.565.718-.326-.711,1.946-.892,3.25,2.013Z" transform="translate(-51.017 -40.518)" fill="#262626"/>
          <rect id="Rectángulo_382799" data-name="Rectángulo 382799" width="0.777" height="0.782" transform="translate(184.317 155.32)" fill="#262626"/>
          <rect id="Rectángulo_382800" data-name="Rectángulo 382800" width="2.999" height="0.782" transform="translate(182.233 148.773)" fill="#262626"/>
          <rect id="Rectángulo_382801" data-name="Rectángulo 382801" width="0.782" height="1.427" transform="translate(184.315 147.737)" fill="#262626"/>
          <path id="Trazado_823840" data-name="Trazado 823840" d="M235.393,192.793l-2.07-1.752.506-.6.782.663v-.365h.782Z" transform="translate(-50.941 -41.58)" fill="#262626"/>
          <path id="Trazado_823841" data-name="Trazado 823841" d="M229.435,209.308l-8.5-5.776a5.448,5.448,0,0,1-2.389-4.512V197.8h.782v1.221a4.671,4.671,0,0,0,2.046,3.866l8.178,5.558,1.77-.595.249.74Z" transform="translate(-47.715 -43.185)" fill="#262626"/>
          <path id="Trazado_823842" data-name="Trazado 823842" d="M218.289,189.273v-2.736l-1.479-1.62a1.559,1.559,0,0,0-2.42.159l-1.43,2.054a1.287,1.287,0,0,0-.159,1.162l.9,2.585a6.1,6.1,0,0,0,1.568,2.422l1.665,1.577h.731Z" transform="translate(-46.444 -40.263)" fill="#f2eadf"/>
          <path id="Trazado_823843" data-name="Trazado 823843" d="M217.558,195.159h-.887l-1.778-1.683a6.539,6.539,0,0,1-1.668-2.578l-.9-2.585a1.688,1.688,0,0,1,.207-1.514l1.432-2.054a1.948,1.948,0,0,1,3.029-.2l1.581,1.731v2.888h-.782V186.58l-1.377-1.507a1.209,1.209,0,0,0-1.81.118l-1.431,2.054a.9.9,0,0,0-.11.811l.9,2.584a5.757,5.757,0,0,0,1.468,2.268l1.552,1.469h.576Z" transform="translate(-46.336 -40.154)" fill="#262626"/>
          <path id="Trazado_823844" data-name="Trazado 823844" d="M217.5,193.058l-.247-5.47-1.333-.878.429-.653,1.667,1.1.265,5.869Z" transform="translate(-47.141 -40.622)" fill="#262626"/>
          <path id="Trazado_823845" data-name="Trazado 823845" d="M236.259,204.831l-3.07-1.233.292-.725,2.274.913.2-.662.75.224Z" transform="translate(-50.912 -44.293)" fill="#262626"/>
          <path id="Trazado_823846" data-name="Trazado 823846" d="M230.208,175.185H217.315V174.4h12.624a2.7,2.7,0,0,0,.49-3.121l.73-.279a3.446,3.446,0,0,1-.849,4.107Z" transform="translate(-47.446 -37.335)" fill="#262626"/>
          <path id="Trazado_823847" data-name="Trazado 823847" d="M218.547,214.872l-.728-.287,1.088-2.763-12.716-9.08.454-.636,13.213,9.435Z" transform="translate(-45.018 -44.125)" fill="#262626"/>
          <rect id="Rectángulo_382802" data-name="Rectángulo 382802" width="8.782" height="0.782" transform="translate(203.359 222.756) rotate(-78.174)" fill="#262626"/>
          <rect id="Rectángulo_382803" data-name="Rectángulo 382803" width="7.053" height="0.782" transform="translate(166.633 139.66)" fill="#262626"/>
          <path id="Trazado_823848" data-name="Trazado 823848" d="M211.66,305.861l-4.182-9.074,20.935-12.143.392.677-20.32,11.785,3.884,8.429Z" transform="translate(-45.298 -62.146)" fill="#262626"/>
          <rect id="Rectángulo_382804" data-name="Rectángulo 382804" width="13.271" height="0.782" transform="matrix(0.584, -0.811, 0.811, 0.584, 177.508, 238.346)" fill="#262626"/>
        </g>
      </g>
      <g id="Grupo_1073476" data-name="Grupo 1073476">
        <g id="Grupo_1073475" data-name="Grupo 1073475" clip-path="url(#clip-path)">
          <path id="Trazado_823849" data-name="Trazado 823849" d="M13.494,264.407S3.2,266.992,5.173,275.34c0,0,14.647-4.63,21.4-10.17a20.534,20.534,0,0,0-13.08-.764" transform="translate(-1.075 -57.578)" fill="#262626"/>
          <path id="Trazado_823850" data-name="Trazado 823850" d="M87.286,274.7s-.913,4.327-2.116,10.85c-.316,1.627-.619,3.4-.951,5.269s-.673,3.844-1.031,5.886c-.333,2.045-.677,4.159-1.026,6.306s-.706,4.329-1.015,6.518-.642,4.373-.958,6.525c-.332,2.15-.59,4.275-.854,6.329s-.516,4.04-.756,5.924q-.181,1.413-.35,2.744-.142,1.332-.274,2.569c-.689,6.589-1.15,10.981-1.15,10.981l0,.02a.782.782,0,0,1-1.555-.163l0-.017s.558-4.393,1.4-10.982q.158-1.236.33-2.569.2-1.328.412-2.741c.282-1.882.581-3.865.889-5.916s.614-4.173.994-6.318c.364-2.148.734-4.329,1.1-6.511s.755-4.36,1.159-6.5.789-4.248,1.167-6.287l1.161-5.865c.374-1.864.716-3.628,1.068-5.249,1.347-6.5,2.355-10.8,2.355-10.8" transform="translate(-16.428 -59.975)" fill="#73716e"/>
          <path id="Trazado_823851" data-name="Trazado 823851" d="M62.08,263.722s.335,1.23.823,3.409c.252,1.087.565,2.406.857,3.933s.653,3.243,1.032,5.119c.323,1.886.672,3.93,1.042,6.092q.274,1.622.563,3.327.237,1.711.483,3.491l1.012,7.309c.3,2.494.536,5.036.811,7.574.254,2.54.551,5.078.765,7.581.17,2.508.337,4.975.5,7.363s.317,4.7.466,6.888.147,4.266.221,6.18c.224,7.661.373,12.768.373,12.768a.782.782,0,1,1-1.563.045v-.045s-.052-5.092-.128-12.73c-.038-1.91,0-3.981-.1-6.167s-.217-4.491-.333-6.876-.235-4.85-.356-7.355c-.166-2.5-.414-5.037-.619-7.577-.225-2.538-.407-5.081-.664-7.576l-.87-7.315q-.211-1.779-.416-3.495-.254-1.706-.5-3.333c-.328-2.166-.638-4.214-.924-6.1l-.933-5.134c-.263-1.532-.55-2.855-.782-3.947-.446-2.186-.757-3.424-.757-3.424" transform="translate(-13.554 -57.578)" fill="#73716e"/>
          <path id="Trazado_823852" data-name="Trazado 823852" d="M80.654,258.065s-.124.319-.289.936c-.192.61-.394,1.526-.662,2.687s-.5,2.594-.8,4.226c-.233,1.645-.532,3.5-.793,5.523-.224,2.032-.493,4.23-.73,6.561-.2,2.334-.4,4.8-.618,7.342-.178,2.549-.312,5.187-.475,7.865-.186,2.677-.255,5.394-.345,8.125s-.18,5.452-.268,8.136-.2,5.326-.239,7.88c-.029,5.107-.056,9.872-.079,13.958.009,2.043.064,3.914.088,5.573s.058,3.1.08,4.3c.088,2.374.137,3.73.137,3.73v.025a.782.782,0,0,1-1.563.058v-.014s-.026-1.37-.07-3.767c0-1.2,0-2.648,0-4.312s-.017-3.543.011-5.592c.1-4.1.209-8.876.331-14,.089-2.558.253-5.194.381-7.876s.275-5.406.414-8.13.258-5.454.492-8.133c.212-2.679.392-5.316.618-7.865.26-2.545.512-5.007.75-7.34.278-2.329.588-4.526.849-6.555.3-2.025.629-3.873.892-5.515.335-1.63.6-3.056.879-4.216s.507-2.071.711-2.678c.177-.615.306-.931.306-.931" transform="translate(-16.16 -56.343)" fill="#73716e"/>
          <path id="Trazado_823853" data-name="Trazado 823853" d="M53.627,279.137l.417.691,1.008,2.05c.408.894.807,2.022,1.316,3.295.547,1.261.941,2.758,1.448,4.367.471,1.618,1.1,3.345,1.487,5.239.445,1.882.913,3.866,1.4,5.919q.182.77.367,1.553.143.79.287,1.591l.571,3.241,1.166,6.614c.372,2.22.584,4.46.879,6.655.274,2.2.545,4.361.806,6.454q.2,1.57.385,3.084c.11,1.009.169,2,.252,2.963.155,1.928.3,3.749.436,5.431.54,6.729.9,11.216.9,11.216a.782.782,0,1,1-1.559.125v-.013l0-.034s-.262-4.479-.655-11.2c-.1-1.68-.2-3.5-.317-5.426-.063-.961-.1-1.953-.188-2.961q-.156-1.51-.317-3.081c-.215-2.092-.438-4.254-.664-6.45-.247-2.194-.41-4.437-.732-6.656-.341-2.217-.682-4.434-1.019-6.616q-.252-1.638-.5-3.245-.127-.8-.252-1.594-.168-.783-.331-1.555c-.439-2.057-.864-4.046-1.266-5.931-.349-1.9-.933-3.631-1.369-5.256-.471-1.616-.832-3.121-1.349-4.388-.481-1.28-.855-2.416-1.242-3.317l-.961-2.068-.4-.7" transform="translate(-11.708 -60.944)" fill="#73716e"/>
          <path id="Trazado_823854" data-name="Trazado 823854" d="M52,295.924s.206.126.568.4a14.307,14.307,0,0,1,1.475,1.3,25.251,25.251,0,0,1,2.042,2.279l1.122,1.514c.388.539.735,1.145,1.13,1.757.191.31.4.62.587.948l.541,1.023c.355.7.772,1.4,1.111,2.164.658,1.534,1.427,3.124,1.986,4.86.3.861.633,1.728.914,2.622q.381,1.354.77,2.737c.573,1.831.9,3.75,1.323,5.648l.3,1.427c.086.478.149.959.224,1.438q.217,1.436.431,2.858c.331,1.888.457,3.768.634,5.582s.357,3.57.386,5.24c.067,1.67.131,3.249.189,4.706.091,1.458.009,2.793.02,3.978-.01,1.185-.02,2.218-.027,3.068-.015,1.7-.024,2.674-.024,2.674a.782.782,0,1,1-1.563-.014v-.055s.033-.963.091-2.649c.029-.843.064-1.867.1-3.042.02-1.175.134-2.5.081-3.947-.022-1.446-.045-3.013-.07-4.669.013-1.66-.13-3.4-.252-5.2s-.208-3.673-.489-5.551q-.176-1.413-.355-2.844c-.063-.476-.113-.956-.186-1.431l-.265-1.42c-.373-1.89-.648-3.806-1.17-5.632l-.694-2.734c-.256-.894-.567-1.76-.84-2.621-.512-1.738-1.234-3.332-1.849-4.873-.318-.766-.713-1.47-1.049-2.175l-.511-1.03c-.179-.331-.378-.643-.56-.956-.377-.617-.707-1.23-1.078-1.774l-1.079-1.534a25.076,25.076,0,0,0-1.975-2.319,14.168,14.168,0,0,0-1.437-1.335c-.354-.284-.558-.415-.558-.415" transform="translate(-11.353 -64.609)" fill="#73716e"/>
          <path id="Trazado_823855" data-name="Trazado 823855" d="M85.391,313.63c.006-.027-.2-.014-.393.263a4.666,4.666,0,0,0-.621,1.264,9.543,9.543,0,0,0-.314.959c-.107.352-.223.732-.314,1.148-.212.823-.413,1.761-.609,2.79-.216,1.023-.374,2.149-.582,3.329-.172,1.187-.353,2.439-.542,3.734-.16,1.3-.326,2.642-.495,4.006-.148,1.366-.3,2.755-.447,4.143s-.273,2.78-.4,4.148-.262,2.714-.363,4.02c-.207,2.611-.4,5.047-.567,7.135-.3,4.18-.493,6.966-.493,6.966v.007a.782.782,0,0,1-1.56-.11l0-.027s.3-2.783.737-6.957c.239-2.085.518-4.517.818-7.123.146-1.3.334-2.647.5-4.013s.343-2.755.549-4.14.4-2.77.593-4.133c.217-1.361.43-2.7.636-4,.233-1.291.459-2.54.673-3.723.251-1.178.448-2.3.7-3.317.232-1.025.467-1.958.708-2.777.106-.413.236-.792.356-1.141a9.66,9.66,0,0,1,.349-.953,4.74,4.74,0,0,1,.669-1.251c.2-.274.415-.278.407-.252" transform="translate(-16.961 -68.472)" fill="#73716e"/>
          <path id="Trazado_823856" data-name="Trazado 823856" d="M55.572,308.549a8.592,8.592,0,0,1,1.644,1.484,10.717,10.717,0,0,1,.754.9,10.993,10.993,0,0,1,.818,1.112,30.82,30.82,0,0,1,1.714,2.831c.276.539.537,1.115.822,1.7a19.3,19.3,0,0,1,.8,1.86c.251.649.53,1.308.776,1.995.225.695.454,1.405.688,2.127.116.36.234.726.353,1.092q.145.56.292,1.126.294,1.135.593,2.293c.38,1.547.65,3.144.984,4.729.285,1.595.488,3.2.732,4.776s.341,3.142.512,4.649l.223,2.225q.063,1.1.123,2.136c.079,1.389.153,2.7.222,3.914s.053,2.325.081,3.311.031,1.846.043,2.554c.024,1.418.038,2.227.038,2.227a.782.782,0,0,1-1.563.026v-.052s.01-.8.029-2.209c.009-.7.021-1.556.034-2.535s.053-2.085.019-3.288-.066-2.509-.1-3.889c-.018-.689-.037-1.4-.056-2.123-.051-.722-.1-1.461-.155-2.212-.124-1.5-.169-3.059-.367-4.627s-.348-3.17-.582-4.757c-.283-1.579-.5-3.174-.833-4.718q-.261-1.156-.519-2.292c-.086-.377-.172-.753-.256-1.126q-.159-.551-.317-1.092-.314-1.085-.618-2.13c-.224-.689-.48-1.35-.709-2a19.137,19.137,0,0,0-.738-1.869c-.265-.593-.507-1.173-.764-1.717a30.641,30.641,0,0,0-1.617-2.861,19.494,19.494,0,0,0-1.5-2.043,8.566,8.566,0,0,0-1.594-1.529" transform="translate(-12.133 -67.365)" fill="#73716e"/>
          <path id="Trazado_823857" data-name="Trazado 823857" d="M55.33,257.94s7.269-13.361-3.681-26.9c-9.327-11.536-24.69-11.03-24.69-11.03s19.908,7.463,28.371,37.934" transform="translate(-5.886 -48.033)" fill="#28916c"/>
          <path id="Trazado_823858" data-name="Trazado 823858" d="M26.558,220.007s-2.859,2-.506,6.1,6.05,3.811,10.624,11.308c4.1,6.716,6.754,19.808,18.252,20.529,0,0-4.249-20.786-13.926-29.181s-14.445-8.753-14.445-8.753" transform="translate(-5.485 -48.034)" fill="#2cfedf"/>
          <path id="Trazado_823859" data-name="Trazado 823859" d="M79.107,258.956S66.154,236.29,95.4,229c0,0-11.434,8.6-16.292,29.952" transform="translate(-16.647 -49.998)" fill="#73716e"/>
          <path id="Trazado_823860" data-name="Trazado 823860" d="M81.716,253.291a26.561,26.561,0,0,0,9.411-8.34c3.9-5.717,4.655-14.925,13.863-17.2,0,0-5.363-1.163-8.4.911s-9.31,5.616-14.876,24.632" transform="translate(-17.841 -49.653)" fill="#262626"/>
          <path id="Trazado_823861" data-name="Trazado 823861" d="M92.468,229.952s4.245-2.426,6.724-4.2,7.033-3.137,9.866-1.163,2.327,7.437.607,7.387c0,0-6.113-5.215-17.2-2.026" transform="translate(-20.188 -48.823)" fill="#28916c"/>
          <path id="Trazado_823862" data-name="Trazado 823862" d="M49.762,279.027s3.036-8.956-3.643-15.254-19.808-2.58-19.808-2.58,17,2.429,23.451,17.835" transform="translate(-5.744 -56.788)" fill="#28916c"/>
          <path id="Trazado_823863" data-name="Trazado 823863" d="M46.582,279.106a106.49,106.49,0,0,1-17-9.462c-7.741-5.489-11.46-6.779-17.835-4.806,0,0,9.486-3.582,15.633-4.334s19.808,8.888,19.2,18.6" transform="translate(-2.565 -56.867)" fill="#2cfedf"/>
          <path id="Trazado_823864" data-name="Trazado 823864" d="M106.66,257.743s7.893,5.211,3.593,15.432a17.684,17.684,0,0,1-14.167-8.2s3.845-6.375,10.574-7.235" transform="translate(-20.978 -56.273)" fill="#262626"/>
          <path id="Trazado_823865" data-name="Trazado 823865" d="M85.5,262.366c-2.135,6.978,2.205,12.391,2.6,12.864,2.066-8.216,4.982-13.243,7.2-16.1-1.135-.54-7.773-3.371-9.8,3.238" transform="translate(-18.539 -56.343)" fill="#28916c"/>
          <path id="Trazado_823866" data-name="Trazado 823866" d="M96.356,259.013s-.062-.032-.17-.083c-2.212,2.858-5.129,7.885-7.2,16.1l.031.038c4.907-1.923,16.089-17.456,16.089-17.456a9.649,9.649,0,0,0-8.756,1.4" transform="translate(-19.429 -56.145)" fill="#2cfedf"/>
          <path id="Trazado_823867" data-name="Trazado 823867" d="M106.657,275.866s-.493,6.261-8.348,7.248-17.3.835-20.908,3.112-7.589,8.689-11.573,10.359c0,0,.986-13.281,11.5-16.127s29.332-4.592,29.332-4.592" transform="translate(-14.372 -60.229)" fill="#2cfedf"/>
          <path id="Trazado_823868" data-name="Trazado 823868" d="M43.714,297.347s-7.114-3.295-17.1.959C17.835,302.044,8.8,312.061,0,312.592c0,0,6.4-16.823,20.567-21.1a22.914,22.914,0,0,1,23.147,5.853" transform="translate(0 -63.412)" fill="#2cfedf"/>
          <path id="Trazado_823869" data-name="Trazado 823869" d="M48.05,308.241s-9.335,0-26.183,38.478c0,0-4.52-5.276,0-15.558,3.3-7.515,7.893-13.129,10.853-18.669s6.906-7.513,15.33-4.25" transform="translate(-4.336 -66.953)" fill="#28916c"/>
          <path id="Trazado_823870" data-name="Trazado 823870" d="M93.594,305.239s6.3-3.07,12.6,2.429c15.482,13.509,8.272,32.33,8.272,32.33a67.8,67.8,0,0,0-20.871-34.759" transform="translate(-20.434 -66.456)" fill="#28916c"/>
          <path id="Trazado_823871" data-name="Trazado 823871" d="M81.658,304.326s-4.653,4.574,2.208,12.694c0,0,2.58-6.223,11.247-5.464,0,0-6.588-8.919-13.456-7.23" transform="translate(-17.492 -66.397)" fill="#262626"/>
          <path id="Trazado_823872" data-name="Trazado 823872" d="M91.008,305s-5.54-3.329-9.259-.678c0,0,4.022-.992,7.286,6.066s7.893,24.058,22.844,29.371c0,0-5.313-29.674-20.871-34.759" transform="translate(-17.848 -66.219)" fill="#2cfedf"/>
          <path id="Trazado_823873" data-name="Trazado 823873" d="M65.707,296.182S62.6,280.852,73.145,276s24.437.986,33.392-.531c0,0-5.426,3.833-21.7,4.1-10.768.177-16.545,6.6-19.125,16.621" transform="translate(-14.252 -59.827)" fill="#28916c"/>
          <path id="Trazado_823874" data-name="Trazado 823874" d="M43.714,295.951s-4.477-13.746-20.112-11.7S.228,305.124,0,311.2c0,0,11.444-17.5,24.058-20.035,14.345-2.887,19.656,4.79,19.656,4.79" transform="translate(0 -62.015)" fill="#28916c"/>
          <path id="Trazado_823875" data-name="Trazado 823875" d="M48.335,308.18a4.734,4.734,0,0,1,5.435-.806,34.648,34.648,0,0,0-8.2,11.839c-2.733,6.982-10.245,22.008-23.148,27.548a93.423,93.423,0,0,1,9.031-19.951c11.308-18.6,16.877-18.63,16.877-18.63" transform="translate(-4.896 -66.996)" fill="#2cfedf"/>
          <path id="Trazado_823876" data-name="Trazado 823876" d="M74.621,375.514H62.349a8.334,8.334,0,0,1-8.334-8.333v-23h28.94v23a8.333,8.333,0,0,1-8.333,8.333" transform="translate(-11.793 -75.144)" fill="#3a1d71"/>
          <rect id="Rectángulo_382806" data-name="Rectángulo 382806" width="28.94" height="4.098" transform="translate(42.222 271.152)" fill="#f2eadf"/>
          <rect id="Rectángulo_382807" data-name="Rectángulo 382807" width="28.94" height="0.81" transform="translate(42.222 276.616)" fill="#f2eadf"/>
          <path id="Trazado_823877" data-name="Trazado 823877" d="M83.346,350.285h-.782v-5.823H54.015v-.782H83.346Z" transform="translate(-11.793 -75.035)" fill="#262626"/>
          <path id="Trazado_823878" data-name="Trazado 823878" d="M81.525,384.218H54.274a2.939,2.939,0,0,1-2.939-2.939c0-.03,33.13-.03,33.13-.03a2.945,2.945,0,0,1-2.939,2.969" transform="translate(-11.208 -83.238)" fill="#262626"/>
        </g>
      </g>
    </g>
  </g>
</svg>
