<svg xmlns="http://www.w3.org/2000/svg" width="85" height="85" viewBox="0 0 85 85">
  <g id="Grupo_1073712" data-name="Grupo 1073712" transform="translate(-180 -7318)">
    <rect id="Rectángulo_382840" data-name="Rectángulo 382840" width="85" height="85" rx="6" transform="translate(180 7318)" fill="#f0c52c"/>
    <g id="codigo-binario_1_" data-name="codigo-binario (1)" transform="translate(160.5 7330)">
      <path id="Trazado_824133" data-name="Trazado 824133" d="M84.017,67.458H44.93A1.93,1.93,0,0,1,43,65.527V9.43A1.93,1.93,0,0,1,44.93,7.5H84.017a1.93,1.93,0,0,1,1.93,1.93v56.1A1.93,1.93,0,0,1,84.017,67.458Z" transform="translate(-6.595 -6.595)" fill="#eaf6ff"/>
      <path id="Trazado_824134" data-name="Trazado 824134" d="M356.619,7.5H353a1.93,1.93,0,0,1,1.93,1.93v56.1a1.93,1.93,0,0,1-1.93,1.93h3.619a1.93,1.93,0,0,0,1.93-1.93V9.43A1.93,1.93,0,0,0,356.619,7.5Z" transform="translate(-279.197 -6.595)" fill="#d8ecfe"/>
      <path id="Trazado_824135" data-name="Trazado 824135" d="M85.947,14.738H43V9.43A1.93,1.93,0,0,1,44.93,7.5H84.017a1.93,1.93,0,0,1,1.93,1.93Z" transform="translate(-6.595 -6.595)" fill="#2abcc8"/>
      <path id="Trazado_824136" data-name="Trazado 824136" d="M356.619,7.5H353a1.93,1.93,0,0,1,1.93,1.93v5.308h3.619V9.43A1.93,1.93,0,0,0,356.619,7.5Z" transform="translate(-279.197 -6.595)" fill="#0cacba"/>
      <path id="Trazado_824137" data-name="Trazado 824137" d="M82.143,11.36h0a1.81,1.81,0,0,1-1.81-1.81V7.5h3.619V9.551A1.81,1.81,0,0,1,82.143,11.36Z" transform="translate(-39.424 -6.595)" fill="#fe7ab6"/>
      <path id="Trazado_824138" data-name="Trazado 824138" d="M137.477,11.36h0a1.81,1.81,0,0,1-1.81-1.81V7.5h3.619V9.551A1.81,1.81,0,0,1,137.477,11.36Z" transform="translate(-88.083 -6.595)" fill="#fdb441"/>
      <path id="Trazado_824139" data-name="Trazado 824139" d="M192.81,11.36h0A1.81,1.81,0,0,1,191,9.551V7.5h3.619V9.551A1.81,1.81,0,0,1,192.81,11.36Z" transform="translate(-136.741 -6.595)" fill="#edf9d9"/>
      <path id="Trazado_824140" data-name="Trazado 824140" d="M261.3,235.866H236.93a1.93,1.93,0,0,1-1.93-1.93V206.43a1.93,1.93,0,0,1,1.93-1.93H261.3a1.93,1.93,0,0,1,1.93,1.93v27.506A1.93,1.93,0,0,1,261.3,235.866Z" transform="translate(-175.433 -179.829)" fill="#d8ecfe"/>
      <path id="Trazado_824141" data-name="Trazado 824141" d="M426.619,204.5H423a1.93,1.93,0,0,1,1.93,1.93v27.506a1.93,1.93,0,0,1-1.93,1.93h3.619a1.93,1.93,0,0,0,1.93-1.93V206.43A1.93,1.93,0,0,0,426.619,204.5Z" transform="translate(-340.752 -179.829)" fill="#c4e2ff"/>
      <path id="Trazado_824142" data-name="Trazado 824142" d="M265.634,393.551h0a2.051,2.051,0,0,1,2.051-2.051h16.407a2.051,2.051,0,0,1,2.051,2.051h0a2.051,2.051,0,0,1-2.051,2.051H267.685A2.051,2.051,0,0,1,265.634,393.551Z" transform="translate(-202.371 -344.27)" fill="#fdb441"/>
      <path id="Trazado_824143" data-name="Trazado 824143" d="M392.253,391.5h-3.619a2.051,2.051,0,0,1,2.051,2.051h0a2.051,2.051,0,0,1-2.051,2.051h3.619a2.051,2.051,0,0,0,2.051-2.051h0A2.051,2.051,0,0,0,392.253,391.5Z" transform="translate(-310.532 -344.27)" fill="#fe9738"/>
      <path id="Trazado_824144" data-name="Trazado 824144" d="M263.229,211.5H235V206.43a1.93,1.93,0,0,1,1.93-1.93H261.3a1.93,1.93,0,0,1,1.93,1.93Z" transform="translate(-175.433 -179.829)" fill="#2abcc8"/>
      <path id="Trazado_824145" data-name="Trazado 824145" d="M426.619,204.5H423a1.93,1.93,0,0,1,1.93,1.93V211.5h3.619V206.43A1.93,1.93,0,0,0,426.619,204.5Z" transform="translate(-340.752 -179.829)" fill="#0cacba"/>
      <path id="Trazado_824146" data-name="Trazado 824146" d="M95.927,277.175H85.137a.637.637,0,0,1-.637-.637V257.3a.637.637,0,0,1,.637-.637h10.79a.637.637,0,0,1,.637.637v19.235A.637.637,0,0,1,95.927,277.175Z" transform="translate(-43.089 -225.702)" fill="#fe7ab6"/>
      <path id="Trazado_824147" data-name="Trazado 824147" d="M152.841,256.667h-3.619a.637.637,0,0,1,.637.637v19.235a.637.637,0,0,1-.637.637h3.619a.637.637,0,0,0,.637-.637V257.3A.637.637,0,0,0,152.841,256.667Z" transform="translate(-100.003 -225.703)" fill="#fe5ca7"/>
      <g id="Grupo_1073711" data-name="Grupo 1073711" transform="translate(35.5 0)">
        <path id="Trazado_824148" data-name="Trazado 824148" d="M79.352,25.314a.9.9,0,0,1-.9-.9V2.835A1.027,1.027,0,0,0,77.422,1.81H38.335A1.027,1.027,0,0,0,37.31,2.835V14.387a.9.9,0,0,1-1.81,0V2.835A2.838,2.838,0,0,1,38.335,0H77.422a2.838,2.838,0,0,1,2.835,2.835V24.409A.9.9,0,0,1,79.352,25.314Z" transform="translate(-35.5 0)"/>
        <path id="Trazado_824149" data-name="Trazado 824149" d="M77.422,193.232H38.335A2.838,2.838,0,0,1,35.5,190.4V150.4a.9.9,0,1,1,1.81,0V190.4a1.027,1.027,0,0,0,1.025,1.025H77.422a1.027,1.027,0,0,0,1.025-1.025v-2.621a.9.9,0,1,1,1.81,0V190.4A2.838,2.838,0,0,1,77.422,193.232Z" transform="translate(-35.5 -131.465)"/>
        <path id="Línea_228" data-name="Línea 228" d="M35.769-5.69H-6.6a.9.9,0,0,1-.9-.9.9.9,0,0,1,.9-.9H35.769a.9.9,0,0,1,.9.9A.9.9,0,0,1,35.769-5.69Z" transform="translate(7.862 14.738)"/>
        <path id="Trazado_824150" data-name="Trazado 824150" d="M75.547,5.67a2.717,2.717,0,0,1-2.714-2.714V.9a.9.9,0,0,1,.9-.9h3.619a.9.9,0,0,1,.9.9V2.956A2.717,2.717,0,0,1,75.547,5.67Zm-.9-3.86V2.956a.9.9,0,0,0,1.81,0V1.81Z" transform="translate(-68.329 0)"/>
        <path id="Trazado_824151" data-name="Trazado 824151" d="M130.881,5.67a2.717,2.717,0,0,1-2.714-2.714V.9a.9.9,0,0,1,.9-.9h3.619a.9.9,0,0,1,.9.9V2.956A2.717,2.717,0,0,1,130.881,5.67Zm-.9-3.86V2.956a.9.9,0,1,0,1.81,0V1.81Z" transform="translate(-116.988 0)"/>
        <path id="Trazado_824152" data-name="Trazado 824152" d="M186.214,5.67A2.717,2.717,0,0,1,183.5,2.956V.9a.9.9,0,0,1,.9-.9h3.619a.9.9,0,0,1,.9.9V2.956A2.717,2.717,0,0,1,186.214,5.67Zm-.9-3.86V2.956a.9.9,0,0,0,1.81,0V1.81Z" transform="translate(-165.645 0)"/>
        <g id="Grupo_1073708" data-name="Grupo 1073708" transform="translate(30.522 35.119)">
          <path id="Línea_229" data-name="Línea 229" d="M-.744-5.69H-6.6a.9.9,0,0,1-.9-.9.9.9,0,0,1,.9-.9H-.744a.9.9,0,0,1,.9.9A.9.9,0,0,1-.744-5.69Z" transform="translate(7.5 7.5)"/>
          <path id="Línea_230" data-name="Línea 230" d="M7.881-5.69H-6.6a.9.9,0,0,1-.9-.9.9.9,0,0,1,.9-.9H7.881a.9.9,0,0,1,.9.9A.9.9,0,0,1,7.881-5.69Z" transform="translate(7.5 10.663)"/>
          <path id="Línea_231" data-name="Línea 231" d="M5.891-5.69H-6.6a.9.9,0,0,1-.9-.9.9.9,0,0,1,.9-.9H5.891a.9.9,0,0,1,.9.9A.9.9,0,0,1,5.891-5.69Z" transform="translate(7.5 13.827)"/>
        </g>
        <path id="Trazado_824153" data-name="Trazado 824153" d="M254.7,230.176H242.8a.9.9,0,1,1,0-1.81h11.9a1.027,1.027,0,0,0,1.025-1.025V199.835a1.027,1.027,0,0,0-1.025-1.025H230.335a1.027,1.027,0,0,0-1.025,1.025v27.506a1.027,1.027,0,0,0,1.025,1.025H238.5a.9.9,0,1,1,0,1.81h-8.163a2.838,2.838,0,0,1-2.835-2.835V199.835A2.838,2.838,0,0,1,230.335,197H254.7a2.838,2.838,0,0,1,2.835,2.835v27.506A2.838,2.838,0,0,1,254.7,230.176Z" transform="translate(-204.337 -173.234)"/>
        <path id="Trazado_824154" data-name="Trazado 824154" d="M261.09,384H277.5a2.956,2.956,0,1,1,0,5.911H261.09a2.956,2.956,0,1,1,0-5.911Zm16.407,4.1a1.146,1.146,0,0,0,0-2.292H261.09a1.146,1.146,0,0,0,0,2.292Z" transform="translate(-231.276 -337.675)"/>
        <path id="Línea_232" data-name="Línea 232" d="M21-5.69H-6.6a.9.9,0,0,1-.9-.9.9.9,0,0,1,.9-.9H21a.9.9,0,0,1,.9.9A.9.9,0,0,1,21-5.69Z" transform="translate(31.078 38.263)"/>
        <path id="Trazado_824155" data-name="Trazado 824155" d="M89.332,271.484H78.542A1.543,1.543,0,0,1,77,269.943V250.708a1.543,1.543,0,0,1,1.542-1.542h10.79a1.543,1.543,0,0,1,1.542,1.542v19.235A1.543,1.543,0,0,1,89.332,271.484Zm-10.522-1.81H89.064v-18.7H78.81Z" transform="translate(-71.993 -219.107)"/>
        <g id="Grupo_1073709" data-name="Grupo 1073709" transform="translate(8.426 34.04)">
          <path id="Línea_233" data-name="Línea 233" d="M-3.62-5.69H-6.6a.9.9,0,0,1-.9-.9.9.9,0,0,1,.9-.9H-3.62a.9.9,0,0,1,.9.9A.9.9,0,0,1-3.62-5.69Z" transform="translate(7.5 7.5)"/>
          <path id="Línea_234" data-name="Línea 234" d="M-3.62-5.69H-6.6a.9.9,0,0,1-.9-.9.9.9,0,0,1,.9-.9H-3.62a.9.9,0,0,1,.9.9A.9.9,0,0,1-3.62-5.69Z" transform="translate(7.5 19.242)"/>
          <path id="Línea_235" data-name="Línea 235" d="M-1.57-5.69H-6.6a.9.9,0,0,1-.9-.9.9.9,0,0,1,.9-.9H-1.57a.9.9,0,0,1,.9.9A.9.9,0,0,1-1.57-5.69Z" transform="translate(7.5 10.436)"/>
          <path id="Línea_236" data-name="Línea 236" d="M-1.57-5.69H-6.6a.9.9,0,0,1-.9-.9.9.9,0,0,1,.9-.9H-1.57a.9.9,0,0,1,.9.9A.9.9,0,0,1-1.57-5.69Z" transform="translate(7.5 13.371)"/>
        </g>
        <g id="Grupo_1073710" data-name="Grupo 1073710" transform="translate(5.549 13.813)">
          <path id="Trazado_824156" data-name="Trazado 824156" d="M84.456,122.118a2.959,2.959,0,0,1-2.956-2.956v-1.206a2.956,2.956,0,1,1,5.911,0v1.206A2.959,2.959,0,0,1,84.456,122.118Zm0-5.308a1.147,1.147,0,0,0-1.146,1.146v1.206a1.146,1.146,0,0,0,2.292,0v-1.206A1.147,1.147,0,0,0,84.456,116.81Z" transform="translate(-81.5 -114.94)"/>
          <path id="Línea_237" data-name="Línea 237" d="M-6.6-.382a.9.9,0,0,1-.9-.9V-6.6a.9.9,0,0,1,.9-.9.9.9,0,0,1,.9.9v5.308A.9.9,0,0,1-6.6-.382Z" transform="translate(15.462 7.5)"/>
          <path id="Trazado_824157" data-name="Trazado 824157" d="M182.456,122.118a2.959,2.959,0,0,1-2.956-2.956v-1.206a2.956,2.956,0,1,1,5.911,0v1.206A2.959,2.959,0,0,1,182.456,122.118Zm0-5.308a1.147,1.147,0,0,0-1.146,1.146v1.206a1.146,1.146,0,0,0,2.292,0v-1.206A1.147,1.147,0,0,0,182.456,116.81Z" transform="translate(-167.677 -114.94)"/>
          <path id="Línea_238" data-name="Línea 238" d="M-6.6-.382a.9.9,0,0,1-.9-.9V-6.6a.9.9,0,0,1,.9-.9.9.9,0,0,1,.9.9v5.308A.9.9,0,0,1-6.6-.382Z" transform="translate(27.285 7.5)"/>
          <path id="Trazado_824158" data-name="Trazado 824158" d="M280.456,122.118a2.959,2.959,0,0,1-2.956-2.956v-1.206a2.956,2.956,0,0,1,5.911,0v1.206A2.959,2.959,0,0,1,280.456,122.118Zm0-5.308a1.147,1.147,0,0,0-1.146,1.146v1.206a1.146,1.146,0,0,0,2.292,0v-1.206A1.147,1.147,0,0,0,280.456,116.81Z" transform="translate(-253.855 -114.94)"/>
          <path id="Línea_239" data-name="Línea 239" d="M-6.6-.382a.9.9,0,0,1-.9-.9V-6.6a.9.9,0,0,1,.9-.9.9.9,0,0,1,.9.9v5.308A.9.9,0,0,1-6.6-.382Z" transform="translate(39.107 7.5)"/>
        </g>
      </g>
    </g>
  </g>
</svg>
