<svg xmlns="http://www.w3.org/2000/svg" xmlns:xlink="http://www.w3.org/1999/xlink" width="610" height="466" viewBox="0 0 610 466">
  <defs>
    <clipPath id="clip-path">
      <rect id="Rectángulo_382485" data-name="Rectángulo 382485" width="319.27" height="343.03" fill="none"/>
    </clipPath>
    <clipPath id="clip-path-3">
      <rect id="Rectángulo_382480" data-name="Rectángulo 382480" width="3.404" height="2.511" fill="none"/>
    </clipPath>
    <clipPath id="clip-path-4">
      <rect id="Rectángulo_382481" data-name="Rectángulo 382481" width="8.141" height="2.794" fill="none"/>
    </clipPath>
    <clipPath id="clip-path-5">
      <rect id="Rectángulo_382482" data-name="Rectángulo 382482" width="11.422" height="8.196" fill="none"/>
    </clipPath>
    <clipPath id="clip-path-6">
      <rect id="Rectángulo_382483" data-name="Rectángulo 382483" width="12.383" height="8.887" fill="none"/>
    </clipPath>
    <clipPath id="clip-path-7">
      <rect id="Rectángulo_382519" data-name="Rectángulo 382519" width="214.475" height="279.788" fill="none"/>
    </clipPath>
    <clipPath id="clip-path-8">
      <rect id="Rectángulo_382520" data-name="Rectángulo 382520" width="178.943" height="101.12" fill="none"/>
    </clipPath>
    <clipPath id="clip-path-9">
      <rect id="Rectángulo_382491" data-name="Rectángulo 382491" width="128.426" height="153.969" fill="none"/>
    </clipPath>
  </defs>
  <g id="Grupo_1073237" data-name="Grupo 1073237" transform="translate(-1020 -2105)">
    <g id="Grupo_1073235" data-name="Grupo 1073235" transform="translate(1020 2105)">
      <rect id="Rectángulo_382382" data-name="Rectángulo 382382" width="610" height="466" rx="13" fill="#ecf2ff"/>
      <g id="Grupo_1073234" data-name="Grupo 1073234" transform="translate(25.25 46.713)">
        <g id="Grupo_1073225" data-name="Grupo 1073225" transform="translate(241.125 29.001)">
          <g id="Grupo_1073224" data-name="Grupo 1073224" clip-path="url(#clip-path)">
            <g id="Grupo_1073223" data-name="Grupo 1073223">
              <g id="Grupo_1073222" data-name="Grupo 1073222" clip-path="url(#clip-path)">
                <path id="Trazado_820693" data-name="Trazado 820693" d="M190.944,63.679c-.24,1.183-.487,2.3-.74,3.439s-.51,2.265-.774,3.394q-.8,3.386-1.661,6.751-1.731,6.732-3.687,13.423c-.649,2.233-1.334,4.458-2.021,6.687s-1.42,4.45-2.159,6.677-1.523,4.448-2.323,6.679-1.655,4.457-2.546,6.7-1.856,4.5-2.915,6.8c-.533,1.156-1.1,2.326-1.725,3.525s-1.312,2.439-2.169,3.8c-.433.682-.912,1.4-1.512,2.192-.308.4-.638.818-1.048,1.285a17.836,17.836,0,0,1-1.516,1.538l-.241.213-.1.083-.08.064-.323.259-.322.255-.312.231c-.423.316-.821.579-1.227.85-.79.508-1.552.944-2.29,1.334a36.855,36.855,0,0,1-4.2,1.865c-1.343.508-2.646.936-3.931,1.3a73.9,73.9,0,0,1-7.507,1.726c-2.459.436-4.887.768-7.306,1.006s-4.829.394-7.235.47q-1.8.053-3.615.038c-.6-.005-1.208-.015-1.815-.04l-.918-.035-.961-.048a7.4,7.4,0,0,1-2.305-14.281l.64-.244c.2-.08.487-.177.741-.258l.785-.258c.525-.175,1.054-.343,1.583-.513l3.173-1,6.276-1.975c2.068-.665,4.108-1.328,6.087-2.02s3.891-1.405,5.662-2.144c.879-.378,1.72-.754,2.49-1.13s1.444-.771,1.986-1.1c.259-.169.476-.327.636-.454a1.907,1.907,0,0,0,.164-.157l.03-.029.008-.018.009-.015,0,0s0,0-.016.013l-.082.068c-.215.191-.3.282-.327.3-.035.037-.013,0,.02-.057.078-.125.229-.367.4-.662.336-.595.737-1.385,1.13-2.223s.8-1.752,1.2-2.687c.8-1.874,1.568-3.865,2.329-5.883s1.5-4.084,2.231-6.169,1.458-4.183,2.166-6.3,1.425-4.236,2.125-6.368l2.106-6.41L167.2,71.284l2.122-6.449,1.076-3.217c.361-1.064.721-2.156,1.082-3.182l.03-.092a10.1,10.1,0,0,1,19.43,5.334" transform="translate(30.119 13.541)" fill="#314fa5"/>
                <path id="Trazado_820694" data-name="Trazado 820694" d="M142.99,106.839a18.156,18.156,0,0,1,8.6,2.477.474.474,0,0,0,.478-.818,19.245,19.245,0,0,0-9.076-2.606c-.61-.021-.609.925,0,.947" transform="translate(37.415 27.797)" fill="#1c2b74"/>
                <path id="Trazado_820695" data-name="Trazado 820695" d="M260.855,293.147a2.231,2.231,0,0,0,2.074-3.046l-44.58-113.264a2.229,2.229,0,1,0-4.149,1.632l44.58,113.265a2.228,2.228,0,0,0,2.074,1.413" transform="translate(56.187 46.049)" fill="#5a554d"/>
                <path id="Trazado_820696" data-name="Trazado 820696" d="M158.025,293.147a2.228,2.228,0,0,0,2.074-1.413l44.58-113.265a2.229,2.229,0,1,0-4.149-1.632L155.95,290.1a2.231,2.231,0,0,0,2.074,3.046" transform="translate(40.896 46.049)" fill="#5a554d"/>
                <path id="Trazado_820697" data-name="Trazado 820697" d="M174.363,233.01a2.215,2.215,0,0,0,.737-.126l67.549-23.674A2.229,2.229,0,0,0,241.174,205l-67.549,23.674a2.229,2.229,0,0,0,.737,4.333" transform="translate(45.185 53.78)" fill="#5a554d"/>
                <path id="Trazado_820698" data-name="Trazado 820698" d="M249.3,233.011a2.229,2.229,0,0,0,.737-4.333L182.484,205a2.229,2.229,0,0,0-1.475,4.207l67.549,23.674a2.214,2.214,0,0,0,.737.126" transform="translate(47.123 53.78)" fill="#5a554d"/>
                <path id="Trazado_820699" data-name="Trazado 820699" d="M194.862,293.147a2.231,2.231,0,0,0,2.074-3.046l-44.58-113.264a2.229,2.229,0,1,0-4.149,1.632l44.58,113.265a2.229,2.229,0,0,0,2.074,1.413" transform="translate(38.864 46.049)" fill="#5a554d"/>
                <path id="Trazado_820700" data-name="Trazado 820700" d="M92.032,293.147a2.228,2.228,0,0,0,2.074-1.413l44.58-113.265a2.229,2.229,0,1,0-4.149-1.632L89.957,290.1a2.231,2.231,0,0,0,2.074,3.046" transform="translate(23.573 46.049)" fill="#5a554d"/>
                <path id="Trazado_820701" data-name="Trazado 820701" d="M108.37,233.01a2.214,2.214,0,0,0,.737-.126l67.549-23.674A2.229,2.229,0,0,0,175.181,205l-67.549,23.674a2.229,2.229,0,0,0,.737,4.333" transform="translate(27.862 53.78)" fill="#5a554d"/>
                <path id="Trazado_820702" data-name="Trazado 820702" d="M183.3,233.011a2.229,2.229,0,0,0,.737-4.333L116.491,205a2.229,2.229,0,1,0-1.476,4.207l67.55,23.674a2.214,2.214,0,0,0,.737.126" transform="translate(29.8 53.78)" fill="#5a554d"/>
                <path id="Trazado_820703" data-name="Trazado 820703" d="M106.506,188.9a16.765,16.765,0,0,0,6.74,25.384c30.26,13.163,92.015,33.17,135.512,1.446a82.394,82.394,0,0,0,6.953-5.667q1.165-1.053,2.307-2.17c43.717-42.726,1.935-107.632-10.658-125.015a6.848,6.848,0,0,0-8.322-2.256l-.049.021q-.886.388-1.77.787C170.278,111.613,126.01,162.715,106.506,188.9" transform="translate(27.085 21.009)" fill="#171612"/>
                <path id="Trazado_820704" data-name="Trazado 820704" d="M227.448,110.369c7.757,15.541,16.275,38.8,12.8,61.3-3.024,19.609-10.1,33.777-19.362,43.93a82.633,82.633,0,0,0,6.951-5.667c7.23-10.306,12.032-23,14.338-37.968,1.572-10.183.9-21.339-1.981-33.161a141.016,141.016,0,0,0-11.025-29.344,178.78,178.78,0,0,0-18.055-28.947q-.886.388-1.769.785a.939.939,0,0,0,.181.348,176.057,176.057,0,0,1,17.919,28.721" transform="translate(54.954 21.135)" fill="#5a554d"/>
                <path id="Trazado_820705" data-name="Trazado 820705" d="M219.942,106.729s19.971,62.107,2.7,84.4c-15.659,20.211-46.139,21.589-95.516-1.774-7.123-3.371-10.407-5.879-6.352-12.187,32.466-38.028,65.294-69.089,99.164-70.436" transform="translate(31.241 28.016)" fill="#171612"/>
                <path id="Trazado_820706" data-name="Trazado 820706" d="M138.587,154.786s-19.5,25.093-44.787,30.171L42.512,215.58l-1.481-14.938s67.709-70.153,80.284-71.7,32.749,7.959,32.749,7.959Z" transform="translate(10.771 33.802)" fill="#eaad8f"/>
                <path id="Trazado_820707" data-name="Trazado 820707" d="M17.454,195.858c4.667-.619,35.27,3.053,35.27,3.053s.128,5.776-3.048,8.1c-3.022,2.207-18.133,14.8-19.771,16.074l-1.712-2.087,5.975-6.867s-11.506,1.482-17.04.049S2.173,200.295.185,197.083s12.6-.606,17.268-1.225" transform="translate(0 51.304)" fill="#171612"/>
                <path id="Trazado_820708" data-name="Trazado 820708" d="M58.121,195.105l-7.672,5.829a11.16,11.16,0,0,1-5.5,4.51c-4.072,1.725-12.273,2.342-19,2.023-5.8-.275-14.411-4-15.126-6.638s10.533-2.5,15.351-3.713a77.126,77.126,0,0,0,12.692-4.464c4.051-1.818,11.948-8.085,11.948-8.085Z" transform="translate(2.834 48.449)" fill="#eaad8f"/>
                <path id="Trazado_820709" data-name="Trazado 820709" d="M132.91,164.664s-2.881,31.647-21.437,49.564L87.136,269.655,76.7,265.484c11.191-28.132,16.9-112.812,24.782-116.846,11.278-5.773,34.812-7.383,34.812-7.383Z" transform="translate(20.134 37.079)" fill="#eaad8f"/>
                <path id="Trazado_820710" data-name="Trazado 820710" d="M127.243,142.174c-4.993.663-10.034,1.18-14.993,2.076-4.632.836-9.368,2.319-12.872,5.612-3.651,3.431-4.714,8.335-5.744,13.039q-1.748,7.98-3.495,15.962c-.129.591-1.068.462-.937-.134,1.247-5.7,2.481-11.4,3.743-17.1.981-4.423,2.184-8.9,5.508-12.181s7.795-4.933,12.27-5.866c5.392-1.125,10.943-1.624,16.4-2.347a.474.474,0,0,1,.12.939" transform="translate(23.412 37.073)" fill="#c6695d"/>
                <path id="Trazado_820711" data-name="Trazado 820711" d="M68.151,265.263C70.8,261.37,93.932,241,93.932,241s4.391,3.755,4,7.667c-.369,3.724-1.049,23.385-1.192,25.453l-2.7-.115-1.138-9.032s-6.564,9.568-11.32,12.737-20.317,1.9-24.035,1.244,7.946-9.8,10.595-13.692" transform="translate(14.918 63.262)" fill="#171612"/>
                <path id="Trazado_820712" data-name="Trazado 820712" d="M96.4,232.718,91.627,243.18a11.158,11.158,0,0,1-.3,7.1C89.9,254.471,84.89,261,80.172,265.8c-4.07,4.14-12.583,8.081-15.029,6.853s5.151-9.522,7.461-13.919a77.052,77.052,0,0,0,5.13-12.438c1.345-4.232,6.209-17.3,6.209-17.3Z" transform="translate(16.974 60.111)" fill="#eaad8f"/>
                <path id="Trazado_820713" data-name="Trazado 820713" d="M109.239,130.232c8.9,3.752,12.761,12.64,14.155,22.094.1.655.183,1.31.258,1.972,1.6,14.25-1.933,29.059-1.933,29.059,2.514,1.155,5.224,2.288,8.091,3.376l.9.338c4.044,1.507,8.384,2.933,12.9,4.237.321.093.64.183.965.274a207.922,207.922,0,0,0,25.611,5.549c.452.071.905.135,1.355.2h0c10.225,1.454,20.148,1.983,28.564,1.2.317-.028.634-.059.948-.093a51.227,51.227,0,0,0,9.773-1.913c.327-.1.648-.208.966-.316,4.8-1.653,8.447-4.12,10.462-7.562a59.5,59.5,0,0,0,6.546-16.761c.083-.361.164-.723.237-1.082a73.128,73.128,0,0,0,1.419-10.335c.023-.319.043-.635.059-.952a86.677,86.677,0,0,0-.246-12.606c-.029-.336-.062-.662-.1-.986a75.951,75.951,0,0,0-2.241-12.543,84.811,84.811,0,0,1-35.512-3.392c-.317-.1-.631-.2-.947-.307a92.2,92.2,0,0,1-13.893-5.984,14.114,14.114,0,0,1-3.578,3.05c-.264.17-.544.343-.843.518a28.8,28.8,0,0,1-4.107,1.981c-.292.115-.591.229-.9.337a52.37,52.37,0,0,1-17.529,2.723c-2.386.014-4.9-.016-7.474-.077h0l-1.191-.032c-2.789-.08-5.613-.188-8.384-.319h0c-.576-.028-1.145-.058-1.716-.086h0c-12.1-.616-22.611-1.559-22.611-1.559" transform="translate(28.675 32.47)" fill="#c04d3a"/>
                <path id="Trazado_820714" data-name="Trazado 820714" d="M189.706,186.729c.327-.1.648-.207.966-.316a28.825,28.825,0,0,1,5.751-16.227,24.846,24.846,0,0,1,11.258-8.1c.083-.361.164-.722.237-1.082a25.981,25.981,0,0,0-15.533,14.129,31.952,31.952,0,0,0-2.679,11.592" transform="translate(49.798 42.265)" fill="#7e231a"/>
                <path id="Trazado_820715" data-name="Trazado 820715" d="M127.151,130.109a32.5,32.5,0,0,1,10.2,13.337c3.256,7.593,4.739,15.932,9.1,23.041,3.834,6.251,9.84,10.725,17.351,10.823,4.433.058,8.894-.915,13.3-.073a20.858,20.858,0,0,1,10.11,5.318,29.838,29.838,0,0,1,8.187,14.293c.316-.028.633-.059.947-.095-1.588-5.786-4.328-11.211-8.913-15.274a21.97,21.97,0,0,0-9.235-4.969c-4.233-1.04-8.541-.3-12.823-.158a18.272,18.272,0,0,1-12.314-3.723,27.952,27.952,0,0,1-7.846-10.466c-3.567-7.672-4.976-16.217-9.223-23.594a30.317,30.317,0,0,0-7.127-8.374h0c-.576-.029-1.145-.059-1.716-.086" transform="translate(33.377 34.154)" fill="#7e231a"/>
                <path id="Trazado_820716" data-name="Trazado 820716" d="M120.451,146.373c.1.657.183,1.31.258,1.973a40.37,40.37,0,0,1,6.158,32.435q.449.167.9.338a41.474,41.474,0,0,0-7.317-34.747" transform="translate(31.618 38.423)" fill="#7e231a"/>
                <path id="Trazado_820717" data-name="Trazado 820717" d="M136.464,178.789c.322.093.64.183.965.275a6.873,6.873,0,0,1,1.964-5.39c1.88-1.622,4.679-1.487,6.955-1.023,7.136,1.451,12.4,6.31,16.692,11.96.452.071.905.135,1.355.2a46.769,46.769,0,0,0-4.277-5.1,28.356,28.356,0,0,0-11.232-7.354c-3.236-1.057-7.685-1.8-10.385.864a7.773,7.773,0,0,0-2.035,5.573" transform="translate(35.822 44.99)" fill="#7e231a"/>
                <path id="Trazado_820718" data-name="Trazado 820718" d="M135.154,131.042c1.968,2.738,3.977,5.445,6.06,8.1,4.053,5.166,8.33,10.517,13.415,14.717,3.235,2.67,10.238,7.153,14.125,3.216,1.558-1.579,1.764-3.983,1.622-6.085a42.389,42.389,0,0,0-1.67-8.6,53.755,53.755,0,0,0-6.453-14.29c-.292.115-.591.227-.9.336a52.906,52.906,0,0,1,6.734,15.266c1.047,4,3.737,14.019-3.305,13.86-5.831-.13-10.811-5.258-14.5-9.219a176.959,176.959,0,0,1-13.927-17.261h0c-.4-.011-.794-.02-1.191-.033" transform="translate(35.478 33.624)" fill="#7e231a"/>
                <path id="Trazado_820719" data-name="Trazado 820719" d="M159.872,126.632a34.648,34.648,0,0,1,9.3,15.405c1.881,6.039,1.675,12.915,4.844,18.506a14.988,14.988,0,0,0,14.24,7.441c6.246-.542,11.517-4.441,17.227-6.631a25.037,25.037,0,0,1,11.681-1.52c.024-.318.043-.634.059-.951a25.69,25.69,0,0,0-11.409,1.338c-5.91,2.116-11.278,6.27-17.679,6.824-7.3.63-13.029-4.366-14.987-11.12-.937-3.242-1.256-6.623-1.963-9.914a46.071,46.071,0,0,0-2.733-8.647,33.456,33.456,0,0,0-7.74-11.249c-.264.169-.543.343-.842.518" transform="translate(41.966 33.105)" fill="#7e231a"/>
                <path id="Trazado_820720" data-name="Trazado 820720" d="M174.378,128.438a15.571,15.571,0,0,0,2.379,8.377c4.713,7.578,14.437,11.119,23.005,11.275a34.79,34.79,0,0,0,13.41-2.424c-.029-.336-.062-.662-.095-.986a33.549,33.549,0,0,1-18.95,1.871c-5.357-1.048-10.745-3.506-14.5-7.548a15.607,15.607,0,0,1-4.3-10.258c-.318-.1-.631-.2-.947-.307" transform="translate(45.774 33.715)" fill="#7e231a"/>
                <path id="Trazado_820721" data-name="Trazado 820721" d="M173.378,53.921c6.292,2.1,30.1,7.171,48.168,0,.875-4.209,1.675-7.816,2.092-9.271,2.805-9.789,7.286-37.819-12.958-43.3S173.008,7.6,175.325,26.727c.624,5.148-.406,17.021-1.947,27.194" transform="translate(45.512 0)" fill="#e59f3f"/>
                <path id="Trazado_820722" data-name="Trazado 820722" d="M239.384,75.609c-.3,1.516-2.475,4.507-5,8.6-.35.564-.712,1.15-1.082,1.752-.168.268-.336.539-.508.814-6.613,10.71-16.222,26.462-20.107,38.217a35.871,35.871,0,0,0-1.565,6.458c-1.867,14.471-1.377,32.631-1.377,32.631-47.183.745-58.668-12.1-58.668-12.1s7.033-9.295,7.944-14.983c.713-4.457,1.175-3.7,2.525-8.928v0c.1-.4.206-.8.3-1.2.456-1.832.861-3.645,1.2-5.381a39.891,39.891,0,0,0,.936-10.031,19.108,19.108,0,0,0-.308-2.174c-.061-.312-.125-.62-.2-.933a92.794,92.794,0,0,0-3.252-9.649c-.131-.367-.26-.739-.385-1.106-.329-.97-.635-1.937-.9-2.909-.081-.309-.16-.612-.229-.922a20.91,20.91,0,0,1-.615-4.684,14.372,14.372,0,0,1,.081-1.67c.03-.306.073-.606.122-.9a14.948,14.948,0,0,1,2.113-5.42c.05-.08.1-.157.151-.235.124-.193.251-.385.384-.572.077-.114.157-.225.237-.332,1.946-2.668,4.322-4.612,5.638-6.229,1.107-1.363,1.227-3.477,1.169-5.9a46.325,46.325,0,0,1,.067-7.5c.044-.324.1-.644.165-.963.077-.385.17-.766.285-1.145a8.362,8.362,0,0,1,1.613-3.137,5.444,5.444,0,0,1,.727-.7c2.036-1.639,4.915-1.548,8.3-1.636a15.664,15.664,0,0,0,3.306-.5c.393-.1.781-.2,1.168-.323a38.719,38.719,0,0,0,7.057-3.055l23.233-1.834s.833,2.487,5.5,5.688q.388.269.813.542a47.888,47.888,0,0,0,8.221,4.106q1.424.564,2.631,1.164c.356.178.7.355,1.024.534,3.846,2.1,5.924,4.469,6.956,6.9a9.578,9.578,0,0,1,.361.976,11.216,11.216,0,0,1,.427,1.942c.045.323.073.643.091.966a23.223,23.223,0,0,1-.556,5.758" transform="translate(39.658 12.346)" fill="#fff"/>
                <path id="Trazado_820723" data-name="Trazado 820723" d="M176.422,71.451c-.756,4.128-4.323,6.84-8.237,7.764a18.423,18.423,0,0,1-9.709-.689c.05-.08.1-.157.151-.234.124-.194.25-.386.384-.573a17.782,17.782,0,0,0,8.077.751c4.151-.7,8.07-3.459,8.507-7.912.431-4.362-2.375-8.526-5.864-10.87a21.12,21.12,0,0,0-3.608-1.924c.043-.324.1-.644.165-.963a20.02,20.02,0,0,1,5.454,3.217c3.207,2.727,5.465,7.16,4.679,11.433" transform="translate(41.6 14.91)" fill="#dbccc1"/>
                <path id="Trazado_820724" data-name="Trazado 820724" d="M237.6,63.038q-2.818-.233-5.659-.192c-8.644.146-16.609,2.924-23.974,7.344-7.384,4.431-13.908,10.1-20.8,15.219-6.1,4.53-12.919,9.431-20.691,10.307a17.98,17.98,0,0,1-8.071-.925c-.131-.367-.26-.739-.385-1.106,4.862,1.938,10.981,1.093,15.757-1.028,7.615-3.381,14.155-8.984,20.685-14.049,6.156-4.781,12.477-9.5,19.623-12.711a47.136,47.136,0,0,1,22.9-3.854l.253.019a9.691,9.691,0,0,1,.361.976" transform="translate(41.48 16.251)" fill="#dbccc1"/>
                <path id="Trazado_820725" data-name="Trazado 820725" d="M178.5,102.552a69.565,69.565,0,0,1-19.132,13.2c.1-.4.206-.8.3-1.2a72.957,72.957,0,0,0,14.783-9.629c1.949-1.639,5.083-3.741,5.429-6.426.746-5.821-12.134-3.118-15.14-2.423-1.095.254-2.179.55-3.246.893-.062-.312-.126-.62-.2-.932q1.471-.462,2.969-.818a43.844,43.844,0,0,1,7-1.078,19.566,19.566,0,0,1,6.6.232,3.82,3.82,0,0,1,3,3.233c.2,1.977-1.035,3.642-2.362,4.957" transform="translate(41.835 24.666)" fill="#dbccc1"/>
                <path id="Trazado_820726" data-name="Trazado 820726" d="M203.606,109.432c-3.786-2.023-8.022-.321-11.35,1.851a42.984,42.984,0,0,0-9.484,8.509,44.95,44.95,0,0,0-10,22.789c-.081.6.866.634.946.035a43.948,43.948,0,0,1,8.863-21.084,42.964,42.964,0,0,1,8.23-8.085c3.344-2.5,8.1-5.454,12.29-3.217.535.285,1.045-.513.508-.8" transform="translate(45.351 28.488)" fill="#dbccc1"/>
                <path id="Trazado_820727" data-name="Trazado 820727" d="M166.072,134.213c2.006-5.951,4.373-11.918,8.336-16.864a24.26,24.26,0,0,1,15.274-9.295c4.747-1.084,10.552-2.584,12.28-7.8.938-2.833.364-5.857.568-8.773a13.222,13.222,0,0,1,2.977-7.584,8.534,8.534,0,0,1,7.687-3.178,7.2,7.2,0,0,1,6.176,5.061.474.474,0,0,0,.922-.217c-1.1-4.228-5.749-6.483-9.889-5.724-5,.914-8.115,5.993-8.729,10.709-.468,3.6.683,7.619-1.29,10.9-1.707,2.841-5.031,4.2-8.089,5.007-3.207.846-6.487,1.346-9.5,2.8a25.563,25.563,0,0,0-7.112,5.222c-5.239,5.378-8.153,12.437-10.514,19.444a.474.474,0,0,0,.9.285" transform="translate(43.35 20.92)" fill="#dbccc1"/>
                <path id="Trazado_820728" data-name="Trazado 820728" d="M212.728,75.36a8.066,8.066,0,0,0,4.669,6.1c-.168.269-.336.54-.506.814a9.012,9.012,0,0,1-5.194-7.783c-.308-6.824,6.128-11.325,12.244-10.106.045.323.074.644.091.966-5.96-1.418-12.249,3.428-11.3,10.012" transform="translate(55.567 16.848)" fill="#dbccc1"/>
                <path id="Trazado_820729" data-name="Trazado 820729" d="M218.333,57.881a37.881,37.881,0,0,1-7.43,3.038c-2.562.726-7.014,1.649-7.331-2.238a12.361,12.361,0,0,1,2.072-7.144c.259.179.529.36.813.542a15.961,15.961,0,0,0-.8,1.6c-.656,1.544-1.793,4.274-.917,5.9.966,1.791,3.649,1.016,5.175.625a33.141,33.141,0,0,0,5.09-1.761c.78-.34,1.545-.706,2.3-1.092.356.178.7.355,1.025.534" transform="translate(53.431 13.528)" fill="#dbccc1"/>
                <path id="Trazado_820730" data-name="Trazado 820730" d="M179.666,50.9c-1.36,2.851-2.943,5.449-6.191,6.158-2.921.636-5.364-.8-7.306-3a5.536,5.536,0,0,1,.727-.706c2.24,2.574,5.088,4.078,8.228,1.967a10.482,10.482,0,0,0,3.376-4.1c.391-.1.78-.2,1.167-.323" transform="translate(43.619 13.362)" fill="#dbccc1"/>
                <path id="Trazado_820731" data-name="Trazado 820731" d="M177.792,57.89a3.954,3.954,0,0,0,1.744,4.573c2.159,1.4,5.183,1.194,7.634,1.116a48.161,48.161,0,0,0,16.971-3.726c.559-.234.111-1.063-.446-.832a47.225,47.225,0,0,1-13.18,3.391,42.179,42.179,0,0,1-6.705.207c-2.337-.129-6.217-1.276-5.118-4.445.2-.574-.7-.856-.9-.284" transform="translate(46.618 15.114)" fill="#dbccc1"/>
                <path id="Trazado_820732" data-name="Trazado 820732" d="M215.766,80.5a166.482,166.482,0,0,0-23.643,55.7c-.131.588.766.876.9.284a165.767,165.767,0,0,1,23.541-55.482c.336-.506-.461-1.01-.8-.5" transform="translate(50.429 21.077)" fill="#dbccc1"/>
                <path id="Trazado_820733" data-name="Trazado 820733" d="M180.176,21.41s-2.435-.165-3.378,2.828-.2,8.354,3,8.213.376-11.041.376-11.041" transform="translate(46.31 5.62)" fill="#c6695d"/>
                <path id="Trazado_820734" data-name="Trazado 820734" d="M178.513,35.944a4.282,4.282,0,1,1,4.719-3.794,4.287,4.287,0,0,1-4.719,3.794m.79-7.268a3.029,3.029,0,1,0,2.684,3.339,3.034,3.034,0,0,0-2.684-3.339" transform="translate(45.857 7.194)" fill="#fff"/>
                <line id="Línea_179" data-name="Línea 179" y2="0.003" transform="translate(231.251 52.174)" fill="#eaad8f"/>
                <path id="Trazado_820735" data-name="Trazado 820735" d="M207.823,55.7s-5.422,7.248-14.6,7.15c-11.663-.126-12.2-5.246-12.2-5.246a21.908,21.908,0,0,0,1.642-4.585q.222-.922.388-1.911a53,53,0,0,0,.61-6.116c.028-.542.053-1.107.074-1.689l0-.069c8.192-.645,15.2-3.146,20.531-8.29l1.3-.523.872-.355.076.484-.379,1.444c-1.8,6.791-1.132,12.751,1.694,19.706" transform="translate(47.517 8.943)" fill="#eaad8f"/>
                <path id="Trazado_820736" data-name="Trazado 820736" d="M197.425,38.9c-2.255,3.512-7.162,9.581-14.8,10.94a52.709,52.709,0,0,0,.609-6.114q.044-.814.074-1.69c.153.043.311.081.468.116,4.261.952,9.283-.542,13.649-3.251" transform="translate(47.939 10.211)" fill="#171612"/>
                <path id="Trazado_820737" data-name="Trazado 820737" d="M218.669,31.81c-.4,4.324-4.537,9.286-10.207,8.926h-.033l-.12-.006c-.114.24-.241.475-.375.713-.057.1-.116.208-.176.311a.229.229,0,0,1-.019.029c-4.193,7.025-15.053,10.392-20.728,10.029a12.938,12.938,0,0,1-3.771-.843c-5.882-1.85-6.266-10.06-4.76-16.171a23.744,23.744,0,0,1,.766-2.5c.02-.053.04-.106.059-.159,0,0-1.221-8.851-1.347-12.677-.24-7.412,4.643-14.476,20.851-14.476s19.152,10.329,19.8,15.724c.11.9-.547,6.137-1.5,6.9,1.453.915,1.694,2.746,1.562,4.2" transform="translate(46.655 1.308)" fill="#eaad8f"/>
                <path id="Trazado_820738" data-name="Trazado 820738" d="M180.471,25.327c.077,1.215.651,2.166,1.283,2.127s1.079-1.058,1-2.273-.651-2.166-1.281-2.126-1.081,1.057-1,2.271" transform="translate(47.371 6.052)" fill="#171612"/>
                <path id="Trazado_820739" data-name="Trazado 820739" d="M184.89,24.3a.327.327,0,0,0,.16-.119.322.322,0,0,0-.076-.449c-.12-.086-2.995-2.1-5.6-.33a.322.322,0,0,0,.362.533c2.233-1.519,4.834.3,4.861.322a.322.322,0,0,0,.289.043" transform="translate(47.05 5.953)" fill="#171612"/>
                <path id="Trazado_820740" data-name="Trazado 820740" d="M188.865,24.937c.077,1.215.651,2.166,1.281,2.127s1.081-1.058,1-2.273-.651-2.166-1.283-2.126-1.079,1.057-1,2.271" transform="translate(49.575 5.95)" fill="#171612"/>
                <path id="Trazado_820741" data-name="Trazado 820741" d="M193.663,24.33a.322.322,0,0,0,.157-.552c-.11-.1-2.706-2.462-5.511-1.037a.323.323,0,0,0,.293.576c2.409-1.226,4.757.912,4.78.933a.324.324,0,0,0,.282.08" transform="translate(49.385 5.85)" fill="#171612"/>
                <path id="Trazado_820742" data-name="Trazado 820742" d="M184.43,34.866a4.511,4.511,0,0,0,.577-.016,5.568,5.568,0,0,0,3.429-2.081.61.61,0,1,0-.971-.74,4.4,4.4,0,0,1-2.569,1.6,2.159,2.159,0,0,1-2.074-.778.613.613,0,0,0-.838-.192.606.606,0,0,0-.2.829,3.237,3.237,0,0,0,2.649,1.372" transform="translate(47.695 8.345)" fill="#c6695d"/>
                <path id="Trazado_820743" data-name="Trazado 820743" d="M202.022,32.028a.587.587,0,0,0,.521-.423c1.149-4,6.164-5.316,6.214-5.329a.586.586,0,0,0-.288-1.136c-.232.059-5.715,1.491-7.052,6.142a.586.586,0,0,0,.6.746" transform="translate(52.866 6.595)" fill="#c6695d"/>
                <path id="Trazado_820744" data-name="Trazado 820744" d="M206.8,29.764a.564.564,0,0,0,.217-.059.585.585,0,0,0,.266-.785,4.028,4.028,0,0,0-3.365-2.063.587.587,0,0,0-.059,1.172,2.856,2.856,0,0,1,2.374,1.41.585.585,0,0,0,.567.326" transform="translate(53.368 7.05)" fill="#c6695d"/>
                <g id="Grupo_1073212" data-name="Grupo 1073212" transform="translate(225.135 33.603)" opacity="0.5">
                  <g id="Grupo_1073211" data-name="Grupo 1073211">
                    <g id="Grupo_1073210" data-name="Grupo 1073210" clip-path="url(#clip-path-3)">
                      <path id="Trazado_820745" data-name="Trazado 820745" d="M181.726,28.175c-.071.641-1.528,1.023-3.4.941a23.716,23.716,0,0,1,.766-2.5c1.592.352,2.7.975,2.636,1.559" transform="translate(-178.325 -26.616)" fill="#c6695d"/>
                    </g>
                  </g>
                </g>
                <g id="Grupo_1073215" data-name="Grupo 1073215" transform="translate(238.515 35.204)" opacity="0.5">
                  <g id="Grupo_1073214" data-name="Grupo 1073214">
                    <g id="Grupo_1073213" data-name="Grupo 1073213" clip-path="url(#clip-path-4)">
                      <path id="Trazado_820746" data-name="Trazado 820746" d="M188.926,28.837c-.08.731,1.677,1.523,3.923,1.769s4.133-.149,4.213-.88-1.677-1.524-3.923-1.769-4.133.149-4.213.88" transform="translate(-188.923 -27.884)" fill="#c6695d"/>
                    </g>
                  </g>
                </g>
                <path id="Trazado_820747" data-name="Trazado 820747" d="M202.887,33.762h-.032l-.121-.006c-.112.24-.241.475-.374.713-.058.1-.117.208-.177.311a.189.189,0,0,1-.019.029,5.225,5.225,0,0,1-2.106-1.063,4.177,4.177,0,0,1-1.039-1.355.587.587,0,0,1,1.057-.511,3.161,3.161,0,0,0,1.28,1.346,4.229,4.229,0,0,0,.991.41,4.807,4.807,0,0,0,.539.128" transform="translate(52.227 8.281)" fill="#c6695d"/>
                <path id="Trazado_820748" data-name="Trazado 820748" d="M200.962,33.814a5.318,5.318,0,0,0,1.22.312c0,.021-.008.042-.01.062a3.029,3.029,0,1,0,3.813-2.591.85.85,0,0,1,.136-1.256,4.28,4.28,0,1,1-5.194,3.712c.009-.081.023-.159.035-.239" transform="translate(52.736 7.965)" fill="#fff"/>
                <path id="Trazado_820749" data-name="Trazado 820749" d="M185.138,36.726a2.28,2.28,0,0,0,1.375-.644.384.384,0,0,0-.562-.524,1.559,1.559,0,0,1-1.721.264.384.384,0,0,0-.29.711,2.516,2.516,0,0,0,1.2.193" transform="translate(48.222 9.302)" fill="#c6695d"/>
                <path id="Trazado_820750" data-name="Trazado 820750" d="M215.161,11.477c-3.134-3.886-7.679-7.185-13.489-7.373-8.149-.261-15.9,1.892-20.445,5.9a11.478,11.478,0,0,0-4.026,7.007c-1.2,8.386.759,6.906.759,6.906a10.646,10.646,0,0,1,.384-1.966h0c.247-1.066.658-2.7,1.336-5.2,1.617-5.968,20.993-4.915,19.387-1.115a6.922,6.922,0,0,0-.119,1.241,8.352,8.352,0,0,0,.52,3.108c.151.038.3.077.436.114a17.535,17.535,0,0,1,4.7,2.02l.006.006c.155.135,2.885,2.534,2.188,5.57-.713,3.126-2.252,7.151-.03,6.565a5.4,5.4,0,0,0,3.173-3.094l0,0a10.106,10.106,0,0,1,4.978-3.1c1.221-5.489,1.937-11.137.237-16.588" transform="translate(46.413 1.072)" fill="#e59f3f"/>
                <path id="Trazado_820751" data-name="Trazado 820751" d="M211.358,13.06c-5.6-2.51-15.29.923-17.011,1.7a8.379,8.379,0,0,0,.519,3.11c.153.037.3.077.437.114A17.513,17.513,0,0,1,200,20l.006.006c.155.134,2.885,2.534,2.188,5.569-.713,3.126-5.224,19.734-2.2,22.664,6.132,5.945,6.214-19.137,6.214-19.137,1.27-1.309,1.948-2.654,4.113-3.158,2.589-4.275,2.2-8.614,1.038-12.888" transform="translate(51.016 3.191)" fill="#e59f3f"/>
                <path id="Trazado_820752" data-name="Trazado 820752" d="M206.93,13.729s3.036,5.354.227,13.338c0,0,2.86-.449,4.141.154s3.107-4.122,2.178-8.715S206.72,7.884,206.72,7.884s-.851,4.269.21,5.845" transform="translate(54.179 2.07)" fill="#e59f3f"/>
                <path id="Trazado_820753" data-name="Trazado 820753" d="M184.4,31.279a.487.487,0,0,1-.259-.091l-2.087-1.49a.492.492,0,0,1,.076-.845,7.076,7.076,0,0,0,3.751-4.664.492.492,0,0,1,.938.3,8.182,8.182,0,0,1-3.549,4.872l1.443,1.03a.492.492,0,0,1-.313.891" transform="translate(47.735 6.259)" fill="#c6695d"/>
                <path id="Trazado_820754" data-name="Trazado 820754" d="M189.317,20.759a1.194,1.194,0,0,1-1.563-1.749,3.462,3.462,0,0,1,2.1-1.227,8.665,8.665,0,0,1,7.432,2.052s-4.584-.409-6.754.357a6.77,6.77,0,0,0-1.213.567" transform="translate(49.217 4.621)" fill="#171612"/>
                <path id="Trazado_820755" data-name="Trazado 820755" d="M184.561,21a1.194,1.194,0,0,0,1.472-1.824,3.468,3.468,0,0,0-2.155-1.122c-4.452-.7-5.834,2.142-5.834,2.142a15.841,15.841,0,0,1,5.276.3,6.725,6.725,0,0,1,1.241.506" transform="translate(46.737 4.711)" fill="#171612"/>
                <g id="Grupo_1073218" data-name="Grupo 1073218" transform="translate(221.143 28.563)" opacity="0.6">
                  <g id="Grupo_1073217" data-name="Grupo 1073217">
                    <g id="Grupo_1073216" data-name="Grupo 1073216" clip-path="url(#clip-path-5)">
                      <path id="Trazado_820756" data-name="Trazado 820756" d="M175.165,26.51c-.083,2.26,2.4,4.188,5.556,4.305s5.777-1.62,5.861-3.881-2.4-4.188-5.556-4.305-5.776,1.621-5.861,3.881" transform="translate(-175.163 -22.624)" fill="#fff"/>
                    </g>
                  </g>
                </g>
                <g id="Grupo_1073221" data-name="Grupo 1073221" transform="translate(234.273 28.471)" opacity="0.6">
                  <g id="Grupo_1073220" data-name="Grupo 1073220">
                    <g id="Grupo_1073219" data-name="Grupo 1073219" clip-path="url(#clip-path-6)">
                      <path id="Trazado_820757" data-name="Trazado 820757" d="M185.565,26.764c-.091,2.451,2.606,4.54,6.023,4.667s6.263-1.756,6.354-4.207-2.606-4.541-6.023-4.667-6.263,1.756-6.354,4.207" transform="translate(-185.563 -22.551)" fill="#fff"/>
                    </g>
                  </g>
                </g>
                <path id="Trazado_820758" data-name="Trazado 820758" d="M183.871,26.362a.348.348,0,0,0,.237-.078,1.49,1.49,0,0,1,2.168.054.357.357,0,1,0,.542-.466,2.189,2.189,0,0,0-3.159-.144.358.358,0,0,0-.053.5.354.354,0,0,0,.265.131" transform="translate(48.176 6.595)" fill="#fff"/>
                <path id="Trazado_820759" data-name="Trazado 820759" d="M194.87,26.378a.352.352,0,0,0,.189-.047,18.372,18.372,0,0,1,8.555-2.029.358.358,0,0,0,.027-.715,18.743,18.743,0,0,0-8.935,2.122.357.357,0,0,0-.134.487.354.354,0,0,0,.3.181" transform="translate(51.063 6.191)" fill="#fff"/>
                <path id="Trazado_820760" data-name="Trazado 820760" d="M175.226,26.421a.359.359,0,0,0,.288-.128c.747-.891,3.084-1.208,3.921-1.255a.358.358,0,1,0-.04-.715c-.135.008-3.332.2-4.429,1.51a.357.357,0,0,0,.044.5.352.352,0,0,0,.216.083" transform="translate(45.906 6.385)" fill="#fff"/>
                <path id="Trazado_820761" data-name="Trazado 820761" d="M205.947,43.343s6.315,1.805,7.778,11.288c0,0,11.328,3.834,14.321,6.4s6.581,5.309,6.189,9.332c-1.279,13.092-21.945,41.438-24.244,49.2s9.051,38.677,9.051,38.677c-9.894,9.952-26.29,11.635-40.722,8,0,0,5.978-78.019,12.086-90.14s11.755-21.165,15.541-32.752" transform="translate(46.809 11.378)" fill="#314fa5"/>
                <path id="Trazado_820762" data-name="Trazado 820762" d="M210.643,53.109a28.2,28.2,0,0,1-17.92,20.56c-.745.269-1.02-.933-.284-1.2a26.975,26.975,0,0,0,17.03-19.732c.162-.774,1.334-.4,1.174.371" transform="translate(50.402 13.732)" fill="#1c2b74"/>
                <path id="Trazado_820763" data-name="Trazado 820763" d="M196.4,69.119a203.788,203.788,0,0,0-9.975,65.324q.089,9.611,1.055,19.184c.078.779-1.119,1.069-1.2.283a209.978,209.978,0,0,1,3.811-66.488q2.1-9.459,5.132-18.674a.616.616,0,0,1,1.174.371" transform="translate(48.615 17.938)" fill="#1c2b74"/>
                <path id="Trazado_820764" data-name="Trazado 820764" d="M217.066,130.9a50.753,50.753,0,0,1-37.832,7.473c-.8-.158-.413-1.365.381-1.208a49.5,49.5,0,0,0,36.851-7.382c.68-.453,1.271.669.6,1.117" transform="translate(46.934 34.039)" fill="#1c2b74"/>
                <path id="Trazado_820765" data-name="Trazado 820765" d="M193.285,44.371s-2.108,13.167-3.627,21.707c-1.629,9.154-13.234,35-15.118,52.225s-6.966,41.251-6.966,41.251-14.127-1.53-23.036-11.178c0,0,13.251-25.8,16.111-36.236S156.4,87.93,158.517,82.2s8.114-7.7,8.8-12.888-1.449-13.518,2.54-15.876,14.565-1.305,15.963-2.374c0,0,3.4-6.373,7.469-6.69" transform="translate(37.941 11.647)" fill="#314fa5"/>
                <path id="Trazado_820766" data-name="Trazado 820766" d="M164.52,58.333a46.017,46.017,0,0,1-1.443,7.618,27.892,27.892,0,0,1-3.751,7.127c-2.819,4.325-4.693,8.57-3.54,13.807.595,2.706,1.639,5.287,2.221,8a34.208,34.208,0,0,1,.731,8.295,35.009,35.009,0,0,1-4.572,16.165.474.474,0,0,0,.818.478,36.076,36.076,0,0,0,4.593-14.793c.481-5.69-.723-10.822-2.31-16.233-.879-3-1.339-5.959-.376-9a30.133,30.133,0,0,1,3.969-7.326,23.864,23.864,0,0,0,3.274-6.759,50.371,50.371,0,0,0,1.333-7.379c.077-.6-.87-.6-.947,0" transform="translate(40.452 15.194)" fill="#1c2b74"/>
                <path id="Trazado_820767" data-name="Trazado 820767" d="M177.546,51.743c-.712,5.438-.668,11.487,1.975,16.436a.616.616,0,0,1-1.086.582c-2.742-5.137-2.86-11.414-2.118-17.064.1-.779,1.333-.741,1.23.045" transform="translate(46.181 13.422)" fill="#1c2b74"/>
                <path id="Trazado_820768" data-name="Trazado 820768" d="M182.409,62.9a357.627,357.627,0,0,0-18.444,71.864c-.821,5.507-1.55,11.028-2.272,16.549-.1.779-1.333.741-1.23-.045,2.9-22.124,6.557-44,12.946-65.427,2.343-7.858,4.976-15.625,7.826-23.312.274-.74,1.451-.375,1.174.371" transform="translate(42.12 16.307)" fill="#1c2b74"/>
                <path id="Trazado_820769" data-name="Trazado 820769" d="M167.017,136.421a49.887,49.887,0,0,1-20.651-11.262c-.588-.533.318-1.367.9-.837a48.6,48.6,0,0,0,20.12,10.924c.765.206.394,1.38-.371,1.174" transform="translate(38.371 32.59)" fill="#1c2b74"/>
                <path id="Trazado_820770" data-name="Trazado 820770" d="M184.014,141.3l-81.207-7.889a.283.283,0,0,1-.255-.309l.98-10.091a.286.286,0,0,1,.311-.256l81.207,7.889a.284.284,0,0,1,.255.311l-.98,10.091a.284.284,0,0,1-.311.255" transform="translate(26.92 32.223)" fill="#5a554d"/>
                <path id="Trazado_820771" data-name="Trazado 820771" d="M99.072,145.256A6.827,6.827,0,0,1,93,139.576L83.267,80.822a5.539,5.539,0,0,1,6-6.417l36.613,3.556a5.538,5.538,0,0,1,4.916,4.537l11.985,67Z" transform="translate(21.838 19.524)" fill="#171612"/>
                <path id="Trazado_820772" data-name="Trazado 820772" d="M98.809,104.552c.845,3.837,4.316,7.2,7.754,7.509s5.54-2.549,4.7-6.387-4.316-7.2-7.754-7.509-5.54,2.549-4.7,6.387" transform="translate(25.888 25.762)" fill="#e59f3f"/>
                <path id="Trazado_820773" data-name="Trazado 820773" d="M104.3,102.964c.169.768.548,1.411.847,1.438s.4-.573.235-1.341-.548-1.411-.847-1.438-.4.573-.235,1.341" transform="translate(27.358 26.676)" fill="#171612"/>
                <path id="Trazado_820774" data-name="Trazado 820774" d="M101.728,102.732c.169.768.548,1.411.847,1.438s.4-.573.235-1.341-.548-1.411-.847-1.438-.4.573-.235,1.341" transform="translate(26.682 26.615)" fill="#171612"/>
                <path id="Trazado_820775" data-name="Trazado 820775" d="M105.077,107.1c2.678.241,2.632-2.69,2.631-2.719a.436.436,0,0,0-.285-.379.2.2,0,0,0-.271.2c0,.106.027,2.493-2.207,2.291s-3.284-2.685-3.327-2.791a.389.389,0,0,0-.374-.259c-.138.023-.194.174-.128.341.013.03,1.284,3.073,3.96,3.314" transform="translate(26.536 27.154)" fill="#171612"/>
                <path id="Trazado_820776" data-name="Trazado 820776" d="M121.922,81.755l11.885,66.452,4.183.407L126.106,82.161a5.547,5.547,0,0,0-4.919-4.541L117,77.215a5.546,5.546,0,0,1,4.919,4.54" transform="translate(30.713 20.269)" fill="#171612"/>
                <path id="Trazado_820777" data-name="Trazado 820777" d="M132.585,147.143a.539.539,0,0,0,.11-.01.616.616,0,0,0,.5-.715L121.442,80.112a.617.617,0,0,0-1.216.216l11.754,66.305a.617.617,0,0,0,.6.51" transform="translate(31.557 20.896)" fill="#5a554d"/>
                <path id="Trazado_820778" data-name="Trazado 820778" d="M244.667,71.584l-.316,1.074-.314,1.024-.633,2.029c-.429,1.346-.88,2.679-1.327,4.013-.893,2.67-1.846,5.315-2.829,7.955-1.973,5.276-4.094,10.513-6.413,15.723s-4.83,10.392-7.725,15.573c-1.449,2.593-2.993,5.189-4.753,7.807-.88,1.31-1.809,2.63-2.829,3.967a51.881,51.881,0,0,1-3.466,4.079,32.361,32.361,0,0,1-4.978,4.34c-.266.192-.521.353-.778.513s-.518.323-.771.475l-.746.417-.374.206-.362.182-.722.359c-.241.119-.468.216-.7.323s-.471.211-.7.307l-.679.276a51.614,51.614,0,0,1-9.97,2.735c-3.126.574-6.146.9-9.113,1.156-2.972.227-5.887.367-8.783.407-5.785.1-11.47-.114-17.114-.53-2.822-.211-5.632-.472-8.436-.8q-2.1-.252-4.2-.532l-2.1-.311-1.058-.164-1.093-.182a7.319,7.319,0,0,1,.544-14.509l.194-.015,7.964-.715c2.673-.246,5.34-.495,7.994-.766,5.308-.542,10.575-1.15,15.711-1.9,2.564-.394,5.1-.792,7.557-1.288,2.462-.465,4.851-1.033,7.07-1.648,1.107-.312,2.169-.648,3.141-1.006a22.884,22.884,0,0,0,2.568-1.092l.261-.134c.083-.044.153-.09.23-.133s.158-.086.218-.128l.186-.122.092-.058.068-.054c.047-.035.092-.071.14-.1l.088-.086c.032-.027.063-.051.068-.068.083-.114.555-.574,1.059-1.208s1.1-1.441,1.683-2.319,1.189-1.831,1.781-2.829,1.174-2.048,1.756-3.118,1.158-2.168,1.722-3.289c2.259-4.486,4.412-9.226,6.484-14.047s4.093-9.73,6.073-14.669l2.957-7.424,2.9-7.345.061-.153a12.026,12.026,0,0,1,22.725,7.807" transform="translate(35.505 14.742)" fill="#314fa5"/>
                <path id="Trazado_820779" data-name="Trazado 820779" d="M155.245,113.309a37.653,37.653,0,0,1,2.069,19.206c-.092.6.821.853.913.252a38.563,38.563,0,0,0-2.069-19.71c-.215-.564-1.131-.319-.913.251" transform="translate(40.743 29.594)" fill="#1c2b74"/>
                <path id="Trazado_820780" data-name="Trazado 820780" d="M189.428,112.694a15.4,15.4,0,0,0-5.636-6.57c-.515-.328-.991.491-.478.818a14.506,14.506,0,0,1,5.3,6.23c.265.548,1.082.068.818-.478" transform="translate(48.062 27.838)" fill="#1c2b74"/>
                <path id="Trazado_820781" data-name="Trazado 820781" d="M183.493,106.921a7.613,7.613,0,0,1,5.46.49c.54.278,1.02-.538.477-.817a8.66,8.66,0,0,0-6.189-.586c-.595.136-.343,1.049.251.913" transform="translate(48.012 27.747)" fill="#1c2b74"/>
                <path id="Trazado_820782" data-name="Trazado 820782" d="M153.734,116.247s-9.5-3.348-15.6-2.63-7.566,3.178-7.566,3.178l1.962,11.885,22.513,2.5a18.169,18.169,0,0,0-1.3-14.932" transform="translate(34.273 29.798)" fill="#eaad8f"/>
                <path id="Trazado_820783" data-name="Trazado 820783" d="M204.178,73.66Q199.467,84.879,193.9,95.716a176.219,176.219,0,0,1-10.938,19c-.343.505.477.98.818.478a178.37,178.37,0,0,0,11.177-19.473q5.46-10.717,10.133-21.813c.236-.561-.68-.805-.913-.251" transform="translate(48.006 19.254)" fill="#1c2b74"/>
                <path id="Trazado_820784" data-name="Trazado 820784" d="M179.79,131.093c12.591-.582,25.076-8.421,30.773-19.729.273-.543-.544-1.023-.818-.478-5.546,11.009-17.683,18.693-29.955,19.261-.607.028-.61.975,0,.947" transform="translate(47.075 29.045)" fill="#1c2b74"/>
              </g>
            </g>
          </g>
        </g>
        <g id="Grupo_1073231" data-name="Grupo 1073231" transform="translate(55.274 98.808)">
          <g id="Grupo_1073230" data-name="Grupo 1073230" clip-path="url(#clip-path-7)">
            <path id="Trazado_820812" data-name="Trazado 820812" d="M166.87,169.336a47.97,47.97,0,1,1-48.019-47.919,47.971,47.971,0,0,1,48.019,47.919" transform="translate(36.471 62.431)" fill="#cddefa"/>
            <path id="Trazado_820813" data-name="Trazado 820813" d="M114.033,121.417a47.818,47.818,0,0,0-34.086,14.463l31.948,34.212,22.381-44.305a47.755,47.755,0,0,0-20.243-4.37" transform="translate(41.108 62.431)" fill="#40b7d6"/>
            <path id="Trazado_820814" data-name="Trazado 820814" d="M144.609,143.328A48.178,48.178,0,0,0,123.427,124.3l-22.381,44.307.463.5Z" transform="translate(51.956 63.914)" fill="#40b7d6"/>
            <path id="Trazado_820815" data-name="Trazado 820815" d="M84.583,130.968a47.954,47.954,0,0,0-6.824,58.173l38.214-22.854.559-1.107Z" transform="translate(36.471 67.342)" fill="#f26d76"/>
            <path id="Trazado_820816" data-name="Trazado 820816" d="M101.236,153.563l-.559,1.107,1.022-.612Z" transform="translate(51.767 78.96)" fill="#cddefa"/>
            <path id="Trazado_820817" data-name="Trazado 820817" d="M141.575,189.217,108.587,153.89l-1.022.612L87.278,194.666a47.939,47.939,0,0,0,54.3-5.448" transform="translate(44.877 79.128)" fill="#40b7d6"/>
            <path id="Trazado_820818" data-name="Trazado 820818" d="M75.44,177.148a48.218,48.218,0,0,0,17.925,17.31l20.289-40.164Z" transform="translate(38.79 79.336)" fill="#3d7ba5"/>
            <path id="Trazado_820819" data-name="Trazado 820819" d="M144.452,136.867l-43.1,25.776L134.34,197.97a47.954,47.954,0,0,0,10.112-61.1" transform="translate(52.114 70.375)" fill="#f26d76"/>
            <path id="Trazado_820820" data-name="Trazado 820820" d="M147.465,164.432a33.484,33.484,0,1,1-33.518-33.448,33.485,33.485,0,0,1,33.518,33.448" transform="translate(41.39 67.35)" fill="#fff"/>
            <path id="Trazado_820821" data-name="Trazado 820821" d="M112.5,191.97a29.019,29.019,0,1,1,28.988-29.048A29.051,29.051,0,0,1,112.5,191.97m-.059-56.39a27.372,27.372,0,1,0,27.4,27.343,27.4,27.4,0,0,0-27.4-27.343" transform="translate(42.907 68.866)" fill="#cddefa"/>
            <rect id="Rectángulo_382492" data-name="Rectángulo 382492" width="19.062" height="3.278" transform="translate(0.003 228.571)" fill="#3d7ba5"/>
            <rect id="Rectángulo_382493" data-name="Rectángulo 382493" width="28.246" height="3.279" transform="translate(0.015 237.31)" fill="#3d7ba5"/>
            <rect id="Rectángulo_382494" data-name="Rectángulo 382494" width="13.914" height="3.279" transform="translate(32.015 237.3) rotate(-0.079)" fill="#3d7ba5"/>
            <rect id="Rectángulo_382495" data-name="Rectángulo 382495" width="8.905" height="3.279" transform="matrix(1, -0.001, 0.001, 1, 47.042, 237.287)" fill="#3d7ba5"/>
            <rect id="Rectángulo_382496" data-name="Rectángulo 382496" width="13.497" height="3.278" transform="translate(0.027 246.059)" fill="#3d7ba5"/>
            <rect id="Rectángulo_382497" data-name="Rectángulo 382497" width="34.655" height="3.278" transform="translate(17.141 246.038)" fill="#3d7ba5"/>
            <rect id="Rectángulo_382498" data-name="Rectángulo 382498" width="15.863" height="3.278" transform="matrix(1, -0.001, 0.001, 1, 40.109, 254.781)" fill="#3d7ba5"/>
            <rect id="Rectángulo_382499" data-name="Rectángulo 382499" width="38.542" height="3.278" transform="translate(0.039 254.792)" fill="#3d7ba5"/>
            <rect id="Rectángulo_382500" data-name="Rectángulo 382500" width="24.35" height="3.278" transform="translate(0.051 263.541)" fill="#3d7ba5"/>
            <rect id="Rectángulo_382501" data-name="Rectángulo 382501" width="10.436" height="3.278" transform="matrix(1, -0.001, 0.001, 1, 28.156, 263.532)" fill="#3d7ba5"/>
            <rect id="Rectángulo_382502" data-name="Rectángulo 382502" width="6.051" height="3.278" transform="translate(40.124 263.516)" fill="#3d7ba5"/>
            <rect id="Rectángulo_382503" data-name="Rectángulo 382503" width="66.86" height="3.065" transform="translate(0.32 180.283)" fill="#cddefa"/>
            <rect id="Rectángulo_382504" data-name="Rectángulo 382504" width="80.431" height="3.065" transform="translate(0.319 188.455)" fill="#3d7ba5"/>
            <rect id="Rectángulo_382505" data-name="Rectángulo 382505" width="49.685" height="3.065" transform="translate(31.065 196.628)" fill="#3d7ba5"/>
            <rect id="Rectángulo_382506" data-name="Rectángulo 382506" width="23.426" height="3.065" transform="translate(0.319 196.627)" fill="#3d7ba5"/>
            <rect id="Rectángulo_382507" data-name="Rectángulo 382507" width="80.43" height="3.065" transform="translate(0.32 204.8)" fill="#3d7ba5"/>
            <rect id="Rectángulo_382508" data-name="Rectángulo 382508" width="80.431" height="3.065" transform="translate(0.319 212.973)" fill="#3d7ba5"/>
            <rect id="Rectángulo_382509" data-name="Rectángulo 382509" width="2.255" height="146.927" transform="translate(29.967 8.891)" fill="#40b7d6"/>
            <rect id="Rectángulo_382510" data-name="Rectángulo 382510" width="2.254" height="146.928" transform="translate(71.757 8.89)" fill="#40b7d6"/>
            <rect id="Rectángulo_382511" data-name="Rectángulo 382511" width="2.254" height="146.929" transform="translate(113.545 8.89)" fill="#40b7d6"/>
            <rect id="Rectángulo_382512" data-name="Rectángulo 382512" width="2.254" height="146.929" transform="translate(155.334 8.89)" fill="#40b7d6"/>
            <rect id="Rectángulo_382513" data-name="Rectángulo 382513" width="2.254" height="146.929" transform="translate(195.477 8.89)" fill="#40b7d6"/>
            <rect id="Rectángulo_382514" data-name="Rectángulo 382514" width="13.588" height="88.551" transform="translate(24.297 67.267)" fill="#3d7ba5"/>
            <rect id="Rectángulo_382515" data-name="Rectángulo 382515" width="13.588" height="58.187" transform="translate(66.476 97.631)" fill="#3d7ba5"/>
            <rect id="Rectángulo_382516" data-name="Rectángulo 382516" width="13.588" height="83.709" transform="translate(107.928 72.109)" fill="#3d7ba5"/>
            <rect id="Rectángulo_382517" data-name="Rectángulo 382517" width="13.588" height="115.622" transform="translate(149.666 40.197)" fill="#3d7ba5"/>
            <rect id="Rectángulo_382518" data-name="Rectángulo 382518" width="212.022" height="1.878" transform="translate(2.453 158.601)" fill="#3d7ba5"/>
            <path id="Trazado_820822" data-name="Trazado 820822" d="M149.121,35.474,134.728,10.546,120.336,35.474h7.6V150.4h13.588V35.474Z" transform="translate(61.875 5.422)" fill="#3d7ba5"/>
            <path id="Trazado_820823" data-name="Trazado 820823" d="M19.168,98.732a1.714,1.714,0,0,1-1.714,1.714H3.333a1.714,1.714,0,0,1,0-3.428H17.454a1.713,1.713,0,0,1,1.714,1.714" transform="translate(0.832 49.885)" fill="#3d7ba5"/>
            <path id="Trazado_820824" data-name="Trazado 820824" d="M19.168,82.562a1.716,1.716,0,0,1-1.714,1.716H3.333a1.714,1.714,0,1,1,0-3.428H17.454a1.713,1.713,0,0,1,1.714,1.713" transform="translate(0.832 41.571)" fill="#3d7ba5"/>
            <path id="Trazado_820825" data-name="Trazado 820825" d="M19.168,66.393a1.714,1.714,0,0,1-1.714,1.714H3.333a1.714,1.714,0,1,1,0-3.428h14.12a1.714,1.714,0,0,1,1.714,1.714" transform="translate(0.832 33.257)" fill="#3d7ba5"/>
            <path id="Trazado_820826" data-name="Trazado 820826" d="M19.168,50.223a1.713,1.713,0,0,1-1.714,1.714l-14.12,0a1.715,1.715,0,1,1,0-3.43h14.12a1.714,1.714,0,0,1,1.714,1.714" transform="translate(0.832 24.943)" fill="#3d7ba5"/>
            <path id="Trazado_820827" data-name="Trazado 820827" d="M19.168,34.054a1.714,1.714,0,0,1-1.714,1.714H3.333a1.714,1.714,0,0,1,0-3.428H17.454a1.713,1.713,0,0,1,1.714,1.714" transform="translate(0.832 16.629)" fill="#3d7ba5"/>
            <path id="Trazado_820828" data-name="Trazado 820828" d="M19.168,17.884A1.715,1.715,0,0,1,17.453,19.6H3.333a1.714,1.714,0,0,1,0-3.428H17.454a1.714,1.714,0,0,1,1.714,1.714" transform="translate(0.832 8.314)" fill="#3d7ba5"/>
            <path id="Trazado_820829" data-name="Trazado 820829" d="M19.168,1.714a1.713,1.713,0,0,1-1.714,1.714H3.333A1.714,1.714,0,1,1,3.333,0H17.454a1.714,1.714,0,0,1,1.714,1.714" transform="translate(0.832 0)" fill="#3d7ba5"/>
          </g>
        </g>
        <g id="Grupo_1073233" data-name="Grupo 1073233" transform="translate(193.283 11.362)">
          <g id="Grupo_1073232" data-name="Grupo 1073232" transform="translate(0 0)" clip-path="url(#clip-path-8)">
            <path id="Trazado_820830" data-name="Trazado 820830" d="M63.661,77.553H13.89A13.888,13.888,0,0,1,0,63.663V13.892A13.891,13.891,0,0,1,13.89,0H63.661A13.891,13.891,0,0,1,77.55,13.892V63.663a13.888,13.888,0,0,1-13.89,13.89" transform="translate(0 0)" fill="#539380"/>
            <path id="Trazado_820831" data-name="Trazado 820831" d="M51.333,32.866l-5.023-2.04a17.506,17.506,0,0,0,.072-3.3l4.9-2.068a1.422,1.422,0,0,0,.759-1.86l-2.718-6.443a1.4,1.4,0,0,0-.774-.759,1.424,1.424,0,0,0-1.086,0L42.89,18.333A16.8,16.8,0,0,0,39.7,15.145l2.048-5.028a1.406,1.406,0,0,0-.012-1.083,1.433,1.433,0,0,0-.769-.767L34.491,5.638a1.417,1.417,0,0,0-1.85.782L30.5,11.683a16.719,16.719,0,0,0-2.439,0L25.99,6.776a1.418,1.418,0,0,0-1.86-.759L17.693,8.732a1.422,1.422,0,0,0-.759,1.86l1.934,4.578a17.019,17.019,0,0,0-3.188,3.193l-4.264-1.736a1.43,1.43,0,0,0-1.847.782L6.937,23.881a1.436,1.436,0,0,0,0,1.091,1.4,1.4,0,0,0,.777.759l4.5,1.835a17.25,17.25,0,0,0,.124,3.646L7.763,33.146A1.423,1.423,0,0,0,7,35.005l2.718,6.438a1.426,1.426,0,0,0,1.86.759l4.909-2.073a16.934,16.934,0,0,0,3.1,2.738l-2.035,5a1.459,1.459,0,0,0,0,1.091,1.436,1.436,0,0,0,.774.759l6.475,2.634a1.364,1.364,0,0,0,.537.1,1.422,1.422,0,0,0,1.313-.883l2.315-5.683a16.608,16.608,0,0,0,2.777-.171L33.68,50.3a1.423,1.423,0,0,0,1.86.759l6.438-2.718a1.421,1.421,0,0,0,.759-1.86l-2.073-4.907a16.476,16.476,0,0,0,1.7-1.746l5.265,2.144a1.412,1.412,0,0,0,1.086-.007,1.437,1.437,0,0,0,.764-.774l2.629-6.472a1.418,1.418,0,0,0-.779-1.85M36.546,31.709a7.825,7.825,0,1,1-.037-5.988,7.789,7.789,0,0,1,.037,5.988" transform="translate(10.064 8.152)" fill="#fff"/>
            <path id="Trazado_820832" data-name="Trazado 820832" d="M16.355,29.992,29.038,56.935,41.723,29.992Z" transform="translate(24.095 44.185)" fill="#539380"/>
            <path id="Trazado_820833" data-name="Trazado 820833" d="M104.657,77.553H54.886A13.888,13.888,0,0,1,41,63.663V13.892A13.891,13.891,0,0,1,54.886,0h49.771a13.891,13.891,0,0,1,13.89,13.892V63.663a13.888,13.888,0,0,1-13.89,13.89" transform="translate(60.396 0)" fill="#c04d3a"/>
            <path id="Trazado_820834" data-name="Trazado 820834" d="M93.9,27.266c0,9.1-5.1,13.823-11.2,13.823-3.574,0-6.2-1.385-7.528-4.148-1.336,2.624-3.621,4.148-7.247,4.148-5.144,0-10.1-4.528-10.1-11.867s4.813-11.82,10.1-11.82a7.539,7.539,0,0,1,5.864,2.335V17.828H82.94V31.46c0,2,.811,2.619,1.857,2.619,1.336,0,2.431-1.333,2.431-6.67,0-8.627-6.435-14.726-16.252-14.726-9.767,0-16.346,6.861-16.346,15.918,0,9.341,6.433,16.012,16.155,16.012a23,23,0,0,0,9.628-2.095l2,5.862a29.014,29.014,0,0,1-11.629,2.285c-14.347,0-23.545-9.576-23.545-22.064,0-12.3,9.2-21.972,23.736-21.972,13.724,0,22.922,9.2,22.922,20.637M73.979,29.222c0-2.859-1.479-4.338-3.43-4.338s-3.383,1.479-3.383,4.338c0,2.906,1.427,4.38,3.383,4.38s3.43-1.474,3.43-4.38" transform="translate(69.597 9.766)" fill="#fff"/>
            <path id="Trazado_820835" data-name="Trazado 820835" d="M57.351,29.992,70.033,56.935,82.719,29.992Z" transform="translate(84.49 44.185)" fill="#c04d3a"/>
          </g>
        </g>
        <g id="Grupo_1073229" data-name="Grupo 1073229" transform="translate(19.975 0)">
          <g id="Grupo_1073228" data-name="Grupo 1073228" clip-path="url(#clip-path-9)">
            <path id="Trazado_820805" data-name="Trazado 820805" d="M0,6V136.163a12.672,12.672,0,0,0,12.671,12.673H115.755a12.672,12.672,0,0,0,12.671-12.673V6Z" transform="translate(0 5.134)" fill="#fff"/>
            <rect id="Rectángulo_382487" data-name="Rectángulo 382487" width="12.485" height="30.172" transform="translate(30.762 108.017)" fill="#314fa5"/>
            <rect id="Rectángulo_382488" data-name="Rectángulo 382488" width="12.487" height="51.6" transform="translate(49.176 86.589)" fill="#1c2b74"/>
            <rect id="Rectángulo_382489" data-name="Rectángulo 382489" width="12.487" height="67.412" transform="translate(69.57 70.776)" fill="#314fa5"/>
            <rect id="Rectángulo_382490" data-name="Rectángulo 382490" width="12.485" height="85.967" transform="translate(89.55 52.221)" fill="#1c2b74"/>
            <path id="Trazado_820806" data-name="Trazado 820806" d="M42.582,24.226,51.239,27.4l-1-10.132Z" transform="translate(36.437 14.778)" fill="#5880eb"/>
            <path id="Trazado_820807" data-name="Trazado 820807" d="M15.158,75.947a.937.937,0,0,1-.327-1.815c.377-.139,37.951-14.538,56.28-53.236a.936.936,0,1,1,1.692.8C54.141,61.1,15.869,75.744,15.484,75.887a.914.914,0,0,1-.327.059" transform="translate(12.169 17.42)" fill="#5880eb"/>
            <path id="Trazado_820808" data-name="Trazado 820808" d="M128.426,6.335V23.9H0V6.335A6.337,6.337,0,0,1,6.335,0H122.09a6.335,6.335,0,0,1,6.335,6.335" transform="translate(0 -0.001)" fill="#171612"/>
            <path id="Trazado_820809" data-name="Trazado 820809" d="M56.3,7.744a4.175,4.175,0,1,1-4.175-4.175A4.174,4.174,0,0,1,56.3,7.744" transform="translate(41.028 3.053)" fill="#5a554d"/>
            <path id="Trazado_820810" data-name="Trazado 820810" d="M63.591,7.744a4.175,4.175,0,1,1-4.175-4.175,4.174,4.174,0,0,1,4.175,4.175" transform="translate(47.269 3.053)" fill="#5a554d"/>
            <path id="Trazado_820811" data-name="Trazado 820811" d="M70.574,7.744A4.175,4.175,0,1,1,66.4,3.569a4.174,4.174,0,0,1,4.175,4.175" transform="translate(53.244 3.053)" fill="#5a554d"/>
          </g>
        </g>
      </g>
    </g>
  </g>
</svg>
