<svg xmlns="http://www.w3.org/2000/svg" xmlns:xlink="http://www.w3.org/1999/xlink" width="61" height="61" viewBox="0 0 61 61">
  <defs>
    <clipPath id="clip-path">
      <path id="path3529" d="M0-682.665H41.678v41.678H0Z" transform="translate(0 682.665)"/>
    </clipPath>
  </defs>
  <g id="Grupo_1073715" data-name="Grupo 1073715" transform="translate(-832 -7495)">
    <g id="Grupo_1073616" data-name="Grupo 1073616" transform="translate(499 6567)">
      <circle id="Elipse_9665" data-name="Elipse 9665" cx="30.5" cy="30.5" r="30.5" transform="translate(333 928)" fill="#f0c52c"/>
    </g>
    <g id="g3519" transform="translate(842 8187.665)">
      <g id="g3521" transform="translate(14.991 -651.782)">
        <path id="path3523" d="M-168.961,0h-10.277l-.709,4.757h11.695Z" transform="translate(179.948)" fill="#495560"/>
      </g>
      <g id="g3525" transform="translate(0 -682.665)">
        <g id="g3527" clip-path="url(#clip-path)">
          <g id="g3533" transform="translate(12.067 35.64)">
            <path id="path3535" d="M-254.233-49.41H-269.75a1.012,1.012,0,0,1-.971-1.3l.141-.479a2,2,0,0,1,1.919-1.435h13.34a2,2,0,0,1,1.919,1.435l.141.479a1.012,1.012,0,0,1-.971,1.3" transform="translate(270.763 52.623)" fill="#c7c7c7"/>
          </g>
          <g id="g3537" transform="translate(12.067 35.64)">
            <path id="path3539" d="M-113.888,0h-5.3a2,2,0,0,0-1.919,1.435l-.141.479a1.012,1.012,0,0,0,.971,1.3h7.187A3.7,3.7,0,0,1-113.888,0" transform="translate(121.293)" fill="#98a5b3"/>
          </g>
          <g id="g3541" transform="translate(0.61 2.825)">
            <path id="path3543" d="M-548-431.51H-578.8a4.825,4.825,0,0,1-4.825-4.825v-18.407a4.825,4.825,0,0,1,4.825-4.825H-548a4.825,4.825,0,0,1,4.825,4.825v18.407A4.825,4.825,0,0,1-548-431.51" transform="translate(583.628 459.567)" fill="#495560"/>
          </g>
          <g id="g3545" transform="translate(0.61 2.825)">
            <path id="path3547" d="M-200.954,0H-209.2a4.825,4.825,0,0,0-4.825,4.825V23.232a4.825,4.825,0,0,0,4.825,4.825h11.885c-4.587-4.8-6.605-18.274-3.644-28.057" transform="translate(214.021)" fill="#333941"/>
          </g>
          <g id="g3549" transform="translate(3.911 6.126)">
            <path id="path3551" d="M0-297.18v-17.19A2.133,2.133,0,0,1,2.133-316.5H31.722a2.133,2.133,0,0,1,2.133,2.133v17.19a2.133,2.133,0,0,1-2.133,2.133H2.133A2.133,2.133,0,0,1,0-297.18" transform="translate(0 316.503)" fill="#faef81"/>
          </g>
          <g id="g3553" transform="translate(3.911 6.126)">
            <path id="path3555" d="M-172.678-329.992c-2.572-5.347-3.616-14-2.253-21.456h-6.841a2.133,2.133,0,0,0-2.133,2.133v17.19a2.133,2.133,0,0,0,2.133,2.133Z" transform="translate(183.906 351.448)" fill="#fad271"/>
          </g>
          <g id="g3557" transform="translate(20.839 6.126)">
            <path id="path3559" d="M-227.534,0h-14.795V21.456h14.795a2.133,2.133,0,0,0,2.133-2.133V2.133A2.133,2.133,0,0,0-227.534,0" transform="translate(242.329)" fill="#333941"/>
          </g>
          <g id="g3561" transform="translate(0.611 24.707)">
            <path id="path3563" d="M0,0V1.35A4.825,4.825,0,0,0,4.825,6.176H35.632A4.825,4.825,0,0,0,40.457,1.35V0Z" fill="#c7c7c7"/>
          </g>
          <g id="g3565" transform="translate(0.611 24.707)">
            <path id="path3567" d="M0,0V1.35A4.825,4.825,0,0,0,4.825,6.176H16.71A16.325,16.325,0,0,1,13.39,0Z" fill="#98a5b3"/>
          </g>
          <g id="g3569" transform="translate(19.075 26.031)">
            <path id="path3571" d="M-54.266-27.133a1.764,1.764,0,0,1-1.764,1.764,1.764,1.764,0,0,1-1.764-1.764A1.764,1.764,0,0,1-56.03-28.9a1.764,1.764,0,0,1,1.764,1.764" transform="translate(57.795 28.897)" fill="#fff"/>
          </g>
          <g id="g3573" transform="translate(31.049 17.046)">
            <path id="path3575" d="M-6.963-8.779H-9.389A.611.611,0,0,1-10-9.389.611.611,0,0,1-9.389-10h2.427a.611.611,0,0,1,.611.611A.611.611,0,0,1-6.963-8.779Z" transform="translate(10 10)" fill="#fff"/>
          </g>
          <g id="g3577" transform="translate(23.909 17.046)">
            <path id="path3579" d="M-4.439-8.779h-4.95A.611.611,0,0,1-10-9.389.611.611,0,0,1-9.389-10h4.95a.611.611,0,0,1,.611.611A.611.611,0,0,1-4.439-8.779Z" transform="translate(10 10)" fill="#84dfff"/>
          </g>
          <g id="g3581" transform="translate(28.308 19.267)">
            <path id="path3583" d="M-6.37-8.779H-9.389A.611.611,0,0,1-10-9.389.611.611,0,0,1-9.389-10H-6.37a.611.611,0,0,1,.611.611A.611.611,0,0,1-6.37-8.779Z" transform="translate(10 10)" fill="#84dfff"/>
          </g>
          <g id="g3585" transform="translate(23.909 19.267)">
            <path id="path3587" d="M-7.181-8.779H-9.389A.611.611,0,0,1-10-9.389.611.611,0,0,1-9.389-10h2.209a.611.611,0,0,1,.611.611A.611.611,0,0,1-7.181-8.779Z" transform="translate(10 10)" fill="#fff"/>
          </g>
          <g id="g3589" transform="translate(28.154 14.826)">
            <path id="path3591" d="M-4.91-8.779H-9.389A.611.611,0,0,1-10-9.389.611.611,0,0,1-9.389-10H-4.91a.611.611,0,0,1,.611.611A.611.611,0,0,1-4.91-8.779Z" transform="translate(10 10)" fill="#55d57b"/>
          </g>
          <g id="g3593" transform="translate(23.909 14.826)">
            <path id="path3595" d="M-7.335-8.779H-9.389A.611.611,0,0,1-10-9.389.611.611,0,0,1-9.389-10h2.055a.611.611,0,0,1,.611.611A.611.611,0,0,1-7.335-8.779Z" transform="translate(10 10)" fill="#ff8aa0"/>
          </g>
          <g id="g3597" transform="translate(30.913 12.606)">
            <path id="path3599" d="M-6.827-8.779H-9.389A.611.611,0,0,1-10-9.389.611.611,0,0,1-9.389-10h2.563a.611.611,0,0,1,.611.611A.611.611,0,0,1-6.827-8.779Z" transform="translate(10 10)" fill="#ff8aa0"/>
          </g>
          <g id="g3601" transform="translate(23.909 12.606)">
            <path id="path3603" d="M-4.576-8.779H-9.389A.611.611,0,0,1-10-9.389.611.611,0,0,1-9.389-10h4.814a.611.611,0,0,1,.611.611A.611.611,0,0,1-4.576-8.779Z" transform="translate(10 10)" fill="#fff"/>
          </g>
          <g id="g3605" transform="translate(28.308 10.386)">
            <path id="path3607" d="M-6.661-8.779H-9.389A.611.611,0,0,1-10-9.389.611.611,0,0,1-9.389-10h2.729a.611.611,0,0,1,.611.611A.611.611,0,0,1-6.661-8.779Z" transform="translate(10 10)" fill="#55d57b"/>
          </g>
          <g id="g3609" transform="translate(23.909 10.386)">
            <path id="path3611" d="M-7.181-8.779H-9.389A.611.611,0,0,1-10-9.389.611.611,0,0,1-9.389-10h2.209a.611.611,0,0,1,.611.611A.611.611,0,0,1-7.181-8.779Z" transform="translate(10 10)" fill="#84dfff"/>
          </g>
          <g id="g3613" transform="translate(3.3 5.515)">
            <path id="path3615" d="M24.466-294.552a.61.61,0,0,1-.611-.611V-311.61a1.525,1.525,0,0,0-1.523-1.523H-7.256a1.525,1.525,0,0,0-1.523,1.523v16.448a.611.611,0,0,1-.611.611.61.61,0,0,1-.611-.611V-311.61a2.747,2.747,0,0,1,2.744-2.744H22.333a2.747,2.747,0,0,1,2.744,2.744v16.448A.61.61,0,0,1,24.466-294.552Z" transform="translate(10 314.354)"/>
          </g>
          <g id="g3617" transform="translate(0 2.215)">
            <path id="path3619" d="M-450.509,18.866a.608.608,0,0,1-.247-.053,5.443,5.443,0,0,1-3.234-4.971V-4.564A5.442,5.442,0,0,1-448.555-10h22.281a.611.611,0,0,1,.611.611.611.611,0,0,1-.611.611h-22.281a4.22,4.22,0,0,0-4.215,4.215V13.842a4.221,4.221,0,0,0,2.508,3.855.61.61,0,0,1,.311.806A.611.611,0,0,1-450.509,18.866Z" transform="translate(453.991 10)"/>
          </g>
          <g id="g3621" transform="translate(5.719 2.215)">
            <path id="path3623" d="M20.523-440.289H-9.389A.61.61,0,0,1-10-440.9a.61.61,0,0,1,.611-.611H20.523a4.22,4.22,0,0,0,4.215-4.215v-18.407a4.22,4.22,0,0,0-4.215-4.215H15.069a.61.61,0,0,1-.611-.61.611.611,0,0,1,.611-.611h5.453a5.442,5.442,0,0,1,5.436,5.436v18.407A5.442,5.442,0,0,1,20.523-440.289Z" transform="translate(10 469.567)"/>
          </g>
          <g id="g3625" transform="translate(0 24.097)">
            <path id="path3627" d="M31.067-8.779H-9.39A.611.611,0,0,1-10-9.389.611.611,0,0,1-9.39-10H31.067a.611.611,0,0,1,.611.611A.611.611,0,0,1,31.067-8.779Z" transform="translate(10 10)"/>
          </g>
          <g id="g3629" transform="translate(14.381 30.272)">
            <path id="path3631" d="M-9.39-81.94a.615.615,0,0,1-.091-.007.611.611,0,0,1-.514-.694l.709-4.757a.611.611,0,0,1,.694-.514.611.611,0,0,1,.514.694l-.709,4.757A.611.611,0,0,1-9.39-81.94Z" transform="translate(10.001 87.918)"/>
          </g>
          <g id="g3633" transform="translate(25.367 30.272)">
            <path id="path3635" d="M-8.683-4.023a.611.611,0,0,1-.6-.521L-9.995-9.3a.611.611,0,0,1,.514-.694.611.611,0,0,1,.694.514l.709,4.757a.611.611,0,0,1-.514.694A.615.615,0,0,1-8.683-4.023Z" transform="translate(10.001 10.001)"/>
          </g>
          <g id="g3637" transform="translate(11.456 35.029)">
            <path id="path3639" d="M-9.457-58.189H-24.975a1.609,1.609,0,0,1-1.3-.651,1.609,1.609,0,0,1-.257-1.43l.141-.479a2.625,2.625,0,0,1,2.5-1.873h13.34a2.625,2.625,0,0,1,2.5,1.873l.141.479a1.609,1.609,0,0,1-.257,1.43A1.609,1.609,0,0,1-9.457-58.189ZM-23.886-61.4a1.4,1.4,0,0,0-1.333,1l-.141.479a.4.4,0,0,0,.064.354.394.394,0,0,0,.322.161H-9.457a.394.394,0,0,0,.322-.161.4.4,0,0,0,.064-.354l-.141-.479a1.4,1.4,0,0,0-1.333-1Z" transform="translate(26.598 62.623)"/>
          </g>
          <g id="g3641" transform="translate(6.568 12.261)">
            <path id="path3643" d="M-48.077-3.748a.608.608,0,0,1-.432-.179l-2.515-2.516a.611.611,0,0,1,0-.863l2.515-2.515a.611.611,0,0,1,.863,0,.611.611,0,0,1,0,.863l-2.084,2.084,2.084,2.084a.611.611,0,0,1,0,.863A.609.609,0,0,1-48.077-3.748Z" transform="translate(51.203 10)"/>
          </g>
          <g id="g3645" transform="translate(14.446 12.261)">
            <path id="path3647" d="M-9.389-3.748a.609.609,0,0,1-.432-.179.611.611,0,0,1,0-.863l2.084-2.084L-9.821-8.958a.611.611,0,0,1,0-.863.611.611,0,0,1,.863,0l2.515,2.515a.611.611,0,0,1,0,.863L-8.958-3.927A.609.609,0,0,1-9.389-3.748Z" transform="translate(10 10)"/>
          </g>
          <g id="g3649" transform="translate(10.351 10.895)">
            <path id="path3651" d="M-9.392-128.178a.609.609,0,0,1-.209-.037A.611.611,0,0,1-9.966-129l2.826-7.763a.611.611,0,0,1,.783-.365.611.611,0,0,1,.365.783l-2.826,7.763A.611.611,0,0,1-9.392-128.178Z" transform="translate(10.003 137.162)"/>
          </g>
        </g>
      </g>
    </g>
  </g>
</svg>
