<svg xmlns="http://www.w3.org/2000/svg" width="61" height="61" viewBox="0 0 61 61">
  <g id="Grupo_1073717" data-name="Grupo 1073717" transform="translate(-309 -7863)">
    <g id="Grupo_1073618" data-name="Grupo 1073618" transform="translate(-24 6935)">
      <circle id="Elipse_9665" data-name="Elipse 9665" cx="30.5" cy="30.5" r="30.5" transform="translate(333 928)" fill="#f0c52c"/>
    </g>
    <g id="diseno" transform="translate(321 7875)">
      <g id="Grupo_1073716" data-name="Grupo 1073716" transform="translate(0.605 31.446)">
        <path id="Trazado_824190" data-name="Trazado 824190" d="M51.59,52h3.272a1.209,1.209,0,1,1,0,2.419H51.59Z" transform="translate(-20.997 -52)" fill="#a4bcce"/>
        <path id="Trazado_824191" data-name="Trazado 824191" d="M34.59,52h4.729v2.419H34.59Z" transform="translate(-14.277 -52)" fill="#a4bcce"/>
        <path id="Trazado_824192" data-name="Trazado 824192" d="M5.481,54.419H2.209A1.218,1.218,0,0,1,1,53.209,1.213,1.213,0,0,1,2.209,52H5.481Z" transform="translate(-1 -52)" fill="#a4bcce"/>
        <path id="Trazado_824193" data-name="Trazado 824193" d="M17.59,52h4.729v2.419H17.59Z" transform="translate(-7.557 -52)" fill="#a4bcce"/>
      </g>
      <circle id="Elipse_9779" data-name="Elipse 9779" cx="3" cy="3" r="3" transform="translate(5 30)" fill="#c5dcf0"/>
      <circle id="Elipse_9780" data-name="Elipse 9780" cx="3" cy="3" r="3" transform="translate(15 30)" fill="#c5dcf0"/>
      <circle id="Elipse_9781" data-name="Elipse 9781" cx="3" cy="3" r="3" transform="translate(25 30)" fill="#c5dcf0"/>
      <path id="Trazado_824194" data-name="Trazado 824194" d="M34.818,3.419V23.98A2.419,2.419,0,0,1,32.4,26.4H25.747l-4.838,3.628L16.071,26.4H9.419A2.419,2.419,0,0,1,7,23.98V3.419A2.419,2.419,0,0,1,9.419,1H32.4A2.419,2.419,0,0,1,34.818,3.419Z" transform="translate(-2.767 -0.395)" fill="#6f79b2"/>
      <path id="Trazado_824195" data-name="Trazado 824195" d="M21.047,16.466H16.209A1.213,1.213,0,0,1,15,15.257V9.209A1.213,1.213,0,0,1,16.209,8h6.047a1.213,1.213,0,0,1,1.209,1.209v3.072Z" transform="translate(-5.929 -3.162)" fill="#81e4c5"/>
      <path id="Trazado_824196" data-name="Trazado 824196" d="M27.957,23.295a4.834,4.834,0,0,1-.538-8.642A4.748,4.748,0,0,1,29.838,14a4.82,4.82,0,0,1,3.217,1.228l-.8,4.82Z" transform="translate(-9.882 -5.534)" fill="#eb7180"/>
      <path id="Trazado_824197" data-name="Trazado 824197" d="M33.823,22.883,37.651,28.8A1.477,1.477,0,0,1,36.4,31.071h-7.91A1.477,1.477,0,0,1,27.237,28.8l3.961-6.12a1.477,1.477,0,0,1,1.536-.647Z" transform="translate(-10.674 -8.696)" fill="#8fe0ff"/>
      <path id="Trazado_824198" data-name="Trazado 824198" d="M50.638,2.638l1.28-1.28a1.2,1.2,0,0,1,1.711,0l1.711,1.705a1.212,1.212,0,0,1,0,1.712L54.058,6.058H52.774l-2.136-2.41Z" transform="translate(-20.016 -0.395)" fill="#a04657"/>
      <path id="Trazado_824199" data-name="Trazado 824199" d="M40.693,19.857a1.009,1.009,0,0,1-.5.26l-3.374.714a.435.435,0,0,1-.52-.52l.714-3.38a.981.981,0,0,1,.254-.49L39.7,17.487Z" transform="translate(-14.345 -6.498)" fill="#a87757"/>
      <path id="Trazado_824200" data-name="Trazado 824200" d="M47.676,8.82l-.363,1.137-5.969,5.975-.012.012L37.91,12.527,43.9,6.54h1.324Z" transform="translate(-14.985 -2.585)" fill="#f9cd5f"/>
      <path id="Trazado_824201" data-name="Trazado 824201" d="M52.941,7.13,49.52,3.71,47.81,5.42l3.421,3.421h0l1.71-1.711Z" transform="translate(-18.898 -1.466)" fill="#e4f0ff"/>
      <path id="Trazado_824202" data-name="Trazado 824202" d="M34.47,30.841H31.56a3.62,3.62,0,0,0-6.275,0H21.279a3.647,3.647,0,0,0-1.713-1.522l3.614-2.711h6.451a3.027,3.027,0,0,0,3.024-3.024V7.9l3.1-3.1a1.824,1.824,0,0,0,0-2.567L34.046.538A1.8,1.8,0,0,0,32.766,0h-.005a1.8,1.8,0,0,0-1.286.536l-.053.053A3.013,3.013,0,0,0,29.632,0H6.652A3.027,3.027,0,0,0,3.628,3.024V5.443a.6.6,0,1,0,1.209,0V3.024A1.814,1.814,0,0,1,6.652,1.209h22.98a1.8,1.8,0,0,1,.911.258L23.125,8.885a5.361,5.361,0,0,0-4.983-.7V6.047a1.814,1.814,0,0,0-1.814-1.814H10.28A1.814,1.814,0,0,0,8.466,6.047v6.047a1.814,1.814,0,0,0,1.814,1.814h4.278a5.413,5.413,0,0,0,2.649,4.086l-1.152,1.78a2.046,2.046,0,0,0-.078,2.117,2.091,2.091,0,0,0,1.838,1.089h7.91a2.091,2.091,0,0,0,1.838-1.089,2.046,2.046,0,0,0-.079-2.117L24.137,14.6l1.848-.391a1.562,1.562,0,0,0,.8-.435l4.661-4.662V23.585A1.814,1.814,0,0,1,29.632,25.4H22.98a.6.6,0,0,0-.363.121l-4.475,3.356L13.667,25.52A.6.6,0,0,0,13.3,25.4H6.652a1.814,1.814,0,0,1-1.814-1.814V8.466a.6.6,0,1,0-1.209,0V23.585a3.027,3.027,0,0,0,3.024,3.024H13.1l3.614,2.711A3.647,3.647,0,0,0,15,30.841H11a3.62,3.62,0,0,0-6.275,0H1.814A1.814,1.814,0,0,0,0,32.656,1.766,1.766,0,0,0,.528,33.93a1.776,1.776,0,0,0,1.286.54h2.91a3.62,3.62,0,0,0,6.275,0H15a3.62,3.62,0,0,0,6.275,0h4.006a3.62,3.62,0,0,0,6.275,0h2.91a1.814,1.814,0,1,0,0-3.628ZM32.331,6.518,29.767,3.954l.855-.856,2.565,2.565Zm.429-5.309a.512.512,0,0,1,.423.181l1.709,1.7a.609.609,0,0,1,0,.858l-.851.856L31.478,2.243l.853-.852a.6.6,0,0,1,.431-.181Zm-9.6,9.821,2.1,2.1-2.661.561ZM9.676,12.095V6.047a.6.6,0,0,1,.6-.6h6.047a.6.6,0,0,1,.6.6V8.8a5.429,5.429,0,0,0-2.378,3.9H10.28A.6.6,0,0,1,9.676,12.095ZM15.723,13.3A4.233,4.233,0,0,1,17.844,9.64a4.154,4.154,0,0,1,2.112-.569,4.214,4.214,0,0,1,2.335.709,1.519,1.519,0,0,0-.215.529l-.508,2.4a2.066,2.066,0,0,0-1.552.94l-2.151,3.323A4.215,4.215,0,0,1,15.723,13.3Zm10.746,7.124a.853.853,0,0,1,.033.884.871.871,0,0,1-.776.458h-7.91a.871.871,0,0,1-.776-.458.852.852,0,0,1,.032-.882l3.962-6.121a.827.827,0,0,1,.32-.285,1.028,1.028,0,0,0,1.028.925,1.071,1.071,0,0,0,.218-.023l.27-.06Zm-.124-7.922L23.78,9.942l5.131-5.131,2.565,2.565ZM1.814,33.26a.591.591,0,0,1-.431-.186.58.58,0,0,1-.174-.419.6.6,0,0,1,.6-.6H4.288a3.386,3.386,0,0,0,0,1.209Zm6.047,1.814a2.419,2.419,0,1,1,2.419-2.419A2.419,2.419,0,0,1,7.861,35.075Zm3.574-1.814a3.386,3.386,0,0,0,0-1.209h3.133a3.387,3.387,0,0,0,0,1.209Zm6.706,1.814a2.419,2.419,0,1,1,2.419-2.419A2.419,2.419,0,0,1,18.142,35.075Zm3.574-1.814a3.386,3.386,0,0,0,0-1.209h3.133a3.386,3.386,0,0,0,0,1.209Zm6.706,1.814a2.419,2.419,0,1,1,2.419-2.419A2.419,2.419,0,0,1,28.422,35.075ZM34.47,33.26H32a3.386,3.386,0,0,0,0-1.209H34.47a.591.591,0,0,1,.431.186.58.58,0,0,1,.174.419A.6.6,0,0,1,34.47,33.26Z" transform="translate(0 0)"/>
    </g>
  </g>
</svg>
