<svg xmlns="http://www.w3.org/2000/svg" width="85" height="85" viewBox="0 0 85 85">
  <g id="Grupo_1073424" data-name="Grupo 1073424" transform="translate(-186.5 -1364)">
    <rect id="Rectángulo_382666" data-name="Rectángulo 382666" width="85" height="85" transform="translate(186.5 1364)" fill="none"/>
    <g id="algoritmo" transform="translate(171.923 1367.736)">
      <path id="Trazado_823439" data-name="Trazado 823439" d="M202.446,7.959l8.426,8.426a1.564,1.564,0,0,1,0,2.213l-8.426,8.426a1.564,1.564,0,0,1-2.212,0L191.808,18.6a1.564,1.564,0,0,1,0-2.213l8.426-8.426A1.565,1.565,0,0,1,202.446,7.959Z" transform="translate(-144.699 50.478)" fill="#fe7ab6"/>
      <path id="Trazado_823440" data-name="Trazado 823440" d="M192.91,207.511h16.859a1.561,1.561,0,0,1,1.561,1.561v4.371A1.561,1.561,0,0,1,209.769,215H192.91a1.561,1.561,0,0,1-1.561-1.561v-4.371A1.561,1.561,0,0,1,192.91,207.511Z" transform="translate(-144.699 -167.952)" fill="#c9f6b0"/>
      <path id="Trazado_823441" data-name="Trazado 823441" d="M281.805,215h4.683a1.561,1.561,0,0,1-1.561-1.561v-4.371a1.561,1.561,0,0,1,1.561-1.561h-4.683a1.561,1.561,0,0,0-1.561,1.561v4.371A1.561,1.561,0,0,0,281.805,215Z" transform="translate(-233.594 -167.953)" fill="#bbf49b"/>
      <path id="Trazado_823442" data-name="Trazado 823442" d="M192.91,456.011h16.859a1.561,1.561,0,0,1,1.561,1.561v4.371a1.561,1.561,0,0,1-1.561,1.561H192.91a1.561,1.561,0,0,1-1.561-1.561v-4.371A1.561,1.561,0,0,1,192.91,456.011Z" transform="translate(-144.699 -454.852)" fill="#fe7ab6"/>
      <path id="Trazado_823443" data-name="Trazado 823443" d="M192.91,331.761h16.859a1.561,1.561,0,0,1,1.561,1.561v4.371a1.561,1.561,0,0,1-1.561,1.561H192.91a1.561,1.561,0,0,1-1.561-1.561v-4.371A1.561,1.561,0,0,1,192.91,331.761Z" transform="translate(-144.699 -311.402)" fill="#fea95c"/>
      <path id="Trazado_823444" data-name="Trazado 823444" d="M356.557,331.761h16.858a1.561,1.561,0,0,1,1.561,1.561v4.371a1.561,1.561,0,0,1-1.561,1.561H356.557A1.561,1.561,0,0,1,355,337.693v-4.371A1.561,1.561,0,0,1,356.557,331.761Z" transform="translate(-333.634 -311.402)" fill="#fea95c"/>
      <circle id="Elipse_9752" data-name="Elipse 9752" cx="7.493" cy="7.493" r="7.493" transform="translate(23.86 35.813)" fill="#ffe177"/>
      <path id="Trazado_823445" data-name="Trazado 823445" d="M222.649,49.439l4.118,4.118a17.341,17.341,0,0,1,10.638-10.638L233.288,38.8a1.564,1.564,0,0,0-2.212,0l-8.426,8.426A1.564,1.564,0,0,0,222.649,49.439Z" transform="translate(-175.541 19.636)" fill="#fe5694"/>
      <path id="Trazado_823446" data-name="Trazado 823446" d="M46.123,331.761H29.264a1.561,1.561,0,0,0-1.561,1.561v4.371a1.561,1.561,0,0,0,1.561,1.561H46.123a1.561,1.561,0,0,0,1.561-1.561v-4.371A1.561,1.561,0,0,0,46.123,331.761Z" transform="translate(44.235 -311.402)" fill="#fea95c"/>
      <circle id="Elipse_9753" data-name="Elipse 9753" cx="7.493" cy="7.493" r="7.493" transform="translate(74.435 35.813)" fill="#b3dafe"/>
      <path id="Trazado_823447" data-name="Trazado 823447" d="M54,203.615A7.491,7.491,0,0,1,64.213,193.4,7.492,7.492,0,1,0,54,203.615Z" transform="translate(24.227 -153.797)" fill="#8ac9fe"/>
      <path id="Trazado_823448" data-name="Trazado 823448" d="M381.291,203.615A7.491,7.491,0,0,1,391.506,193.4a7.492,7.492,0,1,0-10.216,10.216Z" transform="translate(-353.641 -153.797)" fill="#ffd15b"/>
      <path id="Trazado_823449" data-name="Trazado 823449" d="M281.805,463.5h4.683a1.561,1.561,0,0,1-1.561-1.561v-4.371a1.561,1.561,0,0,1,1.561-1.561h-4.683a1.561,1.561,0,0,0-1.561,1.561v4.371A1.561,1.561,0,0,0,281.805,463.5Z" transform="translate(-233.594 -454.853)" fill="#fe5694"/>
      <g id="Grupo_1073423" data-name="Grupo 1073423" transform="translate(21.362 20.359)">
        <path id="Trazado_823450" data-name="Trazado 823450" d="M281.805,339.255h4.683a1.561,1.561,0,0,1-1.561-1.561v-4.371a1.561,1.561,0,0,1,1.561-1.561h-4.683a1.561,1.561,0,0,0-1.561,1.561v4.371A1.561,1.561,0,0,0,281.805,339.255Z" transform="translate(-254.956 -331.762)" fill="#fe9738"/>
        <path id="Trazado_823451" data-name="Trazado 823451" d="M445.451,339.255h4.683a1.561,1.561,0,0,1-1.561-1.561v-4.371a1.561,1.561,0,0,1,1.561-1.561h-4.683a1.561,1.561,0,0,0-1.561,1.561v4.371A1.561,1.561,0,0,0,445.451,339.255Z" transform="translate(-443.89 -331.762)" fill="#fe9738"/>
        <path id="Trazado_823452" data-name="Trazado 823452" d="M118.158,339.255h4.683a1.561,1.561,0,0,1-1.561-1.561v-4.371a1.561,1.561,0,0,1,1.561-1.561h-4.683a1.561,1.561,0,0,0-1.561,1.561v4.371A1.561,1.561,0,0,0,118.158,339.255Z" transform="translate(-66.021 -331.762)" fill="#fe9738"/>
      </g>
      <path id="Trazado_823453" data-name="Trazado 823453" d="M22.923,29.011h7.27v5.723a8.651,8.651,0,1,0,9.731,9.731h5.567v1.027a2.723,2.723,0,0,0,2.72,2.72h7.271V57.08a2.715,2.715,0,0,0-.767.537L52.33,60a1.159,1.159,0,0,0,1.639,1.639l2.384-2.384a.407.407,0,0,1,.574,0l8.426,8.426a.407.407,0,0,1,0,.574l-8.427,8.426a.4.4,0,0,1-.573,0l-8.425-8.424a.407.407,0,0,1,0-.575l2.217-2.217a1.159,1.159,0,1,0-1.639-1.639l-2.217,2.217a2.729,2.729,0,0,0,0,3.852l8.425,8.424a2.722,2.722,0,0,0,3.853,0l8.427-8.426a2.728,2.728,0,0,0,0-3.851l-8.426-8.426a2.72,2.72,0,0,0-.767-.537V48.211h.944a1.159,1.159,0,0,0,0-2.318H48.211a.4.4,0,0,1-.4-.4V41.12a.4.4,0,0,1,.4-.4H65.07a.4.4,0,0,1,.4.4v4.372a.4.4,0,0,1-.4.4h-.918a1.159,1.159,0,1,0,0,2.318h.918a2.723,2.723,0,0,0,2.72-2.72V44.464h5.567a8.651,8.651,0,1,0,9.731-9.731V29.011h7.27a2.723,2.723,0,0,0,2.72-2.72V21.92a2.723,2.723,0,0,0-2.72-2.72h-7.27V4.905a1.159,1.159,0,0,0-1.159-1.159H67.789V2.72A2.723,2.723,0,0,0,65.07,0H56.337a1.159,1.159,0,0,0,0,2.318H65.07a.4.4,0,0,1,.4.4V7.091a.4.4,0,0,1-.4.4H48.211a.4.4,0,0,1-.4-.4V2.72a.4.4,0,0,1,.4-.4h2.718a1.159,1.159,0,0,0,0-2.318H48.211a2.723,2.723,0,0,0-2.72,2.72V3.746H31.352a1.159,1.159,0,0,0-1.159,1.159V19.2h-7.27a2.723,2.723,0,0,0-2.72,2.72v4.371a2.723,2.723,0,0,0,2.72,2.72Zm8.429,20.628a6.334,6.334,0,1,1,6.334-6.334A6.341,6.341,0,0,1,31.353,49.639ZM45.491,41.12v1.027H39.924a8.667,8.667,0,0,0-7.413-7.413V29.011h7.27a2.723,2.723,0,0,0,2.72-2.72V25.264h2.989v1.026a2.723,2.723,0,0,0,2.72,2.72h7.27V38.4H48.211A2.723,2.723,0,0,0,45.491,41.12Zm19.578-19.6a.4.4,0,0,1,.4.4v4.371a.4.4,0,0,1-.4.4H48.211a.4.4,0,0,1-.4-.4V21.92a.4.4,0,0,1,.4-.4ZM88.262,43.305a6.334,6.334,0,1,1-6.334-6.334,6.341,6.341,0,0,1,6.334,6.334Zm-7.493-8.572a8.667,8.667,0,0,0-7.413,7.413H67.789V41.12a2.723,2.723,0,0,0-2.72-2.72H57.8V29.011h7.27a2.723,2.723,0,0,0,2.72-2.72V25.264h2.989v1.026a2.723,2.723,0,0,0,2.72,2.72h7.27Zm9.99-12.814v4.371a.4.4,0,0,1-.4.4H73.5a.4.4,0,0,1-.4-.4V21.92a.4.4,0,0,1,.4-.4H90.357A.4.4,0,0,1,90.759,21.92ZM67.789,7.091V6.064h12.98V19.2H73.5a2.723,2.723,0,0,0-2.72,2.72v1.027H67.789V21.92a2.723,2.723,0,0,0-2.72-2.72H57.8V9.811H65.07a2.723,2.723,0,0,0,2.72-2.72ZM32.512,6.064h12.98V7.091a2.723,2.723,0,0,0,2.72,2.72h7.271V19.2h-7.27a2.723,2.723,0,0,0-2.72,2.72v1.027H42.5V21.92a2.723,2.723,0,0,0-2.72-2.72h-7.27V6.064ZM22.521,21.92a.4.4,0,0,1,.4-.4H39.782a.4.4,0,0,1,.4.4v4.371a.4.4,0,0,1-.4.4H22.923a.4.4,0,0,1-.4-.4V21.92Z" transform="translate(0 0)"/>
    </g>
  </g>
</svg>
