<svg xmlns="http://www.w3.org/2000/svg" xmlns:xlink="http://www.w3.org/1999/xlink" width="190" height="325.797" viewBox="0 0 190 325.797">
  <defs>
    <clipPath id="clip-path">
      <rect id="Rectángulo_382928" data-name="Rectángulo 382928" width="190" height="325.797" rx="9" transform="translate(305 8605.031)" fill="#bae9d9"/>
    </clipPath>
    <clipPath id="clip-path-2">
      <path id="Trazado_818456" data-name="Trazado 818456" d="M224.469,114.518A103.578,103.578,0,1,0,120.89,218.095,103.579,103.579,0,0,0,224.469,114.518" transform="translate(-17.313 -10.939)" fill="#3a1d71"/>
    </clipPath>
    <clipPath id="clip-path-3">
      <rect id="Rectángulo_382967" data-name="Rectángulo 382967" width="199.501" height="776.784" fill="none"/>
    </clipPath>
    <clipPath id="clip-path-5">
      <rect id="Rectángulo_382964" data-name="Rectángulo 382964" width="4.867" height="3.902" fill="none"/>
    </clipPath>
    <clipPath id="clip-path-6">
      <rect id="Rectángulo_382965" data-name="Rectángulo 382965" width="12.34" height="4.048" fill="none"/>
    </clipPath>
  </defs>
  <g id="Grupo_1073755" data-name="Grupo 1073755" transform="translate(-305 -8605.031)">
    <path id="Trazado_872941" data-name="Trazado 872941" d="M9,0H181a9,9,0,0,1,9,9V316.8a9,9,0,0,1-9,9H9a9,9,0,0,1-9-9V9A9,9,0,0,1,9,0Z" transform="translate(305 8605.031)" fill="#f2e5fd"/>
    <g id="Grupo_1073725" data-name="Grupo 1073725">
      <g id="Enmascarar_grupo_158" data-name="Enmascarar grupo 158" clip-path="url(#clip-path)">
        <g id="Grupo_1073724" data-name="Grupo 1073724" transform="translate(423.5 8507.931)">
          <g id="Grupo_1073621" data-name="Grupo 1073621" transform="translate(1.357 17)">
            <ellipse id="Elipse_9778" data-name="Elipse 9778" cx="66.311" cy="66.311" rx="66.311" ry="66.311" transform="translate(0 0)" fill="#3a1d71"/>
          </g>
          <g id="Grupo_1073622" data-name="Grupo 1073622" transform="translate(-137.317 70.36)">
            <g id="Grupo_1071496" data-name="Grupo 1071496" transform="translate(13.135 17)" clip-path="url(#clip-path-2)">
              <path id="Trazado_818450" data-name="Trazado 818450" d="M42.185,0,81.1,38.918,117.742,2.276,154.59,39.124l38.5-38.5,38.089,38.089L265.59,4.3l5.7,5.7L231.183,50.119,193.094,12.032l-38.5,38.5L117.742,13.688,81.1,50.327,42.185,11.409,5.707,47.887,0,42.185Z" transform="translate(-23.597 182.239)" fill="#3a1d71"/>
              <path id="Trazado_818451" data-name="Trazado 818451" d="M42.185,16.8,81.1,55.711l36.639-36.637L154.59,55.919l38.5-38.5L231.183,55.5l34.408-34.41,5.7,5.707L231.183,66.914,193.094,28.825l-38.5,38.5L117.742,30.48,81.1,67.12,42.185,28.2,5.707,64.682,0,58.98Z" transform="translate(-23.597 126.113)" fill="#3a1d71"/>
              <path id="Trazado_818452" data-name="Trazado 818452" d="M42.185,33.59,81.1,72.506l36.639-36.639L154.59,72.712l38.5-38.5L231.183,72.3,265.59,37.89l5.7,5.707L231.183,83.709,193.094,45.62l-38.5,38.5L117.742,47.276,81.1,83.915,42.185,45,5.707,81.477,0,75.773Z" transform="translate(-23.597 69.988)" fill="#3a1d71"/>
              <path id="Trazado_818453" data-name="Trazado 818453" d="M42.185,50.387,81.1,89.3l36.639-36.639L154.59,89.511l38.5-38.5L231.183,89.1l34.408-34.41,5.7,5.7-40.112,40.112L193.094,62.416l-38.5,38.5L117.742,64.072,81.1,100.714,42.185,61.8,5.707,98.276,0,92.571Z" transform="translate(-23.597 13.859)" fill="#3a1d71"/>
              <path id="Trazado_818454" data-name="Trazado 818454" d="M42.185,67.182,81.1,106.1,117.742,69.46l36.848,36.845,38.5-38.5,38.089,38.089,34.408-34.41,5.7,5.7L231.183,117.3,193.094,79.211l-38.5,38.5L117.742,80.867,81.1,117.506,42.185,78.588,5.707,115.069,0,109.364Z" transform="translate(-23.597 -42.267)" fill="#3a1d71"/>
              <path id="Trazado_818455" data-name="Trazado 818455" d="M42.185,83.977,81.1,122.893l36.639-36.639L154.59,123.1l38.5-38.5,38.089,38.089,34.408-34.41,5.7,5.707L231.183,134.1,193.094,96.007l-38.5,38.5L117.742,97.662,81.1,134.3,42.185,95.386,5.707,131.864,0,126.159Z" transform="translate(-23.597 -98.393)" fill="#3a1d71"/>
            </g>
          </g>
        </g>
        <g id="Grupo_1073754" data-name="Grupo 1073754" transform="translate(287.54 8612.616)">
          <g id="Grupo_1073753" data-name="Grupo 1073753" clip-path="url(#clip-path-3)">
            <g id="Grupo_1073752" data-name="Grupo 1073752" transform="translate(0)">
              <g id="Grupo_1073751" data-name="Grupo 1073751" clip-path="url(#clip-path-3)">
                <path id="Trazado_824552" data-name="Trazado 824552" d="M46.458,421.529c-3.968-6.4-39.527-40.506-39.527-40.506S-.339,386.721.013,393c.336,5.975.084,37.423.172,40.736H4.5l2.431-14.347s9.83,15.728,17.212,21.115,32.32,4.418,38.3,3.62-12.024-16.192-15.99-22.589" transform="translate(135.846 331.065)" fill="#171612"/>
                <path id="Trazado_824553" data-name="Trazado 824553" d="M8.417,372.736l.572,15.392s-2,4.588,0,11.37,9.546,17.545,16.755,25.533C31.963,431.921,45.292,438.8,49.282,437s-7.58-15.558-10.97-22.739a123.284,123.284,0,0,1-7.347-20.216c-1.86-6.851-2.117-22.967-2.117-22.967Z" transform="translate(134.252 322.423)" fill="#b1614f"/>
                <path id="Trazado_824554" data-name="Trazado 824554" d="M24.717,343.988s-8.21,26.157-3.945,72.625c3.2,34.885,3.525,83.238,3.487,105.168,0,.665,0,1.3,0,1.914,0,1.637-.007,3.842,0,6.2,0,.628,0,1.267,0,1.91,0,5.954,0,12.125,0,12.125l32.687,3.269s.549-5.276,1.17-10.808q.107-.945.213-1.882c.249-2.187.5-4.321.729-6.1.078-.6.159-1.23.241-1.878,4.949-38.88,20.1-150.683,20.178-183.569,0-1.033-.011-1.989-.037-2.863l-.011-.282C78.608,317.88,70.688,218.6,62.583,186.6c-5.779-22.791-58.642-9.5-58.642-9.5s11.258,98,17.375,124.61c8.012,34.875,3.4,42.274,3.4,42.274" transform="translate(112.666 150.535)" fill="#314fa5"/>
                <path id="Trazado_824555" data-name="Trazado 824555" d="M5.121,265.087a102.406,102.406,0,0,0,15.159,1.194,61.379,61.379,0,0,0,9.473-.669c0-1.035-.011-1.99-.037-2.863-10.484,1.762-23.97-.435-24.129-.458a1.417,1.417,0,0,0-.465,2.8" transform="translate(162.383 227.882)" fill="#1c2b74"/>
                <path id="Trazado_824556" data-name="Trazado 824556" d="M15.256,365.992l33.86,4.584q.107-.942.213-1.882L15.26,364.08c0,.63,0,1.269,0,1.912" transform="translate(121.66 316.343)" fill="#171612"/>
                <path id="Trazado_824557" data-name="Trazado 824557" d="M28.242,191.588a1.042,1.042,0,0,1,1.2.858c.159.977,16.082,97.941,22.4,121.881a1.025,1.025,0,0,1,.019.439c-.058.351-5.906,35.477-5.065,59.817.809,23.456,1.243,131.717,1.284,140.792-.7-.017-1.29.037-1.983,0-.045-9.621-.576-117.37-1.383-140.721-.811-23.531,4.558-56.962,5.057-60.012-6.377-24.4-22.221-120.885-22.382-121.861a1.04,1.04,0,0,1,.86-1.194" transform="translate(96.483 166.455)" fill="#171612"/>
                <path id="Trazado_824558" data-name="Trazado 824558" d="M86.693,243.471q-2.273.572-4.568,1.1c-19.552,4.472-40.076,6.283-54.441,2.848-7.089-1.693-11.623-10.385-14.508-20.094-.789-2.648-1.833-5.323-2.013-8.06-1.759-26.977,4.876-38.422,4.876-38.422l105.734-11.813s3.515,6.483,7.416,14.934a177.111,177.111,0,0,1,7.9,19.732l.009.019a51.455,51.455,0,0,1,2.349,10.5c.839,9.613-24.3,22.1-52.753,29.265" transform="translate(39.726 146.864)" fill="#314fa5"/>
                <path id="Trazado_824559" data-name="Trazado 824559" d="M91.926,378.05s-8.079,3.291-8.378,14.661-.179,45.1-.179,45.1l3.323.118,3.214-14.869s1.422,11.238,7.107,18.42,17.952,7.479,26.032,6.283,2.093-16.158-1.2-24.535-10.176-28.426-10.176-28.426Z" transform="translate(-83.344 328.481)" fill="#171612"/>
                <path id="Trazado_824560" data-name="Trazado 824560" d="M97.615,364.84S93.349,384.5,91.3,389.528c-1.275,3.136-5.685,10.172-3.291,19.749S92,432.815,97.589,438.8s20.147,6.182,21.343,1.4-7.38-22.541-7.78-31.717,4.941-38.5,4.941-38.5Z" transform="translate(-82.722 317.003)" fill="#b1614f"/>
                <path id="Trazado_824561" data-name="Trazado 824561" d="M45.383,528.76,75.9,536.49s1.746-5.315,3.319-9.948c.213-.619.417-1.22.619-1.8.29-.847.564-1.633.807-2.323.2-.566.413-1.166.634-1.792,11.333-32.016,48.669-138.37,54.695-166.258.329-1.531.673-3.2,1.028-5,.174-.914.359-1.858.542-2.835,5.827-30.894,13.847-92.123,14.609-126.108a134.237,134.237,0,0,0-.535-18.911,12.667,12.667,0,0,0-1.531-4.579c-10.049-17.753-62.153-11.757-62.153-11.757s-.084,2.863-.235,7.748c-.7,24.206-2.458,96.21-3.88,118.88-1.723,27.372-6.094,37.322-6.094,37.322s-9.836,25.68-15.615,71.982c-4.3,34.434-12.217,73.567-14.346,91.495-.082.662-.151,1.3-.228,1.9-.09.734-.194,1.562-.318,2.435-.08.607-.174,1.241-.265,1.882-.69,4.723-1.566,9.941-1.566,9.941" transform="translate(-37.537 160.052)" fill="#314fa5"/>
                <path id="Trazado_824562" data-name="Trazado 824562" d="M54.2,271.49a102.556,102.556,0,0,0,14.775,3.592,61.84,61.84,0,0,0,9.275.847c.178-.912.361-1.86.544-2.835-10.619.058-23.537-4.242-23.69-4.289a1.417,1.417,0,0,0-.9,2.686" transform="translate(21.207 233.493)" fill="#1c2b74"/>
                <path id="Trazado_824563" data-name="Trazado 824563" d="M84.118,364.126l1.826.437,1.732.413,28.708,6.872c.215-.619.42-1.222.619-1.8l-28.686-6.864-2.084-.5-1.846-.441c-.082.607-.174,1.241-.269,1.882" transform="translate(-74.708 314.748)" fill="#1c2b74"/>
                <path id="Trazado_824564" data-name="Trazado 824564" d="M60.505,226.413a1.019,1.019,0,0,1-.23-2.011,32.558,32.558,0,0,0,11.8-6.287C80.007,211.6,84.4,202.272,85.128,190.4a1.019,1.019,0,1,1,2.033.125c-.957,15.566-8.072,24.484-13.871,29.224a33.937,33.937,0,0,1-12.555,6.635,1.075,1.075,0,0,1-.23.026" transform="translate(1.164 164.606)" fill="#171612"/>
                <path id="Trazado_824565" data-name="Trazado 824565" d="M75.07,509.543c-.135.779-.209,1.216-.219,1.274-.041.219-.854,4.751-.768,4.938l1.835.482c.133-.14.942-4.863.979-5.066.009-.056.088-.514.226-1.316,1.867-10.83,14.639-85.135,18.044-108.788,3.147-21.808,15.4-63.35,15.521-63.766a1.217,1.217,0,0,0,.039-.219c2.891-41.205,9.449-146.9,9.514-147.961a1.039,1.039,0,0,0-2.074-.129c-.065,1.063-6.614,106.556-9.507,147.829-.708,2.4-12.464,42.549-15.549,63.948-3.413,23.664-16.205,98.1-18.042,108.775" transform="translate(-59.184 163.366)" fill="#171612"/>
                <path id="Trazado_824566" data-name="Trazado 824566" d="M33.573,219.366a1.041,1.041,0,0,1-.484-1.962c.159-.084,11.168-6.048,13.37-19.033a1.041,1.041,0,1,1,2.052.348c-2.383,14.056-13.964,20.27-14.456,20.528a1.04,1.04,0,0,1-.482.12" transform="translate(90.179 171.608)" fill="#171612"/>
                <path id="Trazado_824567" data-name="Trazado 824567" d="M32.673,179.006c3.289,21.991,2.31,19.3-7.446,62.933,0,0-1.929,13.478-4.055,30.739-2.355,19.115-9.7,43.906,4.818,47.557,10.109,2.538,26.708,4.184,45.378,3.779l1.893-24.555,58.733-9.808a223.056,223.056,0,0,1,2.293,23.968c.077-.028.153-.052.23-.08,12.824-4.588,21.89-10.208,23.129-15.656,2.284-10.038-2.121-34.348-8.748-62.6-.12-.28-1.05-3.891-1.336-4.678-.179-.49-.389-1.071-.617-1.742-1.336-3.857-3.491-10.574-5.758-18.7-.477-1.717-.962-3.5-1.439-5.328-1.263-4.79-2.512-9.92-3.627-15.147q-.631-2.955-1.2-5.93c-.357-1.884-.7-3.77-1-5.648-.329-1.977-.581-3.723-.763-5.19-.015-.121-.028-.237-.043-.349-.028-.256-.062-.51-.08-.749a1.291,1.291,0,0,1-.017-.136s.321-.318.871-.9c.077-.08.157-.17.237-.262,2.562-2.775,8.821-10.182,11.086-18.352s-4.469-22.083-9.414-38.041c-.2-.637-.394-1.284-.587-1.929a117.013,117.013,0,0,1-2.82-11.41c-4.031-21.326-3.024-29.749-36.509-35.735l-1.452-.133L57.7,61.625s-2.03.71-5.227,1.817c-6.614,2.295-18.227,6.3-27.106,9.262-20.152,6.721-18.8,28.719-10.425,48.24,1.925,4.472,3.758,9.115,5.466,13.776.234.626.465,1.252.686,1.882,5.717,15.865,9.989,31.79,11.574,42.4" transform="translate(24.085 53.545)" fill="#171612"/>
                <path id="Trazado_824568" data-name="Trazado 824568" d="M19.95,84.94q5.284,15.9,10.57,31.808c.23.7-.867,1-1.1.3L18.853,85.243c-.232-.7.867-1,1.1-.3" transform="translate(133.775 73.461)" fill="#5a554d"/>
                <path id="Trazado_824569" data-name="Trazado 824569" d="M58.555,151.713a47.278,47.278,0,0,0,21.128,26.469.854.854,0,0,0,.862-1.473A45.5,45.5,0,0,1,60.2,151.259c-.329-1.043-1.977-.6-1.645.454" transform="translate(9.196 130.911)" fill="#5a554d"/>
                <path id="Trazado_824570" data-name="Trazado 824570" d="M23.589,152.976a29.03,29.03,0,0,1-8.468,20.414c-.789.768.419,1.974,1.205,1.207a30.776,30.776,0,0,0,8.969-21.621.854.854,0,0,0-1.706,0" transform="translate(146.427 132.202)" fill="#5a554d"/>
                <path id="Trazado_824571" data-name="Trazado 824571" d="M25.941,65.43c5.977,5.431,12.256,10.507,18.175,16,.037-.3.077-.591.114-.886q-7.7,4.278-15.024,9.171a.573.573,0,0,0-.114.886q9.75,10.529,19.492,21.055v-.8c-4,3.405-8.2,6.58-12.019,10.191-.531.5.269,1.3.8.8,3.822-3.611,8.019-6.788,12.021-10.191a.571.571,0,0,0,0-.8L29.892,89.8c-.037.293-.077.589-.114.886Q37.1,85.8,44.8,81.517a.569.569,0,0,0,.114-.886c-5.919-5.493-12.2-10.569-18.173-16-.536-.488-1.338.308-.8.8" transform="translate(101.808 56.025)" fill="#5a554d"/>
                <path id="Trazado_824572" data-name="Trazado 824572" d="M44.2,280.256a.754.754,0,0,1-.749-.69C38.5,220.506,19.223,96.672,19.029,95.428a.753.753,0,1,1,1.488-.232c.192,1.245,19.478,125.131,24.438,184.246a.755.755,0,0,1-.688.813c-.021,0-.043,0-.064,0" transform="translate(119 82.161)" fill="#5a554d"/>
                <path id="Trazado_824573" data-name="Trazado 824573" d="M86.043,126.143a.713.713,0,0,1-.215-.032l-19.352-5.773a.751.751,0,0,1-.48-1.005l9.486-23.26L57.114,84.529a.75.75,0,0,1-.185-1.108L71.193,65.683a.752.752,0,1,1,1.172.942L58.63,83.7l18.186,11.43a.752.752,0,0,1,.3.921L67.7,119.135l18.556,5.536a.752.752,0,0,1-.215,1.473" transform="translate(6.626 56.826)" fill="#5a554d"/>
                <path id="Trazado_824574" data-name="Trazado 824574" d="M56.791,286.095a.845.845,0,0,1-.675-.351.753.753,0,0,1,.153-1.052l.043-.03c1.08-3.986,2.431-42.558,3.11-89.278.579-39.856.637-89.273-1.1-97.374a.752.752,0,0,1,1.471-.316c1.794,8.346,1.721,58.765,1.114,99.406-.336,22.413-.863,44.541-1.447,60.709-1,27.609-1.675,27.915-2.327,28.213a.809.809,0,0,1-.338.075" transform="translate(33.615 84.367)" fill="#5a554d"/>
                <path id="Trazado_824575" data-name="Trazado 824575" d="M10.287,202.633a.752.752,0,0,1-.1-1.5c10.546-1.42,21.075-15.157,21.18-15.295a.752.752,0,0,1,1.2.908c-.443.587-11.01,14.374-22.178,15.878a.909.909,0,0,1-.1.006" transform="translate(148.961 161.216)" fill="#5a554d"/>
                <path id="Trazado_824576" data-name="Trazado 824576" d="M91.265,202.7c-10.18,0-23.4-1.448-34.821-7.393a.752.752,0,1,1,.7-1.334c21.683,11.29,50.15,6,50.434,5.941a.753.753,0,0,1,.286,1.478A98.967,98.967,0,0,1,91.265,202.7" transform="translate(-13.699 168.462)" fill="#5a554d"/>
                <path id="Trazado_824577" data-name="Trazado 824577" d="M23.235,63.443c2.59,3.091,6.547,10.755,10.8,24.047.159.482.314.977.467,1.476,1.732,5.545,3.506,12.023,5.253,19.5.107.46.215.923.32,1.39q1.368,5.96,2.7,12.755c.228,1.174.443,2.5.645,3.968.054.391.108.792.159,1.207.888,7.036,1.491,16.919,1.874,28.568l.034,1.155c.155,4.913.275,10.126.357,15.564.007.449.011.9.019,1.353.17,12.08.178,25.221.077,38.577l-.011,1.28c-.043,5.162-.1,10.354-.174,15.525,0,.351-.007.7-.015,1.05-.069,4.994-.155,9.959-.252,14.865l-.022,1.2q-.093,4.892-.2,9.677c-.011.428-.019.854-.03,1.284-.209,9.178-.449,17.979-.7,26.086-.017.413-.028.828-.039,1.237-.159,5.055-.321,9.828-.478,14.245a204,204,0,0,0,42.25-5.289q8.329-1.92,16.482-4.519c-.359-3.351-.742-6.922-1.151-10.668v0c-.058-.551-.12-1.1-.178-1.665-.893-8.189-1.882-17.184-2.942-26.585-.058-.523-.12-1.045-.178-1.57-.946-8.417-1.947-17.145-2.979-25.906v0c-.09-.764-.178-1.534-.271-2.3v0c-.977-8.305-1.983-16.618-2.986-24.716-.047-.383-.1-.764-.144-1.148-1.017-8.167-2.037-16.093-3.041-23.54-.064-.471-.125-.938-.191-1.407-1.3-9.565-2.555-18.3-3.738-25.68-.08-.5-.161-1-.239-1.493-.054-.312-.1-.62-.155-.927-1.34-8.139-2.708-15.568-4.069-22.339-.077-.37-.151-.742-.228-1.108-2.377-11.681-4.738-21.358-6.945-29.3-.1-.351-.194-.7-.293-1.047a208.906,208.906,0,0,0-7.834-23.312l-36.727-3.3s-2.03.706-5.229,1.817" transform="translate(53.326 53.546)" fill="#fff"/>
                <path id="Trazado_824578" data-name="Trazado 824578" d="M38.984,75.464c.159.484.314.977.467,1.476A52.745,52.745,0,0,0,66.266,81.1a32.958,32.958,0,0,0,12-3.848c-.1-.349-.194-.7-.293-1.047-9.782,5.631-22.5,4.824-32.928,1.553a55.429,55.429,0,0,1-6.061-2.3" transform="translate(48.379 65.569)" fill="#dbccc1"/>
                <path id="Trazado_824579" data-name="Trazado 824579" d="M35.146,86.689c.108.46.217.923.321,1.392a133.919,133.919,0,0,0,36.066,9.587c1.415.148,2.871.235,4.347.247-.077-.37-.15-.742-.228-1.108a70.12,70.12,0,0,1-10.357-1.233,150.384,150.384,0,0,1-19.188-4.861q-5.559-1.8-10.961-4.024" transform="translate(57.937 75.323)" fill="#dbccc1"/>
                <path id="Trazado_824580" data-name="Trazado 824580" d="M32.758,96.382c.054.391.108.792.159,1.205a152.139,152.139,0,0,1,41.375,16.665q-.121-.754-.239-1.491A153.747,153.747,0,0,0,32.758,96.382" transform="translate(63.988 83.745)" fill="#dbccc1"/>
                <path id="Trazado_824581" data-name="Trazado 824581" d="M30.656,112.313q.017.575.036,1.155A152.239,152.239,0,0,1,74.085,127.5q-.093-.706-.191-1.407a153.839,153.839,0,0,0-43.238-13.777" transform="translate(68.124 97.587)" fill="#dbccc1"/>
                <path id="Trazado_824582" data-name="Trazado 824582" d="M62.352,147.722c1.712,3.289,4.255,7.748,3.336,11.58-1.045,4.366-6.158,5.093-9.918,5.27a36.843,36.843,0,0,1-17.175-3.381l-.011,1.278a35.831,35.831,0,0,0,20.889,2.872c18.154-3.343-1.977-28.332-8.346-34.5A66.518,66.518,0,0,0,38.5,121.26c.007.449.011.9.019,1.353a64.222,64.222,0,0,1,23.834,25.108" transform="translate(60.671 105.361)" fill="#dbccc1"/>
                <path id="Trazado_824583" data-name="Trazado 824583" d="M28.7,146.264c2.013,4.054,4.936,7.773,7.52,11.475q1.211,1.738,2.443,3.463-.132-1.149-.271-2.3v0q-3.476-4.939-6.782-9.985c-2.164-3.3-4.857-8.036-2.11-11.8a8.085,8.085,0,0,1,5.906-2.932c-.047-.383-.1-.766-.144-1.149-.239.028-.482.058-.725.1a8.813,8.813,0,0,0-6.281,3.764c-1.817,2.945-1,6.463.445,9.369" transform="translate(109.991 115.591)" fill="#dbccc1"/>
                <path id="Trazado_824584" data-name="Trazado 824584" d="M25.52,152.668c15.927,2.215,31.586,6.857,45.47,15.095,2.491,1.48,4.923,3.069,7.272,4.769-.058-.521-.12-1.043-.178-1.568C62.572,160.05,44.36,154.249,25.535,151.618c0,.351-.007.7-.015,1.05" transform="translate(73.546 131.738)" fill="#dbccc1"/>
                <path id="Trazado_824585" data-name="Trazado 824585" d="M23.851,161.335q1.166.418,2.327.854a189.3,189.3,0,0,1,53.809,31.2c-.058-.553-.12-1.106-.178-1.667a190.821,190.821,0,0,0-55.936-31.586l-.022,1.2" transform="translate(74.94 139.137)" fill="#dbccc1"/>
                <path id="Trazado_824586" data-name="Trazado 824586" d="M38.894,194.561a92.79,92.79,0,0,0,11.135,3.618c3.319.85,6.84,1.817,10.3,1.749,2.428-.045,5.2-.63,6.655-2.773,1.921-2.83.42-6.2-1.288-8.72a69.407,69.407,0,0,0-26.037-22.481c-.011.43-.019.854-.03,1.284a70.773,70.773,0,0,1,10.133,6.4,69.231,69.231,0,0,1,14.562,14.86c2.177,3.057,4.035,7.946-.606,9.72-2.811,1.071-6.025.465-8.866-.114a92.429,92.429,0,0,1-15.919-4.773c-.017.411-.028.826-.039,1.235" transform="translate(58.931 144.195)" fill="#dbccc1"/>
                <path id="Trazado_824587" data-name="Trazado 824587" d="M92.322,183.636A520.385,520.385,0,0,0,76.16,277.689a1.113,1.113,0,0,1-1.108,1.024.738.738,0,0,1-.092,0,1.114,1.114,0,0,1-1.022-1.2,522.938,522.938,0,0,1,16.229-94.45c.882-3.276,1.009-7.918.6-13.424-.138-1.867-.344-3.837-.6-5.881-.222-1.77-.486-3.6-.785-5.478-.1-.609-.192-1.222-.3-1.843-5.11-30.5-18.747-72-18.934-72.572a1.116,1.116,0,1,1,2.119-.7c.77,2.334,14.157,43.076,19.113,73.413.1.619.2,1.232.3,1.841.426,2.757.772,5.416,1.032,7.939.265,2.618.434,5.091.484,7.376a36.249,36.249,0,0,1-.867,9.909" transform="translate(-24.694 71.586)" fill="#5a554d"/>
                <path id="Trazado_824588" data-name="Trazado 824588" d="M115.472,28.242S118.315,2.36,92.646.086C72.09-1.737,61.942,26.061,75.213,49.63S73.39,86.136,58.559,78.5c0,0,5.528,13.955,26.441,8.492s30.472-58.748,30.472-58.748" transform="translate(-25.504 0)" fill="#171612"/>
                <path id="Trazado_824589" data-name="Trazado 824589" d="M36.335,66.555A45.622,45.622,0,0,0,49.273,81.814c15.7,12.312,29.1,21.057,47.313,12.008,5.5-2.856,9.425-9.7,9.529-9.89,2.8-5.087,4.689-15.213,4.921-23.978.228-8.651-.919-5.663,2.523-18.366,5.231-19.294-19.891-28.874-19.891-28.874-9.141-5.681-35.032-9.9-52.377,9.03C30.615,33.4,28.228,46.468,35.565,63.716a14.717,14.717,0,0,1,.77,2.839" transform="translate(26.669 6.872)" fill="#171612"/>
                <path id="Trazado_824590" data-name="Trazado 824590" d="M88.336,9.991A39.9,39.9,0,0,0,61.069,37.557a.7.7,0,0,1-1.351-.374A41.336,41.336,0,0,1,87.964,8.64a.7.7,0,0,1,.372,1.351" transform="translate(-0.882 7.481)" fill="#e59f3f"/>
                <path id="Trazado_824591" data-name="Trazado 824591" d="M84.277,17.745c-1.988-5.285-7.137-9.369-13-8.857-1.185.1-2.514.553-2.048,2.093.185.619,1.276,1.519,1.775,1.957a17.308,17.308,0,0,0,3.846,2.551,18.1,18.1,0,0,0,9.335,1.732c.9-.064.9,1.338,0,1.4A19.35,19.35,0,0,1,71.909,15.4c-1.861-1.269-6.392-4.833-3.317-7.162,2.545-1.925,7.423-.482,9.931.813a15.089,15.089,0,0,1,7.105,8.322c.318.845-1.035,1.209-1.351.37" transform="translate(-12.419 6.347)" fill="#e59f3f"/>
                <path id="Trazado_824592" data-name="Trazado 824592" d="M64.828,20.817c-1.009-3.966-2.086-8.307-.8-12.344.841-2.646,3.147-5.364,6.236-4.586,2.912.733,3.383,4.078,2.51,6.524a24.614,24.614,0,0,1-6.741,9.333c-.667.607-1.66-.381-.992-.992,2.166-1.988,10.774-11.725,4.732-13.191a2.738,2.738,0,0,0-3.188,1.028,5.369,5.369,0,0,0-.974,1.676,11.307,11.307,0,0,0-.757,4.2,31.668,31.668,0,0,0,1.325,7.978.7.7,0,0,1-1.353.372" transform="translate(7.768 3.26)" fill="#e59f3f"/>
                <path id="Trazado_824593" data-name="Trazado 824593" d="M37.733,34.585s3.672.3,4.407,4.979-1.572,12.51-6.319,11.58,1.912-16.558,1.912-16.558" transform="translate(93.47 30.05)" fill="#632829"/>
                <path id="Trazado_824594" data-name="Trazado 824594" d="M39.387,53.7A6.46,6.46,0,1,0,33.2,46.986,6.469,6.469,0,0,0,39.387,53.7m.449-11.023a4.571,4.571,0,1,1-4.754,4.381,4.575,4.575,0,0,1,4.754-4.381" transform="translate(91.364 35.441)" fill="#e59f3f"/>
                <line id="Línea_255" data-name="Línea 255" y2="0.004" transform="translate(118.459 101.087)" fill="#b1614f"/>
                <path id="Trazado_824595" data-name="Trazado 824595" d="M42.917,78.667a34.6,34.6,0,0,0,21.13,11.3c17.431,2.424,19.382-5.093,19.382-5.093a32.965,32.965,0,0,1-1.422-7.21c-.082-.951-.135-1.929-.151-2.942a79.847,79.847,0,0,1,.46-9.26c.08-.815.168-1.663.269-2.538l.009-.1c-12.079-2.8-21.978-8.1-28.777-16.968L52,44.779l-1.224-.727-.221.7L50.8,47c1.168,10.537-2.319,22.507-7.881,31.67" transform="translate(35.866 38.276)" fill="#b1614f"/>
                <path id="Trazado_824596" data-name="Trazado 824596" d="M41.975,62.1c3.721,6.4,7.739,12.621,12.064,18.623,4.119,5.721,8.6,12.4,14.331,16.652,3.179,2.359,7.44,4.117,11.342,2.482,4.095-1.718,4.592-6.332,4.633-10.217.088-8.32-.7-16.812-4.112-24.488-.364-.819.845-1.532,1.209-.708a54.594,54.594,0,0,1,4.233,20.2c.207,5.25.908,12.9-4.42,16.026-4.973,2.915-11.028.215-14.983-3.173-4.732-4.057-8.589-9.449-12.264-14.445A225.925,225.925,0,0,1,40.764,62.812a.7.7,0,0,1,1.211-.708" transform="translate(37.682 53.666)" fill="#1e1d12"/>
                <path id="Trazado_824597" data-name="Trazado 824597" d="M43.369,49.953C45.946,55.7,51.91,65.853,63,69.591a79.865,79.865,0,0,1,.46-9.26c.078-.815.168-1.663.269-2.538-.239.03-.482.05-.727.067-6.569.467-13.729-2.886-19.636-7.907" transform="translate(54.717 43.403)" fill="#171612"/>
                <path id="Trazado_824598" data-name="Trazado 824598" d="M34.119,51.6C33.74,58.137,38.81,66.469,47.351,67.2l.045.006h0l.181.017c.116.385.254.763.4,1.149.062.166.127.336.192.5a.359.359,0,0,0,.022.047C52.875,80.344,68.327,87.8,76.876,88.533a19.58,19.58,0,0,0,5.816-.413c9.191-1.443,11.6-13.607,10.726-23.066a35.879,35.879,0,0,0-.583-3.9c-.019-.084-.036-.168-.054-.25,0,0,3.805-12.936,4.85-18.614,2.02-11.008-3.684-22.642-27.869-26.273S38.868,27.136,36.695,35.044c-.366,1.316-.559,9.279.7,10.638-2.373,1.041-3.143,3.717-3.271,5.915" transform="translate(37.769 13.424)" fill="#b1614f"/>
                <path id="Trazado_824599" data-name="Trazado 824599" d="M46.492,49.127a7.515,7.515,0,0,1-.9-.211c-3.016-.912-4.633-4.22-4.7-4.36a.975.975,0,1,1,1.757-.845c.021.039,1.327,2.678,3.508,3.338a3.45,3.45,0,0,0,3.5-.551.98.98,0,0,1,1.374-.03.969.969,0,0,1,.05,1.362,5.175,5.175,0,0,1-4.588,1.3" transform="translate(71.919 37.499)" fill="#632829"/>
                <path id="Trazado_824600" data-name="Trazado 824600" d="M45.642,49.608a3.65,3.65,0,0,1-1.947-1.45.614.614,0,0,1,1.048-.639,2.494,2.494,0,0,0,2.609.966.613.613,0,1,1,.224,1.205,3.986,3.986,0,0,1-1.934-.082" transform="translate(69.93 41.033)" fill="#632829"/>
                <path id="Trazado_824601" data-name="Trazado 824601" d="M42.38,38.4c-.228,1.6-1.088,2.805-1.919,2.687s-1.323-1.512-1.1-3.114,1.088-2.807,1.919-2.689,1.323,1.514,1.1,3.115" transform="translate(83.602 30.651)" fill="#171612"/>
                <path id="Trazado_824602" data-name="Trazado 824602" d="M37.573,36.953a.429.429,0,0,1-.054-.763c.17-.1,4.188-2.471,7.455.142a.429.429,0,0,1-.536.669c-2.8-2.245-6.44-.1-6.476-.077a.435.435,0,0,1-.389.028" transform="translate(84.637 30.506)" fill="#171612"/>
                <path id="Trazado_824603" data-name="Trazado 824603" d="M49.87,37.464c-.228,1.6-1.088,2.805-1.919,2.687s-1.323-1.514-1.1-3.115,1.088-2.805,1.921-2.687,1.321,1.514,1.093,3.115" transform="translate(62.114 29.838)" fill="#171612"/>
                <path id="Trazado_824604" data-name="Trazado 824604" d="M45.549,36.528a.428.428,0,0,1-.15-.749c.155-.121,3.841-2.983,7.412-.8a.428.428,0,0,1-.447.731c-3.067-1.873-6.4.718-6.435.744a.43.43,0,0,1-.381.077" transform="translate(61.944 29.681)" fill="#171612"/>
                <path id="Trazado_824605" data-name="Trazado 824605" d="M66.034,39.707a1.282,1.282,0,0,1-.078,1.906,4.577,4.577,0,1,0,3.426,1l.09-2.188a6.452,6.452,0,1,1-3.437-.714" transform="translate(14.341 34.501)" fill="#e59f3f"/>
                <path id="Trazado_824606" data-name="Trazado 824606" d="M36.423,46.543a14.1,14.1,0,0,1,1.957.344c4.072,1.017,6.489,3.663,8.352,6.268.32-2.226,2.592-12.437,17.45-14.267.215-.024.441-.049.682-.069a12.706,12.706,0,0,0,1.572-6.4c-1.546-6.031,27.6-3.265,28.676,6.007.45,3.885.7,6.418.828,8.059v0a15.755,15.755,0,0,1,.135,3.018s2.6,2.65,2.68-10.135a17.355,17.355,0,0,0-4.435-11.359c-5.883-7-16.969-11.952-29.184-13.387C47.046,12.5,34.08,31.618,33.287,38.551s3.136,7.991,3.136,7.991" transform="translate(38.736 12.564)" fill="#171612"/>
                <g id="Grupo_1073747" data-name="Grupo 1073747" transform="translate(126.319 74.576)" opacity="0.5">
                  <g id="Grupo_1073746" data-name="Grupo 1073746">
                    <g id="Grupo_1073745" data-name="Grupo 1073745" clip-path="url(#clip-path-5)">
                      <path id="Trazado_824607" data-name="Trazado 824607" d="M36.555,41.64c-.037.972,2.052,1.867,4.867,2.166a35.869,35.869,0,0,0-.585-3.9c-2.452.168-4.248.848-4.282,1.736" transform="translate(-36.554 -39.904)" fill="#632829"/>
                    </g>
                  </g>
                </g>
                <path id="Trazado_824608" data-name="Trazado 824608" d="M56.186,34.066a1.8,1.8,0,0,0,2.587-2.416,5.229,5.229,0,0,0-2.986-2.129,13.069,13.069,0,0,0-11.447,2.074s6.943.007,10.1,1.454a10.067,10.067,0,0,1,1.746,1.017" transform="translate(57.566 25.174)" fill="#171612"/>
                <path id="Trazado_824609" data-name="Trazado 824609" d="M36.95,34.611A1.8,1.8,0,0,1,35,31.66a5.229,5.229,0,0,1,3.4-1.377c6.786-.419,8.457,4.052,8.457,4.052a23.907,23.907,0,0,0-7.969-.307,10.162,10.162,0,0,0-1.934.583" transform="translate(88.291 26.288)" fill="#171612"/>
                <g id="Grupo_1073750" data-name="Grupo 1073750" transform="translate(98.865 73.286)" opacity="0.5">
                  <g id="Grupo_1073749" data-name="Grupo 1073749">
                    <g id="Grupo_1073748" data-name="Grupo 1073748" clip-path="url(#clip-path-6)">
                      <path id="Trazado_824610" data-name="Trazado 824610" d="M59.585,41.487c-.045,1.108-2.843,1.9-6.25,1.76S47.2,42.1,47.246,40.99s2.843-1.9,6.25-1.76,6.134,1.147,6.089,2.258" transform="translate(-47.245 -39.214)" fill="#632829"/>
                    </g>
                  </g>
                </g>
                <path id="Trazado_824611" data-name="Trazado 824611" d="M57.868,44.334l.045,0,0,0,.181.017c.114.383.252.763.4,1.149.062.166.129.336.194.5a.254.254,0,0,0,.021.047,7.856,7.856,0,0,0,3.381-1.116,6.245,6.245,0,0,0,1.854-1.787.885.885,0,0,0-1.461-1,4.765,4.765,0,0,1-2.213,1.721,6.421,6.421,0,0,1-1.57.391,7.51,7.51,0,0,1-.834.069" transform="translate(27.252 36.291)" fill="#632829"/>
                <path id="Trazado_824612" data-name="Trazado 824612" d="M69.338,45.918a.882.882,0,0,1-.682-.748c-.82-6.222-8.006-9.313-8.079-9.344a.883.883,0,0,1,.682-1.63c.335.138,8.2,3.5,9.15,10.742a.885.885,0,0,1-.762.992.852.852,0,0,1-.308-.013" transform="translate(16.886 29.652)" fill="#632829"/>
                <path id="Trazado_824613" data-name="Trazado 824613" d="M62.227,40.09a.866.866,0,0,1-.31-.136.885.885,0,0,1-.222-1.232A6.075,6.075,0,0,1,67.178,36.4.885.885,0,0,1,67,38.158a4.308,4.308,0,0,0-3.857,1.574.883.883,0,0,1-.919.359" transform="translate(16.522 31.596)" fill="#632829"/>
                <path id="Trazado_824614" data-name="Trazado 824614" d="M56.351,67.476c4.853,3.508,9.791,5.334,15.059.613.48-7.689-1.359-16.429-3.992-21.459-4.325-8.264,2.966-18.584,2.966-18.584-4.695,2-9.913,2-12.656,7.543,4.73,5.345,1.964,20.023-1.377,31.887" transform="translate(22.701 24.369)" fill="#171612"/>
                <path id="Trazado_824615" data-name="Trazado 824615" d="M52.8,48.711a8.879,8.879,0,1,1,8.571-9.176A8.889,8.889,0,0,1,52.8,48.711m7.335-9.146a4.838,4.838,0,0,0-.08-.832,7.314,7.314,0,0,0-.493-1.837,7.433,7.433,0,0,0-1.574-2.385,7.715,7.715,0,0,0-3.841-2.153,8.466,8.466,0,0,0-1.908-.159,7.633,7.633,0,0,0-7.38,7.9,5.961,5.961,0,0,0,.065.764A7.554,7.554,0,0,0,49,46.625a7.75,7.75,0,0,0,1.79.673,8.093,8.093,0,0,0,1.988.178,7.636,7.636,0,0,0,7.365-7.911" transform="translate(56.594 26.899)" fill="#fff"/>
                <path id="Trazado_824616" data-name="Trazado 824616" d="M41.995,49.813a8.879,8.879,0,1,1,8.569-9.178,8.89,8.89,0,0,1-8.569,9.178m7.333-9.146a4.838,4.838,0,0,0-.08-.832A7.313,7.313,0,0,0,48.754,38a7.4,7.4,0,0,0-1.574-2.385,7.717,7.717,0,0,0-3.839-2.153,8.385,8.385,0,0,0-1.91-.159,7.633,7.633,0,0,0-7.38,7.9,5.961,5.961,0,0,0,.065.764A7.753,7.753,0,0,0,39.974,48.4a8.1,8.1,0,0,0,1.988.178,7.636,7.636,0,0,0,7.365-7.911" transform="translate(87.612 27.856)" fill="#fff"/>
                <path id="Trazado_824617" data-name="Trazado 824617" d="M64.763,36.7a.735.735,0,0,1-.366-.116A18.311,18.311,0,0,0,53.1,33.69a.73.73,0,1,1-.2-1.447,19.5,19.5,0,0,1,12.286,3.117.731.731,0,0,1-.426,1.344" transform="translate(36.287 27.944)" fill="#fff"/>
                <path id="Trazado_824618" data-name="Trazado 824618" d="M39.137,39.072a.737.737,0,0,1-.307-.082,10.009,10.009,0,0,0-5.153-.974.717.717,0,0,1-.813-.639.73.73,0,0,1,.639-.811,11.44,11.44,0,0,1,6,1.131.73.73,0,0,1-.372,1.375" transform="translate(98.192 31.719)" fill="#fff"/>
                <path id="Trazado_824619" data-name="Trazado 824619" d="M42.322,47.03a.732.732,0,0,0,.407-.079L46.176,45.2a.741.741,0,0,0,.077-1.276c-2.534-1.7-3.981-4.181-4.553-7.8a.742.742,0,0,0-1.465.232,12.345,12.345,0,0,0,4.2,8.066L42.057,45.63a.742.742,0,0,0,.265,1.4" transform="translate(77.744 30.839)" fill="#632829"/>
                <path id="Trazado_824620" data-name="Trazado 824620" d="M45.707,37.627a.731.731,0,0,1-.478-.206,2.078,2.078,0,0,0-2.444-.331.73.73,0,0,1-.714-1.275,3.562,3.562,0,0,1,4.175.557.73.73,0,0,1-.538,1.254" transform="translate(75.101 30.742)" fill="#fff"/>
                <path id="Trazado_824621" data-name="Trazado 824621" d="M12.331,152.535c.987.368,24.423,9.131,49.258,16.5,14.934,4.426,27.308,7.425,36.785,8.916a84.733,84.733,0,0,0,12.918,1.164q1.648,0,3.151-.1a28.71,28.71,0,0,0,9.78-2.273q.877-.387,1.661-.819a19.135,19.135,0,0,0,7.178-6.713,19.865,19.865,0,0,0,2.708-12.845c-.034-.413-.082-.834-.14-1.254-.645-4.734-2.392-9.913-4.751-15.629-2.985-7.227-7.5-16.465-13.419-27.448-9.855-18.294-20.212-35.182-20.649-35.89-1.482-2.416-6.272-6.022-8.6-7.262C91.121,78.007,95,89.054,97.625,98.292c2.112,7.423,5.089,14.377,6.378,21.989.977,5.8,2.985,12.316,1.906,18.169-.656,3.575-2.484,6.659-5.764,7.4.217.469.428.933.626,1.376-7.455-1.338-19.167-4.1-37.252-9.705-21.236-6.575-40.218-13.675-40.407-13.746a15.359,15.359,0,1,0-10.782,28.764" transform="translate(59.201 59.845)" fill="#171612"/>
                <path id="Trazado_824622" data-name="Trazado 824622" d="M2.609,135.245a19.171,19.171,0,0,0,7.18-6.713A19.887,19.887,0,0,0,12.5,115.687c-5.446,4.248-11.443,11.025-9.886,19.558" transform="translate(182.476 100.518)" fill="#5a554d"/>
                <path id="Trazado_824623" data-name="Trazado 824623" d="M18.787,117.227Z" transform="translate(145.604 101.857)" fill="#171612"/>
                <path id="Trazado_824624" data-name="Trazado 824624" d="M20.838,148.776c.032-2.123.108-4.149.211-6.143.2-3.975.506-7.808.85-11.606.7-7.58,1.572-14.99,2.529-22.371q.712-5.528,1.5-11.036l.8-5.509.854-5.582c.037-.243.09-.559.14-.8A19.08,19.08,0,0,1,65.17,93.111l-.039.209-1.017,5.162-.994,5.24q-.978,5.245-1.893,10.5c-1.211,6.993-2.34,13.983-3.263,20.846-.434,3.213-.824,6.4-1.129,9.477,2.379-.163,4.84-.394,7.315-.656,3.4-.363,6.857-.8,10.331-1.269,6.952-.953,13.976-2.071,21.01-3.271s14.084-2.495,21.13-3.848q5.287-1.018,10.563-2.078l5.27-1.078,5.21-1.088.209-.045a15.362,15.362,0,0,1,6.894,29.932l-5.412,1.374-5.362,1.331q-5.357,1.32-10.731,2.59-10.754,2.543-21.591,4.889c-7.238,1.555-14.521,3.037-21.922,4.371-3.7.667-7.438,1.3-11.239,1.871s-7.674,1.084-11.75,1.467c-2.048.185-4.14.346-6.4.424-1.123.043-2.288.062-3.536.047s-2.568-.065-4.093-.209c-.764-.073-1.575-.166-2.493-.32-.363-.06-.736-.129-1.14-.207-.609-.121-1.271-.277-2.009-.482a23.649,23.649,0,0,1-4.609-1.8,20.965,20.965,0,0,1-3.368-2.183,19.784,19.784,0,0,1-4.078-4.4,19.148,19.148,0,0,1-1.8-3.349c-.174-.413-.335-.835-.488-1.26l-.219-.637-.155-.5c-.1-.329-.2-.663-.28-1l-.067-.247-.049-.206-.093-.406-.1-.465-.075-.353c-.1-.49-.178-.933-.256-1.4-.267-1.732-.383-3.106-.473-4.414-.159-2.564-.172-4.768-.142-6.894" transform="translate(4.233 61.113)" fill="#171612"/>
                <path id="Trazado_824625" data-name="Trazado 824625" d="M83.561,119.3l.1.467.093.406.05.2.064.247c.088.335.183.667.282,1l.155.5.221.637c.151.424.314.845.484,1.258a19.146,19.146,0,0,0,1.805,3.349,19.74,19.74,0,0,0,4.076,4.4,20.863,20.863,0,0,0,3.368,2.185,23.6,23.6,0,0,0,4.609,1.8c.74.2,1.4.359,2.009.48-1.024-9.688-10.656-14.641-17.319-16.928" transform="translate(-57.544 103.655)" fill="#5a554d"/>
                <path id="Trazado_824626" data-name="Trazado 824626" d="M8.875,118.057c-1.531-3.026-1.276-6.025-1.062-9.193,1.809-1.643,3.452-3.018,4.237-3.8,2.187-2.181,6.188-4.829,10.466-7.444s7.15-2.738,11.025-3.358,10.148,1.06,8.477,3.177c-1.632,2.069-7,.374-10.972,2.288a35.935,35.935,0,0,0-6.079,3.571,21.467,21.467,0,0,1,12.71-.729c6.648,1.353,8.169,5,6.287,5.573s-3.725.817-8.459-.273-10.079,1.157-10.079,1.157c2.878-.6,13.1.015,15.846,2.721s.136,4.611-3.33,3.691-12.469.4-12.469.4a62.123,62.123,0,0,1,8.449,1.469c.54.15,4.644,1.929.845,3.6-2.573,1.129-9.045.523-14.353,1.26a19.285,19.285,0,0,0-5.614,1.949,14.822,14.822,0,0,1-5.924-6.051" transform="translate(140.492 81.786)" fill="#b1614f"/>
                <path id="Trazado_824627" data-name="Trazado 824627" d="M20.679,107.476c1.4-2.665,3.721-6.734,5.438-7.92,2.618-1.811,5.609-5.936,6.971-4.28s-2.454,6.627-2.454,6.627l-10.062,7.2c.034-.536.073-1.078.107-1.624" transform="translate(127.673 82.45)" fill="#b1614f"/>
                <path id="Trazado_824628" data-name="Trazado 824628" d="M17.242,110.656a31.178,31.178,0,0,1,8.068,10.5c.366.817-.841,1.531-1.211.708a30.327,30.327,0,0,0-7.847-10.217c-.671-.606.321-1.594.991-.991" transform="translate(144.168 95.983)" fill="#5a554d"/>
                <path id="Trazado_824629" data-name="Trazado 824629" d="M90.05,130.381a264.172,264.172,0,0,0-41.8-16.667.7.7,0,0,1,.374-1.351A266.33,266.33,0,0,1,90.757,129.17c.807.406.1,1.615-.706,1.211" transform="translate(19.13 97.602)" fill="#5a554d"/>
                <path id="Trazado_824630" data-name="Trazado 824630" d="M83.937,115.648a19.07,19.07,0,0,0-7.341,7.135.7.7,0,0,1-1.209-.708,20.461,20.461,0,0,1,7.844-7.638c.791-.434,1.5.776.706,1.211" transform="translate(-25.482 99.352)" fill="#5a554d"/>
                <path id="Trazado_824631" data-name="Trazado 824631" d="M51.458,113.2a196.486,196.486,0,0,0-22.389-6.616c-.88-.206-.506-1.557.372-1.353A196.868,196.868,0,0,1,51.83,111.85c.843.3.48,1.66-.372,1.351" transform="translate(93.804 91.417)" fill="#5a554d"/>
                <path id="Trazado_824632" data-name="Trazado 824632" d="M117.1,111.558c-.363,5.637-5.438,9.716-11.082,9.544a25.891,25.891,0,0,0-8.739.946c-5.96,2.071-12.424,6.173-15.73,6.367-4.878.288-1.525-3.779-1.039-4.226a73.021,73.021,0,0,1,8.077-6.066s-10.154,3.441-13.3,6.261-6.9,2.22-5.468-2.089,11.826-10.427,15.164-11.342c0,0-6.81.5-11.193,4.184s-6.444,4.411-8.726,4.818-2.639-4.233,3.611-9.212S78.57,105.422,82.4,104.7a42.238,42.238,0,0,0-8.29-.492c-5.188.118-9.914,4.775-12.735,3.478-2.886-1.325,2.794-6.45,7.19-7.874s7.474-2.833,13.364-2.381,11.5,1.086,14.966,2.2,16.293,3.471,19.319,7.754a6.474,6.474,0,0,1,.888,4.171" transform="translate(-30.854 84.581)" fill="#b1614f"/>
                <path id="Trazado_824633" data-name="Trazado 824633" d="M88.956,104.311s-8.8-6.782-12.516-7.277-9.062-3.222-9.6-.757,6.122,5.64,6.122,5.64Z" transform="translate(-14.306 82.769)" fill="#b1614f"/>
              </g>
            </g>
          </g>
        </g>
      </g>
    </g>
  </g>
</svg>
