<svg id="Grupo_1073734" data-name="Grupo 1073734" xmlns="http://www.w3.org/2000/svg" xmlns:xlink="http://www.w3.org/1999/xlink" width="609.762" height="389.417" viewBox="0 0 609.762 389.417">
  <defs>
    <clipPath id="clip-path">
      <rect id="Rectángulo_382963" data-name="Rectángulo 382963" width="491" height="389" rx="12" fill="#a854f3"/>
    </clipPath>
    <clipPath id="clip-path-2">
      <rect id="Rectángulo_400951" data-name="Rectángulo 400951" width="491" height="389" rx="12" fill="#aec4fa"/>
    </clipPath>
    <clipPath id="clip-path-3">
      <rect id="Rectángulo_382951" data-name="Rectángulo 382951" width="307.581" height="249.03" fill="none"/>
    </clipPath>
    <clipPath id="clip-path-4">
      <rect id="Rectángulo_382952" data-name="Rectángulo 382952" width="202.561" height="224.765" fill="none"/>
    </clipPath>
    <clipPath id="clip-path-5">
      <rect id="Rectángulo_382949" data-name="Rectángulo 382949" width="271.762" height="370.417" fill="none"/>
    </clipPath>
  </defs>
  <rect id="Rectángulo_382871" data-name="Rectángulo 382871" width="491" height="389" rx="12" transform="translate(84.762)" fill="#aec4fa"/>
  <g id="Enmascarar_grupo_1098653" data-name="Enmascarar grupo 1098653" transform="translate(84.762)" clip-path="url(#clip-path-2)">
    <g id="Grupo_1099146" data-name="Grupo 1099146" transform="translate(50.475 -138.155)">
      <path id="Elipse_11443" data-name="Elipse 11443" d="M113.578,24.557a89.02,89.02,0,1,1-89.02,89.02,89.121,89.121,0,0,1,89.02-89.02m0-24.557A113.578,113.578,0,1,0,227.155,113.578,113.578,113.578,0,0,0,113.578,0Z" transform="translate(278.025 6)" fill="#ecf2ff"/>
      <path id="Elipse_11443-2" data-name="Elipse 11443" d="M77.84,16.83A61.01,61.01,0,1,1,16.83,77.84,61.079,61.079,0,0,1,77.84,16.83M77.84,0a77.84,77.84,0,1,0,77.84,77.84A77.84,77.84,0,0,0,77.84,0Z" transform="translate(0 438.645)" fill="#ecf2ff"/>
    </g>
  </g>
  <g id="Grupo_1073731" data-name="Grupo 1073731" transform="translate(302.181 140)">
    <g id="Grupo_1073730" data-name="Grupo 1073730" transform="translate(0)" clip-path="url(#clip-path-3)">
      <path id="Trazado_824461" data-name="Trazado 824461" d="M160.167,101.307s-27.25,5.557-44.75-13.443,9.25-46.719,9.25-46.719-14.25-13.281-7.5-26.031c0,0,6.667-9.25,18.958-3.25,0,0,14.368-19.5,38.33-8.5s23.705,42,22.962,47.668c0,0,29.575,45.508-37.25,50.275" transform="translate(0 0)" fill="#00184c"/>
      <path id="Trazado_824462" data-name="Trazado 824462" d="M134.917,137.113l-4.5,13.25-37.5-38.75a21.8,21.8,0,0,0-1.583-13.667c-3.334-7-1.167-15-1.167-15a4.769,4.769,0,0,0-5.833,1.5l-3.553,11.2L49.9,87.509a6.852,6.852,0,0,0-1.75-.312c-2.051-.094-6.547.091-7.314,3.416,0,0-5.667-1.875-8.868,3.062l3.2,1.438s-5.021.479-6.188,3.812l3.875,2.993S35.542,106.8,38,108.446c7.933,5.311,34.167,10.667,37.917,14.917l34.012,57.777c4.874,8.28,11.4,15.743,20.905,17.14,6.372.936,16.043-.845,20.833-7.417a205.871,205.871,0,0,0,20.25-34Z" transform="translate(0 0)" fill="#ffa189"/>
      <line id="Línea_236" data-name="Línea 236" x2="11.417" y2="12.083" transform="translate(130.417 150.363)" fill="none" stroke="#f8756a" stroke-linecap="round" stroke-linejoin="round" stroke-width="1.5"/>
      <path id="Trazado_824463" data-name="Trazado 824463" d="M162.057,151.6l-5.39,32.1s11.666-19.478,15.25-26.833Z" transform="translate(0 0)" fill="#f8756a"/>
      <line id="Línea_237" data-name="Línea 237" x2="20.667" y2="6.667" transform="translate(40.833 90.613)" fill="none" stroke="#f8756a" stroke-linecap="round" stroke-linejoin="round" stroke-width="1.5"/>
      <line id="Línea_238" data-name="Línea 238" x2="23" y2="7" transform="translate(35.167 95.113)" fill="none" stroke="#f8756a" stroke-linecap="round" stroke-linejoin="round" stroke-width="1.5"/>
      <line id="Línea_239" data-name="Línea 239" x2="23.034" y2="6.307" transform="translate(31.966 101.307)" fill="none" stroke="#f8756a" stroke-linecap="round" stroke-linejoin="round" stroke-width="1.5"/>
      <path id="Trazado_824464" data-name="Trazado 824464" d="M67.042,107.613s11.5-6.25,16.125,5" transform="translate(0 0)" fill="none" stroke="#f8756a" stroke-linecap="round" stroke-linejoin="round" stroke-width="1.5"/>
      <path id="Trazado_824465" data-name="Trazado 824465" d="M274.833,128.113s22.833,2.667,31.167,28.75-19,91.417-19,91.417H177.333L218,174.78Z" transform="translate(0 0)" fill="#00184c"/>
      <path id="Trazado_824466" data-name="Trazado 824466" d="M236.333,183.7l6.124,4.5L229.541,248.28" transform="translate(0 0)" fill="none" stroke="#013f81" stroke-linecap="round" stroke-linejoin="round" stroke-width="1.5"/>
      <path id="Trazado_824467" data-name="Trazado 824467" d="M263.142,137.713,270,144.482a33.876,33.876,0,0,0,28.1,9.494l.233-.03" transform="translate(0 0)" fill="none" stroke="#013f81" stroke-linecap="round" stroke-linejoin="round" stroke-width="1.5"/>
      <path id="Trazado_824468" data-name="Trazado 824468" d="M277,248.28s24.667-76.058,15.667-94.029" transform="translate(0 0)" fill="none" stroke="#013f81" stroke-linecap="round" stroke-linejoin="round" stroke-width="1.5"/>
      <path id="Trazado_824469" data-name="Trazado 824469" d="M242.5,68.18c-4.687-5.906-11.316-9.11-17.036-10.847A44.342,44.342,0,0,0,208.9,55.677l-17.233,1.436-22.8,13.876-8.413,4.5a28.588,28.588,0,0,0-13.68,16,60.581,60.581,0,0,0-1.858,6.882c-3,14.25-10,38.75-10,38.75l37,19.75L180.6,139.03a23.891,23.891,0,0,0,6.562.417C196.5,144.947,218,174.78,218,174.78l56.833-46.667S252.5,80.78,242.5,68.18" transform="translate(0 0)" fill="#1574dd"/>
      <path id="Trazado_824470" data-name="Trazado 824470" d="M180.6,139.03s-9.852-.119-11.6-8.583a96.773,96.773,0,0,0-5.333-17.167s2.375,31.083-1.61,38.32l9.86,5.263Z" transform="translate(0 0)" fill="#013f81"/>
      <path id="Trazado_824471" data-name="Trazado 824471" d="M191.667,57.113l-18.285-9.075a7.667,7.667,0,0,0,4.785-7.237,7.2,7.2,0,1,0-14.375,0c0,.2.014.39.028.584l-.305-.26c-8.473-1.137-25.081-21.394-25.084-21.4a14.459,14.459,0,0,0-3.264,7.554l.333,8.5-6.333,11h5.75s-.083,16.666,7.917,20.666C149.8,70.932,156.521,68.6,160.78,65.4l8.088,5.588s2.466,20.292,15.466,18.625c15.974-2.048,7.333-32.5,7.333-32.5" transform="translate(0 0)" fill="#ffa189"/>
      <path id="Trazado_824472" data-name="Trazado 824472" d="M161.009,40.363c-8.862-3.907-22.575-20.632-22.578-20.636a14.365,14.365,0,0,0-3.1,6.588c6.74,4.492,17.256,11.014,25.681,14.049Z" transform="translate(0 0)" fill="#f8756a"/>
      <path id="Trazado_824473" data-name="Trazado 824473" d="M160.78,65.4s5.137-5.492,7.137-9.89c0,0,1.45,9.563-.525,14.458Z" transform="translate(0 0)" fill="#f8756a"/>
      <line id="Línea_240" data-name="Línea 240" y1="7.25" x2="4.737" transform="translate(168.43 36.738)" fill="none" stroke="#f8756a" stroke-linecap="round" stroke-linejoin="round" stroke-width="1.5"/>
      <path id="Trazado_824474" data-name="Trazado 824474" d="M141.667,51.78l8.167-3.333s1.271,4.416-3.042,5.791c-3.5,1.117-5.125-2.458-5.125-2.458" transform="translate(0 0)" fill="#fcfbff"/>
      <path id="Trazado_824475" data-name="Trazado 824475" d="M142.1,36.613c0,1.07-.616,1.937-1.375,1.937s-1.375-.867-1.375-1.937.616-1.937,1.375-1.937,1.375.867,1.375,1.937" transform="translate(0 0)" fill="#00184c"/>
      <path id="Trazado_824476" data-name="Trazado 824476" d="M138.417,29.459a6.264,6.264,0,0,1,6.812,2.625" transform="translate(0 0)" fill="none" stroke="#00184c" stroke-linecap="round" stroke-linejoin="round" stroke-width="3"/>
      <path id="Trazado_824477" data-name="Trazado 824477" d="M210.167,132.113l.5,14-42.75,53.75-29.334,11.756a10.871,10.871,0,0,0-5.3,4.531l-14.118,23.713a8.213,8.213,0,0,0,9-1.25l-1.75,3.625s6.625,1.625,9.875-1.875l-1.5,2.875a13.831,13.831,0,0,0,8.263.371s6.112,0,8.487-2.371c3.88-3.874,9.75-12.5,9.75-12.5s9.625.875,13.75-5.125l4.125-6,53.906-35.4a31.479,31.479,0,0,0,14.13-24.23l1.714-25.869Z" transform="translate(0 0)" fill="#ffa189"/>
      <line id="Línea_241" data-name="Línea 241" y1="18.125" x2="10.5" transform="translate(128.167 220.488)" fill="none" stroke="#f8756a" stroke-linecap="round" stroke-linejoin="round" stroke-width="1.5"/>
      <line id="Línea_242" data-name="Línea 242" y1="17.625" x2="9.375" transform="translate(136.292 222.738)" fill="none" stroke="#f8756a" stroke-linecap="round" stroke-linejoin="round" stroke-width="1.5"/>
      <line id="Línea_243" data-name="Línea 243" y1="17.496" x2="9.112" transform="translate(143.055 226.114)" fill="none" stroke="#f8756a" stroke-linecap="round" stroke-linejoin="round" stroke-width="1.5"/>
      <path id="Trazado_824478" data-name="Trazado 824478" d="M210.167,132.113h38.75l-.475,7.163Z" transform="translate(0 0)" fill="#f8756a"/>
      <rect id="Rectángulo_382950" data-name="Rectángulo 382950" width="93.25" height="7.917" transform="translate(74.667 240.363)" fill="#1574dd"/>
      <path id="Trazado_824479" data-name="Trazado 824479" d="M119.478,248.28H20L0,169.947H99.478Z" transform="translate(0 0)" fill="#b5e1ff"/>
      <path id="Trazado_824480" data-name="Trazado 824480" d="M99.478,169.947h-7l20,78.333h7Z" transform="translate(0 0)" fill="#1574dd"/>
      <path id="Trazado_824481" data-name="Trazado 824481" d="M57.238,206.41c1.037,4.153-.729,8.17-3.944,8.973s-6.662-1.913-7.7-6.066.729-8.17,3.944-8.973,6.662,1.913,7.7,6.066" transform="translate(0 0)" fill="#fcfbff"/>
      <line id="Línea_244" data-name="Línea 244" x1="2.25" y1="46.5" transform="translate(207.917 85.613)" fill="none" stroke="#013f81" stroke-linecap="round" stroke-linejoin="round" stroke-width="1.5"/>
      <line id="Línea_245" data-name="Línea 245" y1="27.653" transform="translate(248.917 104.46)" fill="none" stroke="#013f81" stroke-linecap="round" stroke-linejoin="round" stroke-width="1.5"/>
    </g>
  </g>
  <g id="Grupo_1073733" data-name="Grupo 1073733" transform="translate(228.981 0.235)">
    <g id="Grupo_1073732" data-name="Grupo 1073732" clip-path="url(#clip-path-4)">
      <path id="Trazado_824482" data-name="Trazado 824482" d="M13.465,46.132,87.815,3.207c7.406-4.276,19.525-4.276,26.931,0L189.1,46.132c7.407,4.276,13.466,14.772,13.466,23.324v85.852c0,8.552-6.059,19.048-13.466,23.325l-74.349,42.924c-7.406,4.277-19.525,4.277-26.931,0l-74.35-42.924C6.059,174.356,0,163.86,0,155.308V69.456C0,60.9,6.059,50.408,13.465,46.132" fill="#def2ff"/>
      <path id="Trazado_824483" data-name="Trazado 824483" d="M51.829,95.767a50.723,50.723,0,1,1,72.453,45.84c-5.543,3.367-5.557,7.739-5.316,15.546.2,6.572.647,11.867-2.382,14.648-2.418,2.649-7.785,4.493-14.032,4.493S90.938,174.45,88.518,171.8c-3.029-2.781-2.584-8.076-2.38-14.648.24-7.807.226-12.179-5.315-15.546a50.727,50.727,0,0,1-28.994-45.84" transform="translate(-2.542)" fill="#f2ac30"/>
      <path id="Trazado_824484" data-name="Trazado 824484" d="M51.443,95.767A51.842,51.842,0,0,1,86.375,47.192c20.9-7.176,44.359.656,57.5,18.156,13.788,18.359,12.929,44.309-1.077,62.239a51.485,51.485,0,0,1-12.578,11.36c-2.425,1.576-5.259,2.593-7.465,4.47s-2.936,4.615-3.17,7.387c-.5,5.877,1,11.965-.451,17.752-1.173,4.669-6.233,6.709-10.46,7.645-7.138,1.579-19.832.824-22.482-7.645-2.622-8.383,3.989-21.924-6.149-26.827-17.465-8.445-28.461-26.709-28.6-45.962a.5.5,0,0,1,1,0,50.285,50.285,0,0,0,28.106,45.1c4.048,2.028,5.825,5.562,6.195,9.938.512,6.047-1.674,13.311.99,18.985,2.835,6.039,12.873,6.36,18.392,5.812a18.289,18.289,0,0,0,9.449-3.419c2.644-2.09,3.046-5.267,3.143-8.426.171-5.549-1.121-11.528.6-16.929,1.526-4.791,6.544-6.313,10.4-8.744a50.231,50.231,0,0,0,22.867-47.888c-2.448-23.906-22.681-42.75-46.417-44.531a50.229,50.229,0,0,0-53.725,50.1.5.5,0,0,1-1,0" transform="translate(-2.656)" fill="#f2ac30"/>
      <path id="Trazado_824485" data-name="Trazado 824485" d="M86.059,150.063a76.664,76.664,0,0,0,32.985,0,54.634,54.634,0,0,0-.077,7.09c.2,6.572.645,11.867-2.383,14.648-2.418,2.649-7.784,4.493-14.031,4.493S90.939,174.45,88.519,171.8c-3.03-2.781-2.585-8.076-2.381-14.648a54.957,54.957,0,0,0-.079-7.09" transform="translate(-2.542)" fill="#32015c"/>
      <path id="Trazado_824486" data-name="Trazado 824486" d="M85.972,149.58a77.336,77.336,0,0,0,32.719,0,.505.505,0,0,1,.633.482c-.58,6.468,1.654,14.155-1.2,20.232-2.523,5.378-10.674,6.428-15.793,6.5-5.465.077-12.841-1.3-15.8-6.5-1.336-2.35-1.273-5.469-1.263-8.074.014-4.053.428-8.11.066-12.158-.058-.642.943-.636,1,0,.538,6-1,12.332.485,18.227,1.564,6.228,10.246,7.431,15.508,7.505,5.536.078,13.6-1.416,15.506-7.505.837-2.677.578-5.76.495-8.522a81.2,81.2,0,0,1-.009-9.705l.633.483a78.624,78.624,0,0,1-33.251,0c-.63-.137-.363-1.1.266-.965" transform="translate(-2.322)" fill="#32015c"/>
      <path id="Trazado_824487" data-name="Trazado 824487" d="M108.4,153.468h.035a1,1,0,0,0,.965-1.033c-.315-9.136,1.082-21.3,4.531-30.972a21.673,21.673,0,0,0,3.23.145c9.749-.285,15.328-5.412,17.144-9.717,1.143-2.71.933-5.3-.564-6.93-.958-1.042-3.295-2.552-8.186-.961-5.931,1.932-10.1,7.887-12.934,15.219a18.555,18.555,0,0,1-9.063-4.908,30.966,30.966,0,0,0,8.99-20.088c.3-8.312-4.233-11.978-8.577-12.638a9.487,9.487,0,0,0-10.721,6.674c-1.612,5.952.658,17.393,6.608,24.937q.414.525.844,1.017a20.369,20.369,0,0,1-3.151,2.169A17.346,17.346,0,0,1,93.9,117.9c-3.646-10.979-8.955-15.734-11.954-17.64a8.262,8.262,0,0,0-8.426-.594,6.651,6.651,0,0,0-3.531,5.832c-.035,2.443,1.168,7.266,9.6,12.127a19.029,19.029,0,0,0,12.9,2.645c2.169,7.232,3.632,17.107,3.27,30.52a1,1,0,0,0,.973,1.028,1.021,1.021,0,0,0,1.027-.973c.364-13.532-1.064-23.585-3.261-31.034a19.426,19.426,0,0,0,4.024-1.682,22.133,22.133,0,0,0,3.555-2.467,20.456,20.456,0,0,0,9.852,5.453c-3.689,10.659-4.793,23.613-4.525,31.385a1,1,0,0,0,1,.966M129.457,105.3a3.67,3.67,0,0,1,2.813,1.013c.952,1.036,1.025,2.83.2,4.8-1.586,3.758-6.56,8.237-15.361,8.494a19.506,19.506,0,0,1-2.441-.078c2.7-6.75,6.5-12,11.513-13.627a10.782,10.782,0,0,1,3.281-.6M91.869,118.337a17.337,17.337,0,0,1-11.284-2.442c-5.511-3.179-8.645-6.957-8.6-10.366a4.616,4.616,0,0,1,2.481-4.1,6.3,6.3,0,0,1,6.4.522c2.214,1.407,7.366,5.677,11,16.387m10.642-34.862a7.678,7.678,0,0,1,1.162.087c3.492.529,7.132,3.589,6.878,10.588a28.824,28.824,0,0,1-8.364,18.718c-.267-.306-.52-.611-.757-.912-6.083-7.713-7.537-18.416-6.248-23.174a7.392,7.392,0,0,1,7.329-5.307" transform="translate(-2.463)" fill="#32015c"/>
      <path id="Trazado_824488" data-name="Trazado 824488" d="M101.748,158.407a46.9,46.9,0,0,0,13.282-1.74.5.5,0,1,0-.282-.959c-8.714,2.562-17.884,1.722-25.8.733a.507.507,0,0,0-.557.435.5.5,0,0,0,.434.557,103.947,103.947,0,0,0,12.92.974" transform="translate(-1.218)"/>
      <path id="Trazado_824489" data-name="Trazado 824489" d="M34.5,143.287c3.016,2.362,5.924,1.192,6.461-2.6l2.9-20.487c.537-3.795-1.928-5.726-5.482-4.294l-19.192,7.729c-3.554,1.431-3.994,4.534-.978,6.9Z" transform="translate(142.417)" fill="#d4336e"/>
      <path id="Trazado_824490" data-name="Trazado 824490" d="M98.36,205.962a4.019,4.019,0,0,0,1.708-.36c.837-.389,2.231-1.47,2.168-4.338-.058-2.678-1.685-5-4.579-6.524a13.965,13.965,0,0,0-1.515-.684,12.618,12.618,0,0,1,7.191-3.046,7.908,7.908,0,0,1,8.117,4.4.5.5,0,0,0,.894-.447,8.882,8.882,0,0,0-9.089-4.945,13.611,13.611,0,0,0-8.177,3.678c-5.033-1.528-11.411-.833-15.626,1.917a.5.5,0,1,0,.547.837c3.855-2.514,9.63-3.21,14.309-1.938a9.347,9.347,0,0,0-1.853,3.231,6.1,6.1,0,0,0,1.863,6.577,6.281,6.281,0,0,0,4.042,1.647m-3.012-11.135a13.606,13.606,0,0,1,1.842.8c1.81.955,3.982,2.712,4.046,5.662.038,1.728-.512,2.907-1.59,3.41-1.3.608-3.22.14-4.668-1.134a5.1,5.1,0,0,1-1.569-5.522,8.6,8.6,0,0,1,1.939-3.214" transform="translate(10.939)" fill="#495edb"/>
      <path id="Trazado_824491" data-name="Trazado 824491" d="M149.154,153.977a12.032,12.032,0,1,0,12.032-12.033,12.033,12.033,0,0,0-12.032,12.033" transform="translate(-119.811)" fill="#7db3db"/>
      <path id="Trazado_824492" data-name="Trazado 824492" d="M155.832,65.178A5.829,5.829,0,0,0,164,66.289l9.064-6.889a5.832,5.832,0,0,0-7.06-9.285l-9.063,6.891a5.833,5.833,0,0,0-1.111,8.172" transform="translate(-127.449)" fill="#ffc4c4"/>
      <path id="Trazado_824493" data-name="Trazado 824493" d="M55.643,160.271a5.829,5.829,0,0,0-7.339,3.761l-3.493,10.836a5.832,5.832,0,0,0,11.1,3.577L59.4,167.609a5.832,5.832,0,0,0-3.762-7.338" transform="translate(98.346)" fill="#ffc4c4"/>
      <path id="Trazado_824494" data-name="Trazado 824494" d="M32.622,76.775a8.414,8.414,0,1,0-8.414-8.414,8.423,8.423,0,0,0,8.414,8.414m0-15.828a7.414,7.414,0,1,1-7.414,7.414,7.423,7.423,0,0,1,7.414-7.414" transform="translate(137.317)" fill="#495edb"/>
      <path id="Trazado_824495" data-name="Trazado 824495" d="M96.579,38.1a20.138,20.138,0,0,0,5.5-.867.5.5,0,0,0-.274-.962c-5.264,1.5-8.856,1.016-12.393-1.672a28.164,28.164,0,0,1-3.095-2.749,10.13,10.13,0,0,0,4.273-3.926,9.025,9.025,0,0,0,.727-7.534,4.862,4.862,0,0,0-3.416-3c-2.452-.314-5.484.868-6.42,3.363-1.859,3.711.544,7.772,3.1,10.687a8.888,8.888,0,0,1-3.734.233,10.25,10.25,0,0,1-8.411-7.54.5.5,0,1,0-.966.258A11.249,11.249,0,0,0,80.7,32.661a9.878,9.878,0,0,0,4.625-.4A30.858,30.858,0,0,0,88.8,35.4,12.328,12.328,0,0,0,96.579,38.1M87.1,18.331a4.942,4.942,0,0,1,.615.038,3.831,3.831,0,0,1,2.674,2.4,7.946,7.946,0,0,1-.654,6.634,9.074,9.074,0,0,1-4.144,3.673c-2.673-2.982-4.778-6.768-3.2-9.928.694-1.845,2.851-2.819,4.705-2.819" transform="translate(28.672)" fill="#f2ac30"/>
    </g>
  </g>
  <g id="Grupo_1073729" data-name="Grupo 1073729" transform="translate(0 19)">
    <g id="Grupo_1073728" data-name="Grupo 1073728" clip-path="url(#clip-path-5)">
      <path id="Trazado_824419" data-name="Trazado 824419" d="M156.9,304.167s-51.833,50.333-129.75,8.75l2.079-12.584,126.1-7.679Z" transform="translate(0)" fill="#832ad3"/>
      <path id="Trazado_824420" data-name="Trazado 824420" d="M44.232,265.417,17.4,369.667h124.75s11.538-68,5.394-104.25Z" transform="translate(0)" fill="#7040bf"/>
      <path id="Trazado_824421" data-name="Trazado 824421" d="M148.25,270.364c-.2-1.7-.437-3.357-.707-4.947H44.232l-4.89,19Z" fill="#492994"/>
      <path id="Trazado_824422" data-name="Trazado 824422" d="M88.774,369.667l15.125-69,9.612-3.035" fill="none" stroke="#492994" stroke-linecap="round" stroke-linejoin="round" stroke-width="1.5"/>
      <path id="Trazado_824423" data-name="Trazado 824423" d="M53.649,151.167a29.714,29.714,0,0,1-9-26.75c2.75-17,15.75-19.75,15.75-19.75s-15.25-15.75,2.5-36.25c0,0,5.5-5.25,12.25-6,0,0,5.5-25.5,34.5-22.75s20.124,31,11.937,34.75c0,0,4.914,13.25-2.512,19.75v8.75s19.825,5,22.325,26-19.813,28.5-19.813,28.5-57.189,4.67-67.937-6.25" transform="translate(0)" fill="#00184c"/>
      <path id="Trazado_824424" data-name="Trazado 824424" d="M77.379,130.948l-42.194,11.38a8.988,8.988,0,0,0-5.821,4.9c-5.831,12.587-24.152,53.189-27.715,73.938,0,0-7.347,25.346,8.974,34.793a22.554,22.554,0,0,0,14.542,2.587l11.234-1.63-9.25,56s40.25,5.25,48.25-23l5-24.5h50s-3.5,28.25,26.5,38.75l-8.5-62.25,4.393-24.054,16.015,13.956a41.161,41.161,0,0,0,16.645,8.948c9.929,2.567,23.291,1.831,31.2-15.85,13.75-30.75,21.5-71.25,21.5-71.25l-18.25-18.75-35.75,52.25-31.054-42.818a9.006,9.006,0,0,0-5.167-3.463L106.9,130.948Z" transform="translate(0)" fill="#a854f3"/>
      <path id="Trazado_824425" data-name="Trazado 824425" d="M135.232,192c-1.569-17.972-20.333-49.667-28.333-61.052H77.379S92.565,214.5,80.4,265.417h50s5.968-60.41,4.833-73.417" transform="translate(0)" fill="#fcfbff"/>
      <path id="Trazado_824426" data-name="Trazado 824426" d="M134.624,214.644c-15.686,5.047-35.012,7.564-49.576,8.812-.308,14.81-1.643,29.382-4.649,41.961h50s2.834-28.681,4.225-50.773" transform="translate(0)" fill="#b5e1ff"/>
      <path id="Trazado_824427" data-name="Trazado 824427" d="M106.9,130.948l-.786-11.179a17,17,0,0,0,5.536-.852c13.5-4.5,9.985-20.963,8-30a64.1,64.1,0,0,0-4.025-12.827C105,80.1,94.149,74.417,94.149,74.417c-4,8.5-11.5,9.75-11.5,9.75.335,6.358-1.791,10.3-3.236,12.215.546,1.735-2.034,34.566-2.034,34.566s3.1,19.468,4.533,32.368c4.112.342,8.336.531,12.656.531a143.64,143.64,0,0,0,29.816-3.033A253.538,253.538,0,0,0,106.9,130.948" transform="translate(0)" fill="#ffa189"/>
      <path id="Trazado_824428" data-name="Trazado 824428" d="M97.7,80.167s12.325,3.888,18.571-2.59c-.206-.5-.42-1-.645-1.486C105,80.1,94.149,74.417,94.149,74.417c-4,8.5-11.5,9.75-11.5,9.75a24.133,24.133,0,0,1-.025,2.924c4.3.134,11.744-.627,15.074-6.924" transform="translate(0)" fill="#f8756a"/>
      <path id="Trazado_824429" data-name="Trazado 824429" d="M81.548,92.884c3.038,3.3,3.111,8.177.164,10.888S73.913,106,70.876,102.7s-3.112-8.178-.164-10.888,7.8-2.231,10.836,1.072" fill="#ffa189"/>
      <path id="Trazado_824430" data-name="Trazado 824430" d="M15.4,227.917s3.5-15.25,24-17.75,43-.75,51.75-3.5l1.764,25.5S56,255.417,36.4,256.917Z" transform="translate(0)" fill="#a854f3"/>
      <path id="Trazado_824431" data-name="Trazado 824431" d="M40,209.981s2.393-5.986,6.962-25.464l-.805,25.056Z" fill="#832ad3"/>
      <path id="Trazado_824432" data-name="Trazado 824432" d="M106.114,119.769a22.621,22.621,0,0,1-17.339-11.227s.952,13.846,17.848,18.471Z" transform="translate(0)" fill="#f8756a"/>
      <line id="Línea_232" data-name="Línea 232" x2="7.25" y2="5" transform="translate(73.149 94.542)" fill="none" stroke="#f8756a" stroke-linecap="round" stroke-linejoin="round" stroke-width="1.5"/>
      <path id="Trazado_824433" data-name="Trazado 824433" d="M152.792,218.613a.751.751,0,0,1-.723-.95c.04-.146,4.023-14.721,4.08-25.751.021-4-2.23-8.592-4.612-13.453a58.933,58.933,0,0,1-4.723-11.618.75.75,0,1,1,1.458-.351,57.868,57.868,0,0,0,4.612,11.309c2.462,5.023,4.787,9.768,4.765,14.12a92.354,92.354,0,0,1-2.09,17.34c-1.013,5.047-2.034,8.765-2.044,8.8A.75.75,0,0,1,152.792,218.613Z" transform="translate(0)" fill="#832ad3"/>
      <path id="Trazado_824434" data-name="Trazado 824434" d="M159.649,239.167H107.4l9.5-68.25h52.25Z" transform="translate(0)" fill="#1574dd"/>
      <path id="Trazado_824435" data-name="Trazado 824435" d="M91.295,208.782s8.229-3.74,10.854-7.115,11.6-8.148,11.6-8.148l-.854,7.393s27.625-8.62,31.125-7.245-3.25,5.5-3.25,5.5,6.5-2.343,6.75-.984-2,4.984-3.375,5.984c0,0,1.75-.5,1.875,1.25s-9,9.125-16.5,12c0,0,8.375-1.75,10.75,0,0,0-12.25,6.125-16.75,7.5s-30.81,4.371-30.81,4.371Z" fill="#ffa189"/>
      <line id="Línea_233" data-name="Línea 233" x1="22.625" y2="7.5" transform="translate(118.149 199.167)" fill="none" stroke="#f8756a" stroke-linecap="round" stroke-linejoin="round" stroke-width="1.5"/>
      <path id="Trazado_824436" data-name="Trazado 824436" d="M144.149,204.167s-15.25,6-23.625,8.25" transform="translate(0)" fill="none" stroke="#f8756a" stroke-linecap="round" stroke-linejoin="round" stroke-width="1.5"/>
      <line id="Línea_234" data-name="Línea 234" x1="7.5" y2="2.125" transform="translate(122.024 217.417)" fill="none" stroke="#f8756a" stroke-linecap="round" stroke-linejoin="round" stroke-width="1.5"/>
      <path id="Trazado_824437" data-name="Trazado 824437" d="M60.03,250.466a.75.75,0,0,1-.3-1.437,265.105,265.105,0,0,0,30.673-16.2.75.75,0,0,1,.8,1.268,266.728,266.728,0,0,1-30.871,16.3A.748.748,0,0,1,60.03,250.466Z" fill="#832ad3"/>
      <path id="Trazado_824438" data-name="Trazado 824438" d="M15.4,228.667a.751.751,0,0,1-.732-.918,21.82,21.82,0,0,1,4.467-8.25,26.319,26.319,0,0,1,7.5-6.16,34.631,34.631,0,0,1,12.671-3.917c9.7-1.183,19.818-1.417,28.745-1.624,9.844-.228,18.346-.425,22.871-1.847a.75.75,0,0,1,.45,1.431c-4.727,1.486-13.327,1.685-23.286,1.916-8.893.206-18.972.44-28.6,1.613a33.145,33.145,0,0,0-12.125,3.739,24.826,24.826,0,0,0-7.077,5.809,20.592,20.592,0,0,0-4.158,7.625A.75.75,0,0,1,15.4,228.667Z" transform="translate(0)" fill="#832ad3"/>
      <path id="Trazado_824439" data-name="Trazado 824439" d="M174.65,204.917a.751.751,0,0,1-.727-.936,39.84,39.84,0,0,1,5.893-12.775,30.6,30.6,0,0,1,3.824-4.589.75.75,0,0,1,1.02,1.1h0a29.833,29.833,0,0,0-3.641,4.387,38.326,38.326,0,0,0-5.643,12.249A.75.75,0,0,1,174.65,204.917Z" transform="translate(0)" fill="#832ad3"/>
      <path id="Trazado_824440" data-name="Trazado 824440" d="M91.3,208.782l1.419,20.506,4.722-.555Z" transform="translate(0)" fill="#f8756a"/>
      <path id="Trazado_824441" data-name="Trazado 824441" d="M221.132,136.184l14.046-18.674a45.994,45.994,0,0,1,13.125-9.75c9.357-4.4,21.625-12.75,21.625-12.75s4.125,2.625,0,6.5L258.8,112.26l6.92,5.136a4.756,4.756,0,0,1,.163,7.837c-.144.1-.3.189-.458.277a5.428,5.428,0,0,1-3,6.625,5.031,5.031,0,0,1-3.125,4.625c-3.25,1.375-8.8-.75-8.8-.75s-1.2,6.69-10.95,8.565l-4.3,6.113Z" transform="translate(0)" fill="#ffa189"/>
      <path id="Trazado_824442" data-name="Trazado 824442" d="M245.3,115.385l20-1.875s1.875,5.5-3.25,6.75a100.933,100.933,0,0,0-10.375,3.25s.83,7.875-7.022,10Z" transform="translate(0)" fill="#ffa189"/>
      <path id="Trazado_824443" data-name="Trazado 824443" d="M248.843,115.053,265.3,113.51s1.875,5.5-3.25,6.75a100.93,100.93,0,0,0-10.375,3.25s.83,7.875-7.023,10" transform="translate(0)" fill="none" stroke="#f8756a" stroke-linecap="round" stroke-linejoin="round" stroke-width="1.5"/>
      <path id="Trazado_824444" data-name="Trazado 824444" d="M251.678,123.51s10.125,3.25,13.75,2" fill="none" stroke="#f8756a" stroke-linecap="round" stroke-linejoin="round" stroke-width="1.5"/>
      <path id="Trazado_824445" data-name="Trazado 824445" d="M250.5,129.1s5.929,3.655,11.929,3.03" transform="translate(0)" fill="none" stroke="#f8756a" stroke-linecap="round" stroke-linejoin="round" stroke-width="1.5"/>
      <path id="Trazado_824446" data-name="Trazado 824446" d="M250.5,136.01s-3.154-2.356-2.862-3.8" transform="translate(0)" fill="none" stroke="#f8756a" stroke-linecap="round" stroke-linejoin="round" stroke-width="1.5"/>
      <path id="Trazado_824447" data-name="Trazado 824447" d="M221.132,136.184,238.568,146.2l-3.319,4.488Z" transform="translate(0)" fill="#f8756a"/>
      <path id="Trazado_824448" data-name="Trazado 824448" d="M104.333,91.565c.08,1.067-.47,1.978-1.227,2.034s-1.436-.762-1.515-1.829.469-1.978,1.227-2.035,1.435.763,1.515,1.83" transform="translate(0)" fill="#00184c"/>
      <path id="Trazado_824449" data-name="Trazado 824449" d="M118.27,90.19c.08,1.067-.47,1.978-1.227,2.034s-1.436-.762-1.515-1.829.469-1.978,1.227-2.035,1.435.763,1.515,1.83" transform="translate(0)" fill="#00184c"/>
      <path id="Trazado_824450" data-name="Trazado 824450" d="M97.034,86.087a6.266,6.266,0,0,1,7.077-1.793" transform="translate(0)" fill="none" stroke="#00184c" stroke-linecap="round" stroke-linejoin="round" stroke-width="3"/>
      <path id="Trazado_824451" data-name="Trazado 824451" d="M112.759,83.354a6.472,6.472,0,0,1,4.807-2.252" transform="translate(0)" fill="none" stroke="#00184c" stroke-linecap="round" stroke-linejoin="round" stroke-width="3"/>
      <path id="Trazado_824452" data-name="Trazado 824452" d="M108.881,91.714c0,4.041-2.88,7.317-6.433,7.317s-6.434-3.276-6.434-7.317S98.9,84.4,102.448,84.4,108.881,87.673,108.881,91.714Z" transform="translate(0)" fill="none" stroke="#fcfbff" stroke-linecap="round" stroke-linejoin="round" stroke-width="1.5"/>
      <path id="Trazado_824453" data-name="Trazado 824453" d="M124.384,89.87c0,4.041-2.376,7.317-5.307,7.317s-5.306-3.276-5.306-7.317,2.376-7.317,5.306-7.317S124.384,85.829,124.384,89.87Z" transform="translate(0)" fill="none" stroke="#fcfbff" stroke-linecap="round" stroke-linejoin="round" stroke-width="1.5"/>
      <line id="Línea_235" data-name="Línea 235" y1="0.846" x2="4.953" transform="translate(108.819 89.871)" fill="none" stroke="#fcfbff" stroke-linecap="round" stroke-linejoin="round" stroke-width="1.5"/>
      <path id="Trazado_824454" data-name="Trazado 824454" d="M111.842,91.6s5.132,5.816,5.682,8.566-4.625,2.375-4.625,2.375" transform="translate(0)" fill="none" stroke="#f8756a" stroke-linecap="round" stroke-linejoin="round" stroke-width="1.5"/>
      <path id="Trazado_824455" data-name="Trazado 824455" d="M106.086,105.042l7.394,1s-.244,3.333-4.289,2.833-3.105-3.833-3.105-3.833" transform="translate(0)" fill="#fcfbff"/>
      <ellipse id="Elipse_9782" data-name="Elipse 9782" cx="10.75" cy="10.75" rx="10.75" ry="10.75" transform="translate(63.399 104.084)" fill="none" stroke="#fcfbff" stroke-linecap="round" stroke-linejoin="round" stroke-width="1.5"/>
      <path id="Trazado_824456" data-name="Trazado 824456" d="M136.825,170.917l-.812,5.417h18.479l.74-5.417" transform="translate(0)" fill="none" stroke="#00184c" stroke-linecap="round" stroke-linejoin="round" stroke-width="1.5"/>
      <path id="Trazado_824457" data-name="Trazado 824457" d="M82.748,0H31.716a5.628,5.628,0,0,0-5.628,5.628V24.39a5.629,5.629,0,0,0,5.628,5.629H64.687L75.15,41.792V30.019h7.6a5.628,5.628,0,0,0,5.628-5.629V5.628A5.628,5.628,0,0,0,82.748,0" fill="#f0c52c"/>
      <path id="Trazado_824458" data-name="Trazado 824458" d="M46.949,14.309a2.975,2.975,0,1,1-2.975-2.975,2.975,2.975,0,0,1,2.975,2.975" fill="#b5e1ff"/>
      <path id="Trazado_824459" data-name="Trazado 824459" d="M61.208,14.309a2.976,2.976,0,1,1-2.976-2.975,2.976,2.976,0,0,1,2.976,2.975" transform="translate(0)" fill="#b5e1ff"/>
      <path id="Trazado_824460" data-name="Trazado 824460" d="M74.149,14.309a2.975,2.975,0,1,1-2.975-2.975,2.975,2.975,0,0,1,2.975,2.975" fill="#b5e1ff"/>
    </g>
  </g>
</svg>
