<svg xmlns="http://www.w3.org/2000/svg" xmlns:xlink="http://www.w3.org/1999/xlink" width="122" height="123.001" viewBox="0 0 122 123.001">
  <defs>
    <filter id="Elipse_9685" x="0" y="1.001" width="122" height="122" filterUnits="userSpaceOnUse">
      <feOffset dy="3" input="SourceAlpha"/>
      <feGaussianBlur stdDeviation="3" result="blur"/>
      <feFlood flood-opacity="0.161"/>
      <feComposite operator="in" in2="blur"/>
      <feComposite in="SourceGraphic"/>
    </filter>
  </defs>
  <g id="Grupo_1099145" data-name="Grupo 1099145" transform="translate(-319 -11245)">
    <g id="Grupo_1099142" data-name="Grupo 1099142" transform="translate(-420 1497.473)">
      <circle id="Elipse_11310" data-name="Elipse 11310" cx="59" cy="59" r="59" transform="translate(741 9747.527)" fill="#fff"/>
      <g id="Grupo_1098210" data-name="Grupo 1098210" transform="translate(0 208.528)">
        <g transform="matrix(1, 0, 0, 1, 739, 9539)" filter="url(#Elipse_9685)">
          <g id="Elipse_9685-2" data-name="Elipse 9685" transform="translate(9 7)" fill="#f2e5fd" stroke="#a854f3" stroke-width="5">
            <circle cx="52" cy="52" r="52" stroke="none"/>
            <circle cx="52" cy="52" r="49.5" fill="none"/>
          </g>
        </g>
      </g>
    </g>
    <g id="estrategia-digital" transform="translate(351 11275)">
      <g id="Grupo_1073770" data-name="Grupo 1073770" transform="translate(1.9 1.9)">
        <g id="Grupo_1073761" data-name="Grupo 1073761" transform="translate(30.151 0)">
          <path id="Trazado_824665" data-name="Trazado 824665" d="M59.357,13.7v5.4l-2.287.729a13.081,13.081,0,0,1-1.116,2.719l1.1,2.125L53.226,28.5,51.1,27.407a13.08,13.08,0,0,1-2.719,1.116l-.729,2.287h-5.4l-.729-2.287c-.063-.018-.126-.045-.189-.063.144-.306.288-.621.414-.936a16.6,16.6,0,0,0,.81-2.449,9.1,9.1,0,0,0,2.395.333,9,9,0,0,0,0-18.006,8.913,8.913,0,0,0-5.546,1.927A17.984,17.984,0,0,0,35.49,5.493L36.678,4.3,38.8,5.4a13.08,13.08,0,0,1,2.719-1.116L42.251,2h5.4l.729,2.287A13.081,13.081,0,0,1,51.1,5.4l2.125-1.1,3.826,3.826-1.1,2.125a13.081,13.081,0,0,1,1.116,2.719Z" transform="translate(-35.49 -2)" fill="#ffc729"/>
        </g>
        <g id="Grupo_1073762" data-name="Grupo 1073762" transform="translate(34.068 5.402)">
          <path id="Trazado_824666" data-name="Trazado 824666" d="M45.386,8a9,9,0,0,1,0,18.006,9.1,9.1,0,0,1-2.395-.333,17.775,17.775,0,0,0,.558-3.592A5.4,5.4,0,1,0,45.386,11.6a5.358,5.358,0,0,0-3.637,1.422,18.467,18.467,0,0,0-1.909-3.1A8.913,8.913,0,0,1,45.386,8Z" transform="translate(-39.84 -8)" fill="#fcd770"/>
        </g>
        <g id="Grupo_1073763" data-name="Grupo 1073763" transform="translate(9.903 46.816)">
          <path id="Trazado_824667" data-name="Trazado 824667" d="M13,54H31.006a7.2,7.2,0,0,1-7.2,7.2H20.2A7.2,7.2,0,0,1,13,54Z" transform="translate(-13 -54)" fill="#aab2bd"/>
        </g>
        <g id="Grupo_1073764" data-name="Grupo 1073764" transform="translate(7.202 41.414)">
          <path id="Trazado_824668" data-name="Trazado 824668" d="M30.707,48h.9a1.806,1.806,0,0,1,1.8,1.8v1.8a1.806,1.806,0,0,1-1.8,1.8H11.8A1.806,1.806,0,0,1,10,51.6V49.8A1.806,1.806,0,0,1,11.8,48H30.707Z" transform="translate(-10 -48)" fill="#ccd1d9"/>
        </g>
        <g id="Grupo_1073765" data-name="Grupo 1073765">
          <path id="Trazado_824669" data-name="Trazado 824669" d="M37.976,12.426a18.467,18.467,0,0,0-1.909-3.1,17.984,17.984,0,0,0-3.916-3.835A18.347,18.347,0,0,0,21.348,2h-.882A18.462,18.462,0,0,0,7.411,33.52l.675.675A13.051,13.051,0,0,1,11.9,43.414H29.91a13.051,13.051,0,0,1,3.817-9.219l.675-.675a18.708,18.708,0,0,0,3.592-5.06c.144-.306.288-.621.414-.936a16.6,16.6,0,0,0,.81-2.449,17.774,17.774,0,0,0,.558-3.592c.027-.333.036-.675.036-1.017a18.462,18.462,0,0,0-1.837-8.04Z" transform="translate(-2 -2)" fill="#ffeaa7"/>
        </g>
        <g id="Grupo_1073766" data-name="Grupo 1073766" transform="translate(10.804 23.408)">
          <path id="Trazado_824670" data-name="Trazado 824670" d="M28.4,28H15.8L14,46.006H30.206Z" transform="translate(-14 -28)" fill="#d3a06c"/>
        </g>
        <g id="Grupo_1073767" data-name="Grupo 1073767" transform="translate(9.903 19.807)">
          <path id="Trazado_824671" data-name="Trazado 824671" d="M29.206,24a1.806,1.806,0,0,1,1.8,1.8,1.814,1.814,0,0,1-1.8,1.8H14.8A1.806,1.806,0,0,1,13,25.8,1.814,1.814,0,0,1,14.8,24h14.4Z" transform="translate(-13 -24)" fill="#b27946"/>
        </g>
        <g id="Grupo_1073768" data-name="Grupo 1073768" transform="translate(9.903 14.405)">
          <path id="Trazado_824672" data-name="Trazado 824672" d="M31.006,18l-2.7,5.4H15.7L13,18Z" transform="translate(-13 -18)" fill="#d3a06c"/>
        </g>
        <g id="Grupo_1073769" data-name="Grupo 1073769" transform="translate(9.903 9.003)">
          <path id="Trazado_824673" data-name="Trazado 824673" d="M31.006,12v5.4H13V12h3.6v1.8h3.6V12h3.6v1.8h3.6V12Z" transform="translate(-13 -12)" fill="#d3a06c"/>
        </g>
      </g>
      <g id="Grupo_1073771" data-name="Grupo 1073771" transform="translate(1 1)">
        <path id="Trazado_824674" data-name="Trazado 824674" d="M22,39h1.8v1.8H22Z" transform="translate(-3.094 -4.788)"/>
        <path id="Trazado_824675" data-name="Trazado 824675" d="M22,43h1.8v1.8H22Z" transform="translate(-3.094 -5.187)"/>
        <path id="Trazado_824676" data-name="Trazado 824676" d="M22,35h1.8v1.8H22Z" transform="translate(-3.094 -4.39)"/>
        <path id="Trazado_824677" data-name="Trazado 824677" d="M22,31h1.8v1.8H22Z" transform="translate(-3.094 -3.991)"/>
        <path id="Trazado_824678" data-name="Trazado 824678" d="M56.819,19.662V12.947l-2.461-.789a13.447,13.447,0,0,0-.827-2.007l1.181-2.295L49.963,3.109,47.668,4.29a13.446,13.446,0,0,0-2.007-.827L44.871,1H38.156l-.789,2.461a13.446,13.446,0,0,0-2.007.827L33.065,3.108,31.941,4.232A19.251,19.251,0,0,0,21.252,1h-.89A19.363,19.363,0,0,0,6.67,34.053l.677.677a12.04,12.04,0,0,1,3.512,7.689,2.7,2.7,0,0,0-2.657,2.7v1.8a2.7,2.7,0,0,0,2.7,2.7h.053a8.113,8.113,0,0,0,8.05,7.2h3.6a8.112,8.112,0,0,0,8.05-7.2h.053a2.7,2.7,0,0,0,2.7-2.7v-1.8a2.7,2.7,0,0,0-2.658-2.7,12.035,12.035,0,0,1,3.513-7.689l.676-.677a19.424,19.424,0,0,0,2.833-3.629l.381,1.187h6.715l.789-2.461a13.446,13.446,0,0,0,2.007-.827L49.962,29.5l4.748-4.748-1.181-2.294a13.462,13.462,0,0,0,.827-2.007ZM19.906,13.6V11.8h1.8v1.8h5.4V11.8h1.8v3.6H12.7V11.8h1.8v1.8Zm8.447,3.6-1.8,3.6H15.061l-1.8-3.6Zm-14.4,5.4H28.009a.9.9,0,1,1,0,1.8H13.6a.9.9,0,1,1,0-1.8Zm1.371,3.6H26.294l1.621,16.206H13.7Zm7.288,28.81h-3.6a6.307,6.307,0,0,1-6.23-5.4H28.837A6.307,6.307,0,0,1,22.607,55.018Zm9-9.9v1.8a.9.9,0,0,1-.9.9H10.9a.9.9,0,0,1-.9-.9v-1.8a.9.9,0,0,1,.9-.9H30.71A.9.9,0,0,1,31.61,45.115ZM33.669,32.78l-.676.677a13.845,13.845,0,0,0-3.556,6.079L28.1,26.2a2.7,2.7,0,0,0,.436-5.34l2.172-4.342V10h-5.4v1.8h-1.8V10h-5.4v1.8h-1.8V10H10.9v6.515l2.172,4.343a2.7,2.7,0,0,0,.436,5.339L12.177,39.536a13.854,13.854,0,0,0-3.556-6.079l-.677-.677A17.562,17.562,0,0,1,20.362,2.8h.89A17.562,17.562,0,0,1,33.669,32.78ZM38.98,12.607a4.494,4.494,0,1,1,2.533,8.2A4.4,4.4,0,0,1,40.6,20.7c0-.113.016-.223.016-.337a19.225,19.225,0,0,0-1.633-7.755Zm1.505,9.909a6.174,6.174,0,0,0,1.028.092A6.3,6.3,0,1,0,38.169,10.97q-.438-.786-.944-1.528A7.992,7.992,0,0,1,41.514,8.2a8.1,8.1,0,0,1,0,16.206,7.916,7.916,0,0,1-1.3-.122c.119-.582.207-1.174.273-1.77ZM52.9,19.029l-.131.465a11.59,11.59,0,0,1-1.038,2.516l-.237.422,1.017,1.976L49.617,27.3l-1.976-1.016-.421.236A11.627,11.627,0,0,1,44.7,27.557l-.465.131-.679,2.121H39.47l-.519-1.616a19.069,19.069,0,0,0,.822-2.164,9.733,9.733,0,0,0,1.74.179,9.9,9.9,0,0,0,0-19.807A9.774,9.774,0,0,0,36.137,8a19.528,19.528,0,0,0-2.729-2.686l0,0,1.976,1.016.421-.236a11.627,11.627,0,0,1,2.517-1.038l.465-.131L39.469,2.8h4.088l.68,2.121.465.131A11.672,11.672,0,0,1,47.22,6.091l.421.236,1.976-1.016L52.508,8.2l-1.016,1.976.236.421a11.627,11.627,0,0,1,1.038,2.517l.131.465,2.121.679v4.088Z" transform="translate(-1 -1)"/>
        <path id="Trazado_824679" data-name="Trazado 824679" d="M6.858,21.072,5.065,20.91c-.043.474-.065.958-.065,1.437a15.74,15.74,0,0,0,3.82,10.29l1.363-1.178A13.935,13.935,0,0,1,6.8,22.347C6.8,21.922,6.82,21.493,6.858,21.072Z" transform="translate(-1.399 -2.985)"/>
        <path id="Trazado_824680" data-name="Trazado 824680" d="M7.639,17.267l-1.7-.6a15.564,15.564,0,0,0-.544,1.91l1.759.383A13.807,13.807,0,0,1,7.639,17.267Z" transform="translate(-1.438 -2.562)"/>
      </g>
    </g>
  </g>
</svg>
