<svg xmlns="http://www.w3.org/2000/svg" xmlns:xlink="http://www.w3.org/1999/xlink" width="122" height="123.001" viewBox="0 0 122 123.001">
  <defs>
    <filter id="Elipse_11308" x="0" y="1.001" width="122" height="122" filterUnits="userSpaceOnUse">
      <feOffset dy="3" input="SourceAlpha"/>
      <feGaussianBlur stdDeviation="3" result="blur"/>
      <feFlood flood-opacity="0.161"/>
      <feComposite operator="in" in2="blur"/>
      <feComposite in="SourceGraphic"/>
    </filter>
  </defs>
  <g id="Grupo_1099143" data-name="Grupo 1099143" transform="translate(-1160 -11245)">
    <g id="Grupo_1099141" data-name="Grupo 1099141" transform="translate(1 1497.473)">
      <circle id="Elipse_11311" data-name="Elipse 11311" cx="59" cy="59" r="59" transform="translate(1161 9747.527)" fill="#fff"/>
      <g id="Grupo_1098211" data-name="Grupo 1098211" transform="translate(0 208.528)">
        <g transform="matrix(1, 0, 0, 1, 1159, 9539)" filter="url(#Elipse_11308)">
          <g id="Elipse_11308-2" data-name="Elipse 11308" transform="translate(9 7)" fill="#f2e5fd" stroke="#a854f3" stroke-width="5">
            <circle cx="52" cy="52" r="52" stroke="none"/>
            <circle cx="52" cy="52" r="49.5" fill="none"/>
          </g>
        </g>
      </g>
    </g>
    <g id="estructura" transform="translate(1184.3 11278)">
      <g id="Grupo_1073780" data-name="Grupo 1073780" transform="translate(12.46 0.727)">
        <g id="Grupo_1073776" data-name="Grupo 1073776" transform="translate(6.057)">
          <g id="Grupo_1073775" data-name="Grupo 1073775">
            <g id="Grupo_1073773" data-name="Grupo 1073773" transform="translate(0 0.324)">
              <path id="Trazado_824681" data-name="Trazado 824681" d="M80.51,37.645a1.52,1.52,0,0,1-1.52-1.52V16.572L80,11.9a1.52,1.52,0,0,1,1.52-1.52l30.177.313c.839,0,2.223.68,2.223,1.118V34.017c0,1.24-1.5,3.329-2.343,3.329l-.919.3H80.51Z" transform="translate(-78.99 -10.378)" fill="#f9f7f8"/>
            </g>
            <path id="Trazado_824682" data-name="Trazado 824682" d="M114.537,9.061v4.3l-2.7.323-32.849.01v-5a1.519,1.519,0,0,1,1.52-1.52h29.88l2.366.105A2,2,0,0,1,114.537,9.061Z" transform="translate(-78.99 -7.175)" fill="#8abbd5"/>
            <g id="Grupo_1073774" data-name="Grupo 1073774" transform="translate(31.4 0)">
              <path id="Trazado_824683" data-name="Trazado 824683" d="M394.655,62.76l1.24.877V83.2a1.52,1.52,0,0,1-1.52,1.52H391.62l.32-.19a1.749,1.749,0,0,0,.858-1.505V63.637Z" transform="translate(-391.349 -57.129)" fill="#efedef"/>
              <path id="Trazado_824684" data-name="Trazado 824684" d="M393.5,8.695v4.989h-3.1V9.145a1.99,1.99,0,0,0-1.044-1.751l-.4-.219h3.027A1.519,1.519,0,0,1,393.5,8.695Z" transform="translate(-388.949 -7.175)" fill="#6cabca"/>
            </g>
          </g>
        </g>
        <g id="Grupo_1073777" data-name="Grupo 1073777" transform="translate(0 34.891)">
          <path id="Trazado_824685" data-name="Trazado 824685" d="M31.112,352.269v14.06a.465.465,0,0,1-.466.465l-1.418.2H25.171a.912.912,0,0,1-.385-.085c-.1-.045-.17-.305-.249-.384l-4.9-4.916c-.08-.08-.311-.1-.355-.2a.916.916,0,0,1-.084-.386v-8.958a.465.465,0,0,1,.465-.466h9.563l1.418.2A.466.466,0,0,1,31.112,352.269Z" transform="translate(-19.2 -351.6)" fill="#fce459"/>
          <path id="Trazado_824686" data-name="Trazado 824686" d="M118.012,351.6h-1.824a.427.427,0,0,1,.417.466v14.465a.426.426,0,0,1-.417.465h1.824a.465.465,0,0,0,.466-.465V352.066A.466.466,0,0,0,118.012,351.6Z" transform="translate(-106.363 -351.6)" fill="#f9d608"/>
          <path id="Trazado_824687" data-name="Trazado 824687" d="M25.532,448.892v5.049a.9.9,0,0,1-.273-.187l-5.041-5.041a.907.907,0,0,1-.188-.273h5.05A.452.452,0,0,1,25.532,448.892Z" transform="translate(-19.946 -438.63)" fill="#f9d608"/>
        </g>
        <g id="Grupo_1073778" data-name="Grupo 1073778" transform="translate(17.931 34.891)">
          <path id="Trazado_824688" data-name="Trazado 824688" d="M208.118,352.269v14.06a.465.465,0,0,1-.466.465l-1.418.2h-4.057a.912.912,0,0,1-.385-.085c-.1-.045-.17-.305-.249-.384l-4.9-4.916c-.08-.08-.311-.1-.355-.2a.916.916,0,0,1-.084-.386v-8.958a.465.465,0,0,1,.465-.466h9.563l1.418.2A.466.466,0,0,1,208.118,352.269Z" transform="translate(-196.206 -351.6)" fill="#fce459"/>
          <path id="Trazado_824689" data-name="Trazado 824689" d="M295.017,351.6h-1.824a.427.427,0,0,1,.417.466v14.465a.426.426,0,0,1-.417.465h1.824a.465.465,0,0,0,.466-.465V352.066A.466.466,0,0,0,295.017,351.6Z" transform="translate(-283.368 -351.6)" fill="#f9d608"/>
          <path id="Trazado_824690" data-name="Trazado 824690" d="M202.537,448.892v5.049a.9.9,0,0,1-.273-.187l-5.041-5.041a.907.907,0,0,1-.188-.273h5.05A.452.452,0,0,1,202.537,448.892Z" transform="translate(-196.951 -438.63)" fill="#f9d608"/>
        </g>
        <g id="Grupo_1073779" data-name="Grupo 1073779" transform="translate(35.946 34.891)">
          <path id="Trazado_824691" data-name="Trazado 824691" d="M385.945,352.269v14.06a.465.465,0,0,1-.466.465l-1.418.2H380a.912.912,0,0,1-.385-.085c-.1-.045-.17-.305-.249-.384l-4.9-4.916c-.08-.08-.311-.1-.355-.2a.915.915,0,0,1-.084-.386v-8.958a.465.465,0,0,1,.465-.466h9.563l1.418.2A.466.466,0,0,1,385.945,352.269Z" transform="translate(-374.033 -351.6)" fill="#fce459"/>
          <path id="Trazado_824692" data-name="Trazado 824692" d="M472.844,351.6H471.02a.427.427,0,0,1,.417.466v14.465a.426.426,0,0,1-.417.465h1.824a.465.465,0,0,0,.466-.465V352.066A.466.466,0,0,0,472.844,351.6Z" transform="translate(-461.195 -351.6)" fill="#f9d608"/>
          <path id="Trazado_824693" data-name="Trazado 824693" d="M380.364,448.892v5.049a.9.9,0,0,1-.273-.187l-5.041-5.041a.906.906,0,0,1-.188-.273h5.049A.452.452,0,0,1,380.364,448.892Z" transform="translate(-374.778 -438.63)" fill="#f9d608"/>
        </g>
      </g>
      <g id="Grupo_1073781" data-name="Grupo 1073781" transform="translate(11.7 0)">
        <path id="Trazado_824694" data-name="Trazado 824694" d="M106.46,29.078H73.9a2.416,2.416,0,0,1-2.413-2.413V2.413A2.416,2.416,0,0,1,73.9,0h4.109a.76.76,0,0,1,0,1.52H73.9a.9.9,0,0,0-.893.893V26.665a.9.9,0,0,0,.893.893H106.46a.9.9,0,0,0,.894-.893V20.278a.76.76,0,0,1,1.52,0v6.387A2.416,2.416,0,0,1,106.46,29.078Zm1.653-11.586a.76.76,0,0,1-.755-.682L105.7.838A.76.76,0,0,1,106.46,0a2.416,2.416,0,0,1,2.413,2.413V16.732a.76.76,0,0,1-.721.759Z" transform="translate(-65.433 0)"/>
        <path id="Línea_256" data-name="Línea 256" d="M28.573-5.98H-6.74a.76.76,0,0,1-.76-.76.76.76,0,0,1,.76-.76H28.573a.76.76,0,0,1,.76.76A.76.76,0,0,1,28.573-5.98Z" transform="translate(13.832 13.953)"/>
        <path id="Línea_257" data-name="Línea 257" transform="translate(17.24 3.986)"/>
        <path id="Línea_258" data-name="Línea 258" transform="translate(13.781 3.986)"/>
        <path id="Línea_259" data-name="Línea 259" transform="translate(10.321 3.986)"/>
        <path id="Trazado_824695" data-name="Trazado 824695" d="M173.807,142.967a.757.757,0,0,1-.537-.223l-3.106-3.106a.76.76,0,0,1,0-1.075l3.106-3.106a.76.76,0,0,1,1.075,1.074l-2.569,2.569,2.569,2.569a.76.76,0,0,1-.537,1.3Z" transform="translate(-153.911 -121.536)"/>
        <path id="Trazado_824696" data-name="Trazado 824696" d="M297.16,142.967a.76.76,0,0,1-.537-1.3l2.569-2.569-2.569-2.569a.76.76,0,0,1,1.074-1.074l3.106,3.106a.76.76,0,0,1,0,1.075l-3.106,3.106A.758.758,0,0,1,297.16,142.967Z" transform="translate(-267.559 -121.536)"/>
        <path id="Línea_260" data-name="Línea 260" d="M-6.742,1.754A.758.758,0,0,1-7,1.709.76.76,0,0,1-7.457.736L-4.664-7a.76.76,0,0,1,.973-.457.76.76,0,0,1,.457.973L-6.027,1.252A.76.76,0,0,1-6.742,1.754Z" transform="translate(30.094 20.439)"/>
        <path id="Trazado_824697" data-name="Trazado 824697" d="M196.631,447.5a.76.76,0,0,1-.76-.76v-4.288h-4.648a.76.76,0,1,1,0-1.52h5.408a.76.76,0,0,1,.76.76v5.048A.76.76,0,0,1,196.631,447.5Z" transform="translate(-172.354 -396.269)"/>
        <path id="Trazado_824698" data-name="Trazado 824698" d="M201.114,361.017h-5.678a1.678,1.678,0,0,1-1.2-.5l-5.041-5.041a1.679,1.679,0,0,1-.5-1.2v-8.959a1.226,1.226,0,0,1,1.225-1.225h11.184a1.226,1.226,0,0,1,1.225,1.225v14.465A1.226,1.226,0,0,1,201.114,361.017Zm-10.89-15.4v8.664a.172.172,0,0,0,.05.121l5.041,5.041a.169.169,0,0,0,.121.05h5.383V345.622Z" transform="translate(-170.774 -309.243)"/>
        <path id="Trazado_824699" data-name="Trazado 824699" d="M373.641,448.423a.76.76,0,0,1-.76-.76v-4.288h-4.648a.76.76,0,0,1,0-1.52h5.408a.76.76,0,0,1,.76.76v5.048A.76.76,0,0,1,373.641,448.423Z" transform="translate(-331.432 -397.095)"/>
        <path id="Trazado_824700" data-name="Trazado 824700" d="M378.12,361.936h-5.678a1.7,1.7,0,0,1-1.195-.5l-5.041-5.041a1.68,1.68,0,0,1-.5-1.2v-8.959a1.227,1.227,0,0,1,1.226-1.225H378.12a1.226,1.226,0,0,1,1.225,1.225v7.572a.76.76,0,1,1-1.52,0v-7.278h-10.6V355.2a.171.171,0,0,0,.051.121l5.041,5.041a.171.171,0,0,0,.12.05h5.383v-3.053a.76.76,0,1,1,1.52,0v3.348A1.226,1.226,0,0,1,378.12,361.936Z" transform="translate(-329.848 -310.068)"/>
        <path id="Trazado_824701" data-name="Trazado 824701" d="M19.622,447.5a.76.76,0,0,1-.76-.76v-4.288H14.214a.76.76,0,1,1,0-1.52h5.408a.76.76,0,0,1,.76.76v5.048A.76.76,0,0,1,19.622,447.5Z" transform="translate(-13.276 -396.269)"/>
        <path id="Trazado_824702" data-name="Trazado 824702" d="M24.109,361.016H18.431a1.7,1.7,0,0,1-1.195-.5L12.2,355.48a1.68,1.68,0,0,1-.5-1.2v-8.958a1.227,1.227,0,0,1,1.225-1.226H24.109a1.227,1.227,0,0,1,1.226,1.226v2.457a.76.76,0,0,1-1.52,0V345.62H13.22v8.664a.17.17,0,0,0,.05.121l5.041,5.041a.172.172,0,0,0,.12.05h5.384v-8.168a.76.76,0,0,1,1.52,0v8.463A1.227,1.227,0,0,1,24.109,361.016Z" transform="translate(-11.7 -309.242)"/>
        <path id="Línea_261" data-name="Línea 261" d="M-6.74.646a.76.76,0,0,1-.76-.76V-6.74a.76.76,0,0,1,.76-.76.76.76,0,0,1,.76.76V-.114A.76.76,0,0,1-6.74.646Z" transform="translate(31.489 35.483)"/>
        <path id="Trazado_824703" data-name="Trazado 824703" d="M108.113,312.993a.76.76,0,0,1-.76-.76v-2.171a.471.471,0,0,0-.47-.47H73.48a.471.471,0,0,0-.47.47v2.107a.76.76,0,1,1-1.52,0v-2.107a1.992,1.992,0,0,1,1.99-1.99h33.4a1.992,1.992,0,0,1,1.99,1.99v2.171A.76.76,0,0,1,108.113,312.993Z" transform="translate(-65.433 -276.864)"/>
        <path id="Trazado_824704" data-name="Trazado 824704" d="M37.906,379.721a.76.76,0,0,1-.537-1.3l1.32-1.32-1.32-1.32a.76.76,0,0,1,1.074-1.074l1.857,1.857a.76.76,0,0,1,0,1.074L38.443,379.5A.757.757,0,0,1,37.906,379.721Z" transform="translate(-34.568 -336.55)"/>
        <path id="Línea_262" data-name="Línea 262" d="M-4.3-5.98H-6.74a.76.76,0,0,1-.76-.76.76.76,0,0,1,.76-.76H-4.3a.76.76,0,0,1,.76.76A.76.76,0,0,1-4.3-5.98Z" transform="translate(14.543 47.294)"/>
        <path id="Trazado_824705" data-name="Trazado 824705" d="M215.179,379.721a.76.76,0,0,1-.537-1.3l1.32-1.32-1.32-1.32a.76.76,0,0,1,1.074-1.074l1.857,1.857a.76.76,0,0,1,0,1.074l-1.857,1.857A.757.757,0,0,1,215.179,379.721Z" transform="translate(-193.883 -336.55)"/>
        <path id="Línea_263" data-name="Línea 263" d="M-4.3-5.98H-6.74a.76.76,0,0,1-.76-.76.76.76,0,0,1,.76-.76H-4.3a.76.76,0,0,1,.76.76A.76.76,0,0,1-4.3-5.98Z" transform="translate(32.501 47.294)"/>
        <path id="Trazado_824706" data-name="Trazado 824706" d="M392.189,379.721a.76.76,0,0,1-.537-1.3l1.32-1.32-1.32-1.32a.76.76,0,0,1,1.074-1.074l1.857,1.857a.76.76,0,0,1,0,1.074l-1.857,1.857A.757.757,0,0,1,392.189,379.721Z" transform="translate(-352.961 -336.55)"/>
        <path id="Línea_264" data-name="Línea 264" d="M-4.3-5.98H-6.74a.76.76,0,0,1-.76-.76.76.76,0,0,1,.76-.76H-4.3a.76.76,0,0,1,.76.76A.76.76,0,0,1-4.3-5.98Z" transform="translate(50.433 47.294)"/>
      </g>
    </g>
  </g>
</svg>
