<svg xmlns="http://www.w3.org/2000/svg" width="820.899" height="440" viewBox="0 0 820.899 440">
  <g id="Grupo_1099229" data-name="Grupo 1099229" transform="translate(-391.101 -1398)">
    <path id="Trazado_873602" data-name="Trazado 873602" d="M5,0H204a5,5,0,0,1,5,5V74a5,5,0,0,1-5,5H5a5,5,0,0,1-5-5V5A5,5,0,0,1,5,0Z" transform="translate(480 1398)" fill="#8722e2"/>
    <path id="Trazado_873603" data-name="Trazado 873603" d="M5,0H203a5,5,0,0,1,5,5V73a5,5,0,0,1-5,5H5a5,5,0,0,1-5-5V5A5,5,0,0,1,5,0Z" transform="translate(607 1488)" fill="#8722e2"/>
    <path id="Trazado_873608" data-name="Trazado 873608" d="M5,0H212a5,5,0,0,1,5,5V74a5,5,0,0,1-5,5H5a5,5,0,0,1-5-5V5A5,5,0,0,1,5,0Z" transform="translate(733 1577)" fill="#cb94fd"/>
    <path id="Trazado_873613" data-name="Trazado 873613" d="M5,0H202a5,5,0,0,1,5,5V73a5,5,0,0,1-5,5H5a5,5,0,0,1-5-5V5A5,5,0,0,1,5,0Z" transform="translate(861 1670)" fill="#cb94fd"/>
    <path id="Trazado_873616" data-name="Trazado 873616" d="M5,0H221a5,5,0,0,1,5,5V73a5,5,0,0,1-5,5H5a5,5,0,0,1-5-5V5A5,5,0,0,1,5,0Z" transform="translate(986 1760)" fill="#ebd3ff"/>
    <path id="Trazado_4456" data-name="Trazado 4456" d="M578.731,255.494l2.287,2.13L591.5,246.345l10.485,11.279,2.287-2.13L591.5,241.76Z" transform="translate(842.481 942.387) rotate(90)" fill="#3a1d71"/>
    <path id="Trazado_820917" data-name="Trazado 820917" d="M41.575,90.991H-4.313a1.5,1.5,0,0,1-1.5-1.5,1.5,1.5,0,0,1,1.5-1.5H38.575V3.758a1.5,1.5,0,0,1,3,0Z" transform="translate(600.721 1493.813) rotate(90)" fill="#3a1d71"/>
    <path id="Trazado_4456-2" data-name="Trazado 4456" d="M578.731,255.494l2.287,2.13L591.5,246.345l10.485,11.279,2.287-2.13L591.5,241.76Z" transform="translate(965.481 1024.729) rotate(90)" fill="#3a1d71"/>
    <path id="Trazado_820917-2" data-name="Trazado 820917" d="M41.575,90.991H-4.313a1.5,1.5,0,0,1-1.5-1.5,1.5,1.5,0,0,1,1.5-1.5H38.575V3.758a1.5,1.5,0,0,1,3,0Z" transform="translate(723.721 1576.154) rotate(90)" fill="#3a1d71"/>
    <path id="Trazado_4456-3" data-name="Trazado 4456" d="M578.731,255.494l2.287,2.13L591.5,246.345l10.485,11.279,2.287-2.13L591.5,241.76Z" transform="translate(1091.62 1115.729) rotate(90)" fill="#3a1d71"/>
    <path id="Trazado_820917-3" data-name="Trazado 820917" d="M41.575,90.991H-4.313a1.5,1.5,0,0,1-1.5-1.5,1.5,1.5,0,0,1,1.5-1.5H38.575V3.758a1.5,1.5,0,0,1,3,0Z" transform="translate(849.86 1667.154) rotate(90)" fill="#3a1d71"/>
    <path id="Trazado_4456-4" data-name="Trazado 4456" d="M578.731,255.494l2.287,2.13L591.5,246.345l10.485,11.279,2.287-2.13L591.5,241.76Z" transform="translate(1214.62 1211.058) rotate(90)" fill="#3a1d71"/>
    <path id="Trazado_820917-4" data-name="Trazado 820917" d="M41.575,90.991H-4.313a1.5,1.5,0,0,1-1.5-1.5,1.5,1.5,0,0,1,1.5-1.5H38.575V3.758a1.5,1.5,0,0,1,3,0Z" transform="translate(972.86 1762.483) rotate(90)" fill="#3a1d71"/>
    <path id="Trazado_4456-5" data-name="Trazado 4456" d="M578.731,255.494l2.287,2.13L591.5,246.345l10.485,11.279,2.287-2.13L591.5,241.76Z" transform="translate(836.11 2293.613) rotate(-90)" fill="#8722e2"/>
    <path id="Trazado_820917-5" data-name="Trazado 820917" d="M41.575,90.991H-4.313a1.5,1.5,0,0,1-1.5-1.5,1.5,1.5,0,0,1,1.5-1.5H38.575V3.758a1.5,1.5,0,0,1,3,0Z" transform="translate(1077.87 1742.188) rotate(-90)" fill="#8722e2"/>
    <path id="Trazado_4456-6" data-name="Trazado 4456" d="M578.731,255.494l2.287,2.13L591.5,246.345l10.485,11.279,2.287-2.13L591.5,241.76Z" transform="translate(714.11 2201.613) rotate(-90)" fill="#a854f3"/>
    <path id="Trazado_820917-6" data-name="Trazado 820917" d="M41.575,90.991H-4.313a1.5,1.5,0,0,1-1.5-1.5,1.5,1.5,0,0,1,1.5-1.5H38.575V3.758a1.5,1.5,0,0,1,3,0Z" transform="translate(955.87 1650.188) rotate(-90)" fill="#8722e2"/>
    <path id="Trazado_4456-7" data-name="Trazado 4456" d="M578.731,255.494l2.287,2.13L591.5,246.345l10.485,11.279,2.287-2.13L591.5,241.76Z" transform="translate(585.24 2111.271) rotate(-90)" fill="#a854f3"/>
    <path id="Trazado_820917-7" data-name="Trazado 820917" d="M41.575,90.991H-4.313a1.5,1.5,0,0,1-1.5-1.5,1.5,1.5,0,0,1,1.5-1.5H38.575V3.758a1.5,1.5,0,0,1,3,0Z" transform="translate(827 1559.846) rotate(-90)" fill="#8722e2"/>
    <path id="Trazado_4456-8" data-name="Trazado 4456" d="M578.731,255.494l2.287,2.13L591.5,246.345l10.485,11.279,2.287-2.13L591.5,241.76Z" transform="translate(460.24 2023.942) rotate(-90)" fill="#8722e2"/>
    <path id="Trazado_820917-8" data-name="Trazado 820917" d="M41.575,90.991H-4.313a1.5,1.5,0,0,1-1.5-1.5,1.5,1.5,0,0,1,1.5-1.5H38.575V3.758a1.5,1.5,0,0,1,3,0Z" transform="translate(702 1472.517) rotate(-90)" fill="#8722e2"/>
    <path id="Trazado_873604" data-name="Trazado 873604" d="M9.762-3.076H4.368L3.343,0H.072L5.629-14.93H8.48L14.068,0H10.8ZM5.2-5.568H8.931L7.055-11.156Zm12.3-5.527L17.6-9.813A3.874,3.874,0,0,1,20.785-11.3a3.219,3.219,0,0,1,2.625,1.036,4.832,4.832,0,0,1,.882,3.1V0H21.328V-7.112a1.93,1.93,0,0,0-.41-1.372,1.833,1.833,0,0,0-1.364-.426,2.038,2.038,0,0,0-1.876,1.069V0H14.714V-11.095ZM32.966,0a3.291,3.291,0,0,1-.3-.995,3.586,3.586,0,0,1-2.8,1.2,3.939,3.939,0,0,1-2.7-.943A3.034,3.034,0,0,1,26.1-3.117,3.135,3.135,0,0,1,27.4-5.824a6.451,6.451,0,0,1,3.779-.954h1.364v-.636a1.828,1.828,0,0,0-.395-1.23,1.553,1.553,0,0,0-1.246-.461,1.766,1.766,0,0,0-1.174.359,1.219,1.219,0,0,0-.426.984H26.342a2.977,2.977,0,0,1,.595-1.784,3.931,3.931,0,0,1,1.682-1.287,6.129,6.129,0,0,1,2.44-.467,4.842,4.842,0,0,1,3.256,1.031,3.605,3.605,0,0,1,1.2,2.9v4.809A5.3,5.3,0,0,0,35.96-.174V0ZM30.516-2.061a2.552,2.552,0,0,0,1.21-.292,1.919,1.919,0,0,0,.82-.784V-5.045H31.438q-2.225,0-2.369,1.538l-.01.174a1.186,1.186,0,0,0,.39.913A1.514,1.514,0,0,0,30.516-2.061ZM31.644-15.75h3.23l-2.84,3.179h-2.41ZM40.923,0H37.95V-15.75h2.974Zm5.568,0H43.518V-11.095h2.974ZM43.343-13.966a1.459,1.459,0,0,1,.446-1.1A1.676,1.676,0,0,1,45-15.494a1.679,1.679,0,0,1,1.21.431,1.451,1.451,0,0,1,.451,1.1,1.455,1.455,0,0,1-.456,1.107,1.684,1.684,0,0,1-1.2.431,1.684,1.684,0,0,1-1.2-.431A1.455,1.455,0,0,1,43.343-13.966Zm11.6,10.9a.955.955,0,0,0-.538-.856,6.115,6.115,0,0,0-1.728-.559q-3.958-.831-3.958-3.363a3.049,3.049,0,0,1,1.225-2.466,4.943,4.943,0,0,1,3.2-.99,5.32,5.32,0,0,1,3.379.995,3.135,3.135,0,0,1,1.266,2.584H54.828a1.434,1.434,0,0,0-.41-1.051,1.736,1.736,0,0,0-1.282-.415,1.774,1.774,0,0,0-1.159.338,1.068,1.068,0,0,0-.41.861.913.913,0,0,0,.467.795,4.8,4.8,0,0,0,1.574.523,12.856,12.856,0,0,1,1.866.5,3.066,3.066,0,0,1,2.348,2.984,2.894,2.894,0,0,1-1.3,2.456,5.618,5.618,0,0,1-3.363.938,5.867,5.867,0,0,1-2.476-.5,4.155,4.155,0,0,1-1.7-1.364,3.169,3.169,0,0,1-.615-1.871h2.81a1.547,1.547,0,0,0,.584,1.21,2.318,2.318,0,0,0,1.456.42A2.146,2.146,0,0,0,54.5-2.22,1,1,0,0,0,54.94-3.066ZM62.856,0H59.883V-11.095h2.974ZM59.708-13.966a1.459,1.459,0,0,1,.446-1.1,1.676,1.676,0,0,1,1.215-.431,1.679,1.679,0,0,1,1.21.431,1.451,1.451,0,0,1,.451,1.1,1.455,1.455,0,0,1-.456,1.107,1.684,1.684,0,0,1-1.2.431,1.684,1.684,0,0,1-1.2-.431A1.455,1.455,0,0,1,59.708-13.966Zm11.6,10.9a.955.955,0,0,0-.538-.856,6.115,6.115,0,0,0-1.728-.559q-3.958-.831-3.958-3.363a3.049,3.049,0,0,1,1.225-2.466,4.943,4.943,0,0,1,3.2-.99,5.32,5.32,0,0,1,3.379.995,3.135,3.135,0,0,1,1.266,2.584H71.193a1.434,1.434,0,0,0-.41-1.051A1.736,1.736,0,0,0,69.5-9.187a1.774,1.774,0,0,0-1.159.338,1.068,1.068,0,0,0-.41.861.913.913,0,0,0,.467.795,4.8,4.8,0,0,0,1.574.523,12.856,12.856,0,0,1,1.866.5,3.066,3.066,0,0,1,2.348,2.984,2.894,2.894,0,0,1-1.3,2.456,5.618,5.618,0,0,1-3.363.938,5.867,5.867,0,0,1-2.476-.5,4.155,4.155,0,0,1-1.7-1.364,3.169,3.169,0,0,1-.615-1.871h2.81a1.547,1.547,0,0,0,.584,1.21,2.318,2.318,0,0,0,1.456.42A2.146,2.146,0,0,0,70.87-2.22,1,1,0,0,0,71.306-3.066Z" transform="translate(519 1444)" fill="#fff"/>
    <path id="Trazado_873605" data-name="Trazado 873605" d="M-54.9,0V-14.93h4.214a6.784,6.784,0,0,1,3.445.861,5.825,5.825,0,0,1,2.312,2.451,7.977,7.977,0,0,1,.825,3.65v.954a8,8,0,0,1-.815,3.7,5.734,5.734,0,0,1-2.328,2.44A7.216,7.216,0,0,1-50.767,0Zm1.969-13.32V-1.61h2.071a4.507,4.507,0,0,0,3.543-1.416A5.851,5.851,0,0,0-46.05-7.059v-.872a5.944,5.944,0,0,0-1.195-3.956,4.251,4.251,0,0,0-3.389-1.432Zm11,7.67a6.553,6.553,0,0,1,.641-2.933,4.781,4.781,0,0,1,1.784-2.01,4.857,4.857,0,0,1,2.61-.708,4.679,4.679,0,0,1,3.666,1.569,6.036,6.036,0,0,1,1.4,4.173v.133a6.61,6.61,0,0,1-.62,2.907,4.71,4.71,0,0,1-1.774,2,4.913,4.913,0,0,1-2.651.718,4.667,4.667,0,0,1-3.656-1.569,6.005,6.005,0,0,1-1.4-4.153Zm1.907.226a4.746,4.746,0,0,0,.856,2.963,2.74,2.74,0,0,0,2.292,1.118,2.724,2.724,0,0,0,2.3-1.133,5.19,5.19,0,0,0,.851-3.174,4.738,4.738,0,0,0-.866-2.958,2.755,2.755,0,0,0-2.3-1.133A2.724,2.724,0,0,0-39.16-8.624,5.152,5.152,0,0,0-40.021-5.424ZM-25-1.343a2.732,2.732,0,0,0,1.774-.615A2.164,2.164,0,0,0-22.384-3.5h1.794a3.44,3.44,0,0,1-.656,1.815A4.322,4.322,0,0,1-22.861-.308,4.66,4.66,0,0,1-25,.205a4.57,4.57,0,0,1-3.6-1.512,6.024,6.024,0,0,1-1.338-4.137v-.318a6.679,6.679,0,0,1,.595-2.881A4.53,4.53,0,0,1-27.639-10.6a4.85,4.85,0,0,1,2.63-.7,4.45,4.45,0,0,1,3.1,1.118,3.994,3.994,0,0,1,1.318,2.9h-1.794A2.614,2.614,0,0,0-23.2-9.049a2.536,2.536,0,0,0-1.81-.692A2.655,2.655,0,0,0-27.25-8.7a4.888,4.888,0,0,0-.795,3.01v.359a4.79,4.79,0,0,0,.79,2.953A2.668,2.668,0,0,0-25-1.343Zm13.392.246a4.029,4.029,0,0,1-3.25,1.3,3.449,3.449,0,0,1-2.7-1.031A4.461,4.461,0,0,1-18.5-3.876v-7.219h1.9v7.167Q-16.6-1.4-14.55-1.4a2.84,2.84,0,0,0,2.892-1.62v-8.07h1.9V0h-1.8Zm6.511-10,.051,1.23A4.1,4.1,0,0,1-1.753-11.3,3.172,3.172,0,0,1,1.415-9.516a4.2,4.2,0,0,1,1.441-1.292,4.255,4.255,0,0,1,2.1-.492q3.65,0,3.712,3.866V0h-1.9V-7.321A2.548,2.548,0,0,0,6.224-9.1,2.393,2.393,0,0,0,4.4-9.69a2.515,2.515,0,0,0-1.753.631,2.558,2.558,0,0,0-.81,1.7V0H-.072V-7.27A2.117,2.117,0,0,0-2.44-9.69,2.538,2.538,0,0,0-4.994-8.1V0h-1.9V-11.095ZM16.129.205a4.848,4.848,0,0,1-3.671-1.482A5.5,5.5,0,0,1,11.043-5.24v-.349a6.658,6.658,0,0,1,.631-2.948,4.919,4.919,0,0,1,1.764-2.03,4.434,4.434,0,0,1,2.456-.733,4.155,4.155,0,0,1,3.363,1.425,6.171,6.171,0,0,1,1.2,4.081V-5H12.94A3.944,3.944,0,0,0,13.9-2.353a3.014,3.014,0,0,0,2.333,1.01,3.3,3.3,0,0,0,1.7-.41,4.277,4.277,0,0,0,1.22-1.087l1.159.9A4.659,4.659,0,0,1,16.129.205Zm-.236-9.946a2.53,2.53,0,0,0-1.928.836A4.062,4.062,0,0,0,13-6.562H18.56v-.144a3.613,3.613,0,0,0-.779-2.24A2.382,2.382,0,0,0,15.894-9.741Zm8.552-1.354L24.507-9.7a4.043,4.043,0,0,1,3.322-1.6q3.517,0,3.548,3.968V0h-1.9V-7.342a2.554,2.554,0,0,0-.549-1.774,2.2,2.2,0,0,0-1.677-.574,2.738,2.738,0,0,0-1.62.492,3.342,3.342,0,0,0-1.087,1.292V0h-1.9V-11.095Zm12.366-2.687v2.687h2.071v1.466H36.812v6.889a1.54,1.54,0,0,0,.277,1,1.165,1.165,0,0,0,.943.334,4.593,4.593,0,0,0,.9-.123V0a5.532,5.532,0,0,1-1.456.2,2.362,2.362,0,0,1-1.917-.769,3.3,3.3,0,0,1-.646-2.184v-6.88h-2.02v-1.466h2.02v-2.687ZM40.39-5.65a6.553,6.553,0,0,1,.641-2.933,4.781,4.781,0,0,1,1.784-2.01,4.857,4.857,0,0,1,2.61-.708,4.679,4.679,0,0,1,3.666,1.569,6.036,6.036,0,0,1,1.4,4.173v.133a6.61,6.61,0,0,1-.62,2.907,4.71,4.71,0,0,1-1.774,2,4.913,4.913,0,0,1-2.651.718A4.667,4.667,0,0,1,41.79-1.364a6.005,6.005,0,0,1-1.4-4.153Zm1.907.226a4.746,4.746,0,0,0,.856,2.963,2.74,2.74,0,0,0,2.292,1.118,2.724,2.724,0,0,0,2.3-1.133,5.19,5.19,0,0,0,.851-3.174,4.738,4.738,0,0,0-.866-2.958,2.755,2.755,0,0,0-2.3-1.133,2.724,2.724,0,0,0-2.266,1.118A5.152,5.152,0,0,0,42.3-5.424ZM-44.338,14.36a6.5,6.5,0,0,1,1.21-4.107A3.826,3.826,0,0,1-39.959,8.7a3.848,3.848,0,0,1,3.086,1.333V4.25h1.9V20h-1.743l-.092-1.189a3.863,3.863,0,0,1-3.168,1.395,3.789,3.789,0,0,1-3.143-1.579A6.573,6.573,0,0,1-44.338,14.5Zm1.9.215a4.921,4.921,0,0,0,.779,2.953A2.519,2.519,0,0,0-39.508,18.6a2.767,2.767,0,0,0,2.635-1.62v-5.1a2.789,2.789,0,0,0-2.615-1.569,2.531,2.531,0,0,0-2.174,1.077A5.418,5.418,0,0,0-42.441,14.576Zm15.012,5.629A4.848,4.848,0,0,1-31.1,18.723a5.5,5.5,0,0,1-1.415-3.963v-.349a6.658,6.658,0,0,1,.631-2.948,4.919,4.919,0,0,1,1.764-2.03A4.434,4.434,0,0,1-27.665,8.7,4.155,4.155,0,0,1-24.3,10.125a6.171,6.171,0,0,1,1.2,4.081V15h-7.516a3.944,3.944,0,0,0,.959,2.651,3.014,3.014,0,0,0,2.333,1.01,3.3,3.3,0,0,0,1.7-.41A4.277,4.277,0,0,0-24.4,17.16l1.159.9A4.659,4.659,0,0,1-27.429,20.205Zm-.236-9.946a2.53,2.53,0,0,0-1.928.836,4.062,4.062,0,0,0-.964,2.343H-25v-.144a3.613,3.613,0,0,0-.779-2.24A2.382,2.382,0,0,0-27.665,10.259Zm11.495,4.1a6.5,6.5,0,0,1,1.21-4.107A3.826,3.826,0,0,1-11.792,8.7a3.848,3.848,0,0,1,3.086,1.333V4.25h1.9V20H-8.552l-.092-1.189a3.863,3.863,0,0,1-3.168,1.395,3.789,3.789,0,0,1-3.143-1.579A6.573,6.573,0,0,1-16.17,14.5Zm1.9.215a4.921,4.921,0,0,0,.779,2.953A2.519,2.519,0,0,0-11.341,18.6a2.767,2.767,0,0,0,2.635-1.62v-5.1A2.789,2.789,0,0,0-11.32,10.31a2.531,2.531,0,0,0-2.174,1.077A5.418,5.418,0,0,0-14.273,14.576ZM-1.8,20H-3.7V8.905h1.9ZM-3.855,5.962a1.132,1.132,0,0,1,.282-.779,1.059,1.059,0,0,1,.836-.318,1.075,1.075,0,0,1,.841.318,1.12,1.12,0,0,1,.287.779,1.084,1.084,0,0,1-.287.769,1.1,1.1,0,0,1-.841.308,1.078,1.078,0,0,1-.836-.308A1.1,1.1,0,0,1-3.855,5.962ZM7.69,17.057a1.4,1.4,0,0,0-.579-1.195,5.576,5.576,0,0,0-2.02-.733A9.551,9.551,0,0,1,2.8,14.391a3.253,3.253,0,0,1-1.251-1.025,2.453,2.453,0,0,1-.405-1.415A2.878,2.878,0,0,1,2.3,9.644,4.505,4.505,0,0,1,5.25,8.7a4.636,4.636,0,0,1,3.061.974,3.094,3.094,0,0,1,1.174,2.492H7.578a1.713,1.713,0,0,0-.661-1.343,2.478,2.478,0,0,0-1.666-.564,2.593,2.593,0,0,0-1.62.451,1.42,1.42,0,0,0-.584,1.179,1.151,1.151,0,0,0,.543,1.036,6.687,6.687,0,0,0,1.964.667,10.231,10.231,0,0,1,2.3.759,3.358,3.358,0,0,1,1.307,1.061,2.609,2.609,0,0,1,.426,1.512A2.839,2.839,0,0,1,8.4,19.308a4.989,4.989,0,0,1-3.086.9,5.587,5.587,0,0,1-2.358-.472,3.836,3.836,0,0,1-1.6-1.318,3.176,3.176,0,0,1-.579-1.83h1.9A1.964,1.964,0,0,0,3.43,18.1a2.964,2.964,0,0,0,1.882.559,3.059,3.059,0,0,0,1.728-.436A1.339,1.339,0,0,0,7.69,17.057Zm8.972,3.148a4.848,4.848,0,0,1-3.671-1.482,5.5,5.5,0,0,1-1.415-3.963v-.349a6.658,6.658,0,0,1,.631-2.948,4.919,4.919,0,0,1,1.764-2.03A4.434,4.434,0,0,1,16.427,8.7a4.155,4.155,0,0,1,3.363,1.425,6.171,6.171,0,0,1,1.2,4.081V15H13.474a3.944,3.944,0,0,0,.959,2.651,3.014,3.014,0,0,0,2.333,1.01,3.3,3.3,0,0,0,1.7-.41,4.277,4.277,0,0,0,1.22-1.087l1.159.9A4.659,4.659,0,0,1,16.663,20.205Zm-.236-9.946a2.53,2.53,0,0,0-1.928.836,4.062,4.062,0,0,0-.964,2.343h5.558v-.144a3.613,3.613,0,0,0-.779-2.24A2.382,2.382,0,0,0,16.427,10.259Zm8.552-1.354L25.04,10.3a4.043,4.043,0,0,1,3.322-1.6q3.517,0,3.548,3.968V20h-1.9V12.658a2.554,2.554,0,0,0-.549-1.774,2.2,2.2,0,0,0-1.677-.574,2.738,2.738,0,0,0-1.62.492,3.342,3.342,0,0,0-1.087,1.292V20h-1.9V8.905Zm6.275-4.327a2.549,2.549,0,0,1-.631,1.794,2.048,2.048,0,0,1-1.574.687,2.309,2.309,0,0,1-.728-.1,3.928,3.928,0,0,1-.8-.42,3.486,3.486,0,0,0-.718-.385,1.757,1.757,0,0,0-.508-.067.941.941,0,0,0-.718.323,1.171,1.171,0,0,0-.3.825L24,7.162a2.676,2.676,0,0,1,.62-1.815A1.99,1.99,0,0,1,26.2,4.629a1.912,1.912,0,0,1,.646.1,4.708,4.708,0,0,1,.779.4,4.586,4.586,0,0,0,.754.39,1.731,1.731,0,0,0,.579.092.917.917,0,0,0,.733-.349,1.223,1.223,0,0,0,.292-.81Zm3.015,9.772a6.553,6.553,0,0,1,.641-2.933,4.781,4.781,0,0,1,1.784-2.01A4.857,4.857,0,0,1,39.3,8.7a4.679,4.679,0,0,1,3.666,1.569,6.036,6.036,0,0,1,1.4,4.173v.133a6.61,6.61,0,0,1-.62,2.907,4.71,4.71,0,0,1-1.774,2,4.913,4.913,0,0,1-2.651.718,4.667,4.667,0,0,1-3.656-1.569,6.005,6.005,0,0,1-1.4-4.153Zm1.907.226a4.746,4.746,0,0,0,.856,2.963,2.9,2.9,0,0,0,4.589-.015,5.19,5.19,0,0,0,.851-3.174,4.738,4.738,0,0,0-.866-2.958,2.755,2.755,0,0,0-2.3-1.133,2.724,2.724,0,0,0-2.266,1.118A5.152,5.152,0,0,0,36.176,14.576Z" transform="translate(446 1511)" fill="#3a1d71"/>
    <path id="Trazado_873607" data-name="Trazado 873607" d="M-50-3.907h-6.255L-57.658,0h-2.03l5.7-14.93h1.723L-46.553,0h-2.02Zm-5.66-1.61h5.076L-53.125-12.5Zm16.181-3.876a5.685,5.685,0,0,0-.933-.072,2.5,2.5,0,0,0-2.533,1.589V0h-1.9V-11.095h1.846l.031,1.282A2.954,2.954,0,0,1-40.318-11.3a1.938,1.938,0,0,1,.841.144Zm1.087,3.753a6.512,6.512,0,0,1,1.2-4.137,3.888,3.888,0,0,1,3.22-1.523,3.885,3.885,0,0,1,3.107,1.323l.082-1.118h1.743V4.266h-1.9V-1.025A3.981,3.981,0,0,1-33.992.205a3.826,3.826,0,0,1-3.2-1.564,6.657,6.657,0,0,1-1.195-4.148Zm1.9.215a4.936,4.936,0,0,0,.8,2.994A2.56,2.56,0,0,0-33.52-1.343a2.841,2.841,0,0,0,2.584-1.5V-8.275A2.849,2.849,0,0,0-33.5-9.741a2.58,2.58,0,0,0-2.184,1.092A5.374,5.374,0,0,0-36.494-5.424ZM-19.144-1.1a4.029,4.029,0,0,1-3.25,1.3A3.449,3.449,0,0,1-25.1-.825a4.461,4.461,0,0,1-.938-3.051v-7.219h1.9v7.167q0,2.522,2.051,2.522A2.84,2.84,0,0,0-19.2-3.025v-8.07h1.9V0h-1.8ZM-12.356,0h-1.9V-11.095h1.9Zm-2.051-14.038a1.132,1.132,0,0,1,.282-.779,1.059,1.059,0,0,1,.836-.318,1.075,1.075,0,0,1,.841.318,1.12,1.12,0,0,1,.287.779,1.084,1.084,0,0,1-.287.769,1.1,1.1,0,0,1-.841.308,1.078,1.078,0,0,1-.836-.308A1.1,1.1,0,0,1-14.407-14.038Zm7.66.256v2.687h2.071v1.466H-6.747v6.889a1.54,1.54,0,0,0,.277,1,1.165,1.165,0,0,0,.943.334,4.593,4.593,0,0,0,.9-.123V0a5.532,5.532,0,0,1-1.456.2A2.362,2.362,0,0,1-8-.564a3.3,3.3,0,0,1-.646-2.184v-6.88h-2.02v-1.466h2.02v-2.687ZM2.143.205A4.848,4.848,0,0,1-1.528-1.277,5.5,5.5,0,0,1-2.943-5.24v-.349a6.658,6.658,0,0,1,.631-2.948,4.919,4.919,0,0,1,1.764-2.03A4.434,4.434,0,0,1,1.907-11.3,4.155,4.155,0,0,1,5.271-9.875a6.171,6.171,0,0,1,1.2,4.081V-5H-1.046A3.944,3.944,0,0,0-.087-2.353a3.014,3.014,0,0,0,2.333,1.01,3.3,3.3,0,0,0,1.7-.41A4.277,4.277,0,0,0,5.168-2.84l1.159.9A4.659,4.659,0,0,1,2.143.205ZM1.907-9.741a2.53,2.53,0,0,0-1.928.836A4.062,4.062,0,0,0-.984-6.562H4.573v-.144a3.613,3.613,0,0,0-.779-2.24A2.382,2.382,0,0,0,1.907-9.741Zm11.208,8.4a2.732,2.732,0,0,0,1.774-.615A2.164,2.164,0,0,0,15.729-3.5h1.794a3.44,3.44,0,0,1-.656,1.815A4.322,4.322,0,0,1,15.253-.308a4.66,4.66,0,0,1-2.138.513,4.57,4.57,0,0,1-3.6-1.512A6.024,6.024,0,0,1,8.172-5.445v-.318a6.679,6.679,0,0,1,.595-2.881A4.53,4.53,0,0,1,10.474-10.6a4.85,4.85,0,0,1,2.63-.7,4.45,4.45,0,0,1,3.1,1.118,3.994,3.994,0,0,1,1.318,2.9H15.729a2.614,2.614,0,0,0-.815-1.769,2.536,2.536,0,0,0-1.81-.692A2.655,2.655,0,0,0,10.864-8.7a4.888,4.888,0,0,0-.795,3.01v.359a4.79,4.79,0,0,0,.79,2.953A2.668,2.668,0,0,0,13.115-1.343ZM22.23-13.781v2.687H24.3v1.466H22.23v6.889a1.54,1.54,0,0,0,.277,1,1.165,1.165,0,0,0,.943.334,4.593,4.593,0,0,0,.9-.123V0a5.532,5.532,0,0,1-1.456.2,2.362,2.362,0,0,1-1.917-.769,3.3,3.3,0,0,1-.646-2.184v-6.88h-2.02v-1.466h2.02v-2.687ZM33.366-1.1a4.029,4.029,0,0,1-3.25,1.3,3.449,3.449,0,0,1-2.7-1.031,4.461,4.461,0,0,1-.938-3.051v-7.219h1.9v7.167q0,2.522,2.051,2.522a2.84,2.84,0,0,0,2.892-1.62v-8.07h1.9V0h-1.8Zm10.09-8.3a5.685,5.685,0,0,0-.933-.072A2.5,2.5,0,0,0,39.99-7.875V0h-1.9V-11.095h1.846l.031,1.282A2.954,2.954,0,0,1,42.615-11.3a1.938,1.938,0,0,1,.841.144ZM51.639,0a3.985,3.985,0,0,1-.267-1.169A4.233,4.233,0,0,1,48.214.205a3.916,3.916,0,0,1-2.692-.928,3,3,0,0,1-1.051-2.353,3.136,3.136,0,0,1,1.318-2.692A6.212,6.212,0,0,1,49.5-6.727h1.846V-7.6a2.131,2.131,0,0,0-.595-1.584,2.39,2.39,0,0,0-1.753-.59,2.766,2.766,0,0,0-1.7.513A1.511,1.511,0,0,0,46.6-8.019H44.7a2.618,2.618,0,0,1,.59-1.6,4.024,4.024,0,0,1,1.6-1.225,5.381,5.381,0,0,1,2.22-.451,4.386,4.386,0,0,1,3,.959A3.458,3.458,0,0,1,53.238-7.7v5.106a6.243,6.243,0,0,0,.39,2.43V0ZM48.491-1.446a3.334,3.334,0,0,0,1.692-.461,2.791,2.791,0,0,0,1.159-1.2V-5.383H49.854q-3.486,0-3.486,2.041a1.727,1.727,0,0,0,.595,1.395A2.286,2.286,0,0,0,48.491-1.446ZM-53.479,14.36a6.5,6.5,0,0,1,1.21-4.107A3.826,3.826,0,0,1-49.1,8.7a3.848,3.848,0,0,1,3.086,1.333V4.25h1.9V20h-1.743l-.092-1.189a3.863,3.863,0,0,1-3.168,1.395,3.789,3.789,0,0,1-3.143-1.579A6.573,6.573,0,0,1-53.479,14.5Zm1.9.215a4.921,4.921,0,0,0,.779,2.953A2.519,2.519,0,0,0-48.65,18.6a2.767,2.767,0,0,0,2.635-1.62v-5.1a2.789,2.789,0,0,0-2.615-1.569A2.531,2.531,0,0,0-50.8,11.387,5.418,5.418,0,0,0-51.582,14.576Zm15.012,5.629a4.848,4.848,0,0,1-3.671-1.482,5.5,5.5,0,0,1-1.415-3.963v-.349a6.658,6.658,0,0,1,.631-2.948,4.919,4.919,0,0,1,1.764-2.03A4.434,4.434,0,0,1-36.806,8.7a4.155,4.155,0,0,1,3.363,1.425,6.171,6.171,0,0,1,1.2,4.081V15H-39.76a3.944,3.944,0,0,0,.959,2.651,3.014,3.014,0,0,0,2.333,1.01,3.3,3.3,0,0,0,1.7-.41,4.277,4.277,0,0,0,1.22-1.087l1.159.9A4.659,4.659,0,0,1-36.571,20.205Zm-.236-9.946a2.53,2.53,0,0,0-1.928.836,4.062,4.062,0,0,0-.964,2.343h5.558v-.144a3.613,3.613,0,0,0-.779-2.24A2.382,2.382,0,0,0-36.806,10.259ZM-19.1,17q.154-1.148-1.261-1.62l-1.928-.564q-2.44-.841-2.358-2.789a3.072,3.072,0,0,1,1.338-2.4A4.766,4.766,0,0,1-20.328,8.7a3.973,3.973,0,0,1,2.733.979,3.1,3.1,0,0,1,1.01,2.5l-1.846-.01a1.731,1.731,0,0,0-.523-1.354,2.069,2.069,0,0,0-1.446-.543,2.7,2.7,0,0,0-1.661.472,1.727,1.727,0,0,0-.749,1.21q-.133.964,1.179,1.4l.933.256a6.008,6.008,0,0,1,2.707,1.282,2.448,2.448,0,0,1,.738,1.958,3.111,3.111,0,0,1-.677,1.8,3.869,3.869,0,0,1-1.641,1.174,5.487,5.487,0,0,1-2.184.374,4.328,4.328,0,0,1-2.912-1.031,3.186,3.186,0,0,1-1.107-2.6l1.856.01a1.967,1.967,0,0,0,.595,1.5,2.273,2.273,0,0,0,1.63.564,3.2,3.2,0,0,0,1.753-.426A1.637,1.637,0,0,0-19.1,17Zm9.9-8.3a4,4,0,0,1,2.389.759,4.312,4.312,0,0,1,1.471,2.035,6.3,6.3,0,0,1,.323,2.835l-.021.226A7.462,7.462,0,0,1-6,17.483a5.656,5.656,0,0,1-1.989,2.035,4.851,4.851,0,0,1-2.676.687,4.006,4.006,0,0,1-2.384-.759,4.213,4.213,0,0,1-1.461-2.01,6.472,6.472,0,0,1-.328-2.8,7.56,7.56,0,0,1,.933-3.1,5.787,5.787,0,0,1,2-2.128A4.794,4.794,0,0,1-9.2,8.7Zm-3.773,5.947a6.3,6.3,0,0,0,0,1.343,3.291,3.291,0,0,0,.723,1.928,2.17,2.17,0,0,0,1.656.749,2.957,2.957,0,0,0,1.7-.456,3.831,3.831,0,0,0,1.313-1.471A6.2,6.2,0,0,0-6.9,14.555a9.836,9.836,0,0,0,.031-1.589,3.415,3.415,0,0,0-.749-1.958,2.219,2.219,0,0,0-1.661-.759,3.024,3.024,0,0,0-2.44,1.128,5.572,5.572,0,0,0-1.241,3.035ZM-2.743,20l1.682-9.628H-2.774l.256-1.466h1.7l.185-1.312A4.355,4.355,0,0,1,.661,4.978a3.841,3.841,0,0,1,2.748-.964,6.411,6.411,0,0,1,1.323.175L4.507,5.747a6.085,6.085,0,0,0-.995-.123,2.119,2.119,0,0,0-1.564.6A2.721,2.721,0,0,0,1.2,7.811L1.041,8.905h2.3l-.256,1.466H.784L-.887,20ZM8.434,6.219,7.962,8.905h2.02l-.256,1.466H7.716l-1.159,6.9a2.406,2.406,0,0,0-.01.492.782.782,0,0,0,.872.8,5.316,5.316,0,0,0,.9-.1L8.177,20.01a5.049,5.049,0,0,1-1.354.185,1.938,1.938,0,0,1-1.661-.815,3.153,3.153,0,0,1-.431-2.138l1.128-6.87H3.9l.256-1.466H6.116l.472-2.687ZM20.246,17.375l3.538-8.47H25.7L20.646,20H19.139L17.99,11.612l-4,8.388H12.484l-1.2-11.095h1.774l.677,8.265,3.938-8.265h1.5ZM32.49,20a2.485,2.485,0,0,1-.072-.584l.031-.584a4.548,4.548,0,0,1-3.24,1.374,3.315,3.315,0,0,1-2.384-.928,2.809,2.809,0,0,1-.836-2.271,3.415,3.415,0,0,1,1.543-2.753,6.57,6.57,0,0,1,3.789-.99l1.938.01.123-.882A2.027,2.027,0,0,0,33,10.818a1.856,1.856,0,0,0-1.461-.6,2.862,2.862,0,0,0-1.687.467,1.986,1.986,0,0,0-.9,1.287l-1.866.01a2.975,2.975,0,0,1,.759-1.728,4.414,4.414,0,0,1,1.712-1.169A5.532,5.532,0,0,1,31.72,8.69a3.678,3.678,0,0,1,2.7,1.051,3.26,3.26,0,0,1,.81,2.681l-.9,5.5-.051.79a3.87,3.87,0,0,0,.123,1.118L34.376,20Zm-2.912-1.436a3.237,3.237,0,0,0,1.687-.426A4.271,4.271,0,0,0,32.633,16.9l.4-2.287-1.4-.01a5.321,5.321,0,0,0-2.687.554,2.039,2.039,0,0,0-1.056,1.569,1.588,1.588,0,0,0,.364,1.3A1.734,1.734,0,0,0,29.577,18.564ZM43.789,10.6l-.872-.092a3.176,3.176,0,0,0-2.81,1.61L38.744,20H36.888L38.816,8.905l1.794-.01-.277,1.292A3.317,3.317,0,0,1,43.113,8.68a3.4,3.4,0,0,1,.882.154Zm4.891,9.608a4,4,0,0,1-3.24-1.528,5.258,5.258,0,0,1-.984-3.8l.051-.441a7.382,7.382,0,0,1,.979-3.015A5.7,5.7,0,0,1,47.45,9.362a4.582,4.582,0,0,1,2.5-.661,3.528,3.528,0,0,1,2.687,1.138A4.681,4.681,0,0,1,53.7,12.812a8.69,8.69,0,0,1-.041,1.333L53.551,15H46.3a3.748,3.748,0,0,0,.5,2.563,2.356,2.356,0,0,0,2.035,1.1,3.947,3.947,0,0,0,3.035-1.477l1.066.9a4.88,4.88,0,0,1-1.8,1.574A5.1,5.1,0,0,1,48.68,20.205Zm1.179-9.957a2.711,2.711,0,0,0-2,.779,5.539,5.539,0,0,0-1.359,2.41l5.394.01.041-.164a3.035,3.035,0,0,0-.415-2.148A1.953,1.953,0,0,0,49.86,10.249Z" transform="translate(568 1590.342)" fill="#3a1d71"/>
    <path id="Trazado_873609" data-name="Trazado 873609" d="M-56.068-4.737a5.493,5.493,0,0,1-1.748,3.656A5.73,5.73,0,0,1-61.729.205a5.261,5.261,0,0,1-4.24-1.9,7.632,7.632,0,0,1-1.594-5.076V-8.2a8.506,8.506,0,0,1,.743-3.661,5.553,5.553,0,0,1,2.107-2.425,5.867,5.867,0,0,1,3.158-.846,5.4,5.4,0,0,1,3.814,1.328,5.559,5.559,0,0,1,1.671,3.676h-1.979a4.29,4.29,0,0,0-1.113-2.592,3.366,3.366,0,0,0-2.394-.8,3.522,3.522,0,0,0-2.958,1.4,6.407,6.407,0,0,0-1.072,3.972v1.447a6.586,6.586,0,0,0,1.015,3.869A3.28,3.28,0,0,0-61.729-1.4a3.789,3.789,0,0,0,2.517-.743,4.125,4.125,0,0,0,1.164-2.589Zm1.887-.913a6.553,6.553,0,0,1,.641-2.933,4.781,4.781,0,0,1,1.784-2.01,4.857,4.857,0,0,1,2.61-.708,4.679,4.679,0,0,1,3.666,1.569,6.036,6.036,0,0,1,1.4,4.173v.133a6.61,6.61,0,0,1-.62,2.907,4.71,4.71,0,0,1-1.774,2,4.913,4.913,0,0,1-2.651.718,4.667,4.667,0,0,1-3.656-1.569,6.005,6.005,0,0,1-1.4-4.153Zm1.907.226a4.746,4.746,0,0,0,.856,2.963,2.74,2.74,0,0,0,2.292,1.118,2.724,2.724,0,0,0,2.3-1.133,5.19,5.19,0,0,0,.851-3.174,4.738,4.738,0,0,0-.866-2.958,2.755,2.755,0,0,0-2.3-1.133,2.724,2.724,0,0,0-2.266,1.118A5.152,5.152,0,0,0-52.274-5.424Zm12.356-5.67.051,1.23A4.1,4.1,0,0,1-36.576-11.3a3.172,3.172,0,0,1,3.168,1.784,4.2,4.2,0,0,1,1.441-1.292,4.255,4.255,0,0,1,2.1-.492q3.65,0,3.712,3.866V0h-1.9V-7.321A2.548,2.548,0,0,0-28.6-9.1a2.393,2.393,0,0,0-1.825-.59,2.515,2.515,0,0,0-1.753.631,2.558,2.558,0,0,0-.81,1.7V0h-1.907V-7.27a2.117,2.117,0,0,0-2.369-2.42A2.538,2.538,0,0,0-39.816-8.1V0h-1.9V-11.095Zm25.994,5.67a6.643,6.643,0,0,1-1.159,4.081A3.714,3.714,0,0,1-18.221.205,4.069,4.069,0,0,1-21.4-1.077V4.266h-1.9v-15.36h1.733l.092,1.23a3.908,3.908,0,0,1,3.22-1.436,3.783,3.783,0,0,1,3.163,1.507A6.716,6.716,0,0,1-13.925-5.6Zm-1.9-.215a4.9,4.9,0,0,0-.8-2.963A2.576,2.576,0,0,0-18.816-9.69,2.789,2.789,0,0,0-21.4-8.162v5.3a2.794,2.794,0,0,0,2.6,1.518,2.564,2.564,0,0,0,2.169-1.082A5.351,5.351,0,0,0-15.822-5.64Zm9.669-3.753a5.685,5.685,0,0,0-.933-.072A2.5,2.5,0,0,0-9.618-7.875V0h-1.9V-11.095h1.846l.031,1.282A2.954,2.954,0,0,1-6.993-11.3a1.938,1.938,0,0,1,.841.144ZM-5.117-5.65a6.553,6.553,0,0,1,.641-2.933,4.781,4.781,0,0,1,1.784-2.01A4.857,4.857,0,0,1-.082-11.3,4.679,4.679,0,0,1,3.584-9.731a6.036,6.036,0,0,1,1.4,4.173v.133a6.61,6.61,0,0,1-.62,2.907,4.71,4.71,0,0,1-1.774,2A4.913,4.913,0,0,1-.062.205,4.667,4.667,0,0,1-3.717-1.364a6.005,6.005,0,0,1-1.4-4.153Zm1.907.226a4.746,4.746,0,0,0,.856,2.963A2.74,2.74,0,0,0-.062-1.343a2.724,2.724,0,0,0,2.3-1.133A5.19,5.19,0,0,0,3.086-5.65,4.738,4.738,0,0,0,2.22-8.608a2.755,2.755,0,0,0-2.3-1.133A2.724,2.724,0,0,0-2.348-8.624,5.152,5.152,0,0,0-3.209-5.424Zm19.964,0a6.6,6.6,0,0,1-1.169,4.086A3.735,3.735,0,0,1,12.448.205,3.868,3.868,0,0,1,9.2-1.282L9.105,0H7.362V-15.75h1.9v5.875A3.846,3.846,0,0,1,12.428-11.3,3.758,3.758,0,0,1,15.6-9.772a6.8,6.8,0,0,1,1.154,4.184Zm-1.9-.215a5.126,5.126,0,0,0-.749-2.994A2.478,2.478,0,0,0,11.956-9.69a2.785,2.785,0,0,0-2.7,1.743v4.8A2.863,2.863,0,0,0,11.977-1.4,2.464,2.464,0,0,0,14.1-2.461,5.451,5.451,0,0,0,14.858-5.64ZM25.994,0a3.985,3.985,0,0,1-.267-1.169A4.233,4.233,0,0,1,22.569.205a3.916,3.916,0,0,1-2.692-.928,3,3,0,0,1-1.051-2.353,3.136,3.136,0,0,1,1.318-2.692,6.212,6.212,0,0,1,3.707-.959H25.7V-7.6A2.131,2.131,0,0,0,25.1-9.182a2.39,2.39,0,0,0-1.753-.59,2.766,2.766,0,0,0-1.7.513,1.511,1.511,0,0,0-.687,1.241H19.052a2.618,2.618,0,0,1,.59-1.6,4.024,4.024,0,0,1,1.6-1.225,5.381,5.381,0,0,1,2.22-.451,4.386,4.386,0,0,1,3,.959A3.458,3.458,0,0,1,27.593-7.7v5.106a6.243,6.243,0,0,0,.39,2.43V0ZM22.846-1.446a3.334,3.334,0,0,0,1.692-.461,2.791,2.791,0,0,0,1.159-1.2V-5.383H24.209q-3.486,0-3.486,2.041a1.727,1.727,0,0,0,.595,1.395A2.286,2.286,0,0,0,22.846-1.446Zm12.171.1a2.732,2.732,0,0,0,1.774-.615A2.164,2.164,0,0,0,37.632-3.5h1.794a3.44,3.44,0,0,1-.656,1.815A4.322,4.322,0,0,1,37.155-.308a4.66,4.66,0,0,1-2.138.513,4.57,4.57,0,0,1-3.6-1.512,6.024,6.024,0,0,1-1.338-4.137v-.318a6.679,6.679,0,0,1,.595-2.881A4.53,4.53,0,0,1,32.377-10.6a4.85,4.85,0,0,1,2.63-.7,4.45,4.45,0,0,1,3.1,1.118,3.994,3.994,0,0,1,1.318,2.9H37.632a2.614,2.614,0,0,0-.815-1.769,2.536,2.536,0,0,0-1.81-.692A2.655,2.655,0,0,0,32.766-8.7a4.888,4.888,0,0,0-.795,3.01v.359a4.79,4.79,0,0,0,.79,2.953A2.668,2.668,0,0,0,35.017-1.343ZM43.62,0h-1.9V-11.095h1.9ZM41.569-14.038a1.132,1.132,0,0,1,.282-.779,1.059,1.059,0,0,1,.836-.318,1.075,1.075,0,0,1,.841.318,1.12,1.12,0,0,1,.287.779,1.084,1.084,0,0,1-.287.769,1.1,1.1,0,0,1-.841.308,1.078,1.078,0,0,1-.836-.308A1.1,1.1,0,0,1,41.569-14.038ZM46.153-5.65a6.553,6.553,0,0,1,.641-2.933,4.781,4.781,0,0,1,1.784-2.01,4.857,4.857,0,0,1,2.61-.708,4.679,4.679,0,0,1,3.666,1.569,6.036,6.036,0,0,1,1.4,4.173v.133a6.61,6.61,0,0,1-.62,2.907,4.71,4.71,0,0,1-1.774,2,4.913,4.913,0,0,1-2.651.718,4.667,4.667,0,0,1-3.656-1.569,6.005,6.005,0,0,1-1.4-4.153Zm1.907.226a4.746,4.746,0,0,0,.856,2.963,2.74,2.74,0,0,0,2.292,1.118,2.724,2.724,0,0,0,2.3-1.133,5.19,5.19,0,0,0,.851-3.174,4.738,4.738,0,0,0-.866-2.958,2.755,2.755,0,0,0-2.3-1.133,2.724,2.724,0,0,0-2.266,1.118A5.152,5.152,0,0,0,48.06-5.424Zm3.989-10.305h2.3L51.6-12.715,50.07-12.72Zm8.377,4.635L60.488-9.7a4.043,4.043,0,0,1,3.322-1.6q3.517,0,3.548,3.968V0h-1.9V-7.342a2.554,2.554,0,0,0-.549-1.774,2.2,2.2,0,0,0-1.677-.574,2.738,2.738,0,0,0-1.62.492,3.342,3.342,0,0,0-1.087,1.292V0h-1.9V-11.095Z" transform="translate(873.365 1460.658)" fill="#8722e2"/>
    <path id="Trazado_873611" data-name="Trazado 873611" d="M-56.068-4.737a5.493,5.493,0,0,1-1.748,3.656A5.73,5.73,0,0,1-61.729.205a5.261,5.261,0,0,1-4.24-1.9,7.632,7.632,0,0,1-1.594-5.076V-8.2a8.506,8.506,0,0,1,.743-3.661,5.553,5.553,0,0,1,2.107-2.425,5.867,5.867,0,0,1,3.158-.846,5.4,5.4,0,0,1,3.814,1.328,5.559,5.559,0,0,1,1.671,3.676h-1.979a4.29,4.29,0,0,0-1.113-2.592,3.366,3.366,0,0,0-2.394-.8,3.522,3.522,0,0,0-2.958,1.4,6.407,6.407,0,0,0-1.072,3.972v1.447a6.586,6.586,0,0,0,1.015,3.869A3.28,3.28,0,0,0-61.729-1.4a3.789,3.789,0,0,0,2.517-.743,4.125,4.125,0,0,0,1.164-2.589Zm1.887-.913a6.553,6.553,0,0,1,.641-2.933,4.781,4.781,0,0,1,1.784-2.01,4.857,4.857,0,0,1,2.61-.708,4.679,4.679,0,0,1,3.666,1.569,6.036,6.036,0,0,1,1.4,4.173v.133a6.61,6.61,0,0,1-.62,2.907,4.71,4.71,0,0,1-1.774,2,4.913,4.913,0,0,1-2.651.718,4.667,4.667,0,0,1-3.656-1.569,6.005,6.005,0,0,1-1.4-4.153Zm1.907.226a4.746,4.746,0,0,0,.856,2.963,2.74,2.74,0,0,0,2.292,1.118,2.724,2.724,0,0,0,2.3-1.133,5.19,5.19,0,0,0,.851-3.174,4.738,4.738,0,0,0-.866-2.958,2.755,2.755,0,0,0-2.3-1.133,2.724,2.724,0,0,0-2.266,1.118A5.152,5.152,0,0,0-52.274-5.424Zm12.356-5.67.051,1.23A4.1,4.1,0,0,1-36.576-11.3a3.172,3.172,0,0,1,3.168,1.784,4.2,4.2,0,0,1,1.441-1.292,4.255,4.255,0,0,1,2.1-.492q3.65,0,3.712,3.866V0h-1.9V-7.321A2.548,2.548,0,0,0-28.6-9.1a2.393,2.393,0,0,0-1.825-.59,2.515,2.515,0,0,0-1.753.631,2.558,2.558,0,0,0-.81,1.7V0h-1.907V-7.27a2.117,2.117,0,0,0-2.369-2.42A2.538,2.538,0,0,0-39.816-8.1V0h-1.9V-11.095Zm25.994,5.67a6.643,6.643,0,0,1-1.159,4.081A3.714,3.714,0,0,1-18.221.205,4.069,4.069,0,0,1-21.4-1.077V4.266h-1.9v-15.36h1.733l.092,1.23a3.908,3.908,0,0,1,3.22-1.436,3.783,3.783,0,0,1,3.163,1.507A6.716,6.716,0,0,1-13.925-5.6Zm-1.9-.215a4.9,4.9,0,0,0-.8-2.963A2.576,2.576,0,0,0-18.816-9.69,2.789,2.789,0,0,0-21.4-8.162v5.3a2.794,2.794,0,0,0,2.6,1.518,2.564,2.564,0,0,0,2.169-1.082A5.351,5.351,0,0,0-15.822-5.64Zm9.669-3.753a5.685,5.685,0,0,0-.933-.072A2.5,2.5,0,0,0-9.618-7.875V0h-1.9V-11.095h1.846l.031,1.282A2.954,2.954,0,0,1-6.993-11.3a1.938,1.938,0,0,1,.841.144ZM-5.117-5.65a6.553,6.553,0,0,1,.641-2.933,4.781,4.781,0,0,1,1.784-2.01A4.857,4.857,0,0,1-.082-11.3,4.679,4.679,0,0,1,3.584-9.731a6.036,6.036,0,0,1,1.4,4.173v.133a6.61,6.61,0,0,1-.62,2.907,4.71,4.71,0,0,1-1.774,2A4.913,4.913,0,0,1-.062.205,4.667,4.667,0,0,1-3.717-1.364a6.005,6.005,0,0,1-1.4-4.153Zm1.907.226a4.746,4.746,0,0,0,.856,2.963A2.74,2.74,0,0,0-.062-1.343a2.724,2.724,0,0,0,2.3-1.133A5.19,5.19,0,0,0,3.086-5.65,4.738,4.738,0,0,0,2.22-8.608a2.755,2.755,0,0,0-2.3-1.133A2.724,2.724,0,0,0-2.348-8.624,5.152,5.152,0,0,0-3.209-5.424Zm19.964,0a6.6,6.6,0,0,1-1.169,4.086A3.735,3.735,0,0,1,12.448.205,3.868,3.868,0,0,1,9.2-1.282L9.105,0H7.362V-15.75h1.9v5.875A3.846,3.846,0,0,1,12.428-11.3,3.758,3.758,0,0,1,15.6-9.772a6.8,6.8,0,0,1,1.154,4.184Zm-1.9-.215a5.126,5.126,0,0,0-.749-2.994A2.478,2.478,0,0,0,11.956-9.69a2.785,2.785,0,0,0-2.7,1.743v4.8A2.863,2.863,0,0,0,11.977-1.4,2.464,2.464,0,0,0,14.1-2.461,5.451,5.451,0,0,0,14.858-5.64ZM25.994,0a3.985,3.985,0,0,1-.267-1.169A4.233,4.233,0,0,1,22.569.205a3.916,3.916,0,0,1-2.692-.928,3,3,0,0,1-1.051-2.353,3.136,3.136,0,0,1,1.318-2.692,6.212,6.212,0,0,1,3.707-.959H25.7V-7.6A2.131,2.131,0,0,0,25.1-9.182a2.39,2.39,0,0,0-1.753-.59,2.766,2.766,0,0,0-1.7.513,1.511,1.511,0,0,0-.687,1.241H19.052a2.618,2.618,0,0,1,.59-1.6,4.024,4.024,0,0,1,1.6-1.225,5.381,5.381,0,0,1,2.22-.451,4.386,4.386,0,0,1,3,.959A3.458,3.458,0,0,1,27.593-7.7v5.106a6.243,6.243,0,0,0,.39,2.43V0ZM22.846-1.446a3.334,3.334,0,0,0,1.692-.461,2.791,2.791,0,0,0,1.159-1.2V-5.383H24.209q-3.486,0-3.486,2.041a1.727,1.727,0,0,0,.595,1.395A2.286,2.286,0,0,0,22.846-1.446Zm12.171.1a2.732,2.732,0,0,0,1.774-.615A2.164,2.164,0,0,0,37.632-3.5h1.794a3.44,3.44,0,0,1-.656,1.815A4.322,4.322,0,0,1,37.155-.308a4.66,4.66,0,0,1-2.138.513,4.57,4.57,0,0,1-3.6-1.512,6.024,6.024,0,0,1-1.338-4.137v-.318a6.679,6.679,0,0,1,.595-2.881A4.53,4.53,0,0,1,32.377-10.6a4.85,4.85,0,0,1,2.63-.7,4.45,4.45,0,0,1,3.1,1.118,3.994,3.994,0,0,1,1.318,2.9H37.632a2.614,2.614,0,0,0-.815-1.769,2.536,2.536,0,0,0-1.81-.692A2.655,2.655,0,0,0,32.766-8.7a4.888,4.888,0,0,0-.795,3.01v.359a4.79,4.79,0,0,0,.79,2.953A2.668,2.668,0,0,0,35.017-1.343ZM43.62,0h-1.9V-11.095h1.9ZM41.569-14.038a1.132,1.132,0,0,1,.282-.779,1.059,1.059,0,0,1,.836-.318,1.075,1.075,0,0,1,.841.318,1.12,1.12,0,0,1,.287.779,1.084,1.084,0,0,1-.287.769,1.1,1.1,0,0,1-.841.308,1.078,1.078,0,0,1-.836-.308A1.1,1.1,0,0,1,41.569-14.038ZM46.153-5.65a6.553,6.553,0,0,1,.641-2.933,4.781,4.781,0,0,1,1.784-2.01,4.857,4.857,0,0,1,2.61-.708,4.679,4.679,0,0,1,3.666,1.569,6.036,6.036,0,0,1,1.4,4.173v.133a6.61,6.61,0,0,1-.62,2.907,4.71,4.71,0,0,1-1.774,2,4.913,4.913,0,0,1-2.651.718,4.667,4.667,0,0,1-3.656-1.569,6.005,6.005,0,0,1-1.4-4.153Zm1.907.226a4.746,4.746,0,0,0,.856,2.963,2.74,2.74,0,0,0,2.292,1.118,2.724,2.724,0,0,0,2.3-1.133,5.19,5.19,0,0,0,.851-3.174,4.738,4.738,0,0,0-.866-2.958,2.755,2.755,0,0,0-2.3-1.133,2.724,2.724,0,0,0-2.266,1.118A5.152,5.152,0,0,0,48.06-5.424Zm3.989-10.305h2.3L51.6-12.715,50.07-12.72Zm8.377,4.635L60.488-9.7a4.043,4.043,0,0,1,3.322-1.6q3.517,0,3.548,3.968V0h-1.9V-7.342a2.554,2.554,0,0,0-.549-1.774,2.2,2.2,0,0,0-1.677-.574,2.738,2.738,0,0,0-1.62.492,3.342,3.342,0,0,0-1.087,1.292V0h-1.9V-11.095Z" transform="translate(993.721 1547)" fill="#8722e2"/>
    <path id="Trazado_873612" data-name="Trazado 873612" d="M-56.068-4.737a5.493,5.493,0,0,1-1.748,3.656A5.73,5.73,0,0,1-61.729.205a5.261,5.261,0,0,1-4.24-1.9,7.632,7.632,0,0,1-1.594-5.076V-8.2a8.506,8.506,0,0,1,.743-3.661,5.553,5.553,0,0,1,2.107-2.425,5.867,5.867,0,0,1,3.158-.846,5.4,5.4,0,0,1,3.814,1.328,5.559,5.559,0,0,1,1.671,3.676h-1.979a4.29,4.29,0,0,0-1.113-2.592,3.366,3.366,0,0,0-2.394-.8,3.522,3.522,0,0,0-2.958,1.4,6.407,6.407,0,0,0-1.072,3.972v1.447a6.586,6.586,0,0,0,1.015,3.869A3.28,3.28,0,0,0-61.729-1.4a3.789,3.789,0,0,0,2.517-.743,4.125,4.125,0,0,0,1.164-2.589Zm1.887-.913a6.553,6.553,0,0,1,.641-2.933,4.781,4.781,0,0,1,1.784-2.01,4.857,4.857,0,0,1,2.61-.708,4.679,4.679,0,0,1,3.666,1.569,6.036,6.036,0,0,1,1.4,4.173v.133a6.61,6.61,0,0,1-.62,2.907,4.71,4.71,0,0,1-1.774,2,4.913,4.913,0,0,1-2.651.718,4.667,4.667,0,0,1-3.656-1.569,6.005,6.005,0,0,1-1.4-4.153Zm1.907.226a4.746,4.746,0,0,0,.856,2.963,2.74,2.74,0,0,0,2.292,1.118,2.724,2.724,0,0,0,2.3-1.133,5.19,5.19,0,0,0,.851-3.174,4.738,4.738,0,0,0-.866-2.958,2.755,2.755,0,0,0-2.3-1.133,2.724,2.724,0,0,0-2.266,1.118A5.152,5.152,0,0,0-52.274-5.424Zm12.356-5.67.051,1.23A4.1,4.1,0,0,1-36.576-11.3a3.172,3.172,0,0,1,3.168,1.784,4.2,4.2,0,0,1,1.441-1.292,4.255,4.255,0,0,1,2.1-.492q3.65,0,3.712,3.866V0h-1.9V-7.321A2.548,2.548,0,0,0-28.6-9.1a2.393,2.393,0,0,0-1.825-.59,2.515,2.515,0,0,0-1.753.631,2.558,2.558,0,0,0-.81,1.7V0h-1.907V-7.27a2.117,2.117,0,0,0-2.369-2.42A2.538,2.538,0,0,0-39.816-8.1V0h-1.9V-11.095Zm25.994,5.67a6.643,6.643,0,0,1-1.159,4.081A3.714,3.714,0,0,1-18.221.205,4.069,4.069,0,0,1-21.4-1.077V4.266h-1.9v-15.36h1.733l.092,1.23a3.908,3.908,0,0,1,3.22-1.436,3.783,3.783,0,0,1,3.163,1.507A6.716,6.716,0,0,1-13.925-5.6Zm-1.9-.215a4.9,4.9,0,0,0-.8-2.963A2.576,2.576,0,0,0-18.816-9.69,2.789,2.789,0,0,0-21.4-8.162v5.3a2.794,2.794,0,0,0,2.6,1.518,2.564,2.564,0,0,0,2.169-1.082A5.351,5.351,0,0,0-15.822-5.64Zm9.669-3.753a5.685,5.685,0,0,0-.933-.072A2.5,2.5,0,0,0-9.618-7.875V0h-1.9V-11.095h1.846l.031,1.282A2.954,2.954,0,0,1-6.993-11.3a1.938,1.938,0,0,1,.841.144ZM-5.117-5.65a6.553,6.553,0,0,1,.641-2.933,4.781,4.781,0,0,1,1.784-2.01A4.857,4.857,0,0,1-.082-11.3,4.679,4.679,0,0,1,3.584-9.731a6.036,6.036,0,0,1,1.4,4.173v.133a6.61,6.61,0,0,1-.62,2.907,4.71,4.71,0,0,1-1.774,2A4.913,4.913,0,0,1-.062.205,4.667,4.667,0,0,1-3.717-1.364a6.005,6.005,0,0,1-1.4-4.153Zm1.907.226a4.746,4.746,0,0,0,.856,2.963A2.74,2.74,0,0,0-.062-1.343a2.724,2.724,0,0,0,2.3-1.133A5.19,5.19,0,0,0,3.086-5.65,4.738,4.738,0,0,0,2.22-8.608a2.755,2.755,0,0,0-2.3-1.133A2.724,2.724,0,0,0-2.348-8.624,5.152,5.152,0,0,0-3.209-5.424Zm19.964,0a6.6,6.6,0,0,1-1.169,4.086A3.735,3.735,0,0,1,12.448.205,3.868,3.868,0,0,1,9.2-1.282L9.105,0H7.362V-15.75h1.9v5.875A3.846,3.846,0,0,1,12.428-11.3,3.758,3.758,0,0,1,15.6-9.772a6.8,6.8,0,0,1,1.154,4.184Zm-1.9-.215a5.126,5.126,0,0,0-.749-2.994A2.478,2.478,0,0,0,11.956-9.69a2.785,2.785,0,0,0-2.7,1.743v4.8A2.863,2.863,0,0,0,11.977-1.4,2.464,2.464,0,0,0,14.1-2.461,5.451,5.451,0,0,0,14.858-5.64ZM25.994,0a3.985,3.985,0,0,1-.267-1.169A4.233,4.233,0,0,1,22.569.205a3.916,3.916,0,0,1-2.692-.928,3,3,0,0,1-1.051-2.353,3.136,3.136,0,0,1,1.318-2.692,6.212,6.212,0,0,1,3.707-.959H25.7V-7.6A2.131,2.131,0,0,0,25.1-9.182a2.39,2.39,0,0,0-1.753-.59,2.766,2.766,0,0,0-1.7.513,1.511,1.511,0,0,0-.687,1.241H19.052a2.618,2.618,0,0,1,.59-1.6,4.024,4.024,0,0,1,1.6-1.225,5.381,5.381,0,0,1,2.22-.451,4.386,4.386,0,0,1,3,.959A3.458,3.458,0,0,1,27.593-7.7v5.106a6.243,6.243,0,0,0,.39,2.43V0ZM22.846-1.446a3.334,3.334,0,0,0,1.692-.461,2.791,2.791,0,0,0,1.159-1.2V-5.383H24.209q-3.486,0-3.486,2.041a1.727,1.727,0,0,0,.595,1.395A2.286,2.286,0,0,0,22.846-1.446Zm12.171.1a2.732,2.732,0,0,0,1.774-.615A2.164,2.164,0,0,0,37.632-3.5h1.794a3.44,3.44,0,0,1-.656,1.815A4.322,4.322,0,0,1,37.155-.308a4.66,4.66,0,0,1-2.138.513,4.57,4.57,0,0,1-3.6-1.512,6.024,6.024,0,0,1-1.338-4.137v-.318a6.679,6.679,0,0,1,.595-2.881A4.53,4.53,0,0,1,32.377-10.6a4.85,4.85,0,0,1,2.63-.7,4.45,4.45,0,0,1,3.1,1.118,3.994,3.994,0,0,1,1.318,2.9H37.632a2.614,2.614,0,0,0-.815-1.769,2.536,2.536,0,0,0-1.81-.692A2.655,2.655,0,0,0,32.766-8.7a4.888,4.888,0,0,0-.795,3.01v.359a4.79,4.79,0,0,0,.79,2.953A2.668,2.668,0,0,0,35.017-1.343ZM43.62,0h-1.9V-11.095h1.9ZM41.569-14.038a1.132,1.132,0,0,1,.282-.779,1.059,1.059,0,0,1,.836-.318,1.075,1.075,0,0,1,.841.318,1.12,1.12,0,0,1,.287.779,1.084,1.084,0,0,1-.287.769,1.1,1.1,0,0,1-.841.308,1.078,1.078,0,0,1-.836-.308A1.1,1.1,0,0,1,41.569-14.038ZM46.153-5.65a6.553,6.553,0,0,1,.641-2.933,4.781,4.781,0,0,1,1.784-2.01,4.857,4.857,0,0,1,2.61-.708,4.679,4.679,0,0,1,3.666,1.569,6.036,6.036,0,0,1,1.4,4.173v.133a6.61,6.61,0,0,1-.62,2.907,4.71,4.71,0,0,1-1.774,2,4.913,4.913,0,0,1-2.651.718,4.667,4.667,0,0,1-3.656-1.569,6.005,6.005,0,0,1-1.4-4.153Zm1.907.226a4.746,4.746,0,0,0,.856,2.963,2.74,2.74,0,0,0,2.292,1.118,2.724,2.724,0,0,0,2.3-1.133,5.19,5.19,0,0,0,.851-3.174,4.738,4.738,0,0,0-.866-2.958,2.755,2.755,0,0,0-2.3-1.133,2.724,2.724,0,0,0-2.266,1.118A5.152,5.152,0,0,0,48.06-5.424Zm3.989-10.305h2.3L51.6-12.715,50.07-12.72Zm8.377,4.635L60.488-9.7a4.043,4.043,0,0,1,3.322-1.6q3.517,0,3.548,3.968V0h-1.9V-7.342a2.554,2.554,0,0,0-.549-1.774,2.2,2.2,0,0,0-1.677-.574,2.738,2.738,0,0,0-1.62.492,3.342,3.342,0,0,0-1.087,1.292V0h-1.9V-11.095Z" transform="translate(1125.139 1645.671)" fill="#8722e2"/>
    <path id="Trazado_873614" data-name="Trazado 873614" d="M-32.172-3.845q.226-1.641-1.7-2.4l-1.774-.646-.595-.256q-2.994-1.364-2.8-3.835a4.011,4.011,0,0,1,.851-2.194,4.843,4.843,0,0,1,1.984-1.471,6.365,6.365,0,0,1,2.63-.487,5.25,5.25,0,0,1,2.415.6,3.888,3.888,0,0,1,1.615,1.6,4.374,4.374,0,0,1,.492,2.323l-1.938-.01a2.674,2.674,0,0,0-.615-2.135,2.755,2.755,0,0,0-2.051-.777,3.82,3.82,0,0,0-2.348.658,2.566,2.566,0,0,0-1.087,1.849Q-37.3-9.487-35.217-8.7l1.528.544.769.328q2.892,1.333,2.676,3.958a3.954,3.954,0,0,1-.851,2.179,4.759,4.759,0,0,1-2,1.42,6.911,6.911,0,0,1-2.722.472,5.7,5.7,0,0,1-2.569-.6A4.191,4.191,0,0,1-40.159-2.01a4.04,4.04,0,0,1-.533-2.328l1.928.01a2.54,2.54,0,0,0,.723,2.117,3.254,3.254,0,0,0,2.3.8,4.11,4.11,0,0,0,2.451-.646A2.515,2.515,0,0,0-32.172-3.845Zm9.68-7.455a4,4,0,0,1,2.389.759,4.312,4.312,0,0,1,1.471,2.035,6.3,6.3,0,0,1,.323,2.835l-.021.226a7.462,7.462,0,0,1-.964,2.927A5.656,5.656,0,0,1-21.282-.482a4.851,4.851,0,0,1-2.676.687,4.006,4.006,0,0,1-2.384-.759A4.213,4.213,0,0,1-27.8-2.563a6.472,6.472,0,0,1-.328-2.8,7.56,7.56,0,0,1,.933-3.1,5.787,5.787,0,0,1,2-2.128A4.794,4.794,0,0,1-22.492-11.3Zm-3.773,5.947a6.3,6.3,0,0,0,0,1.343,3.291,3.291,0,0,0,.723,1.928,2.17,2.17,0,0,0,1.656.749,2.957,2.957,0,0,0,1.7-.456,3.831,3.831,0,0,0,1.313-1.471,6.2,6.2,0,0,0,.687-2.184,9.836,9.836,0,0,0,.031-1.589A3.415,3.415,0,0,0-20.9-8.993a2.219,2.219,0,0,0-1.661-.759A3.024,3.024,0,0,0-25-8.624a5.572,5.572,0,0,0-1.241,3.035ZM-16.032,0l1.682-9.628h-1.712l.256-1.466h1.7l.185-1.312a4.355,4.355,0,0,1,1.292-2.615,3.841,3.841,0,0,1,2.748-.964,6.411,6.411,0,0,1,1.323.175l-.226,1.557a6.085,6.085,0,0,0-.995-.123,2.119,2.119,0,0,0-1.564.6,2.721,2.721,0,0,0-.743,1.589l-.164,1.094h2.3l-.256,1.466h-2.3L-14.176,0ZM-4.855-13.781l-.472,2.687h2.02l-.256,1.466h-2.01l-1.159,6.9a2.406,2.406,0,0,0-.01.492.782.782,0,0,0,.872.8,5.316,5.316,0,0,0,.9-.1L-5.112.01A5.049,5.049,0,0,1-6.465.195,1.938,1.938,0,0,1-8.126-.62a3.153,3.153,0,0,1-.431-2.138l1.128-6.87H-9.387l.256-1.466h1.958l.472-2.687ZM6.957-2.625l3.538-8.47h1.917L7.357,0H5.85L4.7-8.388.7,0H-.8L-2-11.095H-.231L.446-2.83l3.938-8.265h1.5ZM19.2,0a2.485,2.485,0,0,1-.072-.584l.031-.584A4.548,4.548,0,0,1,15.919.205a3.315,3.315,0,0,1-2.384-.928A2.809,2.809,0,0,1,12.7-2.994a3.415,3.415,0,0,1,1.543-2.753,6.57,6.57,0,0,1,3.789-.99l1.938.01.123-.882a2.027,2.027,0,0,0-.385-1.574,1.856,1.856,0,0,0-1.461-.6,2.862,2.862,0,0,0-1.687.467,1.986,1.986,0,0,0-.9,1.287l-1.866.01a2.975,2.975,0,0,1,.759-1.728,4.414,4.414,0,0,1,1.712-1.169,5.532,5.532,0,0,1,2.164-.395,3.678,3.678,0,0,1,2.7,1.051,3.26,3.26,0,0,1,.81,2.681l-.9,5.5-.051.79a3.87,3.87,0,0,0,.123,1.118L21.087,0ZM16.288-1.436a3.237,3.237,0,0,0,1.687-.426A4.271,4.271,0,0,0,19.344-3.1l.4-2.287-1.4-.01a5.321,5.321,0,0,0-2.687.554A2.039,2.039,0,0,0,14.6-3.271a1.588,1.588,0,0,0,.364,1.3A1.734,1.734,0,0,0,16.288-1.436ZM30.5-9.4,29.629-9.5a3.176,3.176,0,0,0-2.81,1.61L25.455,0H23.6l1.928-11.095,1.794-.01-.277,1.292a3.317,3.317,0,0,1,2.779-1.507,3.4,3.4,0,0,1,.882.154ZM35.391.205a4,4,0,0,1-3.24-1.528,5.258,5.258,0,0,1-.984-3.8l.051-.441A7.382,7.382,0,0,1,32.2-8.583a5.7,5.7,0,0,1,1.964-2.056,4.582,4.582,0,0,1,2.5-.661,3.528,3.528,0,0,1,2.687,1.138,4.681,4.681,0,0,1,1.066,2.974,8.69,8.69,0,0,1-.041,1.333L40.262-5h-7.25a3.748,3.748,0,0,0,.5,2.563,2.356,2.356,0,0,0,2.035,1.1A3.947,3.947,0,0,0,38.58-2.82l1.066.9a4.88,4.88,0,0,1-1.8,1.574A5.1,5.1,0,0,1,35.391.205Zm1.179-9.957a2.711,2.711,0,0,0-2,.779,5.539,5.539,0,0,0-1.359,2.41l5.394.01.041-.164a3.035,3.035,0,0,0-.415-2.148A1.953,1.953,0,0,0,36.571-9.751Z" transform="translate(702 1686)" fill="#3a1d71"/>
    <path id="Trazado_873606" data-name="Trazado 873606" d="M-31.167,0V-14.93h4.594a6.976,6.976,0,0,1,3.522.887,6.185,6.185,0,0,1,2.425,2.522A7.78,7.78,0,0,1-19.754-7.8v.687a7.8,7.8,0,0,1-.856,3.7A6.132,6.132,0,0,1-23.025-.9a7.029,7.029,0,0,1-3.517.9Zm3.076-12.438v9.967H-26.6A3.341,3.341,0,0,0-23.845-3.65a5.329,5.329,0,0,0,.974-3.374v-.79a5.413,5.413,0,0,0-.943-3.45,3.329,3.329,0,0,0-2.758-1.174ZM-14.586,0H-17.56V-11.095h2.974Zm-3.148-13.966a1.459,1.459,0,0,1,.446-1.1,1.676,1.676,0,0,1,1.215-.431,1.679,1.679,0,0,1,1.21.431,1.451,1.451,0,0,1,.451,1.1,1.455,1.455,0,0,1-.456,1.107,1.684,1.684,0,0,1-1.2.431,1.684,1.684,0,0,1-1.2-.431A1.455,1.455,0,0,1-17.734-13.966Zm11.6,10.9a.955.955,0,0,0-.538-.856A6.115,6.115,0,0,0-8.4-4.481q-3.958-.831-3.958-3.363a3.049,3.049,0,0,1,1.225-2.466,4.943,4.943,0,0,1,3.2-.99,5.32,5.32,0,0,1,3.379.995A3.135,3.135,0,0,1-3.286-7.721H-6.25a1.434,1.434,0,0,0-.41-1.051,1.736,1.736,0,0,0-1.282-.415A1.774,1.774,0,0,0-9.1-8.849a1.068,1.068,0,0,0-.41.861.913.913,0,0,0,.467.795A4.8,4.8,0,0,0-7.47-6.67a12.856,12.856,0,0,1,1.866.5A3.066,3.066,0,0,1-3.256-3.189a2.894,2.894,0,0,1-1.3,2.456A5.618,5.618,0,0,1-7.921.205a5.867,5.867,0,0,1-2.476-.5,4.155,4.155,0,0,1-1.7-1.364,3.169,3.169,0,0,1-.615-1.871H-9.9a1.547,1.547,0,0,0,.584,1.21A2.318,2.318,0,0,0-7.86-1.9,2.146,2.146,0,0,0-6.573-2.22,1,1,0,0,0-6.137-3.066ZM3.758.205a5.447,5.447,0,0,1-3.973-1.5A5.321,5.321,0,0,1-1.748-5.281v-.287A6.7,6.7,0,0,1-1.1-8.557a4.741,4.741,0,0,1,1.83-2.03,5.137,5.137,0,0,1,2.7-.713A4.6,4.6,0,0,1,7.014-9.864,5.833,5.833,0,0,1,8.321-5.793v1.21H1.256A2.753,2.753,0,0,0,2.123-2.84a2.619,2.619,0,0,0,1.83.656A3.2,3.2,0,0,0,6.629-3.425l1.456,1.63a4.449,4.449,0,0,1-1.8,1.471A5.921,5.921,0,0,1,3.758.205ZM3.42-8.911a1.852,1.852,0,0,0-1.43.6,3.093,3.093,0,0,0-.7,1.71H5.409V-6.84A2.206,2.206,0,0,0,4.876-8.37,1.91,1.91,0,0,0,3.42-8.911Zm9.311-2.184.092,1.282A3.874,3.874,0,0,1,16.011-11.3a3.219,3.219,0,0,1,2.625,1.036,4.832,4.832,0,0,1,.882,3.1V0H16.555V-7.112a1.93,1.93,0,0,0-.41-1.372,1.833,1.833,0,0,0-1.364-.426A2.038,2.038,0,0,0,12.9-7.842V0H9.941V-11.095Zm5.886-4.522a2.87,2.87,0,0,1-.677,1.943,2.1,2.1,0,0,1-1.651.784,2.5,2.5,0,0,1-.692-.087,4.644,4.644,0,0,1-.836-.374,4.508,4.508,0,0,0-.769-.354,1.88,1.88,0,0,0-.513-.067.822.822,0,0,0-.61.256,1,1,0,0,0-.251.728l-1.723-.1a2.913,2.913,0,0,1,.672-1.938,2.072,2.072,0,0,1,1.646-.8,2.119,2.119,0,0,1,.579.077,6.38,6.38,0,0,1,.887.374,5.765,5.765,0,0,0,.851.359,1.942,1.942,0,0,0,.492.062.865.865,0,0,0,.62-.251.956.956,0,0,0,.261-.723ZM21.3-5.65a6.58,6.58,0,0,1,.636-2.943,4.654,4.654,0,0,1,1.83-2,5.34,5.34,0,0,1,2.774-.708,5.052,5.052,0,0,1,3.666,1.374,5.514,5.514,0,0,1,1.584,3.732l.021.759a5.8,5.8,0,0,1-1.425,4.1A4.954,4.954,0,0,1,26.563.205a4.979,4.979,0,0,1-3.83-1.538A5.9,5.9,0,0,1,21.3-5.517Zm2.963.21a4.147,4.147,0,0,0,.595,2.418,1.962,1.962,0,0,0,1.7.837,1.966,1.966,0,0,0,1.682-.827,4.538,4.538,0,0,0,.6-2.644,4.106,4.106,0,0,0-.6-2.4,1.967,1.967,0,0,0-1.7-.852,1.934,1.934,0,0,0-1.682.847A4.614,4.614,0,0,0,24.266-5.44Z" transform="translate(692 1534)" fill="#fff"/>
    <path id="Trazado_873610" data-name="Trazado 873610" d="M-68.4,0h-2.93V-14.219h2.93Zm5.176-10.566.088,1.182A3.713,3.713,0,0,1-60.1-10.762a2.818,2.818,0,0,1,2.8,1.611,3.628,3.628,0,0,1,3.174-1.611,3.152,3.152,0,0,1,2.559,1,4.6,4.6,0,0,1,.84,3.013V0h-2.832V-6.754a2.02,2.02,0,0,0-.352-1.316,1.556,1.556,0,0,0-1.24-.416A1.762,1.762,0,0,0-56.9-7.273L-56.895,0h-2.822V-6.744a2,2,0,0,0-.361-1.331,1.571,1.571,0,0,0-1.23-.411,1.828,1.828,0,0,0-1.738,1V0h-2.822V-10.566Zm24.18,5.381a6.337,6.337,0,0,1-1.108,3.911A3.554,3.554,0,0,1-43.145.2,3.292,3.292,0,0,1-45.732-.918v4.98h-2.822V-10.566h2.617l.1,1.035a3.317,3.317,0,0,1,2.676-1.23,3.578,3.578,0,0,1,3.037,1.445,6.509,6.509,0,0,1,1.084,3.984ZM-41.865-5.4a4.182,4.182,0,0,0-.522-2.282,1.7,1.7,0,0,0-1.519-.8,1.847,1.847,0,0,0-1.826,1.019v4.339A1.879,1.879,0,0,0-43.887-2.08Q-41.865-2.08-41.865-5.4ZM-34.316,0h-2.832V-15h2.832Zm7.188.2A5.187,5.187,0,0,1-30.913-1.23a5.068,5.068,0,0,1-1.46-3.8V-5.3a6.383,6.383,0,0,1,.615-2.847,4.515,4.515,0,0,1,1.743-1.934,4.893,4.893,0,0,1,2.573-.679,4.385,4.385,0,0,1,3.413,1.367,5.555,5.555,0,0,1,1.245,3.877v1.152h-6.729a2.622,2.622,0,0,0,.825,1.66,2.5,2.5,0,0,0,1.743.625,3.046,3.046,0,0,0,2.549-1.182l1.387,1.553a4.237,4.237,0,0,1-1.719,1.4A5.639,5.639,0,0,1-27.129.2Zm-.322-8.682a1.764,1.764,0,0,0-1.362.569,2.946,2.946,0,0,0-.669,1.628h3.926v-.226a2.1,2.1,0,0,0-.508-1.457A1.819,1.819,0,0,0-27.451-8.486Zm8.916-2.08.088,1.182a3.713,3.713,0,0,1,3.037-1.377,2.818,2.818,0,0,1,2.8,1.611,3.628,3.628,0,0,1,3.174-1.611,3.152,3.152,0,0,1,2.559,1,4.6,4.6,0,0,1,.84,3.013V0H-8.867V-6.754A2.02,2.02,0,0,0-9.219-8.07a1.556,1.556,0,0,0-1.24-.416,1.762,1.762,0,0,0-1.758,1.214L-12.207,0h-2.822V-6.744a2,2,0,0,0-.361-1.331,1.571,1.571,0,0,0-1.23-.411,1.828,1.828,0,0,0-1.738,1V0h-2.822V-10.566ZM1,.2A5.187,5.187,0,0,1-2.788-1.23a5.068,5.068,0,0,1-1.46-3.8V-5.3a6.383,6.383,0,0,1,.615-2.847A4.515,4.515,0,0,1-1.89-10.083a4.893,4.893,0,0,1,2.573-.679A4.385,4.385,0,0,1,4.1-9.395,5.555,5.555,0,0,1,5.342-5.518v1.152H-1.387a2.622,2.622,0,0,0,.825,1.66,2.5,2.5,0,0,0,1.743.625A3.046,3.046,0,0,0,3.73-3.262L5.117-1.709A4.237,4.237,0,0,1,3.4-.308,5.639,5.639,0,0,1,1,.2ZM.674-8.486a1.764,1.764,0,0,0-1.362.569,2.946,2.946,0,0,0-.669,1.628H2.568v-.226a2.1,2.1,0,0,0-.508-1.457A1.819,1.819,0,0,0,.674-8.486Zm8.867-2.08.088,1.221a3.689,3.689,0,0,1,3.037-1.416,3.066,3.066,0,0,1,2.5.986,4.6,4.6,0,0,1,.84,2.949V0H13.184V-6.773a1.838,1.838,0,0,0-.391-1.307,1.746,1.746,0,0,0-1.3-.406A1.941,1.941,0,0,0,9.707-7.468V0H6.885V-10.566Zm11.982-2.6v2.6H23.33V-8.5H21.523v5.273a1.259,1.259,0,0,0,.225.84,1.128,1.128,0,0,0,.859.254,4.5,4.5,0,0,0,.83-.068V-.059A5.81,5.81,0,0,1,21.729.2Q18.76.2,18.7-2.8V-8.5H17.158v-2.07H18.7v-2.6ZM31.025,0a3.134,3.134,0,0,1-.283-.947A3.415,3.415,0,0,1,28.076.2,3.752,3.752,0,0,1,25.5-.7a2.89,2.89,0,0,1-1.021-2.266,2.986,2.986,0,0,1,1.245-2.578,6.144,6.144,0,0,1,3.6-.908h1.3v-.605a1.741,1.741,0,0,0-.376-1.172,1.479,1.479,0,0,0-1.187-.439,1.682,1.682,0,0,0-1.118.342,1.161,1.161,0,0,0-.405.938H24.717a2.835,2.835,0,0,1,.566-1.7,3.744,3.744,0,0,1,1.6-1.226,5.837,5.837,0,0,1,2.324-.444,4.611,4.611,0,0,1,3.1.981,3.433,3.433,0,0,1,1.147,2.759v4.58a5.052,5.052,0,0,0,.42,2.275V0ZM28.691-1.963a2.431,2.431,0,0,0,1.152-.278,1.828,1.828,0,0,0,.781-.747V-4.8H29.57q-2.119,0-2.256,1.465l-.01.166a1.13,1.13,0,0,0,.371.869A1.441,1.441,0,0,0,28.691-1.963ZM40.02-2.08a1.851,1.851,0,0,0,1.27-.43A1.506,1.506,0,0,0,41.8-3.652h2.646a3.62,3.62,0,0,1-.586,1.968A3.866,3.866,0,0,1,42.28-.3,4.936,4.936,0,0,1,40.068.2a4.587,4.587,0,0,1-3.574-1.44,5.7,5.7,0,0,1-1.309-3.979V-5.41a5.635,5.635,0,0,1,1.3-3.9,4.534,4.534,0,0,1,3.564-1.455,4.444,4.444,0,0,1,3.179,1.128,3.994,3.994,0,0,1,1.216,3H41.8a1.939,1.939,0,0,0-.508-1.34A1.693,1.693,0,0,0,40-8.486a1.7,1.7,0,0,0-1.489.719,4.166,4.166,0,0,0-.5,2.333v.293a4.219,4.219,0,0,0,.5,2.347A1.721,1.721,0,0,0,40.02-2.08ZM49.033,0H46.2V-10.566h2.832Zm-3-13.3a1.39,1.39,0,0,1,.425-1.045,1.6,1.6,0,0,1,1.157-.41,1.6,1.6,0,0,1,1.152.41A1.382,1.382,0,0,1,49.2-13.3a1.386,1.386,0,0,1-.435,1.055,1.6,1.6,0,0,1-1.147.41,1.6,1.6,0,0,1-1.147-.41A1.386,1.386,0,0,1,46.035-13.3Zm4.883,7.92a6.267,6.267,0,0,1,.605-2.8,4.432,4.432,0,0,1,1.743-1.9,5.086,5.086,0,0,1,2.642-.674A4.812,4.812,0,0,1,59.4-9.453,5.252,5.252,0,0,1,60.908-5.9l.02.723a5.523,5.523,0,0,1-1.357,3.9A4.718,4.718,0,0,1,55.928.2,4.742,4.742,0,0,1,52.28-1.27a5.62,5.62,0,0,1-1.362-3.984Zm2.822.2a3.95,3.95,0,0,0,.566,2.3,1.868,1.868,0,0,0,1.621.8,1.873,1.873,0,0,0,1.6-.787,4.322,4.322,0,0,0,.576-2.518,3.91,3.91,0,0,0-.576-2.289,1.873,1.873,0,0,0-1.621-.812,1.842,1.842,0,0,0-1.6.807A4.395,4.395,0,0,0,53.74-5.181ZM56.465-15h3.076l-2.705,3.027H54.541Zm8.8,4.434.088,1.221a3.689,3.689,0,0,1,3.037-1.416,3.066,3.066,0,0,1,2.5.986,4.6,4.6,0,0,1,.84,2.949V0H68.906V-6.773a1.838,1.838,0,0,0-.391-1.307,1.746,1.746,0,0,0-1.3-.406A1.941,1.941,0,0,0,65.43-7.468V0H62.607V-10.566Z" transform="translate(820 1624)" fill="#12263f"/>
    <path id="Trazado_873615" data-name="Trazado 873615" d="M-47.285-3.525l3.223-10.693H-40.8L-45.752,0h-3.057L-53.74-14.219h3.252ZM-35.215.2A5.187,5.187,0,0,1-39-1.23a5.068,5.068,0,0,1-1.46-3.8V-5.3a6.383,6.383,0,0,1,.615-2.847A4.515,4.515,0,0,1-38.1-10.083a4.893,4.893,0,0,1,2.573-.679,4.385,4.385,0,0,1,3.413,1.367,5.555,5.555,0,0,1,1.245,3.877v1.152H-37.6a2.622,2.622,0,0,0,.825,1.66,2.5,2.5,0,0,0,1.743.625A3.046,3.046,0,0,0-32.48-3.262l1.387,1.553a4.237,4.237,0,0,1-1.719,1.4A5.639,5.639,0,0,1-35.215.2Zm-.322-8.682a1.764,1.764,0,0,0-1.362.569,2.946,2.946,0,0,0-.669,1.628h3.926v-.226a2.1,2.1,0,0,0-.508-1.457A1.819,1.819,0,0,0-35.537-8.486Zm12.207.566A7.667,7.667,0,0,0-24.346-8a2.067,2.067,0,0,0-2.1,1.084V0h-2.822V-10.566H-26.6l.078,1.26a2.615,2.615,0,0,1,2.354-1.455,2.957,2.957,0,0,1,.879.127ZM-18.994,0h-2.832V-10.566h2.832Zm-3-13.3a1.39,1.39,0,0,1,.425-1.045,1.6,1.6,0,0,1,1.157-.41,1.6,1.6,0,0,1,1.152.41,1.382,1.382,0,0,1,.43,1.045,1.386,1.386,0,0,1-.435,1.055,1.6,1.6,0,0,1-1.147.41,1.6,1.6,0,0,1-1.147-.41A1.386,1.386,0,0,1-21.992-13.3ZM-15.986,0V-8.5h-1.572v-2.07h1.572v-.488a3.963,3.963,0,0,1,1.226-3.071,4.931,4.931,0,0,1,3.4-1.079,11.289,11.289,0,0,1,3.2.576l-.41,2.334a12.5,12.5,0,0,0-1.484-.366,7.293,7.293,0,0,0-1.133-.083q-1.973,0-1.973,1.748v.43h2.08V-8.5h-2.08V0Zm9.15,0H-9.668V-10.566h2.832ZM-.107-2.08a1.851,1.851,0,0,0,1.27-.43A1.506,1.506,0,0,0,1.67-3.652H4.316A3.62,3.62,0,0,1,3.73-1.685,3.866,3.866,0,0,1,2.153-.3,4.936,4.936,0,0,1-.059.2a4.587,4.587,0,0,1-3.574-1.44A5.7,5.7,0,0,1-4.941-5.225V-5.41a5.635,5.635,0,0,1,1.3-3.9A4.534,4.534,0,0,1-.078-10.762,4.444,4.444,0,0,1,3.1-9.634a3.994,3.994,0,0,1,1.216,3H1.67a1.939,1.939,0,0,0-.508-1.34A1.693,1.693,0,0,0-.127-8.486a1.7,1.7,0,0,0-1.489.719,4.166,4.166,0,0,0-.5,2.333v.293a4.219,4.219,0,0,0,.5,2.347A1.721,1.721,0,0,0-.107-2.08ZM12.051,0a3.134,3.134,0,0,1-.283-.947A3.415,3.415,0,0,1,9.1.2,3.752,3.752,0,0,1,6.528-.7,2.89,2.89,0,0,1,5.508-2.969,2.986,2.986,0,0,1,6.753-5.547a6.144,6.144,0,0,1,3.6-.908h1.3v-.605a1.741,1.741,0,0,0-.376-1.172,1.479,1.479,0,0,0-1.187-.439A1.682,1.682,0,0,0,8.97-8.33a1.161,1.161,0,0,0-.405.938H5.742a2.835,2.835,0,0,1,.566-1.7,3.744,3.744,0,0,1,1.6-1.226,5.837,5.837,0,0,1,2.324-.444,4.611,4.611,0,0,1,3.1.981,3.433,3.433,0,0,1,1.147,2.759v4.58A5.052,5.052,0,0,0,14.9-.166V0ZM9.717-1.963a2.431,2.431,0,0,0,1.152-.278,1.828,1.828,0,0,0,.781-.747V-4.8H10.6Q8.477-4.8,8.34-3.34l-.01.166A1.13,1.13,0,0,0,8.7-2.3,1.441,1.441,0,0,0,9.717-1.963ZM21.045-2.08a1.851,1.851,0,0,0,1.27-.43,1.506,1.506,0,0,0,.508-1.143h2.646a3.62,3.62,0,0,1-.586,1.968A3.866,3.866,0,0,1,23.306-.3,4.936,4.936,0,0,1,21.094.2a4.587,4.587,0,0,1-3.574-1.44,5.7,5.7,0,0,1-1.309-3.979V-5.41a5.635,5.635,0,0,1,1.3-3.9,4.534,4.534,0,0,1,3.564-1.455,4.444,4.444,0,0,1,3.179,1.128,3.994,3.994,0,0,1,1.216,3H22.822a1.939,1.939,0,0,0-.508-1.34,1.693,1.693,0,0,0-1.289-.515,1.7,1.7,0,0,0-1.489.719,4.166,4.166,0,0,0-.5,2.333v.293a4.219,4.219,0,0,0,.5,2.347A1.721,1.721,0,0,0,21.045-2.08ZM30.059,0H27.227V-10.566h2.832Zm-3-13.3a1.39,1.39,0,0,1,.425-1.045,1.6,1.6,0,0,1,1.157-.41,1.6,1.6,0,0,1,1.152.41,1.382,1.382,0,0,1,.43,1.045,1.386,1.386,0,0,1-.435,1.055,1.6,1.6,0,0,1-1.147.41,1.6,1.6,0,0,1-1.147-.41A1.386,1.386,0,0,1,27.061-13.3Zm4.883,7.92a6.267,6.267,0,0,1,.605-2.8,4.432,4.432,0,0,1,1.743-1.9,5.086,5.086,0,0,1,2.642-.674,4.812,4.812,0,0,1,3.491,1.309A5.252,5.252,0,0,1,41.934-5.9l.02.723a5.523,5.523,0,0,1-1.357,3.9A4.718,4.718,0,0,1,36.953.2,4.742,4.742,0,0,1,33.306-1.27a5.62,5.62,0,0,1-1.362-3.984Zm2.822.2a3.95,3.95,0,0,0,.566,2.3,1.868,1.868,0,0,0,1.621.8,1.873,1.873,0,0,0,1.6-.787,4.322,4.322,0,0,0,.576-2.518,3.91,3.91,0,0,0-.576-2.289,1.873,1.873,0,0,0-1.621-.812,1.842,1.842,0,0,0-1.6.807A4.395,4.395,0,0,0,34.766-5.181ZM37.49-15h3.076l-2.705,3.027H35.566Zm8.8,4.434.088,1.221a3.689,3.689,0,0,1,3.037-1.416,3.066,3.066,0,0,1,2.5.986,4.6,4.6,0,0,1,.84,2.949V0H49.932V-6.773a1.838,1.838,0,0,0-.391-1.307,1.746,1.746,0,0,0-1.3-.406,1.941,1.941,0,0,0-1.787,1.018V0H43.633V-10.566Z" transform="translate(938 1716)" fill="#12263f"/>
    <path id="Trazado_873617" data-name="Trazado 873617" d="M-66-14.93-62.169-4.1l3.814-10.828h4.04V0H-57.4V-4.081l.308-7.044L-61.124,0h-2.112l-4.02-11.115.308,7.034V0h-3.076V-14.93ZM-45.394,0a3.291,3.291,0,0,1-.3-.995,3.586,3.586,0,0,1-2.8,1.2,3.939,3.939,0,0,1-2.7-.943,3.034,3.034,0,0,1-1.072-2.379,3.135,3.135,0,0,1,1.307-2.707,6.451,6.451,0,0,1,3.779-.954h1.364v-.636a1.828,1.828,0,0,0-.395-1.23,1.553,1.553,0,0,0-1.246-.461,1.766,1.766,0,0,0-1.174.359,1.219,1.219,0,0,0-.426.984h-2.963a2.977,2.977,0,0,1,.595-1.784,3.931,3.931,0,0,1,1.682-1.287A6.129,6.129,0,0,1-47.3-11.3a4.842,4.842,0,0,1,3.256,1.031,3.605,3.605,0,0,1,1.2,2.9v4.809A5.3,5.3,0,0,0-42.4-.174V0Zm-2.451-2.061a2.552,2.552,0,0,0,1.21-.292,1.919,1.919,0,0,0,.82-.784V-5.045h-1.107q-2.225,0-2.369,1.538l-.01.174a1.186,1.186,0,0,0,.39.913A1.514,1.514,0,0,0-47.845-2.061Zm10.008-9.034.092,1.282A3.874,3.874,0,0,1-34.556-11.3a3.219,3.219,0,0,1,2.625,1.036,4.832,4.832,0,0,1,.882,3.1V0h-2.963V-7.112a1.93,1.93,0,0,0-.41-1.372,1.833,1.833,0,0,0-1.364-.426,2.038,2.038,0,0,0-1.876,1.069V0h-2.963V-11.095Zm12.582-2.728v2.728h1.9v2.174h-1.9v5.537a1.322,1.322,0,0,0,.236.882,1.184,1.184,0,0,0,.9.267,4.726,4.726,0,0,0,.872-.072V-.062A6.1,6.1,0,0,1-25.04.205q-3.117,0-3.179-3.148V-8.921h-1.62v-2.174h1.62v-2.728ZM-16.6.205a5.447,5.447,0,0,1-3.973-1.5,5.321,5.321,0,0,1-1.533-3.989v-.287a6.7,6.7,0,0,1,.646-2.989,4.741,4.741,0,0,1,1.83-2.03,5.137,5.137,0,0,1,2.7-.713,4.6,4.6,0,0,1,3.584,1.436,5.833,5.833,0,0,1,1.307,4.071v1.21H-19.1a2.753,2.753,0,0,0,.866,1.743,2.619,2.619,0,0,0,1.83.656A3.2,3.2,0,0,0-13.73-3.425l1.456,1.63a4.449,4.449,0,0,1-1.8,1.471A5.921,5.921,0,0,1-16.6.205Zm-.338-9.116a1.852,1.852,0,0,0-1.43.6,3.093,3.093,0,0,0-.7,1.71h4.122V-6.84a2.206,2.206,0,0,0-.533-1.529A1.91,1.91,0,0,0-16.939-8.911Zm9.311-2.184.092,1.282A3.874,3.874,0,0,1-4.348-11.3a3.219,3.219,0,0,1,2.625,1.036,4.832,4.832,0,0,1,.882,3.1V0H-3.8V-7.112a1.93,1.93,0,0,0-.41-1.372,1.833,1.833,0,0,0-1.364-.426A2.038,2.038,0,0,0-7.455-7.842V0h-2.963V-11.095ZM4.532,0H1.559V-11.095H4.532ZM1.384-13.966a1.459,1.459,0,0,1,.446-1.1,1.676,1.676,0,0,1,1.215-.431,1.68,1.68,0,0,1,1.21.431,1.451,1.451,0,0,1,.451,1.1,1.455,1.455,0,0,1-.456,1.107,1.684,1.684,0,0,1-1.2.431,1.684,1.684,0,0,1-1.2-.431A1.455,1.455,0,0,1,1.384-13.966Zm8.367,2.871.092,1.241A3.9,3.9,0,0,1,13.033-11.3a2.959,2.959,0,0,1,2.943,1.692A3.809,3.809,0,0,1,19.308-11.3a3.309,3.309,0,0,1,2.687,1.051,4.831,4.831,0,0,1,.882,3.163V0H19.9V-7.092a2.121,2.121,0,0,0-.369-1.382,1.634,1.634,0,0,0-1.3-.437,1.85,1.85,0,0,0-1.846,1.274L16.4,0H13.433V-7.081a2.1,2.1,0,0,0-.379-1.4,1.65,1.65,0,0,0-1.292-.432A1.92,1.92,0,0,0,9.936-7.862V0H6.973V-11.095ZM28.28,0H25.307V-11.095H28.28ZM25.132-13.966a1.459,1.459,0,0,1,.446-1.1,1.676,1.676,0,0,1,1.215-.431,1.679,1.679,0,0,1,1.21.431,1.451,1.451,0,0,1,.451,1.1A1.455,1.455,0,0,1,28-12.858a1.684,1.684,0,0,1-1.2.431,1.684,1.684,0,0,1-1.2-.431A1.455,1.455,0,0,1,25.132-13.966ZM35.827.205a5.447,5.447,0,0,1-3.973-1.5,5.321,5.321,0,0,1-1.533-3.989v-.287a6.7,6.7,0,0,1,.646-2.989,4.741,4.741,0,0,1,1.83-2.03,5.137,5.137,0,0,1,2.7-.713,4.6,4.6,0,0,1,3.584,1.436A5.833,5.833,0,0,1,40.39-5.793v1.21H33.325a2.753,2.753,0,0,0,.866,1.743,2.619,2.619,0,0,0,1.83.656A3.2,3.2,0,0,0,38.7-3.425l1.456,1.63a4.449,4.449,0,0,1-1.8,1.471A5.921,5.921,0,0,1,35.827.205Zm-.338-9.116a1.852,1.852,0,0,0-1.43.6,3.093,3.093,0,0,0-.7,1.71h4.122V-6.84a2.206,2.206,0,0,0-.533-1.529A1.91,1.91,0,0,0,35.489-8.911ZM44.8-11.095l.092,1.282A3.874,3.874,0,0,1,48.081-11.3a3.219,3.219,0,0,1,2.625,1.036,4.832,4.832,0,0,1,.882,3.1V0H48.624V-7.112a1.93,1.93,0,0,0-.41-1.372,1.833,1.833,0,0,0-1.364-.426,2.038,2.038,0,0,0-1.876,1.069V0H42.01V-11.095Zm12.582-2.728v2.728h1.9v2.174h-1.9v5.537a1.322,1.322,0,0,0,.236.882,1.184,1.184,0,0,0,.9.267,4.726,4.726,0,0,0,.872-.072V-.062A6.1,6.1,0,0,1,57.6.205q-3.117,0-3.179-3.148V-8.921H52.8v-2.174h1.62v-2.728ZM60.16-5.65A6.58,6.58,0,0,1,60.8-8.593a4.654,4.654,0,0,1,1.83-2A5.34,5.34,0,0,1,65.4-11.3a5.052,5.052,0,0,1,3.666,1.374,5.514,5.514,0,0,1,1.584,3.732l.021.759a5.8,5.8,0,0,1-1.425,4.1A4.954,4.954,0,0,1,65.42.205a4.979,4.979,0,0,1-3.83-1.538,5.9,5.9,0,0,1-1.43-4.184Zm2.963.21a4.147,4.147,0,0,0,.595,2.418,1.962,1.962,0,0,0,1.7.837A1.966,1.966,0,0,0,67.1-3.011a4.538,4.538,0,0,0,.6-2.644,4.106,4.106,0,0,0-.6-2.4,1.967,1.967,0,0,0-1.7-.852,1.934,1.934,0,0,0-1.682.847A4.614,4.614,0,0,0,63.123-5.44Z" transform="translate(1072 1806)" fill="#12263f"/>
  </g>
</svg>
