<svg xmlns="http://www.w3.org/2000/svg" width="195" height="105.032" viewBox="0 0 195 105.032">
  <g id="Grupo_1074023" data-name="Grupo 1074023" transform="translate(-349.032 -5440)">
    <rect id="Rectángulo_382989" data-name="Rectángulo 382989" width="195" height="63" rx="9" transform="translate(349.032 5461.016)" fill="#8722e2"/>
    <g id="algoritmo--" transform="translate(394.032 5440)">
      <g id="Grupo_1074021" data-name="Grupo 1074021" transform="translate(1.539 1.539)">
        <g id="Grupo_1074003" data-name="Grupo 1074003" transform="translate(12.719)">
          <g id="Grupo_1074002" data-name="Grupo 1074002">
            <g id="Grupo_1074001" data-name="Grupo 1074001">
              <path id="Trazado_824974" data-name="Trazado 824974" d="M117.093,9.324V20.036a1.824,1.824,0,0,1-1.824,1.824H71.324A1.824,1.824,0,0,1,69.5,20.036V9.324A1.824,1.824,0,0,1,71.324,7.5h43.945A1.824,1.824,0,0,1,117.093,9.324Z" transform="translate(-69.5 -7.5)" fill="#7ca1d8"/>
            </g>
          </g>
        </g>
        <g id="Grupo_1074006" data-name="Grupo 1074006" transform="translate(60.311 31.387)">
          <g id="Grupo_1074005" data-name="Grupo 1074005">
            <g id="Grupo_1074004" data-name="Grupo 1074004">
              <path id="Trazado_824975" data-name="Trazado 824975" d="M343.144,162.324v10.712a1.824,1.824,0,0,1-1.824,1.824h-38a1.824,1.824,0,0,1-1.824-1.824V162.324a1.824,1.824,0,0,1,1.824-1.824h38A1.824,1.824,0,0,1,343.144,162.324Z" transform="translate(-301.5 -160.5)" fill="#f3d064"/>
            </g>
          </g>
        </g>
        <g id="Grupo_1074009" data-name="Grupo 1074009" transform="translate(0.205 56.209)">
          <g id="Grupo_1074008" data-name="Grupo 1074008">
            <g id="Grupo_1074007" data-name="Grupo 1074007">
              <path id="Trazado_824976" data-name="Trazado 824976" d="M50.144,283.324v10.712a1.824,1.824,0,0,1-1.824,1.824h-38A1.824,1.824,0,0,1,8.5,294.036V283.324a1.824,1.824,0,0,1,1.824-1.824h38A1.824,1.824,0,0,1,50.144,283.324Z" transform="translate(-8.5 -281.5)" fill="#ff395e"/>
            </g>
          </g>
        </g>
        <g id="Grupo_1074012" data-name="Grupo 1074012" transform="translate(41.849 87.595)">
          <g id="Grupo_1074011" data-name="Grupo 1074011">
            <g id="Grupo_1074010" data-name="Grupo 1074010">
              <path id="Trazado_824977" data-name="Trazado 824977" d="M259.093,436.324v10.712a1.824,1.824,0,0,1-1.824,1.824H213.324a1.824,1.824,0,0,1-1.824-1.824V436.324a1.824,1.824,0,0,1,1.824-1.824h43.945A1.824,1.824,0,0,1,259.093,436.324Z" transform="translate(-211.5 -434.5)" fill="#dfde48"/>
            </g>
          </g>
        </g>
        <path id="Trazado_824978" data-name="Trazado 824978" d="M115.269,35.434H71.324A1.824,1.824,0,0,1,69.5,33.61v7.18a1.824,1.824,0,0,0,1.824,1.824h43.945a1.824,1.824,0,0,0,1.824-1.824V33.61A1.824,1.824,0,0,1,115.269,35.434Z" transform="translate(-56.781 -28.254)" fill="#80c3d1"/>
        <path id="Trazado_824979" data-name="Trazado 824979" d="M341.32,188.434h-38a1.824,1.824,0,0,1-1.824-1.824v7.18a1.824,1.824,0,0,0,1.824,1.824h38a1.824,1.824,0,0,0,1.824-1.824v-7.18A1.824,1.824,0,0,1,341.32,188.434Z" transform="translate(-241.189 -149.867)" fill="#ebbd45"/>
        <path id="Trazado_824980" data-name="Trazado 824980" d="M48.32,309.434h-38A1.824,1.824,0,0,1,8.5,307.61v7.18a1.824,1.824,0,0,0,1.824,1.824h38a1.824,1.824,0,0,0,1.824-1.824v-7.18A1.824,1.824,0,0,1,48.32,309.434Z" transform="translate(-8.295 -246.045)" fill="#b12e65"/>
        <path id="Trazado_824981" data-name="Trazado 824981" d="M257.269,462.434H213.324a1.824,1.824,0,0,1-1.824-1.824v7.18a1.824,1.824,0,0,0,1.824,1.824h43.945a1.824,1.824,0,0,0,1.824-1.824v-7.18A1.824,1.824,0,0,1,257.269,462.434Z" transform="translate(-169.651 -367.659)" fill="#c5d65c"/>
        <g id="XMLID_6_" transform="translate(47.182 92.108)">
          <g id="Grupo_1074014" data-name="Grupo 1074014">
            <g id="Grupo_1074013" data-name="Grupo 1074013">
              <circle id="Elipse_9824" data-name="Elipse 9824" cx="2.667" cy="2.667" r="2.667" fill="#9cb549"/>
            </g>
          </g>
        </g>
        <g id="XMLID_5_" transform="translate(57.029 92.108)">
          <g id="Grupo_1074016" data-name="Grupo 1074016">
            <g id="Grupo_1074015" data-name="Grupo 1074015">
              <circle id="Elipse_9825" data-name="Elipse 9825" cx="2.667" cy="2.667" r="2.667" fill="#9cb549"/>
            </g>
          </g>
        </g>
        <g id="XMLID_63_" transform="translate(0 21.745)">
          <g id="Grupo_1074018" data-name="Grupo 1074018">
            <g id="Grupo_1074017" data-name="Grupo 1074017">
              <path id="Trazado_824982" data-name="Trazado 824982" d="M18.988,115.279v7.931a1.778,1.778,0,0,1-1.779,1.779H9.279A1.778,1.778,0,0,1,7.5,123.209v-7.931A1.778,1.778,0,0,1,9.279,113.5h7.931A1.778,1.778,0,0,1,18.988,115.279Z" transform="translate(-7.5 -113.5)" fill="#eab430"/>
            </g>
          </g>
        </g>
        <g id="XMLID_64_" transform="translate(58.465 57.645)">
          <g id="Grupo_1074020" data-name="Grupo 1074020">
            <g id="Grupo_1074019" data-name="Grupo 1074019">
              <path id="Trazado_824983" data-name="Trazado 824983" d="M303.988,290.279v7.931a1.778,1.778,0,0,1-1.779,1.779h-7.931a1.778,1.778,0,0,1-1.779-1.779v-7.931a1.778,1.778,0,0,1,1.779-1.779h7.931A1.778,1.778,0,0,1,303.988,290.279Z" transform="translate(-292.5 -288.5)" fill="#eab430"/>
            </g>
          </g>
        </g>
      </g>
      <g id="Grupo_1074022" data-name="Grupo 1074022">
        <path id="Trazado_824984" data-name="Trazado 824984" d="M102.465,31.387h-38a3.365,3.365,0,0,0-3.361,3.361v3.818H54.952V17.437h5.87a3.365,3.365,0,0,0,3.361-3.361V3.361A3.365,3.365,0,0,0,60.822,0H16.875a3.365,3.365,0,0,0-3.361,3.361V14.076a3.365,3.365,0,0,0,3.361,3.361h9.2a1.539,1.539,0,1,0,0-3.077h-9.2a.285.285,0,0,1-.284-.284V3.361a.285.285,0,0,1,.284-.284H60.822a.285.285,0,0,1,.284.284V14.076a.285.285,0,0,1-.284.284H32.233a1.539,1.539,0,1,0,0,3.077H51.875V63.389H45.721V59.57a3.365,3.365,0,0,0-3.361-3.361h-38A3.365,3.365,0,0,0,1,59.57V70.284a3.365,3.365,0,0,0,3.361,3.361h38a3.365,3.365,0,0,0,3.361-3.361V66.466h6.154V87.6h-5.87a3.365,3.365,0,0,0-3.361,3.361v10.714a3.365,3.365,0,0,0,3.361,3.361H89.952a3.365,3.365,0,0,0,3.361-3.361V90.957A3.365,3.365,0,0,0,89.952,87.6H79.415a1.539,1.539,0,0,0,0,3.077H89.952a.285.285,0,0,1,.284.284v10.714a.285.285,0,0,1-.284.284H46a.285.285,0,0,1-.284-.284V90.957A.285.285,0,0,1,46,90.672H73.261a1.539,1.539,0,1,0,0-3.077H54.952V41.644h6.154v3.818a3.365,3.365,0,0,0,3.361,3.361h38a3.365,3.365,0,0,0,3.361-3.361V34.748A3.366,3.366,0,0,0,102.465,31.387Zm-59.822,38.9a.285.285,0,0,1-.284.284h-38a.285.285,0,0,1-.284-.284V59.57a.285.285,0,0,1,.284-.284h38a.285.285,0,0,1,.284.284V70.284ZM102.75,45.462a.285.285,0,0,1-.284.284h-38a.285.285,0,0,1-.284-.284V34.748a.285.285,0,0,1,.284-.284h38a.285.285,0,0,1,.284.284V45.462Z" transform="translate(-0.795 0)" fill="#000100"/>
        <path id="Trazado_824985" data-name="Trazado 824985" d="M98.714,20.957,94.49,25.223l-.655-.4a1.539,1.539,0,0,0-1.6,2.632l1.692,1.026a1.539,1.539,0,0,0,1.891-.233l5.077-5.129a1.538,1.538,0,1,0-2.187-2.165Z" transform="translate(-72.729 -16.295)" fill="#000100"/>
        <path id="Trazado_824986" data-name="Trazado 824986" d="M160,38.077A1.539,1.539,0,0,0,160,35H141.539a1.539,1.539,0,1,0,0,3.077Z" transform="translate(-111.28 -27.82)" fill="#000100"/>
        <path id="Trazado_824987" data-name="Trazado 824987" d="M252.8,38.077a1.539,1.539,0,0,0,0-3.077h-2.257a1.539,1.539,0,0,0,0,3.077Z" transform="translate(-197.92 -27.82)" fill="#000100"/>
        <path id="Trazado_824988" data-name="Trazado 824988" d="M325.4,174.951a1.539,1.539,0,0,0-2.176,0l-2.769,2.769a1.538,1.538,0,0,0,0,2.176l2.462,2.462a1.539,1.539,0,1,0,2.176-2.176l-1.374-1.374,1.682-1.682A1.539,1.539,0,0,0,325.4,174.951Z" transform="translate(-254.355 -138.703)" fill="#000100"/>
        <path id="Trazado_824989" data-name="Trazado 824989" d="M380.127,174.951a1.539,1.539,0,0,0-2.176,2.176l1.682,1.682-1.374,1.374a1.539,1.539,0,0,0,2.176,2.176L382.9,179.9a1.538,1.538,0,0,0,0-2.176Z" transform="translate(-300.06 -138.703)" fill="#000100"/>
        <path id="Trazado_824990" data-name="Trazado 824990" d="M354.16,175.108a1.538,1.538,0,0,0-2,.857l-2.051,5.129a1.539,1.539,0,1,0,2.857,1.143l2.051-5.129A1.539,1.539,0,0,0,354.16,175.108Z" transform="translate(-278.199 -139.099)" fill="#000100"/>
        <path id="Trazado_824991" data-name="Trazado 824991" d="M426.052,188H413.539a1.539,1.539,0,1,0,0,3.077h12.514a1.539,1.539,0,0,0,0-3.077Z" transform="translate(-327.482 -149.434)" fill="#000100"/>
        <path id="Trazado_824992" data-name="Trazado 824992" d="M35.714,296.956l-4.224,4.266-.655-.4a1.539,1.539,0,0,0-1.6,2.632l1.692,1.026a1.539,1.539,0,0,0,1.891-.233l5.077-5.129a1.538,1.538,0,1,0-2.187-2.165Z" transform="translate(-22.652 -235.676)" fill="#000100"/>
        <path id="Trazado_824993" data-name="Trazado 824993" d="M99.847,309H79.539a1.539,1.539,0,1,0,0,3.077H99.847a1.539,1.539,0,0,0,0-3.077Z" transform="translate(-61.999 -245.612)" fill="#000100"/>
        <path id="Trazado_824994" data-name="Trazado 824994" d="M230,453.205A4.205,4.205,0,1,0,234.205,449,4.21,4.21,0,0,0,230,453.205Zm5.334,0a1.128,1.128,0,1,1-1.128-1.128A1.129,1.129,0,0,1,235.334,453.205Z" transform="translate(-182.818 -356.892)" fill="#000100"/>
        <path id="Trazado_824995" data-name="Trazado 824995" d="M278,453.205A4.205,4.205,0,1,0,282.205,449,4.21,4.21,0,0,0,278,453.205Zm5.334,0a1.128,1.128,0,1,1-1.128-1.128A1.129,1.129,0,0,1,283.334,453.205Z" transform="translate(-220.971 -356.892)" fill="#000100"/>
        <path id="Trazado_824996" data-name="Trazado 824996" d="M330.411,462h-2.872a1.539,1.539,0,1,0,0,3.077h2.872a1.539,1.539,0,1,0,0-3.077Z" transform="translate(-259.124 -367.225)" fill="#000100"/>
        <path id="Trazado_824997" data-name="Trazado 824997" d="M362.539,465.077H372.59a1.539,1.539,0,0,0,0-3.077H362.539a1.539,1.539,0,0,0,0,3.077Z" transform="translate(-286.944 -367.225)" fill="#000100"/>
        <path id="Trazado_824998" data-name="Trazado 824998" d="M3.317,120.565h7.93a3.321,3.321,0,0,0,3.317-3.317v-7.931A3.321,3.321,0,0,0,11.248,106H3.317A3.321,3.321,0,0,0,0,109.317v7.931A3.321,3.321,0,0,0,3.317,120.565Zm-.24-11.248a.24.24,0,0,1,.24-.24h7.93a.24.24,0,0,1,.24.24v7.931a.24.24,0,0,1-.24.24H3.317a.24.24,0,0,1-.24-.24Z" transform="translate(0 -84.255)" fill="#000100"/>
        <path id="Trazado_824999" data-name="Trazado 824999" d="M98,103.539a1.538,1.538,0,0,0,1.539,1.539h23.386a1.539,1.539,0,1,0,0-3.077H99.539A1.538,1.538,0,0,0,98,103.539Z" transform="translate(-77.896 -81.076)" fill="#000100"/>
        <path id="Trazado_825000" data-name="Trazado 825000" d="M99.539,137.077h23.386a1.539,1.539,0,1,0,0-3.077H99.539a1.539,1.539,0,1,0,0,3.077Z" transform="translate(-77.896 -106.511)" fill="#000100"/>
        <path id="Trazado_825001" data-name="Trazado 825001" d="M99.539,169.077h5.539a1.539,1.539,0,0,0,0-3.077H99.539a1.539,1.539,0,0,0,0,3.077Z" transform="translate(-77.896 -131.947)" fill="#000100"/>
        <path id="Trazado_825002" data-name="Trazado 825002" d="M165.052,166H152.539a1.539,1.539,0,0,0,0,3.077h12.514a1.539,1.539,0,0,0,0-3.077Z" transform="translate(-120.024 -131.947)" fill="#000100"/>
        <path id="Trazado_825003" data-name="Trazado 825003" d="M288.317,281A3.321,3.321,0,0,0,285,284.317v7.931a3.321,3.321,0,0,0,3.317,3.317h7.93a3.321,3.321,0,0,0,3.317-3.317v-7.931A3.321,3.321,0,0,0,296.248,281Zm8.171,3.317v7.931a.24.24,0,0,1-.24.24h-7.93a.24.24,0,0,1-.24-.24v-7.931a.24.24,0,0,1,.24-.24h7.93A.24.24,0,0,1,296.488,284.317Z" transform="translate(-226.535 -223.355)" fill="#000100"/>
        <path id="Trazado_825004" data-name="Trazado 825004" d="M407.925,277H384.539a1.539,1.539,0,1,0,0,3.077h23.386a1.539,1.539,0,0,0,0-3.077Z" transform="translate(-304.431 -220.176)" fill="#000100"/>
        <path id="Trazado_825005" data-name="Trazado 825005" d="M407.925,309H384.539a1.539,1.539,0,1,0,0,3.077h23.386a1.539,1.539,0,0,0,0-3.077Z" transform="translate(-304.431 -245.612)" fill="#000100"/>
        <path id="Trazado_825006" data-name="Trazado 825006" d="M384.539,341a1.539,1.539,0,1,0,0,3.077h5.539a1.539,1.539,0,0,0,0-3.077Z" transform="translate(-304.431 -271.047)" fill="#000100"/>
        <path id="Trazado_825007" data-name="Trazado 825007" d="M450.052,341H437.539a1.539,1.539,0,0,0,0,3.077h12.514a1.539,1.539,0,1,0,0-3.077Z" transform="translate(-346.559 -271.047)" fill="#000100"/>
      </g>
    </g>
  </g>
</svg>
