<svg xmlns="http://www.w3.org/2000/svg" width="61" height="61" viewBox="0 0 61 61">
  <g id="Grupo_1074167" data-name="Grupo 1074167" transform="translate(-455 -5900)">
    <g id="Grupo_1073841" data-name="Grupo 1073841" transform="translate(146 -1963)">
      <g id="Grupo_1073618" data-name="Grupo 1073618" transform="translate(-24 6935)">
        <circle id="Elipse_9665" data-name="Elipse 9665" cx="30.5" cy="30.5" r="30.5" transform="translate(333 928)" fill="#2cfedf"/>
      </g>
    </g>
    <g id="lista-de-verificacion" transform="translate(431.98 5909)">
      <g id="Grupo_1074163" data-name="Grupo 1074163" transform="translate(34.677 0.657)">
        <g id="Grupo_1074162" data-name="Grupo 1074162" transform="translate(0)">
          <g id="Grupo_1074159" data-name="Grupo 1074159">
            <g id="Grupo_1074156" data-name="Grupo 1074156">
              <path id="Trazado_825979" data-name="Trazado 825979" d="M70.879,88.376H43.124a1.609,1.609,0,0,1-1.609-1.609V50a1.609,1.609,0,0,1,1.609-1.609H70.879A1.609,1.609,0,0,1,72.489,50V86.767A1.609,1.609,0,0,1,70.879,88.376Z" transform="translate(-41.515 -44.806)" fill="#ffc250"/>
              <path id="Trazado_825980" data-name="Trazado 825980" d="M320.413,48.39h-5.387A1.609,1.609,0,0,1,316.635,50V86.766a1.609,1.609,0,0,1-1.609,1.609h5.387a1.609,1.609,0,0,0,1.609-1.609V50A1.609,1.609,0,0,0,320.413,48.39Z" transform="translate(-291.049 -44.805)" fill="#eab14d"/>
              <path id="Trazado_825981" data-name="Trazado 825981" d="M71.522,112.546V78.973A.575.575,0,0,1,72.1,78.4H96.659a.575.575,0,0,1,.575.575v33.573a.575.575,0,0,1-.575.575H72.1A.575.575,0,0,1,71.522,112.546Z" transform="translate(-68.891 -72.183)" fill="#f5f5f5"/>
              <path id="Trazado_825982" data-name="Trazado 825982" d="M302.2,78.4h-5.387a.575.575,0,0,1,.575.575v33.573a.575.575,0,0,1-.575.575H302.2a.575.575,0,0,0,.575-.575V78.973A.575.575,0,0,0,302.2,78.4Z" transform="translate(-274.435 -72.183)" fill="#eaeaea"/>
              <path id="Trazado_825983" data-name="Trazado 825983" d="M149.674,9.5V8.656A1.156,1.156,0,0,0,148.518,7.5h-4.527a1.156,1.156,0,0,0-1.156,1.156V9.5a.473.473,0,0,1-.473.473h-1.884a1.135,1.135,0,0,0-1.135,1.135v2.6h13.821v-2.6a1.135,1.135,0,0,0-1.135-1.135h-1.884A.473.473,0,0,1,149.674,9.5Z" transform="translate(-130.768 -7.5)" fill="#c2d0da"/>
            </g>
            <g id="Grupo_1074158" data-name="Grupo 1074158" transform="translate(5.977 9.472)">
              <g id="Grupo_1074157" data-name="Grupo 1074157">
                <path id="Trazado_825984" data-name="Trazado 825984" d="M109.694,121.631v-5.067a1.016,1.016,0,0,1,1.016-1.016h5.067a1.016,1.016,0,0,1,1.016,1.016v5.067a1.016,1.016,0,0,1-1.016,1.016H110.71A1.016,1.016,0,0,1,109.694,121.631Z" transform="translate(-109.694 -115.548)" fill="#66b49d"/>
                <path id="Trazado_825985" data-name="Trazado 825985" d="M109.694,242.038v-5.067a1.016,1.016,0,0,1,1.016-1.016h5.067a1.016,1.016,0,0,1,1.016,1.016v5.067a1.016,1.016,0,0,1-1.016,1.016H110.71A1.016,1.016,0,0,1,109.694,242.038Z" transform="translate(-109.694 -225.399)" fill="#66b49d"/>
                <path id="Trazado_825986" data-name="Trazado 825986" d="M109.694,362.443v-5.066a1.016,1.016,0,0,1,1.016-1.016h5.067a1.016,1.016,0,0,1,1.016,1.016v5.066a1.016,1.016,0,0,1-1.016,1.016H110.71A1.016,1.016,0,0,1,109.694,362.443Z" transform="translate(-109.694 -335.249)" fill="#66b49d"/>
              </g>
            </g>
          </g>
          <g id="Grupo_1074161" data-name="Grupo 1074161" transform="translate(16.963 10.215)">
            <g id="Grupo_1074160" data-name="Grupo 1074160" transform="translate(1.08)">
              <path id="Trazado_825987" data-name="Trazado 825987" d="M264.334,177.016l-.646-.85-2.416-1.53-.928-.146-12.368,19.545a5.092,5.092,0,0,0-.648,1.531,3.984,3.984,0,0,1,3.531,2.236,5.09,5.09,0,0,0,1.107-1.24Z" transform="translate(-247.328 -170.066)" fill="#fc8086"/>
              <path id="Trazado_825988" data-name="Trazado 825988" d="M415.374,124.959l-1.044-.661a1.743,1.743,0,0,0-2.406.541l-.957,1.512.305.616,2.9,1.839.78.072.958-1.513A1.743,1.743,0,0,0,415.374,124.959Z" transform="translate(-396.621 -124.027)" fill="#8c9ba6"/>
            </g>
            <path id="Trazado_825989" data-name="Trazado 825989" d="M0,0H2.485V4.722H0Z" transform="matrix(0.535, -0.845, 0.845, 0.535, 14.098, 4.418)" fill="#c9e2e7"/>
            <path id="Trazado_825990" data-name="Trazado 825990" d="M239.622,417.131l-3.522,2.838a.668.668,0,0,1-1.069-.677l1.06-4.4A3.984,3.984,0,0,1,239.622,417.131Z" transform="translate(-235.011 -389.396)" fill="#7c8b96"/>
          </g>
        </g>
      </g>
      <g id="Grupo_1074166" data-name="Grupo 1074166" transform="translate(34.02 0)">
        <g id="Grupo_1074165" data-name="Grupo 1074165" transform="translate(0 0)">
          <g id="Grupo_1074164" data-name="Grupo 1074164">
            <path id="Trazado_825991" data-name="Trazado 825991" d="M130.531,135.467a.657.657,0,0,0-.919.14l-1.3,1.768-.445-.611a.658.658,0,1,0-1.063.774l.768,1.054a.917.917,0,0,0,.737.376h0a.917.917,0,0,0,.736-.372l1.626-2.21A.658.658,0,0,0,130.531,135.467Z" transform="translate(-118.553 -123.474)"/>
            <path id="Trazado_825992" data-name="Trazado 825992" d="M130.53,258.494a.657.657,0,0,0-.919.14l-1.3,1.768-.445-.611a.658.658,0,1,0-1.063.774l.768,1.054a.917.917,0,0,0,.736.376h0a.917.917,0,0,0,.736-.372l1.626-2.209A.658.658,0,0,0,130.53,258.494Z" transform="translate(-118.553 -235.716)"/>
            <path id="Trazado_825993" data-name="Trazado 825993" d="M130.53,376.278a.657.657,0,0,0-.919.14l-1.3,1.768-.445-.611a.658.658,0,1,0-1.063.774l.768,1.054a.917.917,0,0,0,.736.376h0a.917.917,0,0,0,.736-.372l1.626-2.209A.658.658,0,0,0,130.53,376.278Z" transform="translate(-118.553 -343.174)"/>
            <path id="Trazado_825994" data-name="Trazado 825994" d="M221.183,134.182h8.128a.658.658,0,0,0,0-1.315h-8.128a.658.658,0,0,0,0,1.315Z" transform="translate(-204.175 -121.219)"/>
            <path id="Trazado_825995" data-name="Trazado 825995" d="M221.183,165.523h4.064a.658.658,0,1,0,0-1.315h-4.064a.658.658,0,0,0,0,1.315Z" transform="translate(-204.175 -149.813)"/>
            <path id="Trazado_825996" data-name="Trazado 825996" d="M221.183,254.587h5.453a.658.658,0,0,0,0-1.315h-5.453a.658.658,0,0,0,0,1.315Z" transform="translate(-204.175 -231.069)"/>
            <path id="Trazado_825997" data-name="Trazado 825997" d="M225.247,285.929a.658.658,0,1,0,0-1.315h-4.064a.658.658,0,0,0,0,1.315Z" transform="translate(-204.175 -259.663)"/>
            <path id="Trazado_825998" data-name="Trazado 825998" d="M108.938,108.047h-5.067a1.676,1.676,0,0,0-1.674,1.674v5.067a1.676,1.676,0,0,0,1.674,1.674h5.067a1.676,1.676,0,0,0,1.674-1.674v-5.067A1.676,1.676,0,0,0,108.938,108.047Zm.359,6.741a.359.359,0,0,1-.359.359h-5.067a.359.359,0,0,1-.359-.359v-5.067a.359.359,0,0,1,.359-.359h5.067a.359.359,0,0,1,.359.359Z" transform="translate(-96.22 -98.575)"/>
            <path id="Trazado_825999" data-name="Trazado 825999" d="M108.938,228.453h-5.067a1.676,1.676,0,0,0-1.674,1.674v5.067a1.676,1.676,0,0,0,1.674,1.674h5.067a1.676,1.676,0,0,0,1.674-1.674v-5.067A1.676,1.676,0,0,0,108.938,228.453Zm.359,6.741a.359.359,0,0,1-.359.359h-5.067a.359.359,0,0,1-.359-.359v-5.067a.359.359,0,0,1,.359-.359h5.067a.359.359,0,0,1,.359.359Z" transform="translate(-96.22 -208.426)"/>
            <path id="Trazado_826000" data-name="Trazado 826000" d="M108.938,348.857h-5.067a1.676,1.676,0,0,0-1.674,1.674V355.6a1.676,1.676,0,0,0,1.674,1.674h5.067a1.676,1.676,0,0,0,1.674-1.674v-5.067A1.676,1.676,0,0,0,108.938,348.857Zm.359,6.741a.359.359,0,0,1-.359.359h-5.067a.359.359,0,0,1-.359-.359v-5.067a.359.359,0,0,1,.359-.359h5.067a.359.359,0,0,1,.359.359Z" transform="translate(-96.22 -318.274)"/>
            <path id="Trazado_826001" data-name="Trazado 826001" d="M71.824,11.249l-1.044-.661a2.4,2.4,0,0,0-3.313.745l-.957,1.512-1.329,2.1-1.5,2.375V7.448a1.234,1.234,0,0,0-1.233-1.233H57.732V4.9h6.309a.953.953,0,0,1,.952.952v5.7a.658.658,0,1,0,1.315,0v-5.7a2.27,2.27,0,0,0-2.267-2.267H57.6A1.8,1.8,0,0,0,55.94,2.476h-1.7V1.813A1.815,1.815,0,0,0,52.428,0H47.9a1.815,1.815,0,0,0-1.813,1.813v.662h-1.7a1.8,1.8,0,0,0-1.656,1.109H36.287A2.27,2.27,0,0,0,34.02,5.852V42.618a2.27,2.27,0,0,0,2.267,2.267H64.042a2.27,2.27,0,0,0,2.267-2.267V27.872a.658.658,0,0,0-1.315,0V42.618a.953.953,0,0,1-.952.952H36.287a.953.953,0,0,1-.952-.952V5.852a.953.953,0,0,1,.952-.952H42.6V6.215H37.884a1.234,1.234,0,0,0-1.233,1.233V41.021a1.234,1.234,0,0,0,1.233,1.233H62.445a1.234,1.234,0,0,0,1.233-1.233V28.61l6.6-10.435h0l1.329-2.1.958-1.513a2.4,2.4,0,0,0-.744-3.312Zm-2.566.308a1.077,1.077,0,0,1,.819.142l1.044.661a1.087,1.087,0,0,1,.337,1.5l-.606.957-2.878-1.823.606-.957a1.078,1.078,0,0,1,.679-.479ZM56.8,37.016a4.426,4.426,0,0,1-.416.555,4.624,4.624,0,0,0-.7-.748L67.941,17.471l.878.556Zm-4.491,3.922-.012,0h0l.929-3.859A3.311,3.311,0,0,1,55.4,38.45C51.916,41.256,52.361,40.893,52.311,40.938ZM67.27,14.1l2.878,1.823-.626.989-2.878-1.823ZM43.911,4.283c0-.008,0-.016,0-.024s0-.006,0-.008a.477.477,0,0,1,.476-.459h1.884a1.132,1.132,0,0,0,1.13-1.13V1.813a.5.5,0,0,1,.5-.5h4.527a.5.5,0,0,1,.5.5v.847a1.132,1.132,0,0,0,1.13,1.13H55.94a.477.477,0,0,1,.476.459s0,.006,0,.008,0,.016,0,.024V6.215H43.911ZM37.966,7.531h24.4V19.4L55.48,30.275a.658.658,0,1,0,1.111.7L65.941,16.2l.889.563L54.575,36.119a4.618,4.618,0,0,0-.975-.312,4.446,4.446,0,0,1,.324-.614l1.022-1.615a.658.658,0,1,0-1.111-.7l-1.022,1.615a5.738,5.738,0,0,0-.732,1.728h0l-1.06,4.4a1.366,1.366,0,0,0-.038.324H37.966Zm24.4,33.408H54.407l2.257-1.819a5.735,5.735,0,0,0,1.25-1.4l4.449-7.031Z" transform="translate(-34.02 0)"/>
          </g>
        </g>
      </g>
    </g>
  </g>
</svg>
