<svg xmlns="http://www.w3.org/2000/svg" width="61" height="61" viewBox="0 0 61 61">
  <g id="Grupo_1074181" data-name="Grupo 1074181" transform="translate(-770 -5900)">
    <g id="Grupo_1073846" data-name="Grupo 1073846" transform="translate(461 -1963)">
      <g id="Grupo_1073618" data-name="Grupo 1073618" transform="translate(-24 6935)">
        <circle id="Elipse_9665" data-name="Elipse 9665" cx="30.5" cy="30.5" r="30.5" transform="translate(333 928)" fill="#2cfedf"/>
      </g>
    </g>
    <g id="lista-de-verificacion_1_" data-name="lista-de-verificacion (1)" transform="translate(779 5910)">
      <g id="Grupo_1074179" data-name="Grupo 1074179" transform="translate(0.672 0.672)">
        <g id="Grupo_1074168" data-name="Grupo 1074168">
          <path id="Trazado_826002" data-name="Trazado 826002" d="M8.786,8.82l-3.5,1.553a2.7,2.7,0,0,0-1.6,2.461v2.958H3.017a1.942,1.942,0,0,0-.814.175l-.84-2.938A9.435,9.435,0,0,1,10.433,1h5.339a9.436,9.436,0,0,1,9.07,12.028L24,15.967a1.942,1.942,0,0,0-.814-.175h-.672V13.1a2.689,2.689,0,0,0-2.689-2.689h-5.91A9.063,9.063,0,0,1,8.786,8.82Z" transform="translate(-1 -1)" fill="#b27946"/>
        </g>
        <g id="Grupo_1074169" data-name="Grupo 1074169" transform="translate(2.689 25.624)">
          <path id="Trazado_826003" data-name="Trazado 826003" d="M23.826,44.213a4.233,4.233,0,0,0-2.178-3.7L19.133,39.11h-.007a9.2,9.2,0,0,1-2.7,1.056v.215h1.345a.674.674,0,0,1,.672.672v3.362H17.1v4.034h1.345v2.017a.674.674,0,0,1-.672.672H11.051a.674.674,0,0,1-.672-.672V41.053a.674.674,0,0,1,.672-.672H12.4v-.215A9.2,9.2,0,0,1,9.7,39.11H9.693l-2.32,1.3-.195.108A4.226,4.226,0,0,0,8.3,48.341l-.612,5.486H21.137l-.612-5.486a4.209,4.209,0,0,0,3.3-4.128Z" transform="translate(-5 -39.11)" fill="#fcd770"/>
        </g>
        <g id="Grupo_1074170" data-name="Grupo 1074170" transform="translate(28.239 17.481)">
          <path id="Trazado_826004" data-name="Trazado 826004" d="M52.413,28.735v7.006a.674.674,0,0,1-.672.672H43.672A.674.674,0,0,1,43,35.741V27.672A.674.674,0,0,1,43.672,27h8.068a.674.674,0,0,1,.672.672Z" transform="translate(-43 -27)" fill="#ff826e"/>
        </g>
        <g id="Grupo_1074171" data-name="Grupo 1074171" transform="translate(28.239 4.034)">
          <path id="Trazado_826005" data-name="Trazado 826005" d="M52.413,8.735v7.006a.674.674,0,0,1-.672.672H43.672A.674.674,0,0,1,43,15.741V7.672A.674.674,0,0,1,43.672,7h8.068a.674.674,0,0,1,.672.672Z" transform="translate(-43 -7)" fill="#ff826e"/>
        </g>
        <g id="Grupo_1074172" data-name="Grupo 1074172" transform="translate(8.068 26.894)">
          <path id="Trazado_826006" data-name="Trazado 826006" d="M21.068,49.068v2.017a.674.674,0,0,1-.672.672H13.672A.674.674,0,0,1,13,51.085V41.672A.674.674,0,0,1,13.672,41h1.345v.672a.674.674,0,0,0,.672.672h2.689a.674.674,0,0,0,.672-.672V41H20.4a.674.674,0,0,1,.672.672v3.362H17.706a2.017,2.017,0,1,0,0,4.034h3.362Z" transform="translate(-13 -41)" fill="#e6e9ed"/>
        </g>
        <g id="Grupo_1074173" data-name="Grupo 1074173" transform="translate(10.085 25.55)">
          <path id="Trazado_826007" data-name="Trazado 826007" d="M20.034,40.13v.888a.674.674,0,0,1-.672.672H16.672A.674.674,0,0,1,16,41.017V39.672A.674.674,0,0,1,16.672,39h2.689a.674.674,0,0,1,.672.672Z" transform="translate(-16 -39)" fill="#b4dd7f"/>
        </g>
        <g id="Grupo_1074174" data-name="Grupo 1074174" transform="translate(10.758 30.928)">
          <path id="Trazado_826008" data-name="Trazado 826008" d="M21.034,47v4.034H19.017a2.017,2.017,0,0,1,0-4.034Z" transform="translate(-17 -47)" fill="#f0d0b4"/>
        </g>
        <g id="Grupo_1074175" data-name="Grupo 1074175" transform="translate(21.421 14.792)">
          <path id="Trazado_826009" data-name="Trazado 826009" d="M34.44,23.175a2.015,2.015,0,0,1-.814,3.859H32.86a9.817,9.817,0,0,0,.094-1.345V23h.672A1.942,1.942,0,0,1,34.44,23.175Z" transform="translate(-32.86 -23)" fill="#f0d0b4"/>
        </g>
        <g id="Grupo_1074176" data-name="Grupo 1074176" transform="translate(2.689 7.82)">
          <path id="Trazado_826010" data-name="Trazado 826010" d="M23.826,19.6v2.689a9.816,9.816,0,0,1-.094,1.345,9.425,9.425,0,0,1-4.6,6.8h-.007a9.2,9.2,0,0,1-2.7,1.056v-.457a.674.674,0,0,0-.672-.672H13.068a.674.674,0,0,0-.672.672v.457a9.2,9.2,0,0,1-2.7-1.056H9.693a9.425,9.425,0,0,1-4.6-6.8A9.816,9.816,0,0,1,5,22.292V16.644a2.7,2.7,0,0,1,1.6-2.461l3.5-1.553a9.063,9.063,0,0,0,5.13,1.593h5.91a2.689,2.689,0,0,1,2.689,2.689Z" transform="translate(-5 -12.63)" fill="#f0d0b4"/>
        </g>
        <g id="Grupo_1074177" data-name="Grupo 1074177" transform="translate(0 14.792)">
          <path id="Trazado_826011" data-name="Trazado 826011" d="M3.689,23v2.689a9.816,9.816,0,0,0,.094,1.345H3.017A2.014,2.014,0,0,1,2.2,23.175,1.942,1.942,0,0,1,3.017,23Z" transform="translate(-1 -23)" fill="#f0d0b4"/>
        </g>
        <g id="Grupo_1074178" data-name="Grupo 1074178" transform="translate(9.413 20.171)">
          <path id="Trazado_826012" data-name="Trazado 826012" d="M20.379,31l-.182.733a2.586,2.586,0,0,1-5.016,0L15,31Z" transform="translate(-15 -31)" fill="#ff826e"/>
        </g>
      </g>
      <g id="Grupo_1074180" data-name="Grupo 1074180" transform="translate(0)">
        <path id="Trazado_826013" data-name="Trazado 826013" d="M14.111,31.568a3.256,3.256,0,0,0,6.317,0L20.82,30h-7.1Zm4.984-.223a1.911,1.911,0,0,1-3.651,0Z" transform="translate(-4.495 -9.829)"/>
        <path id="Trazado_826014" data-name="Trazado 826014" d="M13.379,22.689a2.689,2.689,0,1,0-5.379,0H9.345a1.345,1.345,0,1,1,2.689,0Z" transform="translate(-2.621 -6.553)"/>
        <path id="Trazado_826015" data-name="Trazado 826015" d="M24.689,20A2.692,2.692,0,0,0,22,22.689h1.345a1.345,1.345,0,0,1,2.689,0h1.345A2.692,2.692,0,0,0,24.689,20Z" transform="translate(-7.208 -6.553)"/>
        <path id="Trazado_826016" data-name="Trazado 826016" d="M43.345,16.188h8.068a1.346,1.346,0,0,0,1.345-1.345V8.135L55.9,5.254l-.909-.992-2.3,2.111a1.342,1.342,0,0,0-1.277-.943H43.345A1.346,1.346,0,0,0,42,6.775v8.068A1.346,1.346,0,0,0,43.345,16.188Zm0-9.413h8.068v.769L47.4,11.224,45.837,9.662l-.951.951,2.472,2.472,4.054-3.717v5.476H43.345Z" transform="translate(-13.761 -1.396)"/>
        <path id="Trazado_826017" data-name="Trazado 826017" d="M54.993,24.263l-2.3,2.111a1.342,1.342,0,0,0-1.277-.943H43.345A1.346,1.346,0,0,0,42,26.776v8.068a1.346,1.346,0,0,0,1.345,1.345h8.068a1.346,1.346,0,0,0,1.345-1.345V28.136L55.9,25.254ZM51.414,34.844H43.345V26.776h8.068v.769L47.4,31.224l-1.562-1.562-.951.951,2.472,2.472,4.054-3.717Z" transform="translate(-13.761 -7.95)"/>
        <path id="Trazado_826018" data-name="Trazado 826018" d="M42,46h4.034v1.345H42Z" transform="translate(-13.761 -15.072)"/>
        <path id="Trazado_826019" data-name="Trazado 826019" d="M50,46h5.379v1.345H50Z" transform="translate(-16.382 -15.072)"/>
        <path id="Trazado_826020" data-name="Trazado 826020" d="M42,50H52.758v1.345H42Z" transform="translate(-13.761 -16.382)"/>
        <path id="Trazado_826021" data-name="Trazado 826021" d="M42,54h1.345v1.345H42Z" transform="translate(-13.761 -17.693)"/>
        <path id="Trazado_826022" data-name="Trazado 826022" d="M46,54h1.345v1.345H46Z" transform="translate(-15.072 -17.693)"/>
        <path id="Trazado_826023" data-name="Trazado 826023" d="M50,54h1.345v1.345H50Z" transform="translate(-16.382 -17.693)"/>
        <path id="Trazado_826024" data-name="Trazado 826024" d="M25.55,10.108A10.119,10.119,0,0,0,15.441,0H10.108A10.107,10.107,0,0,0,.389,12.885l.7,2.448a2.681,2.681,0,0,0,1.6,4.838H2.9a10.187,10.187,0,0,0,3.869,6.076l-.852.473-.677-.9-1.076.807.588.784a4.894,4.894,0,0,0,1.174,8.6L5.3,41.686H20.249l-.631-5.675a4.9,4.9,0,0,0,.719-8.9l-1.561-.867a10.192,10.192,0,0,0,3.869-6.076h.214a2.681,2.681,0,0,0,1.6-4.838l.7-2.448a10.1,10.1,0,0,0,.389-2.777ZM2.689,18.826a1.345,1.345,0,1,1,0-2.689v2.017c0,.226.014.449.03.672Zm5.378,8.24c.136.073.276.139.417.205a1.338,1.338,0,0,0-.416.968v1.345L6.735,27.807Zm6.052,2.518a1.346,1.346,0,0,0,1.345-1.345h.672v2.689H13.447a2.689,2.689,0,0,0,0,5.379h2.689v1.345H9.413V28.239h.672a1.346,1.346,0,0,0,1.345,1.345ZM11.43,28.239V26.894h2.689v1.345Zm2.017,6.724a1.345,1.345,0,1,1,0-2.689h1.345v2.689ZM4.034,31.4a3.557,3.557,0,0,1,1.53-2.917l1.852,2.469a2.936,2.936,0,0,0-1.84.844l.951.951a1.609,1.609,0,0,1,1.147-.475h.394v2.689H7.594A3.564,3.564,0,0,1,4.034,31.4Zm14.713,8.94H6.8l.45-4.052c.114.008.227.017.342.017h.474v1.345A1.346,1.346,0,0,0,9.413,39h6.724a1.346,1.346,0,0,0,1.345-1.345V36.307h.474c.116,0,.229-.009.342-.017Zm.937-12.052a3.561,3.561,0,0,1-1.729,6.673H16.137V32.273h1.739a1.612,1.612,0,0,1,1.148.475l.951-.951a2.948,2.948,0,0,0-2.1-.869h-.394V28.239a1.338,1.338,0,0,0-.416-.968c.14-.067.28-.132.417-.205Zm1.831-10.136a8.8,8.8,0,0,1-6.119,8.34,1.342,1.342,0,0,0-1.277-.944H11.43a1.342,1.342,0,0,0-1.277.944,8.8,8.8,0,0,1-6.119-8.34V12.506a2.017,2.017,0,0,1,1.2-1.843L8.413,9.25a9.708,9.708,0,0,0,5.176,1.508H19.5a2.02,2.02,0,0,1,2.017,2.017Zm1.345.672h-.03c.015-.223.03-.446.03-.672V16.137a1.345,1.345,0,0,1,0,2.689Zm0-4.034V12.775A3.366,3.366,0,0,0,19.5,9.413H13.589A8.369,8.369,0,0,1,6.611,5.678l-1.119.746A9.751,9.751,0,0,0,7.167,8.33l-2.481,1.1a3.365,3.365,0,0,0-2,3.073v2.286a2.671,2.671,0,0,0-.347.035l-.66-2.311A8.763,8.763,0,0,1,10.108,1.345h5.333a8.765,8.765,0,0,1,8.427,11.171l-.66,2.311a2.693,2.693,0,0,0-.348-.035Z" transform="translate(0)"/>
      </g>
    </g>
  </g>
</svg>
