<svg xmlns="http://www.w3.org/2000/svg" width="61" height="61" viewBox="0 0 61 61">
  <g id="Grupo_1074185" data-name="Grupo 1074185" transform="translate(-2534 5800)">
    <circle id="Elipse_9665" data-name="Elipse 9665" cx="30.5" cy="30.5" r="30.5" transform="translate(2534 -5800)" fill="#2cfedf"/>
    <g id="pruebas" transform="translate(2540.997 -5847.559)">
      <path id="Trazado_826037" data-name="Trazado 826037" d="M133.017,120.692v-.744l.163-.031a.461.461,0,0,0,.376-.454v-1.612l.133-.039a8.49,8.49,0,0,0,1.7-.7l.121-.067,1.139,1.139a.462.462,0,0,0,.59.053,10.455,10.455,0,0,0,2.625-2.625.461.461,0,0,0-.052-.59l-1.139-1.141.067-.121a8.318,8.318,0,0,0,.7-1.7l.039-.133H141.1a.462.462,0,0,0,.454-.379,10.414,10.414,0,0,0,0-3.716.462.462,0,0,0-.454-.379h-1.612l-.039-.133a8.424,8.424,0,0,0-.7-1.7l-.067-.121,1.139-1.139a.462.462,0,0,0,.053-.59,10.427,10.427,0,0,0-2.625-2.628.462.462,0,0,0-.59.053l-1.139,1.139-.121-.067a8.487,8.487,0,0,0-1.7-.7l-.133-.039V99.909a.462.462,0,0,0-.379-.454l-.16-.031v-1.1h31.405v22.37Zm13.553-10.153a.462.462,0,0,0-.462.462v7.374a.462.462,0,0,0,.462.462h7.374a.462.462,0,0,0,.462-.462V111a.462.462,0,0,0-.462-.462Zm16.363,3.8v-.923H156.2v.923Zm0-2.873v-.923H156.2v.923ZM146.57,100.177a.462.462,0,0,0-.462.462v7.376a.462.462,0,0,0,.462.462h7.374a.462.462,0,0,0,.462-.462v-7.376a.462.462,0,0,0-.462-.462Zm16.363,3.8v-.923H156.2v.923Zm0-2.873v-.923H156.2v.923Z" transform="translate(-120.735 -35.185)" fill="#e9e9ff"/>
      <path id="Trazado_826038" data-name="Trazado 826038" d="M271.007,377.421h5.927v1.764h-5.927Z" transform="translate(-245.988 -288.52)" fill="#445ea0"/>
      <path id="Trazado_826039" data-name="Trazado 826039" d="M107.536,98.872a1.28,1.28,0,0,1-1.278-1.278V95.767l.195.011c.2.011.394.017.579.017s.379-.006.579-.017l.195-.011v1.1a.462.462,0,0,0,.462.462H140.6a.462.462,0,0,0,.462-.462V73.57a.462.462,0,0,0-.462-.462H108.266a.462.462,0,0,0-.462.462v1.456l-.195-.011c-.192-.011-.387-.016-.58-.016s-.386.005-.577.016l-.195.011V72.84a1.28,1.28,0,0,1,1.278-1.278h33.789A1.28,1.28,0,0,1,142.6,72.84V97.594a1.28,1.28,0,0,1-1.278,1.278Z" transform="translate(-96.447 -10.895)" fill="#445ea0"/>
      <path id="Trazado_826040" data-name="Trazado 826040" d="M211.763,409.664V408.1a1.568,1.568,0,0,1,1.566-1.566h13.735a1.568,1.568,0,0,1,1.566,1.566v1.564Z" transform="translate(-192.212 -314.946)" fill="#293d7c"/>
      <path id="Trazado_826041" data-name="Trazado 826041" d="M65.169,177.007a5.029,5.029,0,1,1,5.028-5.028A5.035,5.035,0,0,1,65.169,177.007Zm-.312-2.081,1.513-5.654-.892-.239-1.513,5.654ZM61,171.655a.462.462,0,0,0,0,.653l1.865,1.862.652-.653-1.538-1.536,1.538-1.538-.653-.653Zm6.481,2.51,1.862-1.865a.462.462,0,0,0,0-.653l-1.862-1.862-.653.653,1.536,1.536-1.536,1.539Z" transform="translate(-54.584 -97.476)" fill="#e9e9ff"/>
      <path id="Trazado_826042" data-name="Trazado 826042" d="M21.478,137.737a9.533,9.533,0,0,1-1.151-.07l-.162-.02v-1.581a.459.459,0,0,0-.359-.45,7.55,7.55,0,0,1-2.343-.972.461.461,0,0,0-.572.064l-1.117,1.117-.129-.1a9.512,9.512,0,0,1-1.63-1.628l-.1-.129,1.118-1.12a.459.459,0,0,0,.064-.573,7.507,7.507,0,0,1-.971-2.342.459.459,0,0,0-.45-.359H12.094l-.019-.163a9.771,9.771,0,0,1,0-2.3l.019-.163h1.581a.459.459,0,0,0,.45-.359,7.55,7.55,0,0,1,.972-2.343.459.459,0,0,0-.065-.572l-1.117-1.118.1-.129a9.481,9.481,0,0,1,1.63-1.63l.129-.1,1.118,1.117a.462.462,0,0,0,.572.064,7.547,7.547,0,0,1,2.343-.972.459.459,0,0,0,.359-.45v-1.581l.162-.02a9.536,9.536,0,0,1,2.3,0l.162.02v1.581a.459.459,0,0,0,.359.45,7.555,7.555,0,0,1,2.345.972.462.462,0,0,0,.572-.064l1.117-1.117.129.1a9.515,9.515,0,0,1,1.627,1.629l.1.129-1.117,1.118a.459.459,0,0,0-.064.573,7.487,7.487,0,0,1,.971,2.342.459.459,0,0,0,.45.359h1.581l.02.162a9.5,9.5,0,0,1,0,2.3l-.02.162H29.283a.459.459,0,0,0-.45.36,7.386,7.386,0,0,1-.97,2.34.459.459,0,0,0,.063.573l1.118,1.12-.1.129a9.54,9.54,0,0,1-1.627,1.627l-.129.1-1.117-1.117a.461.461,0,0,0-.572-.064,7.555,7.555,0,0,1-2.345.972.459.459,0,0,0-.359.45v1.581l-.162.02a9.5,9.5,0,0,1-1.152.07Zm0-15.428a5.953,5.953,0,1,0,5.952,5.954A5.961,5.961,0,0,0,21.48,122.309Z" transform="translate(-10.895 -53.761)" fill="#0cb4fb"/>
      <path id="Trazado_826043" data-name="Trazado 826043" d="M284.84,134.879v-6.453h6.45v6.453Zm2.028-1.473a.46.46,0,0,0,.35.182h.018a.462.462,0,0,0,.345-.155l2.92-3.294-.691-.613-2.547,2.873-.894-1.178-.736.558Z" transform="translate(-258.544 -62.51)" fill="#43cb8e"/>
      <path id="Trazado_826044" data-name="Trazado 826044" d="M284.84,247.128v-6.45h6.45v6.45Zm1.974-1.321,1.251-1.251,1.251,1.251.653-.653-1.251-1.251,1.251-1.251-.653-.653-1.251,1.251L286.814,242l-.653.653,1.251,1.251-1.251,1.251Z" transform="translate(-258.544 -164.4)" fill="#ed524e"/>
      <path id="Trazado_826045" data-name="Trazado 826045" d="M16.721,74.5a6.137,6.137,0,1,0-6.136,6.136A6.144,6.144,0,0,0,16.721,74.5Zm-10.982,0a4.845,4.845,0,1,1,4.846,4.843A4.852,4.852,0,0,1,5.739,74.5Zm36.644-8.4H35.276V64.808h7.107Zm2.5-6.542H11.09A2.389,2.389,0,0,0,8.7,61.945v2.141l-.011,0a.646.646,0,0,0-.531.636V66.2a8.64,8.64,0,0,0-1.736.72L5.385,65.877a.646.646,0,0,0-.825-.074,10.579,10.579,0,0,0-2.675,2.675.646.646,0,0,0,.074.825L3,70.344a8.63,8.63,0,0,0-.72,1.736H.806a.646.646,0,0,0-.636.531,10.767,10.767,0,0,0,0,3.782.646.646,0,0,0,.636.531H2.28A8.6,8.6,0,0,0,3,78.66L1.958,79.7a.646.646,0,0,0-.073.825A10.605,10.605,0,0,0,4.559,83.2a.646.646,0,0,0,.825-.074l1.041-1.041a8.64,8.64,0,0,0,1.736.72v1.473a.646.646,0,0,0,.531.636l.011,0V86.7a2.389,2.389,0,0,0,2.386,2.386H23.911V90.48H21.117a2.677,2.677,0,0,0-2.674,2.674V95.18a.646.646,0,0,0,.646.646H36.88a.646.646,0,0,0,.646-.646V93.155a2.677,2.677,0,0,0-2.674-2.674h-2.8V89.086H44.879A2.389,2.389,0,0,0,47.265,86.7V61.945a2.389,2.389,0,0,0-2.386-2.386ZM8.952,81.675a7.361,7.361,0,0,1-2.286-.948.646.646,0,0,0-.8.09l-1,1a9.3,9.3,0,0,1-1.6-1.6l1-1a.646.646,0,0,0,.089-.8,7.326,7.326,0,0,1-.948-2.285.646.646,0,0,0-.63-.5H1.362a9.584,9.584,0,0,1,0-2.258H2.779a.646.646,0,0,0,.63-.5,7.362,7.362,0,0,1,.948-2.286.646.646,0,0,0-.09-.8l-1-1a9.273,9.273,0,0,1,1.6-1.6l1,1a.646.646,0,0,0,.8.09,7.365,7.365,0,0,1,2.286-.948.646.646,0,0,0,.5-.63V65.28a9.353,9.353,0,0,1,2.258,0V66.7a.646.646,0,0,0,.5.63,7.372,7.372,0,0,1,2.288.948.646.646,0,0,0,.8-.09l1-1a9.307,9.307,0,0,1,1.6,1.6l-1,1a.646.646,0,0,0-.089.8,7.3,7.3,0,0,1,.947,2.284.646.646,0,0,0,.63.5h1.418a9.309,9.309,0,0,1,0,2.258H18.388a.647.647,0,0,0-.631.5,7.2,7.2,0,0,1-.946,2.282.646.646,0,0,0,.088.8l1,1a9.335,9.335,0,0,1-1.6,1.6l-1-1a.646.646,0,0,0-.8-.09,7.369,7.369,0,0,1-2.288.948.646.646,0,0,0-.5.63v1.418a9.353,9.353,0,0,1-2.258,0V82.305A.646.646,0,0,0,8.952,81.675ZM19.209,79.7l-1.041-1.043a8.484,8.484,0,0,0,.72-1.737h1.472A.646.646,0,0,0,21,76.392a10.6,10.6,0,0,0,0-3.782.646.646,0,0,0-.636-.531H18.887a8.586,8.586,0,0,0-.72-1.736L19.208,69.3a.646.646,0,0,0,.074-.825A10.611,10.611,0,0,0,16.611,65.8a.646.646,0,0,0-.826.074l-1.041,1.041a8.652,8.652,0,0,0-1.738-.72V64.724a.646.646,0,0,0-.531-.636h-.008v-.765H43.5v22H12.466v-.407h.008a.646.646,0,0,0,.531-.636V82.805a8.648,8.648,0,0,0,1.738-.72l1.041,1.041a.646.646,0,0,0,.826.074,10.637,10.637,0,0,0,2.671-2.671A.646.646,0,0,0,19.209,79.7ZM34.852,91.773a1.383,1.383,0,0,1,1.382,1.382v1.379h-16.5V93.154a1.383,1.383,0,0,1,1.382-1.382H34.852ZM25.2,90.48V89.085h5.558V90.48ZM45.972,86.7a1.1,1.1,0,0,1-1.094,1.094H11.09A1.1,1.1,0,0,1,10,86.7V85.067c.2.011.392.017.589.017s.393-.006.589-.017v.9a.646.646,0,0,0,.646.646H44.149a.646.646,0,0,0,.646-.646V62.675a.646.646,0,0,0-.646-.646H11.82a.646.646,0,0,0-.646.646v1.261a10.729,10.729,0,0,0-1.178,0v-1.99a1.1,1.1,0,0,1,1.094-1.094H44.879a1.1,1.1,0,0,1,1.094,1.094V86.7ZM12.012,71.664,10.4,77.675l-1.249-.334,1.608-6.011ZM9.191,76.04l-.913.915-2-1.992a.646.646,0,0,1,0-.914l2-2,.914.914L7.653,74.505Zm2.788-3.079.914-.914,1.993,1.993a.646.646,0,0,1,0,.914l-1.993,2-.915-.913L13.515,74.5Zm13.856.516h7.374a.646.646,0,0,0,.646-.646V65.454a.646.646,0,0,0-.646-.646H25.835a.646.646,0,0,0-.646.646v7.376A.646.646,0,0,0,25.835,73.477Zm.646-7.376h6.081v6.084H26.481Zm15.9,2.873H35.276V67.681h7.107ZM25.835,83.836h7.374a.646.646,0,0,0,.646-.646V75.816a.646.646,0,0,0-.646-.646H25.835a.646.646,0,0,0-.646.646V83.19A.646.646,0,0,0,25.835,83.836Zm.646-7.374h6.081v6.081H26.481Zm5.205,1.79L30.435,79.5l1.251,1.251-.914.914-1.251-1.251-1.251,1.251-.914-.914L28.607,79.5l-1.251-1.251.914-.914,1.251,1.251,1.251-1.251Zm10.7-1.79H35.276V75.17h7.107Zm0,2.873H35.276V78.043h7.107ZM31.251,66.756l.967.857-3.043,3.433a.646.646,0,0,1-.484.218h-.025a.646.646,0,0,1-.49-.255l-1.346-1.773,1.03-.781.87,1.146Z"/>
    </g>
  </g>
</svg>
