<svg xmlns="http://www.w3.org/2000/svg" width="61" height="61" viewBox="0 0 61 61">
  <g id="Grupo_1074184" data-name="Grupo 1074184" transform="translate(-2534 5800)">
    <circle id="Elipse_9665" data-name="Elipse 9665" cx="30.5" cy="30.5" r="30.5" transform="translate(2534 -5800)" fill="#2cfedf"/>
    <g id="proteger" transform="translate(2519.416 -5792)">
      <path id="Trazado_826025" data-name="Trazado 826025" d="M53.91,51.385l-2.024,1.064a1.112,1.112,0,0,1-1.035,0l-2.024-1.064C37.714,45.544,30.871,34.765,30.871,23.1V15.979a1.106,1.106,0,0,1,.981-1.1A8.071,8.071,0,0,0,39.213,8.26a1.118,1.118,0,0,1,1.1-.973h22.1a1.118,1.118,0,0,1,1.1.973,8.071,8.071,0,0,0,7.361,6.615,1.106,1.106,0,0,1,.981,1.1V23.1C71.866,34.765,65.023,45.544,53.91,51.385Z" transform="translate(-6.624 -6.624)" fill="#e1e6e9"/>
      <path id="Trazado_826026" data-name="Trazado 826026" d="M272.409,14.874a8.071,8.071,0,0,1-7.361-6.615,1.118,1.118,0,0,0-1.1-.973h-1.5c.217,4.808,3.643,8.219,7.35,8.61a1.106,1.106,0,0,1,.981,1.1v7.124c0,11.663-6.843,22.441-17.956,28.282l-.234.123a1.11,1.11,0,0,0,.829-.081l2.024-1.064c11.113-5.841,17.956-16.62,17.956-28.282V15.978A1.106,1.106,0,0,0,272.409,14.874Z" transform="translate(-208.148 -6.623)" fill="#cbcbcb"/>
      <path id="Trazado_826027" data-name="Trazado 826027" d="M83.153,79.2A31.841,31.841,0,0,1,71.031,68.2a27.585,27.585,0,0,1-4.367-14.787V49.365a1.427,1.427,0,0,1,.9-1.329A12.53,12.53,0,0,0,74.3,41.843a1.424,1.424,0,0,1,1.288-.807H92.215a1.424,1.424,0,0,1,1.288.807,12.53,12.53,0,0,0,6.738,6.193,1.428,1.428,0,0,1,.9,1.329v4.044A27.585,27.585,0,0,1,96.775,68.2,31.842,31.842,0,0,1,84.653,79.2l-.084.044a1.432,1.432,0,0,1-1.332,0Z" transform="translate(-39.158 -37.3)" fill="#4ad194"/>
      <path id="Trazado_826028" data-name="Trazado 826028" d="M272.34,48.036l-.07-.029-.116-.048-.2-.084-.113-.049-.209-.1-.094-.044q-.15-.071-.3-.145l-.022-.011q-.136-.069-.271-.142l-.095-.052-.195-.109-.107-.062-.181-.108-.1-.064-.187-.118-.091-.058q-.127-.083-.252-.169l-.019-.013q-.134-.093-.266-.189l-.081-.061-.18-.135-.1-.074-.163-.13-.094-.077-.165-.139-.084-.072q-.1-.088-.2-.178l-.041-.037q-.119-.109-.234-.221l-.066-.065c-.055-.054-.109-.108-.163-.163l-.082-.084-.143-.151-.082-.089q-.071-.078-.14-.156l-.075-.085q-.082-.094-.161-.19l-.046-.055q-.1-.124-.2-.25l-.05-.065q-.073-.095-.144-.191l-.067-.093q-.061-.084-.121-.17l-.069-.1q-.058-.086-.115-.173l-.063-.1c-.042-.066-.083-.132-.124-.2l-.045-.073q-.083-.136-.161-.275l-.033-.059q-.062-.11-.121-.221l-.052-.1c-.032-.062-.064-.125-.1-.187l-.053-.108-.04-.082a1.424,1.424,0,0,0-1.288-.807H256V79.412a1.431,1.431,0,0,0,.666-.164l.084-.044a31.841,31.841,0,0,0,12.122-11.009,27.585,27.585,0,0,0,4.367-14.787V49.364A1.427,1.427,0,0,0,272.34,48.036Z" transform="translate(-211.256 -37.299)" fill="#35b79e"/>
      <path id="Trazado_826029" data-name="Trazado 826029" d="M272.34,48.036l-.07-.029-.116-.048-.2-.084-.113-.049-.209-.1-.094-.044q-.15-.071-.3-.145l-.022-.011q-.136-.069-.271-.142l-.095-.052-.195-.109-.107-.062-.181-.108-.1-.064-.187-.118-.091-.058q-.127-.083-.252-.169l-.019-.013q-.134-.093-.266-.189l-.081-.061-.18-.135-.1-.074-.163-.13-.094-.077-.165-.139-.084-.072q-.1-.088-.2-.178l-.041-.037q-.119-.109-.234-.221l-.066-.065c-.055-.054-.109-.108-.163-.163l-.082-.084-.143-.151-.082-.089q-.071-.078-.14-.156l-.075-.085c-.054-.063-.108-.126-.161-.19l-.046-.055q-.1-.124-.2-.25l-.05-.065q-.073-.095-.144-.191l-.067-.093q-.061-.084-.121-.17l-.069-.1q-.058-.086-.115-.173l-.063-.1c-.042-.066-.083-.132-.124-.2l-.045-.073q-.083-.136-.161-.275l-.033-.059c-.041-.073-.082-.147-.121-.221l-.052-.1q-.049-.093-.1-.187l-.053-.108-.04-.082a1.425,1.425,0,0,0-1.288-.807h-2.3a12.772,12.772,0,0,1,1.011,1.526c.015.026.027.055.04.082l.053.108q.047.094.1.187l.052.1q.059.111.121.221l.033.059q.079.139.162.275l.045.073q.061.1.124.2l.063.1q.057.087.115.173l.069.1q.059.085.121.17l.067.093c.047.064.1.127.144.191l.05.065q.1.126.2.25l.046.055q.079.1.161.19l.075.085q.069.079.14.156l.082.089.143.151.082.084c.054.055.108.109.163.163l.066.065q.116.112.234.221l.041.037q.1.09.2.178l.084.072.165.139.094.077.163.13.1.074.18.135.081.061q.132.1.266.189l.019.013q.125.086.252.169l.091.058.187.118.1.064.181.108.107.062.195.109.095.052q.134.072.271.142l.022.011q.147.075.3.145l.094.044.209.1.113.049.2.084.116.048.07.029a1.427,1.427,0,0,1,.9,1.329v4.044A27.585,27.585,0,0,1,266.3,68.913,33.974,33.974,0,0,1,256,79.374v.038a1.431,1.431,0,0,0,.666-.164l.084-.044a31.841,31.841,0,0,0,12.122-11.009,27.585,27.585,0,0,0,4.367-14.787V49.364A1.427,1.427,0,0,0,272.34,48.036Z" transform="translate(-211.256 -37.299)" fill="#1e9690"/>
      <path id="Trazado_826030" data-name="Trazado 826030" d="M173.807,201.544H158.66a1.446,1.446,0,0,1-1.446-1.446v-9.5a1.446,1.446,0,0,1,1.446-1.446h15.147a1.446,1.446,0,0,1,1.446,1.446v9.5A1.446,1.446,0,0,1,173.807,201.544Z" transform="translate(-121.463 -171.93)" fill="#636a75"/>
      <path id="Trazado_826031" data-name="Trazado 826031" d="M313.314,189.152H310.7a1.446,1.446,0,0,1,1.446,1.446v9.5a1.446,1.446,0,0,1-1.446,1.446h2.619a1.446,1.446,0,0,0,1.446-1.446v-9.5A1.446,1.446,0,0,0,313.314,189.152Z" transform="translate(-260.97 -171.93)" fill="#515a66"/>
      <path id="Trazado_826032" data-name="Trazado 826032" d="M240.1,235.212V237.1a.663.663,0,1,0,1.327,0v-1.889a1.554,1.554,0,1,0-1.327,0Z" transform="translate(-195.997 -211.109)"/>
      <path id="Trazado_826033" data-name="Trazado 826033" d="M76.222,73.168h0l.084.044a2.1,2.1,0,0,0,1.95,0l.084-.044a32.505,32.505,0,0,0,12.373-11.24,28.248,28.248,0,0,0,4.47-15.143V42.742A2.079,2.079,0,0,0,93.864,40.8a11.8,11.8,0,0,1-6.383-5.861,2.1,2.1,0,0,0-1.887-1.186H68.968a2.1,2.1,0,0,0-1.887,1.186A11.8,11.8,0,0,1,60.7,40.8a2.079,2.079,0,0,0-1.319,1.945v4.044a28.247,28.247,0,0,0,4.47,15.143A32.5,32.5,0,0,0,76.222,73.168ZM60.706,46.785V42.742a.76.76,0,0,1,.48-.712,13.118,13.118,0,0,0,7.093-6.525.763.763,0,0,1,.689-.429H85.594a.764.764,0,0,1,.689.429,13.12,13.12,0,0,0,7.093,6.525.76.76,0,0,1,.48.712v4.044a26.923,26.923,0,0,1-4.263,14.432,31.179,31.179,0,0,1-11.87,10.777l-.084.044a.768.768,0,0,1-.715,0l-.084-.044a31.178,31.178,0,0,1-11.87-10.777A26.923,26.923,0,0,1,60.706,46.785Z" transform="translate(-32.536 -30.676)"/>
      <path id="Trazado_826034" data-name="Trazado 826034" d="M71.9,245.541a.663.663,0,0,0-.793.5A32.4,32.4,0,0,1,54.225,267.31L52.2,268.374a.449.449,0,0,1-.417,0L49.76,267.31a32.387,32.387,0,0,1-16.892-21.305.663.663,0,1,0-1.295.291,33.709,33.709,0,0,0,17.569,22.189l2.024,1.064a1.775,1.775,0,0,0,1.652,0l2.024-1.064a33.719,33.719,0,0,0,17.56-22.15A.664.664,0,0,0,71.9,245.541Z" transform="translate(-7.247 -223.136)"/>
      <path id="Trazado_826035" data-name="Trazado 826035" d="M64.331,7.591a7.379,7.379,0,0,1-6.774-6.047A1.792,1.792,0,0,0,55.8,0h-22.1a1.792,1.792,0,0,0-1.76,1.544,7.379,7.379,0,0,1-6.774,6.047,1.764,1.764,0,0,0-1.575,1.764v7.124a30.539,30.539,0,0,0,.159,3.111.664.664,0,0,0,.659.6.672.672,0,0,0,.069,0,.663.663,0,0,0,.592-.728,29.215,29.215,0,0,1-.153-2.975V9.355a.445.445,0,0,1,.387-.444,8.7,8.7,0,0,0,7.949-7.182.454.454,0,0,1,.446-.4H55.8a.454.454,0,0,1,.446.4,8.7,8.7,0,0,0,7.949,7.182.445.445,0,0,1,.387.444v7.124a29.224,29.224,0,0,1-.149,2.944.663.663,0,0,0,1.32.134,30.545,30.545,0,0,0,.156-3.079V9.355A1.763,1.763,0,0,0,64.331,7.591Z"/>
      <path id="Trazado_826036" data-name="Trazado 826036" d="M167.183,99.253a2.112,2.112,0,0,0,2.11-2.11v-9.5a2.112,2.112,0,0,0-2.11-2.11h-1.091V82.367a6.482,6.482,0,0,0-12.965,0v3.167h-1.091a2.112,2.112,0,0,0-2.11,2.11v9.5a2.112,2.112,0,0,0,2.11,2.11ZM154.455,82.367a5.156,5.156,0,0,1,10.311,0v3.167H154.455Zm-3.2,14.776v-9.5a.784.784,0,0,1,.783-.783h15.147a.784.784,0,0,1,.783.783v9.5a.784.784,0,0,1-.783.783H152.037A.784.784,0,0,1,151.254,97.143Z" transform="translate(-114.84 -68.976)"/>
    </g>
  </g>
</svg>
