<svg xmlns="http://www.w3.org/2000/svg" width="61" height="61" viewBox="0 0 61 61">
  <g id="Grupo_1074187" data-name="Grupo 1074187" transform="translate(-3164 5800)">
    <circle id="Elipse_9665" data-name="Elipse 9665" cx="30.5" cy="30.5" r="30.5" transform="translate(3164 -5800)" fill="#2cfedf"/>
    <g id="Layer_3" data-name="Layer 3" transform="translate(3172.047 -5791.954)">
      <circle id="Elipse_9834" data-name="Elipse 9834" cx="5.73" cy="5.73" r="5.73" transform="translate(33.651 3.568)" fill="#d6e4e8"/>
      <circle id="Elipse_9835" data-name="Elipse 9835" cx="5.73" cy="5.73" r="5.73" transform="translate(0.703 32.219)" fill="#d6e4e8"/>
      <circle id="Elipse_9836" data-name="Elipse 9836" cx="5.73" cy="5.73" r="5.73" transform="translate(0.703 0.703)" fill="#d6e4e8"/>
      <path id="Trazado_826046" data-name="Trazado 826046" d="M8.874,10.609A5.725,5.725,0,0,1,3.9,2.049,5.73,5.73,0,1,0,11.7,9.856,5.7,5.7,0,0,1,8.874,10.609Z" transform="translate(-0.292 -0.594)" fill="#baced3"/>
      <path id="Trazado_826047" data-name="Trazado 826047" d="M48.9,46.87,37.58,35.553a1.433,1.433,0,0,1-.179-1.8A12.189,12.189,0,1,0,33.748,37.4a1.433,1.433,0,0,1,1.8.179L46.927,48.947a1.428,1.428,0,0,0,2.177-.179,1.493,1.493,0,0,0-.208-1.9ZM27.166,36.477a9.311,9.311,0,1,1,9.311-9.311A9.311,9.311,0,0,1,27.166,36.477Z" transform="translate(-4.259 -4.258)" fill="#8e969b"/>
      <path id="Trazado_826048" data-name="Trazado 826048" d="M37.59,36.579a1.425,1.425,0,0,1-.287-.408,1.441,1.441,0,0,0-1.4.107,12.121,12.121,0,0,1-8.029,1.855,11.967,11.967,0,0,1-4.205-1.317,9.338,9.338,0,0,1-5.106-5.08,11.861,11.861,0,0,1-1.319-4.125,12.151,12.151,0,0,1,2.463-9.033A12.17,12.17,0,0,0,33.758,38.427a1.433,1.433,0,0,1,1.8.179L46.937,49.973a1.428,1.428,0,0,0,2.177-.179,1.493,1.493,0,0,0-.208-1.9Z" transform="translate(-4.268 -5.284)" fill="#778084"/>
      <circle id="Elipse_9837" data-name="Elipse 9837" cx="2.149" cy="2.149" r="2.149" transform="translate(20.758 16.461)" fill="#fcab68"/>
      <path id="Trazado_826049" data-name="Trazado 826049" d="M30.433,25.149a2.142,2.142,0,0,1,1.433-2.017A2.122,2.122,0,0,0,31.149,23a2.149,2.149,0,1,0,0,4.3,2.122,2.122,0,0,0,.716-.132,2.142,2.142,0,0,1-1.433-2.017Z" transform="translate(-8.242 -6.539)" fill="#ea8e49"/>
      <circle id="Elipse_9838" data-name="Elipse 9838" cx="1.433" cy="1.433" r="1.433" transform="translate(37.949 5.717)" fill="#fcab68"/>
      <path id="Trazado_826050" data-name="Trazado 826050" d="M30.014,29A5.014,5.014,0,0,0,25,34.014v1.279a1.45,1.45,0,0,0,.829,1.3,9.275,9.275,0,0,0,8.369,0,1.45,1.45,0,0,0,.829-1.3V34.014A5.014,5.014,0,0,0,30.014,29Z" transform="translate(-7.107 -8.241)" fill="#fcab68"/>
      <path id="Trazado_826051" data-name="Trazado 826051" d="M28.988,35.1a2.836,2.836,0,0,1-1.839-2.681v-.327a4.988,4.988,0,0,1,.563-2.3A5.01,5.01,0,0,0,25,34.237v1.279a1.45,1.45,0,0,0,.829,1.3,9.275,9.275,0,0,0,8.369,0,1.45,1.45,0,0,0,.829-1.3v-.327a9.049,9.049,0,0,1-6.04-.093Z" transform="translate(-7.107 -8.464)" fill="#ea8e49"/>
      <g id="Grupo_1074186" data-name="Grupo 1074186" transform="translate(3.568 2.852)">
        <path id="Trazado_826052" data-name="Trazado 826052" d="M56.022,15.891a5.933,5.933,0,0,1-4.315,0A1.1,1.1,0,0,1,51,14.865a2.865,2.865,0,1,1,5.73,0A1.1,1.1,0,0,1,56.022,15.891Z" transform="translate(-18.052 -6.27)" fill="#fcab68"/>
        <circle id="Elipse_9839" data-name="Elipse 9839" cx="1.433" cy="1.433" r="1.433" transform="translate(1.433 31.516)" fill="#fcab68"/>
        <path id="Trazado_826053" data-name="Trazado 826053" d="M10.022,55.891a5.934,5.934,0,0,1-4.315,0A1.1,1.1,0,0,1,5,54.865a2.865,2.865,0,1,1,5.73,0,1.1,1.1,0,0,1-.708,1.026Z" transform="translate(-5 -17.619)" fill="#fcab68"/>
        <circle id="Elipse_9840" data-name="Elipse 9840" cx="1.433" cy="1.433" r="1.433" transform="translate(1.433)" fill="#fcab68"/>
        <path id="Trazado_826054" data-name="Trazado 826054" d="M10.022,11.891a5.934,5.934,0,0,1-4.315,0A1.1,1.1,0,0,1,5,10.865a2.865,2.865,0,0,1,5.73,0A1.1,1.1,0,0,1,10.022,11.891Z" transform="translate(-5 -5.135)" fill="#fcab68"/>
      </g>
      <path id="Trazado_826055" data-name="Trazado 826055" d="M8.949,12.88a5.73,5.73,0,0,1-3.712-2.466A2.858,2.858,0,0,0,5,11.55a1.1,1.1,0,0,0,.708,1.026,5.921,5.921,0,0,0,3.241.3Z" transform="translate(-1.432 -2.968)" fill="#ea8e49"/>
      <path id="Trazado_826056" data-name="Trazado 826056" d="M54.874,14.609A5.725,5.725,0,0,1,49.9,6.049,5.73,5.73,0,1,0,57.7,13.856,5.7,5.7,0,0,1,54.874,14.609Z" transform="translate(-13.344 -1.729)" fill="#baced3"/>
      <path id="Trazado_826057" data-name="Trazado 826057" d="M54.949,16.88a5.73,5.73,0,0,1-3.712-2.466A2.858,2.858,0,0,0,51,15.55a1.1,1.1,0,0,0,.708,1.026,5.921,5.921,0,0,0,3.241.3Z" transform="translate(-14.484 -4.103)" fill="#ea8e49"/>
      <path id="Trazado_826058" data-name="Trazado 826058" d="M8.874,54.609A5.725,5.725,0,0,1,3.9,46.049,5.73,5.73,0,1,0,11.7,53.856a5.7,5.7,0,0,1-2.829.753Z" transform="translate(-0.292 -13.079)" fill="#baced3"/>
      <path id="Trazado_826059" data-name="Trazado 826059" d="M8.949,56.88a5.73,5.73,0,0,1-3.712-2.466A2.858,2.858,0,0,0,5,55.55a1.1,1.1,0,0,0,.708,1.026,5.921,5.921,0,0,0,3.241.3Z" transform="translate(-1.432 -15.452)" fill="#ea8e49"/>
      <circle id="Elipse_9841" data-name="Elipse 9841" cx="2.149" cy="2.149" r="2.149" transform="translate(20.758 3.568)" fill="#fcab68"/>
      <circle id="Elipse_9842" data-name="Elipse 9842" cx="2.149" cy="2.149" r="2.149" transform="translate(37.949 25.056)" fill="#fcab68"/>
      <circle id="Elipse_9843" data-name="Elipse 9843" cx="2.149" cy="2.149" r="2.149" transform="translate(23.623 37.949)" fill="#fcab68"/>
      <circle id="Elipse_9844" data-name="Elipse 9844" cx="2.149" cy="2.149" r="2.149" transform="translate(3.568 20.759)" fill="#fcab68"/>
      <path id="Trazado_826060" data-name="Trazado 826060" d="M35.929,21.855a.716.716,0,1,0-1.128.883,8.508,8.508,0,0,1,1.819,5.289,8.6,8.6,0,1,1-3.967-7.244.717.717,0,0,0,.772-1.208,10.034,10.034,0,1,0,2.507,2.28Z" transform="translate(-5.118 -5.119)"/>
      <path id="Trazado_826061" data-name="Trazado 826061" d="M33.826,30.786a.723.723,0,0,1-.082-.91,12.8,12.8,0,0,0,1.67-3.854l1.844.923c-.008.087-.027.171-.027.26a2.874,2.874,0,1,0,.507-1.622l-2.049-1.024a13.087,13.087,0,0,0,.019-3.182,12.663,12.663,0,0,0-1.972-5.424l1.624-1.624a6.463,6.463,0,1,0-1.013-1.013l-1.462,1.462a12.86,12.86,0,0,0-8.321-4.661c-.315-.039-.63-.063-.943-.08V8.48a2.865,2.865,0,1,0-1.433,0v1.558a12.812,12.812,0,0,0-7.879,3.26l-2.846-2.846a6.463,6.463,0,1,0-1.013,1.013L13.3,14.312a12.821,12.821,0,0,0-3.261,7.879H8.48a2.865,2.865,0,1,0,0,1.433h1.558c.016.314.041.628.08.943A12.678,12.678,0,0,0,12.665,30.7l-2.213,2.213a6.463,6.463,0,1,0,1.013,1.013L13.6,31.794a12.848,12.848,0,0,0,7.776,3.917,13.166,13.166,0,0,0,2.4.058l.478,1.911a2.854,2.854,0,1,0,1.523-.447c-.052,0-.1.013-.153.016L25.2,35.587a12.75,12.75,0,0,0,4.673-1.843.721.721,0,0,1,.91.082L42.159,45.2a2.144,2.144,0,0,0,1.519.63,1.414,1.414,0,0,0,.174-.007,2.155,2.155,0,0,0,1.576-.895,2.208,2.208,0,0,0-.287-2.821ZM40.1,25.772A1.433,1.433,0,1,1,38.665,27.2,1.433,1.433,0,0,1,40.1,25.772ZM39.381,4.285A5.014,5.014,0,1,1,34.367,9.3a5.014,5.014,0,0,1,5.014-5.014ZM6.433,42.963a5.014,5.014,0,1,1,5.014-5.014,5.014,5.014,0,0,1-5.014,5.014ZM27.2,40.1a1.433,1.433,0,1,1-1.433-1.433A1.433,1.433,0,0,1,27.2,40.1ZM21.475,5.717A1.433,1.433,0,1,1,22.907,7.15,1.433,1.433,0,0,1,21.475,5.717ZM6.433,11.447a5.014,5.014,0,1,1,5.014-5.014A5.014,5.014,0,0,1,6.433,11.447ZM5.717,24.34a1.433,1.433,0,1,1,1.433-1.433A1.433,1.433,0,0,1,5.717,24.34Zm38.55,19.749a.716.716,0,0,1-.529.3.7.7,0,0,1-.565-.208L31.8,32.813a2.124,2.124,0,0,0-1.509-.627,2.193,2.193,0,0,0-1.191.358A11.488,11.488,0,1,1,32.541,29.1a2.144,2.144,0,0,0,.272,2.7L44.13,43.117a.776.776,0,0,1,.137.972Z" transform="translate(0 0)"/>
      <path id="Trazado_826062" data-name="Trazado 826062" d="M24,32.028v1.279a2.176,2.176,0,0,0,1.237,1.951,10,10,0,0,0,8.986,0,2.175,2.175,0,0,0,1.238-1.951V32.028a5.736,5.736,0,0,0-3.568-5.3,2.865,2.865,0,1,0-4.323,0A5.736,5.736,0,0,0,24,32.028Zm4.3-7.163A1.433,1.433,0,1,1,29.73,26.3,1.433,1.433,0,0,1,28.3,24.865ZM29.73,27.73a4.3,4.3,0,0,1,4.3,4.3v1.279a.736.736,0,0,1-.421.658,8.519,8.519,0,0,1-7.753,0,.736.736,0,0,1-.421-.658V32.028a4.3,4.3,0,0,1,4.3-4.3Z" transform="translate(-6.823 -6.255)"/>
      <path id="Trazado_826063" data-name="Trazado 826063" d="M51.172,15.142a6.661,6.661,0,0,0,4.819,0,1.821,1.821,0,0,0,1.172-1.7,3.569,3.569,0,0,0-1.8-3.091,2.149,2.149,0,1,0-3.553,0A3.569,3.569,0,0,0,50,13.445,1.821,1.821,0,0,0,51.172,15.142Zm1.693-5.994a.716.716,0,1,1,.716.716A.716.716,0,0,1,52.865,9.148Zm.716,2.149a2.149,2.149,0,0,1,2.149,2.149.381.381,0,0,1-.244.358,5.192,5.192,0,0,1-3.81,0,.381.381,0,0,1-.244-.358A2.149,2.149,0,0,1,53.581,11.3Z" transform="translate(-14.2 -1.998)"/>
      <path id="Trazado_826064" data-name="Trazado 826064" d="M9.358,50.355a2.149,2.149,0,1,0-3.553,0A3.569,3.569,0,0,0,4,53.445a1.821,1.821,0,0,0,1.172,1.7,6.661,6.661,0,0,0,4.819,0,1.821,1.821,0,0,0,1.172-1.7,3.569,3.569,0,0,0-1.8-3.091ZM6.865,49.148a.716.716,0,1,1,.716.716.716.716,0,0,1-.716-.716ZM9.487,53.8a5.192,5.192,0,0,1-3.81,0,.381.381,0,0,1-.244-.358,2.149,2.149,0,0,1,4.3,0,.381.381,0,0,1-.244.358Z" transform="translate(-1.148 -13.348)"/>
      <path id="Trazado_826065" data-name="Trazado 826065" d="M9.358,6.355a2.149,2.149,0,1,0-3.553,0A3.569,3.569,0,0,0,4,9.445a1.821,1.821,0,0,0,1.172,1.7,6.661,6.661,0,0,0,4.819,0,1.821,1.821,0,0,0,1.172-1.7,3.569,3.569,0,0,0-1.8-3.091ZM6.865,5.148a.716.716,0,1,1,.716.716.716.716,0,0,1-.716-.716ZM9.487,9.8a5.192,5.192,0,0,1-3.81,0,.381.381,0,0,1-.244-.358,2.149,2.149,0,0,1,4.3,0,.381.381,0,0,1-.244.358Z" transform="translate(-1.148 -0.863)"/>
      <path id="Trazado_826066" data-name="Trazado 826066" d="M39.149,19.441a.716.716,0,0,1-.382-.11,10.039,10.039,0,0,0-1.337-.709A.716.716,0,1,1,38,17.308a11.554,11.554,0,0,1,1.528.81.716.716,0,0,1-.382,1.322Z" transform="translate(-10.512 -4.907)" fill="#fff"/>
    </g>
  </g>
</svg>
