<svg xmlns="http://www.w3.org/2000/svg" width="61" height="61" viewBox="0 0 61 61">
  <g id="Grupo_1074191" data-name="Grupo 1074191" transform="translate(-3794 5800)">
    <circle id="Elipse_9665" data-name="Elipse 9665" cx="30.5" cy="30.5" r="30.5" transform="translate(3794 -5800)" fill="#2cfedf"/>
    <g id="Computer-Network-Intranet-Communication-Technology" transform="translate(3803 -5790)">
      <path id="Trazado_826104" data-name="Trazado 826104" d="M53.966,49v1.3a1.3,1.3,0,0,1-1.3,1.3H42.3A1.3,1.3,0,0,1,41,50.3V49Z" transform="translate(-13.716 -16.53)" fill="#d8d7da"/>
      <path id="Trazado_826105" data-name="Trazado 826105" d="M53.966,40.3v5.186H41V40.3A1.3,1.3,0,0,1,42.3,39H52.67a1.29,1.29,0,0,1,1.186.784A1.232,1.232,0,0,1,53.966,40.3Z" transform="translate(-13.716 -13.013)" fill="#5aaae7"/>
      <path id="Trazado_826106" data-name="Trazado 826106" d="M53.966,13v1.3a1.3,1.3,0,0,1-1.3,1.3H42.3A1.3,1.3,0,0,1,41,14.3V13Z" transform="translate(-13.716 -3.869)" fill="#d8d7da"/>
      <path id="Trazado_826107" data-name="Trazado 826107" d="M53.966,4.3V9.483H41V4.3A1.3,1.3,0,0,1,42.3,3H52.67a1.29,1.29,0,0,1,1.186.784A1.232,1.232,0,0,1,53.966,4.3Z" transform="translate(-13.716 -0.352)" fill="#5aaae7"/>
      <path id="Trazado_826108" data-name="Trazado 826108" d="M52.483,58.3v1.3H46V58.3A1.3,1.3,0,0,1,47.3,57h3.89A1.3,1.3,0,0,1,52.483,58.3Z" transform="translate(-15.474 -19.343)" fill="#898890"/>
      <path id="Trazado_826109" data-name="Trazado 826109" d="M52.483,22.3v1.3H46V22.3A1.3,1.3,0,0,1,47.3,21h3.89A1.3,1.3,0,0,1,52.483,22.3Z" transform="translate(-15.474 -6.682)" fill="#898890"/>
      <path id="Trazado_826110" data-name="Trazado 826110" d="M48,53h3.89v2.593H48Z" transform="translate(-16.178 -17.936)" fill="#acabb1"/>
      <path id="Trazado_826111" data-name="Trazado 826111" d="M48,17h3.89v2.593H48Z" transform="translate(-16.178 -5.275)" fill="#acabb1"/>
      <circle id="Elipse_9845" data-name="Elipse 9845" cx="1.5" cy="1.5" r="1.5" transform="translate(20 19.898)" fill="#ff9811"/>
      <path id="Trazado_826112" data-name="Trazado 826112" d="M15.966,49v1.3a1.3,1.3,0,0,1-1.3,1.3H4.3A1.3,1.3,0,0,1,3,50.3V49Z" transform="translate(-0.352 -16.53)" fill="#d8d7da"/>
      <path id="Trazado_826113" data-name="Trazado 826113" d="M15.966,40.3v5.186H3V40.3A1.3,1.3,0,0,1,4.3,39H14.67a1.29,1.29,0,0,1,1.186.784A1.232,1.232,0,0,1,15.966,40.3Z" transform="translate(-0.352 -13.013)" fill="#5aaae7"/>
      <path id="Trazado_826114" data-name="Trazado 826114" d="M15.966,13v1.3a1.3,1.3,0,0,1-1.3,1.3H4.3A1.3,1.3,0,0,1,3,14.3V13Z" transform="translate(-0.352 -3.869)" fill="#d8d7da"/>
      <path id="Trazado_826115" data-name="Trazado 826115" d="M15.966,4.3V9.483H3V4.3A1.3,1.3,0,0,1,4.3,3H14.67a1.29,1.29,0,0,1,1.186.784A1.232,1.232,0,0,1,15.966,4.3Z" transform="translate(-0.352 -0.352)" fill="#5aaae7"/>
      <path id="Trazado_826116" data-name="Trazado 826116" d="M14.483,58.3v1.3H8V58.3A1.3,1.3,0,0,1,9.3,57h3.89A1.3,1.3,0,0,1,14.483,58.3Z" transform="translate(-2.11 -19.343)" fill="#898890"/>
      <path id="Trazado_826117" data-name="Trazado 826117" d="M14.483,22.3v1.3H8V22.3A1.3,1.3,0,0,1,9.3,21h3.89A1.3,1.3,0,0,1,14.483,22.3Z" transform="translate(-2.11 -6.682)" fill="#898890"/>
      <path id="Trazado_826118" data-name="Trazado 826118" d="M10,53h3.89v2.593H10Z" transform="translate(-2.814 -17.936)" fill="#acabb1"/>
      <path id="Trazado_826119" data-name="Trazado 826119" d="M10,17h3.89v2.593H10Z" transform="translate(-2.814 -5.275)" fill="#acabb1"/>
      <path id="Trazado_826120" data-name="Trazado 826120" d="M57.564,40.722v5.186H51.23a14.283,14.283,0,0,0,6.224-5.7,1.232,1.232,0,0,1,.11.512Z" transform="translate(-17.314 -13.438)" fill="#3d9ae2"/>
      <path id="Trazado_826121" data-name="Trazado 826121" d="M57.564,4.722V9.909H51.23a14.283,14.283,0,0,0,6.224-5.7A1.232,1.232,0,0,1,57.564,4.722Z" transform="translate(-17.314 -0.777)" fill="#3d9ae2"/>
      <path id="Trazado_826122" data-name="Trazado 826122" d="M19.564,40.722v5.186H13.23a14.283,14.283,0,0,0,6.224-5.7,1.232,1.232,0,0,1,.11.512Z" transform="translate(-3.95 -13.438)" fill="#3d9ae2"/>
      <path id="Trazado_826123" data-name="Trazado 826123" d="M19.564,4.722V9.909H13.23a14.283,14.283,0,0,0,6.224-5.7A1.232,1.232,0,0,1,19.564,4.722Z" transform="translate(-3.95 -0.777)" fill="#3d9ae2"/>
      <g id="Grupo_1074190" data-name="Grupo 1074190" transform="translate(7.186 11.725)">
        <path id="Trazado_826124" data-name="Trazado 826124" d="M10,17h3.89v1.3H10Z" transform="translate(-10 -17)" fill="#898890"/>
        <path id="Trazado_826125" data-name="Trazado 826125" d="M48,17h3.89v1.3H48Z" transform="translate(-23.364 -17)" fill="#898890"/>
        <path id="Trazado_826126" data-name="Trazado 826126" d="M48,53h3.89v1.3H48Z" transform="translate(-23.364 -29.661)" fill="#898890"/>
        <path id="Trazado_826127" data-name="Trazado 826127" d="M10,53h3.89v1.3H10Z" transform="translate(-10 -29.661)" fill="#898890"/>
      </g>
      <path id="Trazado_826128" data-name="Trazado 826128" d="M52.318,38H41.945A1.945,1.945,0,0,0,40,39.945v6.483a1.945,1.945,0,0,0,1.945,1.945h2.593v1.416a1.945,1.945,0,0,0-1.3,1.826v1.3a.648.648,0,0,0,.648.648h6.483a.648.648,0,0,0,.648-.648v-1.3a1.945,1.945,0,0,0-1.3-1.826V48.373h2.593a1.945,1.945,0,0,0,1.945-1.945V39.945A1.945,1.945,0,0,0,52.318,38ZM41.945,39.3H52.318a.648.648,0,0,1,.648.648v4.538H41.3V39.945A.648.648,0,0,1,41.945,39.3Zm7.78,12.966H44.538v-.648a.648.648,0,0,1,.648-.648h3.89a.648.648,0,0,1,.648.648Zm-1.3-2.593H45.835v-1.3h2.593Zm3.89-2.593H41.945a.648.648,0,0,1-.648-.648V45.78h11.67v.648A.648.648,0,0,1,52.318,47.076Z" transform="translate(-13.364 -12.661)"/>
      <path id="Trazado_826129" data-name="Trazado 826129" d="M52.318,2H41.945A1.945,1.945,0,0,0,40,3.945v6.483a1.945,1.945,0,0,0,1.945,1.945h2.593v1.416a1.945,1.945,0,0,0-1.3,1.826v1.3a.648.648,0,0,0,.648.648h6.483a.648.648,0,0,0,.648-.648v-1.3a1.945,1.945,0,0,0-1.3-1.826V12.373h2.593a1.945,1.945,0,0,0,1.945-1.945V3.945A1.945,1.945,0,0,0,52.318,2ZM41.945,3.3H52.318a.648.648,0,0,1,.648.648V8.483H41.3V3.945A.648.648,0,0,1,41.945,3.3Zm7.78,12.966H44.538v-.648a.648.648,0,0,1,.648-.648h3.89a.648.648,0,0,1,.648.648Zm-1.3-2.593H45.835v-1.3h2.593Zm3.89-2.593H41.945a.648.648,0,0,1-.648-.648V9.78h11.67v.648A.648.648,0,0,1,52.318,11.076Z" transform="translate(-13.364)"/>
      <path id="Trazado_826130" data-name="Trazado 826130" d="M14.318,38H3.945A1.945,1.945,0,0,0,2,39.945v6.483a1.945,1.945,0,0,0,1.945,1.945H6.538v1.416a1.945,1.945,0,0,0-1.3,1.826v1.3a.648.648,0,0,0,.648.648h6.483a.648.648,0,0,0,.648-.648v-1.3a1.945,1.945,0,0,0-1.3-1.826V48.373h2.593a1.945,1.945,0,0,0,1.945-1.945V39.945A1.945,1.945,0,0,0,14.318,38ZM3.945,39.3H14.318a.648.648,0,0,1,.648.648v4.538H3.3V39.945A.648.648,0,0,1,3.945,39.3Zm7.78,12.966H6.538v-.648a.648.648,0,0,1,.648-.648h3.89a.648.648,0,0,1,.648.648Zm-1.3-2.593H7.835v-1.3h2.593Zm3.89-2.593H3.945a.648.648,0,0,1-.648-.648V45.78h11.67v.648A.648.648,0,0,1,14.318,47.076Z" transform="translate(0 -12.661)"/>
      <path id="Trazado_826131" data-name="Trazado 826131" d="M3.945,12.373H6.538v1.416a1.945,1.945,0,0,0-1.3,1.826v1.3a.648.648,0,0,0,.648.648h6.483a.648.648,0,0,0,.648-.648v-1.3a1.945,1.945,0,0,0-1.3-1.826V12.373h2.593a1.945,1.945,0,0,0,1.945-1.945V3.945A1.945,1.945,0,0,0,14.318,2H3.945A1.945,1.945,0,0,0,2,3.945v6.483a1.945,1.945,0,0,0,1.945,1.945Zm7.78,3.89H6.538v-.648a.648.648,0,0,1,.648-.648h3.89a.648.648,0,0,1,.648.648Zm-1.3-2.593H7.835v-1.3h2.593Zm3.89-2.593H3.945a.648.648,0,0,1-.648-.648V9.78h11.67v.648A.648.648,0,0,1,14.318,11.076ZM3.945,3.3H14.318a.648.648,0,0,1,.648.648V8.483H3.3V3.945A.648.648,0,0,1,3.945,3.3Z" transform="translate(0)"/>
      <path id="Trazado_826132" data-name="Trazado 826132" d="M29.242,21.021h1.3V11.3H33.78V10H26v1.3h3.242Z" transform="translate(-8.441 -2.814)"/>
      <path id="Trazado_826133" data-name="Trazado 826133" d="M30.538,37h-1.3v9.725H26v1.3h7.78v-1.3H30.538Z" transform="translate(-8.441 -12.309)"/>
      <path id="Trazado_826134" data-name="Trazado 826134" d="M29,30.945A1.945,1.945,0,1,0,30.945,29,1.945,1.945,0,0,0,29,30.945Zm2.593,0a.648.648,0,1,1-.648-.648A.648.648,0,0,1,31.593,30.945Z" transform="translate(-9.496 -9.496)"/>
      <path id="Trazado_826135" data-name="Trazado 826135" d="M46.725,33.186V28h-1.3v1.945H37v1.3h8.428v1.945Z" transform="translate(-12.309 -9.144)"/>
      <path id="Trazado_826136" data-name="Trazado 826136" d="M12,28v5.186h1.3V31.242h8.428v-1.3H13.3V28Z" transform="translate(-3.517 -9.144)"/>
    </g>
  </g>
</svg>
