<svg xmlns="http://www.w3.org/2000/svg" width="61" height="61" viewBox="0 0 61 61">
  <g id="Grupo_1074192" data-name="Grupo 1074192" transform="translate(-4109 5800)">
    <circle id="Elipse_9665" data-name="Elipse 9665" cx="30.5" cy="30.5" r="30.5" transform="translate(4109 -5800)" fill="#2cfedf"/>
    <g id="sistema-operativo" transform="translate(4117 -5793)">
      <path id="Trazado_826137" data-name="Trazado 826137" d="M43,8H55.3V40.8H43Z" transform="translate(-12.983 -0.317)" fill="#b7b6b7"/>
      <path id="Trazado_826138" data-name="Trazado 826138" d="M29.567,54.1,28.535,50h-7.5L20,54.1" transform="translate(-5.7 -13.617)" fill="#484c4f"/>
      <path id="Trazado_826139" data-name="Trazado 826139" d="M5.05,39.867H3V18H35.8V39.867H9.15" transform="translate(-0.317 -3.483)" fill="#4a8cdd"/>
      <path id="Trazado_826140" data-name="Trazado 826140" d="M33.75,18V36.45a1.367,1.367,0,0,1-1.367,1.367H3v2.05H35.8V18Z" transform="translate(-0.317 -3.483)" fill="#356baa"/>
      <path id="Trazado_826141" data-name="Trazado 826141" d="M23.753,35.537a1.756,1.756,0,0,1-.273,1.688,8.091,8.091,0,0,0,2.8,1.175,1.729,1.729,0,0,1,3.417,0,8.125,8.125,0,0,0,2.808-1.175,1.749,1.749,0,0,1,.13-2.33,1.708,1.708,0,0,1,2.3-.13,8.2,8.2,0,0,0,1.2-2.829,1.749,1.749,0,0,1,0-3.471,8.2,8.2,0,0,0-1.169-2.829,1.708,1.708,0,0,1-2.3-.13,1.749,1.749,0,0,1-.13-2.33A8.125,8.125,0,0,0,29.726,22a1.729,1.729,0,0,1-3.417,0,8.091,8.091,0,0,0-2.8,1.175,1.756,1.756,0,0,1,.273,1.688" transform="translate(-6.802 -4.75)" fill="#e2ba4b"/>
      <circle id="Elipse_9846" data-name="Elipse 9846" cx="4" cy="4" r="4" transform="translate(17 21.167)" fill="#b7b6b7"/>
      <path id="Trazado_826142" data-name="Trazado 826142" d="M20.343,36.318a5.856,5.856,0,0,1-1.476.615,1.414,1.414,0,0,0-2.767,0,5.856,5.856,0,0,1-1.476-.615,1.408,1.408,0,0,0-1.975-1.975,5.856,5.856,0,0,1-.615-1.476A1.414,1.414,0,0,0,12,30.1a5.856,5.856,0,0,1,.615-1.476,1.408,1.408,0,0,0,1.975-1.975A5.856,5.856,0,0,1,16.1,26a1.415,1.415,0,0,0,2.8,0,5.856,5.856,0,0,1,1.476.615,1.408,1.408,0,0,0,1.975,1.975,5.856,5.856,0,0,1,.581,1.51,1.414,1.414,0,0,0,0,2.8,5.856,5.856,0,0,1-.615,1.476,1.408,1.408,0,0,0-1.975,1.975Z" transform="translate(-3.167 -6.017)" fill="#fad55c"/>
      <circle id="Elipse_9847" data-name="Elipse 9847" cx="2" cy="2" r="2" transform="translate(12 23.167)" fill="#b7b6b7"/>
      <path id="Trazado_826143" data-name="Trazado 826143" d="M42.317,7h-12.3a.683.683,0,0,0-.683.683v6.15H2.683A.683.683,0,0,0,2,14.517V36.383a.683.683,0,0,0,.683.683h2.05V35.7H3.367V15.2H34.8V35.7H8.833v1.367h5.624L13.774,39.8H9.517v1.367H28.65V39.8H24.4l-.683-2.733h5.617v3.417a.683.683,0,0,0,.683.683h12.3A.683.683,0,0,0,43,40.483V7.683A.683.683,0,0,0,42.317,7ZM22.992,39.8H15.175l.683-2.733H22.3Zm18.641,0H30.7V37.067h4.783a.683.683,0,0,0,.683-.683V20.667h4.1V19.3h-4.1V16.567h4.1V15.2h-4.1v-.683a.683.683,0,0,0-.683-.683H30.7V8.367H41.633Z"/>
      <path id="Trazado_826144" data-name="Trazado 826144" d="M8,49H9.367v1.367H8Z" transform="translate(-1.9 -13.3)"/>
      <path id="Trazado_826145" data-name="Trazado 826145" d="M46,13h8.2v1.367H46Z" transform="translate(-13.933 -1.9)"/>
      <path id="Trazado_826146" data-name="Trazado 826146" d="M16.134,23.843a.683.683,0,0,0-.553-.116,6.376,6.376,0,0,0-1.654.683.683.683,0,0,0-.191,1.032.725.725,0,0,1-1.018,1.018.683.683,0,0,0-1,.191,6.512,6.512,0,0,0-.683,1.654.691.691,0,0,0,.581.854.724.724,0,0,1,0,1.435.691.691,0,0,0-.581.854,6.512,6.512,0,0,0,.683,1.654.684.684,0,0,0,1,.191.724.724,0,0,1,1.018,1.018.683.683,0,0,0,.191,1.032,6.375,6.375,0,0,0,1.654.683.681.681,0,0,0,.847-.581.731.731,0,0,1,1.449,0,.677.677,0,0,0,.676.6.731.731,0,0,0,.171,0c.171-.048.328-.109.492-.171a1.052,1.052,0,0,1-.225.642.687.687,0,0,0,.157.991A8.842,8.842,0,0,0,22.2,38.76a.686.686,0,0,0,.82-.6,1.045,1.045,0,0,1,2.084,0,.683.683,0,0,0,.683.615h.143A8.754,8.754,0,0,0,28.967,37.5a.673.673,0,0,0,.157-.991,1.066,1.066,0,0,1,.082-1.428A1.025,1.025,0,0,1,30.573,35a.686.686,0,0,0,1-.157,8.883,8.883,0,0,0,1.292-3.089.683.683,0,0,0-.595-.82,1.066,1.066,0,0,1,0-2.118.683.683,0,0,0,.594-.82,8.883,8.883,0,0,0-1.264-3.061.686.686,0,0,0-1-.157,1.025,1.025,0,0,1-1.367-.082,1.066,1.066,0,0,1-.075-1.421A.673.673,0,0,0,29,22.285a8.754,8.754,0,0,0-3.082-1.292.686.686,0,0,0-.82.6,1.045,1.045,0,0,1-2.084,0,.686.686,0,0,0-.82-.6,8.842,8.842,0,0,0-3.048,1.278.687.687,0,0,0-.157.991,1.052,1.052,0,0,1,.225.642c-.164-.062-.321-.123-.492-.171a.681.681,0,0,0-.847.581.731.731,0,0,1-1.449,0,.683.683,0,0,0-.294-.472Zm7.052,7.052a.683.683,0,0,0-.485-.3.724.724,0,0,1,0-1.435.722.722,0,0,0,.6-.854,6.4,6.4,0,0,0-.683-1.565,3.417,3.417,0,1,1,0,6.273,6.4,6.4,0,0,0,.683-1.565.683.683,0,0,0-.116-.554ZM21.861,22.5a2.405,2.405,0,0,0,4.394,0,7.373,7.373,0,0,1,1.414.595,2.433,2.433,0,0,0,.554,2.563,2.378,2.378,0,0,0,2.549.567,7.175,7.175,0,0,1,.588,1.442,2.433,2.433,0,0,0,0,4.414,7.175,7.175,0,0,1-.588,1.442,2.378,2.378,0,0,0-2.542.56,2.433,2.433,0,0,0-.56,2.569,7.373,7.373,0,0,1-1.414.594,2.405,2.405,0,0,0-4.394,0,7.435,7.435,0,0,1-1.421-.594,2.46,2.46,0,0,0,.068-1.456.658.658,0,0,0,.062-.888.731.731,0,0,1,.061-.963h.041a4.783,4.783,0,1,0,0-6.888l-.048-.034a.731.731,0,0,1-.055-.957.658.658,0,0,0-.062-.888,2.46,2.46,0,0,0-.068-1.456,7.435,7.435,0,0,1,1.421-.622ZM17.153,26.33a2.1,2.1,0,0,0,1.824-1.066l.143.062A2.1,2.1,0,0,0,21.7,27.909l.061.143a2.091,2.091,0,0,0,0,3.649l-.061.144a2.1,2.1,0,0,0-2.583,2.583l-.144.062a2.091,2.091,0,0,0-3.649,0l-.143-.062A2.1,2.1,0,0,0,12.6,31.845L12.54,31.7a2.091,2.091,0,0,0,0-3.649l.061-.143a2.1,2.1,0,0,0,2.583-2.583l.143-.062A2.1,2.1,0,0,0,17.153,26.33Z" transform="translate(-2.853 -4.427)"/>
      <path id="Trazado_826147" data-name="Trazado 826147" d="M10.3,21.2,8.453,23.05H6v1.367H8.733a.683.683,0,0,0,.485-.2l1.845-1.852h2.453V21H10.783A.683.683,0,0,0,10.3,21.2Z" transform="translate(-1.267 -4.433)"/>
      <path id="Trazado_826148" data-name="Trazado 826148" d="M19,21h1.367v1.367H19Z" transform="translate(-5.383 -4.433)"/>
      <path id="Trazado_826149" data-name="Trazado 826149" d="M6,43.367H8.453L10.3,45.218a.683.683,0,0,0,.485.2h2.733V44.05H11.063L9.219,42.2a.683.683,0,0,0-.485-.2H6Z" transform="translate(-1.267 -11.083)"/>
      <path id="Trazado_826150" data-name="Trazado 826150" d="M19,45h1.367v1.367H19Z" transform="translate(-5.383 -12.033)"/>
      <path id="Trazado_826151" data-name="Trazado 826151" d="M39,45h1.367v1.367H39Z" transform="translate(-11.717 -12.033)"/>
      <path id="Trazado_826152" data-name="Trazado 826152" d="M39,21h1.367v1.367H39Z" transform="translate(-11.717 -4.433)"/>
      <path id="Trazado_826153" data-name="Trazado 826153" d="M16,32.733A2.733,2.733,0,1,0,18.733,30,2.733,2.733,0,0,0,16,32.733Zm2.733-1.367a1.367,1.367,0,1,1-1.367,1.367A1.367,1.367,0,0,1,18.733,31.367Z" transform="translate(-4.433 -7.283)"/>
    </g>
  </g>
</svg>
