<svg xmlns="http://www.w3.org/2000/svg" width="61" height="61" viewBox="0 0 61 61">
  <g id="Grupo_1074193" data-name="Grupo 1074193" transform="translate(-2534 5422)">
    <circle id="Elipse_9665" data-name="Elipse 9665" cx="30.5" cy="30.5" r="30.5" transform="translate(2534 -5422)" fill="#2cfedf"/>
    <g id="smartphone" transform="translate(2461 -5429)">
      <rect id="Rectángulo_383235" data-name="Rectángulo 383235" width="23.235" height="42.896" rx="11.618" transform="translate(88.894 16.447)" fill="#2b70a8"/>
      <path id="Trazado_826154" data-name="Trazado 826154" d="M119.593,26.949V29.9H96V26.949A2.949,2.949,0,0,1,98.949,24h17.695A2.949,2.949,0,0,1,119.593,26.949Z" transform="translate(-7.263 -7.263)" fill="#c2c5c6"/>
      <path id="Trazado_826155" data-name="Trazado 826155" d="M119.593,408v4.424a2.949,2.949,0,0,1-2.949,2.949H98.949A2.949,2.949,0,0,1,96,412.424V408Z" transform="translate(-7.263 -355.874)" fill="#c2c5c6"/>
      <path id="Trazado_826156" data-name="Trazado 826156" d="M240.58,179.8v17.695h-5.161a7.373,7.373,0,0,1-7.373-7.373h.015l-4.783-7.078a2.949,2.949,0,0,1,4.887-3.3l4.3,5.957h2.212V168l5.551,10.409A2.949,2.949,0,0,1,240.58,179.8Z" transform="translate(-122.351 -137.992)" fill="#f5cbaa"/>
      <path id="Trazado_826157" data-name="Trazado 826157" d="M128,120h17.695v5.9H128Z" transform="translate(-36.314 -94.415)" fill="#a4d4f4"/>
      <path id="Trazado_826158" data-name="Trazado 826158" d="M272,216h4.424v2.949H272Z" transform="translate(-167.043 -181.568)" fill="#a4d4f4"/>
      <ellipse id="Elipse_9848" data-name="Elipse 9848" cx="0.894" cy="0.447" rx="0.894" ry="0.447" transform="translate(95.149 19.128)"/>
      <path id="Trazado_826159" data-name="Trazado 826159" d="M208.737,49.475H213.9a.737.737,0,1,0,0-1.475h-5.161a.737.737,0,1,0,0,1.475Z" transform="translate(-108.941 -29.051)"/>
      <path id="Trazado_826160" data-name="Trazado 826160" d="M118.228,60.237a.737.737,0,0,0,.737-.737V41.8a3.7,3.7,0,0,0-.434-1.735l-5.465-10.246V19.686A3.691,3.691,0,0,0,109.381,16H91.686A3.691,3.691,0,0,0,88,19.686V56.55a3.691,3.691,0,0,0,3.686,3.686H112.33l-.082-.041a8.167,8.167,0,0,0,.82.041ZM117.491,41.8V58.762h-4.424a6.643,6.643,0,0,1-6.634-6.5.737.737,0,0,0-.113-.552l-4.783-7.078a2.212,2.212,0,1,1,3.665-2.477l.013.019,4.3,5.957a.737.737,0,0,0,.6.305h2.212a.737.737,0,0,0,.737-.737V32.957l4.163,7.806A2.221,2.221,0,0,1,117.491,41.8Zm-5.9-11.8V46.966h-1.1l-4.077-5.643a3.686,3.686,0,0,0-6.1,4.138l4.006,5.928H89.475V23.373h22.118ZM91.686,17.475h17.695a2.214,2.214,0,0,1,2.212,2.212V21.9H89.475V19.686A2.214,2.214,0,0,1,91.686,17.475Zm0,41.287a2.214,2.214,0,0,1-2.212-2.212V52.864h15.518a8.11,8.11,0,0,0,3.42,5.9Z"/>
      <path id="Trazado_826161" data-name="Trazado 826161" d="M202.212,424a2.212,2.212,0,1,0,2.212,2.212A2.212,2.212,0,0,0,202.212,424Zm0,2.949a.737.737,0,1,1,.737-.737A.737.737,0,0,1,202.212,426.949Z" transform="translate(-101.678 -370.399)"/>
      <path id="Trazado_826162" data-name="Trazado 826162" d="M120.737,119.373h17.695a.737.737,0,0,0,.737-.737v-5.9a.737.737,0,0,0-.737-.737H120.737a.737.737,0,0,0-.737.737v5.9A.737.737,0,0,0,120.737,119.373Zm.737-5.9h16.22V117.9h-16.22Z" transform="translate(-29.051 -87.153)"/>
      <path id="Trazado_826163" data-name="Trazado 826163" d="M158.635,144h-5.9a.737.737,0,1,0,0,1.475h5.9a.737.737,0,0,0,0-1.475Z" transform="translate(-58.102 -116.204)"/>
      <path id="Trazado_826164" data-name="Trazado 826164" d="M120.737,209.475h10.322a.737.737,0,1,0,0-1.475H120.737a.737.737,0,0,0,0,1.475Z" transform="translate(-29.051 -174.305)"/>
      <path id="Trazado_826165" data-name="Trazado 826165" d="M189.161,240h-4.424a.737.737,0,1,0,0,1.475h4.424a.737.737,0,0,0,0-1.475Z" transform="translate(-87.153 -203.356)"/>
      <path id="Trazado_826166" data-name="Trazado 826166" d="M120.737,273.475h4.424a.737.737,0,1,0,0-1.475h-4.424a.737.737,0,0,0,0,1.475Z" transform="translate(-29.051 -232.407)"/>
      <path id="Trazado_826167" data-name="Trazado 826167" d="M120.737,305.475h4.424a.737.737,0,0,0,0-1.475h-4.424a.737.737,0,0,0,0,1.475Z" transform="translate(-29.051 -261.458)"/>
      <ellipse id="Elipse_9849" data-name="Elipse 9849" cx="0.894" cy="0.447" rx="0.894" ry="0.447" transform="translate(90.681 48.619)"/>
      <circle id="Elipse_9850" data-name="Elipse 9850" cx="0.447" cy="0.447" r="0.447" transform="translate(94.256 48.619)"/>
      <ellipse id="Elipse_9851" data-name="Elipse 9851" cx="0.894" cy="0.447" rx="0.894" ry="0.447" transform="translate(96.937 48.619)"/>
      <path id="Trazado_826168" data-name="Trazado 826168" d="M120.737,337.475h5.9a.737.737,0,1,0,0-1.475h-5.9a.737.737,0,1,0,0,1.475Z" transform="translate(-29.051 -290.509)"/>
      <path id="Trazado_826169" data-name="Trazado 826169" d="M269.161,208h-4.424a.737.737,0,0,0-.737.737v2.949a.737.737,0,0,0,.737.737h4.424a.737.737,0,0,0,.737-.737v-2.949A.737.737,0,0,0,269.161,208Zm-.737,2.949h-2.949v-1.475h2.949Z" transform="translate(-159.78 -174.305)"/>
      <path id="Trazado_826170" data-name="Trazado 826170" d="M120.737,241.475h2.949a.737.737,0,1,0,0-1.475h-2.949a.737.737,0,0,0,0,1.475Z" transform="translate(-29.051 -203.356)"/>
    </g>
  </g>
</svg>
