<svg xmlns="http://www.w3.org/2000/svg" width="61" height="61" viewBox="0 0 61 61">
  <g id="Grupo_1074194" data-name="Grupo 1074194" transform="translate(-2849 5422)">
    <circle id="Elipse_9665" data-name="Elipse 9665" cx="30.5" cy="30.5" r="30.5" transform="translate(2849 -5422)" fill="#2cfedf"/>
    <g id="social" transform="translate(2856 -5415)">
      <path id="Trazado_826171" data-name="Trazado 826171" d="M41.3,50.821,35.428,37h-18L11.55,50.821Z" transform="translate(-2.875 -9.812)" fill="#c6dbf7"/>
      <ellipse id="Elipse_9852" data-name="Elipse 9852" cx="2" cy="2.5" rx="2" ry="2.5" transform="translate(3.551 33.551)" fill="#ffc173"/>
      <path id="Trazado_826172" data-name="Trazado 826172" d="M2,59.547V55.182A2.182,2.182,0,0,1,4.182,53h2.91a2.182,2.182,0,0,1,2.182,2.182v4.365Z" transform="translate(-0.273 -14.173)" fill="#3186f2"/>
      <ellipse id="Elipse_9853" data-name="Elipse 9853" cx="2.5" cy="2" rx="2.5" ry="2" transform="translate(11.551 19.551)" fill="#ffc173"/>
      <path id="Trazado_826173" data-name="Trazado 826173" d="M14,39.547V35.182A2.182,2.182,0,0,1,16.182,33h2.91a2.182,2.182,0,0,1,2.182,2.182v4.365Z" transform="translate(-3.543 -8.722)" fill="#2c77d9"/>
      <ellipse id="Elipse_9854" data-name="Elipse 9854" cx="2.5" cy="2" rx="2.5" ry="2" transform="translate(30.551 19.551)" fill="#ffc173"/>
      <path id="Trazado_826174" data-name="Trazado 826174" d="M40,39.547V35.182A2.182,2.182,0,0,1,42.182,33h2.91a2.182,2.182,0,0,1,2.182,2.182v4.365Z" transform="translate(-10.63 -8.722)" fill="#2c77d9"/>
      <ellipse id="Elipse_9855" data-name="Elipse 9855" cx="2" cy="2.5" rx="2" ry="2.5" transform="translate(39.551 33.551)" fill="#ffc173"/>
      <path id="Trazado_826175" data-name="Trazado 826175" d="M52,59.547V55.182A2.182,2.182,0,0,1,54.182,53h2.91a2.182,2.182,0,0,1,2.182,2.182v4.365Z" transform="translate(-13.9 -14.173)" fill="#3186f2"/>
      <path id="Trazado_826176" data-name="Trazado 826176" d="M35.767,10.088l-.381-.21a.608.608,0,0,1-.324-.612,5.037,5.037,0,0,0,0-1.439.608.608,0,0,1,.324-.612l.381-.21a.615.615,0,0,0,.241-.859L34.953,4.4a.674.674,0,0,0-.9-.23l-.386.212a.7.7,0,0,1-.749-.061,5.591,5.591,0,0,0-1.231-.683.647.647,0,0,1-.428-.589V2.628A.644.644,0,0,0,30.6,2h-2.11a.644.644,0,0,0-.655.629V3.05a.647.647,0,0,1-.428.589,5.59,5.59,0,0,0-1.231.683.7.7,0,0,1-.749.061l-.386-.212a.674.674,0,0,0-.9.23L23.092,6.146a.615.615,0,0,0,.241.859l.381.21a.608.608,0,0,1,.324.612,5.037,5.037,0,0,0,0,1.439.608.608,0,0,1-.324.612l-.381.21a.615.615,0,0,0-.241.859l1.055,1.746a.674.674,0,0,0,.9.23l.386-.212a.7.7,0,0,1,.749.061,5.591,5.591,0,0,0,1.231.683.647.647,0,0,1,.428.589v.421a.644.644,0,0,0,.655.629H30.6a.644.644,0,0,0,.655-.629v-.421a.647.647,0,0,1,.428-.589,5.59,5.59,0,0,0,1.231-.683.7.7,0,0,1,.749-.061l.386.212a.674.674,0,0,0,.9-.23L36,10.948a.615.615,0,0,0-.238-.859Zm-6.218.823a2.364,2.364,0,1,1,2.364-2.364A2.364,2.364,0,0,1,29.548,10.911Z" transform="translate(-5.998 -0.273)" fill="#5a6c80"/>
      <path id="Trazado_826177" data-name="Trazado 826177" d="M41.184,24.727a2.9,2.9,0,0,0-1.855,5.133,2.9,2.9,0,0,0-2.51,2.869H32.455V24H31V38.549h1.455V34.184H36.82v2.91a.727.727,0,0,0,.727.727h4.365l2.481,6.094,1.347-.549L43.48,37.821h1.341a.727.727,0,0,0,.727-.727V32.729a2.9,2.9,0,0,0-2.51-2.869,2.9,2.9,0,0,0-1.855-5.133Zm0,1.455a1.455,1.455,0,1,1-1.455,1.455A1.455,1.455,0,0,1,41.184,26.182Zm2.91,6.547v3.637h-5.82V32.729a1.455,1.455,0,0,1,1.455-1.455h2.91A1.455,1.455,0,0,1,44.094,32.729Z" transform="translate(-8.177 -6.269)"/>
      <path id="Trazado_826178" data-name="Trazado 826178" d="M43.592,50.126a2.91,2.91,0,1,0-3.71,0,2.9,2.9,0,0,0-2.406,2.142H9.626A2.9,2.9,0,0,0,7.22,50.126a2.91,2.91,0,1,0-3.71,0A2.9,2.9,0,0,0,1,52.995V57.36a.727.727,0,0,0,.727.727H9a.727.727,0,0,0,.727-.727V53.722H37.372V57.36a.727.727,0,0,0,.727.727h7.274a.727.727,0,0,0,.727-.727V52.995A2.9,2.9,0,0,0,43.592,50.126ZM5.365,46.448A1.455,1.455,0,1,1,3.91,47.9a1.455,1.455,0,0,1,1.455-1.455Zm2.91,10.184H2.455V52.995A1.455,1.455,0,0,1,3.91,51.54H6.82a1.455,1.455,0,0,1,1.455,1.455ZM41.737,46.448A1.455,1.455,0,1,1,40.282,47.9,1.455,1.455,0,0,1,41.737,46.448Zm2.91,10.184h-5.82V52.995a1.455,1.455,0,0,1,1.455-1.455h2.91a1.455,1.455,0,0,1,1.455,1.455Z" transform="translate(0 -11.985)"/>
      <path id="Trazado_826179" data-name="Trazado 826179" d="M14.094,44.181l2.473-6.094h4.365a.727.727,0,0,0,.727-.727V34.45h2.91V32.995h-2.91a2.9,2.9,0,0,0-2.51-2.869,2.91,2.91,0,1,0-3.71,0,2.9,2.9,0,0,0-2.51,2.869V37.36a.727.727,0,0,0,.727.727H15l-2.255,5.545Zm3.2-17.733A1.455,1.455,0,1,1,15.84,27.9,1.455,1.455,0,0,1,17.295,26.448Zm-2.91,10.184V32.995A1.455,1.455,0,0,1,15.84,31.54h2.91A1.455,1.455,0,0,1,20.2,32.995v3.637Z" transform="translate(-3.201 -6.534)"/>
      <path id="Trazado_826180" data-name="Trazado 826180" d="M22.045,10.016a1.324,1.324,0,0,0,.145,1.035L23.244,12.8a1.408,1.408,0,0,0,1.872.492l.353-.2a6.448,6.448,0,0,0,1.362.76v.346a1.373,1.373,0,0,0,1.389,1.355h2.11a1.373,1.373,0,0,0,1.386-1.356v-.346a5.165,5.165,0,0,0,1.329-.771l.386.212A1.408,1.408,0,0,0,35.3,12.8l1.056-1.746a1.322,1.322,0,0,0,.145-1.034,1.346,1.346,0,0,0-.659-.837L35.52,9a5.684,5.684,0,0,0,0-1.455l.324-.179a1.346,1.346,0,0,0,.659-.837A1.321,1.321,0,0,0,36.357,5.5L35.3,3.75a1.407,1.407,0,0,0-1.872-.492l-.353.2a6.448,6.448,0,0,0-1.362-.76V2.356A1.373,1.373,0,0,0,30.328,1h-2.11a1.373,1.373,0,0,0-1.382,1.356V2.7a5.165,5.165,0,0,0-1.331.771l-.386-.212a1.408,1.408,0,0,0-1.872.491L22.192,5.5a1.325,1.325,0,0,0-.145,1.034,1.349,1.349,0,0,0,.66.837l.324.179A5.683,5.683,0,0,0,23.03,9l-.324.179a1.349,1.349,0,0,0-.662.834Zm2.392-1.742a4.232,4.232,0,0,1,.045-.616,1.343,1.343,0,0,0-.693-1.352L23.5,6.147l.96-1.589.343.188a1.43,1.43,0,0,0,1.532-.11,4.885,4.885,0,0,1,1.071-.6,1.369,1.369,0,0,0,.886-1.264V2.455h1.97v.322a1.37,1.37,0,0,0,.885,1.264,4.9,4.9,0,0,1,1.072.6,1.428,1.428,0,0,0,1.528.111l.343-.188.96,1.589-.287.159a1.341,1.341,0,0,0-.693,1.353,4.316,4.316,0,0,1,.047.614,4.232,4.232,0,0,1-.045.616,1.343,1.343,0,0,0,.693,1.352l.291.159-.959,1.589-.343-.188a1.429,1.429,0,0,0-1.528.111,4.885,4.885,0,0,1-1.071.6,1.369,1.369,0,0,0-.886,1.264v.322H28.289v-.322a1.37,1.37,0,0,0-.885-1.264,4.9,4.9,0,0,1-1.072-.6A1.427,1.427,0,0,0,24.8,11.8l-.343.188L23.5,10.4l.291-.159a1.341,1.341,0,0,0,.693-1.353A4.317,4.317,0,0,1,24.436,8.274Z" transform="translate(-5.723 0)"/>
      <path id="Trazado_826181" data-name="Trazado 826181" d="M30.842,12.933A3.092,3.092,0,1,0,27.75,9.842,3.092,3.092,0,0,0,30.842,12.933Zm0-4.728A1.637,1.637,0,1,1,29.2,9.842,1.637,1.637,0,0,1,30.842,8.2Z" transform="translate(-7.291 -1.567)"/>
      <rect id="Rectángulo_383236" data-name="Rectángulo 383236" width="2" height="2" transform="translate(22.551 33.551)"/>
    </g>
  </g>
</svg>
