<svg xmlns="http://www.w3.org/2000/svg" width="61" height="61" viewBox="0 0 61 61">
  <g id="Grupo_1074209" data-name="Grupo 1074209" transform="translate(-4109 5422)">
    <circle id="Elipse_9665" data-name="Elipse 9665" cx="30.5" cy="30.5" r="30.5" transform="translate(4109 -5422)" fill="#2cfedf"/>
    <g id="tablero-de-humor" transform="translate(4121 -5410)">
      <g id="Grupo_1074204" data-name="Grupo 1074204" transform="translate(0.556 0.556)">
        <path id="Trazado_826223" data-name="Trazado 826223" d="M44.364,32.076H7.5V8.849A1.349,1.349,0,0,1,8.849,7.5H43.015a1.349,1.349,0,0,1,1.349,1.349V32.076Z" transform="translate(-7.5 -7.5)" fill="#eaf6ff"/>
        <path id="Trazado_826224" data-name="Trazado 826224" d="M57,43.272V40.724a.9.9,0,0,1,.9-.9H85.62a.9.9,0,0,1,.9.9v2.548a.9.9,0,0,1-.9.9H57.9A.9.9,0,0,1,57,43.272Z" transform="translate(-53.327 -37.427)" fill="#60b7ff"/>
        <path id="Trazado_826225" data-name="Trazado 826225" d="M418.564,39.825h-1.948a.9.9,0,0,1,.9.9v2.548a.9.9,0,0,1-.9.9h1.948a.9.9,0,0,0,.9-.9V40.724A.9.9,0,0,0,418.564,39.825Z" transform="translate(-386.271 -37.427)" fill="#26a6fe"/>
        <path id="Trazado_826226" data-name="Trazado 826226" d="M462,7.5h-1.948A1.349,1.349,0,0,1,461.4,8.849V32.076h1.948V8.849A1.349,1.349,0,0,0,462,7.5Z" transform="translate(-426.486 -7.5)" fill="#d8ecfe"/>
        <path id="Trazado_826227" data-name="Trazado 826227" d="M43.015,341.232H8.849A1.349,1.349,0,0,1,7.5,339.883v-1.049H44.364v1.049A1.349,1.349,0,0,1,43.015,341.232Z" transform="translate(-7.5 -314.258)" fill="#918291"/>
        <path id="Trazado_826228" data-name="Trazado 826228" d="M117.751,474.573H94.973a.6.6,0,0,1-.6-.6v-1.2a.6.6,0,0,1,.6-.6h22.778a.6.6,0,0,1,.6.6v1.2A.6.6,0,0,1,117.751,474.573Z" transform="translate(-87.93 -437.709)" fill="#918291"/>
        <path id="Trazado_826229" data-name="Trazado 826229" d="M386.164,472.175h-1.873a.6.6,0,0,1,.6.6v1.2a.6.6,0,0,1-.6.6h1.873a.6.6,0,0,0,.6-.6v-1.2A.6.6,0,0,0,386.164,472.175Z" transform="translate(-356.343 -437.709)" fill="#7a6d79"/>
        <path id="Trazado_826230" data-name="Trazado 826230" d="M169.969,378.652H154.984a5.422,5.422,0,0,0,3-4.849v-2.643h8.991V373.8a5.422,5.422,0,0,0,3,4.849Z" transform="translate(-144.045 -344.185)" fill="#685e68"/>
        <path id="Trazado_826231" data-name="Trazado 826231" d="M461.4,338.833v1.049a1.349,1.349,0,0,1-1.349,1.349H462a1.349,1.349,0,0,0,1.349-1.349v-1.049Z" transform="translate(-426.486 -314.257)" fill="#7a6d79"/>
        <g id="Grupo_1074198" data-name="Grupo 1074198" transform="translate(3.671 13.936)">
          <path id="Trazado_826232" data-name="Trazado 826232" d="M64.191,203.633H58.047A1.049,1.049,0,0,1,57,202.584V196.44a1.049,1.049,0,0,1,1.049-1.049h6.144a1.049,1.049,0,0,1,1.049,1.049v6.144A1.049,1.049,0,0,1,64.191,203.633Z" transform="translate(-56.998 -195.391)" fill="#fd8087"/>
        </g>
        <g id="Grupo_1074199" data-name="Grupo 1074199" transform="translate(14.311 13.936)">
          <path id="Trazado_826233" data-name="Trazado 826233" d="M207.635,203.633h-6.144a1.049,1.049,0,0,1-1.049-1.049V196.44a1.049,1.049,0,0,1,1.049-1.049h6.144a1.049,1.049,0,0,1,1.049,1.049v6.144A1.049,1.049,0,0,1,207.635,203.633Z" transform="translate(-200.442 -195.391)" fill="#00f2a6"/>
        </g>
        <g id="Grupo_1074200" data-name="Grupo 1074200" transform="translate(24.951 13.936)">
          <path id="Trazado_826234" data-name="Trazado 826234" d="M351.078,203.633h-6.144a1.049,1.049,0,0,1-1.049-1.049V196.44a1.049,1.049,0,0,1,1.049-1.049h6.144a1.049,1.049,0,0,1,1.049,1.049v6.144A1.049,1.049,0,0,1,351.078,203.633Z" transform="translate(-343.885 -195.391)" fill="#ffe177"/>
        </g>
        <path id="Trazado_826235" data-name="Trazado 826235" d="M416.544,195.39H414.6a1.049,1.049,0,0,1,1.049,1.049v6.144a1.049,1.049,0,0,1-1.049,1.049h1.948a1.049,1.049,0,0,0,1.049-1.049v-6.144A1.049,1.049,0,0,0,416.544,195.39Z" transform="translate(-384.4 -181.454)" fill="#ffd15b"/>
        <path id="Trazado_826236" data-name="Trazado 826236" d="M273.1,195.39h-1.948a1.049,1.049,0,0,1,1.049,1.049v6.144a1.049,1.049,0,0,1-1.049,1.049H273.1a1.049,1.049,0,0,0,1.049-1.049v-6.144A1.049,1.049,0,0,0,273.1,195.39Z" transform="translate(-251.597 -181.454)" fill="#0ed290"/>
        <path id="Trazado_826237" data-name="Trazado 826237" d="M129.658,195.39H127.71a1.049,1.049,0,0,1,1.049,1.049v6.144a1.049,1.049,0,0,1-1.049,1.049h1.948a1.049,1.049,0,0,0,1.049-1.049v-6.144A1.049,1.049,0,0,0,129.658,195.39Z" transform="translate(-118.794 -181.454)" fill="#fe646f"/>
        <g id="Grupo_1074201" data-name="Grupo 1074201" transform="translate(3.671 9.141)">
          <circle id="Elipse_9863" data-name="Elipse 9863" cx="1.199" cy="1.199" r="1.199" fill="#fd8087"/>
        </g>
        <g id="Grupo_1074202" data-name="Grupo 1074202" transform="translate(14.311 9.141)">
          <circle id="Elipse_9864" data-name="Elipse 9864" cx="1.199" cy="1.199" r="1.199" fill="#00f2a6"/>
        </g>
        <g id="Grupo_1074203" data-name="Grupo 1074203" transform="translate(24.951 9.141)">
          <circle id="Elipse_9865" data-name="Elipse 9865" cx="1.199" cy="1.199" r="1.199" fill="#ffe177"/>
        </g>
      </g>
      <g id="Grupo_1074208" data-name="Grupo 1074208" transform="translate(0 0)">
        <path id="Trazado_826238" data-name="Trazado 826238" d="M78.676,37.783H50.953A1.457,1.457,0,0,1,49.5,36.328V33.78a1.457,1.457,0,0,1,1.455-1.455H78.676a1.457,1.457,0,0,1,1.455,1.455v2.548A1.457,1.457,0,0,1,78.676,37.783ZM50.953,33.438a.343.343,0,0,0-.343.343v2.548a.343.343,0,0,0,.343.343H78.676a.343.343,0,0,0,.343-.343V33.78a.343.343,0,0,0-.343-.343Z" transform="translate(-45.827 -29.927)"/>
        <path id="Trazado_826239" data-name="Trazado 826239" d="M148.039,372.264a.556.556,0,0,1-.249-1.054,4.839,4.839,0,0,0,2.69-4.352v-2.643a.556.556,0,0,1,1.113,0v2.643a5.945,5.945,0,0,1-3.3,5.347A.554.554,0,0,1,148.039,372.264Z" transform="translate(-136.543 -336.685)"/>
        <path id="Trazado_826240" data-name="Trazado 826240" d="M312.663,372.264a.554.554,0,0,1-.248-.059,5.946,5.946,0,0,1-3.3-5.347v-2.643a.556.556,0,0,1,1.113,0v2.643a4.839,4.839,0,0,0,2.69,4.352.556.556,0,0,1-.249,1.054Z" transform="translate(-286.182 -336.685)"/>
        <path id="Trazado_826241" data-name="Trazado 826241" d="M36.072,28.086H1.9a1.907,1.907,0,0,1-1.9-1.9V1.9A1.907,1.907,0,0,1,1.9,0H5.689a.556.556,0,0,1,0,1.113H1.9a.793.793,0,0,0-.792.792V26.182a.793.793,0,0,0,.792.792H36.072a.793.793,0,0,0,.792-.792V1.9a.793.793,0,0,0-.792-.792H8.285A.556.556,0,0,1,8.285,0H36.072a1.907,1.907,0,0,1,1.9,1.9V26.182A1.907,1.907,0,0,1,36.072,28.086Z" transform="translate(0 0)"/>
        <path id="Línea_267" data-name="Línea 267" d="M29.92-6.387H-6.944A.556.556,0,0,1-7.5-6.944.556.556,0,0,1-6.944-7.5H29.92a.556.556,0,0,1,.556.556A.556.556,0,0,1,29.92-6.387Z" transform="translate(7.5 32.076)"/>
        <path id="Trazado_826242" data-name="Trazado 826242" d="M110.8,468.181H94.195a.556.556,0,1,1,0-1.113H110.8l.044-1.242-22.821-.044-.044,1.242,3.616.043a.556.556,0,1,1,0,1.113H88.026a1.157,1.157,0,0,1-1.156-1.156v-1.2a1.158,1.158,0,0,1,1.156-1.156H110.8a1.158,1.158,0,0,1,1.156,1.156v1.2A1.157,1.157,0,0,1,110.8,468.181Z" transform="translate(-80.427 -430.204)"/>
        <g id="Grupo_1074205" data-name="Grupo 1074205" transform="translate(3.671 13.936)">
          <path id="Trazado_826243" data-name="Trazado 826243" d="M57.247,197.245H51.1A1.607,1.607,0,0,1,49.5,195.64V189.5a1.607,1.607,0,0,1,1.605-1.605h6.144a1.607,1.607,0,0,1,1.605,1.605v6.144a1.605,1.605,0,0,1-1.605,1.605ZM51.1,189a.493.493,0,0,0-.493.493v6.144a.493.493,0,0,0,.493.493h6.144a.493.493,0,0,0,.493-.493V189.5a.493.493,0,0,0-.493-.493Z" transform="translate(-49.498 -187.891)"/>
        </g>
        <g id="Grupo_1074206" data-name="Grupo 1074206" transform="translate(14.311 13.936)">
          <path id="Trazado_826244" data-name="Trazado 826244" d="M200.691,197.245h-6.144a1.607,1.607,0,0,1-1.605-1.605V189.5a1.607,1.607,0,0,1,1.605-1.605h6.144A1.607,1.607,0,0,1,202.3,189.5v6.144A1.607,1.607,0,0,1,200.691,197.245ZM194.547,189a.493.493,0,0,0-.493.493v6.144a.493.493,0,0,0,.493.493h6.144a.493.493,0,0,0,.493-.493V189.5a.493.493,0,0,0-.493-.493Z" transform="translate(-192.942 -187.891)"/>
        </g>
        <g id="Grupo_1074207" data-name="Grupo 1074207" transform="translate(24.95 13.936)">
          <path id="Trazado_826245" data-name="Trazado 826245" d="M344.13,197.245h-1.774a.556.556,0,1,1,0-1.113h1.774a.493.493,0,0,0,.492-.493V189.5a.493.493,0,0,0-.492-.493h-6.144a.493.493,0,0,0-.493.493v6.144a.493.493,0,0,0,.493.493h1.773a.556.556,0,0,1,0,1.113h-1.773a1.607,1.607,0,0,1-1.606-1.605V189.5a1.607,1.607,0,0,1,1.606-1.605h6.144a1.607,1.607,0,0,1,1.605,1.605v6.144A1.607,1.607,0,0,1,344.13,197.245Z" transform="translate(-336.38 -187.89)"/>
        </g>
        <path id="Elipse_9866" data-name="Elipse 9866" d="M-5.745-7.5A1.757,1.757,0,0,1-3.99-5.745,1.757,1.757,0,0,1-5.745-3.99,1.757,1.757,0,0,1-7.5-5.745,1.757,1.757,0,0,1-5.745-7.5Zm0,2.4A.643.643,0,0,0-5.1-5.745a.643.643,0,0,0-.643-.643.643.643,0,0,0-.643.643A.643.643,0,0,0-5.745-5.1Z" transform="translate(11.171 16.641)"/>
        <path id="Línea_268" data-name="Línea 268" d="M-5.22-6.387H-6.944A.556.556,0,0,1-7.5-6.944.556.556,0,0,1-6.944-7.5H-5.22a.556.556,0,0,1,.556.556A.556.556,0,0,1-5.22-6.387Z" transform="translate(15.967 19.039)"/>
        <path id="Línea_269" data-name="Línea 269" d="M-3.5-6.387H-6.944A.556.556,0,0,1-7.5-6.944.556.556,0,0,1-6.944-7.5H-3.5a.556.556,0,0,1,.556.556A.556.556,0,0,1-3.5-6.387Z" transform="translate(15.967 16.641)"/>
        <path id="Elipse_9867" data-name="Elipse 9867" d="M-5.745-7.5A1.757,1.757,0,0,1-3.99-5.745,1.757,1.757,0,0,1-5.745-3.99,1.757,1.757,0,0,1-7.5-5.745,1.757,1.757,0,0,1-5.745-7.5Zm0,2.4A.643.643,0,0,0-5.1-5.745a.643.643,0,0,0-.643-.643.643.643,0,0,0-.643.643A.643.643,0,0,0-5.745-5.1Z" transform="translate(21.811 16.641)"/>
        <path id="Línea_270" data-name="Línea 270" d="M-5.22-6.387H-6.944A.556.556,0,0,1-7.5-6.944.556.556,0,0,1-6.944-7.5H-5.22a.556.556,0,0,1,.556.556A.556.556,0,0,1-5.22-6.387Z" transform="translate(26.606 19.039)"/>
        <path id="Línea_271" data-name="Línea 271" d="M-3.5-6.387H-6.944A.556.556,0,0,1-7.5-6.944.556.556,0,0,1-6.944-7.5H-3.5a.556.556,0,0,1,.556.556A.556.556,0,0,1-3.5-6.387Z" transform="translate(26.606 16.641)"/>
        <path id="Elipse_9868" data-name="Elipse 9868" d="M-5.745-7.5A1.757,1.757,0,0,1-3.99-5.745,1.757,1.757,0,0,1-5.745-3.99,1.757,1.757,0,0,1-7.5-5.745,1.757,1.757,0,0,1-5.745-7.5Zm0,2.4A.643.643,0,0,0-5.1-5.745a.643.643,0,0,0-.643-.643.643.643,0,0,0-.643.643A.643.643,0,0,0-5.745-5.1Z" transform="translate(32.451 16.641)"/>
        <path id="Línea_272" data-name="Línea 272" d="M-5.22-6.387H-6.944A.556.556,0,0,1-7.5-6.944.556.556,0,0,1-6.944-7.5H-5.22a.556.556,0,0,1,.556.556A.556.556,0,0,1-5.22-6.387Z" transform="translate(37.246 19.039)"/>
        <path id="Línea_273" data-name="Línea 273" d="M-3.5-6.387H-6.944A.556.556,0,0,1-7.5-6.944.556.556,0,0,1-6.944-7.5H-3.5a.556.556,0,0,1,.556.556A.556.556,0,0,1-3.5-6.387Z" transform="translate(37.246 16.641)"/>
      </g>
    </g>
  </g>
</svg>
