<svg xmlns="http://www.w3.org/2000/svg" width="61" height="61" viewBox="0 0 61 61">
  <g id="Grupo_1074220" data-name="Grupo 1074220" transform="translate(-2849 5028)">
    <circle id="Elipse_9791" data-name="Elipse 9791" cx="30.5" cy="30.5" r="30.5" transform="translate(2849 -5028)" fill="#2cfedf"/>
    <g id="banda-ancha" transform="translate(2852.33 -5031.804)">
      <g id="Grupo_1074217" data-name="Grupo 1074217" transform="translate(3.155 12.288)">
        <g id="Grupo_1074214" data-name="Grupo 1074214" transform="translate(0 9.899)">
          <g id="Grupo_1074211" data-name="Grupo 1074211">
            <path id="Trazado_826238" data-name="Trazado 826238" d="M52.845,209.7v1.058a4.477,4.477,0,0,1-4.477,4.477H9.647a4.477,4.477,0,0,1-4.477-4.477V209.7A.835.835,0,0,1,6,208.865H52.01A.835.835,0,0,1,52.845,209.7Z" transform="translate(-5.17 -181.005)" fill="#72c2e9"/>
            <path id="Trazado_826239" data-name="Trazado 826239" d="M113.327,208.865v1.162a1.552,1.552,0,0,1-1.553,1.553h-6.2a1.552,1.552,0,0,1-1.553-1.553v-1.162Z" transform="translate(-84.836 -181.005)" fill="#4ba5c8"/>
            <path id="Trazado_826240" data-name="Trazado 826240" d="M60.811,67.316V93.167H18.19V67.316A2.007,2.007,0,0,1,20.2,65.309h8.9l2.527,3.485,1.549,2.135,1.549-2.135,2.527-3.485h6.365v5.62h4.442v-5.62H58.8a2.007,2.007,0,0,1,2.007,2.007Z" transform="translate(-15.663 -65.309)" fill="#72c2e9"/>
            <g id="Grupo_1074210" data-name="Grupo 1074210" transform="translate(11.753)">
              <path id="Trazado_826241" data-name="Trazado 826241" d="M67.409,65.309l2.527,3.485H68.257L65.73,65.309Z" transform="translate(-65.73 -65.309)" fill="#4ba5c8"/>
              <path id="Trazado_826242" data-name="Trazado 826242" d="M107.564,65.309l-2.527,3.485H103.36l2.527-3.485Z" transform="translate(-96.057 -65.309)" fill="#4ba5c8"/>
              <path id="Trazado_826243" data-name="Trazado 826243" d="M142.18,65.309h1.358v3.485H142.18Z" transform="translate(-127.344 -65.309)" fill="#4ba5c8"/>
              <path id="Trazado_826244" data-name="Trazado 826244" d="M172.07,65.309h1.358v3.485H172.07Z" transform="translate(-151.433 -65.309)" fill="#4ba5c8"/>
            </g>
            <path id="Trazado_826245" data-name="Trazado 826245" d="M70.3,83.269v21.369H33.69V83.269H44.113L45.662,85.4l1.549-2.135H56.1V85.4h4.442V83.269Z" transform="translate(-28.155 -79.784)" fill="#efefef"/>
            <path id="Trazado_826246" data-name="Trazado 826246" d="M85.2,83.269,83.078,86.2a1.36,1.36,0,0,1-2.2,0L78.75,83.269h1.679L81.977,85.4l1.549-2.135Z" transform="translate(-64.471 -79.784)" fill="#afafaf"/>
            <path id="Trazado_826247" data-name="Trazado 826247" d="M149.339,83.269V85.4a1.357,1.357,0,0,1-1.358,1.358h-4.442A1.357,1.357,0,0,1,142.18,85.4V83.269h1.358V85.4h4.442V83.269Z" transform="translate(-115.591 -79.784)" fill="#afafaf"/>
          </g>
          <g id="Grupo_1074213" data-name="Grupo 1074213" transform="translate(9.802 8.572)">
            <path id="Trazado_826248" data-name="Trazado 826248" d="M95.619,136.941a10.172,10.172,0,0,1,.1,4.9H75.9a10.159,10.159,0,0,1,17.092-9.434l0,0a10.122,10.122,0,0,1,2.032,2.907v0Z" transform="translate(-71.772 -125.557)" fill="#efefef"/>
            <path id="Trazado_826249" data-name="Trazado 826249" d="M179.131,130.649v0l0,0Z" transform="translate(-155.171 -126.541)" fill="#fc5d3d"/>
            <path id="Trazado_826250" data-name="Trazado 826250" d="M171.7,142.831h-3.943a10.172,10.172,0,0,0-.1-4.9l1.539-.561a.867.867,0,0,0-.594-1.628l-1.539.561v0a10.122,10.122,0,0,0-2.032-2.907l2.738-2.736A14.011,14.011,0,0,1,171.7,142.831Z" transform="translate(-143.807 -126.549)" fill="#fc5d3d"/>
            <path id="Trazado_826251" data-name="Trazado 826251" d="M76.881,130.649l0,0v0Z" transform="translate(-72.764 -126.541)" fill="#13bf6d"/>
            <path id="Trazado_826252" data-name="Trazado 826252" d="M59.805,142.831H55.862a14,14,0,0,1,3.93-12.172L62.53,133.4A10.154,10.154,0,0,0,59.805,142.831Z" transform="translate(-55.677 -126.549)" fill="#13bf6d"/>
            <path id="Trazado_826253" data-name="Trazado 826253" d="M96.724,113.589l-2.738,2.736,0,0a10.155,10.155,0,0,0-14.367,0l-2.738-2.738,0,0a14.032,14.032,0,0,1,19.841,0Z" transform="translate(-72.764 -109.479)" fill="#f0c020"/>
            <path id="Trazado_826254" data-name="Trazado 826254" d="M117.68,173.8h-5.43a3.14,3.14,0,0,1,2.713-4.714,3.067,3.067,0,0,1,2.078.784,3.206,3.206,0,0,1,.939,1.5A3.075,3.075,0,0,1,117.68,173.8Z" transform="translate(-100.926 -157.521)" fill="#7d7b79"/>
            <path id="Trazado_826255" data-name="Trazado 826255" d="M147.99,158.27l-1.539.561-6.792,2.472a3.206,3.206,0,0,0-.939-1.5l7.138-2.6,1.539-.561a.867.867,0,0,1,.594,1.628Z" transform="translate(-122.603 -147.447)" fill="#72c2e9"/>
            <g id="Grupo_1074212" data-name="Grupo 1074212" transform="translate(1.269 4.856)">
              <path id="Trazado_826256" data-name="Trazado 826256" d="M62.233,144.415q-.012-.2-.017-.4a.485.485,0,1,1,.97-.026q0,.186.016.373a.485.485,0,0,1-.969.056Zm.506-1.871a.485.485,0,0,1-.418-.544,12.826,12.826,0,0,1,3.629-7.355.485.485,0,1,1,.686.686,11.85,11.85,0,0,0-3.353,6.8.485.485,0,0,1-.544.418Z" transform="translate(-62.216 -134.503)" fill="#76ffbb"/>
            </g>
          </g>
        </g>
        <g id="Grupo_1074216" data-name="Grupo 1074216" transform="translate(12.121)">
          <path id="Trazado_826257" data-name="Trazado 826257" d="M78.4,22.394l-1.308,1.8-2.527,3.485-1.549,2.135-1.549-2.135L68.94,24.2l-1.31-1.8h3.163V14.3h4.442v8.095Z" transform="translate(-67.63 -14.299)" fill="#13bf6d"/>
          <g id="Grupo_1074215" data-name="Grupo 1074215" transform="translate(12.663)">
            <path id="Trazado_826258" data-name="Trazado 826258" d="M143.649,21.724h-3.163v8.095h-4.442V21.724H132.88l5.383-7.425Z" transform="translate(-132.88 -14.299)" fill="#fc5d3d"/>
          </g>
        </g>
      </g>
      <g id="Grupo_1074218" data-name="Grupo 1074218" transform="translate(35.198 35.616)">
        <path id="Trazado_826259" data-name="Trazado 826259" d="M173.863,144.337a11.728,11.728,0,0,0-3.438-9.006.485.485,0,0,1,.686-.686,12.694,12.694,0,0,1,3.72,9.746A.485.485,0,0,1,173.863,144.337Z" transform="translate(-170.283 -134.503)" fill="#ffcbc3"/>
      </g>
      <g id="Grupo_1074219" data-name="Grupo 1074219" transform="translate(17.811 32.012)">
        <path id="Trazado_826260" data-name="Trazado 826260" d="M98.22,120.365a11.8,11.8,0,0,0-16.695,0,.485.485,0,0,1-.686-.686,12.766,12.766,0,0,1,18.068,0,.485.485,0,1,1-.687.686Z" transform="translate(-80.69 -115.933)" fill="#f8e5b0"/>
      </g>
      <circle id="Elipse_9866" data-name="Elipse 9866" cx="0.485" cy="0.485" r="0.485" transform="translate(47.818 31.153)"/>
      <circle id="Elipse_9867" data-name="Elipse 9867" cx="0.485" cy="0.485" r="0.485" transform="translate(16.117 55.933)"/>
      <path id="Trazado_826261" data-name="Trazado 826261" d="M7.632,56.9h7.029a.485.485,0,0,0,0-.97H7.632A4.007,4.007,0,0,1,3.64,51.941V50.884a.351.351,0,0,1,.349-.351H21.854v.677a2.04,2.04,0,0,0,2.038,2.038h6.2a2.04,2.04,0,0,0,2.038-2.038v-.677H50a.351.351,0,0,1,.349.351v1.058a4.007,4.007,0,0,1-3.992,3.992H18.543a.485.485,0,0,0,0,.97h27.81a4.96,4.96,0,0,0,4.962-4.962V50.884A1.324,1.324,0,0,0,50,49.562H48.788V33.579a.485.485,0,0,0-.97,0V49.562H6.167V24.195a1.523,1.523,0,0,1,1.521-1.521h8.651l1.824,2.515H8.69a.485.485,0,0,0-.485.485V47.042a.485.485,0,0,0,.485.485H45.3a.485.485,0,0,0,.485-.485V25.674a.485.485,0,0,0-.485-.485H36.03V22.672H46.3A1.529,1.529,0,0,1,47.818,24.2v5.5a.485.485,0,0,0,.97,0V24.2A2.5,2.5,0,0,0,46.3,21.7H36.03V20.2h2.678a.486.486,0,0,0,.393-.77L33.716,12a.486.486,0,0,0-.786,0l-5.383,7.425a.486.486,0,0,0,.393.77h2.678v1.5H25.688l.751-1.036a.485.485,0,0,0-.394-.769H23.367V12.289a.485.485,0,0,0-.97,0v8.095a.487.487,0,0,0,.485.485h2.212l-4.433,6.113-4.434-6.113H18.44a.486.486,0,0,0,.485-.485V18.022a.485.485,0,0,0-.97,0V19.9H15.276a.483.483,0,0,0-.392.769l.751,1.036H7.689A2.5,2.5,0,0,0,5.2,24.195V49.562H3.99a1.324,1.324,0,0,0-1.32,1.322v1.058A4.96,4.96,0,0,0,7.632,56.9Zm32.8-10.347H37.494a10.675,10.675,0,0,0-.116-4.106l1.132-.412a1.352,1.352,0,0,0-.926-2.54l-1.129.411a10.557,10.557,0,0,0-1.6-2.3l2.053-2.052A13.6,13.6,0,0,1,40.427,46.556ZM20.153,37.951a9.678,9.678,0,0,1,15.381,2.293l-6.368,2.317a3.62,3.62,0,0,0-5.311,1.1,3.58,3.58,0,0,0-.317,2.895H17.485a9.614,9.614,0,0,1,2.668-8.606ZM36.5,46.556H30.453a3.533,3.533,0,0,0,.121-1.629l5.885-2.142A9.7,9.7,0,0,1,36.5,46.556ZM24.7,44.145a2.654,2.654,0,0,1,4.721,2.411H24.575A2.619,2.619,0,0,1,24.7,44.145Zm5.6-.151h0a4.093,4.093,0,0,0-.387-.671l8-2.912a.381.381,0,0,1,.263.716h0Zm3.868-7.065a10.635,10.635,0,0,0-14.352,0l-2.054-2.054a13.54,13.54,0,0,1,18.461,0ZM17.078,35.562l2.054,2.054a10.573,10.573,0,0,0-2.637,8.941H13.56A13.545,13.545,0,0,1,17.078,35.562Zm13.54-12.889v2.515H23.16l1.824-2.515Zm-9.564,5.419,1.4-1.934h8.161v1.65a.485.485,0,0,0,.97,0V19.714a.485.485,0,0,0-.485-.485H28.891l4.433-6.114,4.434,6.114H35.545a.485.485,0,0,0-.485.485v8.095a.485.485,0,0,0,.97,0v-1.65H44.81v20.4H41.4c1.662-13.664-14.943-21.764-24.675-12.031a14.522,14.522,0,0,0-4.146,12.031H9.175v-20.4h9.692l1.4,1.934a.482.482,0,0,0,.784,0Zm10.107,22.44v.677a1.073,1.073,0,0,1-1.067,1.067h-6.2a1.072,1.072,0,0,1-1.067-1.067v-.677Z" transform="translate(0 0)"/>
      <circle id="Elipse_9868" data-name="Elipse 9868" cx="0.485" cy="0.485" r="0.485" transform="translate(17.955 15.596)"/>
      <path id="Trazado_826262" data-name="Trazado 826262" d="M82.4,12.309a.485.485,0,0,0-.97,0v1.851a.485.485,0,0,0,.97,0Z" transform="translate(-63.475 -0.02)"/>
    </g>
  </g>
</svg>
