<svg xmlns="http://www.w3.org/2000/svg" xmlns:xlink="http://www.w3.org/1999/xlink" width="61" height="61" viewBox="0 0 61 61">
  <defs>
    <clipPath id="clip-path">
      <path id="path6975" d="M0-682.665H38.875v38.875H0Z" transform="translate(0 682.665)"/>
    </clipPath>
  </defs>
  <g id="Grupo_1074221" data-name="Grupo 1074221" transform="translate(-3164 5028)">
    <circle id="Elipse_9792" data-name="Elipse 9792" cx="30.5" cy="30.5" r="30.5" transform="translate(3164 -5028)" fill="#2cfedf"/>
    <g id="g6969" transform="translate(3175 -4333.335)">
      <g id="g6971" transform="translate(0 -682.665)">
        <g id="g6973" clip-path="url(#clip-path)">
          <g id="g6979" transform="translate(2.416 0.569)">
            <path id="path6981" d="M-207.9-93.951l-4.239-4.874a2.322,2.322,0,0,0-1.752-.8,2.322,2.322,0,0,0-1.752.8l-4.239,4.874a2.346,2.346,0,0,0,.222,3.294c1.577,1.4,3.443-.41,3.443-.41v18.221h4.651V-91.067s1.87,1.831,3.443.41a2.353,2.353,0,0,0,.222-3.294" transform="translate(220.454 99.624)" fill="#b0f0ef"/>
          </g>
          <g id="g6983" transform="translate(6.652 17.691)">
            <path id="path6985" d="M-77.018-3.891a19.185,19.185,0,0,0-4.651-.164V5.53h4.651Z" transform="translate(81.669 4.126)" fill="#76e7e7"/>
          </g>
          <g id="g6987" transform="translate(0.569 21.424)">
            <path id="path6989" d="M-278.49-139.78a8.424,8.424,0,0,1-8.408,8.44,8.424,8.424,0,0,1-8.408-8.44,8.424,8.424,0,0,1,8.408-8.441,8.424,8.424,0,0,1,8.408,8.441" transform="translate(295.306 148.221)" fill="#60daa8"/>
          </g>
          <g id="g6991" transform="translate(0.569 21.424)">
            <path id="path6993" d="M-71.916-139.78a8.44,8.44,0,0,1,6.238-8.156,8.4,8.4,0,0,0-2.172-.284,8.424,8.424,0,0,0-8.408,8.441,8.424,8.424,0,0,0,8.408,8.44,8.4,8.4,0,0,0,2.172-.285,8.439,8.439,0,0,1-6.238-8.156" transform="translate(76.258 148.221)" fill="#00ce8e"/>
          </g>
          <g id="g6995" transform="translate(4.202 25.071)">
            <path id="path6997" d="M-134.047-55.17h-1.862v-1.869a1.46,1.46,0,0,0-1.457-1.463,1.46,1.46,0,0,0-1.457,1.463v1.869h-1.862a1.46,1.46,0,0,0-1.457,1.463,1.46,1.46,0,0,0,1.457,1.462h1.862v1.869a1.46,1.46,0,0,0,1.457,1.463,1.46,1.46,0,0,0,1.457-1.463v-1.869h1.862a1.46,1.46,0,0,0,1.457-1.462,1.46,1.46,0,0,0-1.457-1.463" transform="translate(142.141 58.501)" fill="#fffcdc"/>
          </g>
          <g id="g6999" transform="translate(23.336 11.528)">
            <path id="path7001" d="M-207.9-349.5l-4.239,4.874a2.322,2.322,0,0,1-1.752.8,2.322,2.322,0,0,1-1.752-.8l-4.239-4.874a2.346,2.346,0,0,1,.222-3.294c1.577-1.4,3.443.41,3.443.41V-370.6h4.651v18.221s1.87-1.831,3.443-.41a2.353,2.353,0,0,1,.222,3.294" transform="translate(220.453 370.603)" fill="#b0f0ef"/>
          </g>
          <g id="g7003" transform="translate(27.572 11.528)">
            <path id="path7005" d="M-77.018-156.013a19.186,19.186,0,0,1-4.651.164v-9.585h4.651Z" transform="translate(81.669 165.434)" fill="#76e7e7"/>
          </g>
          <g id="g7007" transform="translate(21.489 0.569)">
            <path id="path7009" d="M-278.49-139.779a8.424,8.424,0,0,0-8.408-8.44,8.424,8.424,0,0,0-8.408,8.44,8.424,8.424,0,0,0,8.408,8.441,8.424,8.424,0,0,0,8.408-8.441" transform="translate(295.306 148.22)" fill="#ff8a98"/>
          </g>
          <g id="g7011" transform="translate(21.489 0.569)">
            <path id="path7013" d="M-71.916-139.779a8.44,8.44,0,0,1,6.238-8.156,8.4,8.4,0,0,0-2.173-.285,8.424,8.424,0,0,0-8.408,8.44,8.424,8.424,0,0,0,8.408,8.441,8.4,8.4,0,0,0,2.173-.285,8.44,8.44,0,0,1-6.238-8.156" transform="translate(76.258 148.22)" fill="#fd5c6f"/>
          </g>
          <g id="g7015" transform="translate(25.122 7.547)">
            <path id="path7017" d="M0-24.176v.006a1.46,1.46,0,0,0,1.46,1.46H8.091a1.46,1.46,0,0,0,1.46-1.46v-.006a1.46,1.46,0,0,0-1.46-1.46H1.46A1.46,1.46,0,0,0,0-24.176" transform="translate(0 25.636)" fill="#fffcdc"/>
          </g>
          <g id="g7019" transform="translate(1.851)">
            <path id="path7021" d="M-160.635-359.39h-1.139v-11.6a2.741,2.741,0,0,1-3.252-.264,2.926,2.926,0,0,1-.274-4.093l4.239-4.874a2.89,2.89,0,0,1,2.181-.995,2.891,2.891,0,0,1,2.181.995l4.239,4.874a2.906,2.906,0,0,1-.27,4.09,2.718,2.718,0,0,1-3.256.272v11.478h-1.139v-12.583a.569.569,0,0,1,.349-.525.569.569,0,0,1,.619.118c.06.058,1.511,1.436,2.663.394a1.775,1.775,0,0,0,.174-2.5l-4.239-4.874a1.752,1.752,0,0,0-1.322-.6,1.752,1.752,0,0,0-1.322.6l-4.239,4.874a1.784,1.784,0,0,0,.171,2.494c1.168,1.039,2.608-.334,2.668-.393a.57.57,0,0,1,.618-.116.569.569,0,0,1,.348.524Z" transform="translate(166.007 381.22)"/>
          </g>
          <g id="g7023" transform="translate(22.77 16.597)">
            <path id="path7025" d="M-158.88,12.278a2.891,2.891,0,0,1-2.181-.995L-165.3,6.409a2.926,2.926,0,0,1,.274-4.093,2.741,2.741,0,0,1,3.252-.264V-7.015a.569.569,0,0,1,.569-.569.569.569,0,0,1,.569.569V3.152a.569.569,0,0,1-.348.524.569.569,0,0,1-.618-.116c-.06-.057-1.51-1.423-2.668-.393a1.784,1.784,0,0,0-.171,2.494l4.239,4.874a1.752,1.752,0,0,0,1.322.6,1.752,1.752,0,0,0,1.322-.6l4.239-4.874a1.775,1.775,0,0,0-.174-2.5c-1.162-1.05-2.6.335-2.663.394a.569.569,0,0,1-.619.118.569.569,0,0,1-.349-.525V-9.431a.569.569,0,0,1,.569-.569.569.569,0,0,1,.569.569V2.047a2.718,2.718,0,0,1,3.256.272,2.906,2.906,0,0,1,.27,4.09l-4.239,4.874A2.891,2.891,0,0,1-158.88,12.278Z" transform="translate(166.008 10)"/>
          </g>
          <g id="g7027" transform="translate(0 20.855)">
            <path id="path7029" d="M-32.562-231.771a8.9,8.9,0,0,1-5.144-1.625.569.569,0,0,1-.138-.793.569.569,0,0,1,.793-.138,7.767,7.767,0,0,0,4.49,1.418,7.864,7.864,0,0,0,7.839-7.871,7.864,7.864,0,0,0-7.839-7.871,7.864,7.864,0,0,0-7.839,7.871,7.811,7.811,0,0,0,1.675,4.863.569.569,0,0,1-.1.8.569.569,0,0,1-.8-.1,8.939,8.939,0,0,1-1.917-5.566,9,9,0,0,1,8.978-9.01,9,9,0,0,1,8.978,9.01A9,9,0,0,1-32.562-231.771Z" transform="translate(41.54 249.791)"/>
          </g>
          <g id="g7031" transform="translate(3.633 24.502)">
            <path id="path7033" d="M-146.8-68.5a2.031,2.031,0,0,1,2.026,2.032v1.3h1.292a2.031,2.031,0,0,1,2.026,2.032,2.031,2.031,0,0,1-2.026,2.032h-1.292v1.3a2.031,2.031,0,0,1-2.026,2.032,2.031,2.031,0,0,1-2.026-2.032v-1.3h-1.292a2.031,2.031,0,0,1-2.026-2.032,2.032,2.032,0,0,1,2.026-2.032h1.292v-1.3A2.031,2.031,0,0,1-146.8-68.5Zm3.319,6.256a.891.891,0,0,0,.887-.893.891.891,0,0,0-.887-.893h-1.862a.569.569,0,0,1-.569-.569v-1.869a.891.891,0,0,0-.888-.893.891.891,0,0,0-.887.893V-64.6a.569.569,0,0,1-.569.569h-1.862a.891.891,0,0,0-.887.893.891.891,0,0,0,.887.893h1.862a.569.569,0,0,1,.569.569v1.869a.891.891,0,0,0,.887.893.891.891,0,0,0,.888-.893v-1.869a.569.569,0,0,1,.569-.569Z" transform="translate(152.141 68.501)"/>
          </g>
          <g id="g7035" transform="translate(20.92 0)">
            <path id="path7037" d="M-296.328-158.22a9,9,0,0,1,8.978,9.01,9,9,0,0,1-8.978,9.01,9,9,0,0,1-8.978-9.01A9,9,0,0,1-296.328-158.22Zm0,16.881a7.864,7.864,0,0,0,7.839-7.871,7.864,7.864,0,0,0-7.839-7.871,7.864,7.864,0,0,0-7.839,7.871A7.864,7.864,0,0,0-296.328-141.339Z" transform="translate(305.306 158.22)"/>
          </g>
          <g id="g7039" transform="translate(24.552 6.978)">
            <path id="path7041" d="M-143.429-57.3a.569.569,0,0,1-.569-.569.569.569,0,0,1,.569-.569.891.891,0,0,0,.89-.89.893.893,0,0,0-.89-.9h-6.632a.891.891,0,0,0-.89.89.892.892,0,0,0,.89.9h4.262a.569.569,0,0,1,.569.569.569.569,0,0,1-.569.569h-4.262a2.032,2.032,0,0,1-2.029-2.029,2.033,2.033,0,0,1,2.029-2.035h6.632a2.032,2.032,0,0,1,2.029,2.029A2.033,2.033,0,0,1-143.429-57.3Z" transform="translate(152.09 61.366)"/>
          </g>
        </g>
      </g>
    </g>
  </g>
</svg>
