<svg xmlns="http://www.w3.org/2000/svg" xmlns:xlink="http://www.w3.org/1999/xlink" width="295" height="368" viewBox="0 0 295 368">
  <defs>
    <clipPath id="clip-path">
      <rect id="Rectángulo_383143" data-name="Rectángulo 383143" width="295" height="368" rx="12" transform="translate(180 6460)" fill="#3a1d71"/>
    </clipPath>
    <clipPath id="clip-path-2">
      <rect id="Rectángulo_383151" data-name="Rectángulo 383151" width="151.871" height="237.062" fill="none"/>
    </clipPath>
    <clipPath id="clip-path-3">
      <rect id="Rectángulo_383142" data-name="Rectángulo 383142" width="505.863" height="816.077" fill="none"/>
    </clipPath>
    <clipPath id="clip-path-5">
      <rect id="Rectángulo_383139" data-name="Rectángulo 383139" width="5.78" height="4.22" fill="none"/>
    </clipPath>
    <clipPath id="clip-path-6">
      <rect id="Rectángulo_383140" data-name="Rectángulo 383140" width="13.668" height="4.828" fill="none"/>
    </clipPath>
    <clipPath id="clip-path-7">
      <rect id="Rectángulo_383150" data-name="Rectángulo 383150" width="147.5" height="92.688" fill="none"/>
    </clipPath>
  </defs>
  <g id="Grupo_1074037" data-name="Grupo 1074037" transform="translate(-180 -6460)">
    <rect id="Rectángulo_382996" data-name="Rectángulo 382996" width="239" height="368" rx="12" transform="translate(180 6460)" fill="#3a1d71"/>
    <g id="Enmascarar_grupo_161" data-name="Enmascarar grupo 161" clip-path="url(#clip-path)">
      <g id="Grupo_1074036" data-name="Grupo 1074036" transform="translate(326.113 6594.929)">
        <g id="Grupo_1074036-2" data-name="Grupo 1074036" clip-path="url(#clip-path-2)">
          <path id="Trazado_825151" data-name="Trazado 825151" d="M106.422,79.805l-2.5,11.432-.719,3.291-.092.438-1.427,6.522-.108.5-.188.87-.088.394-.335,1.53-.392,1.812L97,122.907l-.276,1.259-.8,3.643-.28,1.293-1.664,7.6-.268,1.221-.405,1.848-.271,1.251-3.1,14.122-.075.352-.348,1.581-.371,1.705-1.527,6.96-.719,3.291-3.363,15.356c-.335.062-.669.121-1,.18h0c-.378.067-.749.132-1.13.191a129.568,129.568,0,0,1-38.133.427c-.44-.054-.878-.113-1.318-.175-1.351-.188-2.711-.4-4.07-.623L34.928,170.9l-.273-1.243-.137-.628-.724-3.291-1.12-5.127-.268-1.218-.134-.615-.723-3.286-2.029-9.257-.268-1.221-1.82-8.319-.3-1.377L24.7,124.241l-.293-1.342-3.572-16.308-.392-1.812-.423-1.924-.3-1.367-.356-1.627-.288-1.31L18.3,94.966l-.092-.438-.719-3.291L14.992,79.805Z" transform="translate(9.52 50.677)" fill="#2cfedf"/>
          <path id="Trazado_825152" data-name="Trazado 825152" d="M41.977,79.805A15.806,15.806,0,0,1,38.8,87.128c-3.406,4.451-8.716,6.844-13.687,9.094-2.492,1.125-4.961,2.3-7.331,3.64l-.289-1.31c.365-.209.737-.41,1.105-.607,5.471-2.9,11.6-4.768,16.45-8.742a15.951,15.951,0,0,0,5.688-9.4Z" transform="translate(11.107 50.677)" fill="#5880eb"/>
          <path id="Trazado_825153" data-name="Trazado 825153" d="M93.346,116.36l-.276,1.259a24.148,24.148,0,0,1-11.293-10.184c-2.789-4.969-4.483-11.188-9.72-14.226-5.17-2.994-11.762-2.008-16.945.419-5.729,2.686-10.271,7.371-14.9,11.561a65.76,65.76,0,0,1-14.965,10.5c-1.264.626-2.694,1.346-4.2,2l-.293-1.342c.142-.064.284-.121.427-.18a60.067,60.067,0,0,0,16.568-10.453c7.436-6.529,14.61-14.568,25.091-15.523a15.96,15.96,0,0,1,11.708,3.221c3.651,3.02,5.342,7.591,7.425,11.7A24.76,24.76,0,0,0,93.346,116.36" transform="translate(13.177 57.224)" fill="#5880eb"/>
          <path id="Trazado_825154" data-name="Trazado 825154" d="M77.153,101.986l-.188.87-.088.394c-.682.011-1.372-.01-2.067-.059A23.222,23.222,0,0,1,53.459,79.805h1.259a21.955,21.955,0,0,0,20.093,22.13,19.724,19.724,0,0,0,2.343.051" transform="translate(33.946 50.677)" fill="#5880eb"/>
          <path id="Trazado_825155" data-name="Trazado 825155" d="M82.839,116.493l-.271,1.251a17.692,17.692,0,0,0-10.374,2.768c-6.319,4.1-9.449,11.277-10.131,18.551-.531,5.664-1.326,12-7.98,13.242-3.474.649-7.055,0-10.507.888a17.1,17.1,0,0,0-8.813,5.659,15.14,15.14,0,0,0-1.965,3.057q-.66-.081-1.318-.177a15.848,15.848,0,0,1,1.552-2.677,18.465,18.465,0,0,1,7.91-6.29c3.734-1.552,7.469-1.146,11.4-1.49,4.928-.432,7.325-3.546,8.044-8.206.589-3.824.589-7.6,1.866-11.306,2.258-6.558,7.2-12.46,14-14.511a18.994,18.994,0,0,1,6.584-.76" transform="translate(19.99 73.953)" fill="#5880eb"/>
          <path id="Trazado_825156" data-name="Trazado 825156" d="M64.733,125.881l-.075.352-.347,1.581c-4.179,3.743-6.354,10.281-7.658,15.3-1.009,3.89-1.256,8.211.535,11.929.043.092.088.18.134.268-.376.067-.749.134-1.13.193a18.6,18.6,0,0,1-1.225-10.557A44.508,44.508,0,0,1,59.872,131.6a17.128,17.128,0,0,1,4.861-5.718" transform="translate(34.729 79.936)" fill="#5880eb"/>
          <path id="Trazado_825157" data-name="Trazado 825157" d="M54.225,128.008a9.21,9.21,0,0,0,.84,5.96c.5.971,1.256,1.79,1.723,2.773.963,2.018.309,3.891-.656,5.773a28.682,28.682,0,0,1-8.455,9.8,31.131,31.131,0,0,1-17.467,6.139l-.271-1.243A29.954,29.954,0,0,0,49.582,149.1a27.039,27.039,0,0,0,4.313-5.206,23,23,0,0,0,1.418-2.531,4.643,4.643,0,0,0-.28-5.091c-2.2-3.463-3.049-7.344-1.1-11.175,1.874-3.693,5.5-5.978,8.78-8.286,3.847-2.7,8.553-6.759,7.119-12.093-1.632-6.048-8.955-3.944-13-2.129A137.679,137.679,0,0,0,43.2,109.734a152.48,152.48,0,0,0-20.483,14.514l-.3-1.375a153.722,153.722,0,0,1,26.551-17.8c4.279-2.258,9.06-5.152,13.988-5.624,4.053-.389,7.776,1.751,8.281,6.022,1.36,11.445-15.054,12.683-17.011,22.537" transform="translate(14.234 63.123)" fill="#5880eb"/>
          <path id="Trazado_825158" data-name="Trazado 825158" d="M34.095,131.994a22.062,22.062,0,0,1-6.96,3.772l-.268-1.216a21.054,21.054,0,0,0,5.384-2.727c2.768-1.954,7.361-6.466,4.112-9.975-2.359-2.547-7.4-1.74-10.353-1.042q-1.03.245-2.029.585l-.267-1.221a23.048,23.048,0,0,1,3.973-.961c3.388-.507,8.478-.716,10.356,2.868,1.987,3.787-1.151,7.658-3.949,9.918" transform="translate(15.059 75.52)" fill="#5880eb"/>
          <path id="Trazado_825159" data-name="Trazado 825159" d="M54.606,111.139c.41,2.037,3.074,3.618,4.681,4.639a26.434,26.434,0,0,0,10.394,3.9l-.268,1.221A28.133,28.133,0,0,1,61,118.2c-2.773-1.4-9.068-4.813-7.483-8.845,1.645-4.179,7.977-2.583,11.151-1.661a28.2,28.2,0,0,1,6.96,3.1l-.28,1.292a26.893,26.893,0,0,0-5.124-2.551c-2.384-.886-12.711-3.837-11.615,1.609" transform="translate(33.822 67.699)" fill="#5880eb"/>
          <path id="Trazado_825160" data-name="Trazado 825160" d="M106.423,81.224c0,2.018-20.467,3.653-45.715,3.653s-45.717-1.635-45.717-3.653,20.469-3.653,45.717-3.653,45.715,1.635,45.715,3.653" transform="translate(9.519 49.258)" fill="#171612"/>
          <path id="Trazado_825161" data-name="Trazado 825161" d="M50.286,88.9A25.634,25.634,0,0,1,56.4,75.752a26.655,26.655,0,0,1,6.766-5.695,1.772,1.772,0,0,0-1.655-3.134c-.572.3-12.832,6.928-14.807,21.978Z" transform="translate(29.656 42.367)" fill="#539380"/>
          <path id="Trazado_825162" data-name="Trazado 825162" d="M45.153,82.036S24.578,43.23,98.389,16.022a5.1,5.1,0,0,1,6.744,5.915c-4.655,20.2-19.934,67.438-59.98,60.1" transform="translate(26.999 9.968)" fill="#365f54"/>
          <path id="Trazado_825163" data-name="Trazado 825163" d="M34.351,100.772a72.028,72.028,0,0,1,17.6-36.734A66.707,66.707,0,0,1,66.812,51.33l.038-.023a1.759,1.759,0,0,0,.6-2.421,1.783,1.783,0,0,0-2.439-.61c-2.954,1.74-28.8,17.872-34.249,52.5Z" transform="translate(19.536 30.496)" fill="#365f54"/>
          <path id="Trazado_825164" data-name="Trazado 825164" d="M40.934,92.2h3.545c.2-15.755-9.238-29.33-9.65-29.916a1.772,1.772,0,0,0-2.9,2.042c.095.134,9.2,13.226,9,27.874" transform="translate(20.071 39.072)" fill="#365f54"/>
          <path id="Trazado_825165" data-name="Trazado 825165" d="M44.012,101.8l1.408-53.586a1.772,1.772,0,0,0-3.543-.093L40.467,101.8Z" transform="translate(25.697 29.465)" fill="#539380"/>
          <path id="Trazado_825166" data-name="Trazado 825166" d="M55.512,91.1S13.652,104.4.08,26.915a5.1,5.1,0,0,1,7.026-5.579C26.15,29.53,69.894,53.007,55.512,91.1" transform="translate(0 13.28)" fill="#365f54"/>
          <path id="Trazado_825167" data-name="Trazado 825167" d="M50.686,94.982s37.63,22.656,68.813-49.564a5.1,5.1,0,0,0-5.539-7.058C93.533,41.911,45.537,54.6,50.686,94.982" transform="translate(31.943 24.309)" fill="#539380"/>
          <path id="Trazado_825168" data-name="Trazado 825168" d="M56.131,97.465a7.4,7.4,0,0,1-13.71-1.025C33.5,67.938,18.54,7.526,49.507.594c34.746-7.779,23.1,62.78,6.623,96.871" transform="translate(19.6 0)" fill="#539380"/>
          <path id="Trazado_825169" data-name="Trazado 825169" d="M42.327,94.1l-.039,0a.965.965,0,0,1-.927-1l3.27-80.77a.967.967,0,0,1,1.933.078l-3.272,80.77a.967.967,0,0,1-.965.927" transform="translate(26.264 7.235)" fill="#365f54"/>
          <path id="Trazado_825170" data-name="Trazado 825170" d="M51.547,88a.966.966,0,0,1-.613-1.713l44.729-36.6a.967.967,0,0,1,1.225,1.5L52.158,87.78a.961.961,0,0,1-.611.219" transform="translate(32.119 31.409)" fill="#365f54"/>
        </g>
      </g>
      <g id="Grupo_1074033" data-name="Grupo 1074033" transform="translate(39.661 6460) rotate(9)">
        <g id="Grupo_1074032" data-name="Grupo 1074032" clip-path="url(#clip-path-3)">
          <g id="Grupo_1074031" data-name="Grupo 1074031">
            <g id="Grupo_1074030" data-name="Grupo 1074030" clip-path="url(#clip-path-3)">
              <path id="Trazado_825008" data-name="Trazado 825008" d="M273.636,53.2a14.114,14.114,0,0,0-18.257,8.071l-.437,1.131-4.048,10.473c-.7,1.761-1.385,3.531-2.1,5.274-.7,1.759-1.432,3.487-2.15,5.21-.4.954-.813,1.9-1.222,2.85-.225.53-.457,1.054-.7,1.58-1.513,3.447-3.076,6.81-4.7,10.038-.247.495-.495.988-.745,1.474h-.007q-.945,1.856-1.927,3.635a87,87,0,0,1-5.126,8.246c-.857,1.226-1.723,2.355-2.567,3.338a27.171,27.171,0,0,1-2.386,2.446c-.113.1-.223.188-.323.276l-.628-.194a26.313,26.313,0,0,1-2.658-1.01c-1.067-.449-2.258-1.005-3.513-1.668s-2.563-1.4-3.906-2.2c-1.281-.762-2.585-1.586-3.9-2.455-.066-.042-.139-.086-.206-.133l-1.164-.782c-2.452-1.657-4.945-3.442-7.439-5.32-.5-.382-1.012-.762-1.52-1.156-2.287-1.732-4.574-3.551-6.86-5.406-4.96-4.021-9.92-8.252-14.852-12.583L178.093,82.4c-.11-.1-.214-.194-.325-.294-2.718-2.408-5.431-4.85-8.142-7.291l-8.241-7.461-.519-.464a21.342,21.342,0,0,0-30.839,29.335l1.111,1.359,1.038,1.248,2.07,2.43c1.392,1.6,2.791,3.177,4.216,4.728,2.832,3.115,5.749,6.147,8.732,9.129,5.961,5.968,12.207,11.721,18.858,17.251a194.749,194.749,0,0,0,21.626,15.72q1.945,1.2,3.97,2.364c.486.287.972.563,1.469.833.236.139.479.272.722.4,1.966,1.078,4.017,2.117,6.167,3.115.177.088.358.172.539.254.36.166.718.327,1.078.486,1.977.884,4.032,1.734,6.242,2.508a66.662,66.662,0,0,0,9,2.486c1.624.316,3.336.586,5.159.762l1.4.117,1.438.075c.495.011.977.029,1.485.029h.762l.382-.011.442-.018a38.244,38.244,0,0,0,6.986-.9,38.738,38.738,0,0,0,5.634-1.734c.283-.106.552-.221.822-.331s.532-.225.791-.342c.5-.225,1-.457,1.485-.7a42.042,42.042,0,0,0,7.939-5.095,49.887,49.887,0,0,0,4.441-4.07c.508-.519.988-1.038,1.454-1.558v0c.4-.444.784-.879,1.153-1.315a63.608,63.608,0,0,0,5.066-6.933c.276-.431.541-.862.8-1.286.453-.747.89-1.487,1.308-2.227.621-1.094,1.206-2.176,1.763-3.259,1.138-2.236,2.148-4.452,3.076-6.644s1.768-4.37,2.53-6.536a150.566,150.566,0,0,0,4.984-17.395v0c.137-.574.263-1.149.387-1.719q.693-3.261,1.279-6.511c.382-2.117.714-4.236,1.034-6.348.3-2.121.581-4.229.813-6.352s.429-4.24.6-6.372c.075-1.074.137-2.143.2-3.221l.082-1.628.029-.835c.015-.294.015-.546.044-.924a14.13,14.13,0,0,0-9-14.045m-48.1,64.958c-.188.077-.309.1-.336.06s.033-.126.186-.23a3.89,3.89,0,0,1,1.255-.508,4.856,4.856,0,0,1-1.1.678" transform="translate(151.438 63.192)" fill="#314fa5"/>
              <path id="Trazado_825009" data-name="Trazado 825009" d="M174.762,87.137a.668.668,0,0,1-.011.093c-.751,5.236-5.247,10.694-10.672,6.661-2.64-1.966-4.364-5.285-6-8.058A101.582,101.582,0,0,1,152.4,74.692q-1.916-4.391-3.4-8.931c.11.1.214.2.325.292l2.2,1.94a100.71,100.71,0,0,0,9.229,19.061c1.734,2.791,4.5,7.784,8.528,6.281,2.945-1.094,3.663-4.43,3.957-7.353.506.393,1.014.773,1.518,1.156" transform="translate(180.207 79.534)" fill="#5880eb"/>
              <path id="Trazado_825010" data-name="Trazado 825010" d="M213.132,80.85c-.122.57-.25,1.144-.387,1.717v.007a33.8,33.8,0,0,1-14.129-1.414c-7.452-2.38-13.749-6.717-19.31-11.957.236-.526.468-1.049.7-1.58a50.922,50.922,0,0,0,17.315,11.343,33.419,33.419,0,0,0,15.815,1.885" transform="translate(216.859 81.785)" fill="#5880eb"/>
              <path id="Trazado_825011" data-name="Trazado 825011" d="M203.372,110.046c-.42.74-.855,1.48-1.308,2.227a51.711,51.711,0,0,0-25.221-37.921c.247-.486.5-.979.745-1.474a53.316,53.316,0,0,1,25.784,37.167" transform="translate(213.881 88.143)" fill="#5880eb"/>
              <path id="Trazado_825012" data-name="Trazado 825012" d="M195.622,108.753v.007c-.464.517-.946,1.038-1.454,1.555a46.237,46.237,0,0,0-2.026-9.134c-1.023-3.089-8.319-20.172-12.532-14.357-1.719,2.369-1.46,6.732-1.542,9.527a63.049,63.049,0,0,0,.4,9.2,61.542,61.542,0,0,0,3.319,13.931c-.486.243-.983.475-1.487.7a64.158,64.158,0,0,1-3.765-17.532,57.562,57.562,0,0,1,.376-12.576c.325-2.165,1.014-4.96,3.19-6.014,2.581-1.244,4.761.751,6.266,2.656a45.063,45.063,0,0,1,5.992,10.367,47.876,47.876,0,0,1,3.259,11.672" transform="translate(213.301 101.197)" fill="#5880eb"/>
              <path id="Trazado_825013" data-name="Trazado 825013" d="M171.4,78.761a69.137,69.137,0,0,0-4.335,10.524,129.507,129.507,0,0,0-5.954,28.811c-.2,2.159-.338,4.331-.426,6.5-.358-.161-.718-.32-1.076-.486-.183-.084-.365-.166-.541-.254q.2-4.368.689-8.712a126.2,126.2,0,0,1,6.827-29.507,61.6,61.6,0,0,1,3.447-7.788c.393.265.78.526,1.167.784l.2.133" transform="translate(192.38 94.148)" fill="#5880eb"/>
              <path id="Trazado_825014" data-name="Trazado 825014" d="M165.925,116.582c-.5-.27-.983-.546-1.469-.835a31.564,31.564,0,0,0,.658-15.057c-1.852-8.544-8.042-16.237-16.821-18.126-1.043-.221-.6-1.825.435-1.6,9.048,1.951,15.627,9.755,17.81,18.526a33.09,33.09,0,0,1-.614,17.09" transform="translate(178.631 97.897)" fill="#5880eb"/>
              <path id="Trazado_825015" data-name="Trazado 825015" d="M195.311,105.07a38.021,38.021,0,0,1-12.625,2.64l-.442.015-.38.009-.76,0c-.506,0-.99-.018-1.487-.031l-1.438-.077-1.392-.115c-1.825-.179-3.537-.446-5.161-.764a65.855,65.855,0,0,1-9-2.483,24.532,24.532,0,0,1,20.667-7.4c7.452.753,10.736,4.308,12.022,8.2" transform="translate(196.682 116.979)" fill="#1c2b74"/>
              <path id="Trazado_825016" data-name="Trazado 825016" d="M166.329,98.922a1.143,1.143,0,0,1-.331-.108,1.17,1.17,0,0,1-.521-1.571A64.853,64.853,0,0,1,176.8,81.876a1.17,1.17,0,0,1,1.633,1.677,63.713,63.713,0,0,0-10.859,14.739,1.173,1.173,0,0,1-1.24.63" transform="translate(199.983 98.624)" fill="#1c2b74"/>
              <path id="Trazado_825017" data-name="Trazado 825017" d="M166.171,86.366a1.17,1.17,0,0,1-.228-2.247c.239-.091,5.868-2.229,10.035-1.944a1.17,1.17,0,0,1-.161,2.335c-3.657-.25-8.981,1.774-9.034,1.794a1.172,1.172,0,0,1-.612.062" transform="translate(199.79 99.353)" fill="#1c2b74"/>
              <path id="Trazado_825018" data-name="Trazado 825018" d="M199.024,74.408a24.56,24.56,0,0,1-8.471-3.19,32.35,32.35,0,0,1-8.332-7.114,1.171,1.171,0,0,1,1.847-1.438,30.544,30.544,0,0,0,7.74,6.577c6.257,3.688,12.565,4.127,18.745,1.3a1.17,1.17,0,1,1,.972,2.128,21.231,21.231,0,0,1-12.5,1.734" transform="translate(220.087 75.244)" fill="#1c2b74"/>
              <path id="Trazado_825019" data-name="Trazado 825019" d="M184.668,72.942a1.209,1.209,0,0,1-.261-.075,1.17,1.17,0,0,1-.625-1.533l5.13-12.2a1.171,1.171,0,0,1,2.159.908l-5.133,12.2a1.172,1.172,0,0,1-1.27.7" transform="translate(222.161 70.647)" fill="#1c2b74"/>
              <path id="Trazado_825020" data-name="Trazado 825020" d="M187.218,85.464s7.3,12.594,18.1,11.248c8.723-1.091,13.341-11.619,14.8-15.627.347-.959.513-1.544.513-1.544a14.792,14.792,0,0,0,1.5-.513c2.072-.817,5.614-2.649,6.091-5.76.681-4.432-7.782-4.072-7.782-4.072s2.548-4.9.634-7.041c-1.887-2.1-7.251-.652-7.251-.652s4.2-5.727,1.136-8.173c-4.6-3.677-8.383,3.723-8.732,4.185.205-.555,8.968-23.981,4.512-23.827-3.891.137-12.468,19.388-14.737,24.644-.36.831-.559,1.31-.559,1.31s-.289-.084-.78-.2c-2.338-.539-9.324-1.708-11.812,2.718-3.012,5.349,4.366,23.3,4.366,23.3" transform="translate(220.275 40.743)" fill="#eaad8f"/>
              <path id="Trazado_825021" data-name="Trazado 825021" d="M200.345,56.534a8.892,8.892,0,0,0-2.247,5.11,2.629,2.629,0,0,0,1.213,2.278,4.971,4.971,0,0,0,2.174.6,27.442,27.442,0,0,0,7.041-.654c.349-.961.513-1.544.513-1.544a14.171,14.171,0,0,0,1.5-.513.823.823,0,0,0-.468-.011c-3.034.762-8.4,1.633-9.87.7a.969.969,0,0,1-.431-.893c-.029-1.7,2.039-4.761,4.251-6.288a.838.838,0,0,0-.784-1.469c-1.927.769-7.388,2.464-9.532,1.109-.314-.2-.318-.367-.316-.455a2.832,2.832,0,0,1,.778-1.538,20.6,20.6,0,0,1,3.988-3.511.849.849,0,0,0,.223-1.164.842.842,0,0,0-1.169-.225,22.684,22.684,0,0,0-4.032,3.467,7.134,7.134,0,0,0-1.213,1.849,2.859,2.859,0,0,0-.256,1.153,2.178,2.178,0,0,0,1.1,1.845c1.9,1.193,5.062.776,7.534.152" transform="translate(231.865 57.959)" fill="#b4665e"/>
              <path id="Trazado_825022" data-name="Trazado 825022" d="M191.581,47.329a.826.826,0,0,1,.4.851,5.4,5.4,0,0,0,.058,2.7.96.96,0,0,0,.711.687,3.337,3.337,0,0,0,1.465-.141,24.76,24.76,0,0,0,5.289-2.475.824.824,0,0,1-.312.4,20.6,20.6,0,0,0-3.988,3.511c-.19.062-.38.119-.563.168a6.347,6.347,0,0,1-1.639.245,2.907,2.907,0,0,1-.605-.064,2.611,2.611,0,0,1-1.92-1.721,7,7,0,0,1-.152-3.617.821.821,0,0,1,1.235-.559l.024.013" transform="translate(229.991 57.081)" fill="#b4665e"/>
              <path id="Trazado_825023" data-name="Trazado 825023" d="M184.76,56.24a27.609,27.609,0,0,0,6.465,1.5,9.417,9.417,0,0,0,4.956-.639,4.188,4.188,0,0,0,2.232-2.682c1.222-4.286-2.565-7.844-4.934-9.582-.362.831-.561,1.312-.561,1.312s-.287-.086-.778-.2c2.006,1.412,5.65,4.536,4.658,8.007a2.52,2.52,0,0,1-1.37,1.644c-2.658,1.341-8.175-.221-10.075-.937a.839.839,0,0,0-.592,1.571" transform="translate(222.8 54.233)" fill="#b4665e"/>
              <path id="Trazado_825024" data-name="Trazado 825024" d="M193.035,70.012a.841.841,0,0,0,.561-1.522,7.549,7.549,0,0,1-3.427-5.424c-.6-5.526,4.8-11.558,4.859-11.617a.84.84,0,1,0-1.244-1.129c-.245.27-5.97,6.661-5.285,12.927a9.17,9.17,0,0,0,4.127,6.613.851.851,0,0,0,.409.152" transform="translate(227.91 60.526)" fill="#b4665e"/>
              <path id="Trazado_825025" data-name="Trazado 825025" d="M180.532,335.151l8.427,34.918,26.418-6.456-4.943-35.229Z" transform="translate(218.342 397.16)" fill="#eaad8f"/>
              <path id="Trazado_825026" data-name="Trazado 825026" d="M284.565,371.32l-94.074,23.809a13.6,13.6,0,0,1-2.561-4.911c-2.6-7.808-3.279-21.151-4.063-29.472-.084-.974-.177-1.88-.276-2.7a28.4,28.4,0,0,0-.548-3.341c-1.653-6.535,4.414-6.878,4.414-6.878,11.882,6.924,19.118-9.8,26.575-6.8,0,0,3.2,1.257,12.371,6.085s22.994,6.049,34.951,7.837c15.437,2.3,20.873,7.13,22.66,10.95a7.575,7.575,0,0,1,.55,5.42" transform="translate(221.035 412.013)" fill="#fff"/>
              <path id="Trazado_825027" data-name="Trazado 825027" d="M281.733,357.506,187.66,381.315A13.6,13.6,0,0,1,185.1,376.4l96.084-24.317a7.575,7.575,0,0,1,.55,5.42" transform="translate(223.866 425.827)" fill="#f0e8e0"/>
              <path id="Trazado_825028" data-name="Trazado 825028" d="M199.633,383.183l-2.795.707a21.291,21.291,0,0,0,1.244-16.343c-2.806-9.18-9.969-14.034-14.671-16.319-.084-.972-.177-1.88-.276-2.7,4.987,2.136,13.794,7.344,17.159,18.336a23.546,23.546,0,0,1-.661,16.315" transform="translate(221.491 421.529)" fill="#f0e8e0"/>
              <path id="Trazado_825029" data-name="Trazado 825029" d="M203.516,349.616a1.6,1.6,0,0,1-1.144-2.961l5.506-2.947a1.6,1.6,0,1,1,1.509,2.822l-5.508,2.945a1.622,1.622,0,0,1-.362.142" transform="translate(243.733 415.465)" fill="#171612"/>
              <path id="Trazado_825030" data-name="Trazado 825030" d="M199.995,348.063a1.6,1.6,0,0,1-1.145-2.961l5.506-2.945a1.6,1.6,0,1,1,1.509,2.819l-5.508,2.945a1.519,1.519,0,0,1-.362.141" transform="translate(239.474 413.588)" fill="#171612"/>
              <path id="Trazado_825031" data-name="Trazado 825031" d="M206.567,350.487a1.6,1.6,0,0,1-1.145-2.961l5.506-2.945a1.6,1.6,0,1,1,1.509,2.819l-5.508,2.945a1.521,1.521,0,0,1-.362.141" transform="translate(247.422 416.52)" fill="#171612"/>
              <path id="Trazado_825032" data-name="Trazado 825032" d="M209.6,351.3a1.6,1.6,0,0,1-1.144-2.961l5.506-2.945a1.6,1.6,0,1,1,1.509,2.819l-5.508,2.945a1.525,1.525,0,0,1-.362.141" transform="translate(251.094 417.503)" fill="#171612"/>
              <path id="Trazado_825033" data-name="Trazado 825033" d="M212.851,351.941a1.6,1.6,0,0,1-1.145-2.961l5.506-2.947a1.6,1.6,0,1,1,1.509,2.821l-5.508,2.945a1.524,1.524,0,0,1-.362.141" transform="translate(255.023 418.279)" fill="#171612"/>
              <path id="Trazado_825034" data-name="Trazado 825034" d="M216.293,352.318a1.6,1.6,0,0,1-1.145-2.961l5.506-2.945a1.6,1.6,0,1,1,1.509,2.819l-5.508,2.945a1.515,1.515,0,0,1-.362.141" transform="translate(259.186 418.733)" fill="#171612"/>
              <path id="Trazado_825035" data-name="Trazado 825035" d="M193.784,344.409s-1.794,30.47,15.378,79.5c12.89,36.809,26.317,88.945,32.2,112.639.181.72.354,1.407.515,2.07.437,1.767,1.03,4.149,1.67,6.69.166.681.34,1.372.513,2.066,1.611,6.429,3.283,13.093,3.283,13.093l36.186-5.307s-.833-5.848-1.659-11.991c-.093-.7-.186-1.4-.278-2.09-.323-2.428-.628-4.8-.862-6.783-.08-.672-.161-1.372-.247-2.092-5.168-43.329-19.034-168.181-27.846-203.719-.276-1.116-.55-2.145-.815-3.082-.031-.1-.06-.2-.088-.3-6.81-23.469-37.324-129.04-54.73-161.4-12.4-23.053-70.791,6.083-70.791,6.083s38.661,102.8,52.461,129.882c18.084,35.5,15.106,44.739,15.106,44.739" transform="translate(152.652 187.257)" fill="#c04d3a"/>
              <path id="Trazado_825036" data-name="Trazado 825036" d="M172.262,241.211a113.763,113.763,0,0,0,16.695-2.81,68.21,68.21,0,0,0,10.051-3.283c-.276-1.118-.55-2.145-.813-3.082-10.848,4.737-26.007,6.012-26.186,6.03a1.578,1.578,0,0,0,.254,3.146" transform="translate(206.284 280.633)" fill="#7e231a"/>
              <path id="Trazado_825037" data-name="Trazado 825037" d="M179.837,335.945l37.81-4.2c-.093-.7-.188-1.4-.281-2.09l-38.042,4.229c.166.681.338,1.372.513,2.066" transform="translate(216.882 398.692)" fill="#7e231a"/>
              <path id="Trazado_825038" data-name="Trazado 825038" d="M134.291,175.52a1.157,1.157,0,0,1,1.522.6c.438,1.012,43.853,101.429,57.149,125.58a1.155,1.155,0,0,1,.139.466c.031.4,3.215,39.916,10.7,65.976,7.218,25.115,36.962,141.921,39.461,151.713-.756.17-1.383.389-2.143.535-2.647-10.378-32.359-126.605-39.545-151.61-7.24-25.192-10.482-62.753-10.767-66.182-13.486-24.626-56.688-124.551-57.125-125.56a1.158,1.158,0,0,1,.605-1.522" transform="translate(161.569 212.166)" fill="#7e231a"/>
              <path id="Trazado_825039" data-name="Trazado 825039" d="M150.141,336.582l-1.332,30.682L118.652,369.4l.02-32.837Z" transform="translate(143.502 407.055)" fill="#eaad8f"/>
              <path id="Trazado_825040" data-name="Trazado 825040" d="M114.969,391.957c0,.241.007.477.011.709.022,1.076.069,2.044.115,2.872.106,1.825.239,2.95.239,2.95l60.594.035A33.3,33.3,0,0,0,176,392.7c-.393-6.191-2.444-15.972-10.806-22.439-11.452-8.864-7.028-7.013-9.377-11.052-.263-.448-2.322-7.309-2.541-7.782-1.966-4.194-3.78-6.178-14.635-6.184-14.4-.007-15.669,6.977-17.209,10.656a68.835,68.835,0,0,0-2.4,8.553c-.362,1.531-.727,3.166-1.085,4.83-.89,4.176-1.721,8.535-2.289,12.013a62.98,62.98,0,0,0-.685,10.66" transform="translate(139.039 417.553)" fill="#fff"/>
              <path id="Trazado_825041" data-name="Trazado 825041" d="M114.965,381.474c0,.241.007.477.011.709.022,1.076.068,2.044.115,2.872a16.917,16.917,0,0,0,6.3-8.157c3.754-10.208-2-22.468-2.245-22.985l-.122.057c-.362,1.531-.727,3.166-1.085,4.83,1.363,4.171,2.93,11.182.745,17.112a14.072,14.072,0,0,1-3.719,5.561" transform="translate(139.043 428.037)" fill="#f0e8e0"/>
              <path id="Trazado_825042" data-name="Trazado 825042" d="M114.97,366.707c.08,3.449.354,5.822.354,5.822l60.594.038a33.321,33.321,0,0,0,.071-5.824Z" transform="translate(139.049 443.51)" fill="#f0e8e0"/>
              <path id="Trazado_825043" data-name="Trazado 825043" d="M125.713,356.06a1.74,1.74,0,0,0,.435-.055,29.981,29.981,0,0,1,14.045-.281,1.728,1.728,0,1,0,.924-3.33,33.17,33.17,0,0,0-15.833.265,1.727,1.727,0,0,0,.429,3.4" transform="translate(149.954 425.214)" fill="#171612"/>
              <path id="Trazado_825044" data-name="Trazado 825044" d="M124.859,353.336a1.714,1.714,0,0,0,.433-.055A29.953,29.953,0,0,1,139.339,353a1.728,1.728,0,1,0,.924-3.33,33.175,33.175,0,0,0-15.835.265,1.728,1.728,0,0,0,.431,3.4" transform="translate(148.922 421.919)" fill="#171612"/>
              <path id="Trazado_825045" data-name="Trazado 825045" d="M126.886,358.726a1.716,1.716,0,0,0,.433-.055,30.247,30.247,0,0,1,14.052-.281,1.728,1.728,0,0,0,.919-3.332,33.243,33.243,0,0,0-15.835.265,1.729,1.729,0,0,0,.431,3.4" transform="translate(151.371 428.436)" fill="#171612"/>
              <path id="Trazado_825046" data-name="Trazado 825046" d="M128.261,361.543a1.74,1.74,0,0,0,.435-.055,30.275,30.275,0,0,1,14.05-.281,1.727,1.727,0,0,0,.921-3.33,33.189,33.189,0,0,0-15.837.265,1.728,1.728,0,0,0,.431,3.4" transform="translate(153.037 431.845)" fill="#171612"/>
              <path id="Trazado_825047" data-name="Trazado 825047" d="M181.772,224.493q-2.4.815-4.834,1.582c-20.711,6.527-42.7,10.267-58.506,7.819-7.8-1.206-13.449-10.177-17.41-20.384-1.08-2.786-2.444-5.577-2.874-8.511-4.249-28.917,1.916-41.829,1.916-41.829l113.081-21.96s4.359,6.679,9.3,15.446a190.777,190.777,0,0,1,10.245,20.574l.011.018a55.637,55.637,0,0,1,3.451,11.1c1.743,10.287-24.3,25.937-54.383,36.14" transform="translate(116.896 170.785)" fill="#c04d3a"/>
              <path id="Trazado_825048" data-name="Trazado 825048" d="M124.341,314.561c5.4,30.053,2.468,42.021,2.468,42.021s-4.392,30.062,1.642,81.663c4.487,38.374,9.843,82.2,12.3,102.158.088.736.179,1.436.258,2.11.687,5.585,1.085,8.807,1.085,8.807l35.939-.351s.323-3.151.875-8.676c.066-.669.139-1.374.212-2.11,3.76-37.625,15.923-162.531,15.037-194.283q-.076-2.618-.214-5.678c-.051-1.034-.1-2.106-.163-3.208-1.893-34.953-9.463-103.289-17.656-140.24-1.962-8.858-3.862-15.923-5.592-20.307a14.192,14.192,0,0,0-2.872-4.547C152.08,155.39,97.328,175.7,97.328,175.7s.667,3.118,1.8,8.438c5.663,26.359,20.733,105.532,25.21,130.426" transform="translate(117.712 200.089)" fill="#c04d3a"/>
              <path id="Trazado_825049" data-name="Trazado 825049" d="M141.957,524.743a1.331,1.331,0,0,1-1.43-1.171c-8.257-69.553-15.19-140.841-10.073-191.1,1.483-14.545-28.272-149.385-28.572-150.746a1.333,1.333,0,0,1,2.6-.574c1.233,5.57,30.148,136.621,28.623,151.592-5.091,50,1.829,121.11,10.066,190.509a1.336,1.336,0,0,1-1.167,1.482l-.051,0" transform="translate(123.182 217.831)" fill="#7e231a"/>
              <path id="Trazado_825050" data-name="Trazado 825050" d="M129.539,247.883a114,114,0,0,0,16.929-.035,68.587,68.587,0,0,0,10.254-1.544q-.076-1.551-.164-3.21c-11.467,2.881-26.575,1.655-26.754,1.646a1.56,1.56,0,0,0-1.7,1.436,1.576,1.576,0,0,0,1.434,1.708" transform="translate(154.929 294.007)" fill="#7e231a"/>
              <path id="Trazado_825051" data-name="Trazado 825051" d="M116.979,335.269c.088.736.179,1.438.258,2.11l2.3-.015,1.98-.016,33.619-.19c.064-.669.137-1.372.21-2.11l-33.608.192-2.386.015Z" transform="translate(141.479 405.221)" fill="#7e231a"/>
              <path id="Trazado_825052" data-name="Trazado 825052" d="M135.8,193.327a1.159,1.159,0,0,1-.714-2.134c.168-.108,11.852-7.715,13.131-22.322a1.159,1.159,0,1,1,2.309.2c-1.385,15.813-13.679,23.749-14.2,24.081a1.2,1.2,0,0,1-.526.175" transform="translate(162.725 202.959)" fill="#7e231a"/>
              <path id="Trazado_825053" data-name="Trazado 825053" d="M262.959,302.167c-1.635,11.339-32.667,25.7-65.539,32.479-30.974,6.385-62.123,6.887-78.568,4.143s-10.51-30.917-9.615-52.342c.811-19.35,1.745-34.478,1.745-34.478,3.3-23.526,5.318-35.17,5.921-43.522.049-.7.093-1.363.122-2.015.38-7.983-.711-13.323-3.429-24.978a195.537,195.537,0,0,0-6.525-21.217c-.194-.541-.391-1.083-.6-1.628-1.955-5.314-4.187-10.9-6.617-16.56-.122-.287-.243-.581-.371-.868-.23-.541-.462-1.083-.7-1.617q-.895-2.061-1.834-4.121c-.309-.681-.619-1.354-.935-2.033-1.657-3.59-3.38-7.163-5.159-10.661-.309-.608-.619-1.211-.935-1.812q-.593-1.17-1.209-2.32c-4.187-7.927-7.285-16.332-8.334-24.222-.08-.557-.144-1.116-.194-1.668-.857-8.849,1-16.944,6.96-22.839a26.06,26.06,0,0,1,4.75-3.674c.486-.3.994-.583,1.513-.855.806-.431,1.653-.833,2.541-1.215,14.218-6.054,26.668-10.053,26.668-10.053l51.756.1c9.147.281,16,.895,21.233,1.988.592.122,1.164.254,1.712.391,14.98,3.685,15.227,12.022,19.923,29.138,6.392,23.3,21.113,44.094,18.842,55.872-.082.424-.172.855-.276,1.275-.122.515-.254,1.027-.4,1.529-2.441,8.5-8.053,16.124-10.225,18.864-.557.7-.882,1.083-.882,1.083,0,.044.016.095.027.148.066.382.148.787.236,1.2.331,1.62.776,3.531,1.315,5.7.784,3.171,1.646,6.357,2.552,9.516.188.647.376,1.293.574,1.933,6.867,23.288,16.217,44.885,17.55,47.311,5,15.566,9.56,30.915,12.631,43.751.128.526.25,1.049.371,1.569,2.755,11.805,4.176,21.332,3.4,26.708" transform="translate(96.738 65.42)" fill="#314fa5"/>
              <path id="Trazado_825054" data-name="Trazado 825054" d="M140.712,66.663c2.344,10.378,6.75,19.987,11.681,29.363,5.389,10.241,11.016,21.116,10.013,33.055-.128,1.529,2.236,1.993,2.364.451.946-11.257-3.473-21.668-8.584-31.443-5.429-10.378-10.616-20.751-13.212-32.251-.34-1.5-2.6-.672-2.263.824" transform="translate(170.141 78.667)" fill="#1c2b74"/>
              <path id="Trazado_825055" data-name="Trazado 825055" d="M167.7,135.41c-.119.515-.254,1.025-.4,1.529-10.037-2.3-18.955-9.655-24-18.862-9.624-17.563-7.3-38.148-4.8-57.2.133-1.025,1.712-.718,1.575.3-2.338,17.863-4.622,37,3.453,53.831,4.706,9.817,13.771,18.022,24.176,20.4" transform="translate(164.845 72.867)" fill="#5880eb"/>
              <path id="Trazado_825056" data-name="Trazado 825056" d="M137.158,117.248c-1.558,19.341-14.741,37.6-30.543,48.108.051-.7.093-1.363.122-2.015a69.507,69.507,0,0,0,19.693-20.707c8.88-14.423,16.034-38.36-2.863-48.08C111.785,88.488,99.679,91.679,89.2,98.09c-.232-.539-.464-1.078-.7-1.617a46.307,46.307,0,0,1,14.713-6.056,31.514,31.514,0,0,1,23.7,4.249c7.691,5.108,10.979,13.515,10.252,22.583" transform="translate(107.027 108.51)" fill="#5880eb"/>
              <path id="Trazado_825057" data-name="Trazado 825057" d="M185.158,206.046c-7.494,1.089-15.508-2.185-21.449-7.108-16.427-13.612-24.41-36.765-21.681-57.677a65.384,65.384,0,0,1,12.006-29.777c.186.645.373,1.29.57,1.935-.674.961-1.319,1.935-1.938,2.936a63.86,63.86,0,0,0-5.433,55.9,60.994,60.994,0,0,0,17.187,25.183c5.616,4.757,13.228,8.042,20.369,7.042l.369,1.569" transform="translate(171.137 134.833)" fill="#5880eb"/>
              <path id="Trazado_825058" data-name="Trazado 825058" d="M99.689,140.285a56.568,56.568,0,0,1,38.561,69.927c-.276,1,1.3,1.29,1.578.3a58.16,58.16,0,0,0-39.838-71.8c-.99-.294-1.281,1.286-.3,1.577" transform="translate(119.836 167.715)" fill="#5880eb"/>
              <path id="Trazado_825059" data-name="Trazado 825059" d="M138.084,114.59c-8.586,6.328-15.875,14.242-20.117,24.125-3.358,7.824-7.152,20.583.924,26.889,9.169,7.161,20.68-.524,27.143-7.516,7.351-7.954,13.7-19.693,12.623-30.846-.49-5.1-3.047-10.457-7.494-13.263-4.235-2.673-8.931-1.726-13.078.612-.9.506.024,1.821.919,1.315,4.158-2.342,8.816-2.877,12.629.413a17.111,17.111,0,0,1,5.508,12.428c.325,9.768-4.947,19.816-11.191,27.028-5.959,6.885-17.368,15.7-26.321,8.354-7.243-5.946-3.076-18.314.071-25.375,4.169-9.353,11.127-16.82,19.3-22.848.829-.61-.084-1.929-.919-1.315" transform="translate(137.968 135.893)" fill="#5880eb"/>
              <path id="Trazado_825060" data-name="Trazado 825060" d="M182.084,90.562c-8.475,18.893-31.063,17.077-47.052,9.923A93.555,93.555,0,0,1,92.352,61.7c-.513-.886.8-1.814,1.315-.917a92.305,92.305,0,0,0,19.4,23.723c12.888,11.246,31.688,22.094,49.454,19.24,9.779-1.569,16.871-8.484,19.589-17.892,2.925-10.137.8-20.744-1.317-30.817.588.124,1.162.254,1.71.393,2.415,11.555,4.6,23.942-.415,35.132" transform="translate(111.553 66.563)" fill="#5880eb"/>
              <path id="Trazado_825061" data-name="Trazado 825061" d="M133.566,85.385c-6.84,1.885-16.047,7.377-17.017,15.221-.913,7.382,7.481,9.759,13.283,8.939,6.865-.972,14.786-5.979,16.257-13.239,1.427-7.055-6-11.77-12.313-10.968-1.021.13-.9,1.73.13,1.6,6.4-.813,12.939,4.49,9.872,11.215-2.561,5.619-8.911,9.3-14.9,9.889-6.264.619-13.564-3.235-9.64-10.451,2.981-5.484,9.017-9.085,14.874-10.7.994-.272.442-1.781-.55-1.507" transform="translate(140.876 103.105)" fill="#5880eb"/>
              <path id="Trazado_825062" data-name="Trazado 825062" d="M109.951,290.169a1.24,1.24,0,0,0,1.14-1.237,579.367,579.367,0,0,1,9.494-105.826C125.112,158.519,90.771,76.863,89.306,73.4a1.242,1.242,0,1,0-2.287.968c.356.842,35.517,84.432,31.122,108.291a581.867,581.867,0,0,0-9.534,106.272,1.242,1.242,0,0,0,1.242,1.244c.033,0,.068,0,.1,0" transform="translate(105.125 87.853)" fill="#1c2b74"/>
              <path id="Trazado_825063" data-name="Trazado 825063" d="M174.6,166.406c-10.625.859-22.437-.356-35.141-3.67A161.915,161.915,0,0,1,105.9,149.767a1.27,1.27,0,1,1,1.231-2.223,159.062,159.062,0,0,0,33.025,12.749c17.09,4.452,41.507,7.265,60.775-4.611a1.27,1.27,0,0,1,1.332,2.163c-7.874,4.854-17.194,7.715-27.662,8.562" transform="translate(127.292 178.253)" fill="#1c2b74"/>
              <path id="Trazado_825064" data-name="Trazado 825064" d="M178.3,149.49c-9.839,4.1-21.447,6.6-34.553,7.375a161.622,161.622,0,0,1-35.925-1.958,1.269,1.269,0,0,1,.482-2.492,159.155,159.155,0,0,0,35.351,1.911c17.629-1.052,41.719-5.926,56.369-23.177a1.27,1.27,0,1,1,1.935,1.644c-5.988,7.05-13.964,12.653-23.659,16.7" transform="translate(129.16 158.077)" fill="#1c2b74"/>
              <path id="Trazado_825065" data-name="Trazado 825065" d="M149.3,189.581a356.513,356.513,0,0,1-55.859.146,1.27,1.27,0,1,1,.243-2.528,355.1,355.1,0,0,0,56.6-.25c28.57-2.415,68-9.657,93.616-30.435a1.271,1.271,0,1,1,1.6,1.973c-26.124,21.193-66.106,28.555-95.048,31-.384.033-.773.066-1.158.1" transform="translate(111.623 188.952)" fill="#1c2b74"/>
              <path id="Trazado_825066" data-name="Trazado 825066" d="M102.636,199.076a1.269,1.269,0,0,1-1.31-.879c-3.19-9.958-4.5-25.627-4.551-26.29a1.269,1.269,0,1,1,2.53-.208c.013.161,1.339,16.045,4.439,25.725a1.269,1.269,0,0,1-.822,1.6,1.3,1.3,0,0,1-.285.055" transform="translate(117.038 206.249)" fill="#1c2b74"/>
              <path id="Trazado_825067" data-name="Trazado 825067" d="M110.648,198.444a1.269,1.269,0,0,1-1.31-.879c-3.193-9.969-4.129-24.432-4.167-25.044a1.254,1.254,0,0,1,1.189-1.346,1.27,1.27,0,0,1,1.346,1.189c.009.146.954,14.759,4.05,24.428a1.268,1.268,0,0,1-.82,1.6,1.354,1.354,0,0,1-.287.057" transform="translate(127.194 207.023)" fill="#1c2b74"/>
              <path id="Trazado_825068" data-name="Trazado 825068" d="M121.584,198.2a1.269,1.269,0,0,1-1.31-.879c-3.193-9.969-4.154-24.523-4.194-25.137a1.27,1.27,0,0,1,2.534-.161c.009.146.981,14.856,4.076,24.525a1.266,1.266,0,0,1-.822,1.6,1.166,1.166,0,0,1-.285.057" transform="translate(140.389 206.616)" fill="#1c2b74"/>
              <path id="Trazado_825069" data-name="Trazado 825069" d="M131.979,196.719a1.272,1.272,0,0,1-1.359-1.085c-1.491-10.4-4.348-24.5-4.377-24.642a1.269,1.269,0,0,1,2.488-.506c.029.144,2.9,14.315,4.4,24.786a1.27,1.27,0,0,1-1.076,1.438c-.027,0-.053.007-.079.009" transform="translate(152.653 204.964)" fill="#1c2b74"/>
              <path id="Trazado_825070" data-name="Trazado 825070" d="M141.993,194.957c-.029,0-.057,0-.086,0a1.274,1.274,0,0,1-1.288-1.253c-.122-8.758-4.335-24.609-4.377-24.768a1.27,1.27,0,0,1,2.455-.656c.177.663,4.335,16.319,4.463,25.389a1.271,1.271,0,0,1-1.167,1.284" transform="translate(164.724 202.392)" fill="#1c2b74"/>
              <path id="Trazado_825071" data-name="Trazado 825071" d="M152.955,191.582a1.268,1.268,0,0,1-1.368-1.162c-.762-9.425-4.361-24.808-4.4-24.962a1.27,1.27,0,0,1,2.472-.581c.15.639,3.679,15.725,4.456,25.338a1.271,1.271,0,0,1-1.164,1.368" transform="translate(177.977 198.223)" fill="#1c2b74"/>
              <path id="Trazado_825072" data-name="Trazado 825072" d="M162.377,185.647a1.272,1.272,0,0,1-1.368-1.158c-.857-10.13-4.92-22.609-4.96-22.735a1.27,1.27,0,1,1,2.413-.791c.17.521,4.2,12.888,5.077,23.312a1.27,1.27,0,0,1-1.158,1.372h0" transform="translate(188.655 193.617)" fill="#1c2b74"/>
              <path id="Trazado_825073" data-name="Trazado 825073" d="M182.414,104.725c.069.382.15.784.239,1.209-7.086,2.2-16.361,3.16-27.466,1.911-21.889-2.464-38.676,8.9-38.849,9.012a1.067,1.067,0,0,1-.524.188,1.084,1.084,0,0,1-.7-1.975,63.748,63.748,0,0,1,40.322-9.381c11.511,1.293,20.928.181,27.837-2.192-.555.7-.884,1.08-.884,1.08.009.049.02.1.029.148" transform="translate(138.648 125.174)" fill="#1c2b74"/>
              <path id="Trazado_825074" data-name="Trazado 825074" d="M148.286,79.811C135.1,80.878,106.664,64.168,105.46,63.455a1.086,1.086,0,1,1,1.1-1.869c.289.17,29.043,17.07,41.546,16.06,11.962-.968,13.555-14.249,13.57-14.383a1.087,1.087,0,0,1,2.161.236c-.018.152-1.825,15.2-15.557,16.312" transform="translate(126.902 74.3)" fill="#1c2b74"/>
              <path id="Trazado_825075" data-name="Trazado 825075" d="M137.8,13.071S108.275,8.88,98.5,28.294s5.694,47.3,5.694,47.3-.437,7.614-15.075,14.956-5.641,31.029,9.7,26.361c0,0,7.355,21.816,23.082,7.905s41.343-12.417,41.343-12.417,10.095,7.285,20.6.926,2.1-14.105,2.1-14.105,11.759,4.189,17.572-7.243c6.171-12.132-13.515-19.231-15.643-25-7.722-20.928,1.025-17.061,8.347-29.556,8.939-15.261-11.248-25.671-18.8-14.262,0,0,11.6-13.652-3.643-21.509C159.841-5.532,137.8,13.071,137.8,13.071" transform="translate(98.805 0)" fill="#171612"/>
              <path id="Trazado_825076" data-name="Trazado 825076" d="M124.8,24.962s4.092-.4,5.822,4.6.734,14.052-4.664,13.966S124.8,24.962,124.8,24.962" transform="translate(149.019 30.181)" fill="#c6695d"/>
              <path id="Trazado_825077" data-name="Trazado 825077" d="M119.81,43.806a11.431,11.431,0,1,1,12.315,10.471A11.448,11.448,0,0,1,119.81,43.806m2.064-.168a9.362,9.362,0,1,0,8.577-10.086,9.372,9.372,0,0,0-8.577,10.086" transform="translate(144.857 38.038)" fill="#fff"/>
              <line id="Línea_265" data-name="Línea 265" y2="0.004" transform="translate(266.987 97.694)" fill="#eaad8f"/>
              <path id="Trazado_825078" data-name="Trazado 825078" d="M102.755,74.206s9.47,11.942,24.923,11.341c19.626-.764,20.289-9.408,20.289-9.408a36.76,36.76,0,0,1-2.981-7.64c-.278-1.03-.526-2.095-.742-3.2a87.88,87.88,0,0,1-1.317-10.263c-.077-.912-.144-1.863-.208-2.841l-.007-.115c-13.822-.7-25.74-4.578-34.951-12.98l-2.207-.82-1.487-.557-.1.82.7,2.413c3.356,11.345,2.514,21.409-1.913,33.252" transform="translate(124.276 45.623)" fill="#eaad8f"/>
              <path id="Trazado_825079" data-name="Trazado 825079" d="M110.021,42.187c3.962,5.806,12.512,15.789,25.433,17.711a88.862,88.862,0,0,1-1.315-10.263q-.113-1.369-.205-2.841c-.256.08-.519.15-.784.219-7.125,1.805-15.649-.471-23.128-4.825" transform="translate(133.064 51.023)" fill="#171612"/>
              <path id="Trazado_825080" data-name="Trazado 825080" d="M101.844,64.561s.446-16.688,3.14-17.216,13.144,9.534,25.464,7.826,14.28-10.7,17.249-7.327,4.777,15.581,4.777,15.581-.809,11.1-14.664,13.08-33.117-7.422-35.965-11.944" transform="translate(123.174 56.956)" fill="#314fa5"/>
              <path id="Trazado_825081" data-name="Trazado 825081" d="M106.019,48.631c-2.808,5.753-3.137,12.313-2.654,18.6a1.061,1.061,0,0,0,2.114-.172c-.457-5.921-.2-12.086,2.45-17.51a1.061,1.061,0,0,0-1.911-.919" transform="translate(124.791 58.116)" fill="#5880eb"/>
              <path id="Trazado_825082" data-name="Trazado 825082" d="M108.5,50.262a48.284,48.284,0,0,0-1.748,19.4,1.061,1.061,0,0,0,2.114-.17,46.8,46.8,0,0,1,1.717-18.831c.42-1.3-1.668-1.679-2.083-.4" transform="translate(128.789 59.834)" fill="#5880eb"/>
              <path id="Trazado_825083" data-name="Trazado 825083" d="M111.192,51.386a119.125,119.125,0,0,0-.254,19.512,1.061,1.061,0,0,0,2.114-.17,115.641,115.641,0,0,1,.223-18.944c.128-1.35-1.955-1.757-2.084-.4" transform="translate(133.83 61.134)" fill="#5880eb"/>
              <path id="Trazado_825084" data-name="Trazado 825084" d="M114.25,51.983q.868,10.277,1.734,20.548a1.061,1.061,0,0,0,2.114-.17q-.868-10.274-1.734-20.548a1.061,1.061,0,0,0-2.114.17" transform="translate(138.174 61.529)" fill="#5880eb"/>
              <path id="Trazado_825085" data-name="Trazado 825085" d="M133.645,70.062q-.65.053-1.328.08c-15.267.623-29.805-11.518-30.415-12.035a1.066,1.066,0,1,1,1.377-1.628c.144.122,14.525,12.119,28.952,11.533,15.855-.656,19.308-12.32,19.447-12.815a1.067,1.067,0,0,1,2.057.568c-.038.133-3.765,12.976-20.09,14.3" transform="translate(122.787 65.815)" fill="#5880eb"/>
              <path id="Trazado_825086" data-name="Trazado 825086" d="M117.851,51.179a70.187,70.187,0,0,1,4.472,19.607,1.061,1.061,0,0,0,2.114-.17,72.194,72.194,0,0,0-4.593-20.163,1.061,1.061,0,0,0-1.993.727" transform="translate(142.441 60.214)" fill="#5880eb"/>
              <path id="Trazado_825087" data-name="Trazado 825087" d="M120.733,49.209A50.476,50.476,0,0,1,125.9,67.55a1.061,1.061,0,0,0,2.114-.17,52.083,52.083,0,0,0-5.289-18.9c-.6-1.206-2.6-.5-1.993.727" transform="translate(145.881 57.882)" fill="#5880eb"/>
              <path id="Trazado_825088" data-name="Trazado 825088" d="M94.712,55.686c.871,7.26,8.078,15.415,17.6,14.54l.051,0h0l.2-.015c.2.4.431.787.665,1.184.1.17.208.345.312.515a.3.3,0,0,0,.033.046c7.391,11.624,25.831,16.778,35.367,15.9a21.841,21.841,0,0,0,6.308-1.6c9.814-3.394,10.068-17.231,7.245-27.45a40.254,40.254,0,0,0-1.407-4.171c-.038-.088-.073-.177-.11-.265,0,0,1.635-14.958,1.666-21.4.055-12.488-8.5-24.149-35.784-23.378S95.116,27.88,94.284,36.994c-.141,1.52,1.213,10.3,2.859,11.551-2.4,1.611-2.722,4.7-2.43,7.141" transform="translate(114.018 11.55)" fill="#eaad8f"/>
              <path id="Trazado_825089" data-name="Trazado 825089" d="M126.059,38.722a4.378,4.378,0,1,1-4.717-4.01,4.379,4.379,0,0,1,4.717,4.01" transform="translate(141.889 41.964)" fill="#fff"/>
              <path id="Trazado_825090" data-name="Trazado 825090" d="M113.209,30.16c.1,1.918.983,3.429,1.98,3.38s1.723-1.646,1.626-3.564-.983-3.429-1.977-3.378-1.726,1.644-1.628,3.562" transform="translate(136.909 32.168)" fill="#171612"/>
              <path id="Trazado_825091" data-name="Trazado 825091" d="M120.371,27.711a.506.506,0,0,0-.044-.9c-.214-.1-5.281-2.322-8.756,1.217a.508.508,0,0,0,.725.711c2.983-3.038,7.57-1.023,7.616-1a.509.509,0,0,0,.46-.022" transform="translate(134.762 31.48)" fill="#171612"/>
              <path id="Trazado_825092" data-name="Trazado 825092" d="M120.778,29.906c.1,1.918.983,3.431,1.98,3.38s1.723-1.646,1.626-3.564-.983-3.429-1.98-3.378-1.723,1.646-1.626,3.562" transform="translate(146.063 31.861)" fill="#171612"/>
              <path id="Trazado_825093" data-name="Trazado 825093" d="M128.375,28.107a.5.5,0,0,0,.241-.2.51.51,0,0,0-.161-.7c-.2-.126-4.916-3.016-8.842.018a.509.509,0,1,0,.623.8c3.369-2.607,7.638.011,7.68.04a.515.515,0,0,0,.46.04" transform="translate(144.426 31.254)" fill="#171612"/>
              <path id="Trazado_825094" data-name="Trazado 825094" d="M102.44,39.139l.049,0h0l.2-.015c.2.4.429.787.665,1.182.1.172.205.345.312.515a.172.172,0,0,0,.033.049,8.817,8.817,0,0,0,3.493-1.891,6.964,6.964,0,0,0,1.684-2.329.987.987,0,0,0-1.8-.809,5.31,5.31,0,0,1-2.092,2.324,7.153,7.153,0,0,1-1.646.74,8.229,8.229,0,0,1-.9.239" transform="translate(123.895 42.636)" fill="#c6695d"/>
              <g id="Grupo_1074026" data-name="Grupo 1074026" transform="translate(270.74 66.182)" opacity="0.5">
                <g id="Grupo_1074025" data-name="Grupo 1074025">
                  <g id="Grupo_1074024" data-name="Grupo 1074024" clip-path="url(#clip-path-5)">
                    <path id="Trazado_825095" data-name="Trazado 825095" d="M122.546,32.7c.148,1.076,2.62,1.648,5.771,1.423a40.065,40.065,0,0,0-1.407-4.171c-2.662.667-4.5,1.768-4.364,2.749" transform="translate(-122.537 -29.954)" fill="#c6695d"/>
                  </g>
                </g>
              </g>
              <path id="Trazado_825096" data-name="Trazado 825096" d="M100.027,36.98c.652.38,1.3.767,1.964,1.129a9.354,9.354,0,1,0,5.157-1.5,2.258,2.258,0,0,1-1.531-1.977c.177-.024.354-.042.532-.057a11.469,11.469,0,1,1-6.122,2.41" transform="translate(115.672 41.764)" fill="#fff"/>
              <path id="Trazado_825097" data-name="Trazado 825097" d="M120.45,40.994a3.409,3.409,0,0,1-2.143-.747.573.573,0,0,1,.753-.864,2.334,2.334,0,0,0,2.6.13.573.573,0,1,1,.539,1.012,3.728,3.728,0,0,1-1.748.468" transform="translate(142.849 47.461)" fill="#c6695d"/>
              <path id="Trazado_825098" data-name="Trazado 825098" d="M122.283,39.883a.827.827,0,0,0,.433-.166l3.44-2.607a.826.826,0,0,0-.168-1.416c-3.12-1.372-5.2-3.811-6.536-7.673a.828.828,0,0,0-1.564.541c1.321,3.813,3.312,6.4,6.206,8.034l-2.38,1.8a.828.828,0,0,0,.568,1.485" transform="translate(142.523 33.216)" fill="#b4665e"/>
              <path id="Trazado_825099" data-name="Trazado 825099" d="M121.824,25.205a2.012,2.012,0,0,0,.926-3.84,5.833,5.833,0,0,0-4.092-.15,14.59,14.59,0,0,0-9.39,8.968s6.474-4.26,10.3-4.852a11.336,11.336,0,0,1,2.251-.126" transform="translate(132.153 25.302)" fill="#171612"/>
              <path id="Trazado_825100" data-name="Trazado 825100" d="M121.593,25.06a2.011,2.011,0,0,1-1.529-3.641,5.831,5.831,0,0,1,4.012-.8c7.528.948,8.436,6.2,8.436,6.2s-4.8-2.017-8.676-1.986a11.2,11.2,0,0,0-2.243.236" transform="translate(144.109 24.858)" fill="#171612"/>
              <g id="Grupo_1074029" data-name="Grupo 1074029" transform="translate(240.334 69.604)" opacity="0.5">
                <g id="Grupo_1074028" data-name="Grupo 1074028">
                  <g id="Grupo_1074027" data-name="Grupo 1074027" clip-path="url(#clip-path-6)">
                    <path id="Trazado_825101" data-name="Trazado 825101" d="M122.436,32.976c.17,1.228-2.751,2.645-6.52,3.164s-6.964-.055-7.132-1.281,2.749-2.645,6.52-3.164,6.962.053,7.132,1.281" transform="translate(-108.775 -31.503)" fill="#c6695d"/>
                  </g>
                </g>
              </g>
              <path id="Trazado_825102" data-name="Trazado 825102" d="M109.318,40.592a.984.984,0,0,1-.9-.687c-2.123-6.673-10.627-8.654-10.714-8.674a.987.987,0,0,1,.431-1.927c.393.088,9.691,2.238,12.163,10a.986.986,0,0,1-.641,1.24.965.965,0,0,1-.342.046" transform="translate(117.238 35.413)" fill="#c6695d"/>
              <path id="Trazado_825103" data-name="Trazado 825103" d="M98.993,35.89a1,1,0,0,1-.369-.088.988.988,0,0,1-.484-1.31,6.776,6.776,0,0,1,5.566-3.632.987.987,0,0,1,.155,1.969,4.805,4.805,0,0,0-3.928,2.488.985.985,0,0,1-.939.574" transform="translate(118.586 37.319)" fill="#c6695d"/>
              <path id="Trazado_825104" data-name="Trazado 825104" d="M127.876,25.455s2.4,7.488-3.544,12.678a37.425,37.425,0,0,1-8.031,5.7s11.4,19.984,3.789,23.995-9.441-19.149-21.763-18.27c0,0-4.527-.387-5.018-8.159s9.993-31.325,30.28-32.552,39.377,6.507,41.8,20.57-.952,11.661-.952,11.661.426-8.409-10.053-13.4c-8.692-4.143-26.511-2.216-26.511-2.216" transform="translate(112.832 10.541)" fill="#171612"/>
              <path id="Trazado_825105" data-name="Trazado 825105" d="M187.513,83.455c-.482,2.236-1,4.331-1.531,6.474-.546,2.121-1.1,4.238-1.695,6.341-.442,1.639-.928,3.277-1.4,4.9q-.209.7-.409,1.392l-.084.259-1.845,6.005q-3.944,12.494-8.694,24.768-.249.646-.495,1.293-1.236,3.2-2.532,6.385c-.21.53-.424,1.054-.641,1.58q-.62,1.515-1.253,3.023c-1.7,4.052-3.486,8.087-5.365,12.145-.011.027-.027.06-.038.088-.239.508-.475,1.023-.718,1.529-1.679,3.57-3.431,7.148-5.32,10.756l-1.662,3.115-1.756,3.142-1.863,3.2-.21.342-.608,1.005c-.3.453-.59.9-.895,1.343-.6.873-1.215,1.712-1.845,2.508a51.073,51.073,0,0,1-7.837,7.905,63.531,63.531,0,0,1-7.844,5.455,80.226,80.226,0,0,1-7.612,3.984c-.641.292-1.277.579-1.911.851-1.852.8-3.679,1.513-5.49,2.187-1.3.475-2.6.921-3.889,1.337-.166.055-.327.11-.493.159-.954.309-1.9.6-2.85.89-.475.137-.943.27-1.418.4-.5.139-.994.272-1.491.4h-.011c-1.41.387-2.8.74-4.2,1.076-4.706,1.16-9.368,2.006-13.975,2.751-.309.044-.619.1-.928.139-.647.093-1.293.188-1.94.276a223.981,223.981,0,0,1-24.536,2.015c-2.148.062-4.3.1-6.452.1h0c-.608,0-1.215,0-1.829-.007q-2.625-.017-5.263-.1c-2.26-.062-4.518-.183-6.779-.32-1.131-.077-2.265-.155-3.4-.261l-1.723-.155-.873-.093c-.3-.029-.574-.062-.939-.093A13.139,13.139,0,0,1,29.542,188.5l1.918-.685c.17-.06.435-.126.669-.192l.734-.205,1.491-.4,3.009-.8,6.043-1.591c4.021-1.078,8.027-2.139,12-3.237.155-.044.3-.084.46-.128.563-.155,1.127-.314,1.684-.468l1.41-.4c.63-.177,1.259-.354,1.882-.537q5.014-1.425,9.923-2.939c.6-.188,1.2-.369,1.794-.563q3.072-.958,6.08-1.982c3.741-1.226,7.38-2.592,10.888-3.955,1.745-.692,3.451-1.414,5.1-2.159,1.657-.725,3.252-1.487,4.777-2.256,1.977-1,3.833-2.037,5.464-3.069.519-.334,1.021-.658,1.491-.985.32-.225.63-.446.928-.667a21.213,21.213,0,0,0,2.519-2.161,5.563,5.563,0,0,0,1.061-1.374.362.362,0,0,0,.027-.117l-.022-.009-.027,0-.011,0a.361.361,0,0,0,.027-.055l1.244-2.435,1.248-2.552,1.259-2.629c1.153-2.459,2.313-4.976,3.469-7.528.2-.444.4-.89.6-1.339q.471-1.051.943-2.108l1.209-2.724.725-1.639,8.17-18.418q2.714-6.115,5.477-12.262c.228-.5.46-1.01.692-1.518q2.095-4.64,4.258-9.275l1.222-2.6.813-1.723.678-1.441c.932-1.907,1.823-3.829,2.773-5.734q1.4-2.867,2.832-5.711c.968-1.885,1.944-3.818,2.939-5.612l.172-.32a19.347,19.347,0,0,1,7.053-7.28,19.949,19.949,0,0,1,5.015-2.095c.537-.137,1.078-.254,1.624-.347a19.392,19.392,0,0,1,22.234,23.166" transform="translate(25.239 72.578)" fill="#314fa5"/>
              <path id="Trazado_825106" data-name="Trazado 825106" d="M91.222,141.169c-.166.055-.327.111-.493.161-.954.309-1.9.6-2.848.888-.477.139-.946.272-1.421.4A69.906,69.906,0,0,1,59.046,133.6a70.681,70.681,0,0,1-20.939-18.813c.63-.177,1.259-.354,1.885-.535a67.692,67.692,0,0,0,51.23,26.915" transform="translate(46.088 138.183)" fill="#5880eb"/>
              <path id="Trazado_825107" data-name="Trazado 825107" d="M69.7,134.451c-.647.093-1.293.188-1.94.276-5.307-5.793-11.964-10.462-20.232-7.541a19.511,19.511,0,0,0-10.756,9.651h0c-.608,0-1.215,0-1.829-.007,2.508-5.053,6.407-9.235,12.148-11.244,9.306-3.261,16.752,2.269,22.614,8.864" transform="translate(42.251 150.724)" fill="#5880eb"/>
              <path id="Trazado_825108" data-name="Trazado 825108" d="M89.3,121.538c-.194,6.628-6.164,10.877-12.152,12.17-12.877,2.784-24.2-4.171-33.694-12.589.6-.188,1.2-.371,1.8-.563,7.55,6.606,16.16,11.942,26.467,12.019,6.083.044,14.014-2.419,15.676-9.11,1.79-7.218-4.269-12.554-9.83-16.332.517-.331,1.021-.658,1.489-.983,5.314,3.69,10.451,8.478,10.247,15.389" transform="translate(52.55 128.381)" fill="#5880eb"/>
              <path id="Trazado_825109" data-name="Trazado 825109" d="M108.354,113.639l-.04.088c-.236.508-.473,1.023-.716,1.529a30.665,30.665,0,0,1-10.977-1.533c-9.949-3.31-20.747-12.353-31.754-15.676.2-.444.4-.89.6-1.339,8.341,2.6,16.445,8.142,23.652,11.931,6.1,3.206,12.561,5.369,19.233,5" transform="translate(78.454 116.963)" fill="#5880eb"/>
              <path id="Trazado_825110" data-name="Trazado 825110" d="M90.806,84.97a25.348,25.348,0,0,1-4.9,3.259,32.447,32.447,0,0,1-10.495,3.314l.811-1.723a26.246,26.246,0,0,0,9.49-3.259,25.649,25.649,0,0,0,5.1-3.844,24.531,24.531,0,0,0,6.876-21.089c-.071-.53-.166-1.054-.265-1.58.486-.3.994-.585,1.513-.855.155.689.276,1.385.376,2.086A26.282,26.282,0,0,1,90.806,84.97" transform="translate(91.208 71.589)" fill="#5880eb"/>
              <path id="Trazado_825111" data-name="Trazado 825111" d="M107.483,80.3c-.2-.007-.4-.007-.6-.007A22.707,22.707,0,0,0,86.847,93.06,19.477,19.477,0,0,0,85.3,97.788c-1.5,7.837,1.949,16.007,8.02,20.957-.21.53-.426,1.056-.641,1.58-6.606-5.166-10.468-13.747-9.11-22.227a21.451,21.451,0,0,1,2.342-6.849,24.364,24.364,0,0,1,21.465-12.6h.106a.829.829,0,0,1,0,1.657" transform="translate(100.746 95.109)" fill="#5880eb"/>
              <path id="Trazado_825112" data-name="Trazado 825112" d="M94.39,94.838c.2,6.231-4.28,11.882-9.523,14.775-5.689,3.137-12.329,3.535-18.754,3.431l.725-1.642c5.5.062,11.12-.3,16.111-2.673,5.225-2.475,10-7.8,9.783-13.891-.232-6.529-5.954-11.065-11.357-13.7-.292-.144-.592-.283-.888-.415.225-.5.457-1.01.689-1.518.844.391,1.686.811,2.5,1.259,5.391,2.954,10.495,7.843,10.711,14.372" transform="translate(79.961 95.795)" fill="#5880eb"/>
              <path id="Trazado_825113" data-name="Trazado 825113" d="M104.163,72.819l-15.172,47.7c-.486,1.527,1.913,2.181,2.4.661l15.172-47.7c.486-1.527-1.913-2.181-2.4-.661" transform="translate(107.55 87.025)" fill="#1c2b74"/>
              <path id="Trazado_825114" data-name="Trazado 825114" d="M94.945,114.413l-.61,1q-.441.679-.89,1.348c-.6.868-1.22,1.71-1.847,2.506a50.955,50.955,0,0,1-7.837,7.9,63.433,63.433,0,0,1-7.846,5.46,80.429,80.429,0,0,1-7.612,3.979q-.961.444-1.911.851c5.239-21.012,21.4-23.168,28.553-23.047" transform="translate(80.297 138.37)" fill="#1c2b74"/>
              <path id="Trazado_825115" data-name="Trazado 825115" d="M33.684,147.259a1.2,1.2,0,0,1-.281-.084,1.171,1.171,0,0,1-.6-1.544,33.4,33.4,0,0,0-.256-27.883,1.171,1.171,0,0,1,2.046-1.14,35.163,35.163,0,0,1,.354,29.969,1.17,1.17,0,0,1-1.264.683" transform="translate(39.188 140.304)" fill="#1c2b74"/>
              <path id="Trazado_825116" data-name="Trazado 825116" d="M31.506,128.772c-2.76-.462-4.794-.979-4.993-1.03a1.17,1.17,0,0,1,.583-2.267c.113.029,11.41,2.9,16.918,1.111a1.171,1.171,0,0,1,.722,2.227c-3.65,1.184-9.209.63-13.23-.042" transform="translate(31.002 151.712)" fill="#1c2b74"/>
              <path id="Trazado_825117" data-name="Trazado 825117" d="M5.225,117.074s21.849,28.517,42.169,30.185a6.6,6.6,0,0,0,6.8-4.662l3.758-12.176s-31.2-20.316-52.726-13.347" transform="translate(6.319 139.833)" fill="#eaad8f"/>
              <path id="Trazado_825118" data-name="Trazado 825118" d="M68.74,152.895,67.6,154.41a2.3,2.3,0,0,1-2.572.8c-8.736-2.934-51.157-17.212-58.714-20.4a2.3,2.3,0,0,1-1.354-1.668L.045,108.547a2.306,2.306,0,0,1,.334-1.717l1.5-2.289,5.55,26.4Z" transform="translate(0 126.436)" fill="#5a554d"/>
              <path id="Trazado_825119" data-name="Trazado 825119" d="M67.814,152.685,63.662,128.05a4.184,4.184,0,0,0-2.669-2.6L2.856,104.592c-1.31-.471-2.243-.071-2.079.895L4.929,130.12a4.179,4.179,0,0,0,2.669,2.6l58.137,20.859c1.31.471,2.24.071,2.079-.893" transform="translate(0.917 126.259)" fill="#171612"/>
              <path id="Trazado_825120" data-name="Trazado 825120" d="M53.539,142.678l-3.02-17.914a4.178,4.178,0,0,0-2.667-2.6L4.741,106.7c-1.312-.471-2.243-.071-2.081.895l3.02,17.914a4.177,4.177,0,0,0,2.667,2.6L51.46,143.573c1.31.471,2.243.071,2.079-.895" transform="translate(3.195 128.805)" fill="#5a554d"/>
              <path id="Trazado_825121" data-name="Trazado 825121" d="M30.1,124.1c2.024.727,3.46.108,3.21-1.379s-2.095-3.283-4.118-4.01-3.462-.108-3.21,1.381,2.095,3.281,4.118,4.008" transform="translate(31.394 143.207)" fill="#5a554d"/>
              <path id="Trazado_825122" data-name="Trazado 825122" d="M38.14,119.343s.077-10.152-7.24-12-19.2,1.971-19.2,1.971c-2.936,5.4,6.286,6.215,17.5,6.279Z" transform="translate(13.488 129.219)" fill="#eaad8f"/>
              <path id="Trazado_825123" data-name="Trazado 825123" d="M24.5,131.333s-4.653,5.091-7.954,2.636-3.4-12.163-3.208-15.574,4.755,3.08,5.44,6.589a26.225,26.225,0,0,0,1.845,5.024Z" transform="translate(16.053 142.028)" fill="#eaad8f"/>
              <path id="Trazado_825124" data-name="Trazado 825124" d="M20.266,131.111s-5,5.121-8.92,2.209S7.308,118.882,7.54,114.834s5.941,3.61,6.458,7.819,2.512,5.327,2.512,5.327Z" transform="translate(9.033 137.499)" fill="#eaad8f"/>
              <path id="Trazado_825125" data-name="Trazado 825125" d="M16.754,129.007s-4.417,4.525-7.879,1.951-3.568-12.753-3.363-16.33,5.247,3.188,5.7,6.909,2.22,4.7,2.22,4.7Z" transform="translate(6.591 137.412)" fill="#eaad8f"/>
              <path id="Trazado_825126" data-name="Trazado 825126" d="M23.321,132.983s-5,5.122-8.92,2.209-4.039-14.439-3.807-18.486,5.941,3.61,6.456,7.821,2.512,5.325,2.512,5.325Z" transform="translate(12.728 139.763)" fill="#eaad8f"/>
              <path id="Trazado_825127" data-name="Trazado 825127" d="M83.12,117.293a1.177,1.177,0,0,1-.486-.2c-7.62-5.289-20.645-9.8-20.775-9.847a1.2,1.2,0,1,1,.782-2.271c.546.188,13.467,4.664,21.363,10.148a1.2,1.2,0,0,1-.884,2.17" transform="translate(73.835 126.882)" fill="#1c2b74"/>
              <path id="Trazado_825128" data-name="Trazado 825128" d="M63.932,108.744a1.2,1.2,0,0,1-.057-2.357A97.506,97.506,0,0,1,75.432,105a1.2,1.2,0,0,1,.148,2.4,97.411,97.411,0,0,0-11.2,1.339,1.206,1.206,0,0,1-.453.011" transform="translate(76.109 126.984)" fill="#1c2b74"/>
            </g>
          </g>
        </g>
      </g>
    </g>
    <g id="Grupo_1074035" data-name="Grupo 1074035" transform="translate(327.5 6473.312)">
      <g id="Grupo_1074034" data-name="Grupo 1074034" clip-path="url(#clip-path-7)">
        <path id="Trazado_825129" data-name="Trazado 825129" d="M137.018,93.878H10.482A10.482,10.482,0,0,1,0,83.4v-72.2H147.5V83.4a10.482,10.482,0,0,1-10.482,10.482" transform="translate(0 -1.19)" fill="#fff"/>
        <path id="Trazado_825130" data-name="Trazado 825130" d="M63.456,56.308A25.929,25.929,0,1,1,13.607,46.288L37.529,56.308,36.3,30.413c.4-.024.814-.031,1.228-.031A25.928,25.928,0,0,1,63.456,56.308" transform="translate(-1.233 -3.23)" fill="#539380"/>
        <path id="Trazado_825131" data-name="Trazado 825131" d="M33.651,25.629A25.956,25.956,0,0,0,10.961,41.5L34.88,51.524Z" transform="translate(-1.165 -2.725)" fill="#74caad"/>
        <rect id="Rectángulo_383144" data-name="Rectángulo 383144" width="3.56" height="3.56" transform="translate(121.079 35.223)" fill="#539380"/>
        <path id="Trazado_825132" data-name="Trazado 825132" d="M154.909,41.8H142.151a.039.039,0,0,1-.038-.039v-.813a.039.039,0,0,1,.038-.039h12.757a.039.039,0,0,1,.038.039v.813a.039.039,0,0,1-.038.039" transform="translate(-15.11 -4.349)" fill="#f0e8e0"/>
        <rect id="Rectángulo_383145" data-name="Rectángulo 383145" width="3.56" height="3.56" transform="translate(121.079 28.878)" fill="#74caad"/>
        <path id="Trazado_825133" data-name="Trazado 825133" d="M154.909,34.7H142.151a.038.038,0,0,1-.038-.038v-.814a.039.039,0,0,1,.038-.039h12.757a.039.039,0,0,1,.038.039v.814a.038.038,0,0,1-.038.038" transform="translate(-15.11 -3.595)" fill="#f0e8e0"/>
        <rect id="Rectángulo_383146" data-name="Rectángulo 383146" width="3.56" height="3.56" transform="translate(121.079 41.567)" fill="#365f54"/>
        <path id="Trazado_825134" data-name="Trazado 825134" d="M154.909,48.9H142.151a.038.038,0,0,1-.038-.038v-.814a.039.039,0,0,1,.038-.039h12.757a.039.039,0,0,1,.038.039v.814a.038.038,0,0,1-.038.038" transform="translate(-15.11 -5.104)" fill="#f0e8e0"/>
        <path id="Trazado_825135" data-name="Trazado 825135" d="M153.8,62.877H135.93a.446.446,0,1,1,0-.892H153.8a.446.446,0,0,1,0,.892" transform="translate(-14.405 -6.591)" fill="#f0e8e0"/>
        <path id="Trazado_825136" data-name="Trazado 825136" d="M153.8,66.973H135.93a.446.446,0,1,1,0-.892H153.8a.446.446,0,0,1,0,.892" transform="translate(-14.405 -7.026)" fill="#f0e8e0"/>
        <path id="Trazado_825137" data-name="Trazado 825137" d="M153.8,71.07H135.93a.446.446,0,1,1,0-.892H153.8a.446.446,0,0,1,0,.892" transform="translate(-14.405 -7.462)" fill="#f0e8e0"/>
        <path id="Trazado_825138" data-name="Trazado 825138" d="M153.8,75.166H135.93a.446.446,0,1,1,0-.892H153.8a.446.446,0,0,1,0,.892" transform="translate(-14.405 -7.897)" fill="#f0e8e0"/>
        <path id="Trazado_825139" data-name="Trazado 825139" d="M153.8,79.262H135.93a.446.446,0,1,1,0-.892H153.8a.446.446,0,0,1,0,.892" transform="translate(-14.405 -8.333)" fill="#f0e8e0"/>
        <path id="Trazado_825140" data-name="Trazado 825140" d="M153.8,83.359H135.93a.446.446,0,1,1,0-.892H153.8a.446.446,0,0,1,0,.892" transform="translate(-14.405 -8.768)" fill="#f0e8e0"/>
        <path id="Trazado_825141" data-name="Trazado 825141" d="M153.8,87.455H135.93a.446.446,0,1,1,0-.892H153.8a.446.446,0,0,1,0,.892" transform="translate(-14.405 -9.204)" fill="#f0e8e0"/>
        <path id="Trazado_825142" data-name="Trazado 825142" d="M66.4,56.308a25.828,25.828,0,0,1-6.678,17.369L40.468,56.308l-1.228-25.9c.4-.024.814-.031,1.228-.031A25.928,25.928,0,0,1,66.4,56.308" transform="translate(-4.172 -3.23)" fill="#365f54"/>
        <rect id="Rectángulo_383147" data-name="Rectángulo 383147" width="8.255" height="35.371" transform="translate(87.467 46.527)" fill="#539380"/>
        <path id="Trazado_825143" data-name="Trazado 825143" d="M97.873,80.7a32.188,32.188,0,0,0,8.255-4.264V90.026H97.873Z" transform="translate(-10.406 -8.127)" fill="#365f54"/>
        <rect id="Rectángulo_383148" data-name="Rectángulo 383148" width="8.255" height="25.542" transform="translate(73.975 56.356)" fill="#539380"/>
        <path id="Trazado_825144" data-name="Trazado 825144" d="M89.5,81.843a14.473,14.473,0,0,0,1.528.14v8.59H82.776v-8.51a14.9,14.9,0,0,1,6.727-.221" transform="translate(-8.801 -8.675)" fill="#365f54"/>
        <rect id="Rectángulo_383149" data-name="Rectángulo 383149" width="8.255" height="45.938" transform="translate(100.959 35.961)" fill="#539380"/>
        <path id="Trazado_825145" data-name="Trazado 825145" d="M121.226,68.411V89.173h-8.255V71.936c2.934-1.992,5.669-3.535,8.255-3.525" transform="translate(-12.012 -7.274)" fill="#365f54"/>
        <path id="Trazado_825146" data-name="Trazado 825146" d="M117.621,25.254l-7.45,1.6,2,1.962L100.766,40.441l-4-3.926L82.61,50.944A1.4,1.4,0,0,0,84.6,52.9L96.8,40.465l4,3.926L114.166,30.77l2,1.962Z" transform="translate(-8.741 -2.685)" fill="#74caad"/>
        <path id="Trazado_825147" data-name="Trazado 825147" d="M147.5,13.424H0V1.8A1.8,1.8,0,0,1,1.8,0H145.7a1.8,1.8,0,0,1,1.8,1.8Z" transform="translate(0 0)" fill="#171612"/>
        <path id="Trazado_825148" data-name="Trazado 825148" d="M141.826,6.777A2.175,2.175,0,1,1,139.651,4.6a2.176,2.176,0,0,1,2.175,2.175" transform="translate(-14.617 -0.489)" fill="#5a554d"/>
        <path id="Trazado_825149" data-name="Trazado 825149" d="M158.016,6.777A2.175,2.175,0,1,1,155.841,4.6a2.176,2.176,0,0,1,2.175,2.175" transform="translate(-16.339 -0.489)" fill="#5a554d"/>
        <path id="Trazado_825150" data-name="Trazado 825150" d="M150.164,6.777A2.175,2.175,0,1,1,147.989,4.6a2.176,2.176,0,0,1,2.175,2.175" transform="translate(-15.504 -0.489)" fill="#5a554d"/>
      </g>
    </g>
  </g>
</svg>
