<svg xmlns="http://www.w3.org/2000/svg" width="295" height="130.259" viewBox="0 0 295 130.259">
  <g id="Grupo_1074076" data-name="Grupo 1074076" transform="translate(-1125 -7110)">
    <rect id="Rectángulo_382997" data-name="Rectángulo 382997" width="295" height="67" rx="8" transform="translate(1125 7142)" fill="#a854f3"/>
    <g id="apreton-de-manos" transform="translate(1167.001 7011.942)">
      <g id="Grupo_1074074" data-name="Grupo 1074074" transform="translate(3.093 101.15)">
        <g id="Grupo_1074069" data-name="Grupo 1074069" transform="translate(48.698 2.835)">
          <path id="Trazado_825207" data-name="Trazado 825207" d="M246.279,167.242l-5.363-43.567-10.05,1.237,0-.007L211.386,113.94a11.742,11.742,0,0,0-6.838-1.459l-30.765,2.845a11.739,11.739,0,0,0-9.069,5.792L143.031,158.44a5.158,5.158,0,0,0,2.637,7.416l.887.335a19.237,19.237,0,0,0,5.213,1.164l-2.748,2.393-5.5,4.789L127.89,187.873a6.679,6.679,0,0,0-.648,9.426l1.586,1.816a8.585,8.585,0,0,0,12.109.827l5.975,6.853a8.569,8.569,0,0,0,12.109.827l5.969,6.854a8.588,8.588,0,0,0,12.116.833l3.244,2.8a8.588,8.588,0,0,0,12.116.832l4.409-3.847,37.07-28.87.04-.037,14.626-.014Z" transform="translate(-125.598 -112.431)" fill="#f29f5c"/>
          <path id="Trazado_825208" data-name="Trazado 825208" d="M230.4,261.324l-.04.037-37.07,28.87-4.409,3.847a8.588,8.588,0,0,1-12.116-.832l-3.244-2.8a8.588,8.588,0,0,1-12.116-.833l-5.969-6.854a8.569,8.569,0,0,1-12.109-.827l-5.975-6.853a8.583,8.583,0,0,1-10.631.506,6.677,6.677,0,0,0,.529,8.075l1.586,1.816a8.585,8.585,0,0,0,12.109.827l5.975,6.853a8.569,8.569,0,0,0,12.109.827L165,300.835a8.588,8.588,0,0,0,12.116.833l3.244,2.8a8.588,8.588,0,0,0,12.116.832l4.409-3.847,37.07-28.87.04-.037,14.626-.014L247,259.39Z" transform="translate(-125.605 -198.79)" fill="#d37d42"/>
        </g>
        <g id="Grupo_1074070" data-name="Grupo 1074070" transform="translate(28.546 4.558)">
          <path id="Trazado_825209" data-name="Trazado 825209" d="M208.424,196.266l-19.861-17.125-5.523-4.759-3.952-3.4L162.1,156.331l1.962-16.7a11.528,11.528,0,0,0-8.375-12.456l-37.04-10.249a8.572,8.572,0,0,0-9.915,4.353l-4.658,9.093L84.074,129.01l-5.122,43.6-2.226,18.946,19.463,1.294.04.037,40.66,35.048,4.431,3.823a8.588,8.588,0,0,0,12.111-.9l5.93-6.881a8.588,8.588,0,0,0,12.111-.9l5.931-6.887a8.569,8.569,0,0,0,12.1-.894l5.937-6.886a8.584,8.584,0,0,0,12.1-.894l1.576-1.826A6.679,6.679,0,0,0,208.424,196.266Z" transform="translate(-76.727 -116.61)" fill="#f9c295"/>
          <path id="Trazado_825210" data-name="Trazado 825210" d="M296.655,302.347l-6.05-5.216a7.091,7.091,0,0,1-.293,8.892l-1.673,1.938a9.113,9.113,0,0,1-12.849.949l-6.3,7.31a9.1,9.1,0,0,1-12.849.949l-6.3,7.311a9.117,9.117,0,0,1-12.857.955l-6.3,7.3a9.052,9.052,0,0,1-4.319,2.784l2.68,2.312a8.588,8.588,0,0,0,12.111-.9l5.93-6.881a8.588,8.588,0,0,0,12.111-.9l5.931-6.887a8.569,8.569,0,0,0,12.1-.894l5.937-6.886a8.584,8.584,0,0,0,12.1-.894l1.576-1.826A6.68,6.68,0,0,0,296.655,302.347Z" transform="translate(-164.958 -222.691)" fill="#e59f6a"/>
        </g>
        <g id="Grupo_1074072" data-name="Grupo 1074072" transform="translate(45.107 77.702)">
          <g id="Grupo_1074071" data-name="Grupo 1074071">
            <path id="Trazado_825211" data-name="Trazado 825211" d="M120.8,297.037l-2.356,3.111a7.7,7.7,0,0,0,1.489,10.779h0a7.7,7.7,0,0,0,10.779-1.489l2.356-3.111a7.7,7.7,0,0,0-1.489-10.779h0A7.7,7.7,0,0,0,120.8,297.037Z" transform="translate(-116.887 -293.988)" fill="#f29f5c"/>
            <path id="Trazado_825212" data-name="Trazado 825212" d="M152.634,312.9l-4.437,5.858a7.7,7.7,0,0,0,1.489,10.779h0a7.7,7.7,0,0,0,10.779-1.489l4.437-5.858a7.7,7.7,0,0,0-1.489-10.779h0A7.7,7.7,0,0,0,152.634,312.9Z" transform="translate(-134.369 -303.311)" fill="#f29f5c"/>
            <path id="Trazado_825213" data-name="Trazado 825213" d="M183.993,330.278l-6.046,7.984a7.7,7.7,0,0,0,1.489,10.779h0a7.7,7.7,0,0,0,10.779-1.489l6.046-7.984a7.7,7.7,0,0,0-1.489-10.779h0A7.7,7.7,0,0,0,183.993,330.278Z" transform="translate(-151.851 -313.522)" fill="#f29f5c"/>
            <path id="Trazado_825214" data-name="Trazado 825214" d="M214.094,351.685l-6.4,8.447a7.7,7.7,0,0,0,1.489,10.779h0a7.7,7.7,0,0,0,10.779-1.489l6.4-8.447a7.7,7.7,0,0,0-1.489-10.779h0A7.7,7.7,0,0,0,214.094,351.685Z" transform="translate(-169.333 -326.101)" fill="#f29f5c"/>
          </g>
        </g>
        <path id="Trazado_825215" data-name="Trazado 825215" d="M254.716,124.905,235.232,113.94a11.742,11.742,0,0,0-6.838-1.459l-30.765,2.845a11.739,11.739,0,0,0-9.069,5.792L166.876,158.44a5.158,5.158,0,0,0,2.637,7.416l.887.335a19.281,19.281,0,0,0,22.1-6.289l8.308-10.812s19.97,23.122,41.957-3.88" transform="translate(-100.745 -109.597)" fill="#f29f5c"/>
        <path id="Trazado_825216" data-name="Trazado 825216" d="M435.55,105.557l10.191,82.782-23.829,2.934a8.216,8.216,0,0,1-9.159-7.151l-8.183-66.473a8.216,8.216,0,0,1,7.151-9.159Z" transform="translate(-240.798 -105.557)" fill="#5c9cee"/>
        <path id="Trazado_825217" data-name="Trazado 825217" d="M431.66,280.866a9.008,9.008,0,0,1-9.885-6.948l1.125,9.139a8.216,8.216,0,0,0,9.159,7.151l23.83-2.934-1.139-9.251Z" transform="translate(-250.945 -204.492)" fill="#3580d3"/>
        <path id="Trazado_825218" data-name="Trazado 825218" d="M17.692,105.557,7.5,188.339l23.83,2.934a8.216,8.216,0,0,0,9.159-7.151l8.183-66.473a8.216,8.216,0,0,0-7.151-9.159Z" transform="translate(-7.501 -105.557)" fill="#ed5575"/>
        <path id="Trazado_825219" data-name="Trazado 825219" d="M31.891,283.678,8.667,280.819,7.5,290.293l23.83,2.934a8.216,8.216,0,0,0,9.159-7.151l.864-7.022A9.652,9.652,0,0,1,31.891,283.678Z" transform="translate(-7.501 -207.511)" fill="#cc3a60"/>
        <g id="Grupo_1074073" data-name="Grupo 1074073" transform="translate(10.388 63.17)">
          <circle id="Elipse_9826" data-name="Elipse 9826" cx="5.978" cy="5.978" r="5.978" transform="translate(171.877)" fill="#ebeef2"/>
          <circle id="Elipse_9827" data-name="Elipse 9827" cx="5.978" cy="5.978" r="5.978" fill="#ebeef2"/>
        </g>
      </g>
      <g id="Grupo_1074075" data-name="Grupo 1074075" transform="translate(-0.001 98.057)">
        <path id="Trazado_825220" data-name="Trazado 825220" d="M105.606,200.482a10.761,10.761,0,0,0-8.493-2A10.782,10.782,0,0,0,85,189.568a10.9,10.9,0,0,0-2.055.49,10.772,10.772,0,0,0-14.465-6.934,10.791,10.791,0,0,0-17.761-4.3l-11.32-.753L46.337,121.7l12.433.845c.071,0,.141.007.21.007a3.092,3.092,0,0,0,2.751-1.682l4.659-9.091A5.5,5.5,0,0,1,72.728,109l6.919,1.913a3.093,3.093,0,0,0,1.649-5.962l-6.918-1.913a11.711,11.711,0,0,0-13.49,5.92l-3.731,7.279-10.062-.684.238-1.936a11.321,11.321,0,0,0-9.842-12.606l-23.83-2.932a3.093,3.093,0,0,0-.756,6.139l23.83,2.934a5.123,5.123,0,0,1,4.459,5.711l-8.183,66.473A5.131,5.131,0,0,1,27.3,183.8L3.47,180.863A3.093,3.093,0,1,0,2.714,187l23.83,2.934a11.3,11.3,0,0,0,11.288-5.773l8.469.563a10.789,10.789,0,0,0,9.57,15.72,11,11,0,0,0,1.5-.1l.1-.016c0,.032.007.064.011.1a10.778,10.778,0,0,0,10.673,9.307,10.881,10.881,0,0,0,1.588-.121,10.765,10.765,0,0,0,10.68,9.411A10.876,10.876,0,0,0,82,218.9c0,.034.007.069.012.1a10.792,10.792,0,0,0,10.663,9.313,10.99,10.99,0,0,0,1.5-.1,10.716,10.716,0,0,0,7.124-4.173l6.4-8.447A10.8,10.8,0,0,0,105.606,200.482Zm-49.083-6.266a4.6,4.6,0,0,1-4.3-7.337l2.356-3.111a4.6,4.6,0,0,1,7.337,5.556l-2.356,3.111A4.573,4.573,0,0,1,56.523,194.215Zm8.86,8.4a4.6,4.6,0,0,1-.89-6.446l2.356-3.11h0l2.08-2.747a4.6,4.6,0,0,1,7.336,5.557l-4.437,5.858A4.607,4.607,0,0,1,65.383,202.616Zm12.268,9.29a4.6,4.6,0,0,1-.891-6.445h0L81.2,199.6h0l1.61-2.126a4.6,4.6,0,0,1,7.338,5.554L84.1,211.015h0A4.607,4.607,0,0,1,77.651,211.906Zm25.111-.047-6.4,8.447a4.6,4.6,0,1,1-7.336-5.556l6.047-7.984,0,0,.348-.459a4.6,4.6,0,1,1,7.336,5.556Z" transform="translate(0.001 -98.057)"/>
        <path id="Trazado_825221" data-name="Trazado 825221" d="M304.352,183.554a3.093,3.093,0,0,0-3.447-2.691L277.075,183.8a5.128,5.128,0,0,1-5.711-4.459l-.244-1.984h0l-.056-.459-7.882-64.029a5.123,5.123,0,0,1,4.459-5.711l23.829-2.934a3.093,3.093,0,1,0-.756-6.139l-23.829,2.934a11.324,11.324,0,0,0-9.922,11.517l-6.009.74L232.345,102.8a14.768,14.768,0,0,0-8.639-1.845l-.019,0-5.6.518a3.093,3.093,0,0,0,.57,6.159l5.617-.52a8.609,8.609,0,0,1,5.037,1.075L248.6,119.046a3.093,3.093,0,0,0,2.082.489l6.98-.859,5.119,41.584,1.77,14.381-11.133.009a3.09,3.09,0,0,0-2.019.753l-.861.671-27.949-24.088c6.387-1.836,12.476-6.278,18.168-13.269a3.093,3.093,0,1,0-4.8-3.906c-6.363,7.814-13.053,11.836-19.885,11.954-9.953.187-17.266-8.066-17.334-8.143a3.093,3.093,0,0,0-4.793.137l-8.308,10.812a16.093,16.093,0,0,1-18.556,5.281l-.887-.335a2.065,2.065,0,0,1-1.056-2.969l21.684-37.322a8.662,8.662,0,0,1,6.68-4.266l12.838-1.187a3.093,3.093,0,0,0-.57-6.159L192.938,103.8a14.859,14.859,0,0,0-11.459,7.318L159.8,148.44a8.251,8.251,0,0,0,4.219,11.863l.887.335a22.531,22.531,0,0,0,7.971,1.465,22.244,22.244,0,0,0,17.675-8.763l6.2-8.067c3.322,2.863,9.518,7.1,17.428,7.623l40.389,34.81a3.589,3.589,0,0,1,.377,5.06l-1.574,1.826a5.5,5.5,0,0,1-7.747.568,3.09,3.09,0,0,0-.4-.291l-10.485-9.041a3.093,3.093,0,1,0-4.039,4.685l8.52,7.347-3.886,4.51a5.479,5.479,0,0,1-7.745.573c-.015-.013-.031-.023-.046-.036l-9.742-8.4a3.093,3.093,0,1,0-4.039,4.685l7.445,6.419-3.91,4.541a5.5,5.5,0,0,1-4.81,1.872,3.093,3.093,0,1,0-.722,6.143,11.68,11.68,0,0,0,10.218-3.977l4.18-4.854a11.671,11.671,0,0,0,13.856-2.927l4.187-4.859a11.705,11.705,0,0,0,13.854-2.918l1.576-1.828a9.774,9.774,0,0,0-1.024-13.783l-2.539-2.188,9.279-.008a11.3,11.3,0,0,0,12.488,9.11L301.66,187A3.093,3.093,0,0,0,304.352,183.554Z" transform="translate(-93.245 -98.058)"/>
        <path id="Trazado_825222" data-name="Trazado 825222" d="M451.076,251.249a9.071,9.071,0,1,0,9.071,9.071A9.082,9.082,0,0,0,451.076,251.249Zm0,11.957a2.886,2.886,0,1,1,2.886-2.886A2.89,2.89,0,0,1,451.076,263.206Z" transform="translate(-259.738 -188.079)"/>
        <path id="Trazado_825223" data-name="Trazado 825223" d="M43.335,260.32a9.071,9.071,0,1,0-9.071,9.072A9.081,9.081,0,0,0,43.335,260.32Zm-11.957,0a2.886,2.886,0,1,1,2.886,2.886A2.889,2.889,0,0,1,31.378,260.32Z" transform="translate(-14.804 -188.079)"/>
      </g>
    </g>
  </g>
</svg>
