<svg xmlns="http://www.w3.org/2000/svg" width="86" height="86" viewBox="0 0 86 86">
  <g id="Grupo_1073307" data-name="Grupo 1073307" transform="translate(-648 -1656)">
    <g id="Grupo_1073132" data-name="Grupo 1073132" transform="translate(315 728)">
      <path id="Trazado_872549" data-name="Trazado 872549" d="M43,0A43,43,0,1,1,0,43,43,43,0,0,1,43,0Z" transform="translate(333 928)" fill="#f0c52c"/>
    </g>
    <g id="algoritmos" transform="translate(654.991 1660.998)">
      <path id="Trazado_820836" data-name="Trazado 820836" d="M60.7,130.2v-11.09a10.029,10.029,0,0,1,1.106-4.552c2.574-5.054,5.382-15.16,5.588-20.384.816-20.631-12.607-31.293-28.643-31.292-13.167,0-24.284,5.557-23.555,24.26.083,2.138-2.558,7.819-9.1,19.9-.352.65.3,1.419,1.047,1.419h7.985c.189,7.618-1.84,13.821,13.081,11.818V130.2" transform="translate(-5.175 -54.33)" fill="#3f8fd5"/>
      <path id="Trazado_820837" data-name="Trazado 820837" d="M56.341,125.013H54.709v-11.09A10.9,10.9,0,0,1,55.9,109c2.576-5.057,5.3-14.987,5.5-20.046.365-9.24-2.2-16.989-7.406-22.409-4.981-5.181-12.233-8.035-20.422-8.035-7.846,0-13.751,2-17.549,5.952-3.744,3.893-5.491,9.768-5.191,17.46.09,2.3-2.317,7.614-9.2,20.318a.373.373,0,0,0,.329.215h8.781l.02.8c.022.9.014,1.78.006,2.628-.031,3.278-.055,5.867,1.6,7.326s5.1,1.808,10.555,1.076l.925-.124v10.855H22.219v-9c-5.5.641-8.982.132-10.928-1.587-2.21-1.952-2.181-5.016-2.148-8.564.005-.58.011-1.174.007-1.777H1.969a2.03,2.03,0,0,1-1.713-.974,1.657,1.657,0,0,1-.051-1.65c4.729-8.732,9.093-17.136,9-19.477-.318-8.153,1.581-14.43,5.645-18.655,4.118-4.281,10.418-6.452,18.725-6.452,8.637,0,16.307,3.031,21.6,8.536,5.525,5.748,8.244,13.911,7.86,23.6-.207,5.24-3.018,15.5-5.677,20.722a9.265,9.265,0,0,0-1.017,4.181Z" transform="translate(0 -49.145)"/>
      <path id="Trazado_820838" data-name="Trazado 820838" d="M116.077,96.116h-30.5a10.309,10.309,0,0,1-9.7-8.134C72.94,70.948,84.6,62.608,95.359,62.608l3.372.037c12.208,0,28.025,9.86,28.025,22.068v.725a10.679,10.679,0,0,1-10.679,10.679Z" transform="translate(-65.155 -54.095)" fill="#fdc00f"/>
      <path id="Trazado_820839" data-name="Trazado 820839" d="M110.886,91.749h-30.5a11.121,11.121,0,0,1-10.5-8.811c-1.667-9.666,1.382-15.73,4.234-19.115a21.115,21.115,0,0,1,16.052-7.214l3.381.037a33.867,33.867,0,0,1,19.062,6.612,26.864,26.864,0,0,1,6.981,7.236,16.751,16.751,0,0,1,2.789,9.035v.725a11.508,11.508,0,0,1-11.495,11.494ZM90.159,58.24a19.461,19.461,0,0,0-14.795,6.634C71.595,69.348,70.255,75.5,71.49,82.661a9.465,9.465,0,0,0,8.891,7.456h30.5a9.874,9.874,0,0,0,9.863-9.863v-.725c0-5.369-3.231-10.679-9.1-14.952a32.187,32.187,0,0,0-18.11-6.3Z" transform="translate(-59.964 -48.911)"/>
      <path id="Trazado_820840" data-name="Trazado 820840" d="M183.48,233.236H167.1a6.437,6.437,0,1,1,0-12.875h12.321v1.632H167.1a4.806,4.806,0,0,0,0,9.612h16.38Z" transform="translate(-138.81 -190.398)"/>
      <rect id="Rectángulo_382521" data-name="Rectángulo 382521" width="11.923" height="1.632" transform="translate(28.899 35.584)"/>
      <path id="Trazado_820841" data-name="Trazado 820841" d="M121.628,141.979a5.288,5.288,0,0,1,6.119-6.584l-.315,1.6a3.656,3.656,0,0,0-4.23,4.551Z" transform="translate(-104.921 -116.9)"/>
      <path id="Trazado_820842" data-name="Trazado 820842" d="M341.774,257.545a5.288,5.288,0,0,1-1.093-8.922L341.7,249.9a3.656,3.656,0,0,0,.755,6.168Z" transform="translate(-292.644 -214.817)"/>
      <path id="Trazado_820843" data-name="Trazado 820843" d="M94.521,135.042a3.567,3.567,0,0,0-4.883-1.265l-.828-1.406a5.2,5.2,0,0,1,7.116,1.844Z" transform="translate(-76.728 -113.751)"/>
      <path id="Trazado_820844" data-name="Trazado 820844" d="M209.492,100.312a3.656,3.656,0,0,0-6.206-.313l-1.342-.928a5.288,5.288,0,0,1,8.977.452Z" transform="translate(-174.478 -83.632)"/>
      <path id="Trazado_820845" data-name="Trazado 820845" d="M216.165,63.589l-1.538-.545a3.567,3.567,0,0,0-2.171-4.553L213,56.953a5.2,5.2,0,0,1,3.164,6.635Z" transform="translate(-183.561 -49.208)"/>
      <path id="Trazado_820846" data-name="Trazado 820846" d="M104.518,211.979a5.288,5.288,0,0,1,4.008-8.046l.15,1.625a3.656,3.656,0,0,0-2.77,5.562Z" transform="translate(-89.617 -176.204)"/>
      <path id="Trazado_820847" data-name="Trazado 820847" d="M171.062,162.929a5.265,5.265,0,0,1-2.722-.756l.843-1.4a3.656,3.656,0,0,0,5.529-2.836l1.626.131a5.285,5.285,0,0,1-5.276,4.858Z" transform="translate(-145.443 -136.464)"/>
      <path id="Trazado_820848" data-name="Trazado 820848" d="M296.084,21.561l-.326-.038-3.1-.361a14.71,14.71,0,0,0-.9-2.967l2.377-2.018.252-.214A17.848,17.848,0,0,0,292.553,13l-.3.13-2.862,1.233a13.756,13.756,0,0,0-2.264-2.112l1.046-2.947L288.28,9q-.713-.476-1.481-.891t-1.586-.748l-.2.265-1.869,2.506a14.691,14.691,0,0,0-3.01-.712l-.557-3.059-.059-.324a17.882,17.882,0,0,0-3.488.12l-.038.327-.357,3.094a14.147,14.147,0,0,0-2.971.9L270.652,8.1l-.214-.252a17.993,17.993,0,0,0-2.966,1.838l.131.3,1.231,2.846a14.7,14.7,0,0,0-2.113,2.273l-2.938-1.047-.311-.111c-.32.479-.619.976-.9,1.5a16.867,16.867,0,0,0-.752,1.575l.264.2,2.512,1.866a15.308,15.308,0,0,0-.451,1.546,14.841,14.841,0,0,0-.252,1.466l-3.069.565-.323.059a17.777,17.777,0,0,0,.117,3.478l.327.038,3.094.364a14.616,14.616,0,0,0,.9,2.97l-2.372,2.013-.251.214a17.815,17.815,0,0,0,1.841,2.963l.3-.13,2.855-1.231a15.238,15.238,0,0,0,2.261,2.111l-1.044,2.931-.111.311q.721.48,1.5.9t1.581.749l.2-.264,1.854-2.491a14.789,14.789,0,0,0,3.013.7l.565,3.062.061.323a17.648,17.648,0,0,0,3.476-.114l.038-.326.367-3.1a15.218,15.218,0,0,0,2.964-.892l2.019,2.372a17.254,17.254,0,0,0,3.043-1.888l-1.237-2.866a14.137,14.137,0,0,0,2.121-2.264l2.935,1.043.311.111q.48-.721.9-1.5c.274-.515.519-1.04.739-1.571l-.264-.2-2.485-1.855a14.763,14.763,0,0,0,.438-1.528c.117-.5.2-1,.267-1.491l3.059-.56.322-.059a17.686,17.686,0,0,0-.113-3.481Z" transform="translate(-225.042 -5.18)" fill="#d22732"/>
      <path id="Trazado_820849" data-name="Trazado 820849" d="M273.17,37.4q-.609,0-1.217-.04a.816.816,0,0,1-.748-.664l-.52-2.812a15.64,15.64,0,0,1-2.012-.469l-1.7,2.284a.816.816,0,0,1-.967.267c-.551-.229-1.108-.492-1.653-.783s-1.059-.6-1.566-.937a.816.816,0,0,1-.317-.952l.958-2.691a16.1,16.1,0,0,1-1.508-1.408L259.3,30.327a.816.816,0,0,1-.971-.253,18.676,18.676,0,0,1-1.925-3.1.816.816,0,0,1,.2-.981l2.177-1.849a15.527,15.527,0,0,1-.6-1.986l-2.838-.334a.816.816,0,0,1-.714-.7,18.644,18.644,0,0,1-.122-3.637.816.816,0,0,1,.668-.75l2.813-.517c.05-.308.111-.624.182-.946.082-.35.177-.7.289-1.065l-2.3-1.712a.816.816,0,0,1-.267-.967,17.811,17.811,0,0,1,.789-1.651c.284-.53.6-1.056.937-1.56A.816.816,0,0,1,258.565,8l2.694.96a15.613,15.613,0,0,1,1.415-1.517l-1.131-2.616a.816.816,0,0,1,.254-.972,18.862,18.862,0,0,1,3.1-1.921.816.816,0,0,1,.983.2l1.846,2.175a15,15,0,0,1,1.988-.6l.328-2.835a.816.816,0,0,1,.7-.714,18.75,18.75,0,0,1,3.647-.125.816.816,0,0,1,.751.668l.512,2.808a15.6,15.6,0,0,1,2.01.475l1.714-2.3a.816.816,0,0,1,.966-.267c.562.232,1.119.5,1.657.782s1.043.594,1.55.932a.816.816,0,0,1,.316.952l-.959,2.7A14.669,14.669,0,0,1,284.422,8.2l2.629-1.131a.816.816,0,0,1,.968.254,18.7,18.7,0,0,1,1.922,3.1.816.816,0,0,1-.2.983l-2.181,1.851a15.474,15.474,0,0,1,.6,1.983l2.842.332a.816.816,0,0,1,.714.7,18.541,18.541,0,0,1,.117,3.641.816.816,0,0,1-.666.748l-2.807.514c-.058.356-.122.676-.193.98-.084.362-.175.706-.276,1.037l2.279,1.7a.816.816,0,0,1,.267.967c-.237.572-.5,1.124-.773,1.642-.286.539-.6,1.069-.937,1.573a.816.816,0,0,1-.953.316l-2.691-.956a15.074,15.074,0,0,1-1.421,1.513l1,2.327a.816.816,0,0,1-.249.968,18.1,18.1,0,0,1-3.186,1.977.816.816,0,0,1-.977-.205l-1.642-1.929a16.176,16.176,0,0,1-1.979.6l-.337,2.841a.816.816,0,0,1-.7.713A18.47,18.47,0,0,1,273.17,37.4Zm-.48-1.638a17.021,17.021,0,0,0,2.058-.067l.33-2.781a.816.816,0,0,1,.659-.706,14.475,14.475,0,0,0,2.806-.845.816.816,0,0,1,.931.226l1.6,1.881a16.476,16.476,0,0,0,1.834-1.138l-.982-2.274a.816.816,0,0,1,.215-.941,13.37,13.37,0,0,0,2-2.133.816.816,0,0,1,.928-.283l2.635.936c.18-.294.352-.6.514-.9s.309-.6.453-.92l-2.231-1.666a.816.816,0,0,1-.282-.922,13.892,13.892,0,0,0,.414-1.444c.1-.413.177-.863.253-1.417a.816.816,0,0,1,.661-.692l2.744-.5a16.981,16.981,0,0,0-.067-2.06l-2.779-.324a.816.816,0,0,1-.707-.657,13.833,13.833,0,0,0-.849-2.8.816.816,0,0,1,.223-.94l2.135-1.812A17.108,17.108,0,0,0,287.1,8.827l-2.57,1.108a.816.816,0,0,1-.941-.218,13,13,0,0,0-2.13-1.987.816.816,0,0,1-.284-.929l.94-2.648c-.292-.18-.587-.351-.881-.509s-.616-.316-.932-.46L278.62,5.436a.816.816,0,0,1-.925.282,13.929,13.929,0,0,0-2.844-.672.816.816,0,0,1-.7-.663l-.5-2.744a17.177,17.177,0,0,0-2.067.071l-.32,2.777a.816.816,0,0,1-.662.709,13.314,13.314,0,0,0-2.8.846.816.816,0,0,1-.943-.222l-1.807-2.13A17.308,17.308,0,0,0,263.3,4.777l1.1,2.554a.816.816,0,0,1-.21.937,13.933,13.933,0,0,0-2,2.146.815.815,0,0,1-.929.283l-2.639-.94c-.181.294-.354.594-.517.9s-.32.613-.462.922l2.254,1.674a.816.816,0,0,1,.285.922,14.53,14.53,0,0,0-.428,1.464c-.1.474-.185.94-.237,1.377a.816.816,0,0,1-.662.707l-2.755.507a17.056,17.056,0,0,0,.069,2.057l2.779.327a.816.816,0,0,1,.707.661,13.863,13.863,0,0,0,.849,2.8.816.816,0,0,1-.225.937l-2.128,1.806a17.07,17.07,0,0,0,1.09,1.756l2.561-1.1a.816.816,0,0,1,.937.212,14.424,14.424,0,0,0,2.14,2,.816.816,0,0,1,.276.925l-.937,2.63c.3.181.6.354.9.515s.618.319.929.462l1.663-2.235a.816.816,0,0,1,.925-.283,13.992,13.992,0,0,0,2.847.664.816.816,0,0,1,.7.661Z" transform="translate(-219.861)"/>
      <path id="Trazado_820850" data-name="Trazado 820850" d="M333.1,65.081a10.034,10.034,0,0,0-13.558,4.108,9.561,9.561,0,0,0-.932,2.5A10.01,10.01,0,0,0,337.2,78.624a10.269,10.269,0,0,0,.925-2.461A10.014,10.014,0,0,0,333.1,65.081Z" transform="translate(-275.063 -55.212)" fill="#b22732"/>
      <path id="Trazado_820851" data-name="Trazado 820851" d="M323.206,79.609a10.844,10.844,0,0,1-10.551-13.237,10.36,10.36,0,0,1,1.009-2.7,10.874,10.874,0,0,1,14.658-4.44l0,0a10.849,10.849,0,0,1,5.43,11.985,11.059,11.059,0,0,1-1,2.658,10.732,10.732,0,0,1-6.393,5.261,10.857,10.857,0,0,1-3.161.473Zm.037-20.016a9.235,9.235,0,0,0-8.143,4.851,8.748,8.748,0,0,0-.854,2.284,9.193,9.193,0,0,0,17.071,6.382,9.42,9.42,0,0,0,.85-2.264,9.165,9.165,0,0,0-8.925-11.254Z" transform="translate(-269.905 -50.08)"/>
      <path id="Trazado_820852" data-name="Trazado 820852" d="M370,110.466A3.746,3.746,0,0,0,364.937,112a3.569,3.569,0,0,0-.348.932,3.737,3.737,0,0,0,6.939,2.591,3.831,3.831,0,0,0,.345-.919A3.738,3.738,0,0,0,370,110.466Z" transform="translate(-314.928 -95.065)" fill="#d1d3d4"/>
      <path id="Trazado_820853" data-name="Trazado 820853" d="M363.056,113.152a4.56,4.56,0,0,1-4.437-5.567,4.37,4.37,0,0,1,.426-1.138,4.572,4.572,0,0,1,6.162-1.866l0,0a4.562,4.562,0,0,1,2.283,5.041,4.634,4.634,0,0,1-.418,1.115,4.514,4.514,0,0,1-2.69,2.214A4.561,4.561,0,0,1,363.056,113.152Zm.014-7.473a2.935,2.935,0,0,0-2.588,1.542,2.752,2.752,0,0,0-.27.721,2.923,2.923,0,0,0,3.7,3.45,2.893,2.893,0,0,0,1.723-1.418,3,3,0,0,0,.27-.721,2.911,2.911,0,0,0-2.835-3.574Z" transform="translate(-309.753 -89.9)"/>
    </g>
  </g>
</svg>
