<svg xmlns="http://www.w3.org/2000/svg" xmlns:xlink="http://www.w3.org/1999/xlink" width="67" height="67" viewBox="0 0 67 67">
  <defs>
    <clipPath id="clip-path">
      <path id="path9156" d="M0-682.665H43v43H0Z" transform="translate(0 682.665)"/>
    </clipPath>
  </defs>
  <g id="Grupo_1073445" data-name="Grupo 1073445" transform="translate(-618.5 -2061)">
    <circle id="Elipse_9669" data-name="Elipse 9669" cx="33.5" cy="33.5" r="33.5" transform="translate(618.5 2061)" fill="#f0c52c"/>
    <g id="g9150" transform="translate(630.5 2755.666)">
      <g id="g9152" transform="translate(0 -682.665)">
        <g id="g9154" clip-path="url(#clip-path)">
          <g id="g9160" transform="translate(35.651 11.467)">
            <path id="path9162" d="M-3.8,0h-.006l-.25.147V4.472h3.79L-.059,4.3V3.741A3.752,3.752,0,0,0-3.8,0" transform="translate(4.056 0)" fill="#ffa90f"/>
          </g>
          <g id="g9164" transform="translate(10.877 0.63)">
            <path id="path9166" d="M-297.807-8.957l-.268-.6h-18.364a1.387,1.387,0,0,0-1.388,1.387v2.4l.577.473h15.4L-296.8-.39V5.866h3.6l.4-.292v-9.86l-.624-.276Z" transform="translate(317.826 9.559)" fill="#62ddfc"/>
          </g>
          <g id="g9168" transform="translate(10.877 0.63)">
            <path id="path9170" d="M-64.018-20.64a1.387,1.387,0,0,1,1.387-1.387h-4.3a1.387,1.387,0,0,0-1.387,1.387v2.4l.577.473h4.3l-.577-.473Z" transform="translate(68.321 22.028)" fill="#00d2fc"/>
          </g>
          <g id="g9172" transform="translate(3.351 11.467)">
            <path id="path9174" d="M-55.746,0h-.077a3.681,3.681,0,0,0-3.671,3.671V4.3l.363.1h3.667V.236Z" transform="translate(59.493)" fill="#ffa90f"/>
          </g>
          <g id="g9176" transform="translate(30.628 0.63)">
            <path id="path9178" d="M0,0V3.886A1.387,1.387,0,0,0,1.387,5.273H5.273Z" fill="#00d2fc"/>
          </g>
          <g id="g9180" transform="translate(7.098 4.412)">
            <path id="path9182" d="M-298.634-11.821l-.323-.795h-18.363a1.387,1.387,0,0,0-1.388,1.387v9.963l.544.544h22.986l1.494-.544V-7.343l-.778-.363Z" transform="translate(318.708 12.616)" fill="#dbedff"/>
          </g>
          <g id="g9184" transform="translate(7.098 4.412)">
            <path id="path9186" d="M-64.018-20.64a1.387,1.387,0,0,1,1.387-1.387h-4.3a1.387,1.387,0,0,0-1.387,1.387v9.963l.544.544h4.3l-.544-.544Z" transform="translate(68.321 22.028)" fill="#b5dcff"/>
          </g>
          <g id="g9188" transform="translate(26.849 4.412)">
            <path id="path9190" d="M0,0V3.886A1.387,1.387,0,0,0,1.387,5.273H5.273Z" fill="#b5dcff"/>
          </g>
          <g id="g9192" transform="translate(30.628 0.63)">
            <path id="path9194" d="M-33.732-57.8V-59.42L-36-61.688V-57.8a1.387,1.387,0,0,0,1.387,1.387h2.268A1.387,1.387,0,0,1-33.732-57.8" transform="translate(36 61.688)" fill="#00c2fb"/>
          </g>
          <g id="g9196" transform="translate(26.849 4.412)">
            <path id="path9198" d="M-33.732-57.8V-59.42L-36-61.688V-57.8a1.387,1.387,0,0,0,1.387,1.387h2.268A1.387,1.387,0,0,1-33.732-57.8" transform="translate(36 61.688)" fill="#8bcaff"/>
          </g>
          <g id="g9200" transform="translate(3.351 15.763)">
            <path id="path9202" d="M-539.971,0h-36.3V25.491a1.115,1.115,0,0,0,1.115,1.116h34.066a1.115,1.115,0,0,0,1.115-1.115Z" transform="translate(576.268)" fill="#ffd086"/>
          </g>
          <g id="g9204" transform="translate(3.351 15.763)">
            <path id="path9206" d="M-79.583-379.211V-404.7h-5.35v25.491a1.116,1.116,0,0,0,1.115,1.116h5.35a1.115,1.115,0,0,1-1.115-1.116" transform="translate(84.933 404.702)" fill="#ffc365"/>
          </g>
          <g id="g9208" transform="translate(21.5 26.878)">
            <path id="path9210" d="M-209.466,0h-13.367a.714.714,0,0,0-.714.714V11.235a.714.714,0,0,0,.714.714h13.367a.714.714,0,0,0,.714-.714V.714A.714.714,0,0,0-209.466,0" transform="translate(223.546)" fill="#dbedff"/>
          </g>
          <g id="g9212" transform="translate(21.5 26.878)">
            <path id="path9214" d="M-49.9-167.139V-177.66a.714.714,0,0,1,.714-.714h-3.354a.714.714,0,0,0-.714.714v10.521a.714.714,0,0,0,.714.714h3.354a.714.714,0,0,1-.714-.714" transform="translate(53.253 178.374)" fill="#b5dcff"/>
          </g>
          <g id="g9216" transform="translate(2.721 10.837)">
            <path id="path9218" d="M-65.193-10h.077a.63.63,0,0,1,.63.63v4.3a.63.63,0,0,1-.63.63h-3.747a.63.63,0,0,1-.63-.63V-5.7A4.305,4.305,0,0,1-65.193-10Zm-.553,4.3V-8.69A3.046,3.046,0,0,0-68.233-5.7Z" transform="translate(69.493 10)"/>
          </g>
          <g id="g9220" transform="translate(35.271 10.837)">
            <path id="path9222" d="M-9.461-10h.006A4.376,4.376,0,0,1-5.084-5.629v.554a.63.63,0,0,1-.63.63H-9.461a.63.63,0,0,1-.63-.63v-4.3A.63.63,0,0,1-9.461-10Zm3.116,4.3A3.117,3.117,0,0,0-8.831-8.677V-5.7Z" transform="translate(10.091 10)"/>
          </g>
          <g id="g9224" transform="translate(10.247 0)">
            <path id="path9226" d="M-30.011-10h18.364a.63.63,0,0,1,.445.184l5.273,5.273a.63.63,0,0,1,.184.445v9.86a.63.63,0,0,1-.63.63h-3.779a.63.63,0,0,1-.63-.63V-.054l-4.9-4.9H-31.4a.63.63,0,0,1-.63-.63v-2.4A2.02,2.02,0,0,1-30.011-10Zm18.1,1.26h-18.1a.758.758,0,0,0-.758.758v1.765h15.342a.63.63,0,0,1,.445.184L-9.707-.76a.63.63,0,0,1,.184.445V5.133H-7V-3.836Z" transform="translate(32.028 10)"/>
          </g>
          <g id="g9228" transform="translate(6.468 3.782)">
            <path id="path9230" d="M-321.557-10h18.364a.63.63,0,0,1,.445.184l5.273,5.273a.63.63,0,0,1,.184.445V1.98a.63.63,0,0,1-.63.63h-25.024a.63.63,0,0,1-.63-.63V-7.983A2.02,2.02,0,0,1-321.557-10Zm18.1,1.26h-18.1a.758.758,0,0,0-.758.758V1.35h23.764V-3.836Z" transform="translate(323.574 10)"/>
          </g>
          <g id="g9232" transform="translate(26.219 3.782)">
            <path id="path9234" d="M-9.37-10a.63.63,0,0,1,.446.185l5.273,5.273a.63.63,0,0,1,.137.686.63.63,0,0,1-.582.389H-7.983A2.02,2.02,0,0,1-10-5.485V-9.37a.63.63,0,0,1,.389-.582A.629.629,0,0,1-9.37-10Zm3.752,5.273L-8.74-7.85v2.365a.758.758,0,0,0,.758.758Z" transform="translate(10 10)"/>
          </g>
          <g id="g9236" transform="translate(29.998 0)">
            <path id="path9238" d="M-9.37-10a.63.63,0,0,1,.446.184l5.273,5.273a.63.63,0,0,1,.137.686.63.63,0,0,1-.582.389H-7.983A2.02,2.02,0,0,1-10-5.485V-9.37a.63.63,0,0,1,.389-.582A.629.629,0,0,1-9.37-10Zm3.752,5.273L-8.74-7.85v2.365a.758.758,0,0,0,.758.758Z" transform="translate(10 10)"/>
          </g>
          <g id="g9240" transform="translate(23.816 35.703)">
            <path id="path9242" d="M-.468-8.74h-8.9A.63.63,0,0,1-10-9.37.63.63,0,0,1-9.37-10h8.9a.63.63,0,0,1,.63.63A.63.63,0,0,1-.468-8.74Z" transform="translate(10 10)"/>
          </g>
          <g id="g9244" transform="translate(23.816 33.383)">
            <path id="path9246" d="M-.468-8.74h-8.9A.63.63,0,0,1-10-9.37.63.63,0,0,1-9.37-10h8.9a.63.63,0,0,1,.63.63A.63.63,0,0,1-.468-8.74Z" transform="translate(10 10)"/>
          </g>
          <g id="g9248" transform="translate(23.816 31.063)">
            <path id="path9250" d="M-.468-8.74h-8.9A.63.63,0,0,1-10-9.37.63.63,0,0,1-9.37-10h8.9a.63.63,0,0,1,.63.63A.63.63,0,0,1-.468-8.74Z" transform="translate(10 10)"/>
          </g>
          <g id="g9252" transform="translate(23.816 28.742)">
            <path id="path9254" d="M-.468-8.74h-8.9A.63.63,0,0,1-10-9.37.63.63,0,0,1-9.37-10h8.9a.63.63,0,0,1,.63.63A.63.63,0,0,1-.468-8.74Z" transform="translate(10 10)"/>
          </g>
          <g id="g9256" transform="translate(9.959 12.565)">
            <path id="path9258" d="M7.957-8.74H-9.37A.63.63,0,0,1-10-9.37.63.63,0,0,1-9.37-10H7.957a.63.63,0,0,1,.63.63A.63.63,0,0,1,7.957-8.74Z" transform="translate(10 10)"/>
          </g>
          <g id="g9260" transform="translate(9.959 10.245)">
            <path id="path9262" d="M5.213-8.74H-9.37A.63.63,0,0,1-10-9.37.63.63,0,0,1-9.37-10H5.213a.63.63,0,0,1,.63.63A.63.63,0,0,1,5.213-8.74Z" transform="translate(10 10)"/>
          </g>
          <g id="g9264" transform="translate(20.869 26.248)">
            <path id="path9266" d="M-89.4,3.209h-13.367a1.345,1.345,0,0,1-1.344-1.344V-8.656A1.345,1.345,0,0,1-102.763-10h5.214a.63.63,0,0,1,.63.63.63.63,0,0,1-.63.63h-5.214a.084.084,0,0,0-.084.084V1.865a.084.084,0,0,0,.084.084H-89.4a.084.084,0,0,0,.084-.084V-8.656A.084.084,0,0,0-89.4-8.74H-94.61a.63.63,0,0,1-.63-.63.63.63,0,0,1,.63-.63H-89.4a1.345,1.345,0,0,1,1.344,1.344V1.865A1.345,1.345,0,0,1-89.4,3.209Z" transform="translate(104.106 10)"/>
          </g>
          <g id="g9268" transform="translate(2.721 15.133)">
            <path id="path9270" d="M-550.456-159.17h-34.066a1.747,1.747,0,0,1-1.745-1.745v-25.491a.63.63,0,0,1,.63-.63h36.3a.63.63,0,0,1,.63.63v11.151a.63.63,0,0,1-.63.63.63.63,0,0,1-.63-.63v-10.521h-35.038v24.861a.486.486,0,0,0,.486.486h34.066a.486.486,0,0,0,.486-.486v-11.4a.63.63,0,0,1,.63-.63.63.63,0,0,1,.63.63v11.4A1.747,1.747,0,0,1-550.456-159.17Z" transform="translate(586.268 187.035)"/>
          </g>
        </g>
      </g>
    </g>
  </g>
</svg>
