<svg xmlns="http://www.w3.org/2000/svg" xmlns:xlink="http://www.w3.org/1999/xlink" width="85" height="85" viewBox="0 0 85 85">
  <defs>
    <clipPath id="clip-path">
      <path id="path2025" d="M0-682.665H67v67H0Z" transform="translate(0 682.665)"/>
    </clipPath>
  </defs>
  <g id="Grupo_1074078" data-name="Grupo 1074078" transform="translate(-200 -8171)">
    <g id="Grupo_1074077" data-name="Grupo 1074077">
      <rect id="Rectángulo_383027" data-name="Rectángulo 383027" width="85" height="85" rx="12" transform="translate(200 8171)" fill="#f0c52c"/>
      <g id="g2019" transform="translate(209 8862.665)">
        <g id="g2021" transform="translate(0 -682.665)">
          <g id="g2023" clip-path="url(#clip-path)">
            <g id="g2029" transform="translate(30.387 30.053)">
              <path id="path2031" d="M0-129.394l3.456,2.276a8.7,8.7,0,0,0,6.82,1.192h0l18.09,18.09,6.94-18.343L24.114-137.37h0a25.7,25.7,0,0,0-.736-6.106Z" transform="translate(0 143.476)" fill="#ffbf9e"/>
            </g>
            <g id="g2033" transform="translate(1.34 8.374)">
              <path id="path2035" d="M-509.336-130.808h0a3.138,3.138,0,0,0-4.439,0,3.139,3.139,0,0,0,0-4.439h0a3.139,3.139,0,0,0-4.439,0,3.139,3.139,0,0,0,0-4.439h0a3.139,3.139,0,0,0-4.439,0,3.139,3.139,0,0,0,0-4.439h0a3.138,3.138,0,0,0-4.439,0l-5.436,5.436-16.6,19.066-15.642,15.642,6.2,16.188,20.232-20.232a6.063,6.063,0,0,1,4.287-1.776h0a19.644,19.644,0,0,0,13.891-5.754l10.816-10.816a3.139,3.139,0,0,0,0-4.439" transform="translate(564.765 145.044)" fill="#ffd4be"/>
            </g>
            <g id="g2037" transform="translate(12.241 33.796)">
              <path id="path2039" d="M0-43.558l11.2,11.2L15.534-36.7q.2-.2.422-.383L4.74-48.3Z" transform="translate(0 48.299)" fill="#91def5"/>
            </g>
            <g id="g2041" transform="translate(42.878 37.177)">
              <path id="path2043" d="M-43.558-159.719l12.641-12.641-4.74-4.74L-48.3-164.459Z" transform="translate(48.299 177.101)" fill="#f6838d"/>
            </g>
            <g id="g2045" transform="translate(15.788 19.287)">
              <path id="path2047" d="M-51.752-92.539l-4.713-4.713a3.138,3.138,0,0,1,0-4.439h0a3.138,3.138,0,0,1,4.439,0l4.713,4.713a3.138,3.138,0,0,1,0,4.439h0a3.138,3.138,0,0,1-4.439,0" transform="translate(57.384 102.609)" fill="#ffbf9e"/>
            </g>
            <g id="g2049" transform="translate(20.227 14.848)">
              <path id="path2051" d="M-51.752-92.539l-4.713-4.713a3.138,3.138,0,0,1,0-4.439h0a3.138,3.138,0,0,1,4.439,0l4.713,4.713a3.138,3.138,0,0,1,0,4.439h0a3.138,3.138,0,0,1-4.439,0" transform="translate(57.384 102.609)" fill="#ffbf9e"/>
            </g>
            <g id="g2053" transform="translate(24.666 10.409)">
              <path id="path2055" d="M-51.752-92.539l-4.713-4.713a3.138,3.138,0,0,1,0-4.439h0a3.138,3.138,0,0,1,4.439,0l4.713,4.713a3.138,3.138,0,0,1,0,4.439h0a3.138,3.138,0,0,1-4.439,0" transform="translate(57.384 102.609)" fill="#ffbf9e"/>
            </g>
            <g id="g2057" transform="translate(13.285 25.66)">
              <path id="path2059" d="M-33.971-74.758l-2.778-2.778a3.139,3.139,0,0,1,0-4.439h0a3.139,3.139,0,0,1,4.439,0l2.778,2.778a3.138,3.138,0,0,1,0,4.439h0a3.138,3.138,0,0,1-4.439,0" transform="translate(37.668 82.894)" fill="#ffbf9e"/>
            </g>
            <g id="g2061" transform="translate(0.031 7.066)">
              <path id="path2063" d="M-381.856-363.987a1.307,1.307,0,0,0-1.232-.347,7.414,7.414,0,0,1-5.793-1.013l-.709-.467a20.794,20.794,0,0,0,13.025-6.061l6.531-6.531a11.777,11.777,0,0,1,.893,4.284L-380.566-362.7Zm-27.5-8.141,2.89-2.89,9.345,9.345-2.89,2.89Zm1.037-11.031a1.825,1.825,0,0,1,1.294-.535,1.824,1.824,0,0,1,1.293.534l2.779,2.779h0a1.818,1.818,0,0,1,.536,1.294,1.818,1.818,0,0,1-.536,1.294,1.818,1.818,0,0,1-1.294.536,1.817,1.817,0,0,1-1.293-.536h0l-2.778-2.778a1.832,1.832,0,0,1,0-2.588m2.5-6.374a1.818,1.818,0,0,1,1.294-.536,1.818,1.818,0,0,1,1.294.536l4.713,4.713h0a1.832,1.832,0,0,1,0,2.588,1.832,1.832,0,0,1-2.588,0h0l-4.713-4.713a1.832,1.832,0,0,1,0-2.588m4.439-4.439a1.824,1.824,0,0,1,1.294-.535,1.824,1.824,0,0,1,1.294.535l4.713,4.713a1.832,1.832,0,0,1,0,2.588,1.818,1.818,0,0,1-1.294.536,1.818,1.818,0,0,1-1.294-.536h0l-4.713-4.713a1.818,1.818,0,0,1-.536-1.294,1.818,1.818,0,0,1,.536-1.294m4.439-4.439a1.818,1.818,0,0,1,1.294-.536,1.817,1.817,0,0,1,1.294.536l4.713,4.713a1.818,1.818,0,0,1,.536,1.294,1.818,1.818,0,0,1-.536,1.294,1.818,1.818,0,0,1-1.294.536,1.818,1.818,0,0,1-1.294-.536h0l-4.713-4.713a1.818,1.818,0,0,1-.536-1.294,1.818,1.818,0,0,1,.536-1.294m13.429-2.035a1.818,1.818,0,0,1,1.294-.536,1.818,1.818,0,0,1,1.294.536,1.818,1.818,0,0,1,.536,1.294,1.817,1.817,0,0,1-.536,1.294l-2.876,2.876a1.309,1.309,0,0,0,0,1.851,1.309,1.309,0,0,0,1.851,0l2.876-2.876a1.818,1.818,0,0,1,1.294-.536,1.817,1.817,0,0,1,1.294.536,1.832,1.832,0,0,1,0,2.588l-4.391,4.391a1.309,1.309,0,0,0,0,1.851,1.3,1.3,0,0,0,.925.383,1.3,1.3,0,0,0,.925-.383l4.391-4.391a1.818,1.818,0,0,1,1.294-.536,1.818,1.818,0,0,1,1.294.536,1.818,1.818,0,0,1,.536,1.294,1.818,1.818,0,0,1-.536,1.294l-4.391,4.391a1.309,1.309,0,0,0,0,1.851,1.3,1.3,0,0,0,.925.383,1.3,1.3,0,0,0,.925-.383l4.391-4.391a1.832,1.832,0,0,1,2.588,0,1.832,1.832,0,0,1,0,2.588l-10.816,10.816a18.215,18.215,0,0,1-12.965,5.371,7.327,7.327,0,0,0-3.714,1l-7.574-7.574a4.432,4.432,0,0,0,1.572-1.016,4.418,4.418,0,0,0,1.3-3.138,4.434,4.434,0,0,0,3.136-1.3,4.433,4.433,0,0,0,1.3-3.136,4.418,4.418,0,0,0,3.139-1.3,4.434,4.434,0,0,0,1.3-3.136,4.418,4.418,0,0,0,3.138-1.3,4.418,4.418,0,0,0,1.3-3.145,4.419,4.419,0,0,0-1.3-3.145l-.31-.309Zm16.983,26.511a14.393,14.393,0,0,0-1.541-6.443l2.313-2.313a4.452,4.452,0,0,0,0-6.289,4.433,4.433,0,0,0-3.136-1.3,4.418,4.418,0,0,0-1.3-3.138,4.433,4.433,0,0,0-3.138-1.3,4.434,4.434,0,0,0-1.3-3.139,4.419,4.419,0,0,0-3.136-1.3,4.419,4.419,0,0,0-1.3-3.136,4.418,4.418,0,0,0-3.145-1.3,4.417,4.417,0,0,0-3.145,1.3l-4.587,4.587-2.553-2.552a4.418,4.418,0,0,0-3.145-1.3,4.418,4.418,0,0,0-3.145,1.3,4.418,4.418,0,0,0-1.3,3.138,4.433,4.433,0,0,0-3.136,1.3,4.418,4.418,0,0,0-1.3,3.136,4.418,4.418,0,0,0-3.136,1.3,4.454,4.454,0,0,0-.747,5.3,4.419,4.419,0,0,0-1.757,1.079,4.452,4.452,0,0,0,0,6.289l1.852,1.852-14.716,14.716a1.309,1.309,0,0,0,0,1.851,1.3,1.3,0,0,0,.925.383,1.3,1.3,0,0,0,.925-.383l9.976-9.976,9.345,9.345-14.968,14.968a1.309,1.309,0,0,0,0,1.851,1.305,1.305,0,0,0,.925.383,1.305,1.305,0,0,0,.925-.383l20.232-20.232a4.758,4.758,0,0,1,1.256-.9l3.166,2.086a10.043,10.043,0,0,0,7.109,1.52l17.6,17.6a1.3,1.3,0,0,0,.925.383,1.3,1.3,0,0,0,.925-.383,1.308,1.308,0,0,0,0-1.851l-10.209-10.209,1.234-1.234a1.309,1.309,0,0,0,0-1.851,1.309,1.309,0,0,0-1.851,0l-1.234,1.234-2.89-2.89,10.791-10.791,2.89,2.89-1.231,1.231a1.309,1.309,0,0,0,0,1.851,1.3,1.3,0,0,0,.925.383,1.3,1.3,0,0,0,.925-.383l1.231-1.232,4.508,4.508a1.3,1.3,0,0,0,.925.383,1.3,1.3,0,0,0,.925-.383,1.309,1.309,0,0,0,0-1.851Z" transform="translate(423.412 403.599)"/>
            </g>
            <g id="g2065" transform="translate(52.63 46.929)">
              <path id="path2067" d="M-3.523-3.523a1.316,1.316,0,0,0-.383.925,1.319,1.319,0,0,0,.383.925,1.319,1.319,0,0,0,.925.383,1.316,1.316,0,0,0,.925-.383A1.319,1.319,0,0,0-1.289-2.6a1.316,1.316,0,0,0-.383-.925A1.319,1.319,0,0,0-2.6-3.907a1.319,1.319,0,0,0-.925.383" transform="translate(3.907 3.907)"/>
            </g>
            <g id="g2069" transform="translate(2.298 2.297)">
              <path id="path2071" d="M-60.124-77.13a1.3,1.3,0,0,0,.925.383,1.3,1.3,0,0,0,.925-.383,1.309,1.309,0,0,0,0-1.851l-6.16-6.16a1.309,1.309,0,0,0-1.851,0,1.309,1.309,0,0,0,0,1.851Z" transform="translate(66.667 85.523)"/>
            </g>
            <g id="g2073" transform="translate(14.656 -0.001)">
              <path id="path2075" d="M-12.025-65.554a1.309,1.309,0,0,0,1.309-1.309v-4.517a1.309,1.309,0,0,0-1.309-1.309,1.309,1.309,0,0,0-1.309,1.309v4.517a1.309,1.309,0,0,0,1.309,1.309" transform="translate(13.333 72.688)"/>
            </g>
            <g id="g2077" transform="translate(0 14.656)">
              <path id="path2079" d="M-12.025-24.049h4.517A1.309,1.309,0,0,0-6.2-25.358a1.309,1.309,0,0,0-1.309-1.309h-4.517a1.309,1.309,0,0,0-1.309,1.309,1.309,1.309,0,0,0,1.309,1.309" transform="translate(13.333 26.667)"/>
            </g>
            <g id="g2081" transform="translate(55.926 2.297)">
              <path id="path2083" d="M-12.025-80.652a1.3,1.3,0,0,0,.925-.383l6.16-6.16a1.309,1.309,0,0,0,0-1.851,1.309,1.309,0,0,0-1.851,0l-6.16,6.16a1.308,1.308,0,0,0,0,1.851,1.3,1.3,0,0,0,.925.383" transform="translate(13.334 89.429)"/>
            </g>
            <g id="g2085" transform="translate(49.727 -0.001)">
              <path id="path2087" d="M-12.025-65.554a1.309,1.309,0,0,0,1.309-1.309v-4.517a1.309,1.309,0,0,0-1.309-1.309,1.309,1.309,0,0,0-1.309,1.309v4.517a1.309,1.309,0,0,0,1.309,1.309" transform="translate(13.333 72.688)"/>
            </g>
            <g id="g2089" transform="translate(59.867 14.656)">
              <path id="path2091" d="M0-12.025a1.309,1.309,0,0,0,1.309,1.309H5.825a1.309,1.309,0,0,0,1.309-1.309,1.309,1.309,0,0,0-1.309-1.309H1.309A1.309,1.309,0,0,0,0-12.025" transform="translate(0 13.333)"/>
            </g>
          </g>
        </g>
      </g>
    </g>
  </g>
</svg>
