<svg xmlns="http://www.w3.org/2000/svg" width="67" height="67" viewBox="0 0 67 67">
  <g id="Grupo_1073455" data-name="Grupo 1073455" transform="translate(-1038.5 -2061)">
    <circle id="Elipse_9669" data-name="Elipse 9669" cx="33.5" cy="33.5" r="33.5" transform="translate(1038.5 2061)" fill="#f0c52c"/>
    <g id="estructura" transform="translate(1036.8 2070)">
      <g id="Grupo_1073453" data-name="Grupo 1073453" transform="translate(12.411 0.68)">
        <g id="Grupo_1073449" data-name="Grupo 1073449" transform="translate(5.666)">
          <g id="Grupo_1073448" data-name="Grupo 1073448">
            <g id="Grupo_1073446" data-name="Grupo 1073446" transform="translate(0 0.304)">
              <path id="Trazado_823593" data-name="Trazado 823593" d="M80.412,35.887a1.422,1.422,0,0,1-1.422-1.422V16.172l.948-4.373a1.422,1.422,0,0,1,1.422-1.422l28.232.293c.785,0,2.08.636,2.08,1.046V32.493c0,1.16-1.407,3.114-2.192,3.114l-.86.28H80.412Z" transform="translate(-78.99 -10.378)" fill="#f9f7f8"/>
            </g>
            <path id="Trazado_823594" data-name="Trazado 823594" d="M112.245,8.94v4.022l-2.524.3-30.731.009V8.6a1.421,1.421,0,0,1,1.422-1.422h27.954l2.214.1A1.875,1.875,0,0,1,112.245,8.94Z" transform="translate(-78.99 -7.175)" fill="#8abbd5"/>
            <g id="Grupo_1073447" data-name="Grupo 1073447" transform="translate(29.376 0)">
              <path id="Trazado_823595" data-name="Trazado 823595" d="M394.46,62.76l1.16.821v18.3a1.422,1.422,0,0,1-1.422,1.422H391.62l.3-.177a1.637,1.637,0,0,0,.8-1.408V63.581Z" transform="translate(-391.367 -57.492)" fill="#efedef"/>
              <path id="Trazado_823596" data-name="Trazado 823596" d="M393.2,8.6v4.667h-2.9V9.018a1.862,1.862,0,0,0-.977-1.638l-.379-.2h2.832A1.421,1.421,0,0,1,393.2,8.6Z" transform="translate(-388.949 -7.175)" fill="#6cabca"/>
            </g>
          </g>
        </g>
        <g id="Grupo_1073450" data-name="Grupo 1073450" transform="translate(0 32.642)">
          <path id="Trazado_823597" data-name="Trazado 823597" d="M30.344,352.225v13.153a.435.435,0,0,1-.436.435l-1.327.19h-3.8a.854.854,0,0,1-.36-.08c-.095-.042-.159-.286-.233-.36l-4.582-4.6c-.075-.075-.291-.094-.332-.188a.857.857,0,0,1-.079-.361v-8.381a.435.435,0,0,1,.435-.436h8.946l1.327.19A.436.436,0,0,1,30.344,352.225Z" transform="translate(-19.2 -351.6)" fill="#fce459"/>
          <path id="Trazado_823598" data-name="Trazado 823598" d="M117.894,351.6h-1.706a.4.4,0,0,1,.39.436v13.533a.4.4,0,0,1-.39.435h1.706a.435.435,0,0,0,.436-.435V352.036A.436.436,0,0,0,117.894,351.6Z" transform="translate(-106.996 -351.6)" fill="#f9d608"/>
          <path id="Trazado_823599" data-name="Trazado 823599" d="M25.177,448.863v4.723a.839.839,0,0,1-.255-.175l-4.716-4.716a.848.848,0,0,1-.176-.255h4.724A.423.423,0,0,1,25.177,448.863Z" transform="translate(-19.951 -439.262)" fill="#f9d608"/>
        </g>
        <g id="Grupo_1073451" data-name="Grupo 1073451" transform="translate(16.775 32.642)">
          <path id="Trazado_823600" data-name="Trazado 823600" d="M207.35,352.225v13.153a.435.435,0,0,1-.436.435l-1.327.19h-3.8a.854.854,0,0,1-.36-.08c-.095-.042-.159-.286-.233-.36l-4.582-4.6c-.075-.075-.291-.094-.332-.188a.857.857,0,0,1-.079-.361v-8.381a.435.435,0,0,1,.435-.436h8.946l1.327.19A.436.436,0,0,1,207.35,352.225Z" transform="translate(-196.206 -351.6)" fill="#fce459"/>
          <path id="Trazado_823601" data-name="Trazado 823601" d="M294.9,351.6h-1.706a.4.4,0,0,1,.39.436v13.533a.4.4,0,0,1-.39.435H294.9a.435.435,0,0,0,.436-.435V352.036A.436.436,0,0,0,294.9,351.6Z" transform="translate(-284.001 -351.6)" fill="#f9d608"/>
          <path id="Trazado_823602" data-name="Trazado 823602" d="M202.182,448.863v4.723a.839.839,0,0,1-.255-.175l-4.716-4.716a.848.848,0,0,1-.176-.255h4.724A.423.423,0,0,1,202.182,448.863Z" transform="translate(-196.956 -439.262)" fill="#f9d608"/>
        </g>
        <g id="Grupo_1073452" data-name="Grupo 1073452" transform="translate(33.628 32.642)">
          <path id="Trazado_823603" data-name="Trazado 823603" d="M385.177,352.225v13.153a.435.435,0,0,1-.436.435l-1.327.19h-3.8a.854.854,0,0,1-.36-.08c-.095-.042-.159-.286-.233-.36l-4.582-4.6c-.075-.075-.291-.094-.332-.188a.857.857,0,0,1-.079-.361v-8.381a.435.435,0,0,1,.435-.436h8.946l1.327.19A.436.436,0,0,1,385.177,352.225Z" transform="translate(-374.033 -351.6)" fill="#fce459"/>
          <path id="Trazado_823604" data-name="Trazado 823604" d="M472.726,351.6H471.02a.4.4,0,0,1,.39.436v13.533a.4.4,0,0,1-.39.435h1.706a.435.435,0,0,0,.436-.435V352.036A.436.436,0,0,0,472.726,351.6Z" transform="translate(-461.828 -351.6)" fill="#f9d608"/>
          <path id="Trazado_823605" data-name="Trazado 823605" d="M380.009,448.863v4.723a.839.839,0,0,1-.255-.175l-4.716-4.716a.848.848,0,0,1-.176-.255h4.724A.423.423,0,0,1,380.009,448.863Z" transform="translate(-374.783 -439.262)" fill="#f9d608"/>
        </g>
      </g>
      <g id="Grupo_1073454" data-name="Grupo 1073454" transform="translate(11.7 0)">
        <path id="Trazado_823606" data-name="Trazado 823606" d="M104.205,27.2H73.747a2.26,2.26,0,0,1-2.257-2.257V2.257A2.26,2.26,0,0,1,73.747,0h3.844a.711.711,0,0,1,0,1.422H73.747a.837.837,0,0,0-.836.836V24.946a.837.837,0,0,0,.836.836h30.458a.837.837,0,0,0,.836-.836V18.971a.711.711,0,1,1,1.422,0v5.975A2.26,2.26,0,0,1,104.205,27.2Zm1.546-10.839a.711.711,0,0,1-.706-.638L103.5.784A.711.711,0,0,1,104.205,0a2.26,2.26,0,0,1,2.257,2.257v13.4a.711.711,0,0,1-.674.71Z" transform="translate(-65.824 0)"/>
        <path id="Línea_209" data-name="Línea 209" d="M26.247-6.078H-6.789A.711.711,0,0,1-7.5-6.789.711.711,0,0,1-6.789-7.5H26.247a.711.711,0,0,1,.711.711A.711.711,0,0,1,26.247-6.078Z" transform="translate(13.424 13.537)"/>
        <path id="Línea_210" data-name="Línea 210" transform="translate(16.129 3.729)"/>
        <path id="Línea_211" data-name="Línea 211" transform="translate(12.892 3.729)"/>
        <path id="Línea_212" data-name="Línea 212" transform="translate(9.656 3.729)"/>
        <path id="Trazado_823607" data-name="Trazado 823607" d="M173.557,142.469a.709.709,0,0,1-.5-.208l-2.906-2.906a.711.711,0,0,1,0-1.005l2.906-2.906a.711.711,0,1,1,1.005,1.005l-2.4,2.4,2.4,2.4a.711.711,0,0,1-.5,1.213Z" transform="translate(-154.944 -122.419)"/>
        <path id="Trazado_823608" data-name="Trazado 823608" d="M297.111,142.469a.711.711,0,0,1-.5-1.213l2.4-2.4-2.4-2.4a.711.711,0,1,1,1.005-1.005l2.906,2.906a.711.711,0,0,1,0,1.005l-2.906,2.906A.709.709,0,0,1,297.111,142.469Z" transform="translate(-269.418 -122.419)"/>
        <path id="Línea_213" data-name="Línea 213" d="M-6.791,1.158a.709.709,0,0,1-.241-.042A.711.711,0,0,1-7.46.205l2.613-7.238a.711.711,0,0,1,.91-.427.711.711,0,0,1,.427.91L-6.122.688A.711.711,0,0,1-6.791,1.158Z" transform="translate(28.637 19.605)"/>
        <path id="Trazado_823609" data-name="Trazado 823609" d="M196.233,447.081a.711.711,0,0,1-.711-.711v-4.012h-4.349a.711.711,0,0,1,0-1.422h5.06a.711.711,0,0,1,.711.711v4.722A.711.711,0,0,1,196.233,447.081Z" transform="translate(-173.521 -399.148)"/>
        <path id="Trazado_823610" data-name="Trazado 823610" d="M200.314,359.927H195a1.57,1.57,0,0,1-1.118-.464l-4.716-4.716a1.571,1.571,0,0,1-.463-1.118v-8.381a1.147,1.147,0,0,1,1.146-1.146h10.463a1.147,1.147,0,0,1,1.146,1.146v13.533A1.147,1.147,0,0,1,200.314,359.927Zm-10.188-14.4v8.106a.161.161,0,0,0,.047.113l4.716,4.716a.158.158,0,0,0,.113.047h5.036V345.524Z" transform="translate(-171.93 -311.491)"/>
        <path id="Trazado_823611" data-name="Trazado 823611" d="M373.243,448a.711.711,0,0,1-.711-.711v-4.012h-4.349a.711.711,0,1,1,0-1.422h5.06a.711.711,0,0,1,.711.711v4.722A.711.711,0,0,1,373.243,448Z" transform="translate(-333.756 -399.98)"/>
        <path id="Trazado_823612" data-name="Trazado 823612" d="M377.32,360.845h-5.312a1.592,1.592,0,0,1-1.118-.463l-4.716-4.716a1.572,1.572,0,0,1-.464-1.119v-8.382a1.148,1.148,0,0,1,1.147-1.146H377.32a1.147,1.147,0,0,1,1.146,1.146v7.084a.711.711,0,0,1-1.422,0v-6.808h-9.912v8.106a.16.16,0,0,0,.048.113l4.716,4.716a.16.16,0,0,0,.112.047h5.036v-2.856a.711.711,0,0,1,1.422,0V359.7A1.147,1.147,0,0,1,377.32,360.845Z" transform="translate(-332.16 -312.322)"/>
        <path id="Trazado_823613" data-name="Trazado 823613" d="M19.224,447.081a.711.711,0,0,1-.711-.711v-4.012H14.165a.711.711,0,0,1,0-1.422h5.059a.711.711,0,0,1,.711.711v4.722A.711.711,0,0,1,19.224,447.081Z" transform="translate(-13.288 -399.148)"/>
        <path id="Trazado_823614" data-name="Trazado 823614" d="M23.309,359.925H18a1.592,1.592,0,0,1-1.118-.463l-4.716-4.716a1.572,1.572,0,0,1-.463-1.119v-8.381a1.148,1.148,0,0,1,1.146-1.147H23.309a1.148,1.148,0,0,1,1.147,1.147v2.3a.711.711,0,0,1-1.422,0v-2.023H13.122v8.106a.159.159,0,0,0,.047.113l4.716,4.716A.16.16,0,0,0,18,358.5h5.037v-7.642a.711.711,0,0,1,1.422,0v7.917A1.148,1.148,0,0,1,23.309,359.925Z" transform="translate(-11.7 -311.489)"/>
        <path id="Línea_214" data-name="Línea 214" d="M-6.789.121A.711.711,0,0,1-7.5-.59v-6.2A.711.711,0,0,1-6.789-7.5a.711.711,0,0,1,.711.711v6.2A.711.711,0,0,1-6.789.121Z" transform="translate(29.942 33.679)"/>
        <path id="Trazado_823615" data-name="Trazado 823615" d="M105.752,312.676a.711.711,0,0,1-.711-.711v-2.031a.441.441,0,0,0-.44-.44H73.352a.441.441,0,0,0-.44.44v1.971a.711.711,0,0,1-1.422,0v-1.971a1.864,1.864,0,0,1,1.862-1.862H104.6a1.864,1.864,0,0,1,1.862,1.862v2.031A.711.711,0,0,1,105.752,312.676Z" transform="translate(-65.824 -278.876)"/>
        <path id="Trazado_823616" data-name="Trazado 823616" d="M37.857,379.383a.711.711,0,0,1-.5-1.213l1.235-1.235L37.354,375.7a.711.711,0,1,1,1.005-1.005l1.737,1.737a.711.711,0,0,1,0,1.005l-1.737,1.737A.709.709,0,0,1,37.857,379.383Z" transform="translate(-34.734 -338.996)"/>
        <path id="Línea_215" data-name="Línea 215" d="M-4.507-6.078H-6.789A.711.711,0,0,1-7.5-6.789.711.711,0,0,1-6.789-7.5h2.283a.711.711,0,0,1,.711.711A.711.711,0,0,1-4.507-6.078Z" transform="translate(14.089 44.728)"/>
        <path id="Trazado_823617" data-name="Trazado 823617" d="M215.13,379.383a.711.711,0,0,1-.5-1.213l1.235-1.235-1.235-1.235a.711.711,0,1,1,1.005-1.005l1.737,1.737a.711.711,0,0,1,0,1.005l-1.737,1.737A.709.709,0,0,1,215.13,379.383Z" transform="translate(-195.207 -338.996)"/>
        <path id="Línea_216" data-name="Línea 216" d="M-4.507-6.078H-6.789A.711.711,0,0,1-7.5-6.789.711.711,0,0,1-6.789-7.5h2.283a.711.711,0,0,1,.711.711A.711.711,0,0,1-4.507-6.078Z" transform="translate(30.889 44.728)"/>
        <path id="Trazado_823618" data-name="Trazado 823618" d="M392.14,379.383a.711.711,0,0,1-.5-1.213l1.235-1.235-1.235-1.235a.711.711,0,0,1,1.005-1.005l1.737,1.737a.711.711,0,0,1,0,1.005l-1.737,1.737A.709.709,0,0,1,392.14,379.383Z" transform="translate(-355.441 -338.996)"/>
        <path id="Línea_217" data-name="Línea 217" d="M-4.507-6.078H-6.789A.711.711,0,0,1-7.5-6.789.711.711,0,0,1-6.789-7.5h2.283a.711.711,0,0,1,.711.711A.711.711,0,0,1-4.507-6.078Z" transform="translate(47.665 44.728)"/>
      </g>
    </g>
  </g>
</svg>
