<svg xmlns="http://www.w3.org/2000/svg" width="505" height="237" viewBox="0 0 505 237">
  <g id="Grupo_1074000" data-name="Grupo 1074000" transform="translate(-822 -10820)">
    <path id="Trazado_872953" data-name="Trazado 872953" d="M5,0H500a5,5,0,0,1,5,5V232a5,5,0,0,1-5,5H5a5,5,0,0,1-5-5V5A5,5,0,0,1,5,0Z" transform="translate(822 10820)" fill="#debefb"/>
    <g id="Grupo_1073999" data-name="Grupo 1073999" transform="translate(847 10834.999)">
      <path id="Trazado_824935" data-name="Trazado 824935" d="M402.445,55.766,397.9,53.742A37.2,37.2,0,0,0,383.257,5.773C365.02-5.307,340.87.042,329.424,17.7a37.043,37.043,0,0,0-5.375,13.431,79.23,79.23,0,0,0-48.8-16.652c-43.01,0-78,33.878-78,75.518a74.5,74.5,0,0,0,28.567,58.372H27.114v17.966H362.552l.124,6.53a3.966,3.966,0,0,0,6,3.215l14.456-8.426,14.456-8.427a3.774,3.774,0,0,0-.125-6.64L382.7,144.678l-14.766-7.907a3.959,3.959,0,0,0-5.878,3.427l.155,8.171h-37.53A74.5,74.5,0,0,0,353.249,90a73.707,73.707,0,0,0-17.506-47.615,25.436,25.436,0,0,1,3.741-18.57c7.966-12.288,24.769-16.01,37.46-8.3a25.883,25.883,0,0,1,10.161,33.431l-4.789-2.13a2.5,2.5,0,0,0-3.553,2.438l1.027,10.676L380.818,70.6a2.528,2.528,0,0,0,3.958,1.76l9.037-6.2,9.036-6.2a2.4,2.4,0,0,0-.4-4.2m-127.2,91.782C242.47,147.547,215.8,121.73,215.8,90s26.666-57.552,59.444-57.552S334.692,58.263,334.692,90s-26.666,57.551-59.444,57.551" transform="translate(-7.628 0.001)" fill="#a854f3"/>
      <path id="Trazado_824936" data-name="Trazado 824936" d="M355.352,82.8l1.342-1.53-.782-2.952-1.92-.687-2.161.334a15.052,15.052,0,0,0-3.784-4.941l.985-2.277-.132-2.032-2.64-1.534-1.843.872L342.9,70.114a15.041,15.041,0,0,0-5.743-.722l-.78-1.968-1.53-1.342-2.952.782-.687,1.921.326,2.109a15.051,15.051,0,0,0-4.768,3.659l-1.953-.835-1.982.161-1.534,2.64.824,1.815,1.732,1.278a15.053,15.053,0,0,0-.775,5.887l-2.712,1.075-1.848,2.107,1.288,2.374,1.92.687,2.936-.453a15.04,15.04,0,0,0,3.358,4.417l-1.057,2.445.132,2.032,2.64,1.534,1.844-.872,1.536-2.1a15.061,15.061,0,0,0,5.334.873l.764,1.927,1.53,1.342,2.951-.782.687-1.921-.275-1.777a15.05,15.05,0,0,0,5.434-3.929l1.676.717,1.983-.161,1.534-2.64-.824-1.816-1.457-1.075a15.051,15.051,0,0,0,.831-5.892Zm-8.182,5.675a9.645,9.645,0,1,1-3.01-11.36,9.649,9.649,0,0,1,3.01,11.36" transform="translate(-82.83 -18.591)" fill="#a854f3"/>
      <path id="Trazado_824937" data-name="Trazado 824937" d="M373.638,96.5l1.189.811a10.2,10.2,0,0,1,3.649-1.808l.06-1.445.709-1.187,2.064-.133.842,1.093.26,1.41a10.188,10.188,0,0,1,3.723,1.232l1.275-1.174,1.34-.338,1.554,1.365-.178,1.368-.953,1.385a10.2,10.2,0,0,1,1.868,3.781l1.48.061,1.187.709.133,2.064-1.093.842-1.481.273a10.188,10.188,0,0,1-1.324,3.808l.828.906.31,1.314-1.365,1.554-1.339-.152-1.021-.7a10.2,10.2,0,0,1-4.127,1.9l-.051,1.217-.708,1.187-2.065.133-.841-1.093-.255-1.381a10.2,10.2,0,0,1-3.432-1.28l-1.3,1.193-1.34.338-1.554-1.365.177-1.368,1.023-1.487a10.18,10.18,0,0,1-1.653-3.376l-2.012-.083-1.186-.709-.545-1.747,1.5-1.158,1.944-.359a10.2,10.2,0,0,1,1.286-3.811l-.984-1.077-.309-1.315,1.365-1.554Zm3.95,12.038a4.661,4.661,0,1,0-.379-5.873,4.662,4.662,0,0,0,.379,5.873" transform="translate(-95.786 -26.09)" fill="#a854f3"/>
      <path id="Trazado_824938" data-name="Trazado 824938" d="M132.736,72.066A25.171,25.171,0,1,1,107.565,46.9a25.171,25.171,0,0,1,25.171,25.171" transform="translate(-23.181 -13.192)" fill="#3a1d71"/>
      <path id="Trazado_824939" data-name="Trazado 824939" d="M123.769,90.124h-21.6a.565.565,0,0,1-.566-.566v-21.6a.566.566,0,0,1,.566-.566h21.6a.566.566,0,0,1,.566.566v21.6a.565.565,0,0,1-.566.566" transform="translate(-26.501 -18.96)" fill="#fff"/>
      <path id="Trazado_824940" data-name="Trazado 824940" d="M102.17,67.393h21.6a.566.566,0,0,1,.566.566v5.414a.565.565,0,0,1-.566.566h-21.6a.565.565,0,0,1-.566-.566V67.959a.566.566,0,0,1,.566-.566" transform="translate(-26.501 -18.96)" fill="#a854f3"/>
      <path id="Trazado_824941" data-name="Trazado 824941" d="M109.358,84.455h-2.467a.566.566,0,0,1-.566-.566V81.422a.566.566,0,0,1,.566-.566h2.467a.566.566,0,0,1,.566.566v2.467a.566.566,0,0,1-.566.566" transform="translate(-29.914 -22.747)" fill="#a854f3"/>
      <path id="Trazado_824942" data-name="Trazado 824942" d="M118.307,84.455H115.84a.566.566,0,0,1-.566-.566V81.422a.566.566,0,0,1,.566-.566h2.467a.566.566,0,0,1,.566.566v2.467a.566.566,0,0,1-.566.566" transform="translate(-32.431 -22.747)" fill="#a854f3"/>
      <path id="Trazado_824943" data-name="Trazado 824943" d="M127.316,84.455h-2.467a.566.566,0,0,1-.566-.566V81.422a.566.566,0,0,1,.566-.566h2.467a.566.566,0,0,1,.566.566v2.467a.566.566,0,0,1-.566.566" transform="translate(-32.527 -22.747)" fill="#a854f3"/>
      <path id="Trazado_824944" data-name="Trazado 824944" d="M109.328,93.393h-2.467a.565.565,0,0,1-.566-.566V90.361a.565.565,0,0,1,.566-.566h2.467a.565.565,0,0,1,.566.566v2.467a.565.565,0,0,1-.566.566" transform="translate(-29.905 -25.262)" fill="#a854f3"/>
      <path id="Trazado_824945" data-name="Trazado 824945" d="M118.277,93.393H115.81a.565.565,0,0,1-.566-.566V90.361a.565.565,0,0,1,.566-.566h2.467a.565.565,0,0,1,.566.566v2.467a.565.565,0,0,1-.566.566" transform="translate(-32.423 -25.262)" fill="#a854f3"/>
      <path id="Trazado_824946" data-name="Trazado 824946" d="M127.286,93.393h-2.467a.565.565,0,0,1-.566-.566V90.361a.565.565,0,0,1,.566-.566h2.467a.565.565,0,0,1,.566.566v2.467a.565.565,0,0,1-.566.566" transform="translate(-32.52 -25.262)" fill="#a854f3"/>
      <line id="Línea_260" data-name="Línea 260" y2="4.119" transform="translate(78.284 46.587)" fill="none" stroke="#fff" stroke-linecap="round" stroke-miterlimit="10" stroke-width="1"/>
      <line id="Línea_261" data-name="Línea 261" y2="4.119" transform="translate(82.286 46.582)" fill="none" stroke="#fff" stroke-linecap="round" stroke-miterlimit="10" stroke-width="1"/>
      <line id="Línea_262" data-name="Línea 262" y2="4.119" transform="translate(86.482 46.589)" fill="none" stroke="#fff" stroke-linecap="round" stroke-miterlimit="10" stroke-width="1"/>
      <line id="Línea_263" data-name="Línea 263" y2="4.119" transform="translate(92.934 46.585)" fill="none" stroke="#fff" stroke-linecap="round" stroke-miterlimit="10" stroke-width="1"/>
      <path id="Trazado_824947" data-name="Trazado 824947" d="M53.02,205.542a26.51,26.51,0,1,1-26.51-26.51,26.51,26.51,0,0,1,26.51,26.51" transform="translate(0 -50.368)" fill="#fff"/>
      <path id="Trazado_824948" data-name="Trazado 824948" d="M52.2,206.066A25.171,25.171,0,1,1,27.034,180.9,25.171,25.171,0,0,1,52.2,206.066" transform="translate(-0.524 -50.893)" fill="#3a1d71"/>
      <path id="Trazado_824949" data-name="Trazado 824949" d="M44.022,217.65,32.3,224.418,20.575,217.65V204.112L32.3,197.344l11.723,6.768Z" transform="translate(-5.789 -55.521)" fill="#fff"/>
      <path id="Trazado_824950" data-name="Trazado 824950" d="M20.575,206.762,32.3,212.935l11.723-6.173" transform="translate(-5.789 -58.17)" fill="none" stroke="#a854f3" stroke-miterlimit="10" stroke-width="0.5"/>
      <line id="Línea_264" data-name="Línea 264" y1="14.133" transform="translate(26.51 154.765)" fill="none" stroke="#a854f3" stroke-miterlimit="10" stroke-width="0.5"/>
      <path id="Trazado_824951" data-name="Trazado 824951" d="M214.15,205.542a26.51,26.51,0,1,1-26.51-26.51,26.51,26.51,0,0,1,26.51,26.51" transform="translate(-41.77 -50.368)" fill="#fff"/>
      <path id="Trazado_824952" data-name="Trazado 824952" d="M213.335,206.066A25.171,25.171,0,1,1,188.164,180.9a25.171,25.171,0,0,1,25.171,25.171" transform="translate(-42.278 -50.893)" fill="#3a1d71"/>
      <path id="Trazado_824953" data-name="Trazado 824953" d="M202.256,223.828h-15.6a1.3,1.3,0,0,1-1.3-1.3V200a1.3,1.3,0,0,1,1.3-1.3H198.63l4.928,5.19v18.641a1.3,1.3,0,0,1-1.3,1.3" transform="translate(-48.385 -55.9)" fill="#fff"/>
      <path id="Trazado_824954" data-name="Trazado 824954" d="M203.92,202.786l-.093-4.091,4.929,5.19-3.65.045a1.171,1.171,0,0,1-1.185-1.144" transform="translate(-53.334 -55.9)" fill="#a854f3"/>
      <path id="Trazado_824955" data-name="Trazado 824955" d="M200.464,211.5h-9.337a1.01,1.01,0,0,1,0-2.02h9.337a1.01,1.01,0,0,1,0,2.02" transform="translate(-49.691 -58.935)" fill="#a854f3"/>
      <path id="Trazado_824956" data-name="Trazado 824956" d="M200.464,218.2h-9.337a1.01,1.01,0,0,1,0-2.02h9.337a1.01,1.01,0,0,1,0,2.02" transform="translate(-49.691 -60.819)" fill="#a854f3"/>
      <path id="Trazado_824957" data-name="Trazado 824957" d="M200.464,225.637h-9.337a1.01,1.01,0,0,1,0-2.02h9.337a1.01,1.01,0,0,1,0,2.02" transform="translate(-49.691 -62.912)" fill="#a854f3"/>
      <path id="Trazado_824958" data-name="Trazado 824958" d="M596.3,203.471A25.171,25.171,0,1,1,571.134,178.3,25.171,25.171,0,0,1,596.3,203.471" transform="translate(-141.603 -50.162)" fill="#3a1d71"/>
      <path id="Trazado_824959" data-name="Trazado 824959" d="M568.98,220.5l-6.867-9.629a2.411,2.411,0,0,1,.368-3.272,2.326,2.326,0,0,1,3.344.468l5.457,7.651,16.4-13.739a2.324,2.324,0,0,1,3.354.387,2.411,2.411,0,0,1-.466,3.261l-18.26,15.3a2.286,2.286,0,0,1-3.328-.425" transform="translate(-146.013 -56.67)" fill="#fff"/>
      <path id="Trazado_824960" data-name="Trazado 824960" d="M121.488,168.243H119.6v-10.41a.925.925,0,0,0-.925-.924h-9.307a.924.924,0,0,0-.924.924v10.41h-1.885a1.2,1.2,0,0,0-1.041,1.8l3.731,6.463,3.731,6.462a1.2,1.2,0,0,0,2.083,0l3.731-6.462,3.731-6.463a1.2,1.2,0,0,0-1.041-1.8" transform="translate(-27.508 -44.145)" fill="#a854f3"/>
      <path id="Trazado_824961" data-name="Trazado 824961" d="M50.085,27.393A21.688,21.688,0,1,1,28.4,5.7,21.688,21.688,0,0,1,50.085,27.393" transform="translate(-1.888 -1.604)" fill="#3a1d71"/>
      <path id="Trazado_824962" data-name="Trazado 824962" d="M51.5,26.481A24.018,24.018,0,1,1,27.485,2.463,24.017,24.017,0,0,1,51.5,26.481Z" transform="translate(-0.975 -0.692)" fill="none" stroke="#e1ecfa" stroke-miterlimit="10" stroke-width="0.5"/>
      <path id="Trazado_824963" data-name="Trazado 824963" d="M37.288,39.06a8.23,8.23,0,1,0-8.059,0,9.243,9.243,0,0,0-5.24,8.313v4.689a21.707,21.707,0,0,0,18.541,0V47.373a9.244,9.244,0,0,0-5.241-8.313" transform="translate(-6.749 -6.665)" fill="#fff"/>
      <path id="Trazado_824964" data-name="Trazado 824964" d="M211.147,27.393A21.688,21.688,0,1,1,189.46,5.7a21.688,21.688,0,0,1,21.688,21.688" transform="translate(-43.582 -1.604)" fill="#3a1d71"/>
      <path id="Trazado_824965" data-name="Trazado 824965" d="M212.565,26.481A24.018,24.018,0,1,1,188.547,2.463,24.017,24.017,0,0,1,212.565,26.481Z" transform="translate(-42.698 -0.692)" fill="none" stroke="#e1ecfa" stroke-miterlimit="10" stroke-width="0.5"/>
      <path id="Trazado_824966" data-name="Trazado 824966" d="M184.643,35.66a8.23,8.23,0,1,0-8.059,0,9.289,9.289,0,0,0-5.029,6.351,21.78,21.78,0,0,0,8.967,8.728l.092,0a21.6,21.6,0,0,0,9.271-2.079V43.973a9.244,9.244,0,0,0-5.241-8.313" transform="translate(-44.783 -5.709)" fill="#acd1f1"/>
      <path id="Trazado_824967" data-name="Trazado 824967" d="M203.905,35.66a8.23,8.23,0,1,1,8.059,0,9.289,9.289,0,0,1,5.029,6.351,21.78,21.78,0,0,1-8.967,8.728l-.092,0a21.6,21.6,0,0,1-9.271-2.079V43.973a9.244,9.244,0,0,1,5.241-8.313" transform="translate(-51.859 -5.709)" fill="#acd1f1"/>
      <path id="Trazado_824968" data-name="Trazado 824968" d="M198.349,39.06a8.23,8.23,0,1,0-8.059,0,9.243,9.243,0,0,0-5.24,8.313v4.689a21.707,21.707,0,0,0,18.541,0V47.373a9.244,9.244,0,0,0-5.241-8.313" transform="translate(-48.304 -6.665)" fill="#fff"/>
      <path id="Trazado_824969" data-name="Trazado 824969" d="M595.594,102.555a21.688,21.688,0,1,1-21.688-21.688,21.688,21.688,0,0,1,21.688,21.688" transform="translate(-143.363 -22.75)" fill="#3a1d71"/>
      <path id="Trazado_824970" data-name="Trazado 824970" d="M597.013,101.643a24.018,24.018,0,1,1-24.018-24.018A24.019,24.019,0,0,1,597.013,101.643Z" transform="translate(-142.451 -21.838)" fill="none" stroke="#e1ecfa" stroke-miterlimit="10" stroke-width="0.5"/>
      <path id="Trazado_824971" data-name="Trazado 824971" d="M569.09,110.822a8.229,8.229,0,1,0-8.059,0A9.289,9.289,0,0,0,556,117.173a21.78,21.78,0,0,0,8.967,8.728l.092,0a21.6,21.6,0,0,0,9.271-2.079v-4.689a9.244,9.244,0,0,0-5.241-8.313" transform="translate(-144.427 -26.855)" fill="#acd1f1"/>
      <path id="Trazado_824972" data-name="Trazado 824972" d="M588.353,110.822a8.229,8.229,0,1,1,8.059,0,9.289,9.289,0,0,1,5.029,6.351,21.78,21.78,0,0,1-8.967,8.728l-.092,0a21.6,21.6,0,0,1-9.271-2.079v-4.689a9.244,9.244,0,0,1,5.241-8.313" transform="translate(-152.054 -26.855)" fill="#acd1f1"/>
      <path id="Trazado_824973" data-name="Trazado 824973" d="M582.8,114.222a8.23,8.23,0,1,0-8.059,0,9.243,9.243,0,0,0-5.24,8.313v4.689a21.707,21.707,0,0,0,18.541,0v-4.689a9.244,9.244,0,0,0-5.241-8.313" transform="translate(-148.224 -27.812)" fill="#f3f9ff"/>
      <g id="Grupo_1073998" data-name="Grupo 1073998" transform="translate(246.204 105.919)">
        <text id="_2-4" data-name="2-4" transform="translate(13 12)" fill="#315782" font-size="13" font-family="Roboto-Regular, Roboto"><tspan x="0" y="0">2-4</tspan></text>
        <text id="WEEKS" transform="translate(0 26.209)" fill="#315782" font-size="14" font-family="Roboto-BoldItalic, Roboto" font-weight="700" font-style="italic"><tspan x="0" y="0">WEEKS</tspan></text>
      </g>
      <text id="_24" data-name="24" transform="translate(348.568 28.665)" fill="#315782" font-size="9" font-family="Roboto-Regular, Roboto"><tspan x="0" y="0">24</tspan></text>
      <text id="HOURS" transform="translate(339.089 38.367)" fill="#315782" font-size="10" font-family="Roboto-BoldItalic, Roboto" font-weight="700" font-style="italic"><tspan x="0" y="0">HOURS</tspan></text>
      <text id="SPRINT" transform="translate(71.028 93.217)" fill="#315782" font-size="10" font-family="Roboto-BoldItalic, Roboto" font-weight="700" font-style="italic"><tspan x="0" y="0">SPRI</tspan><tspan y="0" letter-spacing="-0.014em">N</tspan><tspan y="0">T</tspan></text>
      <text id="PLANNING" transform="translate(62.533 103.919)" fill="#315782" font-size="10" font-family="Roboto-BoldItalic, Roboto" font-weight="700" font-style="italic"><tspan x="0" y="0">P</tspan><tspan y="0" letter-spacing="0.009em">L</tspan><tspan y="0">ANNING</tspan></text>
      <text id="PRODUCT" transform="translate(4.01 194.276)" fill="#315782" font-size="10" font-family="Roboto-BoldItalic, Roboto" font-weight="700" font-style="italic"><tspan x="0" y="0">PRODU</tspan><tspan y="0" letter-spacing="-0.014em">C</tspan><tspan y="0">T</tspan></text>
      <text id="BACKLOG" transform="translate(4.697 204.979)" fill="#315782" font-size="10" font-family="Roboto-BoldItalic, Roboto" font-weight="700" font-style="italic"><tspan x="0" y="0">B</tspan><tspan y="0" letter-spacing="-0.005em">A</tspan><tspan y="0">CK</tspan><tspan y="0" letter-spacing="-0.031em">L</tspan><tspan y="0">OG</tspan></text>
      <text id="SPRINT-2" data-name="SPRINT" transform="translate(127.768 196.011)" fill="#315782" font-size="10" font-family="Roboto-BoldItalic, Roboto" font-weight="700" font-style="italic"><tspan x="0" y="0">SPRI</tspan><tspan y="0" letter-spacing="-0.014em">N</tspan><tspan y="0">T</tspan></text>
      <text id="FINISHED" transform="translate(411.098 190.511)" fill="#315782" font-size="10" font-family="Roboto-BoldItalic, Roboto" font-weight="700" font-style="italic"><tspan x="0" y="0">FINISHED</tspan></text>
      <text id="WORK" transform="translate(418.159 202.214)" fill="#315782" font-size="10" font-family="Roboto-BoldItalic, Roboto" font-weight="700" font-style="italic"><tspan x="0" y="0">WORK</tspan></text>
      <text id="PRODUCT-2" data-name="PRODUCT" transform="translate(1.339 60.705)" fill="#315782" font-size="10" font-family="Roboto-BoldItalic, Roboto" font-weight="700" font-style="italic"><tspan x="0" y="0">PRODU</tspan><tspan y="0" letter-spacing="-0.014em">C</tspan><tspan y="0">T</tspan></text>
      <text id="OWNER" transform="translate(5.03 72.102)" fill="#315782" font-size="10" font-family="Roboto-BoldItalic, Roboto" font-weight="700" font-style="italic"><tspan x="0" y="0">OWNER</tspan></text>
      <text id="TEAM" transform="translate(132.319 60.705)" fill="#315782" font-size="10" font-family="Roboto-BoldItalic, Roboto" font-weight="700" font-style="italic"><tspan x="0" y="0">TEAM</tspan></text>
      <text id="REVIEW" transform="translate(413.486 116.265)" fill="#315782" font-size="10" font-family="Roboto-BoldItalic, Roboto" font-weight="700" font-style="italic"><tspan x="0" y="0">REVIEW</tspan></text>
    </g>
  </g>
</svg>
