<svg xmlns="http://www.w3.org/2000/svg" xmlns:xlink="http://www.w3.org/1999/xlink" width="122" height="123.001" viewBox="0 0 122 123.001">
  <defs>
    <filter id="Elipse_9685" x="0" y="1.001" width="122" height="122" filterUnits="userSpaceOnUse">
      <feOffset dy="3" input="SourceAlpha"/>
      <feGaussianBlur stdDeviation="3" result="blur"/>
      <feFlood flood-opacity="0.161"/>
      <feComposite operator="in" in2="blur"/>
      <feComposite in="SourceGraphic"/>
    </filter>
  </defs>
  <g id="Grupo_1099181" data-name="Grupo 1099181" transform="translate(-319 -11172)">
    <g id="Grupo_1099145" data-name="Grupo 1099145" transform="translate(0 -73)">
      <g id="Grupo_1099142" data-name="Grupo 1099142" transform="translate(-420 1497.473)">
        <circle id="Elipse_11310" data-name="Elipse 11310" cx="59" cy="59" r="59" transform="translate(741 9747.527)" fill="#fff"/>
        <g id="Grupo_1098210" data-name="Grupo 1098210" transform="translate(0 208.528)">
          <g transform="matrix(1, 0, 0, 1, 739, 9539)" filter="url(#Elipse_9685)">
            <g id="Elipse_9685-2" data-name="Elipse 9685" transform="translate(9 7)" fill="#f2e5fd" stroke="#a854f3" stroke-width="5">
              <circle cx="52" cy="52" r="52" stroke="none"/>
              <circle cx="52" cy="52" r="49.5" fill="none"/>
            </g>
          </g>
        </g>
      </g>
    </g>
    <g id="avatar" transform="translate(355.5 11203)">
      <path id="Trazado_825905" data-name="Trazado 825905" d="M152.289,256h14.233v14.233H152.289Zm0,0" transform="translate(-134.945 -227.591)" fill="#ecbd83"/>
      <path id="Trazado_825906" data-name="Trazado 825906" d="M50.836,347.311l-8.143-3.131-11.564,2.669L19.564,344.18l-8.143,3.131A5.338,5.338,0,0,0,8,352.293v9.678H54.257v-9.678A5.338,5.338,0,0,0,50.836,347.311Zm0,0" transform="translate(-6.668 -305.986)" fill="#dbeaff"/>
      <path id="Trazado_825907" data-name="Trazado 825907" d="M152.289,261.191a14.112,14.112,0,0,0,14.233,0V256H152.289Zm0,0" transform="translate(-134.945 -227.591)" fill="#e2a975"/>
      <path id="Trazado_825908" data-name="Trazado 825908" d="M107.721,71.619a2.647,2.647,0,0,0-.89.163V63.613H83.7v8.169a2.669,2.669,0,1,0,0,5.011v1.053a11.564,11.564,0,0,0,23.128,0V76.793a2.664,2.664,0,1,0,.89-5.174Zm0,0" transform="translate(-70.806 -56.554)" fill="#f6d190"/>
      <path id="Trazado_825909" data-name="Trazado 825909" d="M106.834,63.613H83.706v8.169a2.466,2.466,0,0,0-2.333.309,2.64,2.64,0,0,0,2.333,4.7v1.053A11.489,11.489,0,0,0,97.049,89.26a11.557,11.557,0,0,1-9.785-11.414v-4.1a3.48,3.48,0,0,1,.646-2.043,10.105,10.105,0,0,0,1.109-1.988.884.884,0,0,1,1.148-.491,19.09,19.09,0,0,0,7.2,1.477,16.819,16.819,0,0,0,8.068-2.072,2.653,2.653,0,0,0,1.257-1.5C106.736,67.108,106.834,63.613,106.834,63.613Zm0,0" transform="translate(-70.809 -56.554)" fill="#ecbd83"/>
      <path id="Trazado_825910" data-name="Trazado 825910" d="M278.758,35.985a2.661,2.661,0,0,0-.717.1,2.752,2.752,0,0,1-3.023-1.272c-2.484-4.045-2.486-11.28-2.486-11.28H275.2a4.448,4.448,0,0,1,4.447,4.448v8.169A2.643,2.643,0,0,0,278.758,35.985Zm0,0" transform="translate(-241.844 -20.92)" fill="#966a5b"/>
      <path id="Trazado_825911" data-name="Trazado 825911" d="M178.245,207.9a.894.894,0,0,0-.867,1.113,4.449,4.449,0,0,0,8.615,0,.894.894,0,0,0-.867-1.113Zm0,0" transform="translate(-157.225 -184.831)" fill="#fff"/>
      <path id="Trazado_825912" data-name="Trazado 825912" d="M119.327,461.74H113.1a.89.89,0,0,1-.889-.89v-3.558a.89.89,0,0,1,.889-.889h6.227a.89.89,0,0,1,.89.889v3.558A.89.89,0,0,1,119.327,461.74Zm0,0" transform="translate(-99.314 -405.755)" fill="#ffe09f"/>
      <path id="Trazado_825913" data-name="Trazado 825913" d="M97.069,35.985a2.661,2.661,0,0,1,.717.1c1.155.324,2.12-.547,2.748-1.569,2.484-4.045,2.762-10.983,2.762-10.983h-2.669a4.448,4.448,0,0,0-4.448,4.448v8.169A2.643,2.643,0,0,1,97.069,35.985Zm0,0" transform="translate(-85.062 -20.92)" fill="#785353"/>
      <path id="Trazado_825914" data-name="Trazado 825914" d="M157.923,7.5H147a2.7,2.7,0,0,0-2.73,2.669l.1,2.082a4.427,4.427,0,0,0,2.828,3.9,19.224,19.224,0,0,0,17.576-1.526,1.776,1.776,0,0,0,.7-2.2A8.192,8.192,0,0,0,157.923,7.5Zm0,0" transform="translate(-127.819 -6.668)" fill="#966a5b"/>
      <path id="Trazado_825915" data-name="Trazado 825915" d="M8.9,390.59a5.325,5.325,0,0,0-.9,2.963v9.678h8.006v-5.376a3.559,3.559,0,0,0-1.374-2.809Zm0,0" transform="translate(-6.668 -347.246)" fill="#c3ddff"/>
      <path id="Trazado_825916" data-name="Trazado 825916" d="M359.8,390.59a5.325,5.325,0,0,1,.9,2.963v9.678H352.7v-5.376a3.559,3.559,0,0,1,1.374-2.809Zm0,0" transform="translate(-313.112 -347.246)" fill="#c3ddff"/>
      <path id="Trazado_825917" data-name="Trazado 825917" d="M119.327,483.122H113.1a.89.89,0,0,1-.889-.89v-1.779h8.006v1.779A.89.89,0,0,1,119.327,483.122Zm0,0" transform="translate(-99.314 -427.137)" fill="#f6d190"/>
      <path id="Trazado_825918" data-name="Trazado 825918" d="M114.363,315.469l-2.152,2.87,5.859,5.858a1.779,1.779,0,0,0,2.516,0l3.19-3.19-8.191-5.733A.889.889,0,0,0,114.363,315.469Zm0,0" transform="translate(-99.314 -280.144)" fill="#c3ddff"/>
      <path id="Trazado_825919" data-name="Trazado 825919" d="M225.834,315.469a.889.889,0,0,0-1.222-.2l-8.19,5.733,3.19,3.19a1.779,1.779,0,0,0,2.516,0l5.859-5.858Zm0,0" transform="translate(-191.961 -280.144)" fill="#c3ddff"/>
      <path id="Trazado_825920" data-name="Trazado 825920" d="M161.657,154.863a.832.832,0,0,0,.832-.832v-.89a.832.832,0,0,0-1.665,0v.89A.832.832,0,0,0,161.657,154.863Zm0,0" transform="translate(-142.533 -135.407)"/>
      <path id="Trazado_825921" data-name="Trazado 825921" d="M257.848,154.863a.832.832,0,0,0,.832-.832v-.89a.832.832,0,0,0-1.665,0v.89A.832.832,0,0,0,257.848,154.863Zm0,0" transform="translate(-228.05 -135.407)"/>
      <path id="Trazado_825922" data-name="Trazado 825922" d="M168.84,201.235a5.28,5.28,0,1,0,10.56,0,.832.832,0,0,0-.832-.832h-8.9A.832.832,0,0,0,168.84,201.235Zm8.8.832a3.616,3.616,0,0,1-7.038,0Zm0,0" transform="translate(-149.659 -178.163)"/>
      <path id="Trazado_825923" data-name="Trazado 825923" d="M44.467,40.549,36.547,37.5l-2.008-2.678a1.713,1.713,0,0,0-2.129-.515V30.8a12.375,12.375,0,0,0,4.448-9.5v-.058h.057a3.5,3.5,0,0,0,1.722-6.547V8.838A8.848,8.848,0,0,0,29.8,0H19.124a3.5,3.5,0,0,0-3.047,1.779h-.512a5.286,5.286,0,0,0-5.28,5.28v7.628a3.5,3.5,0,0,0,1.722,6.547h.057v.058a12.375,12.375,0,0,0,4.448,9.5v3.514a1.713,1.713,0,0,0-2.129.515L12.374,37.5,4.455,40.549A6.207,6.207,0,0,0,.5,46.307v9.678a.832.832,0,1,0,1.665,0V46.307a4.46,4.46,0,0,1,.285-1.564l4.966,3.724a2.739,2.739,0,0,1,1.09,2.18v5.337a.832.832,0,1,0,1.665,0V50.648a4.412,4.412,0,0,0-1.756-3.513l-5.1-3.825A4.483,4.483,0,0,1,5.052,42.1l7.638-2.938,5.476,5.476a2.612,2.612,0,0,0,3.693,0l1.769-1.769V55.985a.832.832,0,1,0,1.665,0V42.872l1.769,1.769a2.612,2.612,0,0,0,3.693,0l2.3-2.3a.832.832,0,0,0-1.177-1.177l-2.3,2.3a.948.948,0,0,1-1.339,0l-2.488-2.489,7.377-5.164a.057.057,0,0,1,.078.013l1.719,2.292-.379.379a.832.832,0,1,0,1.177,1.177l.507-.507L43.869,42.1a4.486,4.486,0,0,1,1.738,1.208l-5.1,3.825a4.411,4.411,0,0,0-1.756,3.512v5.337a.832.832,0,1,0,1.665,0V50.648a2.739,2.739,0,0,1,1.091-2.181l4.966-3.724a4.462,4.462,0,0,1,.285,1.565v9.678a.832.832,0,0,0,1.665,0V46.307A6.207,6.207,0,0,0,44.467,40.549ZM20.682,43.464a.948.948,0,0,1-1.339,0L14,38.116l1.719-2.292a.057.057,0,0,1,.078-.013l7.378,5.164Zm10.062-8.016-6.284,4.4-6.285-4.4V31.974a12.372,12.372,0,0,0,12.568,0Zm-6.39-3.424A10.82,10.82,0,0,1,13.729,21.155v-.893a.862.862,0,0,0-.165-.521.833.833,0,0,0-.946-.285,1.812,1.812,0,0,1-.611.115,1.836,1.836,0,1,1,0-3.673,1.8,1.8,0,0,1,.611.116.843.843,0,0,0,.65-.039,7.857,7.857,0,0,0,3.515-3.768.832.832,0,1,0-1.545-.618A6.233,6.233,0,0,1,12.8,14.333a3.3,3.3,0,0,0-.8-.1H11.95V7.059a3.615,3.615,0,0,1,3.616-3.616h.059c0,.019,0,.038,0,.057a.833.833,0,0,0,.911.829.852.852,0,0,0,.753-.849,1.838,1.838,0,0,1,1.836-1.816H29.8a7.174,7.174,0,0,1,7.174,7.174v5.4h-.057a3.3,3.3,0,0,0-.855.114c-1.717-.758-2.5-2.946-2.715-3.675q.188-.094.375-.195A.854.854,0,0,0,34.1,9.352.832.832,0,0,0,32.962,9a13.64,13.64,0,0,1-10.893.929,17.139,17.139,0,0,1-4.881-2.41.832.832,0,0,0-1.021,1.314,18.446,18.446,0,0,0,5.347,2.667,16.682,16.682,0,0,0,5.024.8,15,15,0,0,0,5.269-.951c.352,1.1,1.365,3.564,3.6,4.537a1.631,1.631,0,0,0,.642.132h0a1.85,1.85,0,0,0,.467-.061,1.637,1.637,0,0,1,.4-.052,1.836,1.836,0,1,1,0,3.672,1.8,1.8,0,0,1-.6-.113.831.831,0,0,0-1.117.782v1.053A10.744,10.744,0,0,1,24.355,32.023Zm0,0"/>
      <path id="Trazado_825924" data-name="Trazado 825924" d="M112.66,427.524h-2.281v-1.836a.832.832,0,1,0-1.665,0v1.836h-2.281a1.724,1.724,0,0,0-1.722,1.722V432.8a1.724,1.724,0,0,0,1.722,1.722h6.227a1.724,1.724,0,0,0,1.722-1.722v-3.558A1.724,1.724,0,0,0,112.66,427.524Zm.057,5.28a.057.057,0,0,1-.057.057h-6.227a.057.057,0,0,1-.057-.057v-3.558a.058.058,0,0,1,.057-.058h6.227a.058.058,0,0,1,.057.058Zm0,0" transform="translate(-92.647 -377.709)"/>
    </g>
  </g>
</svg>
