<svg xmlns="http://www.w3.org/2000/svg" xmlns:xlink="http://www.w3.org/1999/xlink" width="295" height="241" viewBox="0 0 295 241">
  <defs>
    <clipPath id="clip-path">
      <rect id="Rectángulo_383172" data-name="Rectángulo 383172" width="295" height="241" rx="12" transform="translate(1125 168)" fill="#add3fd"/>
    </clipPath>
    <clipPath id="clip-path-2">
      <rect id="Rectángulo_383167" data-name="Rectángulo 383167" width="227.518" height="289.768" fill="none"/>
    </clipPath>
    <clipPath id="clip-path-4">
      <rect id="Rectángulo_383164" data-name="Rectángulo 383164" width="5.773" height="2.206" transform="translate(111.887 31.291)" fill="none"/>
    </clipPath>
    <clipPath id="clip-path-5">
      <rect id="Rectángulo_383165" data-name="Rectángulo 383165" width="2.072" height="1.785" transform="translate(101.17 34.23)" fill="none"/>
    </clipPath>
    <clipPath id="clip-path-6">
      <rect id="Rectángulo_383171" data-name="Rectángulo 383171" width="235.31" height="308.971" fill="none"/>
    </clipPath>
    <clipPath id="clip-path-8">
      <rect id="Rectángulo_383168" data-name="Rectángulo 383168" width="2.669" height="2.184" transform="translate(0)" fill="none"/>
    </clipPath>
    <clipPath id="clip-path-9">
      <rect id="Rectángulo_383169" data-name="Rectángulo 383169" width="6.863" height="2.294" transform="translate(0)" fill="none"/>
    </clipPath>
  </defs>
  <g id="Grupo_1074223" data-name="Grupo 1074223" transform="translate(-1125 -168)">
    <rect id="Rectángulo_383036" data-name="Rectángulo 383036" width="295" height="241" rx="12" transform="translate(1125 168)" fill="#add3fd"/>
    <g id="Enmascarar_grupo_169" data-name="Enmascarar grupo 169" clip-path="url(#clip-path)">
      <g id="Grupo_1074124" data-name="Grupo 1074124" transform="translate(19.975 27)">
        <g id="Grupo_1074123" data-name="Grupo 1074123">
          <path id="Trazado_818450" data-name="Trazado 818450" d="M284.708,62.8,236.346,14.434,190.815,59.967l-45.79-45.79L97.178,62.025,49.846,14.693,7.089,57.45,0,50.361,49.846.515,97.178,47.844,145.025,0l45.79,45.787L236.346.256l48.362,48.362,45.33-45.33,7.092,7.086Z" transform="translate(1089.025 113.031)" fill="#0b47db"/>
          <path id="Trazado_818451" data-name="Trazado 818451" d="M284.708,79.591,236.346,31.232,190.815,76.76l-45.79-45.787L97.178,78.82,49.846,31.488,7.089,74.248,0,67.156,49.846,17.31,97.178,64.642,145.025,16.8l45.79,45.79,45.531-45.531,48.362,48.359,45.33-45.33,7.092,7.086Z" transform="translate(1089.025 145.111)" fill="#0b47db"/>
          <path id="Trazado_818452" data-name="Trazado 818452" d="M284.708,96.386,236.346,48.027,190.815,93.558l-45.79-45.787L97.178,95.615,49.846,48.283,7.089,91.043,0,83.952,49.846,34.106,97.178,81.437,145.025,33.59l45.79,45.79,45.531-45.531,48.362,48.359,45.33-45.33,7.092,7.089Z" transform="translate(1089.025 177.19)" fill="#0b47db"/>
          <path id="Trazado_818453" data-name="Trazado 818453" d="M284.708,113.182,236.346,64.82l-45.531,45.531-45.79-45.787L97.178,112.411,49.846,65.076,7.089,107.837,0,100.748,49.846,50.9,97.178,98.233l47.847-47.847,45.79,45.79,45.531-45.534L284.708,99l45.33-45.333,7.092,7.089Z" transform="translate(1089.025 209.271)" fill="#0b47db"/>
          <path id="Trazado_818454" data-name="Trazado 818454" d="M284.708,129.978,236.346,81.616l-45.531,45.531-45.79-45.787L97.178,129.206,49.846,81.874,7.089,124.635,0,117.546,49.846,67.7l47.332,47.332,47.847-47.847,45.79,45.79,45.531-45.531L284.708,115.8l45.33-45.333,7.092,7.089Z" transform="translate(1089.025 241.352)" fill="#0b47db"/>
          <path id="Trazado_818455" data-name="Trazado 818455" d="M284.708,146.773,236.346,98.414l-45.531,45.531-45.79-45.787L97.178,146,49.846,98.67,7.089,141.43,0,134.338,49.846,84.492l47.332,47.332,47.847-47.847,45.79,45.79,45.531-45.531L284.708,132.6l45.33-45.33,7.092,7.089Z" transform="translate(1089.025 273.432)" fill="#0b47db"/>
        </g>
      </g>
      <g id="Grupo_1074112" data-name="Grupo 1074112" transform="translate(1243 193)">
        <g id="Grupo_1074111" data-name="Grupo 1074111" clip-path="url(#clip-path-2)">
          <g id="Grupo_1074110" data-name="Grupo 1074110">
            <g id="Grupo_1074109" data-name="Grupo 1074109" clip-path="url(#clip-path-2)">
              <path id="Trazado_825453" data-name="Trazado 825453" d="M147.322,231.683h-2.1a3.737,3.737,0,0,1-3.737-3.737V197.667h9.571v30.279a3.737,3.737,0,0,1-3.737,3.737" fill="#171612"/>
              <path id="Trazado_825454" data-name="Trazado 825454" d="M174.674,270.526V276.6h-4.4v-2.745a1.4,1.4,0,0,0-1.4-1.4H150.012a1.179,1.179,0,0,0-1.179,1.179V276.6h-5.12v-2.969a1.179,1.179,0,0,0-1.179-1.179H123.82a1.4,1.4,0,0,0-1.4,1.4V276.6h-4.4v-6.076a2.474,2.474,0,0,1,2.474-2.474h23.224V189.731h5.12v78.321H172.2a2.474,2.474,0,0,1,2.474,2.474" fill="#171612"/>
              <path id="Trazado_825455" data-name="Trazado 825455" d="M126.833,280.533a6.556,6.556,0,1,1-6.556-6.556,6.556,6.556,0,0,1,6.556,6.556" fill="#171612"/>
              <path id="Trazado_825456" data-name="Trazado 825456" d="M120.277,284.288a3.755,3.755,0,1,1,3.755-3.755,3.758,3.758,0,0,1-3.755,3.755" fill="#5a554d"/>
              <path id="Trazado_825457" data-name="Trazado 825457" d="M152.9,280.533a6.556,6.556,0,1,1-6.556-6.556,6.556,6.556,0,0,1,6.556,6.556" fill="#171612"/>
              <path id="Trazado_825458" data-name="Trazado 825458" d="M146.345,284.288a3.755,3.755,0,1,1,3.755-3.755,3.758,3.758,0,0,1-3.755,3.755" fill="#5a554d"/>
              <path id="Trazado_825459" data-name="Trazado 825459" d="M179.061,280.533a6.556,6.556,0,1,1-6.556-6.556,6.556,6.556,0,0,1,6.556,6.556" fill="#171612"/>
              <path id="Trazado_825460" data-name="Trazado 825460" d="M172.505,284.288a3.755,3.755,0,1,1,3.755-3.755,3.758,3.758,0,0,1-3.755,3.755" fill="#5a554d"/>
              <path id="Trazado_825461" data-name="Trazado 825461" d="M227.285,77.525,199.459,193.439a8.319,8.319,0,0,1-8.09,6.378H126.063a8.32,8.32,0,0,1-8.08-10.3L146.436,73.6a8.32,8.32,0,0,1,8.08-6.336H219.2a8.32,8.32,0,0,1,8.09,10.261" fill="#5a554d"/>
              <path id="Trazado_825462" data-name="Trazado 825462" d="M220.1,77.525,192.272,193.439a8.319,8.319,0,0,1-8.09,6.378H118.875a8.32,8.32,0,0,1-8.08-10.3L139.248,73.6a8.32,8.32,0,0,1,8.08-6.336h64.68A8.319,8.319,0,0,1,220.1,77.525" fill="#171612"/>
              <path id="Trazado_825463" data-name="Trazado 825463" d="M184.181,194.167H118.874a2.669,2.669,0,0,1-2.593-3.306L144.734,74.946a2.664,2.664,0,0,1,2.593-2.033h64.68a2.669,2.669,0,0,1,2.6,3.293L186.778,192.121a2.662,2.662,0,0,1-2.6,2.046m-36.854-120.5a1.915,1.915,0,0,0-1.864,1.462L117.01,191.04a1.919,1.919,0,0,0,1.864,2.377h65.307a1.915,1.915,0,0,0,1.868-1.471L213.874,76.031a1.919,1.919,0,0,0-1.867-2.368Z" fill="#5a554d"/>
              <path id="Trazado_825464" data-name="Trazado 825464" d="M79.9,203.252H189.587a9.4,9.4,0,0,0,9.156-7.271l1.469-6.314H83.063Z" fill="#5a554d"/>
              <path id="Trazado_825465" data-name="Trazado 825465" d="M81.4,203.252h101.13a9.4,9.4,0,0,0,9.157-7.271l1.469-6.314H81.4a6.792,6.792,0,1,0,0,13.585" fill="#171612"/>
              <path id="Trazado_825466" data-name="Trazado 825466" d="M48.146,257.383l-2.863,6.847L33.47,261l2.862-6.848Z" fill="#eaad8f"/>
              <path id="Trazado_825467" data-name="Trazado 825467" d="M.107,271.962,43.12,283.724a6.227,6.227,0,0,0,1.211-2.24c1.254-3.573,1.665-9.712,2.087-13.537.047-.448.1-.865.147-1.239a13.1,13.1,0,0,1,.277-1.534c.808-3-1.975-3.205-1.975-3.205-5.507,3.088-8.7-4.676-12.15-3.358,0,0-1.48.552-5.726,2.7s-10.6,2.591-16.1,3.313c-7.1.929-9.636,3.106-10.486,4.85a3.5,3.5,0,0,0-.293,2.491" fill="#467b6c"/>
              <path id="Trazado_825468" data-name="Trazado 825468" d="M.107,271.962,43.12,283.724a6.227,6.227,0,0,0,1.211-2.24L.4,269.471a3.5,3.5,0,0,0-.293,2.491" fill="#253f3d"/>
              <path id="Trazado_825469" data-name="Trazado 825469" d="M38.731,282.524l1.278.349a9.837,9.837,0,0,1-.449-7.536,12.549,12.549,0,0,1,6.858-7.391c.046-.447.1-.864.147-1.238a13.633,13.633,0,0,0-8.015,8.3,10.883,10.883,0,0,0,.181,7.519" fill="#253f3d"/>
              <path id="Trazado_825470" data-name="Trazado 825470" d="M27.034,264.051a.731.731,0,0,0,.832-.352.739.739,0,0,0-.285-1l-2.5-1.4a.735.735,0,1,0-.715,1.285l2.507,1.4a.725.725,0,0,0,.166.068" fill="#fff"/>
              <path id="Trazado_825471" data-name="Trazado 825471" d="M30.143,262.693a.736.736,0,0,0,.548-1.354l-2.506-1.4a.735.735,0,1,0-.714,1.286l2.506,1.4a.763.763,0,0,0,.166.068" fill="#fff"/>
              <path id="Trazado_825472" data-name="Trazado 825472" d="M23.924,264.882a.736.736,0,0,0,.548-1.354l-2.506-1.4a.732.732,0,0,0-1,.283.74.74,0,0,0,.285,1l2.507,1.4a.709.709,0,0,0,.165.068" fill="#fff"/>
              <path id="Trazado_825473" data-name="Trazado 825473" d="M20.831,265.653a.736.736,0,0,0,.548-1.354l-2.506-1.4a.735.735,0,1,0-.714,1.285l2.506,1.4a.718.718,0,0,0,.166.068" fill="#fff"/>
              <path id="Trazado_825474" data-name="Trazado 825474" d="M17.526,266.244a.736.736,0,0,0,.548-1.354l-2.506-1.4a.735.735,0,1,0-.714,1.286l2.506,1.4a.784.784,0,0,0,.166.068" fill="#fff"/>
              <path id="Trazado_825475" data-name="Trazado 825475" d="M14.028,266.562a.736.736,0,0,0,.548-1.354l-2.506-1.4a.735.735,0,1,0-.714,1.285l2.506,1.4a.718.718,0,0,0,.166.068" fill="#fff"/>
              <path id="Trazado_825476" data-name="Trazado 825476" d="M118.395,151.029S65.41,164.433,58.3,170.461,35.364,250,35.256,254.152c-.01.384,13.82,4.306,13.82,4.306s27.186-56.9,28.682-65.131c0,0,31.136-3.743,45.316-11.975s19.4-16.663,19.4-16.663Z" fill="#314fa5"/>
              <path id="Trazado_825477" data-name="Trazado 825477" d="M57.794,171.387a11.026,11.026,0,0,0,5.713,5c.435.2.816-.447.378-.646a10.421,10.421,0,0,1-5.445-4.732c-.208-.434-.853-.055-.646.378" fill="#1c2b74"/>
              <path id="Trazado_825478" data-name="Trazado 825478" d="M36.758,249.136a71.852,71.852,0,0,1,13.685,4.551c.436.2.817-.45.378-.647a72.817,72.817,0,0,0-13.864-4.626c-.469-.1-.669.617-.2.722" fill="#1c2b74"/>
              <path id="Trazado_825479" data-name="Trazado 825479" d="M49.134,252.555c7.821-16.272,15.358-32.723,21.791-49.6,1.725-4.524,3.359-9.084,4.857-13.689l-.361.275a75.618,75.618,0,0,0,20.463-2.878,131.511,131.511,0,0,0,15.655-6.414c.439-.2.059-.842-.377-.646a129.882,129.882,0,0,1-15.477,6.338,74.834,74.834,0,0,1-20.264,2.852.386.386,0,0,0-.361.274c-5.521,16.972-12.7,33.4-20.186,49.582q-3.14,6.789-6.386,13.528c-.208.432.437.812.646.378" fill="#1c2b74"/>
              <path id="Trazado_825480" data-name="Trazado 825480" d="M89.736,95.4s-6.829,34.261-6.142,42.193,14.837,15.826,14.837,15.826l9.85-2.1s-4.565-13.626-8.315-17.552l6.263-30.1Z" fill="#eaad8f"/>
              <path id="Trazado_825481" data-name="Trazado 825481" d="M94.784,65.08a189.319,189.319,0,0,0-7.356,32.986s8.9,10.689,19.416,7.678Z" fill="#c04d3a"/>
              <path id="Trazado_825482" data-name="Trazado 825482" d="M169.28,147.491a.558.558,0,0,1-.026.063,2.126,2.126,0,0,1-.538.692c-2.107,1.916-9.269,3.924-17.946,5.393-.338.059-.676.114-1.018.173h0c-3.2.519-6.594.962-9.994,1.3-.277.025-.556.053-.834.079-14.942,1.409-29.859.719-30.25-4.681-.044-.62-.091-1.237-.135-1.859-.023-.321-.049-.645-.072-.971-.145-2.005-.3-4.106-.459-6.53v0c-.021-.321-.042-.645-.065-.978v0c-.21-3.177-.44-6.91-.708-11.652-.019-.344-.037-.694-.061-1.05-.053-.953-.107-1.942-.163-2.976-.037-.667-.072-1.335-.111-2-.017-.289-.033-.58-.054-.867-.016-.365-.042-.729-.063-1.094-.133-2.119-.284-4.232-.463-6.286-.028-.361-.061-.717-.1-1.074v0a72.737,72.737,0,0,0-2.347-13.945v0c-.049-.161-.1-.314-.152-.47s-.107-.324-.16-.487c-.86-2.6-1.729-5.04-2.574-7.343v0c-.158-.434-.317-.865-.473-1.288-2.431-6.559-4.6-11.917-5.7-16.314-.079-.319-.154-.634-.222-.944a18.085,18.085,0,0,1-.491-5.338.255.255,0,0,1,0-.039,3.821,3.821,0,0,1,.217-.929c.585-1.647,2.233-3.494,4.25-5.266.21-.184.422-.368.641-.55a80.5,80.5,0,0,1,10.724-7.317l16-7.378a126.17,126.17,0,0,1,12.877,1.427h0c.28.047.557.1.836.147a45.416,45.416,0,0,1,7.695,1.975c.268.1.529.2.78.312.42.175.813.361,1.176.557,5.194,2.769,7.819,14.22,9.747,26,.091.546.179,1.093.268,1.64.78,4.93,1.455,9.851,2.161,14.151.058.37.119.731.179,1.087.413,2.415.839,4.609,1.3,6.461.531,2.1,1.153,4.471,1.81,7.007.093.364.188.729.284,1.1,2.115,8.219,4.488,18.014,5.238,26.438.042.484.079.964.112,1.437.321,4.769.065,9.02-1.13,12.194" fill="#c04d3a"/>
              <path id="Trazado_825483" data-name="Trazado 825483" d="M98.511,70.3a6.7,6.7,0,0,0-3.691,3.014c-.079-.319-.154-.634-.222-.943a7.311,7.311,0,0,1,3.722-2.753c.438-.142.627.549.191.682" fill="#df7668"/>
              <path id="Trazado_825484" data-name="Trazado 825484" d="M98.576,60.8a21.083,21.083,0,0,0,9.791,5.1,25.225,25.225,0,0,0,20.551-4.518,33.533,33.533,0,0,0,10.741-14.256c-.28-.05-.558-.1-.838-.147h0a35.4,35.4,0,0,1-3.627,6.667c-4.088,5.88-10.171,10.435-17.319,11.665-6.587,1.135-13.7-.484-18.657-5.063-.218.18-.431.365-.64.549" fill="#df7668"/>
              <path id="Trazado_825485" data-name="Trazado 825485" d="M142.583,82.265c-.2-2.121-1.429-3.963-2.568-5.7l-.021-.034c-.007-.011-.014-.02-.023-.032-2.464-3.437-5.792-7.63-10.572-6.948-4.5.644-6.014,5.6-5.322,9.51.7,3.975,3,8.043,6.654,9.976a8.591,8.591,0,0,0,9.85-1.205,7.014,7.014,0,0,0,2-5.569m-1.614,3.913c-1.715,2.85-5.692,3.8-8.709,2.738-3.494-1.227-5.855-4.575-6.957-7.978-1.152-3.556-1.063-8.831,3.118-10.388,4.765-1.775,8.557,3.033,10.95,6.371,1.85,2.824,3.573,5.978,1.6,9.257" fill="#df7668"/>
              <path id="Trazado_825486" data-name="Trazado 825486" d="M103.562,98.259q.083.243.162.486l.151.472q3.354-4.358,7.009-8.476c1.634-1.844,3.268-3.76,5.078-5.437.936-.869,2.939-1.936,3.7-.227.458,1.03.009,2.556-.17,3.625a41.9,41.9,0,0,1-4.145,12.356,48.381,48.381,0,0,1-9.125,12.106v0c.035.355.068.713.1,1.073a52.884,52.884,0,0,0,4.445-4.777,45.552,45.552,0,0,0,6.96-11.54,42.327,42.327,0,0,0,2.17-6.92,36.408,36.408,0,0,0,.711-4.2,3.845,3.845,0,0,0-.315-2.387c-1.03-1.715-3.293-1.085-4.543-.043a56.865,56.865,0,0,0-5.863,6.232q-3.284,3.725-6.321,7.651" fill="#df7668"/>
              <path id="Trazado_825487" data-name="Trazado 825487" d="M106.844,121.621c.021.287.037.577.053.866a49.772,49.772,0,0,0,6.655-3.847c5.931-4.046,11.016-9.164,16.1-14.193,2.609-2.582,5.231-5.155,7.99-7.579a31.94,31.94,0,0,1,8.76-5.958c5.181-2.1,10.71-.919,15.261,1.942-.061-.357-.122-.719-.18-1.087-4.638-2.711-10.168-3.738-15.32-1.657a30.586,30.586,0,0,0-8.232,5.409c-2.891,2.471-5.619,5.126-8.323,7.8-6.758,6.674-14.1,14.055-22.766,18.307" fill="#df7668"/>
              <path id="Trazado_825488" data-name="Trazado 825488" d="M150.093,122.3c3.085,1.78,6.541,2.777,9.713,4.379a32.143,32.143,0,0,1,7.724,5.484,33.181,33.181,0,0,1,2.88,3.134q-.05-.711-.112-1.438-.827-.957-1.727-1.851a33.406,33.406,0,0,0-6.53-5.059,81.384,81.384,0,0,0-8.728-3.975c-2.945-1.306-5.813-2.989-7.6-5.758a7.506,7.506,0,0,1,.057-8.72c4.151-5.673,12.476-4.437,18-1.752q.652.318,1.288.677c-.1-.372-.191-.739-.283-1.1a24.873,24.873,0,0,0-2.4-1.1c-5.618-2.211-13.245-2.659-17.244,2.734-3.978,5.364-.021,11.469,4.961,14.343" fill="#df7668"/>
              <path id="Trazado_825489" data-name="Trazado 825489" d="M142.9,146.349c2.171,2.572,4.479,5.049,6.849,7.461h0c.342-.056.68-.112,1.018-.17-2.428-2.466-4.8-5-7.051-7.616-2.684-3.123-5.4-7.625-2.811-11.644,2.767-4.3,8.873-1.141,12.294.6a43.508,43.508,0,0,1,15.514,13.27,2.115,2.115,0,0,0,.538-.693,44.128,44.128,0,0,0-19.005-14.834c-2.1-.848-4.453-1.718-6.746-1.18a5.7,5.7,0,0,0-3.9,3.553c-1.66,4.139.663,8.142,3.293,11.257" fill="#df7668"/>
              <path id="Trazado_825490" data-name="Trazado 825490" d="M134.734,119.4c-.447,2.724-3.655,4.332-5.692,5.78q-10.55,7.5-21.1,14.992v0c.021.333.043.656.064.978q5.529-3.93,11.063-7.859,3.988-2.838,7.979-5.672l4.165-2.958a17.822,17.822,0,0,0,2.874-2.318c1.352-1.469,2.194-3.851.895-5.635-1.356-1.86-3.971-1.46-5.885-.937a57.538,57.538,0,0,0-21.924,11.7c.022.356.041.705.059,1.051A57.6,57.6,0,0,1,129,116.669a7.729,7.729,0,0,1,3.808-.407,2.6,2.6,0,0,1,1.929,3.135" fill="#df7668"/>
              <path id="Trazado_825491" data-name="Trazado 825491" d="M108.465,147.681c.023.326.047.649.07.971a45.866,45.866,0,0,1,7.6-5.371,15.886,15.886,0,0,1,22.787,11.912l.837-.08a17.2,17.2,0,0,0-3.852-8.5,16.837,16.837,0,0,0-19.314-4.462c-3.005,1.308-5.541,3.478-8.126,5.531" fill="#df7668"/>
              <path id="Trazado_825492" data-name="Trazado 825492" d="M118.309,59.985a15.5,15.5,0,0,1-8.938-3.1.544.544,0,0,1,.674-.853c.064.05,4.534,3.5,9.491,2.765,2.834-.423,5.312-2.132,7.363-5.08a.543.543,0,1,1,.892.62c-2.231,3.207-4.958,5.069-8.1,5.536a10.893,10.893,0,0,1-1.379.114" fill="#df7668"/>
              <path id="Trazado_825493" data-name="Trazado 825493" d="M100.979,35.463S97,30.958,97.009,19.958c0,0-8.819-4.5-6.819-8.75s8.917-2.5,8.917-2.5-4.774-4.75-.6-6.75,7.928,1.667,7.928,1.667-1.155-4.417,3.506-3.5,6.105,3.25,6.105,3.25,9.793-1.864,14.424,4.985,3.3,14.624.882,19.778-5.5,7.944-3.667,11.424-1.25,5.013-4.833,2.413-21.878-6.512-21.878-6.512" fill="#171612"/>
              <path id="Trazado_825494" data-name="Trazado 825494" d="M100.691,29.422a2.52,2.52,0,0,0-1.7,2.67c.006,2.254,1.679,5.759,3.839,4.966s-2.143-7.636-2.143-7.636" fill="#c6695d"/>
              <path id="Trazado_825495" data-name="Trazado 825495" d="M110.145,54.023a13.1,13.1,0,0,0,3.873,2.211,9.019,9.019,0,0,0,4.336.479l.707-.1.736-.2a12.821,12.821,0,0,0,2.31-.917,12.436,12.436,0,0,0,5.236-5.086,15.983,15.983,0,0,0,1.75-4.137c-.316-.589-.621-1.195-.921-1.814-1.34-2.762-2.547-5.783-3.747-8.817l.048-.261-.284-.575-.246-.5-.521.434-.772.637-13.383,11.08.267,2.3.141,1.209.241,2.081v0Z" fill="#eaad8f"/>
              <path id="Trazado_825496" data-name="Trazado 825496" d="M124.644,34.77h0l-.083.021c-.021.2-.053.392-.086.592-.015.086-.031.173-.047.26q-.106.538-.273,1.087c-1.707,5.683-7.884,11.977-13.639,12.066a9.225,9.225,0,0,1-.981-.039c-5.621-.543-7.853-6.562-7.869-11.333,0-.18,0-.358.009-.534,0,0-.055-.317-.159-.876-.086-.445-.2-1.047-.344-1.761-.431-2.129-1.119-5.266-1.982-8.335-1.517-5.379,1.047-13.956,11.964-17.367s16.182,4.254,16.608,10.063a21.886,21.886,0,0,1-.313,4.914c1.07-.064,2.277.367,3.131,2.151,1.576,3.3-2.015,8.166-5.934,9.09" fill="#eaad8f"/>
              <path id="Trazado_825497" data-name="Trazado 825497" d="M98.576,17.266s-1.906,4.312,3.21,2.688,8.221-6.618,13.088-4.73c3.757,1.459.343,4.667,4.623,5.542s-.157,4.79,1.718,7.176,4.75-5.471,8.437-5.011,1.254-12.9-7.562-15.478-19.528,2-23.514,9.813" fill="#171612"/>
              <path id="Trazado_825498" data-name="Trazado 825498" d="M103.141,31.081c.2.77.678,1.313,1.079,1.211s.566-.808.37-1.579-.678-1.313-1.078-1.211-.567.808-.371,1.579" fill="#171612"/>
              <path id="Trazado_825499" data-name="Trazado 825499" d="M105.494,29.7a.216.216,0,0,0,.089-.095.211.211,0,0,0-.1-.28,3.376,3.376,0,0,0-3.632.461.21.21,0,0,0,.3.3c1.251-1.244,3.14-.387,3.159-.378a.214.214,0,0,0,.191-.007" fill="#171612"/>
              <path id="Trazado_825500" data-name="Trazado 825500" d="M109.875,29.582c.195.77.678,1.313,1.079,1.211s.566-.808.37-1.579S110.646,27.9,110.246,28s-.567.808-.371,1.579" fill="#171612"/>
              <path id="Trazado_825501" data-name="Trazado 825501" d="M112.229,28.2a.21.21,0,0,0-.014-.375,3.378,3.378,0,0,0-3.632.461.21.21,0,0,0,.3.3c1.251-1.244,3.14-.387,3.159-.378a.214.214,0,0,0,.191-.007" fill="#171612"/>
              <g id="Grupo_1074105" data-name="Grupo 1074105" opacity="0.5">
                <g id="Grupo_1074104" data-name="Grupo 1074104">
                  <g id="Grupo_1074103" data-name="Grupo 1074103" clip-path="url(#clip-path-4)">
                    <path id="Trazado_825502" data-name="Trazado 825502" d="M111.894,32.975c.1.518,1.479.677,3.069.357s2.8-1,2.691-1.519-1.479-.677-3.069-.356-2.795,1-2.691,1.518" fill="#c6695d"/>
                  </g>
                </g>
              </g>
              <g id="Grupo_1074108" data-name="Grupo 1074108" opacity="0.5">
                <g id="Grupo_1074107" data-name="Grupo 1074107">
                  <g id="Grupo_1074106" data-name="Grupo 1074106" clip-path="url(#clip-path-5)">
                    <path id="Trazado_825503" data-name="Trazado 825503" d="M101.514,36.015c1.082-.353,1.8-.857,1.722-1.264s-.936-.589-2.066-.5c.144.714.259,1.316.344,1.762" fill="#c6695d"/>
                  </g>
                </g>
              </g>
              <path id="Trazado_825504" data-name="Trazado 825504" d="M105.057,34.546a.435.435,0,0,1-.272-.177c-.035-.012-.069-.026-.1-.041a3.994,3.994,0,0,1-1.657,1.294,4.041,4.041,0,1,1,2.165-5.289,4,4,0,0,1,.271,2.111c.088-.042.176-.084.265-.124a3.173,3.173,0,0,1,.532-.2,4.81,4.81,0,1,0-.838,2.493c-.121-.022-.243-.043-.364-.069" fill="#fff"/>
              <path id="Trazado_825505" data-name="Trazado 825505" d="M113.586,33.768a4.806,4.806,0,1,1,2.574-6.29,4.812,4.812,0,0,1-2.574,6.29m-3.42-8.159a4.041,4.041,0,1,0,5.289,2.165,4.046,4.046,0,0,0-5.289-2.165" fill="#fff"/>
              <path id="Trazado_825506" data-name="Trazado 825506" d="M98.023,33.814a.382.382,0,0,1-.471-.557,4.922,4.922,0,0,1,2.393-1.719.382.382,0,0,1,.265.717,4.285,4.285,0,0,0-2.015,1.415.38.38,0,0,1-.172.144" fill="#fff"/>
              <path id="Trazado_825507" data-name="Trazado 825507" d="M115.009,25.943c2.86-2.051,4.871-2.4,6.294-2.35l-.2.78c-1.271-.061-2.9.222-5.649,2.191a.382.382,0,1,1-.446-.621" fill="#fff"/>
              <path id="Trazado_825508" data-name="Trazado 825508" d="M110.145,54.023a15.841,15.841,0,0,0,9.352-9.785c-2.593,2.624-5.85,4.508-8.982,4.558a8.244,8.244,0,0,1-.98-.041Z" fill="#171612"/>
              <path id="Trazado_825509" data-name="Trazado 825509" d="M121.643,34.679a2.983,2.983,0,0,0,1.007.7,3.819,3.819,0,0,0,1.776.264c.018-.087.033-.174.046-.259.036-.2.066-.4.087-.594l.083-.02a3.687,3.687,0,0,1-.451.038,3.057,3.057,0,0,1-.768-.068,2.25,2.25,0,0,1-1.168-.641.421.421,0,0,0-.612.579" fill="#c6695d"/>
              <path id="Trazado_825510" data-name="Trazado 825510" d="M111.473,36.055s.592,3.687-2.429,4.537a3.219,3.219,0,0,1-4-2.082Z" fill="#fff"/>
              <path id="Trazado_825511" data-name="Trazado 825511" d="M109.957,41.833a1.674,1.674,0,0,0,.81-.767.282.282,0,0,0-.512-.235,1.147,1.147,0,0,1-1.138.582.282.282,0,1,0-.039.562,1.837,1.837,0,0,0,.879-.142" fill="#c6695d"/>
              <path id="Trazado_825512" data-name="Trazado 825512" d="M125.067,31.8a.422.422,0,0,0,.265-.4c-.083-2.984,3.061-4.977,3.092-5a.421.421,0,1,0-.443-.715c-.147.091-3.587,2.263-3.49,5.736a.421.421,0,0,0,.432.409.43.43,0,0,0,.144-.03" fill="#c6695d"/>
              <path id="Trazado_825513" data-name="Trazado 825513" d="M128.288,29.408a.435.435,0,0,0,.136-.088.421.421,0,0,0,.011-.595,2.889,2.889,0,0,0-2.751-.679.42.42,0,0,0,.215.813,2.045,2.045,0,0,1,1.93.45.42.42,0,0,0,.459.1" fill="#c6695d"/>
              <path id="Trazado_825514" data-name="Trazado 825514" d="M107.286,35.6a.416.416,0,0,0,.2-.23.42.42,0,0,0-.251-.539l-2.645-.96,1.756-1.164a.422.422,0,0,0,.185-.3l.652-5.324a.421.421,0,1,0-.835-.1l-.629,5.132-2.29,1.518a.421.421,0,0,0,.089.746l3.429,1.245a.421.421,0,0,0,.338-.022" fill="#c6695d"/>
              <path id="Trazado_825515" data-name="Trazado 825515" d="M107.365,28.93a.383.383,0,0,1-.357-.032.955.955,0,0,0-1.38.281.382.382,0,1,1-.632-.43,1.708,1.708,0,0,1,2.431-.491.382.382,0,0,1-.062.672" fill="#fff"/>
              <path id="Trazado_825516" data-name="Trazado 825516" d="M114.212,23.914a1.137,1.137,0,0,0,.312-.46,1.156,1.156,0,0,0-.683-1.486c-.143-.053-3.519-1.263-5.752,1.325a1.157,1.157,0,0,0,1.753,1.512,3.07,3.07,0,0,1,3.2-.667,1.157,1.157,0,0,0,1.174-.224" fill="#171612"/>
              <path id="Trazado_825517" data-name="Trazado 825517" d="M100.53,26.6a1.156,1.156,0,0,0,.821-.566c.488-.849,2.106-.815,2.513-.76a1.157,1.157,0,1,0,.313-2.292c-1.288-.176-3.756.026-4.832,1.9A1.156,1.156,0,0,0,100.53,26.6" fill="#171612"/>
              <path id="Trazado_825518" data-name="Trazado 825518" d="M169.824,145.716s-22.623,8.294-47.815,7.807c-10.072-.195-13.454-3.747-13.454-3.747-.5,2.452-2.739,3.832-5.872,5.42,0,0,28.645,10.107,51.892,4.549,18.8,1.728,15.249-14.029,15.249-14.029" fill="#314fa5"/>
              <path id="Trazado_825519" data-name="Trazado 825519" d="M111.825,263l-.949,7.361-12.248.009.95-7.36Z" fill="#eaad8f"/>
              <path id="Trazado_825520" data-name="Trazado 825520" d="M69.354,289.768l44.592-.035a6.24,6.24,0,0,0,.576-2.481c.263-3.778-.964-9.806-1.569-13.607-.074-.444-.137-.859-.186-1.234a13.161,13.161,0,0,1-.139-1.552c-.013-3.1-2.752-2.569-2.752-2.569-4.494,4.436-9.631-2.206-12.606-.024,0,0-1.281.923-4.808,4.116s-9.539,5.3-14.655,7.455c-6.606,2.775-8.471,5.544-8.83,7.451a3.5,3.5,0,0,0,.377,2.48" fill="#467b6c"/>
              <path id="Trazado_825521" data-name="Trazado 825521" d="M69.354,289.768l44.592-.035a6.24,6.24,0,0,0,.576-2.481l-45.545.036a3.5,3.5,0,0,0,.377,2.48" fill="#253f3d"/>
              <path id="Trazado_825522" data-name="Trazado 825522" d="M109.4,289.736h1.324a9.841,9.841,0,0,1-2.426-7.149,12.55,12.55,0,0,1,4.659-8.942c-.074-.444-.137-.858-.186-1.233a13.634,13.634,0,0,0-5.535,10.122,10.879,10.879,0,0,0,2.164,7.2" fill="#253f3d"/>
              <path id="Trazado_825523" data-name="Trazado 825523" d="M93.229,275.017a.736.736,0,0,0,.17-1.451l-2.788-.69a.735.735,0,1,0-.348,1.429l2.788.69a.728.728,0,0,0,.178.022" fill="#fff"/>
              <path id="Trazado_825524" data-name="Trazado 825524" d="M95.869,272.884a.736.736,0,0,0,.17-1.451l-2.788-.69a.735.735,0,1,0-.348,1.429l2.788.69a.728.728,0,0,0,.178.022" fill="#fff"/>
              <path id="Trazado_825525" data-name="Trazado 825525" d="M90.45,276.64a.736.736,0,0,0,.17-1.451l-2.788-.69a.732.732,0,0,0-.888.538.739.739,0,0,0,.54.891l2.788.69a.73.73,0,0,0,.178.022" fill="#fff"/>
              <path id="Trazado_825526" data-name="Trazado 825526" d="M87.671,278.2a.735.735,0,0,0,.17-1.45l-2.788-.691a.735.735,0,1,0-.348,1.429l2.788.69a.728.728,0,0,0,.178.022" fill="#fff"/>
              <path id="Trazado_825527" data-name="Trazado 825527" d="M84.64,279.646a.736.736,0,0,0,.17-1.451l-2.788-.69a.735.735,0,1,0-.348,1.429l2.788.69a.728.728,0,0,0,.178.022" fill="#fff"/>
              <path id="Trazado_825528" data-name="Trazado 825528" d="M81.352,280.878a.736.736,0,0,0,.169-1.451l-2.788-.69a.732.732,0,0,0-.888.537.74.74,0,0,0,.54.892l2.789.69a.716.716,0,0,0,.178.022" fill="#fff"/>
              <path id="Trazado_825529" data-name="Trazado 825529" d="M140.1,155.013s-31.933,13.768-42.088,24.077c-10.3,10.46-1.416,85.818-1.416,85.818a119.994,119.994,0,0,0,16.353.4c2.927-26.5,9.406-59.56,8-71.177,0,0,41.033-5.27,47.278-15.36,5.558-8.981,2.042-30.527,2.042-30.527Z" fill="#314fa5"/>
              <path id="Trazado_825530" data-name="Trazado 825530" d="M95.526,186.356a27.878,27.878,0,0,0,9.739,1.01c.446-.032.449-.731,0-.7a27.325,27.325,0,0,1-9.553-.986.35.35,0,0,0-.186.674" fill="#1c2b74"/>
              <path id="Trazado_825531" data-name="Trazado 825531" d="M96.863,261.19q8.042-.3,16.09-.3a.375.375,0,0,0,0-.749q-8.048,0-16.09.3c-.48.018-.482.766,0,.748" fill="#1c2b74"/>
              <path id="Trazado_825532" data-name="Trazado 825532" d="M131.72,157.242c-5.994,3.476-12.269,6.452-18.37,9.732-5.763,3.1-11.542,6.347-15.45,11.765A24.953,24.953,0,0,0,93.511,189.6c-.071.472.65.675.722.2A25.787,25.787,0,0,1,105.6,172.376c5.334-3.634,11.271-6.43,16.991-9.389,3.193-1.652,6.395-3.295,9.506-5.1a.374.374,0,0,0-.378-.646" fill="#1c2b74"/>
              <path id="Trazado_825533" data-name="Trazado 825533" d="M165.928,146.994a142.569,142.569,0,0,1,1.424,14.83c-.03,5.2-.451,12.236-4.755,15.874a21.911,21.911,0,0,1-6.873,3.379,84.768,84.768,0,0,1-8.818,2.509c-6.179,1.453-12.454,2.5-18.74,3.368-3.591.5-7.194.949-10.805,1.282a.379.379,0,0,0-.374.374,81.136,81.136,0,0,1,.026,15.715c-.4,3.826-1.158,7.592-1.824,11.377-.708,4.026-1.029,8.061-1.393,12.128-.464,5.2-.993,10.4-1.5,15.594-.552,5.69-1.1,11.384-1.45,17.091-.029.482.719.48.749,0,.627-10.288,1.829-20.537,2.776-30.8.4-4.344.664-8.69,1.395-12.995.613-3.609,1.359-7.193,1.814-10.827a80.1,80.1,0,0,0,.18-16.95,223.209,223.209,0,0,0,28.062-4.342c5.459-1.228,11.5-2.563,16.279-5.624,4.668-2.991,5.634-9.466,5.919-14.547.231-4.12-.682-13.586-1.308-17.682Z" fill="#1c2b74"/>
              <path id="Trazado_825534" data-name="Trazado 825534" d="M164.84,173.847a8.908,8.908,0,0,1-2.558-.411c-7.6-2.289-11.219-22.318-11.369-23.169l1.228-.217c.036.2,3.631,20.122,10.5,22.191,2.2.663,3.889.416,5.166-.754,5.54-5.075,1.45-25.1,1.408-25.306l1.221-.254c.178.852,4.273,20.928-1.786,26.479a5.448,5.448,0,0,1-3.81,1.441" fill="#fff"/>
              <path id="Trazado_825535" data-name="Trazado 825535" d="M138.829,153.2,80.042,162.73a.208.208,0,0,1-.238-.171l-1.184-7.306a.207.207,0,0,1,.171-.237l58.788-9.528a.206.206,0,0,1,.237.171L139,152.964a.207.207,0,0,1-.171.238" fill="#171612"/>
              <path id="Trazado_825536" data-name="Trazado 825536" d="M73.658,163.765a4.983,4.983,0,0,1-5.344-2.88l-17.79-39.664a4.043,4.043,0,0,1,3.042-5.645l26.5-4.295a4.043,4.043,0,0,1,4.314,2.288L105.3,158.637Z" fill="#171612"/>
              <path id="Trazado_825537" data-name="Trazado 825537" d="M86.224,151.371l-.887-2.151,1.792-.322-1.062-1.919,2.37-.427,1.062,1.919,1.466-.264L89.9,146.288l2.369-.427,1.063,1.919,2.073-.373.887,2.15-1.792.323.968,1.766,2.073-.373.887,2.15-1.792.323,1.062,1.919-2.369.426-1.062-1.918-1.466.264,1.062,1.918-2.37.427-1.062-1.919-2.073.374-.888-2.15,1.792-.323L88.3,151Zm5.411.966,1.466-.264-.967-1.766-1.466.264Z" fill="#c04d3a"/>
              <path id="Trazado_825538" data-name="Trazado 825538" d="M84.386,113.569l20.742,44.7,3.029-.491-20.742-44.7a4.05,4.05,0,0,0-4.316-2.291l-3.029.491a4.048,4.048,0,0,1,4.316,2.291" fill="#171612"/>
              <path id="Trazado_825539" data-name="Trazado 825539" d="M100.749,141.812a7.349,7.349,0,0,1,7.192-1.643c4.334,1.318,10.074,8.489,10.074,8.489l-13.1,2.124Z" fill="#eaad8f"/>
              <path id="Trazado_825540" data-name="Trazado 825540" d="M104.78,158.028a.531.531,0,0,0,.076-.027.451.451,0,0,0,.22-.6L84.453,112.785a.45.45,0,1,0-.817.378l20.622,44.618a.45.45,0,0,0,.522.247" fill="#5a554d"/>
              <path id="Trazado_825541" data-name="Trazado 825541" d="M80.6,137.607a3.675,3.675,0,0,1-2.859,5.3,6.375,6.375,0,0,1-6.569-3.773,3.675,3.675,0,0,1,2.859-5.3,6.375,6.375,0,0,1,6.569,3.773" fill="#5a554d"/>
              <path id="Trazado_825542" data-name="Trazado 825542" d="M141.6,68.6l.889.945.94,1.021c.631.684,1.263,1.376,1.889,2.075,1.252,1.4,2.5,2.805,3.72,4.234,2.45,2.844,4.811,5.748,7.048,8.679,2.217,2.943,4.332,5.911,6.145,8.9.9,1.5,1.751,2.978,2.481,4.445a32.6,32.6,0,0,1,1.782,4.235c.059.168.1.328.155.492l.038.122.01.028-.01-.045-.016-.09-.024-.166-.013-.147c-.021-.36.021-.487.044-.5a2.279,2.279,0,0,1-.124.995,15.754,15.754,0,0,1-.64,1.914c-.278.7-.61,1.441-.974,2.2-.72,1.518-1.574,3.089-2.49,4.66q-.688,1.179-1.426,2.362t-1.491,2.374c-1.015,1.583-2.079,3.156-3.159,4.73s-2.183,3.148-3.31,4.709-2.263,3.126-3.413,4.681l-1.734,2.324-.867,1.158-.851,1.123-.094.124a5.944,5.944,0,0,0,8.78,7.947l1.149-1.065,1.115-1.048q1.1-1.056,2.186-2.123c1.447-1.425,2.864-2.878,4.276-4.346s2.785-2.976,4.156-4.5,2.705-3.1,4.031-4.7q.993-1.2,1.97-2.44t1.919-2.532c1.266-1.724,2.506-3.509,3.7-5.45.594-.973,1.17-1.991,1.73-3.078a33.6,33.6,0,0,0,1.6-3.575,20.758,20.758,0,0,0,1.207-4.769,14.856,14.856,0,0,0,.022-3.455c-.015-.16-.044-.342-.069-.513s-.055-.346-.093-.53l-.056-.271-.043-.2-.056-.236c-.075-.313-.146-.635-.228-.94a49.656,49.656,0,0,0-2.359-6.863c-.908-2.132-1.887-4.158-2.945-6.094a108.854,108.854,0,0,0-6.847-10.924c-2.427-3.451-4.994-6.735-7.646-9.928-1.337-1.587-2.686-3.159-4.078-4.7-.7-.769-1.4-1.536-2.113-2.3l-1.09-1.139-1.166-1.192A9.518,9.518,0,0,0,141.414,68.4Z" fill="#eaad8f"/>
              <path id="Trazado_825543" data-name="Trazado 825543" d="M169.88,99.226a15.939,15.939,0,0,0-1.777,2.367c-.241.39.374.748.613.359a14.994,14.994,0,0,1,1.667-2.223c.306-.339-.195-.843-.5-.5" fill="#c6695d"/>
              <path id="Trazado_825544" data-name="Trazado 825544" d="M166.67,102.945a8.707,8.707,0,0,1,5.8-2.626c.451-.026.47.675.019.7a7.951,7.951,0,0,0-5.307,2.407c-.317.322-.827-.159-.51-.482" fill="#c6695d"/>
              <path id="Trazado_825545" data-name="Trazado 825545" d="M154.266,139.288a5.782,5.782,0,0,1-3.515,7.2,14.173,14.173,0,0,0-4.193,2.365c-2.551,2.33-4.918,5.792-6.54,6.6-2.393,1.2-1.584-1.573-1.436-1.9a39.969,39.969,0,0,1,2.753-4.8s-4.366,3.926-5.338,6.025-2.992,2.608-3.2.131,3.7-7.8,5.18-8.987a12.323,12.323,0,0,0-4.728,4.526c-1.411,2.8-2.291,3.612-3.351,4.311s-2.243-1.561-.174-5.417a13.847,13.847,0,0,1,5.6-6.008,23.164,23.164,0,0,0-4.279,1.545c-2.586,1.181-3.957,4.546-5.657,4.5-1.739-.045.012-3.851,1.916-5.519s3.149-3.041,6.211-4.086a40.894,40.894,0,0,1,8.008-2.127c1.984-.186,8.95-1.775,11.4-.273a3.547,3.547,0,0,1,1.349,1.906" fill="#eaad8f"/>
              <path id="Trazado_825546" data-name="Trazado 825546" d="M147,137.01s-5.894-1.512-7.872-.958-5.258.338-5,1.7,4.3,1.515,4.3,1.515Z" fill="#eaad8f"/>
              <path id="Trazado_825547" data-name="Trazado 825547" d="M136.579,67.128c1.017,4.786,9.591,10.924,14.176,16.507.2.24,1.579,1.7,1.768,1.928a29.06,29.06,0,0,1,2.845,3.824c7.561-4.715,11.291-7.623,14.54-12.859.161-.26.318-.522.465-.783a18.149,18.149,0,0,0,2.113-5.61A62.489,62.489,0,0,0,156.591,54.18q-.411-.283-.806-.546a44.525,44.525,0,0,0-7.013-3.94,20.594,20.594,0,0,0-6.785,3.564c-.238.192-.469.387-.693.59a13.8,13.8,0,0,0-4.715,13.28" fill="#c04d3a"/>
              <path id="Trazado_825548" data-name="Trazado 825548" d="M158.939,66.683c2.839,4.085,6.868,7.085,10.968,9.844.161-.26.318-.521.465-.783-3.773-2.534-7.482-5.276-10.218-8.933-2.665-3.564-4.316-8.209-3.564-12.632-.274-.189-.541-.371-.806-.546a17.4,17.4,0,0,0,3.155,13.05" fill="#df7668"/>
              <path id="Trazado_825549" data-name="Trazado 825549" d="M150.4,82.956a7.044,7.044,0,0,1,.7.678c1.329-4.123.475-9.025-.667-13.2-1.687-6.164-4.077-12.409-8.455-17.175q-.294-.321-.6-.634c-.412-.418-1.037.244-.625.664.18.184.358.371.532.56,4.042,4.382,6.329,10.08,7.964,15.743,1.177,4.081,2.344,9.145,1.147,13.366" fill="#df7668"/>
              <path id="Trazado_825550" data-name="Trazado 825550" d="M140.7,70.907q6.927,9.582,14.408,18.745c.305.374.833-.16.53-.531q-7.416-9.084-14.29-18.592c-.281-.388-.932-.014-.648.378" fill="#7e231a"/>
              <path id="Trazado_825551" data-name="Trazado 825551" d="M142.015,76.526l4.348,1.861c.439.187.822-.459.379-.648l-4.348-1.861c-.439-.187-.822.458-.379.648" fill="#7e231a"/>
              <path id="Trazado_825552" data-name="Trazado 825552" d="M105.534,104.666A78.589,78.589,0,0,0,96.82,79.392c-.233-.424-.881-.046-.648.378a78.028,78.028,0,0,1,8.639,25.1c.077.476.8.274.723-.2" fill="#7e231a"/>
            </g>
          </g>
        </g>
      </g>
      <g id="Grupo_1074122" data-name="Grupo 1074122" transform="translate(1109 183.398)">
        <g id="Grupo_1074121" data-name="Grupo 1074121" transform="translate(0)" clip-path="url(#clip-path-6)">
          <g id="Grupo_1074120" data-name="Grupo 1074120">
            <g id="Grupo_1074119" data-name="Grupo 1074119" clip-path="url(#clip-path-6)">
              <path id="Trazado_825553" data-name="Trazado 825553" d="M71.534,103.464l.894,1.431.876,1.38L75.086,109c1.2,1.8,2.425,3.588,3.666,5.367s2.525,3.534,3.825,5.287,2.645,3.485,4.018,5.214,2.79,3.444,4.277,5.142,3.03,3.391,4.7,5.074c.839.84,1.719,1.673,2.654,2.51s1.929,1.671,3.051,2.511a27.438,27.438,0,0,0,4,2.529c.416.209.851.415,1.342.617a16.146,16.146,0,0,0,1.611.575c.145.044.3.087.459.129l.239.061.119.03.166.037c.225.049.451.094.676.134s.445.064.668.09a12.875,12.875,0,0,0,2.508.022,14.068,14.068,0,0,0,2.125-.365,15.334,15.334,0,0,0,1.75-.565,17.727,17.727,0,0,0,2.7-1.343,25.393,25.393,0,0,0,3.754-2.819c1.046-.937,1.96-1.868,2.811-2.795s1.635-1.854,2.378-2.783c1.485-1.857,2.825-3.714,4.1-5.576s2.461-3.739,3.609-5.62c2.3-3.76,4.4-7.564,6.4-11.4.991-1.923,1.967-3.847,2.9-5.791q.7-1.458,1.39-2.926l.675-1.479.682-1.519a6.238,6.238,0,0,0-10.959-5.894l-.081.129-.8,1.267-.832,1.295L134,98.737c-1.128,1.723-2.257,3.445-3.412,5.142-2.293,3.406-4.648,6.749-7.055,9.971-1.207,1.607-2.438,3.177-3.672,4.7s-2.5,2.971-3.766,4.3c-.633.662-1.267,1.293-1.885,1.873a22.683,22.683,0,0,1-1.789,1.525,7.39,7.39,0,0,1-1.367.861c-.136.056-.217.065-.141.014a1.011,1.011,0,0,1,.242-.1,2.8,2.8,0,0,1,.568-.116,4.327,4.327,0,0,1,.933-.007c.092.007.185.018.276.034s.195.031.291.052l.069.017.025,0,.047.01c.035.009.061.014.081.018.1.024.13.031.132.024s-.031-.03-.081-.063a13.416,13.416,0,0,1-1.255-.954c-.538-.454-1.132-1.005-1.734-1.605s-1.217-1.251-1.835-1.929c-1.241-1.353-2.482-2.823-3.705-4.343q-.918-1.14-1.824-2.321t-1.813-2.374c-1.2-1.6-2.383-3.238-3.56-4.887s-2.344-3.318-3.5-5-2.3-3.374-3.437-5.072l-1.693-2.55-.84-1.269-.8-1.231-.083-.127a9.422,9.422,0,0,0-15.883,10.138" transform="translate(16.305 0)" fill="#c1725c"/>
              <path id="Trazado_825554" data-name="Trazado 825554" d="M83.288,89.535s-2.213,8.453-6.573,9.9c-3.672,1.218-9.648-4.807-9.648-4.807-2.336-2.969-2.66-4.685-3.233-8.025s4.707-6.556,4.707-6.556S73.31,67.39,75.419,66.512s-1.007,11.476-1.007,11.476a2.171,2.171,0,0,1,2.051-.343,20.342,20.342,0,0,1,7.429,5.387c1.493,1.944-.6,6.5-.6,6.5" transform="translate(87.091 0)" fill="#c1725c"/>
              <path id="Trazado_825555" data-name="Trazado 825555" d="M74.483,87.477a31.427,31.427,0,0,0,5.481-2.336c.818-.483,2.236-1.365,2.333-2.429.149-1.614-1.439-1.5-2.567-1.59-.478-.039-.482-.79,0-.75.936.076,2.173.02,2.9.733.914.9.341,2.324-.355,3.158C80.491,86.4,77.206,87.3,74.682,88.2c-.455.163-.651-.562-.2-.723" transform="translate(77.98 0)" fill="#7d351d"/>
              <path id="Trazado_825556" data-name="Trazado 825556" d="M65.785,82.958a20.2,20.2,0,0,0,8.99,5.2.375.375,0,0,1-.2.723,20.986,20.986,0,0,1-9.32-5.392.375.375,0,0,1,.53-.53" transform="translate(95.126 0)" fill="#7d351d"/>
              <path id="Trazado_825557" data-name="Trazado 825557" d="M75.069,87.928a8.192,8.192,0,0,0-2.089,7.763c.11.47-.613.67-.723.2A8.967,8.967,0,0,1,74.539,87.4c.331-.353.861.178.53.53" transform="translate(88.148 0)" fill="#7d351d"/>
              <path id="Trazado_825558" data-name="Trazado 825558" d="M69.982,84.121a16.952,16.952,0,0,1,3.009-5.665c.325-.358.854.174.531.531a16,16,0,0,0-2.817,5.333c-.166.449-.891.255-.723-.2" transform="translate(91.73 0)" fill="#7d351d"/>
              <path id="Trazado_825559" data-name="Trazado 825559" d="M67.261,86.314a20.779,20.779,0,0,1,2.968-5.757c.28-.388.931-.014.647.378a20.166,20.166,0,0,0-2.892,5.578c-.147.458-.872.262-.723-.2" transform="translate(97.123 0)" fill="#7d351d"/>
              <path id="Trazado_825560" data-name="Trazado 825560" d="M65.191,87.723l-.081.171c-.185.389-.8.113-.686-.289a11.335,11.335,0,0,1,2.467-4.647c.32-.363.848.169.53.53A10.44,10.44,0,0,0,65.148,87.8l-.686-.289.081-.172c.207-.435.854-.055.648.379" transform="translate(103.38 0)" fill="#7d351d"/>
              <path id="Trazado_825561" data-name="Trazado 825561" d="M75.38,78.561a8.484,8.484,0,0,0-.925,2.739c-.063.471-.813.477-.75,0a9.524,9.524,0,0,1,1.027-3.117c.222-.43.869-.051.648.378" transform="translate(86.183 0)" fill="#7d351d"/>
              <path id="Trazado_825562" data-name="Trazado 825562" d="M152.684,252.271h2.134a3.737,3.737,0,0,0,3.737-3.737v-30.41h-9.608v30.41a3.737,3.737,0,0,0,3.737,3.737" transform="translate(-72.192 0)" fill="#171612"/>
              <path id="Trazado_825563" data-name="Trazado 825563" d="M125.384,291.264v6.1h4.421v-2.756a1.407,1.407,0,0,1,1.407-1.408h18.931a1.183,1.183,0,0,1,1.183,1.183v2.981h5.14v-2.981a1.183,1.183,0,0,1,1.183-1.183h18.787a1.408,1.408,0,0,1,1.407,1.408v2.756h4.419v-6.1a2.484,2.484,0,0,0-2.484-2.484H156.466V210.156h-5.14V288.78H127.869a2.485,2.485,0,0,0-2.485,2.484" transform="translate(-72.336 0)" fill="#171612"/>
              <path id="Trazado_825564" data-name="Trazado 825564" d="M121.073,301.31a6.581,6.581,0,1,0,6.581-6.581,6.582,6.582,0,0,0-6.581,6.581" transform="translate(-19.999 0)" fill="#171612"/>
              <path id="Trazado_825565" data-name="Trazado 825565" d="M127.654,305.079a3.769,3.769,0,1,0-3.769-3.769,3.774,3.774,0,0,0,3.769,3.769" transform="translate(-19.998 0)" fill="#5a554d"/>
              <path id="Trazado_825566" data-name="Trazado 825566" d="M147.241,301.31a6.582,6.582,0,1,0,6.581-6.581,6.581,6.581,0,0,0-6.581,6.581" transform="translate(-72.335 0)" fill="#171612"/>
              <path id="Trazado_825567" data-name="Trazado 825567" d="M153.823,305.079a3.769,3.769,0,1,0-3.769-3.769,3.774,3.774,0,0,0,3.769,3.769" transform="translate(-72.336 0)" fill="#5a554d"/>
              <path id="Trazado_825568" data-name="Trazado 825568" d="M173.5,301.31a6.581,6.581,0,1,0,6.581-6.581,6.581,6.581,0,0,0-6.581,6.581" transform="translate(-124.857 0)" fill="#171612"/>
              <path id="Trazado_825569" data-name="Trazado 825569" d="M180.084,305.079a3.769,3.769,0,1,0-3.769-3.769,3.774,3.774,0,0,0,3.769,3.769" transform="translate(-124.858 0)" fill="#5a554d"/>
              <path id="Trazado_825570" data-name="Trazado 825570" d="M125.341,97.516l27.933,116.363a8.352,8.352,0,0,0,8.121,6.4h65.559a8.352,8.352,0,0,0,8.111-10.343L206.5,93.576a8.351,8.351,0,0,0-8.11-6.361h-64.93a8.351,8.351,0,0,0-8.121,10.3" transform="translate(-125.106 0)" fill="#5a554d"/>
              <path id="Trazado_825571" data-name="Trazado 825571" d="M118.125,97.516l27.933,116.363a8.352,8.352,0,0,0,8.121,6.4h65.559a8.352,8.352,0,0,0,8.111-10.343L199.286,93.576a8.351,8.351,0,0,0-8.11-6.361h-64.93a8.351,8.351,0,0,0-8.121,10.3" transform="translate(-110.674 0)" fill="#171612"/>
              <path id="Trazado_825572" data-name="Trazado 825572" d="M154.179,214.608h65.56a2.678,2.678,0,0,0,2.6-3.317L193.778,94.928a2.674,2.674,0,0,0-2.6-2.04h-64.93a2.678,2.678,0,0,0-2.6,3.3l27.933,116.363a2.673,2.673,0,0,0,2.6,2.053m37-120.97a1.924,1.924,0,0,1,1.873,1.469l28.563,116.362a1.928,1.928,0,0,1-1.873,2.389h-65.56a1.922,1.922,0,0,1-1.875-1.478L124.371,96.017a1.928,1.928,0,0,1,1.875-2.379Z" transform="translate(-110.675 0)" fill="#5a554d"/>
              <path id="Trazado_825573" data-name="Trazado 825573" d="M207.9,223.73H97.788a9.438,9.438,0,0,1-9.192-7.3l-1.474-6.339h117.6Z" transform="translate(-59.709 0)" fill="#5a554d"/>
              <path id="Trazado_825574" data-name="Trazado 825574" d="M194,223.73H92.478a9.438,9.438,0,0,1-9.192-7.3l-1.475-6.339H194a6.819,6.819,0,0,1,0,13.638" transform="translate(-47.321 0)" fill="#171612"/>
              <path id="Trazado_825575" data-name="Trazado 825575" d="M185.105,176.45q-1.548.423-3.073.792c-.427.1-.849.205-1.272.3a117.154,117.154,0,0,1-40.183,2.2c-.446-.053-.879-.108-1.3-.164a72.6,72.6,0,0,1-8.975-1.7l-.04-.01a50.2,50.2,0,0,0,1.512-9.758c.062-1.112.107-2.191.141-3.217v0c.059-1.919.072-3.656.061-5.093v-.08c-.006-.967-.022-1.793-.041-2.442,6.368-1.207,18.106-3.316,28.987-4.66,7.894-.976,15.338-1.549,19.949-1.084l.262,1.715.389,2.532.329,1.9.718,4.149,2.48,14.3Z" transform="translate(-80.061 0)" fill="#c1725c"/>
              <path id="Trazado_825576" data-name="Trazado 825576" d="M131.277,169.751s36.159,4.3,51.538-4.986c0,0,3.34,15.329,3.047,19.4-.7,9.744-55.286,7.587-56.663-1.941-.608-4.206,2.078-12.469,2.078-12.469" transform="translate(-79.68 0)" fill="#467b6c"/>
              <path id="Trazado_825577" data-name="Trazado 825577" d="M132.219,168.717a9.649,9.649,0,0,0-1.2,5.816s36.1,4.966,53.884-4.658a7.18,7.18,0,0,0-1.328-6.047s-13.963,9.5-51.352,4.889" transform="translate(-80.714 0)" fill="#253f3d"/>
              <path id="Trazado_825578" data-name="Trazado 825578" d="M183.593,155.785c-3.815.274-8.874.765-14.548,1.649-10.941,1.7-24.174,4.851-35.2,10.681.062-1.111.107-2.19.141-3.216v0c.06-1.918.072-3.655.061-5.093v-.079c-.006-.967-.022-1.794-.04-2.443,6.366-1.207,18.1-3.315,28.986-4.659,7.894-.976,15.338-1.55,19.949-1.084l.262,1.714Z" transform="translate(-82.128 0)" fill="#7d351d"/>
              <path id="Trazado_825579" data-name="Trazado 825579" d="M188.486,164.9v0c-6.225-.274-5-3.77-5-3.77l.045-.012,5.014-1.394v.08Z" transform="translate(-136.629 0)" fill="#b56d25"/>
              <path id="Trazado_825580" data-name="Trazado 825580" d="M198.379,130.771a12.027,12.027,0,0,1-.147,1.239c-.028.167-.063.337-.1.507a11.957,11.957,0,0,1-.35,1.2c-.085.244-.18.492-.282.739a34.126,34.126,0,0,1-5.4,8.369c-.175.208-.342.4-.5.575s-.32.355-.462.5c-.23.243-.425.44-.573.58-.082.075-.152.142-.22.2-.189.175-.3.265-.3.265,0,.027,0,.05,0,.077.007.2.017.4.03.617q.03.543.077,1.172.05.7.128,1.5c.007.085.017.172.024.26l.008.092c.013.122.022.247.037.375.076.769.163,1.6.263,2.476.087.782.185,1.6.29,2.453l-.01,0h0a28.418,28.418,0,0,0-3.048-.709h0c-5.611-1.007-12.514-.77-19.6.117q-1.547.192-3.1.425c-.567.085-1.132.173-1.7.262l0,0c-3.58.574-7.143,1.279-10.548,2.036-.27.06-.54.12-.81.182-4.979,1.127-9.593,2.359-13.393,3.448-1.9.542-3.587,1.049-5.021,1.494l.007-.1q.12-1.574.2-3.075.052-1.034.084-2.033c.01-.318.02-.633.028-.945q.052-2.079.022-4.02-.015-1.131-.06-2.218c-.012-.32-.024-.637-.042-.949-.045-.9-.1-1.782-.172-2.633,0-.041-.005-.078-.01-.118-.108-1.307-.278-2.758-.5-4.322q-.056-.4-.12-.8c-.612-4.005-1.571-8.679-2.8-13.538-.06-.24-.122-.48-.185-.722,0-.025-.012-.048-.017-.073-.243-.956-.5-1.923-.765-2.89-.075-.277-.152-.552-.232-.827-.043-.155-.088-.312-.13-.467-.033-.12-.07-.237-.1-.357-.1-.363-.2-.72-.312-1.082L128.245,119c-.185-.618-.372-1.235-.567-1.847-.01-.032-.02-.067-.03-.1-.063-.2-.125-.4-.19-.6s-.12-.379-.18-.569q-.607-1.893-1.259-3.74c-.255-.732-.5-1.469-.717-2.206-.045-.152-.09-.305-.133-.457-.069-.238-.137-.48-.2-.72-.058-.2-.11-.4-.16-.594v0c-.15-.587-.288-1.179-.412-1.769v0c-.06-.29-.118-.585-.175-.877v0c-.16-.879-.293-1.753-.385-2.618v0a27.265,27.265,0,0,1-.165-3.186c0-.282,0-.564.018-.841.012-.328.032-.653.06-.972q.033-.365.074-.725c0-.015,0-.025.005-.037.033-.25.068-.5.108-.745.02-.125.04-.247.062-.37l.073-.364c.025-.12.052-.24.077-.36v-.007c.023-.078.04-.158.058-.235.01-.038.02-.075.03-.115.027-.108.055-.215.085-.323.037-.142.077-.279.12-.419q.146-.472.317-.93c.007-.015.012-.032.02-.047.042-.11.087-.22.132-.33s.093-.217.138-.325.1-.224.157-.337c.1-.2.2-.4.3-.6.065-.115.127-.23.2-.342.052-.093.107-.18.165-.273.122-.2.249-.392.387-.579.065-.1.135-.19.205-.283.057-.072.115-.149.172-.222.02-.027.042-.052.065-.08.06-.072.12-.15.185-.222.167-.2.345-.392.529-.58q.1-.1.21-.21c.085-.085.173-.165.263-.247s.177-.157.269-.237.183-.155.278-.23c.062-.053.127-.1.192-.153a11.493,11.493,0,0,1,1.554-1.009c.075-.045.152-.087.23-.127s.162-.088.247-.128c.138-.07.28-.137.422-.2.045-.023.093-.042.138-.062.09-.04.175-.078.265-.115.4-.168.812-.32,1.246-.46.025-.01.053-.018.08-.027l.35-.108c.165-.047.332-.092.5-.137.417-.108.832-.213,1.244-.318s.817-.2,1.217-.3c5.074-1.237,9.341-2.019,10.907-2.294l.295-.052.135-.025a.054.054,0,0,0,.028,0,.853.853,0,0,1,.085-.015.068.068,0,0,0,.017-.005l.052-.007.028,0,2.069.312,19.134,2.9.637.1,1.179.178.475.072,2.233.34c2.156.39,4.047.777,5.709,1.179q.753.18,1.444.367c.335.088.657.178.969.27a25.182,25.182,0,0,1,4.7,1.8,11.182,11.182,0,0,1,2.331,1.6c.055.047.107.1.157.147a7.252,7.252,0,0,1,.537.565,1.771,1.771,0,0,1,.12.142,7.841,7.841,0,0,1,1.009,1.574c.061.125.123.25.178.38.115.26.217.527.307.8.038.1.073.213.108.325.052.173.105.347.152.527s.1.4.145.6c.052.227.1.462.15.7.012.057.022.115.032.175.025.132.048.267.07.4.02.112.038.224.055.339.008.05.018.1.025.158.088.574.165,1.179.237,1.816.018.172.038.345.061.522.014.145.029.292.047.44.015.165.035.332.052.5.07.647.143,1.329.22,2.041,0,.028.005.055.01.082.015.145.03.295.05.443.008.082.018.167.028.249s.022.193.032.29c.015.135.03.273.048.41.005.043.012.09.017.135.015.13.033.262.05.392.032.257.068.515.105.77.09.627.192,1.251.3,1.873v0c.05.272.1.54.153.809.007.045.017.09.025.135v0c.017.087.032.172.052.259.267,1.382.577,2.754.91,4.1,1.461,5.933,3.327,9.748,4.079,13.258.05.247.1.49.138.735a12.665,12.665,0,0,1,.172,2.975" transform="translate(-86.765 0)" fill="#e59f3f"/>
              <path id="Trazado_825581" data-name="Trazado 825581" d="M134.189,153.967a3.307,3.307,0,0,1-2.382,3.726l-.682-4.442a9.721,9.721,0,0,1,3.064.716" transform="translate(-30.05 0)" fill="#b56d25"/>
              <path id="Trazado_825582" data-name="Trazado 825582" d="M198.4,98.374a62.918,62.918,0,0,1-9.646,2.066c-8.312,1.114-16.436.168-24.633-1.324-8.646-1.574-17.58-3.42-26.364-1.769a29.082,29.082,0,0,0-7.25,2.366c0-.282,0-.564.017-.842a29.534,29.534,0,0,1,6.8-2.2c8.094-1.581,16.361-.222,24.363,1.242,8.332,1.521,16.581,2.88,25.07,2.016a61.619,61.619,0,0,0,11.517-2.3c.025.132.048.267.07.4.02.113.038.225.055.34" transform="translate(-93.601 0)" fill="#efc489"/>
              <path id="Trazado_825583" data-name="Trazado 825583" d="M191.894,88.021a78.3,78.3,0,0,1-50.368-1.054c.075-.045.153-.088.23-.128s.163-.087.247-.127c.138-.07.28-.138.423-.2a77.229,77.229,0,0,0,13.188,3.433,76.659,76.659,0,0,0,34.836-2.288q.753.18,1.444.367" transform="translate(-98.11 0)" fill="#efc489"/>
              <path id="Trazado_825584" data-name="Trazado 825584" d="M197.105,106.623q-1.683.683-3.41,1.264a61.958,61.958,0,0,1-19.454,3.248c-7.355.032-14.435-1.686-21.64-2.921-7.268-1.244-14.478-1.449-21.57.827-.438.14-.872.288-1.305.445-.07-.237-.137-.48-.2-.719q1.023-.372,2.066-.682c6.668-1.994,13.455-1.857,20.271-.75,7.46,1.214,14.767,3.083,22.377,3.05A61.234,61.234,0,0,0,197,105.854c.032.257.067.514.105.769" transform="translate(-91.322 0)" fill="#efc489"/>
              <path id="Trazado_825585" data-name="Trazado 825585" d="M135.387,127.8a14.4,14.4,0,0,1-7.225-1.084,7.38,7.38,0,0,1-4.252-6.186,13.542,13.542,0,0,1,6.121-12.027c.05.273.1.54.152.81a12.928,12.928,0,0,0-5.559,10.365,6.876,6.876,0,0,0,4.67,6.71,14.568,14.568,0,0,0,5.956.677c.05.248.1.49.137.735" transform="translate(-23.946 0)" fill="#efc489"/>
              <path id="Trazado_825586" data-name="Trazado 825586" d="M194.617,133.712c-.085.245-.18.492-.282.739-13.691-3.66-25.568-12.029-39.031-16.353-9.861-3.168-20.993-4.247-30.789-.942-.01-.033-.02-.068-.03-.1-.062-.2-.124-.4-.189-.6a40.315,40.315,0,0,1,9.79-2c14.83-1.192,28.453,5.267,41.429,11.567a112.218,112.218,0,0,0,19.1,7.685" transform="translate(-83.603 0)" fill="#efc489"/>
              <path id="Trazado_825587" data-name="Trazado 825587" d="M186.486,135.823q-3.669,2.649-7.547,4.982c-.038-.265-.078-.533-.12-.8q2.877-1.74,5.646-3.663c2.258-1.569,8.871-5.291,6.1-8.779-1.047-1.319-2.943-1.769-4.537-1.939a26.719,26.719,0,0,0-5.766.033,27.954,27.954,0,0,0-4.242.809c-.06-.239-.123-.479-.185-.722a28.417,28.417,0,0,1,6.775-.994c2.866-.072,7.652-.025,9.036,3.148,1.527,3.5-2.828,6.241-5.161,7.927" transform="translate(-132.49 0)" fill="#efc489"/>
              <path id="Trazado_825588" data-name="Trazado 825588" d="M188.174,142.82c-.175.207-.342.4-.5.575a35.031,35.031,0,0,1-6.39-4.058c-4.042-3.127-7.855-6.85-12.729-8.666-5.668-2.114-11.307-.317-16.409,2.428a114.758,114.758,0,0,0-22.127,15.727c-.012-.32-.025-.637-.042-.949q4.335-3.839,9.018-7.263a98,98,0,0,1,14.376-8.989c4.784-2.346,10.03-3.607,15.2-1.746,4.63,1.666,8.377,5.026,12.152,8.067a36.731,36.731,0,0,0,7.45,4.874" transform="translate(-82.841 0)" fill="#efc489"/>
              <path id="Trazado_825589" data-name="Trazado 825589" d="M188.121,156.1c-.27.06-.54.12-.809.182a7.579,7.579,0,0,0-8.222-4.7,18.875,18.875,0,0,0-9.9,4.432c.01-.318.02-.632.027-.945,4.365-3.365,11.442-6.385,16.144-2.7a8.423,8.423,0,0,1,2.763,3.73" transform="translate(-121.998 0)" fill="#efc489"/>
              <path id="Trazado_825590" data-name="Trazado 825590" d="M158.637,149.036a47.688,47.688,0,0,0-12.271.055,31.72,31.72,0,0,0-12.947,4.7c-.567.085-1.131.173-1.7.262a27,27,0,0,1,5.633-3.255c6.915-2.968,14.053-3.295,21.213-2.493.008.085.018.172.025.26l.008.092c.012.123.022.248.037.375" transform="translate(-55.048 0)" fill="#efc489"/>
              <path id="Trazado_825591" data-name="Trazado 825591" d="M174.717,86.135c.322,3.916-1.551,7.008-6.907,7.017-10.152.016-15.827-8.1-16.932-10.514.227-.04.346-.059.346-.059Z" transform="translate(-90.32 0)" fill="#b56d25"/>
              <path id="Trazado_825592" data-name="Trazado 825592" d="M131.567,145.9a.548.548,0,0,0,.456.3.54.54,0,0,0,.274-.053,31.523,31.523,0,0,1,19.987-1.6,34.184,34.184,0,0,0,13.8,1.086c-.013-.218-.023-.423-.029-.618l0-.077s.191-.162.516-.466a32.575,32.575,0,0,1-14-.982,32.059,32.059,0,0,0-20.747,1.672.545.545,0,0,0-.252.73" transform="translate(-62.769 0)" fill="#b56d25"/>
              <path id="Trazado_825593" data-name="Trazado 825593" d="M128.3,270.2l-4.28,17.232,12.54.831,8.051-18.063Z" transform="translate(-33.325 0)" fill="#c1725c"/>
              <path id="Trazado_825594" data-name="Trazado 825594" d="M147.626,308.971l-47.121-.553a6.584,6.584,0,0,1-.589-2.624c-.248-3.989,1.1-10.335,1.767-14.339.081-.468.151-.9.206-1.3a13.815,13.815,0,0,0,.16-1.637c.038-3.273,2.929-2.678,2.929-2.678,4.713,4.732,10.195-2.217,13.32.12,0,0,1.346.989,5.048,4.4s10.038,5.706,15.427,8.035c6.958,3.005,8.907,5.948,9.271,7.964a3.68,3.68,0,0,1-.418,2.612" transform="translate(-12.689 0)" fill="#171612"/>
              <path id="Trazado_825595" data-name="Trazado 825595" d="M147.6,308.971l-47.121-.553a6.584,6.584,0,0,1-.589-2.624l48.128.565a3.68,3.68,0,0,1-.418,2.612" transform="translate(-12.659 0)" fill="#5a554d"/>
              <path id="Trazado_825596" data-name="Trazado 825596" d="M143.962,308.475l-1.4-.017a10.338,10.338,0,0,0,2.622-7.515,13.3,13.3,0,0,0-4.851-9.488c.081-.467.15-.9.205-1.3a14.435,14.435,0,0,1,5.768,10.744,11.431,11.431,0,0,1-2.344,7.575" transform="translate(-51.338 0)" fill="#5a554d"/>
              <path id="Trazado_825597" data-name="Trazado 825597" d="M122.512,293.13a.776.776,0,0,1-.169-1.532l2.952-.7a.777.777,0,1,1,.357,1.512l-2.952.7a.759.759,0,0,1-.188.021" transform="translate(-12.686 0)" fill="#fff"/>
              <path id="Trazado_825598" data-name="Trazado 825598" d="M125.172,290.819a.777.777,0,0,1-.169-1.533l2.952-.7a.777.777,0,0,1,.357,1.512l-2.952.7a.759.759,0,0,1-.188.021" transform="translate(-18.005 0)" fill="#fff"/>
              <path id="Trazado_825599" data-name="Trazado 825599" d="M119.588,294.876a.777.777,0,0,1-.168-1.533l2.952-.7a.777.777,0,0,1,.356,1.512l-2.952.7a.759.759,0,0,1-.188.021" transform="translate(-6.838 0)" fill="#fff"/>
              <path id="Trazado_825600" data-name="Trazado 825600" d="M116.664,296.555a.777.777,0,0,1-.168-1.533l2.952-.7a.777.777,0,0,1,.356,1.512l-2.952.7a.757.757,0,0,1-.188.021" transform="translate(-0.99 0)" fill="#fff"/>
              <path id="Trazado_825601" data-name="Trazado 825601" d="M113.472,298.114a.777.777,0,0,1-.169-1.532l2.954-.7a.777.777,0,0,1,.356,1.512l-2.953.7a.754.754,0,0,1-.188.021" transform="translate(5.393 0)" fill="#fff"/>
              <path id="Trazado_825602" data-name="Trazado 825602" d="M110.007,299.452a.777.777,0,0,1-.168-1.533l2.952-.7a.777.777,0,0,1,.356,1.512l-2.952.7a.757.757,0,0,1-.188.021" transform="translate(12.324 0)" fill="#fff"/>
              <path id="Trazado_825603" data-name="Trazado 825603" d="M116.552,171.944s40.818,14.028,38.561,32.261-41.957,72.431-41.957,72.431l-16-2.84,7.894-29.677c4.6-16.52,6.56-25.741,12.659-33.016l-33.538-5.14s7.732-33.574,32.376-34.019" transform="translate(-4.069 0)" fill="#467b6c"/>
              <path id="Trazado_825604" data-name="Trazado 825604" d="M110.566,269.784a.617.617,0,0,1-.538-.826c.077-.214,7.789-21.633,11.636-37.127a50.709,50.709,0,0,1,14.169-23.962c-3.777-.353-10.008-1.667-10.31-1.731a.617.617,0,0,1,.256-1.208c.084.017,8.448,1.78,11.586,1.791a.617.617,0,0,1,.383,1.1,48.957,48.957,0,0,0-14.886,24.308c-3.862,15.556-11.595,37.033-11.673,37.248a.617.617,0,0,1-.623.407" transform="translate(-12.661 0)" fill="#253f3d"/>
              <path id="Trazado_825605" data-name="Trazado 825605" d="M140.544,273.119a.6.6,0,0,1-.084-.012l-17.025-3.559a.618.618,0,0,1,.253-1.209l17.024,3.56a.617.617,0,0,1-.168,1.22" transform="translate(-28.837 0)" fill="#253f3d"/>
              <path id="Trazado_825606" data-name="Trazado 825606" d="M36.272,252.522l10.693,13.139,10.8-7.605-9.929-16.418Z" transform="translate(141.274 0)" fill="#c1725c"/>
              <path id="Trazado_825607" data-name="Trazado 825607" d="M48.913,253.943,12.336,283.656a6.583,6.583,0,0,1-2.131-1.641c-2.741-2.908-5.767-8.647-7.812-12.153-.237-.411-.463-.791-.673-1.13a13.842,13.842,0,0,0-.924-1.36c-2.064-2.541.539-3.932.539-3.932,6.649.622,6.419-8.225,10.316-8.428,0,0,1.668-.1,6.694.153s11.366-2.034,17-3.69c7.27-2.14,10.651-1.124,12.219.193a3.679,3.679,0,0,1,1.35,2.275" transform="translate(186.397 0)" fill="#171612"/>
              <path id="Trazado_825608" data-name="Trazado 825608" d="M38.708,253.943,2.131,283.656A6.583,6.583,0,0,1,0,282.015l37.358-30.347a3.679,3.679,0,0,1,1.35,2.275" transform="translate(196.602 0)" fill="#5a554d"/>
              <path id="Trazado_825609" data-name="Trazado 825609" d="M47.193,280.625l-1.087.882a10.34,10.34,0,0,0-2.791-7.453,13.287,13.287,0,0,0-9.8-4.191c-.236-.411-.462-.792-.672-1.131A14.439,14.439,0,0,1,44.15,273.3a11.433,11.433,0,0,1,3.043,7.322" transform="translate(155.272 0)" fill="#5a554d"/>
              <path id="Trazado_825610" data-name="Trazado 825610" d="M28.59,257.827a.777.777,0,0,1-1.11-1.07l1.824-2.424a.777.777,0,0,1,1.241.934l-1.824,2.424a.806.806,0,0,1-.131.136" transform="translate(177.285 0)" fill="#fff"/>
              <path id="Trazado_825611" data-name="Trazado 825611" d="M32.112,257.751a.777.777,0,0,1-1.11-1.07l1.824-2.424a.777.777,0,0,1,1.241.934l-1.824,2.424a.806.806,0,0,1-.131.136" transform="translate(170.241 0)" fill="#fff"/>
              <path id="Trazado_825612" data-name="Trazado 825612" d="M25.226,257.3a.777.777,0,0,1-1.11-1.07L25.94,253.8a.777.777,0,0,1,1.241.934l-1.824,2.424a.806.806,0,0,1-.131.136" transform="translate(184.013 0)" fill="#fff"/>
              <path id="Trazado_825613" data-name="Trazado 825613" d="M21.9,256.72a.776.776,0,0,1-1.109-1.07l1.824-2.424a.776.776,0,1,1,1.24.934l-1.824,2.424a.806.806,0,0,1-.131.136" transform="translate(190.657 0)" fill="#fff"/>
              <path id="Trazado_825614" data-name="Trazado 825614" d="M18.454,255.877a.777.777,0,0,1-1.11-1.07l1.824-2.423a.776.776,0,1,1,1.241.933l-1.824,2.424a.805.805,0,0,1-.131.136" transform="translate(197.557 0)" fill="#fff"/>
              <path id="Trazado_825615" data-name="Trazado 825615" d="M14.934,254.689a.777.777,0,0,1-1.11-1.07l1.824-2.424a.777.777,0,0,1,1.241.934l-1.824,2.424a.805.805,0,0,1-.131.136" transform="translate(204.597 0)" fill="#fff"/>
              <path id="Trazado_825616" data-name="Trazado 825616" d="M186.866,250.527,172.86,259.48s-11-10.186-24.579-22.219-26.243-26.221-31.542-36.955c0,0-40.066,17.294-61.787,12.976-9.042-1.795-13.115-7.991-14.791-14.609a29.925,29.925,0,0,1-.593-2.978,48.928,48.928,0,0,1,.618-16.4s50.938-9.374,77.256-8.465c1.837.063,3.551.176,5.121.347a29.094,29.094,0,0,1,6.262,1.257c3.346,1.175,7.505,4.7,12.046,9.638.163.175.324.354.488.535,19.421,21.43,45.507,67.924,45.507,67.924" transform="translate(9.317 0)" fill="#467b6c"/>
              <path id="Trazado_825617" data-name="Trazado 825617" d="M108.551,182.067C94.21,184.6,87.692,176.01,85.122,170.825c1.837.064,3.551.176,5.122.347a29.176,29.176,0,0,1,6.262,1.258c3.346,1.175,7.5,4.7,12.045,9.637" transform="translate(41.637 0)" fill="#5fa68d"/>
              <path id="Trazado_825618" data-name="Trazado 825618" d="M131.584,222.989a.613.613,0,0,1-.334-.128c-9.875-7.652-15.185-18.808-16.431-21.661-5.169,2.995-21,7.654-21.7,7.86a.618.618,0,1,1-.348-1.185c.178-.053,17.807-5.241,21.984-8.092a.616.616,0,0,1,.923.286c.052.131,5.258,13.239,16.326,21.816a.618.618,0,0,1-.423,1.1" transform="translate(10.734 0)" fill="#253f3d"/>
              <path id="Trazado_825619" data-name="Trazado 825619" d="M41.823,256.436a.617.617,0,0,1-.3-1.132l14.254-9.372a.617.617,0,1,1,.678,1.032L42.2,256.336a.619.619,0,0,1-.382.1" transform="translate(137.326 0)" fill="#253f3d"/>
              <path id="Trazado_825620" data-name="Trazado 825620" d="M186.248,254.087a.623.623,0,0,1-.873,0c-.235-.235-23.548-23.324-34.795-33.273-10.153-8.984-16.294-22.929-17.535-25.931-4.168,1.643-30.145,11.527-54.293,12.852-10.928.6-17.79-2.589-21.62-5.371a22.275,22.275,0,0,1-3.993-3.693,30.322,30.322,0,0,1-.6-2.98,14.634,14.634,0,0,0,1.15,1.7,20.947,20.947,0,0,0,4.229,4.023c3.662,2.642,10.24,5.671,20.765,5.094,26-1.431,54.183-12.879,54.464-12.993a.6.6,0,0,1,.478,0,.611.611,0,0,1,.334.346c.061.159,6.293,16.169,17.437,26.026,11.269,9.971,34.609,33.087,34.844,33.318a.622.622,0,0,1,0,.877" transform="translate(-3.66 0)" fill="#253f3d"/>
              <path id="Trazado_825621" data-name="Trazado 825621" d="M198.338,25.928c-1.2,1.43-4.395,4.54-4.395,4.54l-4.627,3.381L185.4,37.281s-11.968,6.736-14.511,4.832c-1.568-1.176-1.408-3.266-1.053-4.694a9.418,9.418,0,0,1,.511-1.512,4.842,4.842,0,0,1-.79.266,3.6,3.6,0,0,1-4.538-2.118c-1.568-3.615,3.07-7.772,3.07-7.772a6.419,6.419,0,0,1-5.33-3.074c-1.664-3.079,4.684-8.7,4.684-8.7s-2.151-.391-1.128-4.2,5.178-2.837,5.178-2.837S170.849.574,175.833.032s8.7,5.906,8.7,5.906a8.046,8.046,0,0,1,7.722.286c4.01,2.39,1.653,9.994,1.653,9.994s4.108-1.992,7.044,1.427c1.851,2.155-.572,5.847-2.618,8.283" transform="translate(-128.783 0)" fill="#171612"/>
              <path id="Trazado_825622" data-name="Trazado 825622" d="M178.063,30.469s-6.353,1.447-8.546,6.813a4.765,4.765,0,0,0,2.977,1.551s1.033-3.6,5.966-5.686c0,0,.739-1.715-.4-2.678" transform="translate(-112.903 0)" fill="#d03f23"/>
              <path id="Trazado_825623" data-name="Trazado 825623" d="M174.342,58.669s4.308-1.092,5.306-7.27c1.625-10.063-5.3-19.116-17.788-20.422-16.356-1.71-18.517,3.4-21.525,9.812s-1.914,15.826,1.475,20.9c3.281,4.915,9.763,6.868,9.763,6.868Z" transform="translate(-83.15 0)" fill="#171612"/>
              <path id="Trazado_825624" data-name="Trazado 825624" d="M143.627,56.307a2.952,2.952,0,0,1,2.357,2.857c.319,2.62-1.119,6.936-3.743,6.326s1.386-9.183,1.386-9.183" transform="translate(-52.068 0)" fill="#7d351d"/>
              <path id="Trazado_825625" data-name="Trazado 825625" d="M141.93,66.093a2.367,2.367,0,1,0,2.657-2.036,2.367,2.367,0,0,0-2.657,2.036" transform="translate(-53.244 0)" fill="#fff"/>
              <path id="Trazado_825626" data-name="Trazado 825626" d="M151.52,82.961s3.367,6.825,10.972,8.155c9.66,1.69,10.893-2.458,10.893-2.458a18.336,18.336,0,0,1-.652-4.043c-.028-.532-.037-1.077-.027-1.641a44.66,44.66,0,0,1,.436-5.148c.06-.452.127-.923.2-1.408l.008-.057c-6.672-1.793-12.081-4.939-15.7-10.009l-.99-.632L156,65.292l-.137.389.091,1.252c.445,5.89-1.025,10.714-4.431,16.028" transform="translate(-89.595 0)" fill="#c1725c"/>
              <path id="Trazado_825627" data-name="Trazado 825627" d="M151.564,71.656c1.324,3.25,4.447,9.021,10.552,11.318a44.439,44.439,0,0,1,.436-5.148c.06-.452.126-.923.2-1.408-.133.012-.27.019-.406.024-3.667.132-7.589-1.875-10.781-4.786" transform="translate(-79.005 0)" fill="#7d351d"/>
              <path id="Trazado_825628" data-name="Trazado 825628" d="M140.977,55.367c-.339,3.635,2.323,8.373,7.064,8.948l.025,0h0l.1.014c.057.216.126.429.2.647.031.094.064.19.1.284a.152.152,0,0,0,.011.027c2.384,6.45,10.844,10.9,15.59,11.477a10.848,10.848,0,0,0,3.247-.117c5.146-.624,6.726-7.351,6.421-12.635a19.844,19.844,0,0,0-.249-2.184c-.008-.047-.017-.094-.025-.141,0,0,2.37-7.13,3.063-10.271,1.339-6.09-1.611-12.68-15.008-15.173S144.1,41.839,142.733,46.2c-.229.726-.492,5.157.18,5.938a3.624,3.624,0,0,0-1.936,3.23" transform="translate(-82.456 0)" fill="#c1725c"/>
              <path id="Trazado_825629" data-name="Trazado 825629" d="M158.671,44.857a6.683,6.683,0,0,1-3.32,5.749h0c-1.987,1.1-3.555,2.152-2.9,4.324.866,2.857.035,4.7-1.627,4.718-2.965.034-3.037-6.645-9.143-7.51,0,0-2.169-.665-1.591-4.511s8.169-14.238,18.2-12.7,18.535,7.315,18.241,14.434-1.69,5.592-1.69,5.592.144-.413-.321-6.19c-.417-5.183-16.6-7.291-15.852-3.9" transform="translate(-81.226 0)" fill="#171612"/>
              <path id="Trazado_825630" data-name="Trazado 825630" d="M169.766,64.013a2.367,2.367,0,1,0,2.657-2.037,2.367,2.367,0,0,0-2.657,2.037" transform="translate(-108.915 0)" fill="#fff"/>
              <g id="Grupo_1074115" data-name="Grupo 1074115" transform="translate(88.612 61.831)" opacity="0.5">
                <g id="Grupo_1074114" data-name="Grupo 1074114" transform="translate(0)">
                  <g id="Grupo_1074113" data-name="Grupo 1074113" transform="translate(0)" clip-path="url(#clip-path-8)">
                    <path id="Trazado_825631" data-name="Trazado 825631" d="M144.031,62.714c-.04.541,1.106,1.08,2.667,1.3a19.844,19.844,0,0,0-.249-2.184c-1.369.046-2.382.39-2.418.883" transform="translate(-144.03 -61.831)" fill="#7d351d"/>
                  </g>
                </g>
              </g>
              <path id="Trazado_825632" data-name="Trazado 825632" d="M151.988,69.834a1.7,1.7,0,0,1-.967-.59.286.286,0,0,1,.459-.342,1.164,1.164,0,0,0,1.254.336.286.286,0,0,1,.157.551,1.867,1.867,0,0,1-.9.045" transform="translate(-68.753 0)" fill="#7d351d"/>
              <path id="Trazado_825633" data-name="Trazado 825633" d="M150.9,67.941l-.048-.01a3.623,3.623,0,0,1-2.655-2.187.443.443,0,0,1,.838-.289,2.742,2.742,0,0,0,2.007,1.61l.039.008a2.689,2.689,0,0,0,2.352-.428.443.443,0,1,1,.612.641,3.554,3.554,0,0,1-3.145.655" transform="translate(-67.039 0)" fill="#7d351d"/>
              <path id="Trazado_825634" data-name="Trazado 825634" d="M148.572,64.124a.414.414,0,0,0,.228-.035l1.954-.911a.412.412,0,0,0,.067-.709,5.954,5.954,0,0,1-2.383-4.432.414.414,0,1,0-.821.1A6.885,6.885,0,0,0,149.8,62.71l-1.351.629a.414.414,0,0,0,.121.785" transform="translate(-63.297 0)" fill="#7d351d"/>
              <path id="Trazado_825635" data-name="Trazado 825635" d="M158.329,51.959a1,1,0,0,0,.855-1.777,2.915,2.915,0,0,0-1.981-.5,7.287,7.287,0,0,0-5.526,3.389s3.608-1.4,5.54-1.284a5.621,5.621,0,0,1,1.112.175" transform="translate(-75.965 0)" fill="#171612"/>
              <path id="Trazado_825636" data-name="Trazado 825636" d="M143.017,52.9a1,1,0,0,1-.364-1.938,2.916,2.916,0,0,1,2.044.029c3.574,1.254,3.465,3.911,3.465,3.911a13.322,13.322,0,0,0-4.025-1.882,5.6,5.6,0,0,0-1.12-.12" transform="translate(-54.868 0)" fill="#171612"/>
              <g id="Grupo_1074118" data-name="Grupo 1074118" transform="translate(73.348 60.595)" opacity="0.5">
                <g id="Grupo_1074117" data-name="Grupo 1074117" transform="translate(0)">
                  <g id="Grupo_1074116" data-name="Grupo 1074116" transform="translate(0)" clip-path="url(#clip-path-9)">
                    <path id="Trazado_825637" data-name="Trazado 825637" d="M161.962,62c-.046.617-1.62,1-3.515.858s-3.393-.758-3.347-1.375,1.621-1,3.515-.858,3.393.758,3.347,1.375" transform="translate(-155.1 -60.595)" fill="#7d351d"/>
                  </g>
                </g>
              </g>
              <path id="Trazado_825638" data-name="Trazado 825638" d="M166.22,64.315l.025,0h0l.1.014c.057.216.127.429.2.648.031.093.065.189.1.284a.181.181,0,0,0,.011.026,4.394,4.394,0,0,0,1.9-.555,3.492,3.492,0,0,0,1.067-.96.493.493,0,0,0-.794-.584,2.649,2.649,0,0,1-1.265.914,3.548,3.548,0,0,1-.882.188,4.045,4.045,0,0,1-.466.022" transform="translate(-100.634 0)" fill="#7d351d"/>
              <path id="Trazado_825639" data-name="Trazado 825639" d="M173.362,61.521a.493.493,0,0,1-.366-.43c-.335-3.48-4.277-5.341-4.317-5.36a.493.493,0,0,1,.412-.9c.184.085,4.5,2.111,4.886,6.161a.493.493,0,0,1-.443.538.514.514,0,0,1-.172-.014" transform="translate(-107.062 0)" fill="#7d351d"/>
              <path id="Trazado_825640" data-name="Trazado 825640" d="M170.21,59.214a.509.509,0,0,1-.171-.082.494.494,0,0,1-.1-.69,3.387,3.387,0,0,1,3.1-1.188.493.493,0,0,1-.132.977,2.4,2.4,0,0,0-2.178.8.491.491,0,0,1-.519.182" transform="translate(-107.996 0)" fill="#7d351d"/>
              <path id="Trazado_825641" data-name="Trazado 825641" d="M155.762,57.876c-.116.924-.6,1.624-1.078,1.563s-.775-.857-.66-1.781.6-1.624,1.079-1.563.775.857.659,1.781" transform="translate(-74.476 0)" fill="#171612"/>
              <path id="Trazado_825642" data-name="Trazado 825642" d="M153.069,55.859a.241.241,0,0,1-.1-.117.246.246,0,0,1,.135-.32c.106-.043,2.6-1.031,4.223.747a.246.246,0,0,1-.364.332c-1.393-1.527-3.651-.632-3.673-.623a.246.246,0,0,1-.223-.019" transform="translate(-75.036 0)" fill="#171612"/>
              <path id="Trazado_825643" data-name="Trazado 825643" d="M147.313,58.93c-.116.924-.6,1.624-1.079,1.563s-.774-.857-.659-1.781.6-1.624,1.079-1.563.775.857.659,1.781" transform="translate(-57.578 0)" fill="#171612"/>
              <path id="Trazado_825644" data-name="Trazado 825644" d="M144.38,56.842a.247.247,0,0,1,.058-.435c.107-.038,2.647-.905,4.182.947a.246.246,0,1,1-.379.314c-1.318-1.59-3.616-.805-3.639-.8a.248.248,0,0,1-.222-.03" transform="translate(-57.641 0)" fill="#171612"/>
              <path id="Trazado_825645" data-name="Trazado 825645" d="M166.656,100.88a5.1,5.1,0,0,0,.625.046,5.413,5.413,0,0,0,4.545-1.985c3.115-3.906,1.163-12.193,1.078-12.544a.52.52,0,1,0-1.011.244c.02.081,1.918,8.145-.881,11.653a4.366,4.366,0,0,1-3.718,1.592c-6.82-.084-15.588-16.791-15.676-16.96a.52.52,0,0,0-.923.48c.36.692,8.674,16.507,15.961,17.474" transform="translate(-88.912 0)" fill="#fff"/>
              <path id="Trazado_825646" data-name="Trazado 825646" d="M87.919,172.432l63.891-2.211a.221.221,0,0,0,.214-.23l-.274-7.94a.223.223,0,0,0-.23-.214l-63.891,2.211a.222.222,0,0,0-.215.23l.275,7.939a.222.222,0,0,0,.23.215" transform="translate(-4.128 0)" fill="#171612"/>
              <path id="Trazado_825647" data-name="Trazado 825647" d="M99.467,169.981a5.351,5.351,0,0,0,5.028-4.146l10.472-45.473a4.34,4.34,0,0,0-4.379-5.311l-28.805,1a4.34,4.34,0,0,0-4.066,3.308L65.078,171.171Z" transform="translate(55.152 0)" fill="#171612"/>
              <path id="Trazado_825648" data-name="Trazado 825648" d="M78.962,127.719c-.848,2.96-3.727,5.42-6.43,5.495s-4.209-2.264-3.361-5.224S72.9,122.57,75.6,122.5s4.208,2.264,3.36,5.224" transform="translate(87.177 0)" fill="#e59f3f"/>
              <path id="Trazado_825649" data-name="Trazado 825649" d="M75.433,126.852c-.169.592-.5,1.077-.733,1.084s-.288-.468-.118-1.06.5-1.078.732-1.084.289.468.119,1.06" transform="translate(85.295 0)" fill="#171612"/>
              <path id="Trazado_825650" data-name="Trazado 825650" d="M72.879,126.781c-.17.592-.5,1.077-.733,1.084s-.288-.468-.118-1.06.5-1.077.732-1.084.289.468.119,1.06" transform="translate(90.403 0)" fill="#171612"/>
              <path id="Trazado_825651" data-name="Trazado 825651" d="M73.414,130.463c-2.1.058-1.927-2.232-1.925-2.255a.34.34,0,0,1,.242-.282.152.152,0,0,1,.2.171c-.007.083-.142,1.949,1.614,1.9a3.586,3.586,0,0,0,2.738-2.021.3.3,0,0,1,.3-.184c.107.024.144.146.083.272-.011.023-1.153,2.341-3.258,2.4" transform="translate(87.124 0)" fill="#171612"/>
              <path id="Trazado_825652" data-name="Trazado 825652" d="M114.2,119.357l-12.533,51.388-3.292.114,12.533-51.388a4.346,4.346,0,0,1,4.068-3.311l3.292-.114a4.346,4.346,0,0,0-4.068,3.311" transform="translate(18.667 0)" fill="#171612"/>
              <path id="Trazado_825653" data-name="Trazado 825653" d="M102.179,170.422a.526.526,0,0,1-.086-.013.484.484,0,0,1-.356-.584l12.424-51.28a.484.484,0,0,1,.94.227l-12.424,51.281a.483.483,0,0,1-.5.369" transform="translate(18.472 0)" fill="#5a554d"/>
              <path id="Trazado_825654" data-name="Trazado 825654" d="M83.2,143.881a3.945,3.945,0,0,0,4.115,4.987,6.844,6.844,0,0,0,6.132-5.342,3.946,3.946,0,0,0-4.115-4.987,6.845,6.845,0,0,0-6.132,5.342" transform="translate(58.663 0)" fill="#5a554d"/>
              <path id="Trazado_825655" data-name="Trazado 825655" d="M199.239,154.889l-.077.312-1.767,7.263-.071.355s-22.868.889-29.776.889q-.876-.115-1.763-.227l-6.921-.86c-2.353-.305-4.764-.609-7.242-1.017a74.111,74.111,0,0,1-7.712-1.636c-1.342-.372-2.716-.807-4.13-1.354a30.956,30.956,0,0,1-4.354-2.064,23.482,23.482,0,0,1-4.432-3.287l-.532-.525-.13-.132c-.045-.043-.11-.118-.165-.175l-.335-.377c-.107-.123-.232-.263-.317-.373l-.273-.344-.264-.348c-.088-.117-.155-.215-.23-.325a22.791,22.791,0,0,1-1.457-2.373,42.187,42.187,0,0,1-1.878-4.072c-.515-1.282-.962-2.523-1.375-3.747-.821-2.446-1.506-4.835-2.153-7.2s-1.229-4.717-1.779-7.058c-1.107-4.684-2.1-9.338-3-14-.447-2.331-.907-4.657-1.334-6.988l-.635-3.5-.312-1.759-.31-1.8a9.366,9.366,0,0,1,18.46-3.185c.025.147.047.3.067.447l.013.115.2,1.649.215,1.684.467,3.38c.322,2.253.647,4.507,1.022,6.75.739,4.485,1.536,8.949,2.456,13.336.464,2.191.957,4.362,1.486,6.491s1.112,4.209,1.737,6.18c.314.982.642,1.931.979,2.808a22.428,22.428,0,0,0,1,2.274,6.7,6.7,0,0,0,.349.6l.01.017a.1.1,0,0,1,.018.018,6.4,6.4,0,0,0,1.152.852,19.423,19.423,0,0,0,4.419,1.756,57.064,57.064,0,0,0,5.908,1.289c4.213.732,8.772,1.214,13.466,1.8s9.566,1.277,14.6,2.4a68.387,68.387,0,0,1,7.665,2.159,47.646,47.646,0,0,1,7.807,3.5l.042.025c.31.175.917.175,1.2.38" transform="translate(-78.301 0)" fill="#c1725c"/>
              <path id="Trazado_825656" data-name="Trazado 825656" d="M175.277,141.4a9.8,9.8,0,0,0-4.471,2.229c-.361.316-.894-.212-.53-.531a10.6,10.6,0,0,1,4.8-2.421c.47-.1.672.622.2.723" transform="translate(-110.391 0)" fill="#7d351d"/>
              <path id="Trazado_825657" data-name="Trazado 825657" d="M175.09,141.466l-3.746-.268c-.479-.035-.483-.785,0-.75l3.746.268c.479.034.482.785,0,.75" transform="translate(-111.124 0)" fill="#7d351d"/>
              <path id="Trazado_825658" data-name="Trazado 825658" d="M152.353,160.425c5.37,1.036,10.52,2.654,16.016,3.028.479.033.482.783,0,.75-5.561-.379-10.78-2.006-16.215-3.055-.474-.091-.273-.814.2-.723" transform="translate(-85.303 0)" fill="#7d351d"/>
              <path id="Trazado_825659" data-name="Trazado 825659" d="M170.693,140.638c.015.014.029.03.043.044h0a.445.445,0,0,0-.048-.049c0-.005-.026-.023-.017-.015Z" transform="translate(-106.094 0)" fill="#c1725c"/>
              <path id="Trazado_825660" data-name="Trazado 825660" d="M170.633,140.726v0h0l0,0" transform="translate(-105.954 0)" fill="#c1725c"/>
            </g>
          </g>
        </g>
      </g>
    </g>
  </g>
</svg>
