<svg xmlns="http://www.w3.org/2000/svg" width="50" height="50" viewBox="0 0 50 50">
  <g id="Grupo_1073461" data-name="Grupo 1073461" transform="translate(-407.5 -2534)">
    <circle id="Elipse_9669" data-name="Elipse 9669" cx="25" cy="25" r="25" transform="translate(407.5 2534)" fill="#f0c52c"/>
    <g id="documentos_1_" data-name="documentos (1)" transform="translate(386 2541)">
      <g id="Grupo_1073459" data-name="Grupo 1073459" transform="translate(31.02 0.52)">
        <path id="Trazado_823628" data-name="Trazado 823628" d="M163.346,92.5H184.2a.346.346,0,0,1,.346.346v27.849a.346.346,0,0,1-.346.346H163.346a.346.346,0,0,1-.346-.346V92.846A.346.346,0,0,1,163.346,92.5Z" transform="translate(-154.341 -86.612)" fill="#f5f5f5"/>
        <path id="Trazado_823629" data-name="Trazado 823629" d="M182.986,92.5v26.636a.347.347,0,0,1-.346.346H163V92.846a.347.347,0,0,1,.346-.346Z" transform="translate(-154.341 -86.612)" fill="#e6e6e6"/>
        <path id="Trazado_823630" data-name="Trazado 823630" d="M141.7,50H120.846a.346.346,0,0,0-.346.346V78.195a.346.346,0,0,0,.346.346H141.7a.346.346,0,0,0,.346-.346V50.346A.346.346,0,0,0,141.7,50Z" transform="translate(-114.785 -47.056)" fill="#f5f5f5"/>
        <path id="Trazado_823631" data-name="Trazado 823631" d="M140.486,50V76.636a.347.347,0,0,1-.346.346H120.5V50.346a.346.346,0,0,1,.346-.346Z" transform="translate(-114.785 -47.056)" fill="#e6e6e6"/>
        <path id="Trazado_823632" data-name="Trazado 823632" d="M62.315,7.846V35.695a.346.346,0,0,1-.346.346H41.464A3.464,3.464,0,0,1,38,32.578v-.9a.346.346,0,0,1,.346-.346h2.09a.346.346,0,0,0,.335-.346V7.846a.346.346,0,0,1,.346-.346H61.969A.346.346,0,0,1,62.315,7.846Z" transform="translate(-38 -7.5)" fill="#f5f5f5"/>
        <path id="Trazado_823633" data-name="Trazado 823633" d="M119.3,63.15h-5.958A.346.346,0,0,1,113,62.8V56.846a.346.346,0,0,1,.346-.346H119.3a.346.346,0,0,1,.346.346V62.8A.346.346,0,0,1,119.3,63.15Z" transform="translate(-107.804 -53.106)" fill="#faa515"/>
        <g id="Grupo_1073458" data-name="Grupo 1073458" transform="translate(0 3.775)">
          <path id="Trazado_823634" data-name="Trazado 823634" d="M244.64,133.039h-7.62a.52.52,0,0,1,0-1.039h7.62a.52.52,0,0,1,0,1.039Z" transform="translate(-222.749 -127.151)" fill="#2b597f"/>
          <path id="Trazado_823635" data-name="Trazado 823635" d="M178.709,201.039h-7.69a.52.52,0,0,1,0-1.039h7.69a.52.52,0,0,1,0,1.039Z" transform="translate(-161.321 -190.44)" fill="#2b597f"/>
          <path id="Trazado_823636" data-name="Trazado 823636" d="M244.64,98.039h-7.62a.52.52,0,0,1,0-1.039h7.62a.52.52,0,0,1,0,1.039Z" transform="translate(-222.749 -94.575)" fill="#2b597f"/>
          <path id="Trazado_823637" data-name="Trazado 823637" d="M244.64,63.039h-7.62a.52.52,0,1,1,0-1.039h7.62a.52.52,0,1,1,0,1.039Z" transform="translate(-222.749 -62)" fill="#2b597f"/>
          <path id="Trazado_823638" data-name="Trazado 823638" d="M122.715,290.039h-16.7a.52.52,0,0,1,0-1.039h16.7a.52.52,0,0,1,0,1.039Z" transform="translate(-100.824 -273.275)" fill="#2b597f"/>
          <path id="Trazado_823639" data-name="Trazado 823639" d="M225.095,245.039H216.02a.52.52,0,0,1,0-1.039h9.075a.52.52,0,0,1,0,1.039Z" transform="translate(-203.204 -231.392)" fill="#2b597f"/>
          <path id="Trazado_823640" data-name="Trazado 823640" d="M110.75,245.039h-5.23a.52.52,0,0,1,0-1.039h5.23a.52.52,0,0,1,0,1.039Z" transform="translate(-100.359 -231.392)" fill="#2b597f"/>
          <path id="Trazado_823641" data-name="Trazado 823641" d="M58.906,356.2H41.464A3.464,3.464,0,0,1,38,352.738v-.9a.346.346,0,0,1,.346-.346H55.13a.346.346,0,0,1,.346.346v.9A3.464,3.464,0,0,0,58.906,356.2Z" transform="translate(-38 -331.436)" fill="#2b597f"/>
        </g>
      </g>
      <g id="Grupo_1073460" data-name="Grupo 1073460" transform="translate(30.5)">
        <path id="Trazado_823642" data-name="Trazado 823642" d="M61.223,5.888H58.8V3.464a.52.52,0,0,0-.52-.52H55.855V.52a.52.52,0,0,0-.52-.52H33.791a.52.52,0,0,0-.52.52V23.831H31.02a.52.52,0,0,0-.52.52V25.6a3.988,3.988,0,0,0,3.983,3.983h1.732v2.425a.52.52,0,0,0,.52.52h2.425v2.425a.52.52,0,0,0,.52.52H50.1a.52.52,0,1,0,0-1.039H40.2V32.525H58.279a.52.52,0,0,0,.52-.52V23.831a.52.52,0,0,0-1.039,0v7.655H37.254V29.58H55.335a.52.52,0,0,0,.52-.52V3.983H57.76V21.475a.52.52,0,1,0,1.039,0V6.927H60.7v27.5H52.46a.52.52,0,1,0,0,1.039h8.763a.52.52,0,0,0,.52-.52V6.408A.52.52,0,0,0,61.223,5.888ZM54.815,28.541H51.941A2.947,2.947,0,0,1,49,25.6V24.35a.52.52,0,0,0-.52-.52h-3.6a.52.52,0,1,0,0,1.039h3.083V25.6a3.974,3.974,0,0,0,1.3,2.944H34.483A2.947,2.947,0,0,1,31.539,25.6V24.87H42.45a.52.52,0,0,0,0-1.039H34.31V1.039H54.815Z" transform="translate(-30.5)"/>
        <path id="Trazado_823643" data-name="Trazado 823643" d="M106.02,56.69h6.65a.52.52,0,0,0,.52-.52V49.52a.52.52,0,0,0-.52-.52h-6.65a.52.52,0,0,0-.52.52v6.65A.52.52,0,0,0,106.02,56.69Zm.52-6.65h5.611V55.65h-5.611Z" transform="translate(-100.304 -45.606)"/>
        <path id="Trazado_823644" data-name="Trazado 823644" d="M244.64,132h-7.62a.52.52,0,0,0,0,1.039h7.62a.52.52,0,0,0,0-1.039Z" transform="translate(-222.229 -122.856)"/>
        <path id="Trazado_823645" data-name="Trazado 823645" d="M170.5,200.52a.52.52,0,0,0,.52.52h7.69a.52.52,0,0,0,0-1.039h-7.69A.52.52,0,0,0,170.5,200.52Z" transform="translate(-160.802 -186.145)"/>
        <path id="Trazado_823646" data-name="Trazado 823646" d="M244.64,97h-7.62a.52.52,0,0,0,0,1.039h7.62a.52.52,0,0,0,0-1.039Z" transform="translate(-222.229 -90.28)"/>
        <path id="Trazado_823647" data-name="Trazado 823647" d="M244.64,62h-7.62a.52.52,0,1,0,0,1.039h7.62a.52.52,0,1,0,0-1.039Z" transform="translate(-222.229 -57.705)"/>
        <path id="Trazado_823648" data-name="Trazado 823648" d="M122.715,289h-16.7a.52.52,0,0,0,0,1.039h16.7a.52.52,0,0,0,0-1.039Z" transform="translate(-100.304 -268.98)"/>
        <path id="Trazado_823649" data-name="Trazado 823649" d="M225.095,244H216.02a.52.52,0,0,0,0,1.039h9.075a.52.52,0,0,0,0-1.039Z" transform="translate(-202.684 -227.097)"/>
        <path id="Trazado_823650" data-name="Trazado 823650" d="M105.52,245.039h5.23a.52.52,0,0,0,0-1.039h-5.23a.52.52,0,0,0,0,1.039Z" transform="translate(-99.839 -227.097)"/>
      </g>
    </g>
  </g>
</svg>
