<svg xmlns="http://www.w3.org/2000/svg" width="295.488" height="327.806" viewBox="0 0 295.488 327.806">
  <g id="Grupo_1098901" data-name="Grupo 1098901" transform="translate(-1027.762 -3751.047)">
    <rect id="Rectángulo_400955" data-name="Rectángulo 400955" width="157.369" height="241.998" rx="11" transform="translate(1027.762 3751.047)" fill="#8722e2"/>
    <g id="Grupo_1098900" data-name="Grupo 1098900" transform="translate(1010 3785.07)">
      <g id="Grupo_1099206" data-name="Grupo 1099206" transform="translate(0)">
        <path id="Trazado_873465" data-name="Trazado 873465" d="M85.622,174.11H24.751a6.305,6.305,0,0,1-5.963-8.116l29.071-100.2a6.23,6.23,0,0,1,5.961-4.535h60.871a6.3,6.3,0,0,1,5.961,8.116l-29.069,100.2a6.23,6.23,0,0,1-5.961,4.535" transform="translate(174.625 36.144)" fill="#1c2123"/>
        <path id="Trazado_873466" data-name="Trazado 873466" d="M83.039,174.11H30.017a6.3,6.3,0,0,1-5.961-8.116l29.069-100.2a6.23,6.23,0,0,1,5.961-4.535h53.021a6.3,6.3,0,0,1,5.961,8.116L89,169.575a6.23,6.23,0,0,1-5.961,4.535" transform="translate(168.834 36.144)" fill="#edbc9c"/>
        <path id="Trazado_873467" data-name="Trazado 873467" d="M118.856,136.27H54.428a5.441,5.441,0,0,1,0-10.882h64.428a5.441,5.441,0,0,1,0,10.882" transform="translate(122.812 73.983)" fill="#1c2123"/>
        <rect id="Rectángulo_401197" data-name="Rectángulo 401197" width="52.074" height="5.479" transform="translate(198.19 283.069)" fill="#1c2123"/>
        <path id="Trazado_873468" data-name="Trazado 873468" d="M86.842,182.4a5.222,5.222,0,1,1-6.006-4.3,5.221,5.221,0,0,1,6.006,4.3" transform="translate(116.501 105.046)" fill="#1c2123"/>
        <rect id="Rectángulo_401198" data-name="Rectángulo 401198" width="5.479" height="75.905" transform="translate(220.802 209.406)" fill="#1c2123"/>
        <path id="Trazado_873469" data-name="Trazado 873469" d="M54.092,182.4a5.222,5.222,0,1,1-6-4.3,5.219,5.219,0,0,1,6,4.3" transform="translate(201.323 105.046)" fill="#1c2123"/>
        <path id="Trazado_873470" data-name="Trazado 873470" d="M108.248,136.27H43.82a5.441,5.441,0,1,1,0-10.882h64.428a5.441,5.441,0,0,1,0,10.882" transform="translate(150.287 73.983)" fill="#1c2123"/>
        <path id="Trazado_873471" data-name="Trazado 873471" d="M120.692,188.64l9.683-30.754,15.4-.817-9.659,33-14.856.094Z" transform="translate(-12.682 92.676)" fill="#edbc9c"/>
        <path id="Trazado_873472" data-name="Trazado 873472" d="M167.875,174.933s-12.738,5.239-18.721-3.018l-26.223,15.929,48.892-.315Z" transform="translate(-42.288 101.436)"/>
        <rect id="Rectángulo_401199" data-name="Rectángulo 401199" width="4.503" height="48.893" transform="matrix(-0.006, -1, 1, -0.006, 80.675, 293.784)" fill="#fff"/>
        <path id="Trazado_873473" data-name="Trazado 873473" d="M141,178.413a.852.852,0,0,1-.358-.272,17.842,17.842,0,0,0-4.029-3.929.8.8,0,0,1-.238-1.14.9.9,0,0,1,1.2-.229,19.172,19.172,0,0,1,4.471,4.331.8.8,0,0,1-.191,1.15.9.9,0,0,1-.851.089" transform="translate(-33.811 101.905)" fill="#fff"/>
        <path id="Trazado_873474" data-name="Trazado 873474" d="M143.645,179.738a.852.852,0,0,1-.358-.272,17.844,17.844,0,0,0-4.029-3.929.8.8,0,0,1-.239-1.14.9.9,0,0,1,1.2-.229,19.173,19.173,0,0,1,4.471,4.331.8.8,0,0,1-.191,1.15.9.9,0,0,1-.851.089" transform="translate(-40.667 102.686)" fill="#fff"/>
        <path id="Trazado_873475" data-name="Trazado 873475" d="M146.29,181.061a.858.858,0,0,1-.356-.272,17.88,17.88,0,0,0-4.031-3.929.8.8,0,0,1-.239-1.138.9.9,0,0,1,1.2-.229,19.13,19.13,0,0,1,4.473,4.33.8.8,0,0,1-.191,1.15.9.9,0,0,1-.852.089" transform="translate(-47.518 103.467)" fill="#fff"/>
        <path id="Trazado_873476" data-name="Trazado 873476" d="M156.7,101.551l-13.387.851a22.215,22.215,0,0,0-19.991,16.2L102.343,199.41l26.625,1.275L156.7,125.721Z" transform="translate(5.569 59.919)" fill="#6f82e8"/>
        <path id="Trazado_873477" data-name="Trazado 873477" d="M150.4,170.269h-35.11l2.436-12.944h35.108Z" transform="translate(-11.152 92.827)" fill="#a0b0ff"/>
        <path id="Trazado_873478" data-name="Trazado 873478" d="M93.512,188.488l.447-30.346,15.4-.817-.425,32.594-14.856.094Z" transform="translate(66.95 92.827)" fill="#edbc9c"/>
        <path id="Trazado_873479" data-name="Trazado 873479" d="M134.887,174.933s-12.738,5.239-18.721-3.018L89.943,187.844l48.892-.315Z" transform="translate(43.152 101.436)"/>
        <rect id="Rectángulo_401200" data-name="Rectángulo 401200" width="4.503" height="48.893" transform="matrix(-0.006, -1, 1, -0.006, 133.127, 293.784)" fill="#fff"/>
        <path id="Trazado_873480" data-name="Trazado 873480" d="M108.011,178.413a.852.852,0,0,1-.358-.272,17.842,17.842,0,0,0-4.029-3.929.8.8,0,0,1-.238-1.14.9.9,0,0,1,1.2-.229,19.172,19.172,0,0,1,4.471,4.331.8.8,0,0,1-.191,1.15.9.9,0,0,1-.851.089" transform="translate(51.629 101.905)" fill="#fff"/>
        <path id="Trazado_873481" data-name="Trazado 873481" d="M110.658,179.738a.852.852,0,0,1-.358-.272,17.792,17.792,0,0,0-4.031-3.929.8.8,0,0,1-.237-1.14.9.9,0,0,1,1.2-.229A19.173,19.173,0,0,1,111.7,178.5a.8.8,0,0,1-.191,1.15.9.9,0,0,1-.851.089" transform="translate(44.773 102.686)" fill="#fff"/>
        <path id="Trazado_873482" data-name="Trazado 873482" d="M113.3,181.061a.852.852,0,0,1-.358-.272,17.88,17.88,0,0,0-4.031-3.929.8.8,0,0,1-.238-1.138.9.9,0,0,1,1.2-.229,19.1,19.1,0,0,1,4.473,4.33.8.8,0,0,1-.191,1.15.9.9,0,0,1-.851.089" transform="translate(37.919 103.467)" fill="#fff"/>
        <path id="Trazado_873483" data-name="Trazado 873483" d="M143.632,97.23l-49.088,5.932H63.229a16.693,16.693,0,0,0-16.7,16.443c-.418,28.063,1.752,86.385,3.072,86.121,1.781-.356,27.417,0,27.417,0l2.606-63.722,42.719.356c4.408-1.24,33.407-5.54,21.291-45.132" transform="translate(104.534 57.369)" fill="#8292fd"/>
        <rect id="Rectángulo_401201" data-name="Rectángulo 401201" width="35.11" height="12.944" transform="translate(149.441 250.152)" fill="#a0b0ff"/>
        <path id="Trazado_873484" data-name="Trazado 873484" d="M92.517,84.035l28.171-4.063L115.65,94.184,90.157,95.378Z" transform="translate(60.959 47.187)" fill="#e3b99a"/>
        <path id="Trazado_873485" data-name="Trazado 873485" d="M124.123,82.43c4.864,3.136,6.414,7.766,1.784,11.52s-12.329,4.257-17.193,1.119-5.029-7.766-.4-11.52a13.44,13.44,0,0,1,15.807-1.119" transform="translate(29.441 47.422)" fill="#e3b99a"/>
        <path id="Trazado_873486" data-name="Trazado 873486" d="M77.956,80.235l27.762-2.554c5.053-.851,11.051,3.128,12.235,8.114a9.733,9.733,0,0,1-8.407,11.921L80.8,96.3Z" transform="translate(82.829 45.767)" fill="#fff"/>
        <path id="Trazado_873487" data-name="Trazado 873487" d="M88.409,55.437s-10.148,17.137-9.372,51.482l24.216,4.98-2.73-50.727Z" transform="translate(96.142 32.71)" fill="#beb4d0"/>
        <path id="Trazado_873488" data-name="Trazado 873488" d="M71.158,46.172s22.122-.7,29.432,15.264,12.952,69.392,12.952,69.392S93.018,142.992,55.226,133.3L45.6,60.919s10.154-15.53,25.555-14.748" transform="translate(138.948 27.226)" fill="#beb4d0"/>
        <path id="Trazado_873489" data-name="Trazado 873489" d="M82.154,62.13c.337,23.7,5.613,37.382,5.613,37.382" transform="translate(106.605 36.659)" fill="none" stroke="#dddada" stroke-miterlimit="10" stroke-width="0.976"/>
        <path id="Trazado_873490" data-name="Trazado 873490" d="M82.408,94.78,68.147,58.13c-.038-.073-1.762-2.266-1.8-2.339l-.013-.022,0,0a10.887,10.887,0,0,0-20.419,5.261c0,1.816-2.2,2.422-1.415,3.927.029.054,1.169,2.892,1.2,2.945l14.147,36.669c2.678,4.691,13.321,6.465,18.147,4.042A10.161,10.161,0,0,0,82.408,94.78" transform="translate(170.927 29.586)" fill="#beb4d0"/>
        <line id="Línea_582" data-name="Línea 582" x1="8.699" y1="22.383" transform="translate(218.637 98.239)" fill="none" stroke="#dddada" stroke-miterlimit="10" stroke-width="0.976"/>
        <path id="Trazado_873491" data-name="Trazado 873491" d="M69.951,82.3l28.171-4.061-5.037,14.21L67.591,93.64Z" transform="translate(119.406 46.162)" fill="#e3b99a"/>
        <path id="Trazado_873492" data-name="Trazado 873492" d="M101.557,80.692c4.864,3.136,6.414,7.766,1.784,11.52s-12.329,4.257-17.193,1.119-5.029-7.766-.4-11.52a13.44,13.44,0,0,1,15.807-1.119" transform="translate(87.888 46.396)" fill="#e3b99a"/>
        <path id="Trazado_873493" data-name="Trazado 873493" d="M44.327,78.986l45.353-3.87c5.055-.851,11.052,3.126,12.235,8.112A9.733,9.733,0,0,1,93.508,95.15l-46.335-.1Z" transform="translate(152.338 44.253)" fill="#beb4d0"/>
        <path id="Trazado_873494" data-name="Trazado 873494" d="M58.212,82.8l-.584-4.1,37.024-3.159" transform="translate(138.716 44.57)" fill="none" stroke="#dddada" stroke-miterlimit="10" stroke-width="0.976"/>
        <path id="Trazado_873495" data-name="Trazado 873495" d="M90.334,35.055s-12.75-9.493-6.921-18.289,16.409-1.175,16.409-1.175Z" transform="translate(94.975 7.391)" fill="#1f2326"/>
        <path id="Trazado_873496" data-name="Trazado 873496" d="M66.242,13.121s35.924-5.085,20.109,22.736L82.264,24.571Z" transform="translate(129.299 7.527)" fill="#1f2326"/>
        <path id="Trazado_873497" data-name="Trazado 873497" d="M88.331,17.762s-6.017,5.028,1.53,16.069l2.011-14.088Z" transform="translate(96.293 10.48)" fill="#1f2326"/>
        <path id="Trazado_873498" data-name="Trazado 873498" d="M94.668,31.729a5.464,5.464,0,0,1-4.676,6.118A5.406,5.406,0,0,1,84.051,33a5.465,5.465,0,0,1,4.676-6.118,5.407,5.407,0,0,1,5.94,4.846" transform="translate(96.711 15.84)" fill="#d39d7e"/>
        <path id="Trazado_873499" data-name="Trazado 873499" d="M69.461,39.51l4.6,17.35c1.105,4.754,4.306,3.684,6.723,3.6,3.762-.221,7.988-1.913,7.626-5.982L82.935,32.433Z" transform="translate(126.124 19.137)" fill="#edbc9c"/>
        <path id="Trazado_873500" data-name="Trazado 873500" d="M85.1,55.455h0c-7.519.382-14.021-5.438-14.549-11.769l-1.03-13.25a14.593,14.593,0,0,1,12.552-15.88c7.839-.94,16.325,4.7,17.258,12.8l.679,10.335A16.564,16.564,0,0,1,85.1,55.455" transform="translate(114.497 8.528)" fill="#edbc9c"/>
        <path id="Trazado_873501" data-name="Trazado 873501" d="M82.11,30.969l-.223,3.738,1.976,0" transform="translate(110.933 18.273)" fill="none" stroke="#000" stroke-linecap="round" stroke-linejoin="round" stroke-width="0.523"/>
        <path id="Trazado_873502" data-name="Trazado 873502" d="M78.69,25.258s-3.28-.149-3.26,1.226c0,0,.038.932,2.9,1s3.593-.172,3.821-1.056-1.926-1.224-3.46-1.173" transform="translate(122.896 14.9)" fill="#1f2326"/>
        <path id="Trazado_873503" data-name="Trazado 873503" d="M87,25.86s2.689-.393,2.959.889c0,0,.162.87-2.193,1.159s-3.137.01-3.388-.687c-.283-.79,1.34-1.29,2.622-1.361" transform="translate(100.934 15.225)" fill="#1f2326"/>
        <path id="Trazado_873504" data-name="Trazado 873504" d="M87.563,30.407a1.374,1.374,0,1,1-1.471-1.315,1.4,1.4,0,0,1,1.471,1.315" transform="translate(102.567 17.163)" fill="#1f2326"/>
        <path id="Trazado_873505" data-name="Trazado 873505" d="M80.01,29.852a1.374,1.374,0,1,1-1.471-1.315,1.4,1.4,0,0,1,1.471,1.315" transform="translate(122.13 16.836)" fill="#1f2326"/>
        <path id="Trazado_873506" data-name="Trazado 873506" d="M67.937,28.15s-.5-3.479,6.333-4.326,15.621-.275,20.488,5.812l.108,9.577,6.1-6.018L97.755,18.933,79.514,12.986,68.6,20.582Z" transform="translate(116.027 7.662)" fill="#1f2326"/>
        <path id="Trazado_873507" data-name="Trazado 873507" d="M75.68,30.482a5.411,5.411,0,0,1-4.63,6.06,5.355,5.355,0,0,1-5.883-4.8,5.412,5.412,0,0,1,4.63-6.06,5.353,5.353,0,0,1,5.883,4.8" transform="translate(145.724 15.132)" fill="#edbc9c"/>
        <path id="Trazado_873508" data-name="Trazado 873508" d="M67.173,31.633s-.453-3.935,3.261-3.754" transform="translate(147.785 16.446)" fill="none" stroke="#000" stroke-linecap="round" stroke-linejoin="round" stroke-width="0.523"/>
        <path id="Trazado_873509" data-name="Trazado 873509" d="M69.251,17.466S67.624,13.31,73.348,11c4.923-1.984,10.012-1.138,21,6.3Z" transform="translate(120.883 5.949)" fill="#1f2326"/>
        <path id="Trazado_873510" data-name="Trazado 873510" d="M69.784,45.467A2.168,2.168,0,0,1,71.1,43.508a22.067,22.067,0,0,1,5.551-1.531c3.3-.517,8.069.531,10.637,1.208a2.424,2.424,0,0,0,2.781-1.247,30.231,30.231,0,0,0,2.457-20.647l3.8,2.751-.5,5.84S92.858,36.2,97.5,39.008c0,0,.221,13.08-11.9,15.439a18.144,18.144,0,0,1-10.726-1.423,8.834,8.834,0,0,1-5.091-7.557" transform="translate(116.543 12.563)" fill="#1f2326"/>
        <path id="Trazado_873511" data-name="Trazado 873511" d="M71.217,47.7s-1.247.272-5.236,2.608c0,0-1.988,6.246,9.485,5.411,11.078-.806,15.228-8.335,15.228-8.335a26.423,26.423,0,0,0-9.65-1.215A68.969,68.969,0,0,0,71.217,47.7" transform="translate(129.605 27.204)" fill="#edbc9c"/>
        <path id="Trazado_873512" data-name="Trazado 873512" d="M76.422,29.934s-7.968-1.859-4.9-9.636,6.816,2.113,6.816,2.113Z" transform="translate(134.047 10.217)" fill="#1f2326"/>
        <path id="Trazado_873513" data-name="Trazado 873513" d="M147.341,85.805h-39.7a1.6,1.6,0,1,0,0,3.2h39.7a1.6,1.6,0,0,0,0-3.2" transform="translate(7.445 50.628)" fill="#121314"/>
        <path id="Trazado_873514" data-name="Trazado 873514" d="M123.378,85.805H94.818a1.6,1.6,0,1,0,0,3.2h28.56a1.6,1.6,0,0,0,0-3.2" transform="translate(51.801 50.628)" fill="#455157"/>
        <path id="Trazado_873515" data-name="Trazado 873515" d="M195.545,100.865H111.771a3.736,3.736,0,0,1-3.735-3.735V43.595a3.736,3.736,0,0,1,3.735-3.735h83.774a3.736,3.736,0,0,1,3.735,3.735V97.13a3.736,3.736,0,0,1-3.735,3.735" transform="translate(-46.061 23.519)" fill="#455157"/>
        <path id="Trazado_873516" data-name="Trazado 873516" d="M196.8,100.865H113.03a3.736,3.736,0,0,1-3.735-3.735V43.595a3.736,3.736,0,0,1,3.735-3.735H196.8a3.736,3.736,0,0,1,3.735,3.735V97.13a3.736,3.736,0,0,1-3.735,3.735" transform="translate(-49.322 23.519)" fill="#2e353a"/>
        <path id="Trazado_873517" data-name="Trazado 873517" d="M130.127,57.7l21.865,32.639H120.541Z" transform="translate(-18.656 34.045)" fill="#121314"/>
        <path id="Trazado_873518" data-name="Trazado 873518" d="M145.827,57.175h14.065a1.994,1.994,0,0,1,1.954,2.391L152.764,104.3a2,2,0,0,1-1.954,1.6H136.045a2,2,0,0,1-1.948-2.422l9.782-44.729a1.992,1.992,0,0,1,1.948-1.568" transform="translate(-50.032 33.735)" fill="#455157"/>
        <path id="Trazado_873519" data-name="Trazado 873519" d="M156.177,85.805H130.229V89h25.948a1.6,1.6,0,0,0,0-3.2" transform="translate(-39.843 50.628)" fill="#455157"/>
        <line id="Línea_583" data-name="Línea 583" y2="148.877" transform="translate(72.861 144.609)" fill="none" stroke="#e8e2df" stroke-miterlimit="10" stroke-width="1.952"/>
        <line id="Línea_584" data-name="Línea 584" y2="148.877" transform="translate(211.399 144.609)" fill="none" stroke="#e8e2df" stroke-miterlimit="10" stroke-width="1.952"/>
        <rect id="Rectángulo_401202" data-name="Rectángulo 401202" width="149.595" height="9.96" transform="translate(37.773 139.629)" fill="#baaea7"/>
        <rect id="Rectángulo_401203" data-name="Rectángulo 401203" width="55.821" height="9.96" transform="translate(187.368 139.629)" fill="#e8e2df"/>
        <line id="Línea_585" data-name="Línea 585" x2="235" transform="translate(37.5 293.293)" fill="none" stroke="#baaea7" stroke-miterlimit="10" stroke-width="0.976"/>
        <ellipse id="Elipse_11463" data-name="Elipse 11463" cx="24.114" cy="24.114" rx="24.114" ry="24.114" transform="translate(264.533 0.777)" fill="none" stroke="#baaea7" stroke-miterlimit="10" stroke-width="0.976"/>
        <path id="Trazado_873520" data-name="Trazado 873520" d="M39.144,9.171V19.48H22.862" transform="translate(249.504 5.411)" fill="none" stroke="#baaea7" stroke-miterlimit="10" stroke-width="0.976"/>
      </g>
    </g>
  </g>
</svg>
