<svg xmlns="http://www.w3.org/2000/svg" xmlns:xlink="http://www.w3.org/1999/xlink" width="365" height="467" viewBox="0 0 365 467">
  <defs>
    <clipPath id="clip-path">
      <rect id="Rect치ngulo_383223" data-name="Rect치ngulo 383223" width="365" height="467" rx="11" transform="translate(1020 3751)" fill="#bae9d9"/>
    </clipPath>
    <clipPath id="clip-path-2">
      <rect id="Rect치ngulo_383222" data-name="Rect치ngulo 383222" width="212.118" height="445.406" fill="none"/>
    </clipPath>
  </defs>
  <g id="Grupo_1074128" data-name="Grupo 1074128" transform="translate(-1020 -3751)">
    <path id="Trazado_872954" data-name="Trazado 872954" d="M11,0H354a11,11,0,0,1,11,11V456a11,11,0,0,1-11,11H11A11,11,0,0,1,0,456V11A11,11,0,0,1,11,0Z" transform="translate(1020 3751)" fill="#d6e1fd"/>
    <g id="Enmascarar_grupo_173" data-name="Enmascarar grupo 173" clip-path="url(#clip-path)">
      <g id="Grupo_1074127" data-name="Grupo 1074127" transform="translate(-107.025 3646.624)">
        <path id="Trazado_818450" data-name="Trazado 818450" d="M384.36,84.775l-65.29-65.29L257.6,80.957,195.786,19.14,131.192,83.734l-63.9-63.9L9.57,77.559,0,67.988,67.293.7l63.9,63.895L195.786,0,257.6,61.813,319.07.346l65.29,65.29,61.2-61.2,9.574,9.566Z" transform="translate(1089.025 113.031)" fill="#aec4fa"/>
        <path id="Trazado_818451" data-name="Trazado 818451" d="M384.36,101.571,319.07,36.285,257.6,97.748,195.786,35.935,131.192,100.53l-63.9-63.9L9.57,94.358,0,84.784,67.293,17.491l63.9,63.9L195.786,16.8,257.6,78.612,319.07,17.145l65.29,65.286,61.2-61.2L455.13,30.8Z" transform="translate(1089.025 162.218)" fill="#aec4fa"/>
        <path id="Trazado_818452" data-name="Trazado 818452" d="M384.36,118.366,319.07,53.08,257.6,114.547,195.786,52.735l-64.594,64.59-63.9-63.9L9.57,111.153,0,101.579,67.293,34.286l63.9,63.9L195.786,33.59,257.6,95.407,319.07,33.94l65.29,65.286,61.2-61.2,9.574,9.57Z" transform="translate(1089.025 211.404)" fill="#aec4fa"/>
        <path id="Trazado_818453" data-name="Trazado 818453" d="M384.36,135.162l-65.29-65.29L257.6,131.339,195.786,69.527l-64.594,64.594-63.9-63.9L9.57,127.945,0,118.375,67.293,51.082l63.9,63.9,64.594-64.594L257.6,112.2,319.07,50.732l65.29,65.29,61.2-61.2,9.574,9.57Z" transform="translate(1089.025 260.593)" fill="#aec4fa"/>
        <path id="Trazado_818454" data-name="Trazado 818454" d="M384.36,151.957l-65.29-65.29L257.6,148.135,195.786,86.322l-64.594,64.594-63.9-63.9L9.57,144.744,0,135.174l67.293-67.3,63.9,63.9,64.594-64.594L257.6,129,319.07,67.531l65.29,65.29,61.2-61.2,9.574,9.57Z" transform="translate(1089.025 309.78)" fill="#aec4fa"/>
        <path id="Trazado_818455" data-name="Trazado 818455" d="M384.36,168.752l-65.29-65.286L257.6,164.934l-61.817-61.813-64.594,64.59-63.9-63.9L9.57,161.54,0,151.966,67.293,84.672l63.9,63.9,64.594-64.594L257.6,145.794,319.07,84.327l65.29,65.286,61.2-61.2,9.574,9.57Z" transform="translate(1089.025 358.968)" fill="#aec4fa"/>
      </g>
    </g>
    <g id="Grupo_1074126" data-name="Grupo 1074126" transform="translate(1096 3772.594)">
      <g id="Grupo_1074125" data-name="Grupo 1074125" transform="translate(0 0)" clip-path="url(#clip-path-2)">
        <path id="Trazado_825661" data-name="Trazado 825661" d="M32.9,335.06l4.072,14.093c-4.91,4.138-9.744,3.641-14.559,1.938l-4.935-13.53Z" transform="translate(154.652 58.902)" fill="#f0c9b9"/>
        <path id="Trazado_825662" data-name="Trazado 825662" d="M47.684,361.332l-1.92,3.363-.639,1.124-8.749,15.326a7.166,7.166,0,0,1-6.3,3.614c-4.682-.052-12.362-.112-18.193-.028a1.691,1.691,0,0,1-1.95-1.886c.011-3.217,4.419-9.565,7.326-10.926,0,0,4.816-16.973,3.149-20.921-2.851-6.744,1.337-7.089,5.415-5.029,2.076,1.045,2.629,2.6,4.169,2.617,2.413.031,7.749-2.435,7.749-2.435s1.947-2.615,2.582-.036a19.289,19.289,0,0,0,1.075,2.716c.26.58.558,1.212.878,1.879,1.461,3.051,3.379,6.751,4.493,8.882.562,1.065.919,1.739.919,1.739" transform="translate(152.787 60.625)" fill="#f26d76"/>
        <path id="Trazado_825663" data-name="Trazado 825663" d="M16.881,364.1l-.641,1.124c-3.319-2.388-4.916-6.289-4.645-11.424a27.429,27.429,0,0,1,.916-5.563c.262.579.558,1.212.876,1.878a24.644,24.644,0,0,0-.509,3.783c-.237,4.649,1.106,8.069,4,10.2" transform="translate(181.669 61.219)" fill="#242645"/>
        <path id="Trazado_825664" data-name="Trazado 825664" d="M47.684,359.129,36.374,378.942a7.166,7.166,0,0,1-6.3,3.614c-4.682-.052-12.362-.112-18.193-.028a1.691,1.691,0,0,1-1.95-1.886l20.038-.067a5.976,5.976,0,0,0,5.157-2.992L46.765,357.39c.562,1.065.919,1.739.919,1.739" transform="translate(152.787 62.827)" fill="#242645"/>
        <path id="Trazado_825665" data-name="Trazado 825665" d="M33.57,354.877a1.107,1.107,0,0,0,.9-.941.932.932,0,0,0-1.059-.9l-4.342.15a1.153,1.153,0,0,0-1.164.977.93.93,0,0,0,1.059.9l4.342-.151a1.26,1.26,0,0,0,.269-.036" transform="translate(144.922 62.062)" fill="#fff"/>
        <path id="Trazado_825666" data-name="Trazado 825666" d="M36.2,366.94a1.106,1.106,0,0,0,.894-.941.93.93,0,0,0-1.059-.9l-4.341.15a1.156,1.156,0,0,0-1.165.977.931.931,0,0,0,1.059.9l4.342-.151a1.358,1.358,0,0,0,.27-.036" transform="translate(139.209 64.183)" fill="#fff"/>
        <path id="Trazado_825667" data-name="Trazado 825667" d="M35.338,363.7a1.106,1.106,0,0,0,.894-.941.93.93,0,0,0-1.059-.9l-4.341.15a1.156,1.156,0,0,0-1.165.977.931.931,0,0,0,1.059.9l4.342-.151a1.27,1.27,0,0,0,.27-.036" transform="translate(141.082 63.614)" fill="#fff"/>
        <path id="Trazado_825668" data-name="Trazado 825668" d="M34.751,360.782a1.107,1.107,0,0,0,.894-.941.93.93,0,0,0-1.059-.9l-4.341.15a1.156,1.156,0,0,0-1.165.977.931.931,0,0,0,1.059.9l4.342-.151a1.354,1.354,0,0,0,.27-.036" transform="translate(142.358 63.1)" fill="#fff"/>
        <path id="Trazado_825669" data-name="Trazado 825669" d="M34.164,357.859a1.106,1.106,0,0,0,.894-.941.931.931,0,0,0-1.059-.9l-4.342.15a1.155,1.155,0,0,0-1.164.977.93.93,0,0,0,1.059.9l4.342-.15a1.272,1.272,0,0,0,.27-.036" transform="translate(143.633 62.586)" fill="#fff"/>
        <path id="Trazado_825670" data-name="Trazado 825670" d="M116.149,343.121l-1.113,19.96-15.021.136L98.7,342.949Z" transform="translate(-19.817 60.289)" fill="#f0c9b9"/>
        <path id="Trazado_825671" data-name="Trazado 825671" d="M96.838,382.762l53.6-.046a7.548,7.548,0,0,0,.7-2.984c.331-4.544-1.12-11.8-1.832-16.367-.087-.534-.161-1.032-.218-1.484a15.921,15.921,0,0,1-.162-1.867c0-3.732-3.3-3.089-3.3-3.089-5.419,5.335-11.567-2.654-15.151-.028,0,0-1.544,1.111-5.8,4.951s-11.486,6.38-17.644,8.968c-7.95,3.339-10.2,6.67-10.642,8.963a4.2,4.2,0,0,0,.442,2.983" transform="translate(-52.054 62.645)" fill="#f26d76"/>
        <path id="Trazado_825672" data-name="Trazado 825672" d="M96.88,379.266l53.6-.046a7.547,7.547,0,0,0,.7-2.984l-54.744.047a4.2,4.2,0,0,0,.442,2.983" transform="translate(-52.095 66.14)" fill="#242645"/>
        <path id="Trazado_825673" data-name="Trazado 825673" d="M100.5,381.894h1.592a11.812,11.812,0,0,1-2.888-8.6,15.159,15.159,0,0,1,5.635-10.755c-.087-.534-.161-1.032-.218-1.484a16.469,16.469,0,0,0-6.693,12.177,13.059,13.059,0,0,0,2.573,8.663" transform="translate(-7.588 63.472)" fill="#242645"/>
        <path id="Trazado_825674" data-name="Trazado 825674" d="M121.607,364.11a.886.886,0,0,0,.211-1.745l-3.349-.83a.885.885,0,0,0-.425,1.719l3.349.83a.892.892,0,0,0,.214.026" transform="translate(-48.068 63.551)" fill="#fff"/>
        <path id="Trazado_825675" data-name="Trazado 825675" d="M118.981,361.644a.886.886,0,0,0,.211-1.745l-3.349-.83a.885.885,0,0,0-.424,1.719l3.348.83a.891.891,0,0,0,.214.026" transform="translate(-42.361 63.118)" fill="#fff"/>
        <path id="Trazado_825676" data-name="Trazado 825676" d="M124.458,365.771a.885.885,0,0,0,.211-1.745l-3.348-.83a.885.885,0,0,0-.425,1.718l3.348.831a.905.905,0,0,0,.214.026" transform="translate(-54.266 63.843)" fill="#fff"/>
        <path id="Trazado_825677" data-name="Trazado 825677" d="M127.312,367.368a.885.885,0,0,0,.21-1.745l-3.348-.83a.885.885,0,0,0-.425,1.718l3.349.83a.838.838,0,0,0,.214.027" transform="translate(-60.466 64.124)" fill="#fff"/>
        <path id="Trazado_825678" data-name="Trazado 825678" d="M130.423,368.846a.885.885,0,0,0,.21-1.745l-3.348-.83a.885.885,0,0,0-.425,1.719l3.349.829a.835.835,0,0,0,.214.027" transform="translate(-67.227 64.384)" fill="#fff"/>
        <path id="Trazado_825679" data-name="Trazado 825679" d="M133.8,370.107a.885.885,0,0,0,.21-1.745l-3.348-.83a.885.885,0,0,0-.425,1.718l3.349.83a.838.838,0,0,0,.214.027" transform="translate(-74.557 64.606)" fill="#fff"/>
        <path id="Trazado_825680" data-name="Trazado 825680" d="M72.977,187.649q1.36.342,2.732.657c11.693,2.676,23.968,3.759,32.557,1.7,4.241-1.014,6.952-6.215,8.678-12.025a22.569,22.569,0,0,0,1.2-4.824c1.051-16.146-2.916-23-2.916-23L52,143.1s-2.1,3.88-4.436,8.938a105.888,105.888,0,0,0-4.723,11.81l-.006.011a30.786,30.786,0,0,0-1.405,6.281c-.5,5.754,14.533,13.227,31.55,17.515" transform="translate(45.207 25.155)" fill="#242645"/>
        <path id="Trazado_825681" data-name="Trazado 825681" d="M88.3,366.24c-5.348.53-10.2,1.151-15.526,1.9-2.048.294-4.221.655-6.271.948-.5-1.252-1.306-3.835-1.858-5.258-.147-.361-.28-.722-.426-1.095C54,336.665,34.742,286.8,31.016,272.144c-.09-.361-.191-.745-.282-1.141-.8-3.249-1.7-7.356-2.645-12.039-4.065-20.131-8.962-50.8-10.032-68.956a82.885,82.885,0,0,1-.09-11.656A7.788,7.788,0,0,1,18.8,175.5c5.775-11.159,37.93-8.643,37.93-8.643s.123,1.76.326,4.773c.968,14.883,4.93,59.331,6.315,73.254,1.678,16.824,5.043,22.748,5.043,22.748s6.879,15.346,11.473,43.736c2.758,17.107,5.775,36.21,7.724,48.69.055.383.122.756.178,1.129.181,1.151.351,4.039.507,5.055" transform="translate(102.938 29.29)" fill="#242645"/>
        <path id="Trazado_825682" data-name="Trazado 825682" d="M68.313,252.528a15.782,15.782,0,0,1-11.468.3.9.9,0,0,1,.687-1.665,14.249,14.249,0,0,0,10.443-.46.9.9,0,0,1,.748,1.639c-.137.063-.276.125-.412.182" transform="translate(76.829 44.058)" fill="#2f3470"/>
        <path id="Trazado_825683" data-name="Trazado 825683" d="M18.235,333.806c.145.37.289.737.428,1.1l20.312-2.32,1.2-.135,1.638-.186c-.059-.367-.116-.743-.177-1.125l-1.481.169-1.443.166Z" transform="translate(148.915 58.212)" fill="#2f3470"/>
        <path id="Trazado_825684" data-name="Trazado 825684" d="M63.8,195.6a.627.627,0,0,0,.141-1.238,20.037,20.037,0,0,1-7.256-3.877c-4.877-4.018-7.577-9.764-8.027-17.08a.626.626,0,1,0-1.251.078c.589,9.594,4.964,15.09,8.53,18.012a20.829,20.829,0,0,0,7.722,4.088.575.575,0,0,0,.141.016" transform="translate(92.086 30.38)" fill="#2f3470"/>
        <path id="Trazado_825685" data-name="Trazado 825685" d="M113.2,239c-5.19,16-4.706,23.99-4.706,23.99s4.076,16.4-.237,44.831c-3.243,21.337-5.2,51.081-5.989,64.577-.023.406-.046.8-.068,1.173-.214,3.768-.316,5.992-.316,5.992l-20.76,2.267s-.169-2.436-.45-6.634c-.022-.373-.056-.768-.079-1.163-1.5-22.319-5.607-86.524-5.258-112.161.034-3.012.135-5.495.316-7.311.135-1.343.338-3.159.619-5.359,2.465-19.86,10.346-70.976,15.874-88.432,4.379-13.812,35.195.3,35.195.3S118.4,223,113.2,239" transform="translate(-3.573 27.197)" fill="#242645"/>
        <path id="Trazado_825686" data-name="Trazado 825686" d="M120.487,241.981a15.793,15.793,0,0,1-11.432-.952.9.9,0,0,1,.866-1.58,14.253,14.253,0,0,0,10.431.685.9.9,0,0,1,.565,1.712c-.143.047-.287.093-.429.135" transform="translate(-36.806 42.074)" fill="#2f3470"/>
        <path id="Trazado_825687" data-name="Trazado 825687" d="M118.362,339.846c-.025.409-.047.8-.068,1.177l-21.532,1.624c-.025-.373-.052-.763-.08-1.165Z" transform="translate(-19.667 59.743)" fill="#2f3470"/>
        <path id="Trazado_825688" data-name="Trazado 825688" d="M20.832,170.179a.639.639,0,0,1,.7.575c.063.653,6.465,65.481,9.172,90.837.489,1.464,8.618,25.925,11,39.036,2.135,11.771,8.824,44.016,12,59.227-.406.131-.82.239-1.233.348-3.169-15.181-9.883-47.541-12.021-59.346-2.426-13.361-10.889-38.671-10.975-38.925a.737.737,0,0,1-.029-.134c-2.7-25.314-9.115-90.266-9.179-90.918a.637.637,0,0,1,.572-.7" transform="translate(134.658 29.916)" fill="#2f3470"/>
        <path id="Trazado_825689" data-name="Trazado 825689" d="M86.49,180.277a.642.642,0,0,0,.3-1.21,17.451,17.451,0,0,1-8.223-11.731.64.64,0,1,0-1.262.215,18.436,18.436,0,0,0,8.89,12.653.64.64,0,0,0,.3.073" transform="translate(34.31 29.323)" fill="#2f3470"/>
        <path id="Trazado_825690" data-name="Trazado 825690" d="M80.772,369.851a.639.639,0,0,0,.584-.6c.043-.662,4.241-66.444,5.651-81.445,1.36-14.447-.716-35.212-.912-37.107,4.808-14.779,18.062-73.561,18.2-74.155a.64.64,0,1,0-1.249-.282c-.134.595-13.453,59.668-18.2,74.167a.656.656,0,0,0-.029.269c.025.219,2.329,22.044.924,36.988-1.415,15.02-5.611,80.821-5.653,81.484a.641.641,0,0,0,.6.681.63.63,0,0,0,.094,0" transform="translate(13.866 30.898)" fill="#2f3470"/>
        <path id="Trazado_825691" data-name="Trazado 825691" d="M98.205,75.846c.022.208.042.5.06.749l.05.791.107,1.6.205,3.2q.2,3.2.44,6.356c.326,4.2.709,8.353,1.3,12.247.144.972.31,1.925.486,2.848s.363,1.817.576,2.657.433,1.632.675,2.322a11.069,11.069,0,0,0,.706,1.661l.074.139.067.1.03.052.027.029c.016.02.033.042.046.061.047.038.057.012-.032-.115l-.117-.141c-.053-.061-.108-.121-.163-.18-.107-.109-.237-.245-.374-.373a7.948,7.948,0,0,0-.947-.745,8.036,8.036,0,0,0-2.438-1.092,7.637,7.637,0,0,0-2.179-.241,6.364,6.364,0,0,0-1.3.167,7.662,7.662,0,0,0-.793.241c-.027,0,.087-.075.252-.206.34-.266.872-.728,1.435-1.26,1.141-1.085,2.4-2.489,3.656-3.961s2.513-3.069,3.773-4.69c2.512-3.256,4.979-6.694,7.439-10.171s4.886-7.031,7.323-10.59l3.649-5.35,3.637-5.29.063-.092a9.731,9.731,0,0,1,16.7,9.9c-.279.559-.522,1.048-.79,1.56l-.786,1.514c-.523,1.006-1.064,2-1.606,2.991q-1.633,2.972-3.347,5.9-3.426,5.854-7.2,11.559-1.888,2.859-3.9,5.679c-1.332,1.888-2.726,3.751-4.168,5.618s-2.966,3.713-4.592,5.572c-.813.931-1.668,1.854-2.57,2.784s-1.862,1.867-2.92,2.818a34.744,34.744,0,0,1-3.692,2.917,24.437,24.437,0,0,1-2.562,1.529,17.717,17.717,0,0,1-3.856,1.466,15.01,15.01,0,0,1-2.929.419,13.474,13.474,0,0,1-3.817-.4,12.76,12.76,0,0,1-3.945-1.751,13.2,13.2,0,0,1-1.6-1.253c-.241-.22-.474-.447-.671-.661l-.3-.332-.149-.168-.07-.082-.035-.045a20.816,20.816,0,0,1-1.938-2.818l-.359-.662-.175-.33-.155-.319-.3-.64-.266-.616a30.157,30.157,0,0,1-1.491-4.582,41.855,41.855,0,0,1-.8-4.134c-.191-1.331-.33-2.622-.433-3.891s-.153-2.514-.188-3.744a102.671,102.671,0,0,1,.7-14.241q.4-3.471.994-6.884c.2-1.141.414-2.276.652-3.412.115-.568.248-1.136.375-1.706l.2-.858.221-.9a7.114,7.114,0,0,1,13.985.912Z" transform="translate(-26.564 10.961)" fill="#f0c9b9"/>
        <path id="Trazado_825692" data-name="Trazado 825692" d="M118.06,107.641a.453.453,0,0,1-.372-.419c-.236-3.633-3.046-10.386-3.075-10.452a.456.456,0,1,1,.84-.354c.117.282,2.9,6.962,3.143,10.746a.455.455,0,0,1-.425.484.354.354,0,0,1-.111-.006" transform="translate(-40.897 16.9)" fill="#dea187"/>
        <path id="Trazado_825693" data-name="Trazado 825693" d="M117.194,102.1a.459.459,0,0,1-.279-.169,10.853,10.853,0,0,0-3.382-2.527.455.455,0,0,1,.419-.808,11.441,11.441,0,0,1,3.685,2.78.455.455,0,0,1-.084.638.447.447,0,0,1-.358.086" transform="translate(-38.516 17.324)" fill="#dea187"/>
        <path id="Trazado_825694" data-name="Trazado 825694" d="M38.107,157.469c16.947,4,41.03,15.184,70.32,10.191-2.5-17.031-.831-45.979-.817-46.405a98.218,98.218,0,0,1,.876-9.81c.171-1.309.368-2.662.588-4.046.216-1.362.456-2.76.717-4.178q.366-2.009.792-4.069c.177-.876.366-1.759.56-2.642.114-.52.23-1.037.348-1.558.021-.091.043-.183.063-.274.091-.4.183-.794.279-1.19.209-.877.424-1.757.644-2.629.522-2.068,1.079-4.121,1.671-6.128,3.664-12.454,2.892-25.906-9.8-28.522-.923-.193-1.831-.373-2.715-.539C95.651,54.531,90.7,53.9,89.32,53.739l-.378-.046L63.578,58.888l-2.414.493a88.311,88.311,0,0,0-8.733,2.436,27.56,27.56,0,0,0-5.011,2.232c-5.75,3.423-5.26,7.864-5.824,16.507-.011.148-.019.3-.029.447,0,.049-.008.1-.011.149-.1,1.47-.264,2.929-.469,4.38-.224,1.623-.5,3.229-.8,4.8-.636,3.3-1.382,6.47-2.013,9.4-.309,1.418-.587,2.781-.814,4.073a39.233,39.233,0,0,0-.53,4.155,14.312,14.312,0,0,0,.219,3.948,7.082,7.082,0,0,0,.373,1.209,19.04,19.04,0,0,0,1.362,2.675,27.7,27.7,0,0,0,2.677,3.656,37.866,37.866,0,0,0,4.167,4.151c.371.315.588.482.588.482,0,.025,0,.053,0,.081.006.214,0,.439,0,.676-.006.907-.033,1.984-.087,3.208-.022.529.669,13.84-8.123,29.424" transform="translate(52.789 9.439)" fill="#40b7d6"/>
        <path id="Trazado_825695" data-name="Trazado 825695" d="M46.609,98.022,113.8,89.988a17.791,17.791,0,0,1-4.8-3.4L47.423,93.949c-.309,1.418-.587,2.781-.814,4.073" transform="translate(43.635 15.221)" fill="#e9dbd2"/>
        <path id="Trazado_825696" data-name="Trazado 825696" d="M41.811,105.111l72.648-8.687q.366-2.009.792-4.069l-73.659,8.807a14.318,14.318,0,0,0,.219,3.949" transform="translate(48.122 16.236)" fill="#e9dbd2"/>
        <path id="Trazado_825697" data-name="Trazado 825697" d="M42.837,107.762a27.879,27.879,0,0,0,2.676,3.656l66.931-8c.172-1.307.37-2.661.589-4.046Z" transform="translate(48.831 17.468)" fill="#e9dbd2"/>
        <path id="Trazado_825698" data-name="Trazado 825698" d="M101.723,62.5a43.559,43.559,0,0,1-6.33,21.484c.2-1.451.363-2.911.467-4.381,0-.048.009-.1.012-.148.009-.152.019-.3.028-.448.563-8.642.076-13.083,5.824-16.507" transform="translate(-1.515 10.987)" fill="#f0c9b9"/>
        <path id="Trazado_825699" data-name="Trazado 825699" d="M37.34,75.76c1.951,11.225,12.988,22.626,20.32,20.454.134-.611.271-1.219.411-1.831.09-.4.185-.794.282-1.192.7-2.951,1.473-5.9,2.313-8.756,3.663-12.454,2.892-25.905-9.8-28.524-.922-.19-1.83-.37-2.714-.537-6.64,2.218-13.062,7.46-10.816,20.386" transform="translate(106.273 9.734)" fill="#f0c9b9"/>
        <path id="Trazado_825700" data-name="Trazado 825700" d="M102.429,113.251a.6.6,0,0,1-.479.359.581.581,0,0,1-.3-.041,34.287,34.287,0,0,0-21.837-.626A37.149,37.149,0,0,1,64.857,114.9c0-.238,0-.463,0-.676,0-.031,0-.056,0-.083,0,0-.218-.166-.588-.48a35.4,35.4,0,0,0,15.179-1.854,34.845,34.845,0,0,1,22.669.663.594.594,0,0,1,.314.781" transform="translate(34.247 19.376)" fill="#e9dbd2"/>
        <path id="Trazado_825701" data-name="Trazado 825701" d="M75.682,88.171c-7.493.9-10.1-7.007-10.123-7.087a.6.6,0,1,1,1.134-.362c.1.3,2.344,7.042,8.848,6.263C82.365,86.17,95.968,73.948,96.1,73.825a.6.6,0,0,1,.8.885c-.569.515-14.023,12.6-21.219,13.461" transform="translate(38.144 12.951)" fill="#e9dbd2"/>
        <path id="Trazado_825702" data-name="Trazado 825702" d="M72.145,64.408s-3.422,5.229-8.532-1.2c0,0-10.773,2.388-9.819-9.683,0,0-6.978-3.611-1.747-11.382,0,0-7.676-2.73-3.441-13.01,0,0-4.737-5.87-1.917-12.743,3.346-8.16,11.241-5.313,11.241-5.313s-2.233-7.437,5.922-9.8A9.413,9.413,0,0,1,75.068,5.792S78.086-.784,84.688.078c8.789,1.148,7.938,9.2,7.938,9.2s6.607-4.342,11.388.9.4,11.405.4,11.405,7.535-.557,7.657,6.542-4.16,8.584-4.16,8.584,2.676,6.44-5.93,11.013c0,0,5.388,14.045-10.407,11.069-10.433-1.967-19.425,5.624-19.425,5.624" transform="translate(46.326 0)" fill="#242645"/>
        <path id="Trazado_825703" data-name="Trazado 825703" d="M65.013,65c7.383,11.7,20.447-4.556,20.641-7.985a39.859,39.859,0,0,1-2.44-16.139L63.935,49.214q.127.862.255,1.731a77.481,77.481,0,0,1,.909,8.311c.057,1.383.008,4.272-.086,5.746" transform="translate(51.459 7.186)" fill="#f0c9b9"/>
        <path id="Trazado_825704" data-name="Trazado 825704" d="M68.5,58.616c10.21-2.972,16.261-14.1,16.261-14.1L67.6,50.306a77.481,77.481,0,0,1,.909,8.311" transform="translate(48.054 7.825)" fill="#b3816d"/>
        <path id="Trazado_825705" data-name="Trazado 825705" d="M94.983,36.271s-1.818-4.774-5.7-3.436S86.007,47.353,93.5,46.5Z" transform="translate(15.157 5.731)" fill="#dea187"/>
        <path id="Trazado_825706" data-name="Trazado 825706" d="M96.211,48.324A6.576,6.576,0,1,0,89.2,54.441a6.591,6.591,0,0,0,7.015-6.118m-.978-.068a5.594,5.594,0,1,1-5.192-5.982,5.6,5.6,0,0,1,5.192,5.982" transform="translate(18.431 7.256)" fill="#fff"/>
        <path id="Trazado_825707" data-name="Trazado 825707" d="M95.818,46.981C94.026,52.348,80.669,59.139,74.937,56.8,71.458,55.374,68.3,52.338,66.3,45.39c-.012-.035-.021-.073-.033-.111-.116-.41-.226-.814-.328-1.217-.188-.721-.351-1.43-.489-2.108-.032-.159-.065-.316-.093-.473q-.118-.631-.2-1.225c-.069-.487-.122-.948-.155-1.382-.529-7.036-1.269-14.934,4.951-19.625s16.167-6.33,22.2-.275c0,0,4.51,5.312,4.778,15.5s.19,8.628-1.106,12.5" transform="translate(39.216 2.646)" fill="#f0c9b9"/>
        <path id="Trazado_825708" data-name="Trazado 825708" d="M86.862,39.037s.522,4.629-3.284,5.512a4.008,4.008,0,0,1-4.855-2.828Z" transform="translate(32.878 6.863)" fill="#fff"/>
        <path id="Trazado_825709" data-name="Trazado 825709" d="M81.12,45.3a2.1,2.1,0,0,0,1.052-.908.351.351,0,0,0-.624-.323,1.425,1.425,0,0,1-1.449.658.351.351,0,0,0-.08.7,2.276,2.276,0,0,0,1.1-.126" transform="translate(36.398 7.713)" fill="#dea187"/>
        <path id="Trazado_825710" data-name="Trazado 825710" d="M81.44,31.772a.554.554,0,0,0,.175-.149.544.544,0,0,0-.1-.76,3.285,3.285,0,0,0-3.458-.207A3.733,3.733,0,0,0,76.315,33.6a.541.541,0,1,0,1.08.053,2.676,2.676,0,0,1,1.171-2.039,2.2,2.2,0,0,1,2.29.114.54.54,0,0,0,.584.046" transform="translate(40.865 5.318)" fill="#242645"/>
        <path id="Trazado_825711" data-name="Trazado 825711" d="M89.038,35.1a.543.543,0,0,0,.258-.643,2.58,2.58,0,0,0-2.031-1.727,3.083,3.083,0,0,0-2.671,1.116.541.541,0,0,0,.855.664,1.98,1.98,0,0,1,1.688-.7,1.482,1.482,0,0,1,1.129.983.542.542,0,0,0,.682.349.565.565,0,0,0,.09-.039" transform="translate(23.686 5.749)" fill="#242645"/>
        <path id="Trazado_825712" data-name="Trazado 825712" d="M85.483,39.734a.456.456,0,0,1-.249-.027l-2.154-.9a.449.449,0,0,1-.106-.765,6.463,6.463,0,0,0,2.372-4.912.447.447,0,1,1,.892.071,7.465,7.465,0,0,1-2.15,5.056l1.489.62a.448.448,0,0,1-.094.856" transform="translate(28.736 5.752)" fill="#dea187"/>
        <path id="Trazado_825713" data-name="Trazado 825713" d="M76.493,27.738a1.089,1.089,0,0,1-1.007-1.886,3.149,3.149,0,0,1,2.119-.636,7.879,7.879,0,0,1,6.13,3.416s-3.964-1.347-6.048-1.135a6,6,0,0,0-1.194.241" transform="translate(40.31 4.433)" fill="#242645"/>
        <path id="Trazado_825714" data-name="Trazado 825714" d="M91.13,28.8a1.089,1.089,0,0,0,.3-2.116,3.144,3.144,0,0,0-2.208.126c-3.806,1.524-3.565,4.4-3.565,4.4a14.414,14.414,0,0,1,4.264-2.225,5.968,5.968,0,0,1,1.2-.182" transform="translate(19.462 4.665)" fill="#242645"/>
        <path id="Trazado_825715" data-name="Trazado 825715" d="M62.584,17.787s3.725,10.876,7,12.958,5.781-3.385,5.781-3.385-7.086-16.609-12.78-9.573" transform="translate(63.333 2.821)" fill="#242645"/>
        <path id="Trazado_825716" data-name="Trazado 825716" d="M69.33,18.88s6.522,8.855,14.339,6.465,2.295-8.789,2.295-8.789S71.1,11.026,69.33,18.88" transform="translate(42.926 2.578)" fill="#242645"/>
        <path id="Trazado_825717" data-name="Trazado 825717" d="M97.2,18.046S93.669,29.934,85.887,28.172s2.7-13.727,7.874-13.43,3.435,3.3,3.435,3.3" transform="translate(17.144 2.591)" fill="#242645"/>
        <path id="Trazado_825718" data-name="Trazado 825718" d="M88.073,41.339c-.117-.41-.226-.814-.328-1.216-.188-.722-.351-1.43-.489-2.108-.033-.16-.065-.317-.093-.474.117-.013.233-.025.352-.034,2.636-.221,4.85.463,4.937,1.526.088,1.032-1.854,2.047-4.378,2.306" transform="translate(17.409 6.586)" fill="#dea187"/>
        <path id="Trazado_825719" data-name="Trazado 825719" d="M79.384,36.339c.089,1.064-1.977,2.107-4.614,2.329s-4.849-.461-4.938-1.526,1.977-2.107,4.615-2.329,4.847.461,4.937,1.526" transform="translate(50.81 6.113)" fill="#dea187"/>
        <path id="Trazado_825720" data-name="Trazado 825720" d="M59.469,31.066s2.088-4.239,6.346-2.688S69.138,44.444,60.9,43.362Z" transform="translate(74.049 4.929)" fill="#f0c9b9"/>
        <path id="Trazado_825721" data-name="Trazado 825721" d="M65.54,25.779s-1.6,12.813,1.242,11.523S70.21,28.32,70.21,28.32Z" transform="translate(65.549 4.532)" fill="#242645"/>
        <path id="Trazado_825722" data-name="Trazado 825722" d="M64.982,38.572c-.219.283-.341.574-.563.855a5.6,5.6,0,1,1-3.55.415c1.19-.421,1.344-.929,1.356-1.439a6.588,6.588,0,1,0,7.59,6.965,6.688,6.688,0,0,0-4.833-6.8" transform="translate(75.793 6.751)" fill="#fff"/>
        <path id="Trazado_825723" data-name="Trazado 825723" d="M60.857,37.05a.39.39,0,0,0,.311.456.42.42,0,0,0,.084.008.392.392,0,0,0,.371-.319,8.019,8.019,0,0,1,1.175-2.71c.846.664,1.524,1.285,1.533,1.293a.381.381,0,0,0,.276.1.4.4,0,0,0,.276-.126.394.394,0,0,0-.026-.553c-.031-.028-.709-.649-1.577-1.331A4.757,4.757,0,0,1,65.631,32.4a.39.39,0,0,0-.2-.755c-3.7.972-4.542,5.222-4.576,5.4" transform="translate(74.812 5.561)" fill="#242645"/>
        <path id="Trazado_825737" data-name="Trazado 825737" d="M0,0,126.767.117l.146,157.616L.146,157.616Z" transform="translate(112.177 250.143) rotate(-152.294)" fill="#f26d76"/>
        <path id="Trazado_825738" data-name="Trazado 825738" d="M0,0,32.285.03l.006,6.629L.006,6.629Z" transform="translate(112.591 95.353) rotate(-152.294)" fill="#fff"/>
        <path id="Trazado_825739" data-name="Trazado 825739" d="M0,0,14.157.013l.006,6.629L.006,6.629Z" transform="matrix(-0.885, -0.465, 0.465, -0.885, 166.715, 123.84)" fill="#fff"/>
        <path id="Trazado_825740" data-name="Trazado 825740" d="M0,0,14.158.013l0,2.183L0,2.183Z" transform="matrix(-0.885, -0.465, 0.465, -0.885, 161.625, 133.555)" fill="#fff"/>
        <path id="Trazado_825741" data-name="Trazado 825741" d="M0,0,7.334.007l.093,100.325-7.334-.007Z" transform="translate(35.556 191.705) rotate(-152.295)" fill="#fff"/>
        <path id="Trazado_825742" data-name="Trazado 825742" d="M0,0,7.334.007l.093,100.325-7.334-.007Z" transform="translate(44.985 196.668) rotate(-152.295)" fill="#fff"/>
        <path id="Trazado_825743" data-name="Trazado 825743" d="M0,0,7.334.007l.093,100.325-7.334-.007Z" transform="translate(54.413 201.63) rotate(-152.295)" fill="#fff"/>
        <path id="Trazado_825744" data-name="Trazado 825744" d="M0,0,7.334.007l.093,100.325-7.334-.007Z" transform="matrix(-0.885, -0.465, 0.465, -0.885, 63.842, 206.592)" fill="#fff"/>
        <path id="Trazado_825745" data-name="Trazado 825745" d="M0,0,7.334.007l.093,100.325-7.334-.007Z" transform="translate(73.27 211.555) rotate(-152.295)" fill="#fff"/>
        <path id="Trazado_825746" data-name="Trazado 825746" d="M0,0,7.334.007l.093,100.325-7.334-.007Z" transform="translate(82.698 216.518) rotate(-152.295)" fill="#fff"/>
        <path id="Trazado_825747" data-name="Trazado 825747" d="M0,0,7.334.007l.093,100.325-7.334-.007Z" transform="translate(92.127 221.48) rotate(-152.295)" fill="#fff"/>
        <path id="Trazado_825748" data-name="Trazado 825748" d="M0,0,7.334.007l.093,100.325-7.334-.007Z" transform="translate(101.555 226.442) rotate(-152.295)" fill="#fff"/>
        <path id="Trazado_825749" data-name="Trazado 825749" d="M0,0,7.334.007l.093,100.325-7.334-.007Z" transform="translate(110.984 231.405) rotate(-152.295)" fill="#fff"/>
        <path id="Trazado_825750" data-name="Trazado 825750" d="M0,0H.92l.086,93.007H.086Z" transform="translate(32.159 189.236) rotate(-152.294)" fill="#242645"/>
        <path id="Trazado_825751" data-name="Trazado 825751" d="M0,0H.92l.086,93.007H.086Z" transform="matrix(-0.885, -0.465, 0.465, -0.885, 41.664, 194.238)" fill="#242645"/>
        <path id="Trazado_825752" data-name="Trazado 825752" d="M0,0H.92l.086,93.007H.086Z" transform="translate(51.168 199.241) rotate(-152.294)" fill="#242645"/>
        <path id="Trazado_825753" data-name="Trazado 825753" d="M0,0H.92l.086,93.007H.086Z" transform="translate(60.673 204.243) rotate(-152.294)" fill="#242645"/>
        <path id="Trazado_825754" data-name="Trazado 825754" d="M0,0H.921l.086,93.006H.086Z" transform="translate(70.178 209.246) rotate(-152.294)" fill="#242645"/>
        <path id="Trazado_825755" data-name="Trazado 825755" d="M0,0H.92l.086,93.007H.086Z" transform="matrix(-0.885, -0.465, 0.465, -0.885, 79.683, 214.249)" fill="#242645"/>
        <path id="Trazado_825756" data-name="Trazado 825756" d="M0,0H.92l.086,93.007H.086Z" transform="translate(89.187 219.251) rotate(-152.294)" fill="#242645"/>
        <path id="Trazado_825757" data-name="Trazado 825757" d="M0,0H.921l.086,93.006H.086Z" transform="translate(98.692 224.254) rotate(-152.294)" fill="#242645"/>
        <path id="Trazado_825758" data-name="Trazado 825758" d="M0,0H.92l.086,93.007H.086Z" transform="matrix(-0.885, -0.465, 0.465, -0.885, 108.197, 229.257)" fill="#242645"/>
        <path id="Trazado_825759" data-name="Trazado 825759" d="M0,0,3.375,0l.043,46.366-3.375,0Z" transform="matrix(-0.885, -0.465, 0.465, -0.885, 33.246, 189.807)" fill="#40b7d6"/>
        <path id="Trazado_825760" data-name="Trazado 825760" d="M0,0,3.376,0l.043,46.365-3.376,0Z" transform="matrix(-0.885, -0.465, 0.465, -0.885, 42.751, 194.81)" fill="#40b7d6"/>
        <path id="Trazado_825761" data-name="Trazado 825761" d="M0,0,3.375,0,3.4,31.327l-3.375,0Z" transform="matrix(-0.885, -0.465, 0.465, -0.885, 52.255, 199.812)" fill="#40b7d6"/>
        <path id="Trazado_825762" data-name="Trazado 825762" d="M0,0,3.376,0l.058,62.648-3.376,0Z" transform="matrix(-0.885, -0.465, 0.465, -0.885, 61.761, 204.815)" fill="#40b7d6"/>
        <path id="Trazado_825763" data-name="Trazado 825763" d="M0,0,3.375,0l.012,13.089-3.375,0Z" transform="translate(84.761 160.917) rotate(-152.294)" fill="#40b7d6"/>
        <path id="Trazado_825764" data-name="Trazado 825764" d="M0,0,3.375,0l.067,72.307-3.375,0Z" transform="translate(71.265 209.818) rotate(-152.294)" fill="#40b7d6"/>
        <path id="Trazado_825765" data-name="Trazado 825765" d="M0,0,3.376,0l.043,46.365-3.376,0Z" transform="translate(80.77 214.821) rotate(-152.294)" fill="#40b7d6"/>
        <path id="Trazado_825766" data-name="Trazado 825766" d="M0,0,3.375,0l.06,65.408-3.375,0Z" transform="translate(90.274 219.823) rotate(-152.294)" fill="#40b7d6"/>
        <path id="Trazado_825767" data-name="Trazado 825767" d="M0,0,3.375,0l0,4.448L0,4.448Z" transform="translate(118.567 165.826) rotate(-152.294)" fill="#40b7d6"/>
        <path id="Trazado_825768" data-name="Trazado 825768" d="M0,0,3.376,0,3.43,58.236l-3.376,0Z" transform="translate(99.779 224.826) rotate(-152.294)" fill="#40b7d6"/>
        <path id="Trazado_825769" data-name="Trazado 825769" d="M0,0,3.375,0l.043,46.366-3.375,0Z" transform="translate(109.284 229.828) rotate(-152.294)" fill="#40b7d6"/>
        <path id="Trazado_825770" data-name="Trazado 825770" d="M0,0,6.9.006,6.9,3.6,0,3.593Z" transform="matrix(-0.885, -0.465, 0.465, -0.885, 26.371, 185.757)" fill="#fff"/>
        <path id="Trazado_825771" data-name="Trazado 825771" d="M0,0,6.9.006,6.9,3.6,0,3.593Z" transform="matrix(-0.885, -0.465, 0.465, -0.885, 33.258, 172.614)" fill="#fff"/>
        <path id="Trazado_825772" data-name="Trazado 825772" d="M0,0,6.9.006,6.9,3.6,0,3.593Z" transform="matrix(-0.885, -0.465, 0.465, -0.885, 40.145, 159.47)" fill="#fff"/>
        <path id="Trazado_825773" data-name="Trazado 825773" d="M0,0,6.9.006,6.9,3.6,0,3.594Z" transform="translate(47.032 146.326) rotate(-152.293)" fill="#fff"/>
        <path id="Trazado_825774" data-name="Trazado 825774" d="M0,0,6.9.006,6.9,3.6,0,3.593Z" transform="translate(53.919 133.183) rotate(-152.293)" fill="#fff"/>
        <path id="Trazado_825775" data-name="Trazado 825775" d="M0,0,6.9.006,6.9,3.6,0,3.593Z" transform="translate(60.805 120.039) rotate(-152.293)" fill="#fff"/>
        <path id="Trazado_825776" data-name="Trazado 825776" d="M0,0,6.9.006,6.9,3.6,0,3.593Z" transform="matrix(-0.885, -0.465, 0.465, -0.885, 67.692, 106.896)" fill="#fff"/>
        <path id="Trazado_825777" data-name="Trazado 825777" d="M0,0,7.334.007V1.419L0,1.412Z" transform="translate(83.666 99.887) rotate(-152.295)" fill="#d1d1ff"/>
        <path id="Trazado_825778" data-name="Trazado 825778" d="M0,0,7.334.007V1.419L0,1.412Z" transform="translate(93.094 104.849) rotate(-152.295)" fill="#d1d1ff"/>
        <path id="Trazado_825779" data-name="Trazado 825779" d="M0,0,7.334.007V1.419L0,1.412Z" transform="translate(102.523 109.812) rotate(-152.295)" fill="#d1d1ff"/>
        <path id="Trazado_825780" data-name="Trazado 825780" d="M0,0,7.334.007V1.419L0,1.412Z" transform="translate(111.951 114.774) rotate(-152.295)" fill="#d1d1ff"/>
        <path id="Trazado_825781" data-name="Trazado 825781" d="M0,0,7.334.007V1.419L0,1.412Z" transform="translate(121.379 119.737) rotate(-152.295)" fill="#d1d1ff"/>
        <path id="Trazado_825782" data-name="Trazado 825782" d="M0,0,7.334.007V1.419L0,1.412Z" transform="translate(130.808 124.699) rotate(-152.295)" fill="#d1d1ff"/>
        <path id="Trazado_825783" data-name="Trazado 825783" d="M0,0,7.334.007V1.419L0,1.412Z" transform="translate(140.236 129.662) rotate(-152.295)" fill="#d1d1ff"/>
        <path id="Trazado_825784" data-name="Trazado 825784" d="M0,0,7.334.007V1.419L0,1.412Z" transform="translate(149.664 134.624) rotate(-152.295)" fill="#d1d1ff"/>
        <path id="Trazado_825785" data-name="Trazado 825785" d="M0,0,7.334.007V1.419L0,1.412Z" transform="translate(159.093 139.587) rotate(-152.295)" fill="#d1d1ff"/>
        <path id="Trazado_825724" data-name="Trazado 825724" d="M53.4,99.744" transform="translate(96.067 17.535)" fill="#dea187"/>
        <path id="Trazado_825725" data-name="Trazado 825725" d="M11.289,94.146c.185-.032.449-.062.682-.093l.725-.086,1.465-.179,2.939-.35c1.957-.23,3.908-.476,5.84-.729,3.86-.51,7.67-1.084,11.266-1.807.9-.186,1.783-.366,2.642-.573s1.7-.426,2.5-.648,1.57-.47,2.275-.728a18.168,18.168,0,0,0,1.889-.774,7.576,7.576,0,0,0,1.168-.684c.088-.079.158-.141.118-.138a.222.222,0,0,0-.084.047c-.009.013-.063.045-.089.071a.549.549,0,0,0-.046.045l-.13.14a6.3,6.3,0,0,0-.7.975,6.859,6.859,0,0,0-.636,1.469,7.134,7.134,0,0,0-.3,1.69,6.785,6.785,0,0,0,.062,1.463,5.958,5.958,0,0,0,.231,1,5.4,5.4,0,0,0,.212.564c.118.261.168.328.135.31-.062-.042-.373-.381-.8-.751s-.985-.818-1.6-1.264c-1.233-.9-2.679-1.85-4.213-2.763s-3.148-1.841-4.809-2.733c-1.653-.909-3.363-1.777-5.082-2.661-3.454-1.743-6.988-3.463-10.557-5.157l-5.366-2.539-5.3-2.519-.157-.075A9.75,9.75,0,0,1,12.472,56.5l.814.24.771.236,1.526.477q1.517.487,3.015,1,3,1.037,5.961,2.18c3.95,1.53,7.873,3.179,11.771,5.029,1.956.912,3.894,1.9,5.846,2.921,1.945,1.041,3.895,2.134,5.855,3.34a68.238,68.238,0,0,1,5.961,4.1c1.012.789,2.047,1.656,3.115,2.661a26.977,26.977,0,0,1,3.347,3.765,19.46,19.46,0,0,1,1.756,2.914,16.617,16.617,0,0,1,.814,1.977,15.443,15.443,0,0,1,.612,2.484,14.4,14.4,0,0,1,.155,2.995A13.73,13.73,0,0,1,62,98.9a14.393,14.393,0,0,1-1.577,2.23l-.206.238-.1.112-.076.081-.311.321c-.205.208-.425.437-.628.617l-.624.556c-.214.189-.409.335-.617.5a21.9,21.9,0,0,1-2.389,1.627,26.92,26.92,0,0,1-4.329,2.024,42,42,0,0,1-7.589,1.969,67.5,67.5,0,0,1-6.956.8,100.672,100.672,0,0,1-13.2-.062c-2.155-.141-4.294-.35-6.425-.613q-1.6-.2-3.195-.449c-.531-.082-1.064-.178-1.6-.27l-.807-.143-.851-.163a7.133,7.133,0,0,1,.123-14.028Z" transform="translate(148.306 9.863)" fill="#f0c9b9"/>
        <path id="Trazado_825726" data-name="Trazado 825726" d="M68.911,89.439s-8.351.015-13.744.533c-3.711.355-6.793-.059-7.664,1.5s6.7,2.635,7.381,2.728,14.026-4.756,14.026-4.756" transform="translate(87.56 15.723)" fill="#f0c9b9"/>
        <path id="Trazado_825727" data-name="Trazado 825727" d="M77.991,91.942a7.585,7.585,0,0,1-3.267,9.973,18.522,18.522,0,0,0-5.008,3.819c-2.888,3.48-4.291,9-7.275,10.834s-3.537.942-2.653-1.957,3.145-8.068,3.145-8.068-4.954,5.877-5.838,8.775-3.409,3.92-4.126.743,3.4-10.79,5.1-12.59c0,0-3.989,2.834-5.316,6.72s-1.908,6.136-3.156,7.233-3.115-1.306-1.124-6.683,3.618-8.292,5.7-10.155a30.26,30.26,0,0,0-5.265,2.77c-3.138,2-4.315,6.609-6.524,6.857-2.26.254-.671-5,1.5-7.5s3.535-4.51,7.313-6.415A53.3,53.3,0,0,1,61.192,92.1c2.535-.6,11.274-3.9,14.713-2.393a4.644,4.644,0,0,1,2.087,2.234" transform="translate(84.905 15.701)" fill="#f0c9b9"/>
        <path id="Trazado_825728" data-name="Trazado 825728" d="M38.421,89.2s7.045,3.691,6.138,14.311c0,0,1.962,1.5,3.507.359,0,0,.9-11.323-6-15.539,0,0-2.534-.646-3.64.87" transform="translate(118.94 15.504)" fill="#242645"/>
        <path id="Trazado_825729" data-name="Trazado 825729" d="M54.22,78.859a.455.455,0,0,1-.583.2c-.109-.048-10.92-4.821-15.563-7.323a.456.456,0,0,1,.431-.8c4.613,2.487,15.391,7.244,15.5,7.293a.455.455,0,0,1,.233.6l-.016.033" transform="translate(113.458 12.46)" fill="#dea187"/>
        <path id="Trazado_825730" data-name="Trazado 825730" d="M52.991,72.823a.456.456,0,0,1-.29.269l-3.449,1.063a.456.456,0,0,1-.267-.871l3.449-1.064a.455.455,0,0,1,.569.3.462.462,0,0,1-.012.3" transform="translate(102.005 12.692)" fill="#dea187"/>
        <path id="Trazado_825731" data-name="Trazado 825731" d="M23.692,83.676a.457.457,0,0,1-.455.261c-2.956-.28-6.979,1.875-7.019,1.9a.456.456,0,0,1-.433-.8c.175-.094,4.309-2.308,7.538-2a.456.456,0,0,1,.411.5.462.462,0,0,1-.041.15" transform="translate(170.145 14.591)" fill="#dea187"/>
        <path id="Trazado_825732" data-name="Trazado 825732" d="M20.943,81.458a.446.446,0,0,1-.275.241,4.52,4.52,0,0,0-2.557,3.166.455.455,0,1,1-.872-.262A5.383,5.383,0,0,1,20.4,80.83a.455.455,0,0,1,.547.628" transform="translate(170.93 14.206)" fill="#dea187"/>
        <path id="Trazado_825733" data-name="Trazado 825733" d="M124.724,73.67s-3.259-3.338-1.306-5.851,9.458-2.42,12.089-2.207-2.439,3.821-5.187,4.094-3.5,1.56-3.5,1.56Z" transform="translate(-68.181 11.517)" fill="#f0c9b9"/>
        <path id="Trazado_825734" data-name="Trazado 825734" d="M120.038,66.1s-3.259-3.339-1.306-5.851,9.458-2.42,12.089-2.208-2.438,3.823-5.187,4.1-3.5,1.559-3.5,1.559Z" transform="translate(-57.998 10.185)" fill="#f0c9b9"/>
        <path id="Trazado_825735" data-name="Trazado 825735" d="M119.135,61.96s-2.879-2.949-1.153-5.169,8.354-2.136,10.679-1.949-2.154,3.376-4.581,3.617-3.095,1.378-3.095,1.378Z" transform="translate(-54.956 9.626)" fill="#f0c9b9"/>
        <path id="Trazado_825736" data-name="Trazado 825736" d="M122.247,70.036s-3.259-3.338-1.306-5.851,9.458-2.419,12.089-2.207-2.439,3.821-5.187,4.094-3.5,1.559-3.5,1.559Z" transform="translate(-62.798 10.878)" fill="#f0c9b9"/>
      </g>
    </g>
  </g>
</svg>
