<svg xmlns="http://www.w3.org/2000/svg" xmlns:xlink="http://www.w3.org/1999/xlink" width="365" height="397" viewBox="0 0 365 397">
  <defs>
    <clipPath id="clip-path">
      <rect id="Rectángulo_383229" data-name="Rectángulo 383229" width="365" height="397" rx="11" transform="translate(8111 -7879)" fill="#bae9d9"/>
    </clipPath>
    <clipPath id="clip-path-2">
      <rect id="Rectángulo_383227" data-name="Rectángulo 383227" width="299.312" height="393.008" fill="none"/>
    </clipPath>
    <clipPath id="clip-path-4">
      <rect id="Rectángulo_383224" data-name="Rectángulo 383224" width="3.395" height="2.778" fill="none"/>
    </clipPath>
    <clipPath id="clip-path-5">
      <rect id="Rectángulo_383225" data-name="Rectángulo 383225" width="8.73" height="2.918" fill="none"/>
    </clipPath>
    <clipPath id="clip-path-6">
      <rect id="Rectángulo_383228" data-name="Rectángulo 383228" width="158.334" height="52.166" fill="none"/>
    </clipPath>
  </defs>
  <g id="Grupo_1074144" data-name="Grupo 1074144" transform="translate(-8111 7879)">
    <rect id="Rectángulo_383055" data-name="Rectángulo 383055" width="365" height="397" rx="11" transform="translate(8111 -7879)" fill="#d6e1fd"/>
    <g id="Enmascarar_grupo_174" data-name="Enmascarar grupo 174" clip-path="url(#clip-path)">
      <g id="Grupo_1074127" data-name="Grupo 1074127" transform="translate(6966.845 -8000.876)">
        <path id="Trazado_818450" data-name="Trazado 818450" d="M384.36,84.775l-65.29-65.29L257.6,80.957,195.786,19.14,131.192,83.734l-63.9-63.9L9.57,77.559,0,67.988,67.293.7l63.9,63.895L195.786,0,257.6,61.813,319.07.346l65.29,65.29,61.2-61.2,9.574,9.566Z" transform="translate(1089.025 113.031)" fill="#aec4fa"/>
        <path id="Trazado_818451" data-name="Trazado 818451" d="M384.36,101.571,319.07,36.285,257.6,97.748,195.786,35.935,131.192,100.53l-63.9-63.9L9.57,94.358,0,84.784,67.293,17.491l63.9,63.9L195.786,16.8,257.6,78.612,319.07,17.145l65.29,65.286,61.2-61.2L455.13,30.8Z" transform="translate(1089.025 162.218)" fill="#aec4fa"/>
        <path id="Trazado_818452" data-name="Trazado 818452" d="M384.36,118.366,319.07,53.08,257.6,114.547,195.786,52.735l-64.594,64.59-63.9-63.9L9.57,111.153,0,101.579,67.293,34.286l63.9,63.9L195.786,33.59,257.6,95.407,319.07,33.94l65.29,65.286,61.2-61.2,9.574,9.57Z" transform="translate(1089.025 211.404)" fill="#aec4fa"/>
        <path id="Trazado_818453" data-name="Trazado 818453" d="M384.36,135.162l-65.29-65.29L257.6,131.339,195.786,69.527l-64.594,64.594-63.9-63.9L9.57,127.945,0,118.375,67.293,51.082l63.9,63.9,64.594-64.594L257.6,112.2,319.07,50.732l65.29,65.29,61.2-61.2,9.574,9.57Z" transform="translate(1089.025 260.593)" fill="#aec4fa"/>
        <path id="Trazado_818454" data-name="Trazado 818454" d="M384.36,151.957l-65.29-65.29L257.6,148.135,195.786,86.322l-64.594,64.594-63.9-63.9L9.57,144.744,0,135.174l67.293-67.3,63.9,63.9,64.594-64.594L257.6,129,319.07,67.531l65.29,65.29,61.2-61.2,9.574,9.57Z" transform="translate(1089.025 309.78)" fill="#aec4fa"/>
        <path id="Trazado_818455" data-name="Trazado 818455" d="M384.36,168.752l-65.29-65.286L257.6,164.934l-61.817-61.813-64.594,64.59-63.9-63.9L9.57,161.54,0,151.966,67.293,84.672l63.9,63.9,64.594-64.594L257.6,145.794,319.07,84.327l65.29,65.286,61.2-61.2,9.574,9.57Z" transform="translate(1089.025 358.968)" fill="#aec4fa"/>
      </g>
    </g>
    <g id="Grupo_1074138" data-name="Grupo 1074138" transform="translate(8144 -7879)">
      <g id="Grupo_1074137" data-name="Grupo 1074137" clip-path="url(#clip-path-2)">
        <g id="Grupo_1074136" data-name="Grupo 1074136">
          <g id="Grupo_1074135" data-name="Grupo 1074135" clip-path="url(#clip-path-2)">
            <path id="Trazado_825786" data-name="Trazado 825786" d="M168.513,107.385l-1.137,1.82-1.114,1.755L164,114.423c-1.523,2.3-3.085,4.564-4.663,6.827s-3.212,4.5-4.865,6.725-3.364,4.433-5.111,6.632-3.549,4.381-5.44,6.541-3.854,4.313-5.983,6.454c-1.067,1.068-2.187,2.128-3.376,3.193s-2.454,2.125-3.881,3.194a34.9,34.9,0,0,1-5.089,3.217c-.529.266-1.082.528-1.707.785a20.535,20.535,0,0,1-2.049.731c-.184.056-.378.111-.584.164l-.3.078-.151.038-.211.047c-.286.062-.574.12-.86.17s-.566.081-.85.114a16.376,16.376,0,0,1-3.19.028,17.894,17.894,0,0,1-2.7-.464,19.5,19.5,0,0,1-2.226-.719,22.551,22.551,0,0,1-3.439-1.708,32.3,32.3,0,0,1-4.775-3.586c-1.331-1.192-2.493-2.376-3.576-3.555s-2.08-2.358-3.025-3.54c-1.889-2.362-3.593-4.724-5.214-7.093s-3.13-4.756-4.591-7.149c-2.922-4.783-5.59-9.621-8.139-14.5-1.261-2.446-2.5-4.893-3.694-7.366q-.893-1.855-1.768-3.722l-.859-1.881-.867-1.932a7.934,7.934,0,0,1,13.94-7.5l.1.164,1.023,1.612,1.058,1.647,2.132,3.3c1.435,2.192,2.871,4.382,4.34,6.541,2.917,4.332,5.912,8.585,8.974,12.683,1.535,2.044,3.1,4.041,4.671,5.973s3.179,3.779,4.79,5.468c.805.842,1.612,1.645,2.4,2.382a28.848,28.848,0,0,0,2.276,1.94,9.4,9.4,0,0,0,1.739,1.1c.173.071.276.083.179.018a1.286,1.286,0,0,0-.308-.128,3.558,3.558,0,0,0-.722-.148,5.5,5.5,0,0,0-1.187-.009c-.117.009-.235.023-.351.043s-.248.039-.37.066l-.088.022-.032.005-.06.013c-.045.011-.078.018-.1.023-.123.031-.165.039-.168.031s.039-.038.1-.08a17.063,17.063,0,0,0,1.6-1.213c.684-.577,1.44-1.278,2.206-2.042s1.548-1.591,2.334-2.454c1.579-1.721,3.157-3.591,4.713-5.524q1.168-1.45,2.32-2.952t2.306-3.02c1.53-2.035,3.031-4.119,4.528-6.216s2.982-4.22,4.446-6.363,2.927-4.292,4.372-6.452l2.153-3.244,1.068-1.614,1.021-1.566.106-.162a11.984,11.984,0,0,1,20.2,12.9" transform="translate(19.068 24.221)" fill="#c1725c"/>
            <path id="Trazado_825787" data-name="Trazado 825787" d="M65.241,95.809S68.056,106.561,73.6,108.4c4.671,1.549,12.272-6.114,12.272-6.114,2.971-3.777,3.383-5.959,4.112-10.208S84,83.741,84,83.741s-6.066-16.1-8.749-17.216,1.281,14.6,1.281,14.6a2.761,2.761,0,0,0-2.609-.436c-2.221.65-7.329,4.091-9.45,6.852-1.9,2.473.768,8.272.768,8.272" transform="translate(17.35 18.078)" fill="#c1725c"/>
            <path id="Trazado_825788" data-name="Trazado 825788" d="M85.192,89.41a39.974,39.974,0,0,1-6.972-2.971c-1.04-.614-2.844-1.736-2.968-3.09-.19-2.053,1.83-1.905,3.265-2.022.608-.05.613-1,0-.954-1.191.1-2.764.025-3.689.932-1.163,1.14-.434,2.956.452,4.017,2.269,2.718,6.448,3.863,9.658,5.008.579.207.828-.715.253-.92" transform="translate(20.189 21.86)" fill="#7d351d"/>
            <path id="Trazado_825789" data-name="Trazado 825789" d="M76.916,82.988A25.7,25.7,0,0,1,65.481,89.6a.477.477,0,0,0,.254.92A26.694,26.694,0,0,0,77.59,83.662a.477.477,0,0,0-.674-.674" transform="translate(17.719 22.534)" fill="#7d351d"/>
            <path id="Trazado_825790" data-name="Trazado 825790" d="M72.121,88.1a10.42,10.42,0,0,1,2.657,9.874c-.14.6.78.852.92.254a11.406,11.406,0,0,0-2.9-10.8c-.421-.449-1.1.226-.674.674" transform="translate(19.58 23.74)" fill="#7d351d"/>
            <path id="Trazado_825791" data-name="Trazado 825791" d="M74.588,85.694a21.563,21.563,0,0,0-3.827-7.206c-.413-.455-1.086.221-.675.675a20.347,20.347,0,0,1,3.583,6.784c.211.571,1.133.324.92-.253" transform="translate(19.028 21.307)" fill="#7d351d"/>
            <path id="Trazado_825792" data-name="Trazado 825792" d="M71.928,87.924A26.431,26.431,0,0,0,68.153,80.6c-.356-.494-1.184-.018-.823.481a25.651,25.651,0,0,1,3.679,7.1c.187.583,1.109.333.92-.253" transform="translate(18.289 21.866)" fill="#7d351d"/>
            <path id="Trazado_825793" data-name="Trazado 825793" d="M67.372,89.052l.1.218c.235.495,1.016.144.873-.368a14.418,14.418,0,0,0-3.138-5.911c-.407-.462-1.079.215-.674.674a13.279,13.279,0,0,1,2.891,5.491l.873-.368-.1-.219c-.263-.553-1.086-.07-.824.482" transform="translate(17.519 22.531)" fill="#7d351d"/>
            <path id="Trazado_825794" data-name="Trazado 825794" d="M73.759,78.715A10.792,10.792,0,0,1,74.936,82.2c.08.6,1.034.607.954,0a12.114,12.114,0,0,0-1.306-3.965c-.282-.547-1.105-.065-.824.481" transform="translate(20.046 21.214)" fill="#7d351d"/>
            <path id="Trazado_825795" data-name="Trazado 825795" d="M156.415,261.559H153.7a4.753,4.753,0,0,1-4.753-4.753V218.124h12.221v38.681a4.753,4.753,0,0,1-4.753,4.753" transform="translate(40.512 59.328)" fill="#171612"/>
            <path id="Trazado_825796" data-name="Trazado 825796" d="M197.732,313.325v7.759h-5.623v-3.506a1.789,1.789,0,0,0-1.79-1.791h-24.08a1.505,1.505,0,0,0-1.5,1.5v3.792H158.2v-3.792a1.505,1.505,0,0,0-1.5-1.5h-23.9a1.791,1.791,0,0,0-1.79,1.791v3.506h-5.621v-7.759a3.159,3.159,0,0,1,3.16-3.16H158.2V210.156h6.538V310.165h29.837a3.161,3.161,0,0,1,3.161,3.16" transform="translate(34.103 57.16)" fill="#171612"/>
            <path id="Trazado_825797" data-name="Trazado 825797" d="M137.816,303.1a8.372,8.372,0,1,1-8.371-8.371,8.372,8.372,0,0,1,8.371,8.371" transform="translate(32.931 80.163)" fill="#171612"/>
            <path id="Trazado_825798" data-name="Trazado 825798" d="M128.679,307.129a4.794,4.794,0,1,1,4.794-4.794,4.8,4.8,0,0,1-4.794,4.794" transform="translate(33.696 80.928)" fill="#5a554d"/>
            <path id="Trazado_825799" data-name="Trazado 825799" d="M163.984,303.1a8.372,8.372,0,1,1-8.371-8.371,8.371,8.371,0,0,1,8.371,8.371" transform="translate(40.048 80.163)" fill="#171612"/>
            <path id="Trazado_825800" data-name="Trazado 825800" d="M154.848,307.129a4.794,4.794,0,1,1,4.794-4.794,4.8,4.8,0,0,1-4.794,4.794" transform="translate(40.813 80.928)" fill="#5a554d"/>
            <path id="Trazado_825801" data-name="Trazado 825801" d="M190.245,303.1a8.372,8.372,0,1,1-8.371-8.371,8.371,8.371,0,0,1,8.371,8.371" transform="translate(47.191 80.163)" fill="#171612"/>
            <path id="Trazado_825802" data-name="Trazado 825802" d="M181.109,307.129a4.794,4.794,0,1,1,4.794-4.794,4.8,4.8,0,0,1-4.794,4.794" transform="translate(47.956 80.928)" fill="#5a554d"/>
            <path id="Trazado_825803" data-name="Trazado 825803" d="M264.985,100.318,229.455,248.33a10.623,10.623,0,0,1-10.33,8.143h-83.39a10.623,10.623,0,0,1-10.317-13.156L161.749,95.306a10.622,10.622,0,0,1,10.316-8.091h82.59a10.623,10.623,0,0,1,10.33,13.1" transform="translate(34.028 23.722)" fill="#5a554d"/>
            <path id="Trazado_825804" data-name="Trazado 825804" d="M257.769,100.318,222.239,248.33a10.623,10.623,0,0,1-10.33,8.143h-83.39A10.623,10.623,0,0,1,118.2,243.317L154.533,95.306a10.622,10.622,0,0,1,10.316-8.091h82.59a10.623,10.623,0,0,1,10.33,13.1" transform="translate(32.065 23.722)" fill="#171612"/>
            <path id="Trazado_825805" data-name="Trazado 825805" d="M210.368,247.715H126.976a3.407,3.407,0,0,1-3.31-4.219L160,95.483a3.4,3.4,0,0,1,3.31-2.595H245.9a3.407,3.407,0,0,1,3.314,4.2L213.681,245.1a3.4,3.4,0,0,1-3.314,2.611M163.308,93.842a2.447,2.447,0,0,0-2.382,1.869L124.593,243.722a2.452,2.452,0,0,0,2.382,3.039h83.392a2.445,2.445,0,0,0,2.385-1.88L248.283,96.868a2.453,2.453,0,0,0-2.385-3.026Z" transform="translate(33.608 25.265)" fill="#5a554d"/>
            <path id="Trazado_825806" data-name="Trazado 825806" d="M87.122,227.439H227.18a12.006,12.006,0,0,0,11.692-9.284l1.875-8.063H91.158Z" transform="translate(23.696 57.143)" fill="#5a554d"/>
            <path id="Trazado_825807" data-name="Trazado 825807" d="M90.487,227.439H219.621a12,12,0,0,0,11.692-9.284l1.876-8.063H90.487a8.674,8.674,0,0,0,0,17.347" transform="translate(22.252 57.143)" fill="#171612"/>
            <path id="Trazado_825808" data-name="Trazado 825808" d="M130.266,183.27q1.969.538,3.909,1.007c.543.134,1.08.261,1.618.384a149.02,149.02,0,0,0,51.112,2.8c.567-.067,1.118-.137,1.648-.209a92.346,92.346,0,0,0,11.416-2.162l.051-.013A63.857,63.857,0,0,1,198.1,172.67c-.079-1.414-.136-2.787-.179-4.092v0c-.075-2.441-.092-4.65-.078-6.478V162c.008-1.23.028-2.281.052-3.106-8.1-1.535-23.031-4.218-36.871-5.927-10.041-1.241-19.51-1.97-25.375-1.379l-.333,2.181-.495,3.221L134.4,159.4l-.913,5.277-3.155,18.2Z" transform="translate(35.431 41.172)" fill="#c1725c"/>
            <path id="Trazado_825809" data-name="Trazado 825809" d="M198.565,171.107s-45.994,5.464-65.556-6.342c0,0-4.248,19.5-3.876,24.672.892,12.394,70.323,9.651,72.075-2.469.773-5.35-2.643-15.86-2.643-15.86" transform="translate(35.117 44.814)" fill="#467b6c"/>
            <path id="Trazado_825810" data-name="Trazado 825810" d="M198.186,170.047a12.273,12.273,0,0,1,1.531,7.4s-45.924,6.317-68.54-5.925a9.133,9.133,0,0,1,1.689-7.692s17.761,12.083,65.319,6.219" transform="translate(35.613 44.56)" fill="#253f3d"/>
            <path id="Trazado_825811" data-name="Trazado 825811" d="M133.845,156.985c4.853.349,11.288.973,18.5,2.1,13.917,2.162,30.749,6.17,44.774,13.586-.079-1.413-.136-2.786-.179-4.091v0c-.076-2.44-.092-4.649-.078-6.478V162c.008-1.23.028-2.282.051-3.107-8.1-1.535-23.029-4.217-36.87-5.926-10.041-1.241-19.51-1.972-25.375-1.379l-.333,2.18Z" transform="translate(36.405 41.172)" fill="#7d351d"/>
            <path id="Trazado_825812" data-name="Trazado 825812" d="M183.47,166.3v0c7.918-.349,6.356-4.8,6.356-4.8l-.057-.015-6.378-1.773v.1Z" transform="translate(49.881 43.443)" fill="#b56d25"/>
            <path id="Trazado_825813" data-name="Trazado 825813" d="M123.7,143.879a15.3,15.3,0,0,0,.187,1.576c.036.212.08.429.131.645a15.206,15.206,0,0,0,.445,1.52c.108.31.229.626.359.94a43.408,43.408,0,0,0,6.867,10.645c.223.265.435.5.635.731s.407.452.588.641c.293.309.541.56.729.738.1.1.193.181.28.254.24.223.378.337.378.337,0,.034,0,.064,0,.1-.009.248-.022.509-.038.785q-.038.691-.1,1.491-.063.887-.163,1.907c-.009.108-.022.219-.031.331l-.01.117c-.017.155-.028.314-.047.477-.1.978-.207,2.034-.335,3.149-.111.995-.235,2.039-.369,3.12l.013,0h0a36.144,36.144,0,0,1,3.877-.9h.006c7.137-1.281,15.918-.979,24.936.149q1.967.244,3.943.541c.721.108,1.44.22,2.161.333l0,0c4.554.73,9.086,1.627,13.417,2.59.343.076.687.153,1.03.232,6.333,1.434,12.2,3,17.036,4.386,2.412.689,4.563,1.334,6.387,1.9l-.009-.131q-.153-2-.252-3.911-.067-1.315-.107-2.586c-.013-.4-.025-.805-.036-1.2q-.067-2.644-.028-5.113.019-1.439.076-2.821c.015-.407.031-.81.053-1.207.057-1.147.13-2.267.219-3.349,0-.052.006-.1.013-.15.137-1.663.354-3.508.642-5.5q.071-.506.153-1.02c.778-5.094,2-11.04,3.559-17.22.076-.305.155-.611.235-.918.006-.032.015-.061.022-.093.309-1.216.636-2.446.973-3.676.1-.352.193-.7.3-1.052.055-.2.112-.4.165-.594.042-.153.089-.3.131-.454.13-.462.259-.916.4-1.376l.391-1.328c.235-.786.473-1.571.721-2.349.013-.041.025-.085.038-.127.08-.253.159-.508.242-.759s.153-.482.229-.724q.773-2.408,1.6-4.757c.324-.931.632-1.869.912-2.806.057-.193.115-.388.169-.581.088-.3.174-.611.253-.916.074-.251.14-.5.2-.756v0c.191-.747.366-1.5.524-2.25v0c.076-.369.15-.744.223-1.116v0c.2-1.118.373-2.23.49-3.33v0a34.682,34.682,0,0,0,.21-4.053c0-.359-.006-.717-.023-1.07-.015-.417-.041-.831-.076-1.236q-.042-.464-.094-.922c0-.019,0-.032-.006-.047-.042-.318-.086-.636-.137-.948-.025-.159-.051-.314-.079-.471l-.093-.463c-.032-.153-.066-.305-.1-.458v-.009c-.029-.1-.051-.2-.074-.3-.013-.048-.025-.1-.038-.146-.034-.137-.07-.273-.108-.411-.047-.181-.1-.355-.153-.533q-.185-.6-.4-1.183c-.009-.019-.015-.041-.025-.06-.053-.14-.111-.28-.168-.42s-.118-.276-.176-.413-.13-.285-.2-.429c-.123-.254-.254-.511-.388-.759-.083-.146-.162-.293-.248-.435-.066-.118-.136-.229-.21-.347-.155-.251-.317-.5-.492-.736-.083-.121-.172-.242-.261-.36-.072-.092-.146-.19-.219-.282-.025-.034-.053-.066-.083-.1-.076-.092-.153-.191-.235-.282-.212-.254-.439-.5-.673-.738q-.13-.134-.267-.267c-.108-.108-.22-.21-.335-.314s-.225-.2-.342-.3-.233-.2-.354-.293c-.079-.067-.162-.13-.244-.195a14.618,14.618,0,0,0-1.977-1.283c-.1-.057-.193-.111-.293-.162s-.206-.112-.314-.163c-.176-.089-.356-.174-.537-.257-.057-.029-.118-.053-.176-.079-.114-.051-.223-.1-.337-.146-.5-.214-1.033-.407-1.585-.585-.032-.013-.067-.023-.1-.034-.146-.046-.3-.09-.445-.137-.21-.06-.422-.117-.639-.174-.53-.137-1.058-.271-1.582-.4s-1.039-.259-1.548-.38c-6.454-1.573-11.882-2.568-13.874-2.918l-.375-.066-.172-.032a.069.069,0,0,1-.036,0,1.084,1.084,0,0,0-.108-.019.087.087,0,0,1-.022-.006l-.066-.009-.036-.006-2.632.4L161.235,86.66l-.81.123-1.5.226-.6.092-2.84.432c-2.742.5-5.148.988-7.262,1.5q-.958.229-1.837.467c-.426.112-.836.226-1.233.343a32.032,32.032,0,0,0-5.975,2.295,14.223,14.223,0,0,0-2.965,2.034c-.07.06-.136.123-.2.187a9.224,9.224,0,0,0-.683.719,2.25,2.25,0,0,0-.153.181,9.973,9.973,0,0,0-1.283,2c-.078.159-.156.318-.226.483-.146.331-.276.67-.391,1.016-.048.134-.093.271-.137.413-.066.22-.134.441-.193.67-.064.248-.13.506-.184.763-.066.289-.13.588-.191.893-.015.073-.028.146-.041.223-.032.168-.061.34-.089.515-.025.142-.048.285-.07.431-.01.064-.023.134-.032.2-.112.73-.21,1.5-.3,2.31-.023.219-.048.439-.078.664-.018.184-.037.371-.06.56-.019.21-.045.422-.066.639-.089.823-.182,1.69-.28,2.6,0,.036-.006.07-.013.1-.019.184-.038.375-.064.563-.01.1-.023.212-.036.317-.013.122-.028.245-.041.369-.019.172-.038.347-.061.522-.006.055-.015.114-.022.172-.019.165-.042.333-.064.5-.041.327-.087.655-.134.979-.114.8-.244,1.591-.384,2.382v0c-.064.346-.127.687-.195,1.029-.009.057-.022.114-.032.172v0c-.022.111-.041.219-.066.329-.34,1.758-.734,3.5-1.158,5.213-1.858,7.547-4.232,12.4-5.188,16.864-.064.314-.125.623-.176.935a16.109,16.109,0,0,0-.219,3.784" transform="translate(33.637 22.46)" fill="#e59f3f"/>
            <path id="Trazado_825814" data-name="Trazado 825814" d="M131.183,154.162s-.735,3.3,3.03,4.739l.868-5.65a12.365,12.365,0,0,0-3.9.911" transform="translate(35.665 41.683)" fill="#b56d25"/>
            <path id="Trazado_825815" data-name="Trazado 825815" d="M130.509,99.03a80.031,80.031,0,0,0,12.27,2.628c10.573,1.417,20.906.214,31.333-1.684,11-2,22.362-4.35,33.535-2.25a36.992,36.992,0,0,1,9.222,3.01c0-.359-.006-.717-.022-1.071a37.567,37.567,0,0,0-8.651-2.8c-10.3-2.011-20.811-.282-30.99,1.58-10.6,1.935-21.091,3.663-31.889,2.564a78.378,78.378,0,0,1-14.65-2.923c-.032.168-.061.34-.089.514-.025.144-.048.286-.07.432" transform="translate(35.497 26.101)" fill="#efc489"/>
            <path id="Trazado_825816" data-name="Trazado 825816" d="M141.526,88.432a99.6,99.6,0,0,0,64.068-1.341c-.1-.057-.195-.112-.293-.163s-.207-.111-.314-.162c-.176-.089-.356-.176-.538-.258a98.234,98.234,0,0,1-16.775,4.367,97.509,97.509,0,0,1-44.311-2.91q-.958.229-1.837.467" transform="translate(38.494 23.53)" fill="#efc489"/>
            <path id="Trazado_825817" data-name="Trazado 825817" d="M129.527,106.832q2.141.868,4.337,1.608a78.81,78.81,0,0,0,24.745,4.131c9.355.041,18.361-2.145,27.526-3.715,9.245-1.582,18.416-1.843,27.437,1.052.557.178,1.109.366,1.66.566.089-.3.174-.611.253-.915q-1.3-.473-2.628-.868c-8.482-2.536-17.115-2.362-25.785-.954-9.489,1.544-18.783,3.922-28.463,3.88a77.889,77.889,0,0,1-28.949-5.763c-.041.327-.085.654-.134.978" transform="translate(35.23 28.791)" fill="#efc489"/>
            <path id="Trazado_825818" data-name="Trazado 825818" d="M123.869,133.045a18.319,18.319,0,0,0,9.19-1.379,9.388,9.388,0,0,0,5.408-7.869c.518-6.051-2.831-11.962-7.786-15.3-.064.347-.127.687-.193,1.03a16.444,16.444,0,0,1,7.071,13.184,8.746,8.746,0,0,1-5.94,8.535,18.53,18.53,0,0,1-7.576.861c-.064.315-.123.623-.174.935" transform="translate(33.691 29.511)" fill="#efc489"/>
            <path id="Trazado_825819" data-name="Trazado 825819" d="M124.3,138.987c.108.312.229.626.359.94,17.415-4.655,32.522-15.3,49.647-20.8,12.543-4.03,26.7-5.4,39.163-1.2.013-.042.025-.086.038-.127.079-.254.158-.509.24-.759a51.28,51.28,0,0,0-12.453-2.543c-18.864-1.516-36.192,6.7-52.7,14.713-7.652,3.715-15.86,7.474-24.3,9.775" transform="translate(33.807 31.093)" fill="#efc489"/>
            <path id="Trazado_825820" data-name="Trazado 825820" d="M182.8,138.84q4.667,3.37,9.6,6.337c.048-.337.1-.678.153-1.02q-3.66-2.213-7.182-4.659c-2.872-2-11.284-6.73-7.76-11.167,1.332-1.678,3.743-2.25,5.771-2.466a33.987,33.987,0,0,1,7.334.042,35.557,35.557,0,0,1,5.4,1.029c.076-.3.156-.609.235-.918a36.146,36.146,0,0,0-8.618-1.264c-3.646-.092-9.733-.032-11.494,4-1.942,4.456,3.6,7.938,6.565,10.083" transform="translate(47.826 33.926)" fill="#efc489"/>
            <path id="Trazado_825821" data-name="Trazado 825821" d="M129.977,146.583c.223.263.435.5.636.731a44.561,44.561,0,0,0,8.128-5.162c5.141-3.978,9.991-8.713,16.191-11.023,7.21-2.689,14.382-.4,20.872,3.088a145.971,145.971,0,0,1,28.145,20c.015-.407.032-.81.053-1.207q-5.514-4.883-11.471-9.238a124.654,124.654,0,0,0-18.286-11.434c-6.085-2.984-12.758-4.588-19.336-2.221-5.889,2.119-10.655,6.393-15.457,10.261a46.722,46.722,0,0,1-9.476,6.2" transform="translate(35.352 35.082)" fill="#efc489"/>
            <path id="Trazado_825822" data-name="Trazado 825822" d="M169.187,157.57c.343.076.687.153,1.029.232a9.641,9.641,0,0,1,10.458-5.98,24.009,24.009,0,0,1,12.6,5.637c-.013-.4-.025-.8-.034-1.2-5.552-4.28-14.554-8.122-20.535-3.432a10.714,10.714,0,0,0-3.515,4.745" transform="translate(46.017 40.983)" fill="#efc489"/>
            <path id="Trazado_825823" data-name="Trazado 825823" d="M131.721,149.336a60.659,60.659,0,0,1,15.609.07,40.348,40.348,0,0,1,16.468,5.983c.721.108,1.439.22,2.16.333a34.34,34.34,0,0,0-7.165-4.14c-8.8-3.775-17.875-4.191-26.983-3.171-.01.108-.023.219-.032.331l-.01.117c-.015.156-.028.315-.047.477" transform="translate(35.827 40.236)" fill="#efc489"/>
            <path id="Trazado_825824" data-name="Trazado 825824" d="M150.923,87.1c-.41,4.981,1.973,8.914,8.786,8.926,12.913.02,20.132-10.308,21.537-13.374-.289-.051-.44-.075-.44-.075Z" transform="translate(41.037 22.461)" fill="#b56d25"/>
            <path id="Trazado_825825" data-name="Trazado 825825" d="M176.032,146.827a.7.7,0,0,1-.58.388.687.687,0,0,1-.349-.067,40.1,40.1,0,0,0-25.423-2.031,43.481,43.481,0,0,1-17.552,1.381c.017-.277.029-.538.037-.786l0-.1s-.243-.206-.656-.593c4.594.842,10.654.655,17.809-1.249a40.779,40.779,0,0,1,26.39,2.127.693.693,0,0,1,.321.929" transform="translate(35.77 38.755)" fill="#b56d25"/>
            <path id="Trazado_825826" data-name="Trazado 825826" d="M144.769,270.2l5.444,21.919-15.951,1.057L124.022,270.2Z" transform="translate(33.733 73.491)" fill="#c1725c"/>
            <path id="Trazado_825827" data-name="Trazado 825827" d="M100.505,315.364l59.937-.7a8.375,8.375,0,0,0,.749-3.338c.315-5.074-1.4-13.146-2.248-18.239-.1-.6-.192-1.15-.262-1.652a17.57,17.57,0,0,1-.2-2.082c-.048-4.163-3.726-3.406-3.726-3.406-5.995,6.019-12.968-2.82-16.943.153,0,0-1.712,1.258-6.421,5.6s-12.768,7.258-19.623,10.22c-8.85,3.822-11.33,7.566-11.793,10.13a4.681,4.681,0,0,0,.532,3.322" transform="translate(27.168 77.644)" fill="#171612"/>
            <path id="Trazado_825828" data-name="Trazado 825828" d="M100.505,309.835l59.937-.7a8.375,8.375,0,0,0,.749-3.338l-61.218.719a4.681,4.681,0,0,0,.532,3.322" transform="translate(27.168 83.173)" fill="#5a554d"/>
            <path id="Trazado_825829" data-name="Trazado 825829" d="M143.326,313.458l1.781-.022a13.15,13.15,0,0,1-3.335-9.559,16.911,16.911,0,0,1,6.17-12.069c-.1-.594-.191-1.15-.261-1.652a18.361,18.361,0,0,0-7.337,13.666,14.541,14.541,0,0,0,2.982,9.635" transform="translate(38.169 78.92)" fill="#5a554d"/>
            <path id="Trazado_825830" data-name="Trazado 825830" d="M126.5,293.742a.988.988,0,0,0,.215-1.949l-3.755-.887a.988.988,0,1,0-.454,1.923l3.755.885a.966.966,0,0,0,.239.027" transform="translate(33.114 79.117)" fill="#fff"/>
            <path id="Trazado_825831" data-name="Trazado 825831" d="M129.16,291.431a.988.988,0,0,0,.215-1.95l-3.755-.885a.988.988,0,0,0-.454,1.923l3.755.885a.966.966,0,0,0,.239.027" transform="translate(33.837 78.488)" fill="#fff"/>
            <path id="Trazado_825832" data-name="Trazado 825832" d="M123.577,295.488a.988.988,0,0,0,.214-1.95l-3.755-.885a.988.988,0,0,0-.453,1.923l3.755.885a.964.964,0,0,0,.239.027" transform="translate(32.318 79.591)" fill="#fff"/>
            <path id="Trazado_825833" data-name="Trazado 825833" d="M120.653,297.167a.988.988,0,0,0,.214-1.95l-3.755-.885a.988.988,0,0,0-.453,1.923l3.755.885a.963.963,0,0,0,.239.027" transform="translate(31.523 80.048)" fill="#fff"/>
            <path id="Trazado_825834" data-name="Trazado 825834" d="M117.462,298.726a.988.988,0,0,0,.215-1.949l-3.757-.887a.988.988,0,0,0-.453,1.923l3.756.885a.958.958,0,0,0,.239.027" transform="translate(30.655 80.472)" fill="#fff"/>
            <path id="Trazado_825835" data-name="Trazado 825835" d="M114,300.064a.988.988,0,0,0,.214-1.95l-3.755-.885a.988.988,0,1,0-.453,1.923l3.755.885a.963.963,0,0,0,.239.027" transform="translate(29.712 80.836)" fill="#fff"/>
            <path id="Trazado_825836" data-name="Trazado 825836" d="M133.34,171.944S81.42,189.787,84.291,212.98s53.369,92.132,53.369,92.132L158,301.5,147.964,263.75c-5.855-21.013-8.344-32.742-16.1-42l42.66-6.538s-9.835-42.706-41.182-43.272" transform="translate(22.895 46.767)" fill="#467b6c"/>
            <path id="Trazado_825837" data-name="Trazado 825837" d="M144.861,287.427a.785.785,0,0,0,.684-1.051c-.1-.272-9.908-27.517-14.8-47.225a64.5,64.5,0,0,0-18.023-30.479c4.8-.449,12.73-2.12,13.114-2.2a.785.785,0,0,0-.326-1.537c-.107.022-10.746,2.264-14.737,2.278a.785.785,0,0,0-.487,1.4,62.273,62.273,0,0,1,18.935,30.92c4.912,19.787,14.749,47.106,14.848,47.379a.785.785,0,0,0,.792.518" transform="translate(29.916 55.735)" fill="#253f3d"/>
            <path id="Trazado_825838" data-name="Trazado 825838" d="M123.782,274.423a.761.761,0,0,0,.107-.015l21.656-4.527a.786.786,0,0,0-.322-1.538l-21.654,4.528a.785.785,0,0,0,.214,1.552" transform="translate(33.439 72.982)" fill="#253f3d"/>
            <path id="Trazado_825839" data-name="Trazado 825839" d="M63.61,255.482l-13.6,16.713-13.736-9.673L48.9,241.638Z" transform="translate(9.866 65.723)" fill="#c1725c"/>
            <path id="Trazado_825840" data-name="Trazado 825840" d="M0,254.951l46.526,37.795a8.374,8.374,0,0,0,2.711-2.087c3.487-3.7,7.336-11,9.937-15.458.3-.523.589-1.006.856-1.437a17.6,17.6,0,0,1,1.175-1.73c2.625-3.232-.686-5-.686-5-8.457.791-8.165-10.462-13.122-10.72,0,0-2.122-.127-8.515.195s-14.457-2.587-21.623-4.694c-9.247-2.722-13.548-1.43-15.542.245A4.68,4.68,0,0,0,0,254.951" transform="translate(0 68.062)" fill="#171612"/>
            <path id="Trazado_825841" data-name="Trazado 825841" d="M0,254.562l46.526,37.795a8.374,8.374,0,0,0,2.711-2.087l-47.519-38.6A4.68,4.68,0,0,0,0,254.562" transform="translate(0 68.451)" fill="#5a554d"/>
            <path id="Trazado_825842" data-name="Trazado 825842" d="M32.845,283.862l1.383,1.122a13.152,13.152,0,0,1,3.55-9.48,16.9,16.9,0,0,1,12.463-5.331c.3-.523.588-1.007.855-1.439a18.366,18.366,0,0,0-14.38,5.814,14.542,14.542,0,0,0-3.871,9.314" transform="translate(8.934 73.091)" fill="#5a554d"/>
            <path id="Trazado_825843" data-name="Trazado 825843" d="M30.009,258.862a.988.988,0,0,0,1.412-1.361l-2.32-3.083a.988.988,0,0,0-1.579,1.188l2.32,3.083a1.025,1.025,0,0,0,.167.173" transform="translate(7.432 69.092)" fill="#fff"/>
            <path id="Trazado_825844" data-name="Trazado 825844" d="M33.531,258.786a.988.988,0,0,0,1.412-1.361l-2.32-3.083a.988.988,0,0,0-1.579,1.188l2.32,3.083a1.026,1.026,0,0,0,.167.173" transform="translate(8.39 69.071)" fill="#fff"/>
            <path id="Trazado_825845" data-name="Trazado 825845" d="M26.645,258.334a.988.988,0,0,0,1.412-1.361l-2.32-3.083a.988.988,0,0,0-1.579,1.188l2.32,3.083a1.025,1.025,0,0,0,.167.173" transform="translate(6.517 68.948)" fill="#fff"/>
            <path id="Trazado_825846" data-name="Trazado 825846" d="M23.323,257.755a.987.987,0,0,0,1.411-1.361l-2.32-3.083a.987.987,0,0,0-1.577,1.188l2.32,3.083a1.024,1.024,0,0,0,.167.173" transform="translate(5.613 68.791)" fill="#fff"/>
            <path id="Trazado_825847" data-name="Trazado 825847" d="M19.873,256.911a.988.988,0,0,0,1.412-1.361l-2.32-3.082a.987.987,0,1,0-1.579,1.187l2.32,3.083a1.023,1.023,0,0,0,.167.173" transform="translate(4.675 68.562)" fill="#fff"/>
            <path id="Trazado_825848" data-name="Trazado 825848" d="M16.353,255.724a.988.988,0,0,0,1.412-1.361l-2.32-3.083a.988.988,0,0,0-1.579,1.188l2.32,3.083a1.025,1.025,0,0,0,.167.173" transform="translate(3.718 68.238)" fill="#fff"/>
            <path id="Trazado_825849" data-name="Trazado 825849" d="M39.127,272.222,56.943,283.61s13.989-12.957,31.264-28.262,33.381-33.353,40.121-47.006c0,0,50.964,22,78.592,16.505,11.5-2.283,16.682-10.164,18.814-18.582a38.063,38.063,0,0,0,.754-3.788,62.236,62.236,0,0,0-.786-20.866s-64.793-11.924-98.269-10.767c-2.337.08-4.517.224-6.514.441a37.007,37.007,0,0,0-7.965,1.6c-4.256,1.495-9.546,5.975-15.322,12.259-.207.223-.412.45-.621.681-24.7,27.259-57.884,86.4-57.884,86.4" transform="translate(10.642 46.446)" fill="#467b6c"/>
            <path id="Trazado_825850" data-name="Trazado 825850" d="M85.122,185.125c18.242,3.225,26.532-7.7,29.8-14.3-2.337.081-4.517.224-6.515.441a37.111,37.111,0,0,0-7.965,1.6c-4.256,1.495-9.546,5.973-15.321,12.258" transform="translate(23.152 46.463)" fill="#5fa68d"/>
            <path id="Trazado_825851" data-name="Trazado 825851" d="M93.172,229.33a.78.78,0,0,0,.425-.163c12.561-9.733,19.315-23.924,20.9-27.553,6.575,3.81,26.707,9.736,27.6,10a.785.785,0,1,0,.443-1.507c-.226-.067-22.65-6.667-27.963-10.293a.784.784,0,0,0-1.174.364c-.066.167-6.688,16.84-20.767,27.75a.786.786,0,0,0,.538,1.4" transform="translate(25.113 54.31)" fill="#253f3d"/>
            <path id="Trazado_825852" data-name="Trazado 825852" d="M60.217,259.321a.785.785,0,0,0,.378-1.44L42.464,245.96a.785.785,0,1,0-.862,1.313l18.13,11.921a.787.787,0,0,0,.486.127" transform="translate(11.219 66.864)" fill="#253f3d"/>
            <path id="Trazado_825853" data-name="Trazado 825853" d="M52.771,270.575a.792.792,0,0,0,1.11.005c.3-.3,29.953-29.668,44.259-42.323,12.915-11.428,20.726-29.165,22.3-32.984,5.3,2.09,38.344,14.662,69.06,16.348,13.9.767,22.629-3.293,27.5-6.832a28.333,28.333,0,0,0,5.079-4.7,38.556,38.556,0,0,0,.758-3.791,18.609,18.609,0,0,1-1.463,2.159A26.644,26.644,0,0,1,216,203.576c-4.658,3.361-13.025,7.213-26.413,6.48-33.068-1.82-68.92-16.382-69.278-16.527a.765.765,0,0,0-.608.005.777.777,0,0,0-.425.44c-.078.2-8,20.567-22.18,33.1-14.334,12.683-44.022,42.086-44.321,42.38a.792.792,0,0,0-.005,1.116" transform="translate(14.291 52.622)" fill="#253f3d"/>
            <path id="Trazado_825854" data-name="Trazado 825854" d="M166.646,32.98c1.523,1.819,5.59,5.775,5.59,5.775l5.885,4.3,4.985,4.365s15.223,8.568,18.458,6.146c1.994-1.5,1.791-4.154,1.339-5.971a11.98,11.98,0,0,0-.65-1.923,6.159,6.159,0,0,0,1,.338,4.574,4.574,0,0,0,5.772-2.694c1.994-4.6-3.905-9.886-3.905-9.886s4.662,0,6.78-3.91-5.958-11.069-5.958-11.069,2.736-.5,1.435-5.347S200.8,9.5,200.8,9.5,201.612.73,195.273.041,184.2,7.553,184.2,7.553a10.235,10.235,0,0,0-9.822.364c-5.1,3.04-2.1,12.712-2.1,12.712s-5.225-2.534-8.96,1.815c-2.354,2.741.728,7.437,3.33,10.536" transform="translate(44.192 0)" fill="#171612"/>
            <path id="Trazado_825855" data-name="Trazado 825855" d="M170.322,30.469s8.081,1.841,10.87,8.666a6.061,6.061,0,0,1-3.787,1.973s-1.314-4.586-7.589-7.233c0,0-.94-2.181.5-3.406" transform="translate(46.107 8.287)" fill="#d03f23"/>
            <path id="Trazado_825856" data-name="Trazado 825856" d="M145.625,66.292s-5.48-1.389-6.749-9.247c-2.067-12.8,6.747-24.315,22.626-25.977,20.8-2.175,23.553,4.323,27.38,12.481s2.435,20.131-1.876,26.588c-4.173,6.252-12.418,8.736-12.418,8.736Z" transform="translate(37.692 8.335)" fill="#171612"/>
            <path id="Trazado_825857" data-name="Trazado 825857" d="M144.4,56.307s-2.594.3-3,3.634,1.423,8.823,4.761,8.047S144.4,56.307,144.4,56.307" transform="translate(38.446 15.315)" fill="#7d351d"/>
            <path id="Trazado_825858" data-name="Trazado 825858" d="M147.906,66.652a3.011,3.011,0,1,1-3.38-2.59,3.011,3.011,0,0,1,3.38,2.59" transform="translate(38.598 17.417)" fill="#fff"/>
            <path id="Trazado_825859" data-name="Trazado 825859" d="M179.332,87.767s-4.283,8.681-13.956,10.373c-12.287,2.15-13.856-3.127-13.856-3.127a23.325,23.325,0,0,0,.829-5.143c.036-.677.047-1.37.034-2.087a56.812,56.812,0,0,0-.555-6.548c-.076-.575-.162-1.174-.253-1.791l-.01-.073c8.487-2.281,15.367-6.282,19.964-12.731l1.259-.8.848-.544.174.495-.116,1.593c-.566,7.492,1.3,13.628,5.636,20.387" transform="translate(41.212 17.759)" fill="#c1725c"/>
            <path id="Trazado_825860" data-name="Trazado 825860" d="M165.794,71.656c-1.684,4.134-5.657,11.475-13.422,14.4a56.526,56.526,0,0,0-.555-6.548c-.076-.575-.16-1.174-.253-1.791.169.015.343.024.516.031,4.664.168,9.653-2.385,13.713-6.088" transform="translate(41.224 19.49)" fill="#7d351d"/>
            <path id="Trazado_825861" data-name="Trazado 825861" d="M186.538,60.695c.431,4.624-2.955,10.65-8.985,11.382l-.032,0h0l-.128.018c-.073.275-.16.546-.254.823-.039.12-.081.242-.125.361a.194.194,0,0,1-.014.034c-3.032,8.2-13.793,13.87-19.83,14.6a13.8,13.8,0,0,1-4.13-.149c-6.546-.794-8.555-9.35-8.167-16.072a25.239,25.239,0,0,1,.317-2.778c.01-.06.022-.12.032-.179,0,0-3.015-9.069-3.9-13.065-1.7-7.746,2.049-16.129,19.09-19.3s22.157,7.114,23.893,12.66c.291.923.626,6.56-.229,7.553,1.707.679,2.318,2.555,2.463,4.109" transform="translate(38.336 9.732)" fill="#c1725c"/>
            <path id="Trazado_825862" data-name="Trazado 825862" d="M162.726,47.6a8.5,8.5,0,0,0,4.223,7.313h0c2.527,1.4,4.522,2.737,3.685,5.5-1.1,3.634-.045,5.977,2.07,6,3.771.043,3.863-8.452,11.63-9.553,0,0,2.759-.846,2.024-5.738s-10.391-18.111-23.15-16.159-23.576,9.3-23.2,18.36,2.15,7.113,2.15,7.113-.183-.525.408-7.874c.53-6.593,21.11-9.274,20.164-4.963" transform="translate(38.077 9.457)" fill="#171612"/>
            <path id="Trazado_825863" data-name="Trazado 825863" d="M175.741,64.573a3.011,3.011,0,1,1-3.38-2.591,3.011,3.011,0,0,1,3.38,2.591" transform="translate(46.169 16.851)" fill="#fff"/>
            <g id="Grupo_1074131" data-name="Grupo 1074131" transform="translate(183.203 78.648)" opacity="0.5">
              <g id="Grupo_1074130" data-name="Grupo 1074130">
                <g id="Grupo_1074129" data-name="Grupo 1074129" clip-path="url(#clip-path-4)">
                  <path id="Trazado_825864" data-name="Trazado 825864" d="M147.422,62.954c.051.688-1.407,1.374-3.392,1.655a25.239,25.239,0,0,1,.317-2.778c1.741.059,3.03.5,3.076,1.123" transform="translate(-144.029 -61.831)" fill="#7d351d"/>
                </g>
              </g>
            </g>
            <path id="Trazado_825865" data-name="Trazado 825865" d="M152.377,70.119a2.159,2.159,0,0,0,1.23-.75.364.364,0,0,0-.584-.435,1.48,1.48,0,0,1-1.6.427.364.364,0,0,0-.2.7,2.375,2.375,0,0,0,1.149.057" transform="translate(41.061 18.71)" fill="#7d351d"/>
            <path id="Trazado_825866" data-name="Trazado 825866" d="M152.345,68.7l.061-.013a4.608,4.608,0,0,0,3.377-2.782.564.564,0,0,0-1.066-.368,3.488,3.488,0,0,1-2.553,2.048l-.05.01a3.421,3.421,0,0,1-2.992-.544.564.564,0,1,0-.778.815,4.521,4.521,0,0,0,4,.833" transform="translate(40.301 17.722)" fill="#7d351d"/>
            <path id="Trazado_825867" data-name="Trazado 825867" d="M150.693,65.879a.527.527,0,0,1-.29-.045l-2.485-1.159a.524.524,0,0,1-.085-.9,7.573,7.573,0,0,0,3.031-5.637.526.526,0,1,1,1.044.127,8.757,8.757,0,0,1-2.779,5.817l1.718.8a.526.526,0,0,1-.154,1" transform="translate(40.15 15.686)" fill="#7d351d"/>
            <path id="Trazado_825868" data-name="Trazado 825868" d="M153.291,52.582a1.278,1.278,0,0,1-1.088-2.26,3.708,3.708,0,0,1,2.52-.64,9.269,9.269,0,0,1,7.029,4.311s-4.589-1.778-7.047-1.633a7.149,7.149,0,0,0-1.414.223" transform="translate(41.255 13.509)" fill="#171612"/>
            <path id="Trazado_825869" data-name="Trazado 825869" d="M148.56,53.477a1.277,1.277,0,0,0,.463-2.465,3.709,3.709,0,0,0-2.6.037c-4.546,1.6-4.407,4.975-4.407,4.975a16.945,16.945,0,0,1,5.12-2.394,7.126,7.126,0,0,1,1.425-.153" transform="translate(38.627 13.816)" fill="#171612"/>
            <g id="Grupo_1074134" data-name="Grupo 1074134" transform="translate(197.284 77.076)" opacity="0.5">
              <g id="Grupo_1074133" data-name="Grupo 1074133">
                <g id="Grupo_1074132" data-name="Grupo 1074132" clip-path="url(#clip-path-5)">
                  <path id="Trazado_825870" data-name="Trazado 825870" d="M155.1,62.383c.059.785,2.061,1.273,4.471,1.091s4.316-.964,4.257-1.749-2.062-1.273-4.471-1.091-4.316.964-4.257,1.749" transform="translate(-155.099 -60.595)" fill="#7d351d"/>
                </g>
              </g>
            </g>
            <path id="Trazado_825871" data-name="Trazado 825871" d="M170.677,64.676l-.032,0h0l-.127.018c-.073.275-.162.546-.254.824-.039.118-.083.24-.125.361a.23.23,0,0,1-.014.033,5.589,5.589,0,0,1-2.422-.706,4.442,4.442,0,0,1-1.357-1.221.627.627,0,0,1,1.01-.743,3.37,3.37,0,0,0,1.609,1.163,4.513,4.513,0,0,0,1.122.239,5.145,5.145,0,0,0,.593.028" transform="translate(45.21 17.132)" fill="#7d351d"/>
            <path id="Trazado_825872" data-name="Trazado 825872" d="M169.178,63.351a.627.627,0,0,0,.466-.547c.426-4.427,5.44-6.794,5.491-6.818a.627.627,0,0,0-.524-1.138c-.234.108-5.719,2.685-6.215,7.837a.627.627,0,0,0,.563.684.654.654,0,0,0,.219-.018" transform="translate(45.801 14.903)" fill="#7d351d"/>
            <path id="Trazado_825873" data-name="Trazado 825873" d="M173.982,59.756a.647.647,0,0,0,.218-.1.628.628,0,0,0,.126-.878,4.308,4.308,0,0,0-3.942-1.511.627.627,0,0,0,.168,1.243,3.052,3.052,0,0,1,2.77,1.019.625.625,0,0,0,.66.231" transform="translate(46.195 15.563)" fill="#7d351d"/>
            <path id="Trazado_825874" data-name="Trazado 825874" d="M154.031,58.361c.148,1.175.762,2.066,1.371,1.988s.986-1.09.84-2.265-.762-2.066-1.372-1.988-.986,1.09-.838,2.265" transform="translate(41.886 15.256)" fill="#171612"/>
            <path id="Trazado_825875" data-name="Trazado 825875" d="M158.453,56.063a.307.307,0,0,0,.125-.149.312.312,0,0,0-.172-.407c-.135-.055-3.308-1.311-5.372.95a.313.313,0,1,0,.463.422c1.772-1.942,4.644-.8,4.672-.792a.313.313,0,0,0,.284-.024" transform="translate(41.602 14.989)" fill="#171612"/>
            <path id="Trazado_825876" data-name="Trazado 825876" d="M145.582,59.415c.148,1.175.762,2.066,1.372,1.988s.984-1.09.838-2.265-.762-2.066-1.372-1.988-.986,1.09-.838,2.265" transform="translate(39.588 15.543)" fill="#171612"/>
            <path id="Trazado_825877" data-name="Trazado 825877" d="M149.74,57.024a.314.314,0,0,0-.074-.553c-.136-.048-3.367-1.151-5.319,1.2a.313.313,0,1,0,.482.4c1.676-2.022,4.6-1.024,4.629-1.012a.316.316,0,0,0,.282-.038" transform="translate(39.241 15.278)" fill="#171612"/>
            <path id="Trazado_825878" data-name="Trazado 825878" d="M159.451,105.839a6.481,6.481,0,0,1-.795.059,6.885,6.885,0,0,1-5.781-2.525C148.912,98.4,151.4,87.864,151.5,87.417a.661.661,0,1,1,1.286.31c-.025.1-2.44,10.36,1.121,14.823a5.553,5.553,0,0,0,4.729,2.025c8.675-.107,19.828-21.358,19.94-21.573a.662.662,0,0,1,1.174.611c-.458.88-11.033,21-20.3,22.227" transform="translate(40.972 22.479)" fill="#fff"/>
            <path id="Trazado_825879" data-name="Trazado 825879" d="M168.955,175.314,87.686,172.5a.281.281,0,0,1-.272-.293l.349-10.1a.283.283,0,0,1,.293-.272l81.269,2.812a.283.283,0,0,1,.273.293l-.35,10.1a.283.283,0,0,1-.293.273" transform="translate(23.776 44.018)" fill="#171612"/>
            <path id="Trazado_825880" data-name="Trazado 825880" d="M84.938,184.922a6.806,6.806,0,0,1-6.4-5.274l-13.32-57.841a5.52,5.52,0,0,1,5.57-6.756l36.64,1.268a5.52,5.52,0,0,1,5.172,4.208l16.077,65.908Z" transform="translate(17.701 31.292)" fill="#171612"/>
            <path id="Trazado_825881" data-name="Trazado 825881" d="M69.235,129.14c1.079,3.765,4.741,6.894,8.179,6.99s5.354-2.88,4.275-6.645-4.741-6.894-8.18-6.99-5.353,2.88-4.274,6.645" transform="translate(18.75 33.317)" fill="#e59f3f"/>
            <path id="Trazado_825882" data-name="Trazado 825882" d="M74.609,127.14c.215.753.633,1.37.932,1.379s.366-.6.15-1.348-.632-1.371-.931-1.379-.368.6-.151,1.348" transform="translate(20.259 34.214)" fill="#171612"/>
            <path id="Trazado_825883" data-name="Trazado 825883" d="M72.055,127.069c.216.753.633,1.37.932,1.379s.366-.6.15-1.348-.632-1.37-.931-1.379-.368.6-.151,1.348" transform="translate(19.564 34.195)" fill="#171612"/>
            <path id="Trazado_825884" data-name="Trazado 825884" d="M75.666,131.191c2.678.074,2.451-2.839,2.449-2.868a.432.432,0,0,0-.308-.359.193.193,0,0,0-.257.218c.009.106.181,2.479-2.053,2.417s-3.433-2.468-3.483-2.571a.385.385,0,0,0-.387-.234c-.136.031-.183.186-.106.346.014.029,1.467,2.978,4.144,3.051" transform="translate(19.443 34.757)" fill="#171612"/>
            <path id="Trazado_825885" data-name="Trazado 825885" d="M103.549,120.258l15.942,65.365,4.187.145L107.737,120.4a5.528,5.528,0,0,0-5.174-4.212l-4.187-.145a5.528,5.528,0,0,1,5.174,4.212" transform="translate(26.757 31.563)" fill="#171612"/>
            <path id="Trazado_825886" data-name="Trazado 825886" d="M118.177,184.633a.67.67,0,0,0,.109-.017.615.615,0,0,0,.453-.743l-15.8-65.228a.615.615,0,0,0-1.2.289l15.8,65.229a.615.615,0,0,0,.633.469" transform="translate(27.668 32.142)" fill="#5a554d"/>
            <path id="Trazado_825887" data-name="Trazado 825887" d="M96.261,145.335c.708,3.628-1.635,6.468-5.234,6.343a8.705,8.705,0,0,1-7.8-6.795c-.708-3.626,1.636-6.468,5.234-6.343a8.707,8.707,0,0,1,7.8,6.795" transform="translate(22.603 37.68)" fill="#5a554d"/>
            <path id="Trazado_825888" data-name="Trazado 825888" d="M114.372,173.3l.1.4,2.248,9.238.09.452s29.088,1.131,37.875,1.131q1.114-.147,2.243-.289l8.8-1.094c2.993-.388,6.06-.775,9.212-1.294a94.272,94.272,0,0,0,9.81-2.081c1.707-.473,3.455-1.026,5.253-1.722a39.378,39.378,0,0,0,5.538-2.625,29.87,29.87,0,0,0,5.637-4.181l.677-.668.165-.168c.057-.055.14-.15.21-.223l.426-.48c.136-.156.3-.335.4-.474l.347-.438.336-.443c.112-.149.2-.273.293-.413a28.992,28.992,0,0,0,1.853-3.018,53.662,53.662,0,0,0,2.389-5.18c.655-1.631,1.224-3.209,1.749-4.766,1.044-3.111,1.916-6.15,2.739-9.162s1.563-6,2.263-8.978c1.408-5.958,2.666-11.878,3.822-17.8.569-2.965,1.154-5.924,1.7-8.889l.808-4.456.4-2.237.394-2.291a11.914,11.914,0,0,0-23.481-4.051c-.032.187-.06.378-.085.569l-.017.146-.251,2.1-.273,2.142-.594,4.3c-.41,2.866-.823,5.733-1.3,8.586-.94,5.7-1.954,11.383-3.124,16.963-.59,2.787-1.217,5.548-1.89,8.257s-1.414,5.354-2.209,7.861c-.4,1.249-.817,2.456-1.245,3.572a28.536,28.536,0,0,1-1.275,2.893,8.53,8.53,0,0,1-.444.766l-.013.022a.13.13,0,0,0-.023.023,8.141,8.141,0,0,1-1.465,1.084,24.707,24.707,0,0,1-5.621,2.234,72.587,72.587,0,0,1-7.515,1.64c-5.359.931-11.158,1.544-17.129,2.295s-12.168,1.624-18.565,3.05a86.985,86.985,0,0,0-9.75,2.746,60.6,60.6,0,0,0-9.93,4.448l-.053.032c-.394.223-1.166.223-1.523.483" transform="translate(31.108 23.718)" fill="#c1725c"/>
            <path id="Trazado_825889" data-name="Trazado 825889" d="M170.5,141.6a12.466,12.466,0,0,1,5.687,2.835c.459.4,1.137-.27.674-.675a13.48,13.48,0,0,0-6.108-3.079c-.6-.128-.855.791-.253.92" transform="translate(46.28 38.261)" fill="#7d351d"/>
            <path id="Trazado_825890" data-name="Trazado 825890" d="M171.442,141.743l4.765-.341c.609-.045.614-1,0-.954l-4.765.341c-.609.043-.613,1,0,.954" transform="translate(46.506 38.2)" fill="#7d351d"/>
            <path id="Trazado_825891" data-name="Trazado 825891" d="M172.714,160.427c-6.831,1.318-13.381,3.376-20.372,3.852-.609.042-.613,1,0,.954,7.074-.482,13.712-2.552,20.625-3.886.6-.116.347-1.035-.253-.92" transform="translate(41.311 43.632)" fill="#7d351d"/>
            <path id="Trazado_825892" data-name="Trazado 825892" d="M170.723,140.644c-.019.018-.037.038-.055.056h0a.567.567,0,0,1,.061-.062c.005-.006.033-.029.022-.019Z" transform="translate(46.42 38.246)" fill="#c1725c"/>
            <path id="Trazado_825893" data-name="Trazado 825893" d="M170.631,140.727v0h0l0,0" transform="translate(46.41 38.275)" fill="#c1725c"/>
          </g>
        </g>
      </g>
    </g>
    <g id="Grupo_1074140" data-name="Grupo 1074140" transform="translate(8135.322 -7846.66)">
      <g id="Grupo_1074139" data-name="Grupo 1074139" transform="translate(0 0)" clip-path="url(#clip-path-6)">
        <path id="Trazado_825894" data-name="Trazado 825894" d="M151.153,38.063H7.181A7.181,7.181,0,0,1,0,30.881V7.181A7.181,7.181,0,0,1,7.181,0H151.153a7.181,7.181,0,0,1,7.181,7.181v23.7a7.181,7.181,0,0,1-7.181,7.181" transform="translate(0 0)" fill="#fff"/>
        <path id="Trazado_825895" data-name="Trazado 825895" d="M30.3,16.874A12.413,12.413,0,1,1,17.888,4.461,12.413,12.413,0,0,1,30.3,16.874" transform="translate(2.649 2.158)" fill="#314fa5"/>
        <path id="Trazado_825896" data-name="Trazado 825896" d="M13.62,20.779,9.327,16.487l1.8-1.8,2.5,2.5,7.307-7.307,1.794,1.8Z" transform="translate(4.512 4.781)" fill="#fff"/>
        <path id="Trazado_825897" data-name="Trazado 825897" d="M135.845,8.654H28.356a1.631,1.631,0,0,1,0-3.263H135.845a1.631,1.631,0,1,1,0,3.263" transform="translate(12.928 2.608)" fill="#f0e8e0"/>
        <path id="Trazado_825898" data-name="Trazado 825898" d="M135.845,21.355H28.356a1.631,1.631,0,0,1,0-3.263H135.845a1.631,1.631,0,1,1,0,3.263" transform="translate(12.928 8.753)" fill="#f0e8e0"/>
        <path id="Trazado_825899" data-name="Trazado 825899" d="M135.845,14.99H28.356a1.631,1.631,0,0,1,0-3.263H135.845a1.631,1.631,0,1,1,0,3.263" transform="translate(12.928 5.673)" fill="#f0e8e0"/>
        <path id="Trazado_825900" data-name="Trazado 825900" d="M52.373,23.105l8.419,17.882,8.417-17.882Z" transform="translate(25.336 11.178)" fill="#fff"/>
      </g>
    </g>
    <g id="Grupo_1074142" data-name="Grupo 1074142" transform="translate(8250.879 -7828.578)">
      <g id="Grupo_1074143" data-name="Grupo 1074143" transform="translate(0 0)">
        <path id="Trazado_825901" data-name="Trazado 825901" d="M2.264,29.165A24.393,24.393,0,1,0,21.418.475,24.393,24.393,0,0,0,2.264,29.165" transform="translate(1.347 0)" fill="#539380"/>
        <path id="Trazado_825902" data-name="Trazado 825902" d="M15.262,30.817a2.325,2.325,0,0,1-.473-.048,2.359,2.359,0,0,1-1.627-1.236l-2.715-5.309a2.359,2.359,0,1,1,4.2-2.148l1.373,2.683L32.147,11.338a2.359,2.359,0,0,1,3.018,3.626L16.772,30.272a2.364,2.364,0,0,1-1.509.546" transform="translate(3.98 4.542)" fill="#fff"/>
        <path id="Trazado_825903" data-name="Trazado 825903" d="M18.405,22.277a.609.609,0,0,0-.587.763A27.009,27.009,0,0,0,46.4,43.091a.625.625,0,0,0,.571-.53.6.6,0,0,0-.652-.678A25.795,25.795,0,0,1,18.991,22.735a.606.606,0,0,0-.585-.458" transform="translate(-17.799 9.377)" fill="#539380"/>
        <path id="Trazado_825904" data-name="Trazado 825904" d="M11.877,23.148l6.08,15.16a1.453,1.453,0,0,1-1.837,1.908L0,34.467Z" transform="translate(36.408 9.744)" fill="#539380"/>
      </g>
    </g>
  </g>
</svg>
